<?xml version="1.0" standalone="no"?>
<!DOCTYPE svg PUBLIC "-//W3C//DTD SVG 20010904//EN"
 "http://www.w3.org/TR/2001/REC-SVG-20010904/DTD/svg10.dtd">
<svg version="1.0" xmlns="http://www.w3.org/2000/svg"
 width="5367.000000pt" height="1038.000000pt" viewBox="0 0 5367.000000 1038.000000"
 preserveAspectRatio="xMidYMid meet">

<g transform="translate(0.000000,1038.000000) scale(0.100000,-0.100000)"
fill="#000000" stroke="none">
<path d="M8500 10371 l-25 -7 -5 -404 c-5 -382 -6 -407 -25 -439 -29 -49 -77
-71 -155 -71 -67 0 -128 24 -132 52 -1 7 -2 182 -2 388 l-1 374 -44 9 c-50 10
-50 10 -81 -71 -19 -49 -20 -77 -20 -375 0 -202 -4 -337 -11 -362 -14 -52 -93
-129 -148 -146 -36 -11 -42 -17 -52 -53 -13 -48 -6 -226 11 -271 15 -39 66
-92 112 -116 21 -11 44 -32 53 -49 25 -48 38 -175 30 -305 -8 -147 -17 -190
-45 -220 -25 -26 -125 -82 -173 -96 -50 -15 -545 -27 -832 -20 l-260 7 -80 33
c-44 18 -84 36 -89 41 -13 13 61 194 108 264 66 95 81 144 81 263 0 92 -2 104
-23 126 -12 13 -40 29 -62 36 -52 15 -96 54 -110 95 -7 21 -12 142 -13 318
l-2 283 -34 72 c-18 39 -38 70 -45 68 -6 -2 -23 -6 -38 -9 l-27 -6 -3 -388
c-3 -383 -3 -387 -27 -435 -30 -62 -77 -87 -161 -87 -65 0 -113 18 -125 47 -4
10 -7 187 -6 394 l3 376 -32 7 c-63 12 -67 10 -91 -56 -21 -60 -23 -82 -28
-408 -5 -310 -8 -349 -25 -383 -20 -40 -54 -69 -110 -92 -42 -18 -57 -45 -81
-139 -19 -78 -15 -127 15 -186 25 -48 104 -119 174 -156 31 -16 56 -32 56 -35
0 -4 -38 -16 -83 -27 -82 -21 -106 -21 -949 -22 -975 -2 -913 -6 -948 73 -10
23 -23 92 -30 152 -45 433 -139 770 -291 1040 -98 173 -163 238 -239 238 -151
0 -381 -324 -514 -723 -52 -155 -81 -311 -91 -485 -8 -148 -18 -186 -56 -229
-61 -70 -37 -68 -841 -71 -398 -1 -738 -6 -756 -10 -28 -6 -32 -11 -32 -40 l0
-32 83 -7 c45 -4 386 -7 757 -7 371 0 693 -4 714 -9 97 -22 125 -71 138 -238
5 -70 25 -208 45 -307 27 -136 34 -195 30 -243 -9 -117 -76 -201 -190 -239
-46 -15 -129 -18 -782 -23 -401 -4 -746 -11 -765 -16 -19 -6 -35 -15 -34 -22
1 -7 2 -25 3 -42 l1 -30 715 0 c393 0 715 -3 715 -7 0 -3 -112 -155 -249 -337
-136 -182 -290 -391 -341 -464 -169 -242 -143 -231 -537 -232 l-303 0 0 -50 0
-50 253 0 c138 0 270 -5 292 -10 52 -12 75 -41 75 -94 0 -55 -87 -927 -93
-933 -3 -2 -124 -12 -269 -21 -287 -19 -279 -16 -264 -78 l7 -25 272 2 c259 2
274 1 312 -18 63 -33 98 -79 163 -210 88 -180 160 -281 297 -419 118 -119 165
-154 408 -305 70 -44 74 -48 69 -78 l-4 -31 -759 0 -759 0 0 -39 0 -38 77 -7
c42 -3 589 -6 1217 -6 1204 -1 1187 0 1236 -45 32 -29 48 -76 73 -220 14 -77
44 -228 67 -335 70 -331 67 -509 -14 -676 -71 -146 -175 -250 -321 -321 -104
-49 -197 -66 -337 -60 -101 3 -124 8 -170 31 -29 14 -68 40 -87 57 l-33 31 33
35 c19 19 65 53 102 75 135 81 199 159 232 283 26 103 12 232 -36 327 -65 127
-262 237 -405 225 -84 -6 -154 -41 -237 -117 -129 -119 -191 -248 -191 -400 0
-292 222 -565 544 -668 189 -61 351 -54 567 23 135 48 224 104 324 204 69 69
94 103 128 171 98 200 96 361 -14 1050 -37 227 -29 280 45 314 19 8 6363 12
24865 16 20468 4 24847 7 24878 18 36 12 38 15 35 50 l-3 37 -24936 3 -24937
2 -6 23 c-5 18 4 31 45 70 29 27 86 71 128 99 264 177 407 362 482 625 37 130
63 174 122 202 l44 21 24464 1 c22896 0 24468 1 24529 17 64 17 65 17 65 52
l0 35 -20374 3 -20374 2 84 88 c298 308 320 404 155 650 -36 54 -99 140 -140
192 l-75 95 37 9 c58 14 3373 20 3447 6 114 -22 183 -81 240 -206 30 -66 40
-78 97 -115 35 -22 113 -65 173 -94 343 -166 671 -193 998 -83 227 75 373 164
537 322 130 127 162 149 245 171 53 13 1835 15 17449 15 16051 0 17394 1
17448 16 60 17 65 24 52 72 l-6 22 -15075 0 -15075 0 115 120 c126 132 182
208 209 285 23 66 22 103 -2 176 -31 92 -91 179 -239 349 l-74 84 29 10 c34
12 3322 25 3427 14 134 -15 221 -77 277 -200 28 -63 35 -71 120 -128 248 -166
461 -235 735 -234 174 0 269 16 445 74 248 81 361 150 510 310 82 89 115 116
168 142 l67 33 12145 5 c11085 5 12148 6 12185 21 35 14 40 20 43 52 l3 37
-9803 0 -9803 0 50 42 c28 22 95 87 151 142 230 232 222 361 -47 706 -49 63
-89 117 -89 121 0 4 17 13 38 21 30 11 349 13 1742 12 1698 -1 1705 -1 1751
-21 26 -11 62 -38 80 -58 111 -124 211 -221 274 -264 227 -157 519 -242 782
-227 123 7 264 39 470 107 203 68 310 146 391 286 47 79 111 142 169 164 33
12 968 15 6903 20 3776 3 6882 9 6903 14 37 7 38 8 35 49 l-3 41 -4472 3
-4473 2 0 30 c0 17 4 30 9 30 19 0 187 169 223 225 87 133 100 276 37 404 -83
170 -334 333 -639 414 -108 29 -126 31 -305 31 -208 1 -274 -9 -448 -66 -606
-199 -742 -552 -357 -922 39 -38 83 -84 96 -102 23 -29 23 -32 7 -40 -23 -11
-3369 -22 -3448 -11 -128 17 -216 83 -277 205 -30 59 -42 72 -117 124 -227
155 -484 238 -739 238 -193 0 -514 -67 -665 -138 -146 -69 -209 -128 -316
-292 -44 -68 -92 -109 -151 -129 -27 -9 -1917 -12 -8485 -12 -4647 1 -11031
-3 -14185 -9 -5104 -8 -5743 -7 -5809 6 -86 18 -158 48 -231 97 -83 56 -280
228 -296 258 -20 41 -18 195 6 301 27 123 74 229 127 288 58 64 85 141 86 240
0 46 -5 87 -14 105 -14 29 -21 34 -112 74 -85 37 -87 45 -87 346 -1 312 -8
378 -47 440 -28 45 -37 49 -83 36z m35525 -1165 c132 -35 210 -101 279 -236
43 -82 176 -407 176 -429 0 -16 -127 -208 -167 -252 -52 -57 -123 -91 -204
-97 -126 -9 -224 49 -292 171 -113 202 -204 525 -177 626 15 56 87 159 138
198 40 31 49 33 120 33 42 0 100 -6 127 -14z m-40457 -192 c84 -35 127 -104
143 -227 17 -133 -4 -298 -57 -460 -35 -106 -42 -110 -258 -148 -108 -19 -130
-20 -225 -9 -126 14 -187 37 -202 77 -14 38 6 118 72 277 154 376 354 563 527
490z m4859 -6 c36 -30 42 -70 44 -315 2 -222 0 -244 -17 -275 -25 -43 -94 -78
-156 -78 -45 0 -48 2 -72 43 -48 81 -78 178 -72 227 5 37 3 47 -14 60 -20 15
-20 16 21 120 60 149 85 187 154 224 33 18 87 15 112 -6z m30369 -383 c130
-64 264 -219 264 -305 0 -32 -34 -85 -73 -114 -27 -20 -38 -21 -294 -18 -296
4 -320 8 -349 63 -12 25 -15 50 -12 108 8 129 70 225 181 281 56 29 68 31 135
27 58 -3 87 -11 148 -42z m-32488 -236 c23 -29 42 -57 42 -63 0 -6 -9 -25 -19
-42 -23 -38 -138 -161 -143 -154 -2 3 -35 40 -72 83 -38 42 -66 80 -63 84 20
19 194 142 203 142 6 1 29 -22 52 -50z m-2830 -306 c43 -5 57 -11 73 -34 l20
-29 -247 -307 c-136 -170 -249 -310 -250 -312 -2 -2 -15 0 -29 3 -55 14 -60
28 -83 247 -29 266 -29 336 1 369 39 45 59 55 121 61 87 8 331 10 394 2z
m2307 -16 c89 -29 89 -29 90 -163 0 -139 -9 -164 -100 -279 -143 -181 -139
-263 23 -416 53 -51 71 -75 76 -104 4 -20 5 -39 3 -41 -2 -2 -524 -3 -1159 -2
l-1156 3 118 355 c65 195 140 409 167 475 l48 120 59 30 c55 28 71 31 195 36
75 4 462 6 861 4 635 -2 731 -4 775 -18z m530 -10 c37 -37 51 -93 40 -163 -11
-79 -57 -114 -165 -128 -56 -8 -76 5 -158 100 l-61 71 85 63 c135 99 202 114
259 57z m1009 4 c20 -13 49 -44 64 -69 l27 -47 0 -330 c0 -181 -3 -342 -7
-357 -11 -36 -53 -85 -91 -105 -19 -9 -59 -16 -100 -17 -64 -1 -71 1 -93 27
l-24 28 0 378 0 379 -31 6 c-71 14 -75 12 -95 -61 -15 -57 -19 -121 -24 -403
-5 -315 -6 -337 -26 -370 -11 -19 -36 -45 -55 -58 -31 -22 -42 -23 -119 -19
-84 4 -191 33 -217 59 -9 10 -10 30 -3 83 16 116 39 172 90 229 86 93 121 194
100 289 -14 69 -48 117 -115 167 -60 44 -90 90 -81 124 3 12 19 35 36 51 41
40 88 44 446 41 272 -3 282 -3 318 -25z m25308 20 c53 -3 99 -9 102 -12 4 -4
-29 -58 -73 -120 -212 -303 -249 -419 -179 -560 25 -50 61 -93 165 -195 l133
-131 -82 -14 c-68 -12 -384 -14 -1763 -14 l-1680 0 -50 27 c-59 31 -79 52
-131 133 -132 210 -325 318 -674 382 -133 24 -413 24 -532 0 -168 -34 -340
-103 -483 -194 -99 -64 -123 -89 -160 -168 -35 -78 -97 -141 -162 -166 -33
-12 -1277 -14 -9408 -16 -6030 -2 -9382 1 -9405 7 -47 13 -81 50 -89 97 -3 21
-4 173 -1 338 5 291 6 301 28 337 31 50 92 78 170 78 50 0 66 -4 88 -24 l28
-23 -3 -342 c-2 -277 0 -342 11 -345 7 -2 32 -7 55 -10 l41 -6 24 68 c22 64
23 79 23 357 0 278 1 292 22 330 47 87 141 146 283 176 82 17 560 18 11845 17
6468 0 11804 -3 11857 -7z m887 -27 c110 -59 173 -160 305 -487 l75 -187 -71
-103 c-133 -193 -199 -241 -328 -241 -62 -1 -85 4 -132 27 -31 15 -72 45 -92
67 -98 108 -236 480 -236 635 0 103 129 265 246 310 63 24 169 15 233 -21z
m5565 12 c41 -26 59 -79 53 -154 -9 -118 -87 -230 -194 -279 -125 -57 -292 -6
-429 131 -54 54 -76 85 -92 129 -12 32 -22 65 -22 75 0 33 40 83 83 103 39 18
61 19 308 16 236 -2 269 -5 293 -21z m-31340 -26 c37 -41 38 -45 55 -150 13
-78 37 -106 106 -123 44 -10 53 -18 75 -57 24 -45 25 -47 25 -300 0 -249 -1
-256 -23 -292 -13 -20 -39 -47 -58 -58 -33 -21 -36 -21 -62 -5 -51 33 -82 69
-93 107 -7 29 -16 39 -37 44 -57 14 -120 54 -143 91 -23 36 -23 43 -24 312 -1
326 3 372 36 407 21 23 84 62 100 64 4 0 23 -18 43 -40z m20381 -535 c157 -41
315 -189 346 -323 9 -42 -4 -73 -51 -117 l-31 -30 -271 -2 c-295 -2 -327 3
-362 50 -17 23 -21 43 -21 105 1 64 6 87 29 132 58 116 168 195 276 199 14 1
52 -6 85 -14z m-21841 -235 c20 -23 44 -56 53 -75 15 -32 15 -35 -8 -73 -13
-23 -51 -68 -83 -102 -49 -51 -62 -60 -70 -48 -6 8 -37 49 -69 91 -57 73 -58
77 -43 99 16 23 165 147 177 148 4 0 23 -18 43 -40z m-476 -362 c74 -36 87
-70 85 -203 -2 -96 4 -174 22 -290 5 -30 5 -30 65 -27 l60 4 0 220 c0 244 5
269 61 302 22 13 52 18 103 19 129 1 146 -22 157 -210 4 -74 11 -139 16 -144
5 -5 22 -11 39 -15 l31 -6 17 69 c10 37 26 88 37 112 19 43 118 181 130 181 6
0 62 -87 90 -140 7 -14 20 -52 29 -85 15 -57 18 -61 75 -93 78 -44 90 -55 120
-115 31 -63 32 -127 6 -264 -11 -54 -22 -122 -26 -151 -6 -44 -13 -57 -43 -82
-51 -42 -167 -88 -254 -100 -49 -8 -580 -11 -1653 -10 l-1580 0 -45 23 c-60
29 -86 78 -99 186 -6 47 -25 135 -43 195 -28 96 -33 126 -33 226 0 108 2 119
31 180 39 82 75 124 139 165 116 75 34 69 1165 76 1264 7 1237 8 1298 -23z
m16210 16 c85 -5 102 -9 98 -21 -3 -8 -42 -70 -86 -139 -45 -68 -98 -159 -118
-201 -31 -66 -36 -87 -36 -148 0 -105 28 -165 194 -423 42 -65 51 -85 41 -95
-9 -9 -395 -13 -1703 -15 -1531 -2 -1697 -1 -1747 14 -72 21 -107 46 -132 97
-99 198 -339 346 -674 417 -140 30 -406 38 -530 17 -181 -32 -433 -130 -545
-212 -68 -50 -165 -157 -202 -222 -37 -66 -70 -88 -152 -102 -42 -7 -1361 -11
-4290 -11 l-4228 -1 -46 23 c-68 34 -84 63 -90 157 l-4 80 -62 -2 c-77 -2
-111 17 -124 70 -5 21 -15 99 -22 173 -13 153 -5 230 36 315 59 125 203 214
376 233 76 8 13900 5 14046 -4z m904 -22 c73 -31 121 -84 175 -187 80 -156
163 -432 163 -542 0 -120 -79 -232 -180 -252 -103 -21 -285 16 -383 79 -56 35
-97 89 -148 195 -53 110 -160 405 -152 419 19 30 141 186 172 219 97 104 220
128 353 69z m5545 2 c15 -11 38 -38 51 -60 19 -33 22 -50 19 -109 -8 -143
-102 -248 -248 -275 -156 -30 -333 74 -413 242 -27 58 -66 189 -66 223 0 4
141 5 314 3 301 -3 316 -4 343 -24z m-21108 -252 c21 -32 44 -76 50 -98 13
-50 13 -367 0 -402 -29 -76 -117 -122 -235 -122 l-62 0 -7 87 c-11 131 -1 434
16 469 10 20 40 42 104 76 50 26 91 48 92 48 1 0 20 -26 42 -58z m-4290 -347
c80 -346 79 -345 27 -394 l-27 -25 -294 -4 -294 -4 -16 38 -16 38 53 52 c224
221 513 493 519 486 3 -4 25 -88 48 -187z m14559 4 c138 -68 245 -192 259
-300 5 -36 2 -43 -39 -84 -52 -52 -15 -47 -377 -45 -263 2 -277 5 -306 66 -13
28 -16 54 -13 108 8 122 81 230 191 282 45 22 62 25 127 20 61 -4 89 -12 158
-47z m-10993 -540 c24 -6 55 -24 71 -40 24 -26 29 -39 34 -112 3 -45 11 -92
18 -105 7 -12 46 -47 87 -78 41 -30 80 -64 87 -77 14 -25 15 -430 1 -527 -8
-52 -11 -56 -53 -80 l-45 -25 -1105 0 -1105 0 -47 28 c-62 36 -80 69 -134 239
-110 348 -134 390 -365 633 -78 81 -118 131 -109 132 94 17 329 21 1388 22
864 1 1246 -2 1277 -10z m4886 -6 c8 -8 -9 -42 -71 -139 -204 -319 -213 -405
-63 -641 31 -48 78 -122 104 -164 l48 -77 -37 -7 c-43 -9 -3369 -8 -3872 1
-355 6 -423 12 -466 46 -50 40 -56 73 -65 337 -10 285 -7 298 77 367 69 56
125 97 128 93 1 -2 18 -24 38 -49 62 -78 69 -100 78 -253 5 -78 10 -200 10
-271 l0 -129 39 -42 39 -42 26 86 c25 81 26 97 26 298 0 316 17 406 96 493 47
52 118 88 192 99 93 14 3659 8 3673 -6z m817 -17 c115 -58 165 -136 294 -459
l87 -219 -78 -116 c-43 -65 -94 -131 -112 -149 -116 -110 -311 -104 -420 14
-44 48 -142 242 -179 353 -31 94 -60 227 -60 283 0 59 19 106 72 174 48 63
123 120 181 139 62 20 152 12 215 -20z m5565 11 c45 -29 60 -71 55 -151 -3
-41 -14 -91 -25 -118 -29 -65 -95 -133 -159 -164 -48 -23 -63 -26 -128 -22
-146 9 -318 126 -386 260 -38 77 -39 116 -3 159 48 57 61 59 353 56 234 -2
269 -4 293 -20z m-14889 -13 c4 -15 6 -27 4 -28 -2 -1 -36 -28 -76 -61 -246
-197 -391 -463 -418 -768 -10 -116 -41 -146 -181 -173 -224 -43 -340 7 -359
153 -9 74 18 238 57 352 26 74 207 440 245 495 7 10 26 27 41 37 26 17 54 19
354 19 l327 0 6 -26z m670 -494 c175 -60 318 -182 411 -352 43 -79 44 -121 5
-149 -46 -33 -360 -52 -423 -25 -48 20 -120 106 -184 220 -31 55 -71 126 -90
157 -18 31 -33 61 -33 66 0 15 191 101 226 102 17 1 56 -8 88 -19z m-434 -36
c44 -38 54 -62 91 -226 30 -131 32 -150 20 -188 -10 -35 -19 -45 -54 -60 -37
-16 -70 -18 -265 -18 l-222 0 -24 46 -23 46 94 115 c247 303 308 348 383 285z
m102 -617 c69 -40 104 -117 117 -257 6 -58 24 -169 42 -245 38 -168 42 -245
15 -298 -49 -99 -114 -128 -301 -134 -254 -10 -496 66 -750 234 -276 184 -465
450 -465 655 l0 69 259 -3 260 -3 34 -34 c19 -18 54 -69 77 -112 46 -85 86
-125 311 -311 l116 -97 27 27 26 28 -86 84 c-143 141 -179 189 -209 280 -15
45 -25 83 -24 84 10 8 140 47 178 54 24 4 107 7 185 7 136 0 143 -1 188 -28z
m779 -24 c69 -63 73 -77 49 -195 -48 -235 -163 -408 -356 -537 -42 -28 -79
-51 -82 -51 -13 0 -172 744 -161 751 6 4 30 9 53 13 22 3 102 17 176 30 74 14
168 25 207 25 70 1 74 0 114 -36z"/>
<path d="M49052 9895 c-277 -50 -532 -198 -682 -395 -116 -152 -183 -199 -287
-201 l-58 -2 68 -8 c132 -15 222 -83 322 -244 56 -89 131 -150 275 -224 345
-177 811 -193 1182 -40 174 71 290 160 389 300 39 54 90 115 112 134 48 41
131 69 189 63 34 -3 37 -2 21 9 -10 8 -52 25 -95 38 -139 44 -142 46 -203 141
-68 105 -148 187 -241 247 -129 84 -325 151 -534 182 -116 18 -359 18 -458 0z
m278 -87 c86 -26 204 -117 256 -199 33 -53 70 -151 79 -210 l7 -46 -189 -5
c-103 -3 -250 -2 -325 1 l-137 6 -36 35 c-57 54 -68 84 -63 159 3 39 14 83 26
106 23 46 93 115 143 141 61 31 158 36 239 12z m320 -603 c53 -51 73 -100 66
-164 -20 -165 -141 -274 -303 -274 -62 1 -84 6 -148 37 -156 74 -256 210 -284
386 l-8 52 323 -4 323 -3 31 -30z"/>
<path d="M22528 1231 c-31 -10 -72 -28 -91 -40 -54 -33 -125 -116 -157 -182
-45 -96 -52 -165 -48 -486 5 -325 9 -347 79 -427 22 -24 63 -56 91 -70 51 -25
57 -26 252 -26 191 0 204 1 253 24 62 29 128 94 144 143 9 28 9 52 -1 110 -7
40 -16 75 -19 78 -4 2 -27 -12 -51 -31 -51 -40 -226 -126 -302 -149 -29 -8
-66 -15 -84 -15 -74 0 -157 122 -174 255 -11 90 -3 495 12 542 15 51 57 79
138 93 40 7 104 10 144 8 91 -4 136 -34 173 -114 13 -30 25 -54 26 -54 1 0 26
-9 55 -20 l52 -20 27 56 28 55 -30 56 c-45 84 -110 147 -185 181 -120 54 -230
65 -332 33z"/>
<path d="M17223 1223 c-32 -6 -72 -51 -83 -95 -7 -25 -10 -213 -8 -546 3 -491
4 -508 24 -542 l20 -35 285 -3 c179 -2 297 1 321 8 57 16 130 89 163 162 22
49 30 82 33 148 5 100 -17 171 -74 246 -61 80 -65 105 -34 229 48 194 6 317
-133 384 -34 17 -91 35 -127 41 -62 9 -341 12 -387 3z m399 -172 c48 -18 68
-50 68 -105 0 -61 -15 -88 -101 -176 -63 -65 -65 -66 -109 -62 -42 4 -48 8
-85 60 -59 82 -74 120 -75 185 0 52 3 62 31 89 l30 31 107 -6 c59 -3 119 -10
134 -16z m7 -512 c106 -22 161 -93 161 -205 0 -149 -85 -204 -316 -204 -130 0
-149 25 -157 210 -6 128 5 166 53 191 40 22 176 26 259 8z"/>
<path d="M33188 1222 c-98 -8 -114 -18 -150 -91 -23 -46 -23 -47 -23 -531 0
-441 2 -490 18 -537 10 -28 25 -54 33 -57 9 -3 150 -6 314 -6 l298 0 4 46 c2
26 -1 48 -7 50 -20 7 -281 34 -327 34 -59 0 -110 24 -132 60 -13 23 -16 58
-16 189 l0 161 64 0 c35 0 87 4 116 10 55 10 260 88 260 99 0 3 -55 25 -122
49 -84 29 -139 42 -175 42 -69 0 -99 13 -123 52 -25 41 -28 160 -5 214 19 46
78 73 158 74 50 0 221 28 281 46 15 5 17 13 13 46 -3 22 -7 41 -9 44 -8 7
-383 12 -470 6z"/>
<path d="M43673 1215 c-166 -45 -230 -139 -269 -395 -19 -126 -14 -407 10
-511 40 -175 84 -235 199 -271 63 -20 93 -23 242 -23 211 0 268 14 332 81 53
55 73 119 73 232 0 139 -45 273 -98 293 -15 6 -61 15 -102 21 -107 15 -150 2
-220 -70 l-54 -56 54 -24 c30 -13 78 -28 107 -32 61 -10 109 -33 123 -59 14
-28 12 -97 -4 -129 -39 -74 -122 -112 -246 -114 -86 -1 -122 13 -165 64 -57
68 -59 80 -60 368 0 255 1 267 24 324 13 32 36 72 51 90 27 30 32 31 97 29
100 -3 293 -56 382 -104 l73 -41 -7 64 c-10 92 -22 133 -52 168 -31 37 -102
75 -180 95 -72 19 -240 19 -310 0z"/>
<path d="M49167 1169 c-42 -37 -61 -63 -77 -107 -22 -59 -280 -1014 -280
-1037 0 -16 22 -25 59 -25 29 0 68 39 175 177 62 80 98 97 202 98 125 0 162
-31 223 -187 9 -25 83 -88 102 -88 12 0 49 75 49 99 0 45 -262 982 -285 1017
-7 11 -35 39 -63 62 l-49 41 -56 -50z m123 -479 c29 -96 55 -181 57 -187 4
-10 -26 -13 -132 -13 -105 0 -136 3 -133 13 106 295 143 386 148 375 4 -7 31
-92 60 -188z"/>
<path d="M12100 1153 l-60 -58 -55 -190 c-31 -104 -92 -323 -136 -485 -78
-287 -80 -296 -68 -347 6 -28 15 -57 20 -64 11 -19 111 62 182 149 75 90 108
111 189 119 52 4 73 2 110 -15 54 -24 100 -81 117 -144 14 -54 18 -60 65 -92
42 -28 97 -34 114 -13 15 17 5 55 -123 510 -168 591 -166 586 -224 641 -28 25
-55 46 -60 46 -6 0 -38 -26 -71 -57z m135 -466 c31 -103 55 -190 53 -192 -2
-3 -49 -9 -104 -15 -54 -5 -114 -12 -131 -14 -21 -3 -33 0 -33 7 0 29 144 427
150 415 4 -7 33 -98 65 -201z"/>
<path d="M27764 1184 c-42 -63 -43 -81 -44 -580 0 -407 2 -488 15 -525 30 -83
26 -82 230 -74 283 10 443 39 505 92 64 53 103 179 120 379 23 293 -39 589
-136 646 -75 43 -265 72 -542 82 -132 5 -133 4 -148 -20z m466 -125 c56 -14
98 -45 122 -91 22 -41 23 -53 26 -329 2 -184 -1 -301 -7 -327 -31 -114 -130
-192 -245 -192 -109 0 -156 25 -199 105 -21 38 -22 53 -24 355 -1 173 1 339 4
369 7 70 40 108 103 120 50 9 166 4 220 -10z"/>
<path d="M38157 1192 c-37 -41 -39 -66 -40 -590 l-1 -512 44 -45 c24 -25 48
-45 53 -45 9 0 56 52 74 84 9 15 12 88 13 243 l0 221 168 4 168 3 69 36 c38
20 70 40 72 45 2 5 -36 31 -83 58 l-85 48 -104 -1 c-168 -2 -205 26 -205 156
0 137 38 168 221 183 131 11 286 33 295 43 3 3 3 24 -1 46 l-7 41 -317 0
c-290 0 -319 -2 -334 -18z"/>
<path d="M23375 950 l-18 -140 -69 0 -68 0 0 -45 0 -45 60 0 c69 0 66 9 48
-121 l-12 -89 -68 0 -68 0 0 -45 0 -45 60 0 c70 0 66 16 41 -162 l-17 -128 47
0 46 0 11 87 c7 49 15 114 18 146 l7 57 73 0 c86 0 80 12 59 -135 -23 -157
-23 -155 29 -155 l45 0 7 58 c4 31 12 95 18 142 l11 85 73 3 72 3 0 44 0 45
-65 0 -66 0 7 48 c3 26 9 72 12 102 l7 55 68 3 67 3 0 44 0 45 -60 0 c-33 0
-60 3 -60 8 0 4 9 67 19 140 l18 132 -47 0 -47 0 -12 -102 c-7 -57 -15 -120
-18 -140 l-6 -38 -73 0 c-86 0 -81 -11 -59 130 8 52 15 107 15 123 0 25 -3 27
-44 27 l-43 0 -18 -140z m205 -247 c0 -9 -5 -56 -11 -105 l-12 -88 -75 0 -75
0 7 48 c4 26 9 73 13 105 l6 57 73 0 c63 0 74 -3 74 -17z"/>
<path d="M39030 1003 c-6 -49 -15 -110 -19 -138 l-6 -50 -73 -3 -73 -3 3 -42
3 -42 63 -3 63 -3 -7 -57 c-4 -31 -9 -77 -13 -102 l-6 -45 -68 -3 -67 -3 0
-44 0 -45 60 0 c33 0 60 -2 60 -5 0 -8 -30 -229 -35 -257 -4 -27 -3 -28 43
-28 l48 0 13 108 c6 59 15 124 18 144 l6 38 73 0 c41 0 74 -4 74 -8 0 -11 -28
-220 -35 -254 -4 -27 -3 -28 44 -28 l48 0 18 145 18 145 74 0 73 0 0 45 0 45
-65 0 c-39 0 -65 4 -65 11 0 5 5 53 12 105 l11 94 69 0 68 0 0 45 0 45 -60 0
c-70 0 -66 -11 -45 135 22 150 23 145 -29 145 l-43 0 -18 -140 -18 -140 -74 0
c-85 0 -81 -12 -58 145 21 143 22 135 -29 135 l-44 0 -12 -87z m196 -330 c-4
-27 -9 -74 -13 -105 l-6 -58 -73 0 c-85 0 -80 -11 -63 122 l12 88 75 0 75 0
-7 -47z"/>
<path d="M44554 950 l-18 -140 -74 0 -73 0 3 -42 3 -43 64 -3 64 -3 -7 -47
c-4 -26 -9 -73 -13 -104 l-6 -58 -68 0 -69 0 0 -45 0 -45 60 0 c33 0 60 -4 60
-8 0 -11 -28 -220 -35 -254 -4 -27 -3 -28 44 -28 l48 0 7 58 c3 31 11 96 18
145 l11 87 73 0 c53 0 74 -4 74 -12 0 -7 -9 -73 -19 -145 l-18 -133 47 0 47 0
16 124 c10 68 17 133 17 145 0 19 5 21 75 21 l75 0 0 45 0 45 -66 0 -67 0 6
38 c4 20 9 67 13 105 l7 67 68 0 69 0 0 45 0 45 -60 0 c-41 0 -60 4 -60 13 0
6 7 57 15 112 23 157 23 155 -28 155 l-44 0 -18 -140 -18 -140 -73 0 c-86 0
-80 -12 -59 135 22 150 23 145 -29 145 l-44 0 -18 -140z m206 -241 c0 -5 -5
-53 -12 -105 l-11 -94 -74 0 c-45 0 -73 4 -73 11 0 5 5 53 12 105 l11 94 74 0
c45 0 73 -4 73 -11z"/>
</g>
</svg>
