<?xml version="1.0" encoding="utf-8"?>
<!-- Generator: Adobe Illustrator 26.0.2, SVG Export Plug-In . SVG Version: 6.00 Build 0)  -->
<svg version="1.1" id="Layer_1" xmlns="http://www.w3.org/2000/svg" xmlns:xlink="http://www.w3.org/1999/xlink" x="0px" y="0px"
	 viewBox="0 0 641 144.2" style="enable-background:new 0 0 641 144.2;" xml:space="preserve">
<style type="text/css">
	.st0{fill:none;stroke:#000000;stroke-width:0.5;stroke-miterlimit:10;}
	.st1{fill:none;stroke:#7C287D;stroke-width:1.5;stroke-miterlimit:10;}
	.st2{fill:none;stroke:#67BF75;stroke-miterlimit:10;}
</style>
<g id="XMLID_903_">
	<line id="XMLID_908_" class="st0" x1="0" y1="51.6" x2="641" y2="51.6"/>
	<line id="XMLID_907_" class="st0" x1="-0.2" y1="31.3" x2="640.8" y2="31.3"/>
	<line id="XMLID_906_" class="st0" x1="0" y1="71.9" x2="641" y2="71.9"/>
	<line id="XMLID_905_" class="st0" x1="0" y1="92.3" x2="641" y2="92.3"/>
	<line id="XMLID_904_" class="st0" x1="0" y1="112.6" x2="641" y2="112.6"/>
</g>
<line id="XMLID_902_" class="st0" x1="145" y1="133.2" x2="145" y2="71.3"/>
<circle id="XMLID_901_" class="st1" cx="155" cy="71.3" r="10.2"/>
<line id="XMLID_899_" class="st0" x1="113.1" y1="143.3" x2="113.1" y2="81.5"/>
<circle id="XMLID_898_" class="st1" cx="123" cy="81.5" r="10.2"/>
<line id="XMLID_896_" class="st0" x1="177" y1="122.8" x2="177" y2="61"/>
<circle id="XMLID_895_" class="st1" cx="186.9" cy="61" r="10.2"/>
<line id="XMLID_893_" class="st0" x1="208.9" y1="112.7" x2="208.9" y2="50.8"/>
<circle id="XMLID_892_" class="st1" cx="218.8" cy="50.8" r="10.2"/>
<line id="XMLID_888_" class="st0" x1="240.8" y1="102.2" x2="240.8" y2="40.4"/>
<circle id="XMLID_887_" class="st1" cx="250.7" cy="40.4" r="10.2"/>
<line id="XMLID_885_" class="st0" x1="272.8" y1="92.3" x2="272.8" y2="30.5"/>
<circle id="XMLID_884_" class="st1" cx="282.7" cy="30.5" r="10.2"/>
<line id="XMLID_882_" class="st0" x1="304.7" y1="82.3" x2="304.7" y2="20.5"/>
<line id="XMLID_192_" class="st0" x1="334.4" y1="10.3" x2="358.6" y2="10.3"/>
<circle id="XMLID_881_" class="st1" cx="314.6" cy="20.5" r="10.2"/>
<line id="XMLID_879_" class="st0" x1="336.6" y1="72.1" x2="336.6" y2="10.2"/>
<circle id="XMLID_878_" class="st1" cx="346.5" cy="10.2" r="10.2"/>
<line id="XMLID_876_" class="st0" x1="413.8" y1="83.8" x2="413.8" y2="22"/>
<line id="XMLID_844_" class="st0" x1="379.7" y1="10.3" x2="403.9" y2="10.3"/>
<circle id="XMLID_875_" class="st1" cx="423.7" cy="22" r="10.2"/>
<line id="XMLID_873_" class="st0" x1="381.9" y1="72" x2="381.9" y2="10.2"/>
<circle id="XMLID_872_" class="st1" cx="391.8" cy="10.2" r="10.2"/>
<line id="XMLID_870_" class="st0" x1="445.8" y1="92.7" x2="445.8" y2="30.9"/>
<circle id="XMLID_869_" class="st1" cx="455.7" cy="30.9" r="10.2"/>
<line id="XMLID_867_" class="st0" x1="477.7" y1="103.1" x2="477.7" y2="41.2"/>
<circle id="XMLID_866_" class="st1" cx="487.6" cy="41.2" r="10.2"/>
<line id="XMLID_864_" class="st0" x1="509.6" y1="112.7" x2="509.6" y2="50.8"/>
<circle id="XMLID_863_" class="st1" cx="519.5" cy="50.8" r="10.2"/>
<line id="XMLID_861_" class="st0" x1="541.5" y1="123.7" x2="541.5" y2="61.8"/>
<circle id="XMLID_860_" class="st1" cx="551.5" cy="61.8" r="10.2"/>
<line id="XMLID_858_" class="st0" x1="573.5" y1="133" x2="573.5" y2="71.2"/>
<circle id="XMLID_857_" class="st1" cx="583.4" cy="71.2" r="10.2"/>
<line id="XMLID_855_" class="st0" x1="605.4" y1="144.2" x2="605.4" y2="82.3"/>
<circle id="XMLID_854_" class="st1" cx="615.3" cy="82.3" r="10.2"/>
<g id="XMLID_2859_">
	<path id="XMLID_2860_" d="M121.1,83.3l-1,3.2h-1.3l3.4-10.1h1.6l3.4,10.1h-1.4l-1.1-3.2H121.1z M124.4,82.3l-1-2.9
		c-0.2-0.7-0.4-1.3-0.5-1.8h0c-0.2,0.6-0.3,1.2-0.5,1.8l-1,2.9H124.4z"/>
</g>
<g id="XMLID_2855_">
	<path id="XMLID_2856_" d="M613.3,83.3l-1,3.2h-1.3l3.4-10.1h1.6l3.4,10.1H618l-1.1-3.2H613.3z M616.6,82.3l-1-2.9
		c-0.2-0.7-0.4-1.3-0.5-1.8h0c-0.2,0.6-0.3,1.2-0.5,1.8l-1,2.9H616.6z"/>
</g>
<g id="XMLID_2850_">
	<path id="XMLID_2851_" d="M152.5,66.1c0.6-0.1,1.5-0.2,2.4-0.2c1.3,0,2.1,0.2,2.8,0.7c0.5,0.4,0.9,1,0.9,1.8c0,1-0.7,1.8-1.7,2.2v0
		c1,0.2,2.1,1,2.1,2.5c0,0.9-0.3,1.5-0.9,2c-0.7,0.6-1.8,0.9-3.5,0.9c-0.9,0-1.6-0.1-2-0.1V66.1z M153.8,70.2h1.2
		c1.4,0,2.2-0.7,2.2-1.7c0-1.2-0.9-1.6-2.2-1.6c-0.6,0-0.9,0-1.2,0.1V70.2z M153.8,75.1c0.3,0,0.6,0.1,1.1,0.1c1.3,0,2.6-0.5,2.6-2
		c0-1.4-1.2-1.9-2.6-1.9h-1.1V75.1z"/>
</g>
<g id="XMLID_2845_">
	<path id="XMLID_2846_" d="M580.3,66.1c0.6-0.1,1.5-0.2,2.4-0.2c1.3,0,2.1,0.2,2.8,0.7c0.5,0.4,0.9,1,0.9,1.8c0,1-0.7,1.8-1.7,2.2v0
		c1,0.2,2.1,1,2.1,2.5c0,0.9-0.3,1.5-0.9,2c-0.7,0.6-1.8,0.9-3.5,0.9c-0.9,0-1.6-0.1-2-0.1V66.1z M581.6,70.2h1.2
		c1.4,0,2.2-0.7,2.2-1.7c0-1.2-0.9-1.6-2.2-1.6c-0.6,0-0.9,0-1.2,0.1V70.2z M581.6,75.1c0.3,0,0.6,0.1,1.1,0.1c1.3,0,2.6-0.5,2.6-2
		c0-1.4-1.2-1.9-2.6-1.9h-1.1V75.1z"/>
</g>
<g id="XMLID_2842_">
	<path id="XMLID_2843_" d="M187.3,65.5c-0.5,0.2-1.4,0.5-2.7,0.5c-2.8,0-5-1.8-5-5.1c0-3.2,2.1-5.3,5.3-5.3c1.2,0,2.1,0.3,2.4,0.4
		L187,57c-0.5-0.2-1.2-0.4-2-0.4c-2.4,0-3.9,1.5-3.9,4.2c0,2.5,1.4,4.1,3.9,4.1c0.8,0,1.6-0.2,2.1-0.4L187.3,65.5z"/>
</g>
<g id="XMLID_2839_">
	<g id="XMLID_112_">
		<path id="XMLID_113_" d="M551.3,66.3c-0.5,0.2-1.4,0.5-2.7,0.5c-2.8,0-5-1.8-5-5.1c0-3.2,2.1-5.3,5.3-5.3c1.2,0,2.1,0.3,2.4,0.4
			l-0.3,1.1c-0.5-0.2-1.2-0.4-2-0.4c-2.4,0-3.9,1.5-3.9,4.2c0,2.5,1.4,4.1,3.9,4.1c0.8,0,1.6-0.2,2.1-0.4L551.3,66.3z"/>
	</g>
</g>
<g id="XMLID_2835_">
	<path id="XMLID_2836_" d="M215.5,45.5c0.8-0.1,1.7-0.2,2.8-0.2c1.9,0,3.2,0.5,4.1,1.3c0.9,0.8,1.4,2,1.4,3.6c0,1.7-0.5,3-1.5,3.9
		c-1,0.9-2.5,1.5-4.5,1.5c-0.9,0-1.7,0-2.4-0.1V45.5z M216.8,54.5c0.3,0,0.8,0.1,1.3,0.1c2.8,0,4.3-1.6,4.3-4.3
		c0-2.4-1.3-3.9-4.1-3.9c-0.7,0-1.2,0.1-1.5,0.1V54.5z"/>
</g>
<g id="XMLID_2831_">
	<path id="XMLID_2832_" d="M516,45.5c0.8-0.1,1.7-0.2,2.8-0.2c1.9,0,3.2,0.5,4.1,1.3c0.9,0.8,1.4,2,1.4,3.6c0,1.7-0.5,3-1.5,3.9
		c-1,0.9-2.5,1.5-4.5,1.5c-0.9,0-1.7,0-2.4-0.1V45.5z M517.3,54.5c0.3,0,0.8,0.1,1.3,0.1c2.8,0,4.3-1.6,4.3-4.3
		c0-2.4-1.3-3.9-4.1-3.9c-0.7,0-1.2,0.1-1.5,0.1V54.5z"/>
</g>
<g id="XMLID_2828_">
	<path id="XMLID_2829_" d="M252.9,40.8H249v3.6h4.4v1.1h-5.7V35.4h5.5v1.1H249v3.2h3.9V40.8z"/>
</g>
<g id="XMLID_2825_">
	<path id="XMLID_2826_" d="M489.6,41.3h-3.9V45h4.4v1.1h-5.7V35.9h5.5V37h-4.2v3.2h3.9V41.3z"/>
</g>
<g id="XMLID_2822_">
	<path id="XMLID_2823_" d="M276.8,24.7h5.4v1.1h-4.1v3.4h3.8v1.1h-3.8v4.6h-1.3V24.7z"/>
</g>
<g id="XMLID_2819_">
	<path id="XMLID_2820_" d="M450.3,25.7h5.4v1.1h-4.1v3.4h3.8v1.1h-3.8v4.6h-1.3V25.7z"/>
</g>
<g id="XMLID_2816_">
	<path id="XMLID_2817_" d="M315,25c-0.6,0.2-1.8,0.6-3.1,0.6c-1.5,0-2.8-0.4-3.8-1.3c-0.9-0.8-1.4-2.2-1.4-3.8c0-3,2.1-5.2,5.5-5.2
		c1.2,0,2.1,0.3,2.5,0.5l-0.3,1.1c-0.5-0.3-1.2-0.4-2.2-0.4c-2.5,0-4.1,1.5-4.1,4.1c0,2.6,1.5,4.1,3.9,4.1c0.9,0,1.4-0.1,1.7-0.3v-3
		h-2v-1h3.3V25z"/>
</g>
<g id="XMLID_2813_">
	<path id="XMLID_2814_" d="M424.2,26.8c-0.6,0.2-1.8,0.6-3.1,0.6c-1.5,0-2.8-0.4-3.8-1.3c-0.9-0.8-1.4-2.2-1.4-3.8
		c0-3,2.1-5.2,5.5-5.2c1.2,0,2.1,0.3,2.5,0.5l-0.3,1.1c-0.5-0.3-1.2-0.4-2.2-0.4c-2.5,0-4.1,1.5-4.1,4.1c0,2.6,1.5,4.1,3.9,4.1
		c0.9,0,1.4-0.1,1.7-0.3v-3h-2v-1h3.3V26.8z"/>
</g>
<g id="XMLID_2809_">
	<path id="XMLID_2810_" d="M344.5,12l-1,3.2h-1.4l3.5-10.1h1.6l3.5,10.1h-1.4l-1.1-3.2H344.5z M347.8,11l-1-2.9
		c-0.2-0.7-0.4-1.3-0.5-1.8h0c-0.1,0.6-0.3,1.2-0.5,1.8l-1,2.9H347.8z"/>
</g>
<g id="XMLID_2805_">
	<path id="XMLID_2806_" d="M389.8,11.1l-1,3.2h-1.4l3.5-10.1h1.6l3.5,10.1h-1.4l-1.1-3.2H389.8z M393.1,10.1l-1-2.9
		c-0.2-0.7-0.4-1.3-0.5-1.8h0c-0.1,0.6-0.3,1.2-0.5,1.8l-1,2.9H393.1z"/>
</g>
<g id="XMLID_512_">
	<path id="XMLID_513_" d="M47.5,112.4c-2.1,0.7-4.3,1-6.5,1.1c-5.8,0.1-11.2-1.5-15.8-5c-4.9-3.7-7.5-8.7-8.7-14.6
		c-1.1-5.7,0-11.1,2.4-16.3c2.1-4.5,5-8.5,8.2-12.2c0.7-0.8,1.4-1.5,2.1-2.3c0.3-0.3,0.3-0.5,0.2-0.9c-0.8-2.8-1.8-5.5-2.4-8.3
		c-1.3-5.6-1.5-11.3,0.3-16.9c2.1-6.4,6-11.2,12.5-13.5c0.8-0.3,1.6-0.5,2.4-0.6c1.7-0.1,3.2,0.6,4.5,1.6c2.7,2.1,4,5,4.2,8.3
		c0.3,5.1-1.4,9.7-3.8,14.2c-2.3,4.3-5.4,8.2-8.6,11.9c-1.1,1.3-2.1,2.5-3.2,3.7c-0.3,0.4-0.1,0.6,0,0.9c2,3.9,3.9,7.8,5.9,11.6
		c1-0.2,2-0.5,3.1-0.7c3.1-0.6,6.1,0,8.9,1.4c5.5,2.9,8.8,7.5,9.8,13.7c0.8,5-0.6,9.6-3.4,13.7c-1.8,2.7-4.1,4.9-6.8,6.6
		c-0.4,0.3-0.5,0.5-0.4,1c0.5,3.1,1.1,6.1,1.6,9.2c0.5,3.4,0.7,6.8-0.4,10.1c-1.4,4.5-4.6,7.1-9,8.3c-5.7,1.5-10.9,0.3-15.5-3.2
		c-3.9-2.9-6.5-6.6-7.6-11.4c-0.1-0.6-0.2-1.3-0.3-1.9c0-0.3,0-0.6,0-0.9c1.3,6.7,5,11.5,11.1,14.3c4.3,2,8.7,2.1,13-0.1
		c3.3-1.7,5-4.5,5.1-8.2c0.1-3.3-0.8-6.4-1.5-9.6c-0.4-1.5-0.8-2.9-1.2-4.4C47.7,112.8,47.6,112.6,47.5,112.4z M46,107.1
		c-2.5-9.1-6.5-17.6-9.3-26.6c-2.5,2.7-3.5,5.7-2.7,9.1c1,4.3,3.6,7.2,7.9,8.4c-0.3,0-0.5,0-0.8-0.1c-4.8-1.1-8.4-5.9-8.5-10.9
		c0-2.9,1-5.4,2.9-7.5c0.4-0.4,0.4-0.7,0.2-1.2c-0.6-1.6-1.2-3.1-1.9-4.7c-0.8-2-1.6-3.9-2.5-6c-0.8,1.1-1.6,2.1-2.3,3.1
		c-2.4,3.4-4.5,7.1-5.8,11.1c-1,3.3-1.3,6.6-0.7,10c0.8,4,2.9,7.4,5.7,10.3C33.2,106.9,39.2,108.3,46,107.1z M33.3,58.9
		c1.5-1.5,2.9-3,4.2-4.4c2.7-2.9,5.3-5.9,7.4-9.3c2.2-3.6,3.9-7.3,4.1-11.6c0.1-3.2-0.8-6-3.3-8.1c-1.4-1.2-2.9-1.8-4.9-1
		c-4.2,1.8-7.2,4.7-9.2,8.8c-2,4.2-2.4,8.6-1.9,13.1C30.2,50.7,31.5,54.8,33.3,58.9z M51.3,104.8c2.7-1.8,4.7-3.9,6.2-6.6
		c1.5-2.8,2.2-5.7,1.8-8.9c-0.4-3.3-1.9-6.2-4.2-8.6c-2.8-2.9-6.1-4.4-10.2-4.1c-0.9,0.1-1.7,0.3-2.8,0.5
		C46.8,85.9,49,95.3,51.3,104.8z"/>
</g>
<g id="XMLID_988_">
	<path id="XMLID_989_" d="M63.5,55.8c-0.4,0.1-0.9,0.1-1.4,0.2c0-2.2,0-4.5,0-6.7c-1.6,0.5-3.1,0.9-4.7,1.3c0-1.3,0-2.6,0-3.9
		c0-0.1,0.2-0.3,0.4-0.3c1.2-0.4,2.5-0.7,3.7-1.1c0.2,0,0.3-0.1,0.5-0.2c0-2.1,0-4.2,0-6.3c-1.6,0.4-3.1,0.9-4.6,1.3
		c0-1.4,0-2.7,0-4.1c0.6-0.2,1.3-0.4,1.9-0.6c0.8-0.2,1.5-0.5,2.3-0.6c0.4-0.1,0.5-0.3,0.5-0.6c0-1.8,0-3.7,0-5.5c0-0.2,0-0.4,0-0.7
		c0.5-0.1,0.9-0.1,1.4-0.2c0,2.1,0,4.2,0,6.4c0.8-0.2,1.5-0.4,2.2-0.6c0.8-0.2,1.7-0.5,2.5-0.7c0.3-0.1,0.4-0.2,0.4-0.6
		c0-1.9,0-3.7,0-5.6c0-0.5,0.1-0.8,0.7-0.7c0.2,0,0.4-0.1,0.7-0.1c0,2.2,0,4.3,0,6.5c1.6-0.4,3.1-0.9,4.7-1.3c0,1.4,0,2.6,0,3.9
		c0,0.1-0.3,0.3-0.4,0.3c-1.4,0.4-2.8,0.8-4.2,1.2c0,2.1,0,4.2,0,6.3c1.5-0.4,3-0.9,4.6-1.3c0,1.4,0,2.7,0,4.1
		c-1.3,0.4-2.7,0.8-4,1.1C70.2,47,70,47.1,70,47.7c0,2.1,0,4.1,0,6.3c-0.5,0.1-0.9,0.1-1.4,0.2c0-2.2,0-4.4,0-6.7
		c-1.1,0.3-2.2,0.6-3.2,0.9c-0.2,0-0.4,0.1-0.5,0.2c-1.3,0.4-1.3,0.4-1.3,1.8c0,1.7,0,3.3,0,5C63.6,55.4,63.6,55.6,63.5,55.8z
		 M63.6,44.7c1.7-0.5,3.2-0.9,4.8-1.4c0.1,0,0.3-0.3,0.3-0.5c0-1.3,0-2.7,0-4c0-0.6,0-1.2,0-1.9c-1.6,0.4-3.1,0.9-4.6,1.3
		c-0.4,0.1-0.4,0.3-0.4,0.6c0,1.6,0,3.3,0,4.9C63.6,44.1,63.6,44.4,63.6,44.7z"/>
</g>
<g id="XMLID_993_">
	<path id="XMLID_994_" d="M84.8,45.8c-0.4,0.1-0.9,0.1-1.4,0.2c0-2.2,0-4.5,0-6.7c-1.6,0.5-3.1,0.9-4.7,1.3c0-1.3,0-2.6,0-3.9
		c0-0.1,0.2-0.3,0.4-0.3c1.2-0.4,2.5-0.7,3.7-1.1c0.2,0,0.3-0.1,0.5-0.2c0-2.1,0-4.2,0-6.3c-1.6,0.4-3.1,0.9-4.6,1.3
		c0-1.4,0-2.7,0-4.1c0.6-0.2,1.3-0.4,1.9-0.6c0.8-0.2,1.5-0.5,2.3-0.6c0.4-0.1,0.5-0.3,0.5-0.6c0-1.8,0-3.7,0-5.5c0-0.2,0-0.4,0-0.7
		c0.5-0.1,0.9-0.1,1.4-0.2c0,2.1,0,4.2,0,6.4c0.8-0.2,1.5-0.4,2.2-0.6c0.8-0.2,1.7-0.5,2.5-0.7c0.3-0.1,0.4-0.2,0.4-0.6
		c0-1.9,0-3.7,0-5.6c0-0.5,0.1-0.8,0.7-0.7c0.2,0,0.4-0.1,0.7-0.1c0,2.2,0,4.3,0,6.5c1.6-0.4,3.1-0.9,4.7-1.3c0,1.4,0,2.6,0,3.9
		c0,0.1-0.3,0.3-0.4,0.3c-1.4,0.4-2.8,0.8-4.2,1.2c0,2.1,0,4.2,0,6.3c1.5-0.4,3-0.9,4.6-1.3c0,1.4,0,2.7,0,4.1
		c-1.3,0.4-2.7,0.8-4,1.1c-0.5,0.1-0.6,0.3-0.6,0.8c0,2.1,0,4.1,0,6.3c-0.5,0.1-0.9,0.1-1.4,0.2c0-2.2,0-4.4,0-6.7
		c-1.1,0.3-2.2,0.6-3.2,0.9c-0.2,0-0.4,0.1-0.5,0.2c-1.3,0.4-1.3,0.4-1.3,1.8c0,1.7,0,3.3,0,5C84.8,45.4,84.8,45.6,84.8,45.8z
		 M84.8,34.7c1.7-0.5,3.2-0.9,4.8-1.4c0.1,0,0.3-0.3,0.3-0.5c0-1.3,0-2.7,0-4c0-0.6,0-1.2,0-1.9c-1.6,0.4-3.1,0.9-4.6,1.3
		c-0.4,0.1-0.4,0.3-0.4,0.6c0,1.6,0,3.3,0,4.9C84.8,34.1,84.8,34.4,84.8,34.7z"/>
</g>
<g id="XMLID_193_">
	<path id="XMLID_194_" d="M189.6,66.2c-0.2,0-0.3,0-0.5,0.1c0-0.8,0-1.6,0-2.4c-0.6,0.2-1.1,0.3-1.6,0.5c0-0.5,0-0.9,0-1.4
		c0,0,0.1-0.1,0.1-0.1c0.4-0.1,0.9-0.2,1.3-0.4c0.1,0,0.1,0,0.2-0.1c0-0.7,0-1.5,0-2.2c-0.5,0.2-1.1,0.3-1.6,0.5c0-0.5,0-0.9,0-1.4
		c0.2-0.1,0.4-0.1,0.7-0.2c0.3-0.1,0.5-0.2,0.8-0.2c0.1,0,0.2-0.1,0.2-0.2c0-0.6,0-1.3,0-1.9c0-0.1,0-0.2,0-0.2c0.2,0,0.3,0,0.5-0.1
		c0,0.8,0,1.5,0,2.2c0.3-0.1,0.5-0.1,0.8-0.2c0.3-0.1,0.6-0.2,0.9-0.2c0.1,0,0.2-0.1,0.2-0.2c0-0.7,0-1.3,0-2c0-0.2,0-0.3,0.2-0.3
		c0.1,0,0.2,0,0.3,0c0,0.8,0,1.5,0,2.3c0.6-0.2,1.1-0.3,1.6-0.5c0,0.5,0,0.9,0,1.4c0,0-0.1,0.1-0.1,0.1c-0.5,0.1-1,0.3-1.5,0.4
		c0,0.7,0,1.5,0,2.2c0.5-0.2,1.1-0.3,1.6-0.5c0,0.5,0,1,0,1.4c-0.5,0.1-0.9,0.3-1.4,0.4c-0.2,0-0.2,0.1-0.2,0.3c0,0.7,0,1.4,0,2.2
		c-0.2,0-0.3,0-0.5,0.1c0-0.8,0-1.5,0-2.3c-0.4,0.1-0.8,0.2-1.1,0.3c-0.1,0-0.1,0-0.2,0.1c-0.5,0.1-0.5,0.1-0.5,0.6
		c0,0.6,0,1.2,0,1.7C189.7,66,189.6,66.1,189.6,66.2z M189.7,62.3c0.6-0.2,1.1-0.3,1.7-0.5c0,0,0.1-0.1,0.1-0.2c0-0.5,0-0.9,0-1.4
		c0-0.2,0-0.4,0-0.7c-0.6,0.2-1.1,0.3-1.6,0.5c-0.1,0-0.2,0.1-0.2,0.2c0,0.6,0,1.1,0,1.7C189.7,62.1,189.7,62.2,189.7,62.3z"/>
</g>
<g id="XMLID_197_">
	<path id="XMLID_198_" d="M284.8,34.7c-0.2,0-0.3,0-0.5,0.1c0-0.8,0-1.6,0-2.4c-0.6,0.2-1.1,0.3-1.6,0.5c0-0.5,0-0.9,0-1.4
		c0,0,0.1-0.1,0.1-0.1c0.4-0.1,0.9-0.2,1.3-0.4c0.1,0,0.1,0,0.2-0.1c0-0.7,0-1.5,0-2.2c-0.5,0.2-1.1,0.3-1.6,0.5c0-0.5,0-0.9,0-1.4
		c0.2-0.1,0.4-0.1,0.7-0.2c0.3-0.1,0.5-0.2,0.8-0.2c0.1,0,0.2-0.1,0.2-0.2c0-0.6,0-1.3,0-1.9c0-0.1,0-0.2,0-0.2c0.2,0,0.3,0,0.5-0.1
		c0,0.8,0,1.5,0,2.2c0.3-0.1,0.5-0.1,0.8-0.2c0.3-0.1,0.6-0.2,0.9-0.2c0.1,0,0.2-0.1,0.2-0.2c0-0.7,0-1.3,0-2c0-0.2,0-0.3,0.2-0.3
		c0.1,0,0.2,0,0.3,0c0,0.8,0,1.5,0,2.3c0.6-0.2,1.1-0.3,1.6-0.5c0,0.5,0,0.9,0,1.4c0,0-0.1,0.1-0.1,0.1c-0.5,0.1-1,0.3-1.5,0.4
		c0,0.7,0,1.5,0,2.2c0.5-0.2,1.1-0.3,1.6-0.5c0,0.5,0,1,0,1.4c-0.5,0.1-0.9,0.3-1.4,0.4c-0.2,0-0.2,0.1-0.2,0.3c0,0.7,0,1.4,0,2.2
		c-0.2,0-0.3,0-0.5,0.1c0-0.8,0-1.5,0-2.3c-0.4,0.1-0.8,0.2-1.1,0.3c-0.1,0-0.1,0-0.2,0.1c-0.5,0.1-0.5,0.1-0.5,0.6
		c0,0.6,0,1.2,0,1.7C284.8,34.6,284.8,34.7,284.8,34.7z M284.8,30.9c0.6-0.2,1.1-0.3,1.7-0.5c0,0,0.1-0.1,0.1-0.2c0-0.5,0-0.9,0-1.4
		c0-0.2,0-0.4,0-0.7c-0.6,0.2-1.1,0.3-1.6,0.5c-0.1,0-0.2,0.1-0.2,0.2c0,0.6,0,1.1,0,1.7C284.8,30.7,284.8,30.8,284.8,30.9z"/>
</g>
<g id="XMLID_201_">
	<path id="XMLID_275_" d="M317.9,25.7c-0.2,0-0.3,0-0.5,0.1c0-0.8,0-1.6,0-2.4c-0.6,0.2-1.1,0.3-1.6,0.5c0-0.5,0-0.9,0-1.4
		c0,0,0.1-0.1,0.1-0.1c0.4-0.1,0.9-0.2,1.3-0.4c0.1,0,0.1,0,0.2-0.1c0-0.7,0-1.5,0-2.2c-0.5,0.2-1.1,0.3-1.6,0.5c0-0.5,0-0.9,0-1.4
		c0.2-0.1,0.4-0.1,0.7-0.2c0.3-0.1,0.5-0.2,0.8-0.2c0.1,0,0.2-0.1,0.2-0.2c0-0.6,0-1.3,0-1.9c0-0.1,0-0.2,0-0.2c0.2,0,0.3,0,0.5-0.1
		c0,0.8,0,1.5,0,2.2c0.3-0.1,0.5-0.1,0.8-0.2c0.3-0.1,0.6-0.2,0.9-0.2c0.1,0,0.2-0.1,0.2-0.2c0-0.7,0-1.3,0-2c0-0.2,0-0.3,0.2-0.3
		c0.1,0,0.2,0,0.3,0c0,0.8,0,1.5,0,2.3c0.6-0.2,1.1-0.3,1.6-0.5c0,0.5,0,0.9,0,1.4c0,0-0.1,0.1-0.1,0.1c-0.5,0.1-1,0.3-1.5,0.4
		c0,0.7,0,1.5,0,2.2c0.5-0.2,1.1-0.3,1.6-0.5c0,0.5,0,1,0,1.4c-0.5,0.1-0.9,0.3-1.4,0.4c-0.2,0-0.2,0.1-0.2,0.3c0,0.7,0,1.4,0,2.2
		c-0.2,0-0.3,0-0.5,0.1c0-0.8,0-1.5,0-2.3c-0.4,0.1-0.8,0.2-1.1,0.3c-0.1,0-0.1,0-0.2,0.1c-0.5,0.1-0.5,0.1-0.5,0.6
		c0,0.6,0,1.2,0,1.7C317.9,25.5,317.9,25.6,317.9,25.7z M317.9,21.8c0.6-0.2,1.1-0.3,1.7-0.5c0,0,0.1-0.1,0.1-0.2c0-0.5,0-0.9,0-1.4
		c0-0.2,0-0.4,0-0.7c-0.6,0.2-1.1,0.3-1.6,0.5c-0.1,0-0.2,0.1-0.2,0.2c0,0.6,0,1.1,0,1.7C317.9,21.6,317.9,21.7,317.9,21.8z"/>
</g>
<g id="XMLID_281_">
	<path id="XMLID_282_" d="M426.9,26.7c-0.2,0-0.3,0-0.5,0.1c0-0.8,0-1.6,0-2.4c-0.6,0.2-1.1,0.3-1.6,0.5c0-0.5,0-0.9,0-1.4
		c0,0,0.1-0.1,0.1-0.1c0.4-0.1,0.9-0.2,1.3-0.4c0.1,0,0.1,0,0.2-0.1c0-0.7,0-1.5,0-2.2c-0.5,0.2-1.1,0.3-1.6,0.5c0-0.5,0-0.9,0-1.4
		c0.2-0.1,0.4-0.1,0.7-0.2c0.3-0.1,0.5-0.2,0.8-0.2c0.1,0,0.2-0.1,0.2-0.2c0-0.6,0-1.3,0-1.9c0-0.1,0-0.2,0-0.2c0.2,0,0.3,0,0.5-0.1
		c0,0.8,0,1.5,0,2.2c0.3-0.1,0.5-0.1,0.8-0.2c0.3-0.1,0.6-0.2,0.9-0.2c0.1,0,0.2-0.1,0.2-0.2c0-0.7,0-1.3,0-2c0-0.2,0-0.3,0.2-0.3
		c0.1,0,0.2,0,0.3,0c0,0.8,0,1.5,0,2.3c0.6-0.2,1.1-0.3,1.6-0.5c0,0.5,0,0.9,0,1.4c0,0-0.1,0.1-0.1,0.1c-0.5,0.1-1,0.3-1.5,0.4
		c0,0.7,0,1.5,0,2.2c0.5-0.2,1.1-0.3,1.6-0.5c0,0.5,0,1,0,1.4c-0.5,0.1-0.9,0.3-1.4,0.4c-0.2,0-0.2,0.1-0.2,0.3c0,0.7,0,1.4,0,2.2
		c-0.2,0-0.3,0-0.5,0.1c0-0.8,0-1.5,0-2.3c-0.4,0.1-0.8,0.2-1.1,0.3c-0.1,0-0.1,0-0.2,0.1c-0.5,0.1-0.5,0.1-0.5,0.6
		c0,0.6,0,1.2,0,1.7C426.9,26.5,426.9,26.6,426.9,26.7z M426.9,22.8c0.6-0.2,1.1-0.3,1.7-0.5c0,0,0.1-0.1,0.1-0.2c0-0.5,0-0.9,0-1.4
		c0-0.2,0-0.4,0-0.7c-0.6,0.2-1.1,0.3-1.6,0.5c-0.1,0-0.2,0.1-0.2,0.2c0,0.6,0,1.1,0,1.7C426.9,22.6,426.9,22.7,426.9,22.8z"/>
</g>
<g id="XMLID_285_">
	<path id="XMLID_286_" d="M458.3,36.1c-0.2,0-0.3,0-0.5,0.1c0-0.8,0-1.6,0-2.4c-0.6,0.2-1.1,0.3-1.6,0.5c0-0.5,0-0.9,0-1.4
		c0,0,0.1-0.1,0.1-0.1c0.4-0.1,0.9-0.2,1.3-0.4c0.1,0,0.1,0,0.2-0.1c0-0.7,0-1.5,0-2.2c-0.5,0.2-1.1,0.3-1.6,0.5c0-0.5,0-0.9,0-1.4
		c0.2-0.1,0.4-0.1,0.7-0.2c0.3-0.1,0.5-0.2,0.8-0.2c0.1,0,0.2-0.1,0.2-0.2c0-0.6,0-1.3,0-1.9c0-0.1,0-0.2,0-0.2c0.2,0,0.3,0,0.5-0.1
		c0,0.8,0,1.5,0,2.2c0.3-0.1,0.5-0.1,0.8-0.2c0.3-0.1,0.6-0.2,0.9-0.2c0.1,0,0.2-0.1,0.2-0.2c0-0.7,0-1.3,0-2c0-0.2,0-0.3,0.2-0.3
		c0.1,0,0.2,0,0.3,0c0,0.8,0,1.5,0,2.3c0.6-0.2,1.1-0.3,1.6-0.5c0,0.5,0,0.9,0,1.4c0,0-0.1,0.1-0.1,0.1c-0.5,0.1-1,0.3-1.5,0.4
		c0,0.7,0,1.5,0,2.2c0.5-0.2,1.1-0.3,1.6-0.5c0,0.5,0,1,0,1.4c-0.5,0.1-0.9,0.3-1.4,0.4c-0.2,0-0.2,0.1-0.2,0.3c0,0.7,0,1.4,0,2.2
		c-0.2,0-0.3,0-0.5,0.1c0-0.8,0-1.5,0-2.3c-0.4,0.1-0.8,0.2-1.1,0.3c-0.1,0-0.1,0-0.2,0.1c-0.5,0.1-0.5,0.1-0.5,0.6
		c0,0.6,0,1.2,0,1.7C458.3,35.9,458.3,36,458.3,36.1z M458.3,32.2c0.6-0.2,1.1-0.3,1.7-0.5c0,0,0.1-0.1,0.1-0.2c0-0.5,0-0.9,0-1.4
		c0-0.2,0-0.4,0-0.7c-0.6,0.2-1.1,0.3-1.6,0.5c-0.1,0-0.2,0.1-0.2,0.2c0,0.6,0,1.1,0,1.7C458.3,32,458.3,32.1,458.3,32.2z"/>
</g>
<g id="XMLID_289_">
	<g id="XMLID_298_">
		<path id="XMLID_299_" d="M554.3,66.2c-0.2,0-0.3,0-0.5,0.1c0-0.8,0-1.6,0-2.4c-0.6,0.2-1.1,0.3-1.6,0.5c0-0.5,0-0.9,0-1.4
			c0,0,0.1-0.1,0.1-0.1c0.4-0.1,0.9-0.2,1.3-0.4c0.1,0,0.1,0,0.2-0.1c0-0.7,0-1.5,0-2.2c-0.5,0.2-1.1,0.3-1.6,0.5c0-0.5,0-0.9,0-1.4
			c0.2-0.1,0.4-0.1,0.7-0.2c0.3-0.1,0.5-0.2,0.8-0.2c0.1,0,0.2-0.1,0.2-0.2c0-0.6,0-1.3,0-1.9c0-0.1,0-0.2,0-0.2
			c0.2,0,0.3,0,0.5-0.1c0,0.8,0,1.5,0,2.2c0.3-0.1,0.5-0.1,0.8-0.2c0.3-0.1,0.6-0.2,0.9-0.2c0.1,0,0.2-0.1,0.2-0.2c0-0.7,0-1.3,0-2
			c0-0.2,0-0.3,0.2-0.3c0.1,0,0.2,0,0.3,0c0,0.8,0,1.5,0,2.3c0.6-0.2,1.1-0.3,1.6-0.5c0,0.5,0,0.9,0,1.4c0,0-0.1,0.1-0.1,0.1
			c-0.5,0.1-1,0.3-1.5,0.4c0,0.7,0,1.5,0,2.2c0.5-0.2,1.1-0.3,1.6-0.5c0,0.5,0,1,0,1.4c-0.5,0.1-0.9,0.3-1.4,0.4
			c-0.2,0-0.2,0.1-0.2,0.3c0,0.7,0,1.4,0,2.2c-0.2,0-0.3,0-0.5,0.1c0-0.8,0-1.5,0-2.3c-0.4,0.1-0.8,0.2-1.1,0.3
			c-0.1,0-0.1,0-0.2,0.1c-0.5,0.1-0.5,0.1-0.5,0.6c0,0.6,0,1.2,0,1.7C554.3,66,554.3,66.1,554.3,66.2z M554.3,62.3
			c0.6-0.2,1.1-0.3,1.7-0.5c0,0,0.1-0.1,0.1-0.2c0-0.5,0-0.9,0-1.4c0-0.2,0-0.4,0-0.7c-0.6,0.2-1.1,0.3-1.6,0.5
			c-0.1,0-0.2,0.1-0.2,0.2c0,0.6,0,1.1,0,1.7C554.3,62.1,554.3,62.2,554.3,62.3z"/>
	</g>
</g>
<g id="XMLID_984_">
	<path id="XMLID_985_" d="M78.4,77.1c-0.4,0.1-0.9,0.1-1.4,0.2c0-2.2,0-4.5,0-6.7c-1.6,0.5-3.1,0.9-4.7,1.3c0-1.3,0-2.6,0-3.9
		c0-0.1,0.2-0.3,0.4-0.3c1.2-0.4,2.5-0.7,3.7-1.1c0.2,0,0.3-0.1,0.5-0.2c0-2.1,0-4.2,0-6.3c-1.6,0.4-3.1,0.9-4.6,1.3
		c0-1.4,0-2.7,0-4.1c0.6-0.2,1.3-0.4,1.9-0.6c0.8-0.2,1.5-0.5,2.3-0.6c0.4-0.1,0.5-0.3,0.5-0.6c0-1.8,0-3.7,0-5.5c0-0.2,0-0.4,0-0.7
		c0.5-0.1,0.9-0.1,1.4-0.2c0,2.1,0,4.2,0,6.4c0.8-0.2,1.5-0.4,2.2-0.6c0.8-0.2,1.7-0.5,2.5-0.7c0.3-0.1,0.4-0.2,0.4-0.6
		c0-1.9,0-3.7,0-5.6c0-0.5,0.1-0.8,0.7-0.7c0.2,0,0.4-0.1,0.7-0.1c0,2.2,0,4.3,0,6.5c1.6-0.4,3.1-0.9,4.7-1.3c0,1.4,0,2.6,0,3.9
		c0,0.1-0.3,0.3-0.4,0.3c-1.4,0.4-2.8,0.8-4.2,1.2c0,2.1,0,4.2,0,6.3c1.5-0.4,3-0.9,4.6-1.3c0,1.4,0,2.7,0,4.1
		c-1.3,0.4-2.7,0.8-4,1.1c-0.5,0.1-0.6,0.3-0.6,0.8c0,2.1,0,4.1,0,6.3c-0.5,0.1-0.9,0.1-1.4,0.2c0-2.2,0-4.4,0-6.7
		c-1.1,0.3-2.2,0.6-3.2,0.9c-0.2,0-0.4,0.1-0.5,0.2c-1.3,0.4-1.3,0.4-1.3,1.8c0,1.7,0,3.3,0,5C78.5,76.7,78.5,76.9,78.4,77.1z
		 M78.5,66c1.7-0.5,3.2-0.9,4.8-1.4c0.1,0,0.3-0.3,0.3-0.5c0-1.3,0-2.7,0-4c0-0.6,0-1.2,0-1.9c-1.6,0.4-3.1,0.9-4.6,1.3
		c-0.4,0.1-0.4,0.3-0.4,0.6c0,1.6,0,3.3,0,4.9C78.5,65.4,78.5,65.7,78.5,66z"/>
</g>
</svg>
