<?xml version="1.0" standalone="no"?>
<!DOCTYPE svg PUBLIC "-//W3C//DTD SVG 20010904//EN"
 "http://www.w3.org/TR/2001/REC-SVG-20010904/DTD/svg10.dtd">
<svg version="1.0" xmlns="http://www.w3.org/2000/svg"
 width="5297.000000pt" height="1036.000000pt" viewBox="0 0 5297.000000 1036.000000"
 preserveAspectRatio="xMidYMid meet">

<g transform="translate(0.000000,1036.000000) scale(0.100000,-0.100000)"
fill="#000000" stroke="none">
<path d="M45541 10299 l-31 -62 0 -1036 c0 -1058 1 -1076 36 -1088 15 -5 676
553 736 620 42 47 89 187 89 266 0 77 -10 116 -45 176 -51 85 -156 152 -288
182 -58 13 -84 14 -140 5 -65 -10 -182 -58 -235 -98 l-23 -16 0 499 0 500 -26
49 c-14 27 -29 53 -34 57 -4 5 -22 -19 -39 -54z m402 -1102 c44 -19 95 -63
114 -100 24 -48 19 -121 -15 -215 -63 -170 -152 -303 -302 -452 l-105 -105 -8
165 c-4 91 -4 255 -1 365 5 168 9 205 25 237 48 93 193 146 292 105z"/>
<path d="M2449 9633 c-286 -295 -450 -673 -513 -1183 -13 -98 -35 -442 -36
-542 0 -17 -52 -18 -944 -18 -851 0 -944 -2 -950 -16 -26 -68 -39 -68 994 -71
703 -3 916 -7 922 -16 4 -7 8 -28 8 -48 0 -20 11 -71 25 -113 50 -154 21 -244
-110 -344 -33 -25 -108 -91 -166 -147 -73 -69 -126 -111 -174 -135 l-69 -35
-710 -6 c-391 -3 -712 -6 -713 -7 -2 -1 -3 -13 -3 -26 0 -22 6 -25 43 -30 40
-5 1141 -37 1260 -36 45 0 57 -3 57 -16 0 -14 -218 -343 -441 -666 -108 -157
-81 -149 -502 -155 -276 -4 -350 -8 -385 -20 -30 -11 -41 -20 -37 -30 3 -8 5
-21 5 -29 0 -12 57 -14 370 -14 l370 0 0 -27 c0 -16 -7 -205 -17 -420 l-17
-393 -306 0 c-254 0 -314 -3 -353 -16 -55 -19 -60 -24 -51 -59 l6 -26 363 1
c326 2 367 0 400 -16 23 -11 73 -60 138 -138 139 -165 297 -327 388 -395 94
-71 231 -142 424 -219 83 -33 163 -66 179 -74 26 -11 -114 -14 -935 -18 -945
-5 -964 -5 -964 -24 0 -46 16 -46 1355 -45 1388 2 1286 7 1344 -61 31 -38 43
-80 62 -223 8 -62 22 -148 31 -192 22 -105 21 -243 -1 -320 -49 -168 -186
-322 -378 -424 -189 -101 -404 -118 -625 -49 -63 19 -66 21 -43 31 14 6 79 36
146 68 146 70 209 124 257 226 30 64 32 75 32 179 0 110 0 111 -43 198 -150
301 -473 366 -700 140 -155 -155 -186 -409 -76 -634 44 -89 157 -208 244 -257
325 -184 845 -93 1112 196 123 133 186 278 195 451 5 106 4 114 -61 428 -25
123 -46 228 -46 233 0 5 10189 10 24965 11 23950 3 24965 4 24982 21 17 17 18
107 21 1865 1 1016 0 1862 -3 1880 -4 20 -16 39 -33 50 -25 16 -301 17 -5162
22 l-5135 5 66 47 c89 64 165 147 197 215 22 47 27 73 27 133 0 104 -39 183
-133 271 -163 153 -394 234 -692 246 -338 13 -622 -74 -797 -243 -90 -88 -118
-151 -118 -269 0 -82 3 -97 33 -157 33 -67 125 -165 191 -204 17 -10 30 -23
28 -29 -3 -7 -626 -11 -1946 -13 -1705 -2 -1945 0 -1971 13 -16 8 -88 76 -161
150 -148 150 -205 187 -378 245 -301 101 -589 87 -901 -46 -161 -68 -270 -161
-342 -293 -9 -17 -31 -39 -49 -50 -32 -19 -76 -20 -2613 -26 -1420 -3 -2664
-6 -2766 -5 -227 1 -367 12 -575 47 -179 29 -224 27 -382 -22 -43 -14 -82 -25
-87 -25 -5 0 -6 206 -2 510 5 360 4 515 -4 530 -12 22 -67 28 -101 10 -18 -10
-19 -27 -19 -520 l0 -510 -2874 0 -2875 0 -3 223 c-3 219 -3 223 -31 281 -15
33 -31 55 -36 50 -4 -5 -19 -34 -32 -64 -22 -52 -24 -67 -25 -245 0 -104 -4
-198 -8 -208 -5 -10 -22 -25 -39 -33 -27 -14 -991 -16 -10040 -15 -5506 1
-10013 3 -10014 5 -2 2 9 61 24 132 25 118 27 148 28 349 0 194 -3 233 -23
330 -36 167 -85 304 -171 480 -66 134 -220 383 -298 483 l-18 22 -66 -67z
m196 -493 c68 -33 146 -161 181 -300 27 -107 16 -259 -29 -392 -82 -244 -216
-462 -321 -523 -81 -47 -250 -51 -407 -9 -14 4 -16 17 -12 77 19 359 75 602
194 842 72 147 117 207 194 262 92 66 135 75 200 43z m39265 -430 c238 -69
415 -299 414 -540 -1 -169 -73 -237 -278 -261 -222 -26 -415 50 -539 213 -138
182 -142 450 -8 542 107 74 256 90 411 46z m-5507 -435 c162 -34 303 -158 377
-330 l19 -45 -395 0 -396 0 -28 30 c-33 35 -41 79 -29 145 20 106 94 168 242
200 81 18 128 18 210 0z m-23241 -475 l9908 0 0 -399 0 -400 -26 -20 -27 -21
-5573 0 -5574 0 0 247 c0 246 0 246 -25 290 -14 23 -30 43 -35 43 -5 0 -20
-19 -32 -42 -21 -40 -22 -59 -26 -285 l-4 -243 -32 -5 c-17 -3 -1302 -4 -2855
-3 l-2824 3 -52 59 c-65 72 -80 71 -118 -6 l-28 -58 -1719 0 c-946 0 -1720 3
-1720 6 0 3 17 27 39 53 21 25 137 195 258 376 212 319 268 389 316 399 12 3
31 7 42 10 11 3 60 3 109 1 49 -3 4548 -5 9998 -5z m22288 -1 c54 -12 72 -28
118 -99 47 -72 123 -152 181 -189 62 -40 209 -96 339 -129 98 -24 123 -27 302
-27 214 0 285 10 455 67 215 72 320 145 387 270 40 74 72 100 135 107 27 3
3471 5 7656 3 l7607 -2 0 -415 0 -415 -10545 0 c-5800 0 -10545 1 -10545 3 0
2 31 29 69 60 139 114 222 265 207 375 -16 108 -102 224 -249 334 l-79 58
1774 3 c975 1 1856 3 1958 4 102 2 205 -2 230 -8z m-6500 -413 c0 -368 -2
-415 -16 -420 -29 -11 -2919 -7 -2951 5 -18 6 -70 53 -123 110 -107 116 -167
164 -265 212 -85 42 -234 90 -335 108 -104 19 -324 16 -433 -5 -269 -52 -511
-175 -569 -290 -56 -109 -112 -146 -224 -146 -38 0 -79 3 -92 6 -21 6 -23 10
-15 48 13 66 8 157 -12 216 -23 69 -114 163 -197 203 -172 82 -326 68 -474
-44 l-64 -48 0 229 0 230 2885 0 2885 0 0 -414z m456 390 c92 -43 128 -127
100 -236 -33 -129 -121 -289 -232 -420 -60 -71 -192 -195 -200 -187 -2 2 -9
58 -15 125 -12 132 2 512 22 585 13 49 72 115 124 138 57 26 138 24 201 -5z
m993 20 c-2 -3 -40 -28 -83 -56 -99 -64 -184 -150 -216 -215 -21 -43 -25 -64
-25 -150 0 -90 3 -106 29 -160 29 -59 121 -162 196 -218 l35 -27 -494 0 c-290
0 -491 4 -485 9 5 5 54 45 109 88 177 141 265 242 311 354 34 84 42 198 20
292 -9 38 -16 72 -16 78 0 5 124 9 312 9 171 0 309 -2 307 -4z m602 -23 c128
-44 252 -145 322 -264 50 -84 71 -157 71 -249 1 -63 -4 -84 -26 -126 -34 -65
-100 -123 -169 -149 -79 -29 -251 -28 -333 3 -163 60 -290 182 -353 335 -30
73 -42 217 -24 283 24 90 94 151 206 181 71 18 235 11 306 -14z m5825 -7 c29
-29 34 -41 34 -83 0 -143 -152 -245 -365 -245 -155 0 -286 59 -390 174 -40 44
-115 163 -115 181 0 4 180 7 401 7 l401 0 34 -34z m-34596 -126 l-155 -149
-11 112 c-7 62 -12 129 -13 150 l-1 37 168 0 167 -1 -155 -149z m22877 -331
c140 -48 266 -175 323 -325 l10 -24 -386 0 -386 0 -34 34 c-30 30 -34 40 -34
87 0 97 51 167 155 215 101 47 240 52 352 13z m-1612 -13 c28 -12 65 -40 84
-61 l34 -39 -6 -85 c-8 -109 -13 -126 -43 -140 -34 -15 -370 -15 -380 0 -14
23 -7 163 10 203 56 131 177 180 301 122z m-17667 -432 l22 -6 0 -413 0 -412
-655 -7 c-760 -9 -2465 1 -2638 15 -129 10 -156 21 -180 72 -9 18 -46 180 -82
360 -72 352 -73 366 -23 387 25 10 3518 14 3556 4z m5912 -421 l0 -426 -2557
7 c-2265 6 -2568 8 -2662 23 -144 21 -411 10 -523 -23 -17 -5 -18 16 -18 343
0 434 1 446 49 479 l36 24 2837 0 2838 0 0 -427z m6801 352 c-177 -133 -226
-214 -219 -360 6 -143 78 -248 243 -355 l69 -45 -1934 -8 c-1064 -4 -1958 -5
-1986 -2 -71 8 -107 34 -157 112 -112 174 -298 276 -602 330 -119 21 -333 21
-450 -1 -115 -22 -274 -70 -345 -106 -112 -57 -241 -175 -288 -266 -16 -30
-66 -51 -177 -74 -54 -11 -101 -20 -105 -20 -4 0 -4 19 1 43 13 69 10 200 -6
255 -21 69 -67 127 -142 177 -156 104 -321 102 -505 -6 -36 -21 -69 -39 -71
-39 -13 0 -19 142 -12 266 l7 136 32 19 c30 19 97 19 3389 19 l3358 0 -100
-75z m714 43 c179 -59 317 -201 369 -377 9 -30 16 -89 16 -131 0 -181 -120
-285 -346 -297 -75 -5 -105 -2 -161 15 -164 50 -307 187 -373 357 -19 49 -24
80 -24 170 -1 95 2 116 21 151 27 51 80 98 126 113 102 34 269 34 372 -1z
m4880 16 c14 -9 47 -46 75 -84 62 -84 189 -206 253 -244 59 -34 187 -78 299
-103 128 -28 456 -25 597 5 226 50 354 106 446 197 39 40 110 143 120 176 4
11 25 29 48 42 l42 22 1466 3 1466 2 7 -37 c3 -21 6 -51 6 -66 0 -43 24 -42
82 1 67 51 125 76 209 91 49 8 3013 11 11717 11 l11652 0 0 -420 0 -420
-16420 0 c-9031 0 -16420 1 -16420 3 0 1 51 54 114 118 137 141 171 200 171
299 0 107 -59 195 -220 328 -49 41 -92 76 -94 78 -2 2 743 4 1657 4 l1662 0 0
-300 c0 -293 0 -300 21 -310 11 -7 26 -9 33 -7 20 8 449 360 576 472 63 56
128 110 143 120 51 33 251 46 292 19z m1305 1 c34 -18 70 -61 70 -85 0 -10 -9
-48 -21 -85 -80 -260 -471 -286 -708 -47 -42 41 -79 91 -99 131 -55 111 -88
101 348 101 317 0 386 -2 410 -15z m-1897 -7 c-5 -7 -79 -98 -163 -203 -85
-104 -155 -192 -156 -193 -1 -2 -12 -1 -23 3 -20 6 -21 13 -21 206 l0 199 186
0 c148 0 184 -3 177 -12z m-21340 -430 c42 -200 77 -366 77 -370 0 -5 -197 -8
-438 -8 -413 0 -440 1 -455 18 -16 18 1 36 355 370 205 194 375 352 378 352 3
0 40 -163 83 -362z m11576 -37 c122 -38 235 -138 304 -268 20 -39 37 -74 37
-77 0 -3 -180 -6 -399 -6 l-400 0 -20 27 c-28 35 -35 64 -27 118 14 93 102
180 212 210 75 20 221 19 293 -4z m-1594 -20 c84 -37 102 -82 90 -225 -5 -68
-10 -84 -27 -95 -14 -9 -80 -15 -205 -19 l-183 -5 0 90 c0 153 41 233 136 269
48 18 130 11 189 -15z m-10250 -463 c-69 -54 -188 -181 -230 -243 -90 -136
-135 -291 -135 -465 l0 -100 -219 0 c-205 0 -220 1 -244 21 -41 32 -50 84 -38
215 15 153 49 263 131 430 58 118 75 144 103 158 27 13 79 16 352 16 l320 0
-40 -32z m5405 28 c0 -2 -41 -27 -91 -56 -116 -67 -210 -154 -246 -228 -25
-50 -28 -68 -28 -152 0 -80 4 -103 24 -143 31 -62 102 -141 180 -197 l62 -45
-241 -3 c-132 -1 -348 -1 -480 0 l-241 3 102 85 c306 256 385 428 309 673 -11
34 -20 63 -20 65 0 1 151 2 335 2 184 0 335 -2 335 -4z m615 -45 c145 -72 272
-218 317 -366 31 -99 30 -218 -1 -268 -29 -47 -144 -134 -196 -148 -24 -7 -94
-10 -171 -7 -131 3 -132 4 -215 45 -181 90 -299 276 -299 472 0 205 149 327
388 317 85 -3 100 -7 177 -45z m4896 29 c4 -8 24 -50 43 -92 92 -197 284 -300
616 -328 133 -12 239 -8 440 16 346 43 471 94 576 236 23 32 53 87 65 123 l24
65 19002 0 19003 0 0 -415 0 -415 -22087 0 c-12148 0 -22083 4 -22078 8 6 5
37 29 70 54 78 59 127 114 162 180 24 47 28 64 28 143 0 82 -3 97 -33 157 -41
83 -103 140 -237 219 l-100 59 1703 0 1702 0 0 -315 c0 -173 2 -315 4 -315 7
0 406 288 461 333 28 23 95 85 151 138 147 142 209 169 373 166 81 -2 106 -5
112 -17z m1326 -6 c21 -21 24 -32 20 -61 -9 -54 -69 -174 -105 -210 -76 -75
-272 -106 -409 -64 -156 47 -293 177 -353 337 l-10 24 416 0 415 0 26 -26z
m-8327 -394 l0 -410 -1205 0 -1205 0 0 44 c0 144 -52 335 -126 461 -46 78
-180 225 -264 288 l-35 26 1418 1 1417 0 0 -410z m458 384 c73 -36 105 -81
110 -154 4 -55 1 -65 -47 -156 -28 -54 -105 -179 -171 -279 -108 -163 -124
-183 -166 -203 -26 -13 -49 -20 -53 -17 -3 4 -6 158 -6 343 0 362 -1 357 54
415 71 77 185 98 279 51z m5910 17 c-1 -4 -75 -94 -163 -199 -203 -242 -195
-243 -195 18 l0 190 181 0 c99 0 179 -4 177 -9z m-9574 -291 c209 -31 384
-204 431 -425 24 -116 48 -105 -214 -105 l-229 0 -29 29 c-26 26 -33 48 -72
242 -23 118 -45 224 -48 236 -5 22 0 24 77 31 8 1 46 -3 84 -8z m-219 -247
c26 -126 50 -238 53 -250 l4 -23 -315 0 c-362 0 -335 -8 -323 99 24 206 240
373 517 400 12 1 25 -44 64 -226z m2471 -383 l953 0 6 -57 c4 -32 9 -65 11
-74 7 -24 41 -13 86 27 48 43 103 70 181 91 52 14 126 16 467 17 223 1 10671
0 23218 -1 l22812 -3 0 -420 0 -420 -24890 0 c-23319 0 -24892 1 -24925 17
-73 35 -48 72 182 278 306 274 343 313 343 363 0 10 12 42 26 70 31 62 87 100
167 113 29 4 133 6 231 4 99 -3 608 -5 1132 -5z m-3305 -18 c15 -9 56 -49 93
-88 104 -113 219 -182 346 -209 29 -6 33 -5 24 6 -169 221 -205 272 -202 287
3 16 30 17 325 20 300 2 322 1 327 -15 3 -10 33 -144 66 -298 34 -154 64 -290
66 -302 5 -17 -2 -27 -33 -46 -187 -118 -531 -127 -823 -22 -329 119 -570 353
-654 633 l-15 52 227 0 c199 0 230 -2 253 -18z m1509 -18 c0 -96 -71 -263
-157 -368 -59 -74 -192 -191 -203 -179 -8 8 -120 538 -120 566 0 15 23 17 240
17 l240 0 0 -36z"/>
<path d="M47706 9290 c-168 -21 -334 -74 -456 -146 -81 -48 -167 -128 -202
-191 -48 -84 -57 -87 -305 -88 -117 -1 -214 -3 -216 -6 -2 -2 -1 -35 2 -74 l6
-70 180 -5 c178 -5 181 -6 241 -37 44 -23 85 -58 149 -127 129 -141 237 -198
467 -247 138 -30 426 -32 563 -6 263 52 396 121 520 269 47 57 76 81 129 108
l69 35 178 3 c172 4 177 5 183 25 12 44 6 87 -14 107 -23 23 -13 22 -225 24
-125 1 -168 5 -197 18 -51 23 -121 90 -142 135 -42 91 -268 207 -497 253 -116
24 -327 33 -433 20z m177 -85 c93 -19 160 -58 237 -135 53 -53 130 -168 130
-194 0 -3 -184 -6 -410 -6 l-410 0 -1 33 c-6 141 29 220 121 267 30 15 59 23
165 44 43 8 103 5 168 -9z m435 -511 c49 -34 4 -177 -78 -247 -158 -135 -452
-105 -628 63 -53 51 -132 162 -132 187 0 11 73 13 408 13 353 0 411 -2 430
-16z"/>
<path d="M19057 1400 c-133 -34 -221 -83 -318 -180 -136 -134 -192 -272 -193
-475 -1 -199 55 -337 194 -476 156 -157 336 -217 564 -189 226 28 414 154 477
319 l19 50 -38 8 c-20 4 -62 7 -93 7 -51 1 -61 -3 -113 -44 -32 -25 -76 -60
-99 -77 -199 -155 -519 -77 -635 154 -41 81 -56 163 -49 281 9 171 69 292 185
369 86 58 156 78 267 78 113 -1 175 -27 268 -113 75 -70 132 -92 239 -92 81 0
83 4 36 94 -63 118 -192 222 -340 273 -103 35 -261 41 -371 13z"/>
<path d="M41730 1405 c-145 -30 -250 -85 -345 -180 -80 -81 -125 -152 -163
-257 -23 -65 -26 -88 -26 -213 -1 -129 1 -147 28 -229 67 -203 213 -350 421
-422 72 -25 93 -28 210 -28 114 0 140 4 211 27 139 46 252 131 329 248 78 117
116 267 101 393 l-7 56 -350 0 -349 0 0 -85 0 -85 241 0 241 0 -6 -37 c-11
-63 -73 -178 -117 -218 -23 -20 -71 -51 -108 -69 -62 -29 -73 -31 -182 -31
-113 0 -116 1 -192 38 -169 84 -257 234 -257 440 0 131 40 233 127 328 91 98
225 147 376 137 89 -6 135 -28 223 -108 75 -68 131 -90 228 -90 90 0 94 6 55
81 -48 97 -155 199 -260 248 -140 66 -285 85 -429 56z"/>
<path d="M8267 1403 c-12 -12 -8 -1353 4 -1353 19 0 52 22 193 128 76 57 165
131 198 164 135 135 148 278 36 385 -71 69 -168 81 -285 37 -37 -14 -76 -28
-85 -31 -17 -5 -18 15 -18 336 0 324 -1 341 -18 341 -10 0 -22 -3 -25 -7z
m265 -729 c37 -19 62 -74 52 -118 -11 -50 -58 -136 -145 -266 -112 -165 -124
-163 -134 25 -8 156 5 287 32 324 44 59 121 73 195 35z"/>
<path d="M25540 714 c0 -556 3 -695 13 -687 282 217 434 361 454 428 36 119
24 207 -34 254 -38 32 -179 81 -228 81 -16 0 -60 -13 -97 -29 l-68 -29 0 339
c0 332 0 339 -20 339 -20 0 -20 -7 -20 -696z m276 -45 c39 -24 58 -67 49 -111
-7 -30 -176 -322 -215 -370 -12 -15 -22 -19 -38 -14 -22 7 -22 10 -22 206 0
215 9 264 54 293 47 31 118 29 172 -4z"/>
<path d="M48310 705 l0 -705 164 144 c188 167 297 281 327 343 17 34 20 57 17
103 -11 158 -169 237 -360 181 -40 -12 -81 -24 -90 -27 -17 -5 -18 15 -18 330
0 329 0 336 -20 336 -20 0 -20 -7 -20 -705z m231 -15 c94 -26 117 -114 58
-219 -57 -102 -191 -301 -203 -301 -39 1 -41 13 -41 217 0 232 8 262 79 294
48 22 58 22 107 9z"/>
<path d="M14170 715 c0 -377 2 -685 5 -685 2 0 42 27 87 59 131 93 315 257
363 322 80 109 82 218 6 303 -73 80 -178 97 -326 51 -44 -14 -81 -25 -82 -25
-2 0 -3 149 -3 330 l0 330 -25 0 -25 0 0 -685z m282 -41 c36 -18 61 -73 52
-112 -11 -43 -216 -392 -230 -392 -3 0 -14 5 -25 10 -18 10 -19 23 -19 199 0
104 3 203 6 220 8 37 54 87 87 94 34 8 96 -2 129 -19z"/>
<path d="M31160 705 l0 -695 143 117 c194 160 311 278 342 345 45 97 26 192
-54 259 -75 65 -172 76 -306 34 -44 -14 -81 -25 -82 -25 -2 0 -3 149 -3 330 0
323 0 330 -20 330 -20 0 -20 -7 -20 -695z m271 -30 c39 -21 62 -68 54 -112
-10 -53 -213 -393 -235 -393 -39 0 -40 6 -40 216 0 150 4 213 14 237 13 33 45
60 81 70 29 8 93 -1 126 -18z"/>
<path d="M7385 1376 c-16 -7 -40 -24 -52 -37 -11 -13 -66 -148 -121 -299 -147
-405 -332 -927 -332 -937 0 -5 6 -17 13 -26 11 -16 18 -15 101 13 48 16 94 34
101 40 7 6 18 31 25 56 17 61 61 119 109 143 45 23 94 27 324 23 l159 -2 28
-28 c18 -19 32 -47 39 -83 14 -68 41 -113 83 -140 27 -16 46 -19 101 -17 44 3
71 9 77 17 5 9 -13 74 -50 180 -99 284 -290 815 -338 944 -46 119 -48 123 -92
145 -51 25 -128 29 -175 8z m185 -537 c55 -157 100 -289 100 -292 0 -4 -93 -7
-206 -7 -161 0 -205 3 -202 13 3 6 49 139 104 294 54 155 99 281 101 280 1 -2
47 -131 103 -288z"/>
<path d="M13078 1383 l-88 -4 0 -644 0 -644 34 -7 c19 -3 157 -4 308 -2 256 4
277 6 342 28 170 59 266 193 253 356 -6 84 -44 150 -133 233 l-73 68 48 35
c100 75 144 185 122 311 -19 116 -78 199 -169 239 -74 33 -302 44 -644 31z
m510 -191 c50 -27 77 -67 87 -127 15 -101 -40 -184 -133 -204 -29 -6 -118 -11
-197 -11 l-145 0 0 186 0 186 173 -4 c155 -3 176 -6 215 -26z m-41 -553 c93
-16 130 -53 152 -150 20 -87 -51 -187 -147 -208 -51 -11 -112 -17 -271 -26
l-94 -6 6 183 c3 101 9 191 12 200 4 9 21 19 38 22 47 6 231 -2 304 -15z"/>
<path d="M24268 1383 l-78 -4 0 -643 0 -644 148 -7 c420 -22 629 29 792 193
134 135 176 258 167 486 -5 145 -25 225 -80 331 -46 87 -139 176 -228 218
-128 60 -178 69 -424 72 -121 1 -255 0 -297 -2z m472 -173 c154 -29 255 -122
320 -297 82 -219 -22 -516 -211 -606 -74 -35 -156 -47 -316 -47 l-133 0 0 474
0 475 23 4 c45 9 266 7 317 -3z"/>
<path d="M30270 740 l0 -650 355 0 356 0 -3 88 -3 87 -247 3 -248 2 0 195 0
195 220 0 220 0 0 95 0 95 -220 0 -220 0 0 185 0 185 245 0 245 0 0 85 0 85
-350 0 -350 0 0 -650z"/>
<path d="M36090 740 l0 -650 110 0 110 0 0 280 0 280 210 0 210 0 0 95 0 95
-205 0 -205 0 0 190 0 190 265 0 265 0 0 85 0 85 -380 0 -380 0 0 -650z"/>
<path d="M47425 1376 c-61 -27 -54 -10 -240 -536 -73 -206 -162 -456 -198
-555 -36 -99 -62 -181 -58 -181 3 -1 45 -8 93 -15 81 -11 89 -11 108 6 11 10
25 37 30 59 33 134 100 197 212 198 197 2 366 -4 388 -13 34 -13 50 -40 67
-112 29 -127 107 -172 236 -136 30 8 37 14 32 27 -3 9 -60 170 -127 357 -185
522 -309 858 -325 876 -31 36 -159 51 -218 25z m135 -381 c23 -66 68 -195 101
-287 l58 -168 -204 0 c-163 0 -205 3 -205 13 0 12 167 492 191 546 5 13 11 22
13 20 2 -2 22 -58 46 -124z"/>
</g>
</svg>
