<?xml version="1.0" encoding="utf-8"?>
<!-- Generator: Adobe Illustrator 26.0.2, SVG Export Plug-In . SVG Version: 6.00 Build 0)  -->
<svg version="1.1" id="Layer_1" xmlns="http://www.w3.org/2000/svg" xmlns:xlink="http://www.w3.org/1999/xlink" x="0px" y="0px"
	 viewBox="0 0 641 144.2" style="enable-background:new 0 0 641 144.2;" xml:space="preserve">
<style type="text/css">
	.st0{fill:none;stroke:#000000;stroke-width:0.5;stroke-miterlimit:10;}
	.st1{fill:none;stroke:#7C287D;stroke-width:1.5;stroke-miterlimit:10;}
	.st2{fill:none;stroke:#67BF75;stroke-miterlimit:10;}
</style>
<path id="XMLID_347_" d="M63.8,17.2c0,7.3,0,14.5,0,22.2c2.2-0.4,3.9-0.8,5.7-1.1c4.1-0.7,5.9,1.4,4.6,5.2c-1.6,5-5.6,8.1-11.5,8.8
	c0-11.7,0-23.4,0-35.2C63,17.2,63.4,17.2,63.8,17.2z M63.8,50c0.4,0.2,0.8,0.4,1.1,0.6c1.8-1.8,3.8-3.5,5.3-5.6c0.6-0.8,0-2.4,0-3.6
	c-1.6,0.1-3.2,0-4.7,0.4C64.8,42,64,43,63.9,43.7C63.7,45.8,63.8,47.9,63.8,50z"/>
<path id="XMLID_266_" d="M71.8-0.8c0,7.3,0,14.5,0,22.2c2.2-0.4,3.9-0.8,5.7-1.1c4.1-0.7,5.9,1.4,4.6,5.2c-1.6,5-5.6,8.1-11.5,8.8
	c0-11.7,0-23.4,0-35.2C71-0.8,71.4-0.8,71.8-0.8z M71.8,32c0.4,0.2,0.8,0.4,1.1,0.6c1.8-1.8,3.8-3.5,5.3-5.6c0.6-0.8,0-2.4,0-3.6
	c-1.6,0.1-3.2,0-4.7,0.4C72.8,24,72,25,71.9,25.7C71.7,27.8,71.8,29.9,71.8,32z"/>
<path id="XMLID_257_" d="M82.4,35.2c0,7.3,0,14.5,0,22.2c2.2-0.4,3.9-0.8,5.7-1.1c4.1-0.7,5.9,1.4,4.6,5.2c-1.6,5-5.6,8.1-11.5,8.8
	c0-11.7,0-23.4,0-35.2C81.5,35.2,81.9,35.2,82.4,35.2z M82.3,68c0.4,0.2,0.8,0.4,1.1,0.6c1.8-1.8,3.8-3.5,5.3-5.6
	c0.6-0.8,0-2.4,0-3.6c-1.6,0.1-3.2,0-4.7,0.4c-0.7,0.2-1.5,1.2-1.6,1.9C82.2,63.8,82.3,65.9,82.3,68z"/>
<path id="XMLID_246_" d="M90.4,17.2c0,7.3,0,14.5,0,22.2c2.2-0.4,3.9-0.8,5.7-1.1c4.1-0.7,5.9,1.4,4.6,5.2c-1.6,5-5.6,8.1-11.5,8.8
	c0-11.7,0-23.4,0-35.2C89.5,17.2,89.9,17.2,90.4,17.2z M90.3,50c0.4,0.2,0.8,0.4,1.1,0.6c1.8-1.8,3.8-3.5,5.3-5.6
	c0.6-0.8,0-2.4,0-3.6c-1.6,0.1-3.2,0-4.7,0.4c-0.7,0.2-1.5,1.2-1.6,1.9C90.2,45.8,90.3,47.9,90.3,50z"/>
<g id="XMLID_1145_">
	<line id="XMLID_1150_" class="st0" x1="0" y1="51.6" x2="641" y2="51.6"/>
	<line id="XMLID_1149_" class="st0" x1="-0.2" y1="31.3" x2="640.8" y2="31.3"/>
	<line id="XMLID_1148_" class="st0" x1="0" y1="71.9" x2="641" y2="71.9"/>
	<line id="XMLID_1147_" class="st0" x1="0" y1="92.3" x2="641" y2="92.3"/>
	<line id="XMLID_1146_" class="st0" x1="0" y1="112.6" x2="641" y2="112.6"/>
</g>
<line id="XMLID_1144_" class="st0" x1="145" y1="133.2" x2="145" y2="71.3"/>
<circle id="XMLID_1141_" class="st1" cx="155" cy="71.3" r="10.2"/>
<line id="XMLID_1140_" class="st0" x1="113.1" y1="143.3" x2="113.1" y2="81.5"/>
<circle id="XMLID_1137_" class="st1" cx="123" cy="81.5" r="10.2"/>
<line id="XMLID_1136_" class="st0" x1="177" y1="122.8" x2="177" y2="61"/>
<circle id="XMLID_1133_" class="st1" cx="186.9" cy="61" r="10.2"/>
<line id="XMLID_1132_" class="st0" x1="208.9" y1="112.7" x2="208.9" y2="50.8"/>
<circle id="XMLID_1129_" class="st1" cx="218.8" cy="50.8" r="10.2"/>
<line id="XMLID_1128_" class="st0" x1="240.8" y1="102.2" x2="240.8" y2="40.4"/>
<circle id="XMLID_1125_" class="st1" cx="250.7" cy="40.4" r="10.2"/>
<path id="XMLID_295_" d="M125.8,76c0,2.1,0,4.3,0,6.5c0.6-0.1,1.2-0.2,1.7-0.3c1.2-0.2,1.7,0.4,1.4,1.5c-0.5,1.5-1.6,2.4-3.4,2.6
	c0-3.5,0-6.9,0-10.4C125.6,76,125.7,76,125.8,76z M125.8,85.7c0.1,0.1,0.2,0.1,0.3,0.2c0.5-0.5,1.1-1,1.6-1.6c0.2-0.2,0-0.7,0-1.1
	c-0.5,0-0.9,0-1.4,0.1c-0.2,0-0.5,0.4-0.5,0.6C125.8,84.5,125.8,85.1,125.8,85.7z"/>
<path id="XMLID_294_" d="M157.5,65.3c0,2.1,0,4.3,0,6.5c0.6-0.1,1.2-0.2,1.7-0.3c1.2-0.2,1.7,0.4,1.4,1.5c-0.5,1.5-1.6,2.4-3.4,2.6
	c0-3.5,0-6.9,0-10.4C157.2,65.3,157.4,65.3,157.5,65.3z M157.5,74.9c0.1,0.1,0.2,0.1,0.3,0.2c0.5-0.5,1.1-1,1.6-1.6
	c0.2-0.2,0-0.7,0-1.1c-0.5,0-0.9,0-1.4,0.1c-0.2,0-0.5,0.4-0.5,0.6C157.4,73.7,157.5,74.3,157.5,74.9z"/>
<path id="XMLID_335_" d="M222.1,45.1c0,2.1,0,4.3,0,6.5c0.6-0.1,1.2-0.2,1.7-0.3c1.2-0.2,1.7,0.4,1.4,1.5c-0.5,1.5-1.6,2.4-3.4,2.6
	c0-3.5,0-6.9,0-10.4C221.9,45.1,222,45.1,222.1,45.1z M222.1,54.8c0.1,0.1,0.2,0.1,0.3,0.2c0.5-0.5,1.1-1,1.6-1.6
	c0.2-0.2,0-0.7,0-1.1c-0.5,0-0.9,0-1.4,0.1c-0.2,0-0.5,0.4-0.5,0.6C222.1,53.5,222.1,54.1,222.1,54.8z"/>
<path id="XMLID_339_" d="M253.4,35.2c0,2.1,0,4.3,0,6.5c0.6-0.1,1.2-0.2,1.7-0.3c1.2-0.2,1.7,0.4,1.4,1.5c-0.5,1.5-1.6,2.4-3.4,2.6
	c0-3.5,0-6.9,0-10.4C253.1,35.2,253.3,35.2,253.4,35.2z M253.4,44.9c0.1,0.1,0.2,0.1,0.3,0.2c0.5-0.5,1.1-1,1.6-1.6
	c0.2-0.2,0-0.7,0-1.1c-0.5,0-0.9,0-1.4,0.1c-0.2,0-0.5,0.4-0.5,0.6C253.3,43.6,253.4,44.2,253.4,44.9z"/>
<line id="XMLID_1124_" class="st0" x1="272.8" y1="92.3" x2="272.8" y2="30.5"/>
<circle id="XMLID_1121_" class="st1" cx="282.7" cy="30.5" r="10.2"/>
<line id="XMLID_1120_" class="st0" x1="304.7" y1="82.3" x2="304.7" y2="20.5"/>
<line id="XMLID_1119_" class="st0" x1="334.4" y1="10.3" x2="358.6" y2="10.3"/>
<circle id="XMLID_1116_" class="st1" cx="314.6" cy="20.5" r="10.2"/>
<line id="XMLID_1115_" class="st0" x1="336.6" y1="72.1" x2="336.6" y2="10.2"/>
<circle id="XMLID_1112_" class="st1" cx="346.5" cy="10.2" r="10.2"/>
<line id="XMLID_897_" class="st0" x1="413.8" y1="83.8" x2="413.8" y2="22"/>
<line id="XMLID_886_" class="st0" x1="379.7" y1="10.3" x2="403.9" y2="10.3"/>
<circle id="XMLID_626_" class="st1" cx="423.7" cy="22" r="10.2"/>
<line id="XMLID_625_" class="st0" x1="381.9" y1="72" x2="381.9" y2="10.2"/>
<circle id="XMLID_622_" class="st1" cx="391.8" cy="10.2" r="10.2"/>
<line id="XMLID_621_" class="st0" x1="445.8" y1="92.7" x2="445.8" y2="30.9"/>
<circle id="XMLID_618_" class="st1" cx="455.7" cy="30.9" r="10.2"/>
<line id="XMLID_538_" class="st0" x1="477.7" y1="103.1" x2="477.7" y2="41.2"/>
<circle id="XMLID_531_" class="st1" cx="487.6" cy="41.2" r="10.2"/>
<line id="XMLID_530_" class="st0" x1="509.6" y1="112.7" x2="509.6" y2="50.8"/>
<circle id="XMLID_527_" class="st1" cx="519.5" cy="50.8" r="10.2"/>
<line id="XMLID_526_" class="st0" x1="541.5" y1="123.7" x2="541.5" y2="61.8"/>
<circle id="XMLID_523_" class="st1" cx="551.5" cy="61.8" r="10.2"/>
<line id="XMLID_522_" class="st0" x1="573.5" y1="133" x2="573.5" y2="71.2"/>
<circle id="XMLID_519_" class="st1" cx="583.4" cy="71.2" r="10.2"/>
<line id="XMLID_511_" class="st0" x1="605.4" y1="144.2" x2="605.4" y2="82.3"/>
<circle id="XMLID_508_" class="st1" cx="615.3" cy="82.3" r="10.2"/>
<g id="XMLID_2233_">
	<path id="XMLID_2234_" d="M119.1,83.3l-1,3.2h-1.3l3.4-10.1h1.6l3.4,10.1h-1.4l-1.1-3.2H119.1z M122.4,82.3l-1-2.9
		c-0.2-0.7-0.4-1.3-0.5-1.8h0c-0.2,0.6-0.3,1.2-0.5,1.8l-1,2.9H122.4z"/>
</g>
<g id="XMLID_2229_">
	<path id="XMLID_2230_" d="M611.7,83.3l-1,3.2h-1.3l3.4-10.1h1.6l3.4,10.1h-1.4l-1.1-3.2H611.7z M615,82.3l-1-2.9
		c-0.2-0.7-0.4-1.3-0.5-1.8h0c-0.2,0.6-0.3,1.2-0.5,1.8l-1,2.9H615z"/>
</g>
<g id="XMLID_2224_">
	<path id="XMLID_2225_" d="M149.8,66.1c0.6-0.1,1.5-0.2,2.4-0.2c1.3,0,2.1,0.2,2.8,0.7c0.5,0.4,0.9,1,0.9,1.8c0,1-0.7,1.8-1.7,2.2v0
		c1,0.2,2.1,1,2.1,2.5c0,0.9-0.3,1.5-0.9,2c-0.7,0.6-1.8,0.9-3.5,0.9c-0.9,0-1.6-0.1-2-0.1V66.1z M151.1,70.2h1.2
		c1.4,0,2.2-0.7,2.2-1.7c0-1.2-0.9-1.7-2.2-1.7c-0.6,0-0.9,0-1.2,0.1V70.2z M151.1,75.1c0.3,0,0.6,0.1,1.1,0.1c1.3,0,2.6-0.5,2.6-2
		c0-1.4-1.2-2-2.6-2h-1.1V75.1z"/>
</g>
<g id="XMLID_2219_">
	<path id="XMLID_2220_" d="M578.3,66.1c0.6-0.1,1.5-0.2,2.4-0.2c1.3,0,2.1,0.2,2.8,0.7c0.5,0.4,0.9,1,0.9,1.8c0,1-0.7,1.8-1.7,2.2v0
		c1,0.2,2.1,1,2.1,2.5c0,0.9-0.3,1.5-0.9,2c-0.7,0.6-1.8,0.9-3.5,0.9c-0.9,0-1.6-0.1-2-0.1V66.1z M579.6,70.2h1.2
		c1.4,0,2.2-0.7,2.2-1.7c0-1.2-0.9-1.7-2.2-1.7c-0.6,0-0.9,0-1.2,0.1V70.2z M579.6,75.1c0.3,0,0.6,0.1,1.1,0.1c1.3,0,2.6-0.5,2.6-2
		c0-1.4-1.2-2-2.6-2h-1.1V75.1z"/>
</g>
<g id="XMLID_2216_">
	<path id="XMLID_2217_" d="M190.2,65.5c-0.5,0.2-1.4,0.5-2.7,0.5c-2.8,0-5-1.8-5-5.1c0-3.2,2.1-5.3,5.3-5.3c1.2,0,2.1,0.3,2.4,0.5
		l-0.3,1.1c-0.5-0.2-1.2-0.4-2-0.4c-2.4,0-3.9,1.5-3.9,4.2c0,2.5,1.4,4.1,3.9,4.1c0.8,0,1.6-0.2,2.1-0.4L190.2,65.5z"/>
</g>
<g id="XMLID_2213_">
	<g id="XMLID_105_">
		<path id="XMLID_109_" d="M554.3,66.3c-0.5,0.2-1.4,0.5-2.7,0.5c-2.8,0-5-1.8-5-5.1c0-3.2,2.1-5.3,5.3-5.3c1.2,0,2.1,0.3,2.4,0.5
			l-0.3,1.1c-0.5-0.2-1.2-0.4-2-0.4c-2.4,0-3.9,1.5-3.9,4.2c0,2.5,1.4,4.1,3.9,4.1c0.8,0,1.6-0.2,2.1-0.4L554.3,66.3z"/>
	</g>
</g>
<g id="XMLID_2105_">
	<path id="XMLID_2106_" d="M212.5,45.5c0.8-0.1,1.7-0.2,2.8-0.2c1.9,0,3.2,0.5,4.1,1.3c0.9,0.8,1.4,2,1.4,3.6c0,1.6-0.5,3-1.5,3.9
		c-1,0.9-2.5,1.5-4.5,1.5c-0.9,0-1.7,0-2.4-0.1V45.5z M213.8,54.5c0.3,0,0.8,0.1,1.3,0.1c2.8,0,4.3-1.6,4.3-4.3
		c0-2.4-1.3-3.9-4.1-3.9c-0.7,0-1.2,0.1-1.5,0.1V54.5z"/>
</g>
<g id="XMLID_2101_">
	<path id="XMLID_2102_" d="M513.8,45.5c0.8-0.1,1.7-0.2,2.8-0.2c1.9,0,3.2,0.5,4.1,1.3c0.9,0.8,1.4,2,1.4,3.6c0,1.6-0.5,3-1.5,3.9
		c-1,0.9-2.5,1.5-4.5,1.5c-0.9,0-1.7,0-2.4-0.1V45.5z M515.1,54.5c0.3,0,0.8,0.1,1.3,0.1c2.8,0,4.3-1.6,4.3-4.3
		c0-2.4-1.3-3.9-4.1-3.9c-0.7,0-1.2,0.1-1.5,0.1V54.5z"/>
</g>
<g id="XMLID_2098_">
	<path id="XMLID_2099_" d="M251.3,40.8h-3.9v3.6h4.4v1.1h-5.7V35.4h5.5v1.1h-4.2v3.2h3.9V40.8z"/>
</g>
<g id="XMLID_2095_">
	<path id="XMLID_2096_" d="M487.9,41.3H484V45h4.4v1.1h-5.7V35.9h5.5V37H484v3.2h3.9V41.3z"/>
</g>
<g id="XMLID_2092_">
	<path id="XMLID_2093_" d="M279.8,25.7h5.4v1.1h-4.1v3.4h3.8v1.1h-3.8v4.6h-1.3V25.7z"/>
</g>
<g id="XMLID_2089_">
	<path id="XMLID_2090_" d="M453.7,25.7h5.4v1.1H455v3.4h3.8v1.1H455v4.6h-1.3V25.7z"/>
</g>
<g id="XMLID_2086_">
	<path id="XMLID_2087_" d="M318.3,25c-0.6,0.2-1.8,0.6-3.1,0.6c-1.5,0-2.8-0.4-3.8-1.3c-0.9-0.8-1.4-2.2-1.4-3.8
		c0-3,2.1-5.2,5.5-5.2c1.2,0,2.1,0.3,2.5,0.5l-0.3,1.1c-0.5-0.3-1.2-0.4-2.2-0.4c-2.5,0-4.1,1.5-4.1,4.1c0,2.6,1.5,4.1,3.9,4.1
		c0.9,0,1.4-0.1,1.7-0.3v-3h-2v-1h3.3V25z"/>
</g>
<g id="XMLID_2083_">
	<path id="XMLID_2084_" d="M428,26.8c-0.6,0.2-1.8,0.6-3.1,0.6c-1.5,0-2.8-0.4-3.8-1.3c-0.9-0.8-1.4-2.2-1.4-3.8
		c0-3,2.1-5.2,5.5-5.2c1.2,0,2.1,0.3,2.5,0.5l-0.3,1.1c-0.5-0.3-1.2-0.4-2.2-0.4c-2.5,0-4.1,1.5-4.1,4.1c0,2.6,1.5,4.1,3.9,4.1
		c0.9,0,1.4-0.1,1.7-0.3v-3h-2v-1h3.3V26.8z"/>
</g>
<g id="XMLID_2079_">
	<path id="XMLID_2080_" d="M343,12l-1,3.2h-1.4L344,5.1h1.6l3.5,10.1h-1.4l-1.1-3.2H343z M346.3,11l-1-2.9c-0.2-0.7-0.4-1.3-0.5-1.8
		h0c-0.1,0.6-0.3,1.2-0.5,1.8l-1,2.9H346.3z"/>
</g>
<g id="XMLID_1955_">
	<path id="XMLID_1956_" d="M388.2,11.1l-1,3.2h-1.3l3.4-10.1h1.6l3.4,10.1h-1.4l-1.1-3.2H388.2z M391.5,10.1l-1-2.9
		c-0.2-0.7-0.4-1.3-0.5-1.8h0c-0.2,0.6-0.3,1.2-0.5,1.8l-1,2.9H391.5z"/>
</g>
<g id="XMLID_469_">
	<path id="XMLID_471_" d="M47.5,112.4c-2.1,0.7-4.3,1-6.5,1.1c-5.8,0.1-11.2-1.5-15.8-5c-4.9-3.7-7.5-8.7-8.7-14.6
		c-1.1-5.7,0-11.1,2.4-16.3c2.1-4.5,5-8.5,8.2-12.2c0.7-0.8,1.4-1.5,2.1-2.3c0.3-0.3,0.3-0.5,0.2-0.9c-0.8-2.8-1.8-5.5-2.4-8.3
		c-1.3-5.6-1.5-11.3,0.3-16.9c2.1-6.4,6-11.2,12.5-13.5c0.8-0.3,1.6-0.5,2.4-0.6c1.7-0.1,3.2,0.6,4.5,1.6c2.7,2.1,4,5,4.2,8.3
		c0.3,5.1-1.4,9.7-3.8,14.2c-2.3,4.3-5.4,8.2-8.6,11.9c-1.1,1.3-2.1,2.5-3.2,3.7c-0.3,0.4-0.1,0.6,0,0.9c2,3.9,3.9,7.8,5.9,11.6
		c1-0.2,2-0.5,3.1-0.7c3.1-0.6,6.1,0,8.9,1.4c5.5,2.9,8.8,7.5,9.8,13.7c0.8,5-0.6,9.6-3.4,13.7c-1.8,2.7-4.1,4.9-6.8,6.6
		c-0.4,0.3-0.5,0.5-0.4,1c0.5,3.1,1.1,6.1,1.6,9.2c0.5,3.4,0.7,6.8-0.4,10.1c-1.4,4.5-4.6,7.1-9,8.3c-5.7,1.5-10.9,0.3-15.5-3.2
		c-3.9-2.9-6.5-6.6-7.6-11.4c-0.1-0.6-0.2-1.3-0.3-1.9c0-0.3,0-0.6,0-0.9c1.3,6.7,5,11.5,11.1,14.3c4.3,2,8.7,2.1,13-0.1
		c3.3-1.7,5-4.5,5.1-8.2c0.1-3.3-0.8-6.4-1.5-9.6c-0.4-1.5-0.8-2.9-1.2-4.4C47.7,112.8,47.6,112.6,47.5,112.4z M46,107.1
		c-2.5-9.1-6.5-17.6-9.3-26.6c-2.5,2.7-3.5,5.7-2.7,9.1c1,4.3,3.6,7.2,7.9,8.4c-0.3,0-0.5,0-0.8-0.1c-4.8-1.1-8.4-5.9-8.5-10.9
		c0-2.9,1-5.4,2.9-7.5c0.4-0.4,0.4-0.7,0.2-1.2c-0.6-1.6-1.2-3.1-1.9-4.7c-0.8-2-1.6-3.9-2.5-6c-0.8,1.1-1.6,2.1-2.3,3.1
		c-2.4,3.4-4.5,7.1-5.8,11.1c-1,3.3-1.3,6.6-0.7,10c0.8,4,2.9,7.4,5.7,10.3C33.2,106.9,39.2,108.3,46,107.1z M33.3,58.9
		c1.5-1.5,2.9-3,4.2-4.4c2.7-2.9,5.3-5.9,7.4-9.3c2.2-3.6,3.9-7.3,4.1-11.6c0.1-3.2-0.8-6-3.3-8.1c-1.4-1.2-2.9-1.8-4.9-1
		c-4.2,1.8-7.2,4.7-9.2,8.8c-2,4.2-2.4,8.6-1.9,13.1C30.2,50.7,31.5,54.8,33.3,58.9z M51.3,104.8c2.7-1.8,4.7-3.9,6.2-6.6
		c1.5-2.8,2.2-5.7,1.8-8.9c-0.4-3.3-1.9-6.2-4.2-8.6c-2.8-2.9-6.1-4.4-10.2-4.1c-0.9,0.1-1.7,0.3-2.8,0.5
		C46.8,85.9,49,95.3,51.3,104.8z"/>
</g>
<path id="XMLID_145_" d="M489.9,35.5c0,2.1,0,4.3,0,6.5c0.6-0.1,1.2-0.2,1.7-0.3c1.2-0.2,1.7,0.4,1.4,1.5c-0.5,1.5-1.6,2.4-3.4,2.6
	c0-3.5,0-6.9,0-10.4C489.7,35.5,489.8,35.5,489.9,35.5z M489.9,45.1c0.1,0.1,0.2,0.1,0.3,0.2c0.5-0.5,1.1-1,1.6-1.6
	c0.2-0.2,0-0.7,0-1.1c-0.5,0-0.9,0-1.4,0.1c-0.2,0-0.5,0.4-0.5,0.6C489.9,43.9,489.9,44.5,489.9,45.1z"/>
<path id="XMLID_135_" d="M394.9,3.9c0,2.1,0,4.3,0,6.5c0.6-0.1,1.2-0.2,1.7-0.3c1.2-0.2,1.7,0.4,1.4,1.5c-0.5,1.5-1.6,2.4-3.4,2.6
	c0-3.5,0-6.9,0-10.4C394.6,3.9,394.8,3.9,394.9,3.9z M394.9,13.6c0.1,0.1,0.2,0.1,0.3,0.2c0.5-0.5,1.1-1,1.6-1.6
	c0.2-0.2,0-0.7,0-1.1c-0.5,0-0.9,0-1.4,0.1c-0.2,0-0.5,0.4-0.5,0.6C394.8,12.3,394.9,12.9,394.9,13.6z"/>
<path id="XMLID_42_" d="M349.7,5c0,2.1,0,4.3,0,6.5c0.6-0.1,1.2-0.2,1.7-0.3c1.2-0.2,1.7,0.4,1.4,1.5c-0.5,1.5-1.6,2.4-3.4,2.6
	c0-3.5,0-6.9,0-10.4C349.4,5,349.6,5,349.7,5z M349.7,14.6c0.1,0.1,0.2,0.1,0.3,0.2c0.5-0.5,1.1-1,1.6-1.6c0.2-0.2,0-0.7,0-1.1
	c-0.5,0-0.9,0-1.4,0.1c-0.2,0-0.5,0.4-0.5,0.6C349.6,13.4,349.7,14,349.7,14.6z"/>
<path id="XMLID_152_" d="M523.2,45.3c0,2.1,0,4.3,0,6.5c0.6-0.1,1.2-0.2,1.7-0.3c1.2-0.2,1.7,0.4,1.4,1.5c-0.5,1.5-1.6,2.4-3.4,2.6
	c0-3.5,0-6.9,0-10.4C523,45.3,523.1,45.3,523.2,45.3z M523.2,55c0.1,0.1,0.2,0.1,0.3,0.2c0.5-0.5,1.1-1,1.6-1.6c0.2-0.2,0-0.7,0-1.1
	c-0.5,0-0.9,0-1.4,0.1c-0.2,0-0.5,0.4-0.5,0.6C523.2,53.7,523.2,54.4,523.2,55z"/>
<path id="XMLID_45_" d="M586,65.8c0,2.1,0,4.3,0,6.5c0.6-0.1,1.2-0.2,1.7-0.3c1.2-0.2,1.7,0.4,1.4,1.5c-0.5,1.5-1.6,2.4-3.4,2.6
	c0-3.5,0-6.9,0-10.4C585.8,65.8,585.9,65.8,586,65.8z M586,75.4c0.1,0.1,0.2,0.1,0.3,0.2c0.5-0.5,1.1-1,1.6-1.6c0.2-0.2,0-0.7,0-1.1
	c-0.5,0-0.9,0-1.4,0.1c-0.2,0-0.5,0.4-0.5,0.6C586,74.2,586,74.8,586,75.4z"/>
<path id="XMLID_122_" d="M618.6,76.4c0,2.1,0,4.3,0,6.5c0.6-0.1,1.2-0.2,1.7-0.3c1.2-0.2,1.7,0.4,1.4,1.5c-0.5,1.5-1.6,2.4-3.4,2.6
	c0-3.5,0-6.9,0-10.4C618.4,76.4,618.5,76.4,618.6,76.4z M618.6,86.1c0.1,0.1,0.2,0.1,0.3,0.2c0.5-0.5,1.1-1,1.6-1.6
	c0.2-0.2,0-0.7,0-1.1c-0.5,0-0.9,0-1.4,0.1c-0.2,0-0.5,0.4-0.5,0.6C618.6,84.8,618.6,85.4,618.6,86.1z"/>
</svg>
