<?xml version="1.0" encoding="UTF-8"?>
<!DOCTYPE svg PUBLIC "-//W3C//DTD SVG 1.1//EN" "http://www.w3.org/Graphics/SVG/1.1/DTD/svg11.dtd">
<svg xmlns="http://www.w3.org/2000/svg" version="1.1" width="5277px" height="999px" style="shape-rendering:geometricPrecision; text-rendering:geometricPrecision; image-rendering:optimizeQuality; fill-rule:evenodd; clip-rule:evenodd" xmlns:xlink="http://www.w3.org/1999/xlink">
<g><path style="opacity:0.946" fill="#000000" d="M 4050.5,-0.5 C 4052.17,-0.5 4053.83,-0.5 4055.5,-0.5C 4057.13,4.37107 4058.3,9.37107 4059,14.5C 4058.82,26.6989 4058.66,38.6989 4058.5,50.5C 4058.67,50.8333 4058.83,51.1667 4059,51.5C 4065.36,49.8015 4071.86,48.8015 4078.5,48.5C 4078.67,57.5062 4078.5,66.5062 4078,75.5C 4077.12,78.1024 4075.62,80.2691 4073.5,82C 4069.83,83.6667 4066.17,85.3333 4062.5,87C 4060.4,89.0424 4059.23,91.5424 4059,94.5C 4059.77,112.834 4059.6,131.167 4058.5,149.5C 4065.2,148.716 4071.87,147.716 4078.5,146.5C 4078.67,156.172 4078.5,165.839 4078,175.5C 4077.46,177.869 4076.3,179.869 4074.5,181.5C 4063.61,182.886 4058.28,189.053 4058.5,200C 4059.19,205.815 4059.53,211.648 4059.5,217.5C 4463.17,217.333 4866.83,217.5 5270.5,218C 5273.89,219.542 5275.89,222.042 5276.5,225.5C 5276.5,348.167 5276.5,470.833 5276.5,593.5C 5274.5,598.323 5270.83,601.157 5265.5,602C 3603.83,602.333 1942.17,602.667 280.5,603C 285.258,623.959 288.925,645.125 291.5,666.5C 289.431,694.398 276.431,715.565 252.5,730C 226.408,744.337 199.075,747.337 170.5,739C 140.767,726.384 127.267,703.884 130,671.5C 135.772,643.386 152.938,629.886 181.5,631C 197.248,635.079 208.415,644.579 215,659.5C 224.328,688.679 214.828,709.179 186.5,721C 182.167,722.667 177.833,724.333 173.5,726C 214.537,740.209 247.704,729.709 273,694.5C 279.789,682.674 282.122,670.007 280,656.5C 276.175,642.374 273.508,628.04 272,613.5C 269.856,606.363 265.022,602.529 257.5,602C 186.836,602.466 116.17,602.466 45.5,602C 32.5,601.667 19.5,601.333 6.5,601C 4.07963,600.71 1.7463,600.21 -0.5,599.5C -0.5,597.833 -0.5,596.167 -0.5,594.5C 62.8333,594.5 126.167,594.5 189.5,594.5C 189.64,592.876 188.973,591.71 187.5,591C 140.752,579.649 104.752,553.649 79.5,513C 77.5,512 75.5,511 73.5,510C 51.2086,508.721 28.8753,508.054 6.5,508C 4.14011,506.82 1.80678,505.653 -0.5,504.5C -0.5,504.167 -0.5,503.833 -0.5,503.5C 1.94999,502.223 4.28333,500.723 6.5,499C 27.8307,498.5 49.1641,498.333 70.5,498.5C 72.3188,470.827 73.3188,443.161 73.5,415.5C 51.543,414.677 29.543,414.177 7.5,414C 4.74617,413.728 2.0795,413.228 -0.5,412.5C -0.5,410.5 -0.5,408.5 -0.5,406.5C 14.2717,404.28 29.105,403.947 44,405.5C 54.8247,404.834 65.658,404.334 76.5,404C 82.2259,401.608 86.7259,397.774 90,392.5C 106.29,368.753 122.457,344.92 138.5,321C 102.836,321.091 67.1697,321.258 31.5,321.5C 20.6838,321.816 10.0171,320.816 -0.5,318.5C -0.5,316.5 -0.5,314.5 -0.5,312.5C 44.8199,311.703 90.1533,311.203 135.5,311C 144.672,310.39 152.672,307.056 159.5,301C 166.944,292.55 175.277,285.217 184.5,279C 192.006,273.514 196.006,266.181 196.5,257C 194.102,247.635 192.435,238.135 191.5,228.5C 130.522,227.682 69.5218,227.182 8.5,227C 5.45353,226.261 2.45353,225.428 -0.5,224.5C -0.5,222.5 -0.5,220.5 -0.5,218.5C 62.7621,217.504 126.095,217.171 189.5,217.5C 188.467,177.76 194.3,139.094 207,101.5C 216.802,76.8723 231.302,55.539 250.5,37.5C 276.985,68.6438 293.985,104.477 301.5,145C 304.888,169.054 303.222,192.72 296.5,216C 782.167,216.833 1267.83,216.667 1753.5,215.5C 1756.5,210.167 1759.5,204.833 1762.5,199.5C 1765.29,204.923 1767.96,210.423 1770.5,216C 1780.83,216.5 1791.16,216.666 1801.5,216.5C 1801.33,210.158 1801.5,203.825 1802,197.5C 1805.33,184.445 1808.99,184.445 1813,197.5C 1813.5,203.825 1813.67,210.158 1813.5,216.5C 2163.17,216.5 2512.83,216.5 2862.5,216.5C 2862.67,210.824 2862.5,205.157 2862,199.5C 2855.93,201.149 2849.76,202.482 2843.5,203.5C 2843.1,193.434 2843.6,183.434 2845,173.5C 2849,170.167 2853,166.833 2857,163.5C 2859.83,160.671 2861.83,157.337 2863,153.5C 2862.14,136.785 2864.14,120.451 2869,104.5C 2871.43,111.983 2873.1,119.649 2874,127.5C 2874.17,138.182 2874.67,148.849 2875.5,159.5C 2886.18,156.275 2896.51,152.275 2906.5,147.5C 2907.1,146.205 2907.6,144.872 2908,143.5C 2908.33,129.5 2908.67,115.5 2909,101.5C 2909.89,98.0482 2911.56,95.0482 2914,92.5C 2915.91,94.6572 2917.58,96.9906 2919,99.5C 2919.5,114.163 2919.67,128.83 2919.5,143.5C 2925.79,143.09 2931.96,142.09 2938,140.5C 2938.93,151.573 2938.6,162.573 2937,173.5C 2931.15,175.014 2926.15,178.014 2922,182.5C 2921.14,184.087 2920.47,185.754 2920,187.5C 2919.69,197.543 2920.19,207.543 2921.5,217.5C 2934.87,217.805 2948.2,217.305 2961.5,216C 2967.41,210.761 2972.58,204.928 2977,198.5C 2987.96,186.433 3001.46,178.599 3017.5,175C 3051.81,165.405 3084.48,169.405 3115.5,187C 3124.11,195.613 3132.78,204.279 3141.5,213C 3143.17,214 3144.83,215 3146.5,216C 3242.5,217.476 3338.5,217.81 3434.5,217C 3437.43,216.782 3440.26,216.282 3443,215.5C 3443.83,195.158 3443.67,174.825 3442.5,154.5C 3436.63,156.467 3430.63,157.801 3424.5,158.5C 3424.15,149.109 3424.65,139.775 3426,130.5C 3428.8,124.175 3433.63,120.341 3440.5,119C 3442.04,117.421 3443.21,115.587 3444,113.5C 3444.33,101.5 3444.67,89.5 3445,77.5C 3445.35,71.3625 3446.35,65.3625 3448,59.5C 3451.15,63.6166 3453.15,68.2833 3454,73.5C 3454.33,82.8333 3454.67,92.1667 3455,101.5C 3455.07,105.701 3455.91,109.701 3457.5,113.5C 3465.19,111.103 3472.86,108.603 3480.5,106C 3483.47,105.237 3485.97,103.737 3488,101.5C 3489.14,96.9174 3489.81,92.2508 3490,87.5C 3490.33,76.1667 3490.67,64.8333 3491,53.5C 3492.33,51.5 3493.67,49.5 3495,47.5C 3496.91,49.6572 3498.58,51.9906 3500,54.5C 3500.5,69.1629 3500.67,83.8295 3500.5,98.5C 3506.58,97.9317 3512.58,96.9317 3518.5,95.5C 3521.32,105.916 3521.16,116.249 3518,126.5C 3514.09,130.208 3509.59,133.042 3504.5,135C 3502.96,136.579 3501.79,138.413 3501,140.5C 3500.5,159.497 3500.33,178.497 3500.5,197.5C 3506.81,196.338 3513.15,195.338 3519.5,194.5C 3519.5,201.52 3519.83,208.52 3520.5,215.5C 3537.17,215.667 3553.84,215.5 3570.5,215C 3546.26,200.544 3540.43,180.71 3553,155.5C 3567.3,140.431 3584.8,131.265 3605.5,128C 3630.59,123.523 3655.26,125.19 3679.5,133C 3693.73,137.85 3705.56,146.017 3715,157.5C 3724.91,174.392 3723.25,190.059 3710,204.5C 3705.26,208.454 3700.42,212.287 3695.5,216C 3795.81,217.644 3896.15,217.977 3996.5,217C 4002.51,215.82 4004.51,212.32 4002.5,206.5C 3996.42,207.068 3990.42,208.068 3984.5,209.5C 3984.73,201.703 3984.4,193.87 3983.5,186C 3983.19,182.09 3984.19,178.59 3986.5,175.5C 3990.28,172.795 3994.28,170.462 3998.5,168.5C 4000.77,166.287 4002.27,163.621 4003,160.5C 4003.5,142.503 4003.67,124.503 4003.5,106.5C 3996.86,107.962 3990.19,109.295 3983.5,110.5C 3984.67,102.665 3984.67,94.832 3983.5,87C 3983.28,82.9822 3984.28,79.3155 3986.5,76C 3990.77,74.1819 3995.1,72.5152 3999.5,71C 4001.49,69.6811 4002.65,67.8477 4003,65.5C 4003.33,53.8333 4003.67,42.1667 4004,30.5C 4004.16,24.0053 4005.16,17.672 4007,11.5C 4010.38,16.6493 4012.38,22.316 4013,28.5C 4013.3,40.8502 4013.8,53.1836 4014.5,65.5C 4025.63,63.5141 4036.13,59.8475 4046,54.5C 4046.86,52.913 4047.53,51.2464 4048,49.5C 4047.87,32.5982 4048.7,15.9315 4050.5,-0.5 Z M 4046.5,91.5 C 4047.83,100.977 4048.5,110.81 4048.5,121C 4048.33,130.833 4048.17,140.667 4048,150.5C 4046.44,153.728 4043.94,155.895 4040.5,157C 4031.86,159.936 4023.19,162.769 4014.5,165.5C 4014.17,156 4013.83,146.5 4013.5,137C 4013.37,126.431 4013.87,115.931 4015,105.5C 4016.5,104 4018,102.5 4019.5,101C 4028.57,97.7004 4037.57,94.5337 4046.5,91.5 Z M 253.5,92.5 C 261.857,91.5967 268.357,94.5967 273,101.5C 284.838,122.411 286.505,144.077 278,166.5C 273.388,178.391 267.721,189.724 261,200.5C 253.778,212.22 243.278,218.22 229.5,218.5C 221.452,217.791 213.452,216.791 205.5,215.5C 204.619,175.348 214.785,138.348 236,104.5C 240.505,98.3482 246.338,94.3482 253.5,92.5 Z M 3618.5,134.5 C 3648.02,135.504 3667.86,149.838 3678,177.5C 3684.09,204.02 3673.59,217.02 3646.5,216.5C 3611.3,215.96 3591.63,198.294 3587.5,163.5C 3587.98,149.87 3594.65,141.037 3607.5,137C 3611.31,136.205 3614.98,135.371 3618.5,134.5 Z M 3487.5,139.5 C 3488.83,148.977 3489.5,158.81 3489.5,169C 3489.33,178.833 3489.17,188.667 3489,198.5C 3487.83,201 3486,202.833 3483.5,204C 3474.31,207.342 3464.98,210.175 3455.5,212.5C 3455.33,193.164 3455.5,173.83 3456,154.5C 3457.5,151.667 3459.67,149.5 3462.5,148C 3470.98,145.23 3479.31,142.397 3487.5,139.5 Z M 3036.5,179.5 C 3063.33,179.089 3081.66,191.423 3091.5,216.5C 3068.84,217.666 3046.17,217.833 3023.5,217C 3014.57,218.543 3008.9,215.043 3006.5,206.5C 3007.15,198.025 3010.82,191.192 3017.5,186C 3023.59,182.738 3029.92,180.571 3036.5,179.5 Z M 2906.5,185.5 C 2908.47,195.111 2909.14,205.111 2908.5,215.5C 2897.5,215.5 2886.5,215.5 2875.5,215.5C 2874.73,210.18 2874.57,204.846 2875,199.5C 2877.78,194.073 2882.28,190.907 2888.5,190C 2894.64,188.544 2900.64,187.044 2906.5,185.5 Z M 4039.5,192.5 C 4042.17,192.5 4044.83,192.5 4047.5,192.5C 4047.5,200.5 4047.5,208.5 4047.5,216.5C 4036.83,216.5 4026.17,216.5 4015.5,216.5C 4012.98,206.38 4016.64,199.546 4026.5,196C 4031,194.961 4035.33,193.794 4039.5,192.5 Z M 301.5,227.5 C 786.5,227.5 1271.5,227.5 1756.5,227.5C 1756.92,236.915 1756.42,246.248 1755,255.5C 1754.04,256.579 1753.21,257.745 1752.5,259C 1744.45,259.103 1739.29,262.936 1737,270.5C 1736.5,279.827 1736.33,289.161 1736.5,298.5C 1742.86,297.629 1749.19,296.629 1755.5,295.5C 1755.5,300.833 1755.5,306.167 1755.5,311.5C 1588.83,311.667 1422.17,311.5 1255.5,311C 1252.21,309.642 1250.71,307.142 1251,303.5C 1251.61,296.155 1251.45,288.822 1250.5,281.5C 1244.15,282.371 1237.81,283.371 1231.5,284.5C 1232.96,270.818 1232.79,257.152 1231,243.5C 1230.05,239.973 1228.72,236.64 1227,233.5C 1221.93,242.442 1219.76,252.109 1220.5,262.5C 1220.64,267.681 1220.97,272.847 1221.5,278C 1221.67,284.335 1219,289.002 1213.5,292C 1204.4,294.201 1195.4,296.701 1186.5,299.5C 1186.67,284.163 1186.5,268.83 1186,253.5C 1182.34,242.978 1179.01,242.978 1176,253.5C 1175.67,268.833 1175.33,284.167 1175,299.5C 1174.17,303 1172,305.167 1168.5,306C 1160.87,307.825 1153.2,309.492 1145.5,311C 843.833,311.833 542.166,311.667 240.5,310.5C 258.167,284.5 275.833,258.5 293.5,232.5C 295.928,230.295 298.595,228.628 301.5,227.5 Z M 2459.5,227.5 C 2488.91,229.088 2508.41,243.755 2518,271.5C 2522.02,293.295 2513.19,306.462 2491.5,311C 2461.64,312.324 2441.14,299.157 2430,271.5C 2423.2,245.404 2433.03,230.737 2459.5,227.5 Z M 2920.5,227.5 C 2933.5,227.333 2946.5,227.5 2959.5,228C 2962.1,228.883 2964.27,230.383 2966,232.5C 2970.63,245.459 2979.13,254.959 2991.5,261C 3034.3,278.529 3076.63,277.529 3118.5,258C 3122.92,255.588 3126.75,252.422 3130,248.5C 3134.46,242.412 3138.3,235.912 3141.5,229C 3235.83,228.5 3330.17,228.333 3424.5,228.5C 3424.5,237.833 3424.5,247.167 3424.5,256.5C 3430.92,256.04 3437.26,255.04 3443.5,253.5C 3444.33,267.154 3444.83,280.821 3445,294.5C 3445.83,298.161 3447.33,301.495 3449.5,304.5C 3452.14,300.879 3453.98,296.879 3455,292.5C 3455.33,281.833 3455.67,271.167 3456,260.5C 3456.77,252.777 3460.6,247.277 3467.5,244C 3474.88,241.688 3482.38,240.188 3490,239.5C 3490.33,257.167 3490.67,274.833 3491,292.5C 3496.12,293.505 3499.12,291.172 3500,285.5C 3500.04,269.1 3500.71,252.767 3502,236.5C 3503.54,234.622 3505.38,233.122 3507.5,232C 3513.5,230.667 3519.5,229.333 3525.5,228C 3684.53,227.171 3843.53,227.338 4002.5,228.5C 4002.87,237.921 4003.7,247.254 4005,256.5C 4007.47,255.896 4009.47,254.562 4011,252.5C 4012.93,244.617 4014.1,236.617 4014.5,228.5C 4025.5,228.5 4036.5,228.5 4047.5,228.5C 4048.13,233.898 4049.13,239.232 4050.5,244.5C 4052.74,246.12 4054.57,245.787 4056,243.5C 4057.7,238.597 4059.54,233.763 4061.5,229C 4461.17,228.5 4860.83,228.333 5260.5,228.5C 5260.5,255.833 5260.5,283.167 5260.5,310.5C 4480.5,310.5 3700.5,310.5 2920.5,310.5C 2919.23,300.833 2919.4,291.166 2921,281.5C 2924.52,279.099 2928.36,277.266 2932.5,276C 2937.13,272.132 2939.46,267.132 2939.5,261C 2938.2,253.957 2938.2,246.957 2939.5,240C 2933.18,240.263 2927.02,241.43 2921,243.5C 2920.5,238.177 2920.33,232.844 2920.5,227.5 Z M 3012.5,227.5 C 3038.5,227.333 3064.5,227.5 3090.5,228C 3094.63,229.13 3096.97,231.797 3097.5,236C 3095.85,252.317 3086.85,261.317 3070.5,263C 3041.73,266.131 3022.39,254.297 3012.5,227.5 Z M 204.5,228.5 C 215.172,228.333 225.839,228.5 236.5,229C 227.667,238.5 218.833,248 210,257.5C 209,256.833 208,256.167 207,255.5C 205.913,246.518 205.08,237.518 204.5,228.5 Z M 1767.5,228.5 C 1778.83,228.5 1790.17,228.5 1801.5,228.5C 1803.76,240.736 1798.76,247.902 1786.5,250C 1780.5,251.234 1774.5,252.4 1768.5,253.5C 1767.63,245.2 1767.3,236.867 1767.5,228.5 Z M 1813.5,228.5 C 2015.17,228.333 2216.83,228.5 2418.5,229C 2409.53,234.073 2401.36,240.24 2394,247.5C 2382.97,265.472 2384.31,282.472 2398,298.5C 2402.83,302.667 2407.67,306.833 2412.5,311C 2288.83,311.667 2165.17,311.667 2041.5,311C 2039.5,310.333 2037.5,309.667 2035.5,309C 2028.87,300.704 2021.87,292.704 2014.5,285C 2002.46,276.54 1989.13,271.206 1974.5,269C 1947.93,263.612 1921.93,265.612 1896.5,275C 1881.57,281.202 1869.73,291.035 1861,304.5C 1859.13,306.709 1856.96,308.542 1854.5,310C 1840.91,311.446 1827.24,311.946 1813.5,311.5C 1813.33,300.828 1813.5,290.161 1814,279.5C 1818.91,274.517 1823.91,269.517 1829,264.5C 1829.67,263.167 1830.33,261.833 1831,260.5C 1831.66,252.477 1831.49,244.477 1830.5,236.5C 1824.89,237.056 1819.39,238.056 1814,239.5C 1813.5,235.848 1813.33,232.182 1813.5,228.5 Z M 2527.5,229.5 C 2639.33,228.5 2751.33,228.167 2863.5,228.5C 2863.67,237.839 2863.5,247.173 2863,256.5C 2860.72,262.105 2856.55,265.605 2850.5,267C 2848.29,268.873 2846.46,271.04 2845,273.5C 2843.61,282.766 2843.11,292.1 2843.5,301.5C 2849.82,300.724 2856.15,300.058 2862.5,299.5C 2862.21,303.106 2862.54,306.606 2863.5,310C 2753.17,310.667 2642.83,310.667 2532.5,310C 2545.42,304.082 2554.59,294.582 2560,281.5C 2563.05,270.047 2561.38,259.38 2555,249.5C 2547.36,240.688 2538.19,234.021 2527.5,229.5 Z M 2875.5,228.5 C 2886.17,228.5 2896.83,228.5 2907.5,228.5C 2908.25,232.819 2908.42,237.152 2908,241.5C 2906.97,246.864 2903.81,250.364 2898.5,252C 2890.93,254.08 2883.27,255.58 2875.5,256.5C 2875.5,247.167 2875.5,237.833 2875.5,228.5 Z M 1926.5,274.5 C 1954.27,273.048 1973.27,285.215 1983.5,311C 1956.41,311.982 1929.41,311.649 1902.5,310C 1899.71,307.79 1898.88,304.956 1900,301.5C 1903.72,287.284 1912.55,278.284 1926.5,274.5 Z M 1800.5,279.5 C 1801.49,289.987 1801.83,300.654 1801.5,311.5C 1792.01,312.105 1782.67,311.271 1773.5,309C 1768.93,307.34 1766.93,304.006 1767.5,299C 1767.2,295.265 1768.53,292.265 1771.5,290C 1781.43,286.969 1791.1,283.469 1800.5,279.5 Z M 2906.5,284.5 C 2907.49,292.984 2907.83,301.651 2907.5,310.5C 2896.83,310.5 2886.17,310.5 2875.5,310.5C 2873.19,299.614 2877.19,292.447 2887.5,289C 2893.95,287.415 2900.28,285.915 2906.5,284.5 Z M 236.5,320.5 C 542.833,320.5 849.167,320.5 1155.5,320.5C 1156.05,328.179 1156.71,335.846 1157.5,343.5C 1163.54,342.758 1169.54,341.758 1175.5,340.5C 1175.67,359.503 1175.5,378.503 1175,397.5C 1172.65,402.263 1168.81,404.929 1163.5,405.5C 1070.2,404.39 976.866,404.224 883.5,405C 879.902,404.846 876.569,403.846 873.5,402C 867.833,395.667 862.167,389.333 856.5,383C 835.221,366.684 811.054,358.517 784,358.5C 757.748,358.682 733.914,366.182 712.5,381C 706.957,386.874 701.79,393.041 697,399.5C 694.742,401.43 692.242,402.93 689.5,404C 546.167,404.667 402.833,404.667 259.5,404C 253.784,403.718 248.117,403.052 242.5,402C 240,400.833 238.167,399 237,396.5C 231.731,374.822 227.231,352.988 223.5,331C 225.702,324.611 230.035,321.111 236.5,320.5 Z M 1261.5,320.5 C 1276.51,320.167 1291.51,320.501 1306.5,321.5C 1299.18,327.99 1292.34,334.99 1286,342.5C 1280.78,349.114 1277.61,356.614 1276.5,365C 1277.36,373.218 1280.53,380.385 1286,386.5C 1292.37,392.926 1299.2,398.759 1306.5,404C 1289.5,404.667 1272.5,404.667 1255.5,404C 1252.82,401.806 1251.32,398.973 1251,395.5C 1250.5,390.511 1250.33,385.511 1250.5,380.5C 1244.15,381.371 1237.81,382.371 1231.5,383.5C 1231.18,364.474 1231.68,345.474 1233,326.5C 1234.5,325 1236,323.5 1237.5,322C 1245.68,321.829 1253.68,321.329 1261.5,320.5 Z M 1813.5,320.5 C 1827.2,320.163 1840.87,320.663 1854.5,322C 1855.93,322.465 1857.1,323.299 1858,324.5C 1865.18,345.011 1879.35,357.845 1900.5,363C 1926.12,366.971 1951.79,366.971 1977.5,363C 2004.87,363.082 2023.7,350.582 2034,325.5C 2036.25,323.623 2038.75,322.123 2041.5,321C 2315.5,320.5 2589.5,320.333 2863.5,320.5C 2863.33,328.84 2863.5,337.173 2864,345.5C 2868.28,350.718 2871.62,350.051 2874,343.5C 2874.5,336.508 2874.67,329.508 2874.5,322.5C 2885.19,322.168 2895.85,322.501 2906.5,323.5C 2908.53,328.754 2911.03,333.754 2914,338.5C 2917.04,332.918 2920.21,327.418 2923.5,322C 3702.5,321.5 4481.5,321.333 5260.5,321.5C 5260.5,348.833 5260.5,376.167 5260.5,403.5C 4111.5,403.5 2962.5,403.5 1813.5,403.5C 1813.33,395.16 1813.5,386.827 1814,378.5C 1818.61,372.891 1823.61,367.558 1829,362.5C 1829.67,361.167 1830.33,359.833 1831,358.5C 1831.69,350.805 1831.52,343.139 1830.5,335.5C 1825.12,336.243 1819.78,337.243 1814.5,338.5C 1813.5,332.537 1813.17,326.537 1813.5,320.5 Z M 1905.5,320.5 C 1932.18,320.238 1958.85,320.738 1985.5,322C 1988.17,323.333 1990.17,325.333 1991.5,328C 1989.69,335.066 1987.19,341.899 1984,348.5C 1974.56,358.315 1963.06,362.148 1949.5,360C 1926.72,355.718 1912.06,342.552 1905.5,320.5 Z M 1342.5,321.5 C 1382.58,319.414 1405.25,338.248 1410.5,378C 1408.86,392.97 1400.53,401.303 1385.5,403C 1353.15,407.663 1331.65,394.496 1321,363.5C 1317.35,353.667 1317.69,344 1322,334.5C 1327.04,327.235 1333.88,322.902 1342.5,321.5 Z M 1420.5,322.5 C 1532.33,321.5 1644.33,321.167 1756.5,321.5C 1756.94,333.243 1756.44,344.91 1755,356.5C 1750.9,358.319 1746.73,360.152 1742.5,362C 1737.15,366.433 1735.15,372.1 1736.5,379C 1736.91,385.642 1737.25,392.142 1737.5,398.5C 1743.43,396.85 1749.43,395.516 1755.5,394.5C 1757.43,398.261 1756.77,401.427 1753.5,404C 1642.83,404.667 1532.17,404.667 1421.5,404C 1434.51,397.654 1444.18,387.987 1450.5,375C 1455.41,358.395 1451.08,344.728 1437.5,334C 1432.15,329.661 1426.48,325.828 1420.5,322.5 Z M 1768.5,321.5 C 1778.85,321.168 1789.19,321.501 1799.5,322.5C 1801.78,328.126 1802.28,333.792 1801,339.5C 1796.53,344.321 1791.03,347.488 1784.5,349C 1779.22,350.487 1773.89,351.653 1768.5,352.5C 1768.5,342.167 1768.5,331.833 1768.5,321.5 Z M 1219.5,324.5 C 1220.66,344.329 1220.83,364.329 1220,384.5C 1218.75,387.381 1216.58,389.214 1213.5,390C 1204.65,393.172 1195.82,396.338 1187,399.5C 1186.33,380.167 1186.33,360.833 1187,341.5C 1187.79,339.413 1188.96,337.579 1190.5,336C 1200.07,331.65 1209.73,327.817 1219.5,324.5 Z M 211.5,332.5 C 216.888,355.892 222.221,379.392 227.5,403C 197.833,403.667 168.167,403.667 138.5,403C 159.478,375.852 183.812,352.352 211.5,332.5 Z M 771.5,367.5 C 795.848,368.18 812.515,379.847 821.5,402.5C 794.175,403.5 766.841,403.833 739.5,403.5C 736.305,390.732 739.971,380.565 750.5,373C 757.379,370.198 764.379,368.365 771.5,367.5 Z M 1797.5,380.5 C 1798.83,380.5 1800.17,380.5 1801.5,380.5C 1801.5,388.167 1801.5,395.833 1801.5,403.5C 1790.83,403.667 1780.16,403.5 1769.5,403C 1766.27,397.642 1766.93,392.975 1771.5,389C 1780.07,385.531 1788.74,382.698 1797.5,380.5 Z M 134.5,414.5 C 154.836,414.333 175.169,414.5 195.5,415C 166.711,435.414 153.711,463.247 156.5,498.5C 141.456,498.896 126.456,498.396 111.5,497C 109.622,495.457 108.122,493.624 107,491.5C 105.398,477.111 107.065,463.111 112,449.5C 116.199,438.769 121.199,428.436 127,418.5C 129.514,416.996 132.014,415.662 134.5,414.5 Z M 306.5,414.5 C 433.5,414.333 560.5,414.5 687.5,415C 690.698,415.848 693.531,417.348 696,419.5C 702.561,434.394 713.394,444.894 728.5,451C 765.946,465.235 803.279,464.901 840.5,450C 854,443.167 864.167,433 871,419.5C 873.258,417.57 875.758,416.07 878.5,415C 970.833,414.5 1063.17,414.333 1155.5,414.5C 1155.92,423.864 1156.59,433.197 1157.5,442.5C 1163.54,441.716 1169.54,440.716 1175.5,439.5C 1175.33,453.837 1175.5,468.171 1176,482.5C 1178.75,492.485 1182.08,492.818 1186,483.5C 1186.82,470.924 1186.65,458.424 1185.5,446C 1185.76,438.469 1189.43,433.469 1196.5,431C 1204.89,428.986 1213.22,426.819 1221.5,424.5C 1220.11,440.177 1220.27,455.844 1222,471.5C 1223.02,474.21 1224.52,476.543 1226.5,478.5C 1228.5,476.507 1230,474.173 1231,471.5C 1232.62,458.346 1232.78,445.18 1231.5,432C 1230.61,425.635 1232.95,420.968 1238.5,418C 1243.81,416.871 1249.14,415.871 1254.5,415C 1421.85,414.173 1589.18,414.34 1756.5,415.5C 1756.33,423.174 1756.5,430.841 1757,438.5C 1760.54,447.623 1763.87,447.623 1767,438.5C 1767.5,430.841 1767.67,423.174 1767.5,415.5C 1778.19,415.168 1788.85,415.501 1799.5,416.5C 1801.79,422.372 1804.45,428.039 1807.5,433.5C 1810.36,427.62 1813.36,421.786 1816.5,416C 2964.5,415.5 4112.5,415.333 5260.5,415.5C 5260.5,442.833 5260.5,470.167 5260.5,497.5C 3622.5,497.833 1984.5,497.5 346.5,496.5C 343.444,482.61 339.611,468.944 335,455.5C 327.251,441.411 317.584,428.745 306,417.5C 305.53,416.423 305.697,415.423 306.5,414.5 Z M 742.5,414.5 C 768.835,414.333 795.169,414.5 821.5,415C 828.108,418.559 830.608,424.059 829,431.5C 826.997,439.502 822.164,445.002 814.5,448C 787.893,457.464 766.06,450.964 749,428.5C 746.012,424.192 743.845,419.525 742.5,414.5 Z M 253.5,445.5 C 273.616,444.808 288.783,453.142 299,470.5C 304.067,479.202 307.234,488.535 308.5,498.5C 294.829,498.667 281.163,498.5 267.5,498C 262.626,497.983 259.126,495.816 257,491.5C 253.783,477.746 250.949,463.913 248.5,450C 248.585,448.893 248.919,447.893 249.5,447C 251.058,446.79 252.391,446.29 253.5,445.5 Z M 235.5,447.5 C 239.803,463.828 243.803,480.328 247.5,497C 226.169,497.5 204.836,497.667 183.5,497.5C 183.831,475.322 194.498,460.489 215.5,453C 222.208,450.826 228.875,448.993 235.5,447.5 Z M 111.5,508.5 C 126.572,508.049 141.572,508.549 156.5,510C 163.136,515.634 169.469,521.634 175.5,528C 184.399,535.852 194.732,540.186 206.5,541C 198.955,530.744 191.288,520.577 183.5,510.5C 205.49,509.5 227.49,509.167 249.5,509.5C 253.6,529.166 257.767,548.833 262,568.5C 262.808,570.579 262.641,572.579 261.5,574.5C 236.4,585.452 210.733,586.952 184.5,579C 159.267,571.982 138.767,558.149 123,537.5C 116.934,528.704 113.101,519.037 111.5,508.5 Z M 261.5,509.5 C 276.833,509.5 292.167,509.5 307.5,509.5C 308.421,521.149 305.588,531.815 299,541.5C 292.14,551.869 283.306,559.869 272.5,565.5C 268.833,546.833 265.167,528.167 261.5,509.5 Z M 341.5,509.5 C 1980.83,509.5 3620.17,509.5 5259.5,509.5C 5259.5,537.167 5259.5,564.833 5259.5,592.5C 3601.5,592.667 1943.5,592.5 285.5,592C 282.248,590.744 279.581,588.744 277.5,586C 278.317,584.51 279.15,583.01 280,581.5C 293.816,573.024 306.483,563.024 318,551.5C 328.69,539.123 336.523,525.123 341.5,509.5 Z"/></g>
<g><path style="opacity:0.967" fill="#000000" d="M 4783.5,29.5 C 4817.45,27.0966 4847.61,36.4299 4874,57.5C 4886.31,72.8725 4886.65,88.5391 4875,104.5C 4870.21,109.991 4865.04,115.158 4859.5,120C 4883.5,120.5 4907.5,120.667 4931.5,120.5C 4931.5,125.5 4931.5,130.5 4931.5,135.5C 4842.17,135.667 4752.83,135.5 4663.5,135C 4660.55,130.376 4660.88,126.042 4664.5,122C 4665.5,121.667 4666.5,121.333 4667.5,121C 4688.5,120.667 4709.5,120.333 4730.5,120C 4731.65,117.443 4730.65,116.11 4727.5,116C 4715.86,106.706 4709.19,94.7064 4707.5,80C 4708.19,68.9652 4712.86,59.9652 4721.5,53C 4740.33,40.1147 4761,32.2814 4783.5,29.5 Z M 4774.5,39.5 C 4804.57,37.4266 4825.74,50.0933 4838,77.5C 4841.93,87.4239 4842.26,97.4239 4839,107.5C 4835.94,114.227 4830.77,118.394 4823.5,120C 4814.17,120.667 4804.83,120.667 4795.5,120C 4775.14,116.633 4760.97,105.466 4753,86.5C 4747.69,74.0756 4748.35,62.0756 4755,50.5C 4760.33,44.5914 4766.83,40.9247 4774.5,39.5 Z"/></g>
<g><path style="opacity:0.963" fill="#000000" d="M 4217.5,77.5 C 4247,75.4569 4274,82.6236 4298.5,99C 4303.64,104.298 4308.31,109.965 4312.5,116C 4317.75,119.565 4323.58,121.399 4330,121.5C 4340.81,120.557 4351.64,120.223 4362.5,120.5C 4362.5,125.833 4362.5,131.167 4362.5,136.5C 4349.83,136.333 4337.16,136.5 4324.5,137C 4321.42,137.346 4318.42,138.012 4315.5,139C 4308.68,154.483 4297.35,165.15 4281.5,171C 4253.37,180.08 4224.7,182.413 4195.5,178C 4183.83,175.493 4173.16,170.826 4163.5,164C 4155.43,155.264 4146.77,147.264 4137.5,140C 4134.75,138.25 4131.75,137.25 4128.5,137C 4118.83,136.667 4109.17,136.333 4099.5,136C 4097.17,133.667 4094.83,131.333 4092.5,129C 4095.2,125.962 4098.2,123.295 4101.5,121C 4107.5,120.591 4113.5,120.757 4119.5,121.5C 4134.56,122.224 4145.4,115.89 4152,102.5C 4162.56,92.4665 4175.06,85.9665 4189.5,83C 4198.87,80.6093 4208.2,78.776 4217.5,77.5 Z M 4209.5,86.5 C 4227.31,84.4925 4242.14,90.1591 4254,103.5C 4257.87,108.746 4261.37,114.246 4264.5,120C 4237.08,120.982 4209.75,120.649 4182.5,119C 4180.04,116.336 4179.88,113.502 4182,110.5C 4185.87,102.92 4191.03,96.4195 4197.5,91C 4201.57,89.3695 4205.57,87.8695 4209.5,86.5 Z M 4187.5,138.5 C 4215.66,137.502 4244,137.169 4272.5,137.5C 4275.01,155.486 4267.34,165.986 4249.5,169C 4220.9,174.534 4200.24,164.367 4187.5,138.5 Z"/></g>
<g><path style="opacity:0.932" fill="#000000" d="M 2003.5,998.5 C 2001.83,998.5 2000.17,998.5 1998.5,998.5C 1997.85,989.848 1997.52,981.182 1997.5,972.5C 1992.42,972.849 1987.42,972.849 1982.5,972.5C 1986.81,962.554 1991.64,952.888 1997,943.5C 1997.83,933.151 1997.67,922.817 1996.5,912.5C 1993.3,911.873 1990.13,911.206 1987,910.5C 1986.09,904.056 1986.42,897.723 1988,891.5C 1990.25,889.623 1992.75,888.123 1995.5,887C 1996.13,886.25 1996.63,885.416 1997,884.5C 1997.5,873.839 1997.67,863.172 1997.5,852.5C 1999.5,852.5 2001.5,852.5 2003.5,852.5C 2004.08,862.508 2004.75,872.508 2005.5,882.5C 2005.83,883.167 2006.17,883.833 2006.5,884.5C 2011.6,883.314 2016.6,881.814 2021.5,880C 2023.05,878.786 2024.22,877.286 2025,875.5C 2025.57,870.674 2026.07,865.841 2026.5,861C 2025.7,855.842 2025.53,850.675 2026,845.5C 2027.7,844.594 2029.53,844.261 2031.5,844.5C 2031.5,854.5 2031.5,864.5 2031.5,874.5C 2036.17,874.5 2040.83,874.5 2045.5,874.5C 2045,880.882 2044.16,887.215 2043,893.5C 2038.31,895.526 2034.97,898.859 2033,903.5C 2032.5,914.161 2032.33,924.828 2032.5,935.5C 2036.24,935.241 2039.91,935.574 2043.5,936.5C 2044.92,942.918 2044.75,949.251 2043,955.5C 2039.96,957.845 2036.96,960.178 2034,962.5C 2032.66,973.118 2032.16,983.784 2032.5,994.5C 2030.74,994.357 2029.07,994.691 2027.5,995.5C 2026.54,984.496 2025.54,973.496 2024.5,962.5C 2018.28,964.908 2011.94,966.908 2005.5,968.5C 2004.92,978.527 2004.25,988.527 2003.5,998.5 Z M 2017.5,903.5 C 2019.83,903.5 2022.17,903.5 2024.5,903.5C 2025.11,911.666 2025.78,919.832 2026.5,928C 2025.91,931.151 2025.41,934.318 2025,937.5C 2023.89,939.815 2022.06,941.315 2019.5,942C 2015.24,942.57 2011.07,943.403 2007,944.5C 2003.86,934.72 2002.86,924.72 2004,914.5C 2006.61,908.382 2011.11,904.715 2017.5,903.5 Z"/></g>
<g><path style="opacity:0.936" fill="#000000" d="M 4285.5,998.5 C 4283.5,998.5 4281.5,998.5 4279.5,998.5C 4278.7,989.849 4278.03,981.183 4277.5,972.5C 4273.5,972.5 4269.5,972.5 4265.5,972.5C 4265.33,966.824 4265.5,961.157 4266,955.5C 4266.78,953.714 4267.95,952.214 4269.5,951C 4274.33,950.167 4277.17,947.333 4278,942.5C 4278.5,932.172 4278.67,921.839 4278.5,911.5C 4272.79,911.829 4267.13,911.495 4261.5,910.5C 4267.01,900.135 4272.51,889.802 4278,879.5C 4278.5,870.506 4278.67,861.506 4278.5,852.5C 4280.5,852.5 4282.5,852.5 4284.5,852.5C 4285.02,862.826 4285.35,873.159 4285.5,883.5C 4298.25,884.653 4305.25,878.987 4306.5,866.5C 4305.39,859.171 4305.39,851.837 4306.5,844.5C 4308.17,844.5 4309.83,844.5 4311.5,844.5C 4312.5,854.464 4313.16,864.464 4313.5,874.5C 4317.17,874.5 4320.83,874.5 4324.5,874.5C 4325.01,881.042 4324.18,887.376 4322,893.5C 4314.57,900.543 4311.73,909.209 4313.5,919.5C 4313.67,923.833 4313.83,928.167 4314,932.5C 4317.08,934.955 4320.24,937.289 4323.5,939.5C 4327.59,949.397 4324.76,956.397 4315,960.5C 4313.25,971.749 4312.08,983.083 4311.5,994.5C 4310.26,995.246 4308.93,995.579 4307.5,995.5C 4306.35,984.878 4305.68,974.211 4305.5,963.5C 4293.65,962.401 4286.65,967.568 4284.5,979C 4285.35,985.472 4285.69,991.972 4285.5,998.5 Z M 4303.5,902.5 C 4307,912.538 4307.83,922.871 4306,933.5C 4301.75,939.961 4295.75,943.627 4288,944.5C 4284.27,934.734 4283.27,924.734 4285,914.5C 4285.88,911.898 4287.38,909.731 4289.5,908C 4294.02,905.445 4298.68,903.612 4303.5,902.5 Z"/></g>
<g><path style="opacity:0.934" fill="#000000" d="M 1420.5,998.5 C 1418.5,998.5 1416.5,998.5 1414.5,998.5C 1413.75,989.854 1413.41,981.188 1413.5,972.5C 1409.47,972.505 1405.47,972.838 1401.5,973.5C 1401.31,967.112 1401.81,960.778 1403,954.5C 1407.28,952.553 1410.61,949.553 1413,945.5C 1413.83,934.485 1413.67,923.485 1412.5,912.5C 1408.91,911.574 1405.24,911.241 1401.5,911.5C 1401.33,905.824 1401.5,900.157 1402,894.5C 1404.97,892.205 1407.97,889.872 1411,887.5C 1412.75,884.166 1413.91,880.666 1414.5,877C 1413.41,868.894 1413.41,860.728 1414.5,852.5C 1415.93,852.579 1417.26,852.246 1418.5,851.5C 1419.25,852.376 1419.75,853.376 1420,854.5C 1420.57,864.167 1421.07,873.833 1421.5,883.5C 1432.29,885.039 1439.12,880.706 1442,870.5C 1442.31,864.126 1442.98,857.793 1444,851.5C 1444.47,849.221 1445.47,847.221 1447,845.5C 1448.17,855.136 1449,864.803 1449.5,874.5C 1453.5,874.5 1457.5,874.5 1461.5,874.5C 1461.05,880.893 1460.22,887.227 1459,893.5C 1454.31,895.526 1450.97,898.859 1449,903.5C 1448.17,913.849 1448.33,924.183 1449.5,934.5C 1453.07,935.681 1456.74,936.348 1460.5,936.5C 1460.67,942.176 1460.5,947.843 1460,953.5C 1458.33,957.165 1455.5,959.332 1451.5,960C 1450.87,960.75 1450.37,961.584 1450,962.5C 1448.63,973.111 1448.13,983.778 1448.5,994.5C 1446.5,994.5 1444.5,994.5 1442.5,994.5C 1442.05,984.171 1441.72,973.838 1441.5,963.5C 1436.78,964.008 1432.12,964.842 1427.5,966C 1422.89,968.39 1420.72,972.223 1421,977.5C 1420.5,984.492 1420.33,991.492 1420.5,998.5 Z M 1439.5,902.5 C 1441.42,913.619 1441.92,924.952 1441,936.5C 1440.17,939.333 1438.33,941.167 1435.5,942C 1431.23,943.075 1426.9,943.575 1422.5,943.5C 1421.17,936.391 1420.17,929.224 1419.5,922C 1419.27,915.131 1421.93,909.797 1427.5,906C 1431.54,904.509 1435.54,903.342 1439.5,902.5 Z"/></g>
<g><path style="opacity:0.933" fill="#000000" d="M 3693.5,998.5 C 3691.5,998.5 3689.5,998.5 3687.5,998.5C 3687.5,990.5 3687.5,982.5 3687.5,974.5C 3683.5,974.167 3679.5,973.833 3675.5,973.5C 3674.64,968.187 3674.47,962.854 3675,957.5C 3676.89,952.891 3680.22,949.891 3685,948.5C 3686.23,936.866 3686.73,925.2 3686.5,913.5C 3682.83,913.5 3679.17,913.5 3675.5,913.5C 3674.61,907.855 3674.45,902.188 3675,896.5C 3675.71,894.919 3676.54,893.419 3677.5,892C 3680.02,890.498 3682.52,888.998 3685,887.5C 3686.26,876.203 3686.76,864.869 3686.5,853.5C 3688.17,853.5 3689.83,853.5 3691.5,853.5C 3692.69,863.786 3693.35,874.119 3693.5,884.5C 3697.85,884.235 3702.19,883.735 3706.5,883C 3711.57,881.372 3714.07,877.872 3714,872.5C 3714.5,863.84 3714.67,855.173 3714.5,846.5C 3716.5,846.167 3718.5,845.833 3720.5,845.5C 3720.87,855.832 3721.21,866.165 3721.5,876.5C 3725.17,876.5 3728.83,876.5 3732.5,876.5C 3733.79,882.567 3733.62,888.567 3732,894.5C 3730.16,897.175 3727.66,899.008 3724.5,900C 3723.11,901.171 3722.27,902.671 3722,904.5C 3721.5,915.161 3721.33,925.828 3721.5,936.5C 3725.17,936.5 3728.83,936.5 3732.5,936.5C 3732.74,941.858 3732.9,947.191 3733,952.5C 3731.12,954.953 3728.79,956.953 3726,958.5C 3724.41,960.67 3723.08,963.004 3722,965.5C 3721.69,975.194 3721.02,984.86 3720,994.5C 3717.47,997.258 3715.97,996.925 3715.5,993.5C 3714.81,983.823 3713.98,974.156 3713,964.5C 3708.66,965.313 3704.33,966.313 3700,967.5C 3698.02,967.99 3696.35,968.99 3695,970.5C 3693.55,979.726 3693.05,989.06 3693.5,998.5 Z M 3707.5,904.5 C 3709.5,904.5 3711.5,904.5 3713.5,904.5C 3715.08,914.448 3715.58,924.448 3715,934.5C 3712.42,941.047 3707.58,944.547 3700.5,945C 3698.19,945.497 3695.86,945.663 3693.5,945.5C 3693.12,939.007 3692.79,932.507 3692.5,926C 3692.43,921.415 3692.93,916.915 3694,912.5C 3694.47,911.069 3695.3,909.903 3696.5,909C 3700.16,907.178 3703.82,905.678 3707.5,904.5 Z"/></g>
<g><path style="opacity:0.934" fill="#000000" d="M 3125.5,998.5 C 3123.5,998.5 3121.5,998.5 3119.5,998.5C 3118.87,988.163 3118.2,977.83 3117.5,967.5C 3111.28,967.852 3105.45,969.519 3100,972.5C 3099.33,973.833 3098.67,975.167 3098,976.5C 3097.5,983.826 3097.33,991.159 3097.5,998.5C 3095.5,998.5 3093.5,998.5 3091.5,998.5C 3091.5,991.167 3091.5,983.833 3091.5,976.5C 3087.5,976.5 3083.5,976.5 3079.5,976.5C 3078.19,970.102 3078.36,963.768 3080,957.5C 3082.69,954.669 3085.69,952.336 3089,950.5C 3090.3,938.873 3090.8,927.206 3090.5,915.5C 3086.83,915.5 3083.17,915.5 3079.5,915.5C 3078.7,909.848 3078.53,904.182 3079,898.5C 3079.78,896.714 3080.95,895.214 3082.5,894C 3085.14,893.104 3087.31,891.604 3089,889.5C 3090.32,878.544 3090.82,867.544 3090.5,856.5C 3092.5,856.5 3094.5,856.5 3096.5,856.5C 3096.5,866.833 3096.5,877.167 3096.5,887.5C 3103.45,887.455 3109.95,885.788 3116,882.5C 3116.97,880.608 3117.64,878.608 3118,876.5C 3118.5,867.173 3118.67,857.839 3118.5,848.5C 3120.5,848.5 3122.5,848.5 3124.5,848.5C 3124.79,858.174 3125.29,867.841 3126,877.5C 3129.4,878.54 3132.9,879.206 3136.5,879.5C 3137.44,884.805 3137.61,890.139 3137,895.5C 3134.9,899.431 3131.74,902.097 3127.5,903.5C 3126.9,904.795 3126.4,906.128 3126,907.5C 3125.5,918.161 3125.33,928.828 3125.5,939.5C 3129.17,939.5 3132.83,939.5 3136.5,939.5C 3137.27,944.82 3137.43,950.154 3137,955.5C 3135.11,960.109 3131.78,963.109 3127,964.5C 3125.59,975.77 3125.09,987.104 3125.5,998.5 Z M 3115.5,903.5 C 3119.36,914.866 3120.19,926.532 3118,938.5C 3112.99,945.348 3106.16,948.681 3097.5,948.5C 3096.03,938.461 3096.2,928.461 3098,918.5C 3098.79,916.413 3099.96,914.579 3101.5,913C 3106.41,910.058 3111.07,906.891 3115.5,903.5 Z"/></g>
<g><path style="opacity:0.955" fill="#000000" d="M 1348.5,998.5 C 1334.5,998.5 1320.5,998.5 1306.5,998.5C 1270.85,983.212 1256.01,956.212 1262,917.5C 1269.8,887.705 1288.96,870.538 1319.5,866C 1344.93,863.58 1365.77,872.08 1382,891.5C 1384.68,895.863 1386.52,900.53 1387.5,905.5C 1378.08,907.382 1369.08,906.215 1360.5,902C 1346.88,885.011 1329.88,880.678 1309.5,889C 1291.88,898.225 1283.21,912.892 1283.5,933C 1283.5,959.71 1296.5,975.71 1322.5,981C 1332.2,982.193 1341.2,980.193 1349.5,975C 1354.83,971 1360.17,967 1365.5,963C 1373.4,960.794 1381.4,959.461 1389.5,959C 1381.5,978.171 1367.83,991.338 1348.5,998.5 Z"/></g>
<g><path style="opacity:0.959" fill="#000000" d="M 3614.5,998.5 C 3600.83,998.5 3587.17,998.5 3573.5,998.5C 3539.63,986.134 3523.8,961.8 3526,925.5C 3533.04,887.629 3555.88,867.629 3594.5,865.5C 3615.75,865.712 3632.92,874.045 3646,890.5C 3648.64,894.92 3650.81,899.586 3652.5,904.5C 3643.12,907.564 3634.12,906.731 3625.5,902C 3611.51,885.718 3594.51,881.718 3574.5,890C 3557.56,899.366 3548.89,913.866 3548.5,933.5C 3551.26,965.429 3568.59,980.929 3600.5,980C 3619.55,976.12 3630.55,964.62 3633.5,945.5C 3619.5,944.482 3605.5,944.315 3591.5,945C 3588.67,944.167 3586.83,942.333 3586,939.5C 3585.42,935.797 3585.59,932.131 3586.5,928.5C 3610.17,928.5 3633.83,928.5 3657.5,928.5C 3659.44,962.155 3645.11,985.488 3614.5,998.5 Z"/></g>
<g><path style="opacity:0.964" fill="#000000" d="M 1913.5,998.5 C 1893.17,998.5 1872.83,998.5 1852.5,998.5C 1852.5,955.167 1852.5,911.833 1852.5,868.5C 1869.49,867.562 1886.49,867.395 1903.5,868C 1942.72,872.558 1963.39,894.558 1965.5,934C 1964.38,968.804 1947.05,990.304 1913.5,998.5 Z M 1888.5,885.5 C 1917.58,883.274 1935.41,896.274 1942,924.5C 1944.5,944.972 1938,961.805 1922.5,975C 1915.9,978.399 1908.9,980.399 1901.5,981C 1892.51,981.5 1883.51,981.666 1874.5,981.5C 1874.5,949.833 1874.5,918.167 1874.5,886.5C 1879.36,886.819 1884.03,886.486 1888.5,885.5 Z"/></g>
<g><path style="opacity:0.962" fill="#000000" d="M 4243.5,998.5 C 4236.5,998.5 4229.5,998.5 4222.5,998.5C 4219.78,995.938 4217.61,992.938 4216,989.5C 4215.04,985.044 4213.71,980.711 4212,976.5C 4209.31,974.101 4206.14,972.768 4202.5,972.5C 4192.51,973.701 4182.51,973.701 4172.5,972.5C 4164.96,972.023 4158.79,974.69 4154,980.5C 4151.19,986.453 4148.69,992.453 4146.5,998.5C 4139.17,998.5 4131.83,998.5 4124.5,998.5C 4139.36,955.744 4154.53,913.077 4170,870.5C 4174.28,868.002 4178.95,867.002 4184,867.5C 4190.03,866.39 4195.03,868.057 4199,872.5C 4213.94,914.486 4228.77,956.486 4243.5,998.5 Z M 4183.5,895.5 C 4190.74,914.546 4197.41,933.879 4203.5,953.5C 4190.16,953.667 4176.83,953.5 4163.5,953C 4170.47,933.927 4177.14,914.761 4183.5,895.5 Z"/></g>
<g><path style="opacity:0.961" fill="#000000" d="M 4819.5,998.5 C 4796.5,998.5 4773.5,998.5 4750.5,998.5C 4750.5,955.167 4750.5,911.833 4750.5,868.5C 4772.51,867.186 4794.51,867.353 4816.5,869C 4837.2,874.544 4846.37,888.044 4844,909.5C 4841.1,919.064 4835.27,926.23 4826.5,931C 4848.07,944.378 4852.91,962.212 4841,984.5C 4835.21,991.495 4828.04,996.162 4819.5,998.5 Z M 4774.5,886.5 C 4786.89,886.082 4799.23,886.582 4811.5,888C 4818.25,891.32 4821.58,896.82 4821.5,904.5C 4820.45,916.051 4814.12,921.884 4802.5,922C 4793.17,922.5 4783.84,922.666 4774.5,922.5C 4774.5,910.5 4774.5,898.5 4774.5,886.5 Z M 4774.5,940.5 C 4787.96,940.507 4801.29,941.674 4814.5,944C 4824.7,951.334 4827.2,960.834 4822,972.5C 4819.08,977.095 4814.91,979.595 4809.5,980C 4797.84,980.5 4786.17,980.667 4774.5,980.5C 4774.5,967.167 4774.5,953.833 4774.5,940.5 Z"/></g>
<g><path style="opacity:0.969" fill="#000000" d="M 810.5,998.5 C 788.5,998.5 766.5,998.5 744.5,998.5C 744.5,955.5 744.5,912.5 744.5,869.5C 756.998,869.184 769.498,868.851 782,868.5C 796.872,867.29 811.039,869.79 824.5,876C 836.695,887.722 838.861,901.222 831,916.5C 827.651,921.86 823.818,926.86 819.5,931.5C 825.865,936.698 831.365,942.698 836,949.5C 843.353,974.128 834.853,990.461 810.5,998.5 Z M 765.5,886.5 C 777.909,886.061 790.242,886.561 802.5,888C 812.09,893.162 815.256,900.996 812,911.5C 810.098,916.4 806.598,919.567 801.5,921C 789.547,922.365 777.547,922.865 765.5,922.5C 765.5,910.5 765.5,898.5 765.5,886.5 Z M 765.5,940.5 C 778.95,940.59 792.283,941.757 805.5,944C 812.823,947.47 816.49,953.303 816.5,961.5C 816.49,969.697 812.823,975.53 805.5,979C 792.276,981.826 778.943,982.326 765.5,980.5C 765.5,967.167 765.5,953.833 765.5,940.5 Z"/></g>
<g><path style="opacity:0.957" fill="#000000" d="M 2509.5,998.5 C 2485.17,998.5 2460.83,998.5 2436.5,998.5C 2436.5,955.167 2436.5,911.833 2436.5,868.5C 2460.5,868.5 2484.5,868.5 2508.5,868.5C 2508.5,874.167 2508.5,879.833 2508.5,885.5C 2492.17,885.5 2475.83,885.5 2459.5,885.5C 2459.5,897.833 2459.5,910.167 2459.5,922.5C 2473.83,922.5 2488.17,922.5 2502.5,922.5C 2503.37,928.789 2503.71,935.122 2503.5,941.5C 2488.83,941.5 2474.17,941.5 2459.5,941.5C 2459.5,954.833 2459.5,968.167 2459.5,981.5C 2475.83,981.5 2492.17,981.5 2508.5,981.5C 2509.03,987.152 2509.37,992.819 2509.5,998.5 Z"/></g>
<g><path style="opacity:0.956" fill="#000000" d="M 3009.5,998.5 C 3002.17,998.5 2994.83,998.5 2987.5,998.5C 2987.5,956.167 2987.5,913.833 2987.5,871.5C 3013.17,871.5 3038.83,871.5 3064.5,871.5C 3064.5,877.167 3064.5,882.833 3064.5,888.5C 3046.17,888.5 3027.83,888.5 3009.5,888.5C 3009.5,901.167 3009.5,913.833 3009.5,926.5C 3023.5,926.5 3037.5,926.5 3051.5,926.5C 3051.5,932.5 3051.5,938.5 3051.5,944.5C 3037.5,944.5 3023.5,944.5 3009.5,944.5C 3009.5,962.5 3009.5,980.5 3009.5,998.5 Z"/></g>
</svg>
