<?xml version="1.0" encoding="utf-8"?>
<!-- Generator: Adobe Illustrator 26.0.2, SVG Export Plug-In . SVG Version: 6.00 Build 0)  -->
<svg version="1.1" id="Layer_1" xmlns="http://www.w3.org/2000/svg" xmlns:xlink="http://www.w3.org/1999/xlink" x="0px" y="0px"
	 viewBox="0 0 641 195" style="enable-background:new 0 0 641 195;" xml:space="preserve">
<style type="text/css">
	.st0{fill:none;stroke:#000000;stroke-width:0.5;stroke-miterlimit:10;}
	.st1{fill:none;stroke:#7C287D;stroke-width:1.5;stroke-miterlimit:10;}
	.st2{fill:none;stroke:#67BF75;stroke-miterlimit:10;}
</style>
<line id="XMLID_1544_" class="st0" x1="139.6" y1="122.4" x2="170.2" y2="122.4"/>
<line id="XMLID_1543_" class="st0" x1="107.7" y1="122.4" x2="138.4" y2="122.4"/>
<line id="XMLID_1542_" class="st0" x1="600.3" y1="122.4" x2="630.9" y2="122.4"/>
<line id="XMLID_1541_" class="st0" x1="568.4" y1="122.4" x2="599.1" y2="122.4"/>
<g id="XMLID_1535_">
	<line id="XMLID_1540_" class="st0" x1="0" y1="40.5" x2="641" y2="40.5"/>
	<line id="XMLID_1539_" class="st0" x1="-0.2" y1="20.3" x2="640.8" y2="20.3"/>
	<line id="XMLID_1538_" class="st0" x1="0" y1="60.8" x2="641" y2="60.8"/>
	<line id="XMLID_1537_" class="st0" x1="0" y1="81.2" x2="641" y2="81.2"/>
	<line id="XMLID_1536_" class="st0" x1="0" y1="101.5" x2="641" y2="101.5"/>
</g>
<line id="XMLID_1534_" class="st0" x1="145" y1="184" x2="145" y2="122.1"/>
<circle id="XMLID_1531_" class="st1" cx="155" cy="122.1" r="10.2"/>
<line id="XMLID_1530_" class="st0" x1="113.1" y1="194.1" x2="113.1" y2="132.3"/>
<circle id="XMLID_1527_" class="st1" cx="123" cy="132.3" r="10.2"/>
<line id="XMLID_1526_" class="st0" x1="177" y1="173.6" x2="177" y2="111.8"/>
<circle id="XMLID_1523_" class="st1" cx="186.9" cy="111.8" r="10.2"/>
<line id="XMLID_1522_" class="st0" x1="208.9" y1="163.5" x2="208.9" y2="101.6"/>
<circle id="XMLID_1519_" class="st1" cx="218.8" cy="101.6" r="10.2"/>
<line id="XMLID_1518_" class="st0" x1="240.8" y1="153.1" x2="240.8" y2="91.2"/>
<circle id="XMLID_1515_" class="st1" cx="250.7" cy="91.2" r="10.2"/>
<line id="XMLID_1514_" class="st0" x1="272.8" y1="143.2" x2="272.8" y2="81.3"/>
<circle id="XMLID_1511_" class="st1" cx="282.7" cy="81.3" r="10.2"/>
<line id="XMLID_1510_" class="st0" x1="304.7" y1="133.1" x2="304.7" y2="71.3"/>
<circle id="XMLID_1507_" class="st1" cx="314.6" cy="71.3" r="10.2"/>
<line id="XMLID_1506_" class="st0" x1="336.6" y1="122.9" x2="336.6" y2="61.1"/>
<circle id="XMLID_1503_" class="st1" cx="346.5" cy="61.1" r="10.2"/>
<line id="XMLID_1502_" class="st0" x1="413.8" y1="134.6" x2="413.8" y2="72.8"/>
<circle id="XMLID_1499_" class="st1" cx="423.7" cy="71.1" r="10.2"/>
<line id="XMLID_1498_" class="st0" x1="381.9" y1="122.8" x2="381.9" y2="61"/>
<circle id="XMLID_1495_" class="st1" cx="391.8" cy="61" r="10.2"/>
<line id="XMLID_1494_" class="st0" x1="445.8" y1="143.6" x2="445.8" y2="81.7"/>
<circle id="XMLID_1491_" class="st1" cx="455.7" cy="81.7" r="10.2"/>
<line id="XMLID_1490_" class="st0" x1="477.7" y1="153.9" x2="477.7" y2="92.1"/>
<circle id="XMLID_1487_" class="st1" cx="487.6" cy="92.1" r="10.2"/>
<line id="XMLID_1486_" class="st0" x1="509.6" y1="163.5" x2="509.6" y2="101.6"/>
<circle id="XMLID_1483_" class="st1" cx="519.5" cy="101.6" r="10.2"/>
<line id="XMLID_1482_" class="st0" x1="541.5" y1="174.5" x2="541.5" y2="112.6"/>
<circle id="XMLID_1479_" class="st1" cx="551.5" cy="112.6" r="10.2"/>
<line id="XMLID_1478_" class="st0" x1="573.5" y1="183.8" x2="573.5" y2="122"/>
<circle id="XMLID_1475_" class="st1" cx="583.4" cy="122" r="10.2"/>
<line id="XMLID_1474_" class="st0" x1="605.4" y1="195" x2="605.4" y2="133.1"/>
<circle id="XMLID_1471_" class="st1" cx="615.3" cy="133.1" r="10.2"/>
<g id="XMLID_2292_">
	<path id="XMLID_2293_" d="M120.5,127.4c0.6-0.1,1.5-0.2,2.4-0.2c1.3,0,2.1,0.2,2.8,0.7c0.5,0.4,0.9,1,0.9,1.8c0,1-0.7,1.8-1.7,2.2
		v0c1,0.2,2.1,1,2.1,2.5c0,0.9-0.3,1.5-0.9,2c-0.7,0.6-1.8,0.9-3.5,0.9c-0.9,0-1.6-0.1-2-0.1V127.4z M121.8,131.5h1.2
		c1.4,0,2.2-0.7,2.2-1.7c0-1.2-0.9-1.7-2.2-1.7c-0.6,0-0.9,0-1.2,0.1V131.5z M121.8,136.3c0.3,0,0.6,0.1,1.1,0.1
		c1.3,0,2.6-0.5,2.6-2c0-1.4-1.2-2-2.6-2h-1.1V136.3z"/>
</g>
<g id="XMLID_2287_">
	<path id="XMLID_2288_" d="M612.1,128.5c0.6-0.1,1.5-0.2,2.4-0.2c1.3,0,2.1,0.2,2.8,0.7c0.5,0.4,0.9,1,0.9,1.8c0,1-0.7,1.8-1.7,2.2
		v0c1,0.2,2.1,1,2.1,2.5c0,0.9-0.3,1.5-0.9,2c-0.7,0.6-1.8,0.9-3.5,0.9c-0.9,0-1.6-0.1-2-0.1V128.5z M613.4,132.6h1.2
		c1.4,0,2.2-0.7,2.2-1.7c0-1.2-0.9-1.7-2.2-1.7c-0.6,0-0.9,0-1.2,0.1V132.6z M613.4,137.5c0.3,0,0.6,0.1,1.1,0.1
		c1.3,0,2.6-0.5,2.6-2c0-1.4-1.2-2-2.6-2h-1.1V137.5z"/>
</g>
<g id="XMLID_2284_">
	<path id="XMLID_2285_" d="M156.5,126.5c-0.5,0.2-1.4,0.5-2.7,0.5c-2.8,0-5-1.8-5-5.1c0-3.2,2.1-5.3,5.3-5.3c1.2,0,2.1,0.3,2.4,0.5
		l-0.3,1.1c-0.5-0.2-1.2-0.4-2-0.4c-2.4,0-3.9,1.5-3.9,4.2c0,2.5,1.4,4.1,3.9,4.1c0.8,0,1.6-0.2,2.1-0.4L156.5,126.5z"/>
</g>
<g id="XMLID_2281_">
	<path id="XMLID_2282_" d="M585.1,126.1c-0.5,0.2-1.4,0.5-2.7,0.5c-2.8,0-5-1.8-5-5.1c0-3.2,2.1-5.3,5.3-5.3c1.2,0,2.1,0.3,2.4,0.5
		l-0.3,1.1c-0.5-0.2-1.2-0.4-2-0.4c-2.4,0-3.9,1.5-3.9,4.2c0,2.5,1.4,4.1,3.9,4.1c0.8,0,1.6-0.2,2.1-0.4L585.1,126.1z"/>
</g>
<g id="XMLID_2277_">
	<path id="XMLID_2278_" d="M181.1,106.7c0.8-0.1,1.7-0.2,2.8-0.2c1.9,0,3.2,0.5,4.1,1.3c0.9,0.8,1.4,2,1.4,3.6c0,1.6-0.5,3-1.5,3.9
		c-1,0.9-2.5,1.5-4.5,1.5c-0.9,0-1.7,0-2.4-0.1V106.7z M182.4,115.6c0.3,0,0.8,0.1,1.3,0.1c2.8,0,4.3-1.6,4.3-4.3
		c0-2.4-1.3-3.9-4.1-3.9c-0.7,0-1.2,0.1-1.5,0.1V115.6z"/>
</g>
<g id="XMLID_2273_">
	<path id="XMLID_2274_" d="M545,107.6c0.8-0.1,1.7-0.2,2.8-0.2c1.9,0,3.2,0.5,4.1,1.3c0.9,0.8,1.4,2,1.4,3.6c0,1.7-0.5,3-1.5,3.9
		c-1,0.9-2.5,1.5-4.5,1.5c-0.9,0-1.7,0-2.4-0.1V107.6z M546.3,116.6c0.3,0,0.8,0.1,1.3,0.1c2.8,0,4.3-1.6,4.3-4.3
		c0-2.4-1.3-3.9-4.1-3.9c-0.7,0-1.2,0.1-1.5,0.1V116.6z"/>
</g>
<g id="XMLID_2270_">
	<path id="XMLID_2271_" d="M218.8,101.6h-3.9v3.6h4.4v1.1h-5.7V96.2h5.5v1.1h-4.2v3.2h3.9V101.6z"/>
</g>
<g id="XMLID_2267_">
	<path id="XMLID_2268_" d="M522.3,101.6h-3.9v3.6h4.4v1.1h-5.7V96.2h5.5v1.1h-4.2v3.2h3.9V101.6z"/>
</g>
<g id="XMLID_2264_">
	<path id="XMLID_2265_" d="M246.3,86.2h5.4v1.1h-4.1v3.4h3.8v1.1h-3.8v4.6h-1.3V86.2z"/>
</g>
<g id="XMLID_2261_">
	<path id="XMLID_2262_" d="M482.4,86.8h5.4v1.1h-4.1v3.4h3.8v1.1h-3.8v4.6h-1.3V86.8z"/>
</g>
<g id="XMLID_2258_">
	<path id="XMLID_2259_" d="M283.9,85.9c-0.6,0.2-1.8,0.6-3.1,0.6c-1.5,0-2.8-0.4-3.8-1.3c-0.9-0.8-1.4-2.2-1.4-3.8
		c0-3,2.1-5.2,5.5-5.2c1.2,0,2.1,0.3,2.5,0.5l-0.3,1.1c-0.5-0.3-1.2-0.4-2.2-0.4c-2.5,0-4.1,1.5-4.1,4.1c0,2.6,1.5,4.1,3.9,4.1
		c0.9,0,1.4-0.1,1.7-0.3v-3h-2v-1h3.3V85.9z"/>
</g>
<g id="XMLID_2255_">
	<path id="XMLID_2256_" d="M457.4,85.9c-0.6,0.2-1.8,0.6-3.1,0.6c-1.5,0-2.8-0.4-3.8-1.3c-0.9-0.8-1.4-2.2-1.4-3.8
		c0-3,2.1-5.2,5.5-5.2c1.2,0,2.1,0.3,2.5,0.5l-0.3,1.1c-0.5-0.3-1.2-0.4-2.2-0.4c-2.5,0-4.1,1.5-4.1,4.1c0,2.6,1.5,4.1,3.9,4.1
		c0.9,0,1.4-0.1,1.7-0.3v-3h-2v-1h3.3V85.9z"/>
</g>
<g id="XMLID_2251_">
	<path id="XMLID_2252_" d="M310.3,73.1l-1,3.2h-1.3l3.4-10.1h1.6l3.4,10.1h-1.4l-1.1-3.2H310.3z M313.6,72.1l-1-2.9
		c-0.2-0.7-0.4-1.3-0.5-1.8h0c-0.2,0.6-0.3,1.2-0.5,1.8l-1,2.9H313.6z"/>
</g>
<g id="XMLID_2247_">
	<path id="XMLID_2248_" d="M419.6,73.8l-1,3.2h-1.4l3.5-10.1h1.6l3.5,10.1h-1.4l-1.1-3.2H419.6z M423,72.8l-1-2.9
		c-0.2-0.7-0.4-1.3-0.5-1.8h0c-0.1,0.6-0.3,1.2-0.5,1.8l-1,2.9H423z"/>
</g>
<g id="XMLID_2242_">
	<path id="XMLID_2243_" d="M343.5,56.5c0.6-0.1,1.5-0.2,2.4-0.2c1.3,0,2.1,0.2,2.8,0.7c0.5,0.4,0.9,1,0.9,1.8c0,1-0.7,1.8-1.7,2.2v0
		c1,0.2,2.1,1,2.1,2.5c0,0.9-0.3,1.5-0.9,2c-0.7,0.6-1.8,0.9-3.5,0.9c-0.9,0-1.6-0.1-2-0.1V56.5z M344.8,60.6h1.2
		c1.4,0,2.2-0.7,2.2-1.7c0-1.2-0.9-1.6-2.2-1.6c-0.6,0-0.9,0-1.2,0.1V60.6z M344.8,65.4c0.3,0,0.6,0.1,1.1,0.1c1.3,0,2.6-0.5,2.6-2
		c0-1.4-1.2-1.9-2.6-1.9h-1.1V65.4z"/>
</g>
<g id="XMLID_1450_">
	<path id="XMLID_1451_" d="M47.5,101.3c-2.1,0.7-4.3,1-6.5,1.1c-5.8,0.1-11.2-1.5-15.8-5c-4.9-3.7-7.5-8.7-8.7-14.6
		c-1.1-5.7,0-11.1,2.4-16.3c2.1-4.5,5-8.5,8.2-12.2c0.7-0.8,1.4-1.5,2.1-2.3c0.3-0.3,0.3-0.5,0.2-0.9c-0.8-2.8-1.8-5.5-2.4-8.3
		c-1.3-5.6-1.5-11.3,0.3-16.9c2.1-6.4,6-11.2,12.5-13.5c0.8-0.3,1.6-0.5,2.4-0.6c1.7-0.1,3.2,0.6,4.5,1.6c2.7,2.1,4,5,4.2,8.3
		c0.3,5.1-1.4,9.7-3.8,14.2c-2.3,4.3-5.4,8.2-8.6,11.9c-1.1,1.3-2.1,2.5-3.2,3.7c-0.3,0.4-0.1,0.6,0,0.9c2,3.9,3.9,7.8,5.9,11.6
		c1-0.2,2-0.5,3.1-0.7c3.1-0.6,6.1,0,8.9,1.4c5.5,2.9,8.8,7.5,9.8,13.7c0.8,5-0.6,9.6-3.4,13.7c-1.8,2.7-4.1,4.9-6.8,6.6
		c-0.4,0.3-0.5,0.5-0.4,1c0.5,3.1,1.1,6.1,1.6,9.2c0.5,3.4,0.7,6.8-0.4,10.1c-1.4,4.5-4.6,7.1-9,8.3c-5.7,1.5-10.9,0.3-15.5-3.2
		c-3.9-2.9-6.5-6.6-7.6-11.4c-0.1-0.6-0.2-1.3-0.3-1.9c0-0.3,0-0.6,0-0.9c1.3,6.7,5,11.5,11.1,14.3c4.3,2,8.7,2.1,13-0.1
		c3.3-1.7,5-4.5,5.1-8.2c0.1-3.3-0.8-6.4-1.5-9.6c-0.4-1.5-0.8-2.9-1.2-4.4C47.7,101.7,47.6,101.5,47.5,101.3z M46,96
		c-2.5-9.1-6.5-17.6-9.3-26.6c-2.5,2.7-3.5,5.7-2.7,9.1c1,4.3,3.6,7.2,7.9,8.4c-0.3,0-0.5,0-0.8-0.1c-4.8-1.1-8.4-5.9-8.5-10.9
		c0-2.9,1-5.4,2.9-7.5c0.4-0.4,0.4-0.7,0.2-1.2c-0.6-1.6-1.2-3.1-1.9-4.7c-0.8-2-1.6-3.9-2.5-6c-0.8,1.1-1.6,2.1-2.3,3.1
		c-2.4,3.4-4.5,7.1-5.8,11.1c-1,3.3-1.3,6.6-0.7,10c0.8,4,2.9,7.4,5.7,10.3C33.2,95.8,39.2,97.2,46,96z M33.3,47.8
		c1.5-1.5,2.9-3,4.2-4.4c2.7-2.9,5.3-5.9,7.4-9.3c2.2-3.6,3.9-7.3,4.1-11.6c0.1-3.2-0.8-6-3.3-8.1c-1.4-1.2-2.9-1.8-4.9-1
		c-4.2,1.8-7.2,4.7-9.2,8.8c-2,4.2-2.4,8.6-1.9,13.1C30.2,39.6,31.5,43.7,33.3,47.8z M51.3,93.7c2.7-1.8,4.7-3.9,6.2-6.6
		c1.5-2.8,2.2-5.7,1.8-8.9c-0.4-3.3-1.9-6.2-4.2-8.6c-2.8-2.9-6.1-4.4-10.2-4.1c-0.9,0.1-1.7,0.3-2.8,0.5
		C46.8,74.8,49,84.2,51.3,93.7z"/>
</g>
<g id="XMLID_2237_">
	<path id="XMLID_2238_" d="M388.8,56.5c0.6-0.1,1.5-0.2,2.4-0.2c1.3,0,2.1,0.2,2.8,0.7c0.5,0.4,0.9,1,0.9,1.8c0,1-0.7,1.8-1.7,2.2v0
		c1,0.2,2.1,1,2.1,2.5c0,0.9-0.3,1.5-0.9,2c-0.7,0.6-1.8,0.9-3.5,0.9c-0.9,0-1.6-0.1-2-0.1V56.5z M390.1,60.6h1.2
		c1.4,0,2.2-0.7,2.2-1.7c0-1.2-0.9-1.6-2.2-1.6c-0.6,0-0.9,0-1.2,0.1V60.6z M390.1,65.4c0.3,0,0.6,0.1,1.1,0.1c1.3,0,2.6-0.5,2.6-2
		c0-1.4-1.2-1.9-2.6-1.9h-1.1V65.4z"/>
</g>
<g id="XMLID_1548_">
	<g id="XMLID_1604_">
		<path id="XMLID_1605_" d="M64.2,48.7c-0.4,0.1-0.9,0.1-1.4,0.2c0-2.2,0-4.5,0-6.7c-1.6,0.5-3.1,0.9-4.7,1.3c0-1.3,0-2.6,0-3.9
			c0-0.1,0.2-0.3,0.4-0.3c1.2-0.4,2.5-0.7,3.7-1.1c0.2,0,0.3-0.1,0.5-0.2c0-2.1,0-4.2,0-6.3c-1.6,0.4-3.1,0.9-4.6,1.3
			c0-1.4,0-2.7,0-4.1c0.6-0.2,1.3-0.4,1.9-0.6c0.8-0.2,1.5-0.5,2.3-0.6c0.4-0.1,0.5-0.3,0.5-0.6c0-1.8,0-3.7,0-5.5
			c0-0.2,0-0.4,0-0.7c0.5-0.1,0.9-0.1,1.4-0.2c0,2.1,0,4.2,0,6.4c0.8-0.2,1.5-0.4,2.2-0.6c0.8-0.2,1.7-0.5,2.5-0.7
			c0.3-0.1,0.4-0.2,0.4-0.6c0-1.9,0-3.7,0-5.6c0-0.5,0.1-0.8,0.7-0.7c0.2,0,0.4-0.1,0.7-0.1c0,2.2,0,4.3,0,6.5
			c1.6-0.4,3.1-0.9,4.7-1.3c0,1.4,0,2.6,0,3.9c0,0.1-0.3,0.3-0.4,0.3c-1.4,0.4-2.8,0.8-4.2,1.2c0,2.1,0,4.2,0,6.3
			c1.5-0.4,3-0.9,4.6-1.3c0,1.4,0,2.7,0,4.1c-1.3,0.4-2.7,0.8-4,1.1c-0.5,0.1-0.6,0.3-0.6,0.8c0,2.1,0,4.1,0,6.3
			c-0.5,0.1-0.9,0.1-1.4,0.2c0-2.2,0-4.4,0-6.7c-1.1,0.3-2.2,0.6-3.2,0.9c-0.2,0-0.4,0.1-0.5,0.2c-1.3,0.4-1.3,0.4-1.3,1.8
			c0,1.7,0,3.3,0,5C64.3,48.3,64.2,48.5,64.2,48.7z M64.3,37.6c1.7-0.5,3.2-0.9,4.8-1.4c0.1,0,0.3-0.3,0.3-0.5c0-1.3,0-2.7,0-4
			c0-0.6,0-1.2,0-1.9c-1.6,0.4-3.1,0.9-4.6,1.3c-0.4,0.1-0.4,0.3-0.4,0.6c0,1.6,0,3.3,0,4.9C64.3,37,64.3,37.3,64.3,37.6z"/>
	</g>
	<g id="XMLID_1549_">
		<path id="XMLID_1550_" d="M79.1,70c-0.4,0.1-0.9,0.1-1.4,0.2c0-2.2,0-4.5,0-6.7c-1.6,0.5-3.1,0.9-4.7,1.3c0-1.3,0-2.6,0-3.9
			c0-0.1,0.2-0.3,0.4-0.3c1.2-0.4,2.5-0.7,3.7-1.1c0.2,0,0.3-0.1,0.5-0.2c0-2.1,0-4.2,0-6.3c-1.6,0.4-3.1,0.9-4.6,1.3
			c0-1.4,0-2.7,0-4.1c0.6-0.2,1.3-0.4,1.9-0.6c0.8-0.2,1.5-0.5,2.3-0.6c0.4-0.1,0.5-0.3,0.5-0.6c0-1.8,0-3.7,0-5.5
			c0-0.2,0-0.4,0-0.7c0.5-0.1,0.9-0.1,1.4-0.2c0,2.1,0,4.2,0,6.4c0.8-0.2,1.5-0.4,2.2-0.6c0.8-0.2,1.7-0.5,2.5-0.7
			c0.3-0.1,0.4-0.2,0.4-0.6c0-1.9,0-3.7,0-5.6c0-0.5,0.1-0.8,0.7-0.7c0.2,0,0.4-0.1,0.7-0.1c0,2.2,0,4.3,0,6.5
			c1.6-0.4,3.1-0.9,4.7-1.3c0,1.4,0,2.6,0,3.9c0,0.1-0.3,0.3-0.4,0.3c-1.4,0.4-2.8,0.8-4.2,1.2c0,2.1,0,4.2,0,6.3
			c1.5-0.4,3-0.9,4.6-1.3c0,1.4,0,2.7,0,4.1c-1.3,0.4-2.7,0.8-4,1.1c-0.5,0.1-0.6,0.3-0.6,0.8c0,2.1,0,4.1,0,6.3
			c-0.5,0.1-0.9,0.1-1.4,0.2c0-2.2,0-4.4,0-6.7c-1.1,0.3-2.2,0.6-3.2,0.9c-0.2,0-0.4,0.1-0.5,0.2c-1.3,0.4-1.3,0.4-1.3,1.8
			c0,1.7,0,3.3,0,5C79.2,69.6,79.1,69.8,79.1,70z M79.2,58.9c1.7-0.5,3.2-0.9,4.8-1.4c0.1,0,0.3-0.3,0.3-0.5c0-1.3,0-2.7,0-4
			c0-0.6,0-1.2,0-1.9c-1.6,0.4-3.1,0.9-4.6,1.3c-0.4,0.1-0.4,0.3-0.4,0.6c0,1.6,0,3.3,0,4.9C79.2,58.3,79.2,58.6,79.2,58.9z"/>
	</g>
</g>
<g id="XMLID_1449_">
	<path id="XMLID_1545_" d="M90.3,40.7c-0.4,0.1-0.9,0.1-1.4,0.2c0-2.2,0-4.5,0-6.7c-1.6,0.5-3.1,0.9-4.7,1.3c0-1.3,0-2.6,0-3.9
		c0-0.1,0.2-0.3,0.4-0.3c1.2-0.4,2.5-0.7,3.7-1.1c0.2,0,0.3-0.1,0.5-0.2c0-2.1,0-4.2,0-6.3c-1.6,0.4-3.1,0.9-4.6,1.3
		c0-1.4,0-2.7,0-4.1c0.6-0.2,1.3-0.4,1.9-0.6c0.8-0.2,1.5-0.5,2.3-0.6c0.4-0.1,0.5-0.3,0.5-0.6c0-1.8,0-3.7,0-5.5c0-0.2,0-0.4,0-0.7
		c0.5-0.1,0.9-0.1,1.4-0.2c0,2.1,0,4.2,0,6.4c0.8-0.2,1.5-0.4,2.2-0.6c0.8-0.2,1.7-0.5,2.5-0.7c0.3-0.1,0.4-0.2,0.4-0.6
		c0-1.9,0-3.7,0-5.6c0-0.5,0.1-0.8,0.7-0.7c0.2,0,0.4-0.1,0.7-0.1c0,2.2,0,4.3,0,6.5c1.6-0.4,3.1-0.9,4.7-1.3c0,1.4,0,2.6,0,3.9
		c0,0.1-0.3,0.3-0.4,0.3c-1.4,0.4-2.8,0.8-4.2,1.2c0,2.1,0,4.2,0,6.3c1.5-0.4,3-0.9,4.6-1.3c0,1.4,0,2.7,0,4.1
		c-1.3,0.4-2.7,0.8-4,1.1c-0.5,0.1-0.6,0.3-0.6,0.8c0,2.1,0,4.1,0,6.3c-0.5,0.1-0.9,0.1-1.4,0.2c0-2.2,0-4.4,0-6.7
		c-1.1,0.3-2.2,0.6-3.2,0.9c-0.2,0-0.4,0.1-0.5,0.2c-1.3,0.4-1.3,0.4-1.3,1.8c0,1.7,0,3.3,0,5C90.3,40.3,90.3,40.5,90.3,40.7z
		 M90.3,29.6c1.7-0.5,3.2-0.9,4.8-1.4c0.1,0,0.3-0.3,0.3-0.5c0-1.3,0-2.7,0-4c0-0.6,0-1.2,0-1.9c-1.6,0.4-3.1,0.9-4.6,1.3
		c-0.4,0.1-0.4,0.3-0.4,0.6c0,1.6,0,3.3,0,4.9C90.3,29,90.3,29.3,90.3,29.6z"/>
</g>
<g id="XMLID_1445_">
	<path id="XMLID_1446_" d="M105.2,62c-0.4,0.1-0.9,0.1-1.4,0.2c0-2.2,0-4.5,0-6.7c-1.6,0.5-3.1,0.9-4.7,1.3c0-1.3,0-2.6,0-3.9
		c0-0.1,0.2-0.3,0.4-0.3c1.2-0.4,2.5-0.7,3.7-1.1c0.2,0,0.3-0.1,0.5-0.2c0-2.1,0-4.2,0-6.3c-1.6,0.4-3.1,0.9-4.6,1.3
		c0-1.4,0-2.7,0-4.1c0.6-0.2,1.3-0.4,1.9-0.6c0.8-0.2,1.5-0.5,2.3-0.6c0.4-0.1,0.5-0.3,0.5-0.6c0-1.8,0-3.7,0-5.5c0-0.2,0-0.4,0-0.7
		c0.5-0.1,0.9-0.1,1.4-0.2c0,2.1,0,4.2,0,6.4c0.8-0.2,1.5-0.4,2.2-0.6c0.8-0.2,1.7-0.5,2.5-0.7c0.3-0.1,0.4-0.2,0.4-0.6
		c0-1.9,0-3.7,0-5.6c0-0.5,0.1-0.8,0.7-0.7c0.2,0,0.4-0.1,0.7-0.1c0,2.2,0,4.3,0,6.5c1.6-0.4,3.1-0.9,4.7-1.3c0,1.4,0,2.6,0,3.9
		c0,0.1-0.3,0.3-0.4,0.3c-1.4,0.4-2.8,0.8-4.2,1.2c0,2.1,0,4.2,0,6.3c1.5-0.4,3-0.9,4.6-1.3c0,1.4,0,2.7,0,4.1
		c-1.3,0.4-2.7,0.8-4,1.1c-0.5,0.1-0.6,0.3-0.6,0.8c0,2.1,0,4.1,0,6.3c-0.5,0.1-0.9,0.1-1.4,0.2c0-2.2,0-4.4,0-6.7
		c-1.1,0.3-2.2,0.6-3.2,0.9c-0.2,0-0.4,0.1-0.5,0.2c-1.3,0.4-1.3,0.4-1.3,1.8c0,1.7,0,3.3,0,5C105.2,61.6,105.2,61.8,105.2,62z
		 M105.2,50.9c1.7-0.5,3.2-0.9,4.8-1.4c0.1,0,0.3-0.3,0.3-0.5c0-1.3,0-2.7,0-4c0-0.6,0-1.2,0-1.9c-1.6,0.4-3.1,0.9-4.6,1.3
		c-0.4,0.1-0.4,0.3-0.4,0.6c0,1.6,0,3.3,0,4.9C105.2,50.3,105.2,50.6,105.2,50.9z"/>
</g>
<g id="XMLID_1622_">
	<path id="XMLID_1623_" d="M159,125.3c-0.1,0-0.3,0-0.4,0.1c0-0.7,0-1.3,0-2c-0.5,0.1-0.9,0.3-1.4,0.4c0-0.4,0-0.8,0-1.1
		c0,0,0.1-0.1,0.1-0.1c0.4-0.1,0.7-0.2,1.1-0.3c0.1,0,0.1,0,0.2,0c0-0.6,0-1.2,0-1.9c-0.5,0.1-0.9,0.3-1.4,0.4c0-0.4,0-0.8,0-1.2
		c0.2-0.1,0.4-0.1,0.6-0.2c0.2-0.1,0.4-0.1,0.7-0.2c0.1,0,0.1-0.1,0.1-0.2c0-0.5,0-1.1,0-1.6c0-0.1,0-0.1,0-0.2c0.1,0,0.3,0,0.4-0.1
		c0,0.6,0,1.2,0,1.9c0.2-0.1,0.4-0.1,0.6-0.2c0.2-0.1,0.5-0.1,0.7-0.2c0.1,0,0.1-0.1,0.1-0.2c0-0.5,0-1.1,0-1.6c0-0.1,0-0.2,0.2-0.2
		c0.1,0,0.1,0,0.2,0c0,0.6,0,1.3,0,1.9c0.5-0.1,0.9-0.3,1.4-0.4c0,0.4,0,0.8,0,1.2c0,0-0.1,0.1-0.1,0.1c-0.4,0.1-0.8,0.2-1.2,0.4
		c0,0.6,0,1.2,0,1.9c0.4-0.1,0.9-0.3,1.3-0.4c0,0.4,0,0.8,0,1.2c-0.4,0.1-0.8,0.2-1.2,0.3c-0.1,0-0.2,0.1-0.2,0.2c0,0.6,0,1.2,0,1.8
		c-0.1,0-0.3,0-0.4,0.1c0-0.7,0-1.3,0-2c-0.3,0.1-0.6,0.2-0.9,0.3c-0.1,0-0.1,0-0.2,0c-0.4,0.1-0.4,0.1-0.4,0.5c0,0.5,0,1,0,1.5
		C159,125.2,159,125.2,159,125.3z M159,122c0.5-0.1,0.9-0.3,1.4-0.4c0,0,0.1-0.1,0.1-0.1c0-0.4,0-0.8,0-1.2c0-0.2,0-0.4,0-0.6
		c-0.5,0.1-0.9,0.3-1.4,0.4c-0.1,0-0.1,0.1-0.1,0.2c0,0.5,0,1,0,1.4C159,121.8,159,121.9,159,122z"/>
</g>
<g id="XMLID_1626_">
	<path id="XMLID_1627_" d="M192,116.3c-0.1,0-0.3,0-0.4,0.1c0-0.7,0-1.3,0-2c-0.5,0.1-0.9,0.3-1.4,0.4c0-0.4,0-0.8,0-1.1
		c0,0,0.1-0.1,0.1-0.1c0.4-0.1,0.7-0.2,1.1-0.3c0.1,0,0.1,0,0.2,0c0-0.6,0-1.2,0-1.9c-0.5,0.1-0.9,0.3-1.4,0.4c0-0.4,0-0.8,0-1.2
		c0.2-0.1,0.4-0.1,0.6-0.2c0.2-0.1,0.4-0.1,0.7-0.2c0.1,0,0.1-0.1,0.1-0.2c0-0.5,0-1.1,0-1.6c0-0.1,0-0.1,0-0.2c0.1,0,0.3,0,0.4-0.1
		c0,0.6,0,1.2,0,1.9c0.2-0.1,0.4-0.1,0.6-0.2c0.2-0.1,0.5-0.1,0.7-0.2c0.1,0,0.1-0.1,0.1-0.2c0-0.5,0-1.1,0-1.6c0-0.1,0-0.2,0.2-0.2
		c0.1,0,0.1,0,0.2,0c0,0.6,0,1.3,0,1.9c0.5-0.1,0.9-0.3,1.4-0.4c0,0.4,0,0.8,0,1.2c0,0-0.1,0.1-0.1,0.1c-0.4,0.1-0.8,0.2-1.2,0.4
		c0,0.6,0,1.2,0,1.9c0.4-0.1,0.9-0.3,1.3-0.4c0,0.4,0,0.8,0,1.2c-0.4,0.1-0.8,0.2-1.2,0.3c-0.1,0-0.2,0.1-0.2,0.2c0,0.6,0,1.2,0,1.8
		c-0.1,0-0.3,0-0.4,0.1c0-0.7,0-1.3,0-2c-0.3,0.1-0.6,0.2-0.9,0.3c-0.1,0-0.1,0-0.2,0c-0.4,0.1-0.4,0.1-0.4,0.5c0,0.5,0,1,0,1.5
		C192,116.2,192,116.3,192,116.3z M192,113.1c0.5-0.1,0.9-0.3,1.4-0.4c0,0,0.1-0.1,0.1-0.1c0-0.4,0-0.8,0-1.2c0-0.2,0-0.4,0-0.6
		c-0.5,0.1-0.9,0.3-1.4,0.4c-0.1,0-0.1,0.1-0.1,0.2c0,0.5,0,1,0,1.4C192,112.9,192,113,192,113.1z"/>
</g>
<g id="XMLID_1630_">
	<path id="XMLID_1631_" d="M221.9,105.1c-0.1,0-0.3,0-0.4,0.1c0-0.7,0-1.3,0-2c-0.5,0.1-0.9,0.3-1.4,0.4c0-0.4,0-0.8,0-1.1
		c0,0,0.1-0.1,0.1-0.1c0.4-0.1,0.7-0.2,1.1-0.3c0.1,0,0.1,0,0.2,0c0-0.6,0-1.2,0-1.9c-0.5,0.1-0.9,0.3-1.4,0.4c0-0.4,0-0.8,0-1.2
		c0.2-0.1,0.4-0.1,0.6-0.2c0.2-0.1,0.4-0.1,0.7-0.2c0.1,0,0.1-0.1,0.1-0.2c0-0.5,0-1.1,0-1.6c0-0.1,0-0.1,0-0.2c0.1,0,0.3,0,0.4-0.1
		c0,0.6,0,1.2,0,1.9c0.2-0.1,0.4-0.1,0.6-0.2c0.2-0.1,0.5-0.1,0.7-0.2c0.1,0,0.1-0.1,0.1-0.2c0-0.5,0-1.1,0-1.6c0-0.1,0-0.2,0.2-0.2
		c0.1,0,0.1,0,0.2,0c0,0.6,0,1.3,0,1.9c0.5-0.1,0.9-0.3,1.4-0.4c0,0.4,0,0.8,0,1.2c0,0-0.1,0.1-0.1,0.1c-0.4,0.1-0.8,0.2-1.2,0.4
		c0,0.6,0,1.2,0,1.9c0.4-0.1,0.9-0.3,1.3-0.4c0,0.4,0,0.8,0,1.2c-0.4,0.1-0.8,0.2-1.2,0.3c-0.1,0-0.2,0.1-0.2,0.2c0,0.6,0,1.2,0,1.8
		c-0.1,0-0.3,0-0.4,0.1c0-0.7,0-1.3,0-2c-0.3,0.1-0.6,0.2-0.9,0.3c-0.1,0-0.1,0-0.2,0c-0.4,0.1-0.4,0.1-0.4,0.5c0,0.5,0,1,0,1.5
		C221.9,105,221.9,105,221.9,105.1z M221.9,101.8c0.5-0.1,0.9-0.3,1.4-0.4c0,0,0.1-0.1,0.1-0.1c0-0.4,0-0.8,0-1.2c0-0.2,0-0.4,0-0.6
		c-0.5,0.1-0.9,0.3-1.4,0.4c-0.1,0-0.1,0.1-0.1,0.2c0,0.5,0,1,0,1.4C221.9,101.6,221.9,101.7,221.9,101.8z"/>
</g>
<g id="XMLID_1634_">
	<path id="XMLID_1635_" d="M254.2,95.8c-0.1,0-0.3,0-0.4,0.1c0-0.7,0-1.3,0-2c-0.5,0.1-0.9,0.3-1.4,0.4c0-0.4,0-0.8,0-1.1
		c0,0,0.1-0.1,0.1-0.1c0.4-0.1,0.7-0.2,1.1-0.3c0.1,0,0.1,0,0.2,0c0-0.6,0-1.2,0-1.9c-0.5,0.1-0.9,0.3-1.4,0.4c0-0.4,0-0.8,0-1.2
		c0.2-0.1,0.4-0.1,0.6-0.2c0.2-0.1,0.4-0.1,0.7-0.2c0.1,0,0.1-0.1,0.1-0.2c0-0.5,0-1.1,0-1.6c0-0.1,0-0.1,0-0.2c0.1,0,0.3,0,0.4-0.1
		c0,0.6,0,1.2,0,1.9c0.2-0.1,0.4-0.1,0.6-0.2c0.2-0.1,0.5-0.1,0.7-0.2c0.1,0,0.1-0.1,0.1-0.2c0-0.5,0-1.1,0-1.6c0-0.1,0-0.2,0.2-0.2
		c0.1,0,0.1,0,0.2,0c0,0.6,0,1.3,0,1.9c0.5-0.1,0.9-0.3,1.4-0.4c0,0.4,0,0.8,0,1.2c0,0-0.1,0.1-0.1,0.1c-0.4,0.1-0.8,0.2-1.2,0.4
		c0,0.6,0,1.2,0,1.9c0.4-0.1,0.9-0.3,1.3-0.4c0,0.4,0,0.8,0,1.2c-0.4,0.1-0.8,0.2-1.2,0.3c-0.1,0-0.2,0.1-0.2,0.2c0,0.6,0,1.2,0,1.8
		c-0.1,0-0.3,0-0.4,0.1c0-0.7,0-1.3,0-2c-0.3,0.1-0.6,0.2-0.9,0.3c-0.1,0-0.1,0-0.2,0c-0.4,0.1-0.4,0.1-0.4,0.5c0,0.5,0,1,0,1.5
		C254.2,95.7,254.2,95.8,254.2,95.8z M254.2,92.6c0.5-0.1,0.9-0.3,1.4-0.4c0,0,0.1-0.1,0.1-0.1c0-0.4,0-0.8,0-1.2c0-0.2,0-0.4,0-0.6
		c-0.5,0.1-0.9,0.3-1.4,0.4c-0.1,0-0.1,0.1-0.1,0.2c0,0.5,0,1,0,1.4C254.2,92.4,254.2,92.5,254.2,92.6z"/>
</g>
<g id="XMLID_1638_">
	<path id="XMLID_1639_" d="M286.5,85.8c-0.1,0-0.3,0-0.4,0.1c0-0.7,0-1.3,0-2c-0.5,0.1-0.9,0.3-1.4,0.4c0-0.4,0-0.8,0-1.1
		c0,0,0.1-0.1,0.1-0.1c0.4-0.1,0.7-0.2,1.1-0.3c0.1,0,0.1,0,0.2,0c0-0.6,0-1.2,0-1.9c-0.5,0.1-0.9,0.3-1.4,0.4c0-0.4,0-0.8,0-1.2
		c0.2-0.1,0.4-0.1,0.6-0.2c0.2-0.1,0.4-0.1,0.7-0.2c0.1,0,0.1-0.1,0.1-0.2c0-0.5,0-1.1,0-1.6c0-0.1,0-0.1,0-0.2c0.1,0,0.3,0,0.4-0.1
		c0,0.6,0,1.2,0,1.9c0.2-0.1,0.4-0.1,0.6-0.2c0.2-0.1,0.5-0.1,0.7-0.2c0.1,0,0.1-0.1,0.1-0.2c0-0.5,0-1.1,0-1.6c0-0.1,0-0.2,0.2-0.2
		c0.1,0,0.1,0,0.2,0c0,0.6,0,1.3,0,1.9c0.5-0.1,0.9-0.3,1.4-0.4c0,0.4,0,0.8,0,1.2c0,0-0.1,0.1-0.1,0.1c-0.4,0.1-0.8,0.2-1.2,0.4
		c0,0.6,0,1.2,0,1.9c0.4-0.1,0.9-0.3,1.3-0.4c0,0.4,0,0.8,0,1.2c-0.4,0.1-0.8,0.2-1.2,0.3c-0.1,0-0.2,0.1-0.2,0.2c0,0.6,0,1.2,0,1.8
		c-0.1,0-0.3,0-0.4,0.1c0-0.7,0-1.3,0-2c-0.3,0.1-0.6,0.2-0.9,0.3c-0.1,0-0.1,0-0.2,0c-0.4,0.1-0.4,0.1-0.4,0.5c0,0.5,0,1,0,1.5
		C286.5,85.7,286.5,85.7,286.5,85.8z M286.5,82.6c0.5-0.1,0.9-0.3,1.4-0.4c0,0,0.1-0.1,0.1-0.1c0-0.4,0-0.8,0-1.2c0-0.2,0-0.4,0-0.6
		c-0.5,0.1-0.9,0.3-1.4,0.4c-0.1,0-0.1,0.1-0.1,0.2c0,0.5,0,1,0,1.4C286.5,82.4,286.5,82.5,286.5,82.6z"/>
</g>
<g id="XMLID_1642_">
	<path id="XMLID_1643_" d="M318.6,75.5c-0.1,0-0.3,0-0.4,0.1c0-0.7,0-1.3,0-2c-0.5,0.1-0.9,0.3-1.4,0.4c0-0.4,0-0.8,0-1.1
		c0,0,0.1-0.1,0.1-0.1c0.4-0.1,0.7-0.2,1.1-0.3c0.1,0,0.1,0,0.2,0c0-0.6,0-1.2,0-1.9c-0.5,0.1-0.9,0.3-1.4,0.4c0-0.4,0-0.8,0-1.2
		c0.2-0.1,0.4-0.1,0.6-0.2c0.2-0.1,0.4-0.1,0.7-0.2c0.1,0,0.1-0.1,0.1-0.2c0-0.5,0-1.1,0-1.6c0-0.1,0-0.1,0-0.2c0.1,0,0.3,0,0.4-0.1
		c0,0.6,0,1.2,0,1.9c0.2-0.1,0.4-0.1,0.6-0.2c0.2-0.1,0.5-0.1,0.7-0.2c0.1,0,0.1-0.1,0.1-0.2c0-0.5,0-1.1,0-1.6c0-0.1,0-0.2,0.2-0.2
		c0.1,0,0.1,0,0.2,0c0,0.6,0,1.3,0,1.9c0.5-0.1,0.9-0.3,1.4-0.4c0,0.4,0,0.8,0,1.2c0,0-0.1,0.1-0.1,0.1c-0.4,0.1-0.8,0.2-1.2,0.4
		c0,0.6,0,1.2,0,1.9c0.4-0.1,0.9-0.3,1.3-0.4c0,0.4,0,0.8,0,1.2c-0.4,0.1-0.8,0.2-1.2,0.3c-0.1,0-0.2,0.1-0.2,0.2c0,0.6,0,1.2,0,1.8
		c-0.1,0-0.3,0-0.4,0.1c0-0.7,0-1.3,0-2c-0.3,0.1-0.6,0.2-0.9,0.3c-0.1,0-0.1,0-0.2,0c-0.4,0.1-0.4,0.1-0.4,0.5c0,0.5,0,1,0,1.5
		C318.6,75.4,318.6,75.4,318.6,75.5z M318.6,72.3c0.5-0.1,0.9-0.3,1.4-0.4c0,0,0.1-0.1,0.1-0.1c0-0.4,0-0.8,0-1.2c0-0.2,0-0.4,0-0.6
		c-0.5,0.1-0.9,0.3-1.4,0.4c-0.1,0-0.1,0.1-0.1,0.2c0,0.5,0,1,0,1.4C318.6,72.1,318.6,72.1,318.6,72.3z"/>
</g>
<g id="XMLID_1646_">
	<path id="XMLID_1647_" d="M427.4,75.5c-0.1,0-0.3,0-0.4,0.1c0-0.7,0-1.3,0-2c-0.5,0.1-0.9,0.3-1.4,0.4c0-0.4,0-0.8,0-1.1
		c0,0,0.1-0.1,0.1-0.1c0.4-0.1,0.7-0.2,1.1-0.3c0.1,0,0.1,0,0.2,0c0-0.6,0-1.2,0-1.9c-0.5,0.1-0.9,0.3-1.4,0.4c0-0.4,0-0.8,0-1.2
		c0.2-0.1,0.4-0.1,0.6-0.2c0.2-0.1,0.4-0.1,0.7-0.2c0.1,0,0.1-0.1,0.1-0.2c0-0.5,0-1.1,0-1.6c0-0.1,0-0.1,0-0.2c0.1,0,0.3,0,0.4-0.1
		c0,0.6,0,1.2,0,1.9c0.2-0.1,0.4-0.1,0.6-0.2c0.2-0.1,0.5-0.1,0.7-0.2c0.1,0,0.1-0.1,0.1-0.2c0-0.5,0-1.1,0-1.6c0-0.1,0-0.2,0.2-0.2
		c0.1,0,0.1,0,0.2,0c0,0.6,0,1.3,0,1.9c0.5-0.1,0.9-0.3,1.4-0.4c0,0.4,0,0.8,0,1.2c0,0-0.1,0.1-0.1,0.1c-0.4,0.1-0.8,0.2-1.2,0.4
		c0,0.6,0,1.2,0,1.9c0.4-0.1,0.9-0.3,1.3-0.4c0,0.4,0,0.8,0,1.2c-0.4,0.1-0.8,0.2-1.2,0.3c-0.1,0-0.2,0.1-0.2,0.2c0,0.6,0,1.2,0,1.8
		c-0.1,0-0.3,0-0.4,0.1c0-0.7,0-1.3,0-2c-0.3,0.1-0.6,0.2-0.9,0.3c-0.1,0-0.1,0-0.2,0c-0.4,0.1-0.4,0.1-0.4,0.5c0,0.5,0,1,0,1.5
		C427.4,75.4,427.4,75.4,427.4,75.5z M427.4,72.3c0.5-0.1,0.9-0.3,1.4-0.4c0,0,0.1-0.1,0.1-0.1c0-0.4,0-0.8,0-1.2c0-0.2,0-0.4,0-0.6
		c-0.5,0.1-0.9,0.3-1.4,0.4c-0.1,0-0.1,0.1-0.1,0.2c0,0.5,0,1,0,1.4C427.4,72.1,427.4,72.1,427.4,72.3z"/>
</g>
<g id="XMLID_8_">
	<path id="XMLID_243_" d="M460.3,85.5c-0.1,0-0.3,0-0.4,0.1c0-0.7,0-1.3,0-2c-0.5,0.1-0.9,0.3-1.4,0.4c0-0.4,0-0.8,0-1.1
		c0,0,0.1-0.1,0.1-0.1c0.4-0.1,0.7-0.2,1.1-0.3c0.1,0,0.1,0,0.2,0c0-0.6,0-1.2,0-1.9c-0.5,0.1-0.9,0.3-1.4,0.4c0-0.4,0-0.8,0-1.2
		c0.2-0.1,0.4-0.1,0.6-0.2c0.2-0.1,0.4-0.1,0.7-0.2c0.1,0,0.1-0.1,0.1-0.2c0-0.5,0-1.1,0-1.6c0-0.1,0-0.1,0-0.2c0.1,0,0.3,0,0.4-0.1
		c0,0.6,0,1.2,0,1.9c0.2-0.1,0.4-0.1,0.6-0.2c0.2-0.1,0.5-0.1,0.7-0.2c0.1,0,0.1-0.1,0.1-0.2c0-0.5,0-1.1,0-1.6c0-0.1,0-0.2,0.2-0.2
		c0.1,0,0.1,0,0.2,0c0,0.6,0,1.3,0,1.9c0.5-0.1,0.9-0.3,1.4-0.4c0,0.4,0,0.8,0,1.2c0,0-0.1,0.1-0.1,0.1c-0.4,0.1-0.8,0.2-1.2,0.4
		c0,0.6,0,1.2,0,1.9c0.4-0.1,0.9-0.3,1.3-0.4c0,0.4,0,0.8,0,1.2c-0.4,0.1-0.8,0.2-1.2,0.3c-0.1,0-0.2,0.1-0.2,0.2c0,0.6,0,1.2,0,1.8
		c-0.1,0-0.3,0-0.4,0.1c0-0.7,0-1.3,0-2c-0.3,0.1-0.6,0.2-0.9,0.3c-0.1,0-0.1,0-0.2,0c-0.4,0.1-0.4,0.1-0.4,0.5c0,0.5,0,1,0,1.5
		C460.4,85.4,460.4,85.5,460.3,85.5z M460.4,82.3c0.5-0.1,0.9-0.3,1.4-0.4c0,0,0.1-0.1,0.1-0.1c0-0.4,0-0.8,0-1.2c0-0.2,0-0.4,0-0.6
		c-0.5,0.1-0.9,0.3-1.4,0.4c-0.1,0-0.1,0.1-0.1,0.2c0,0.5,0,1,0,1.4C460.4,82.1,460.4,82.2,460.4,82.3z"/>
</g>
<g id="XMLID_412_">
	<path id="XMLID_415_" d="M490.4,95.8c-0.1,0-0.3,0-0.4,0.1c0-0.7,0-1.3,0-2c-0.5,0.1-0.9,0.3-1.4,0.4c0-0.4,0-0.8,0-1.1
		c0,0,0.1-0.1,0.1-0.1c0.4-0.1,0.7-0.2,1.1-0.3c0.1,0,0.1,0,0.2,0c0-0.6,0-1.2,0-1.9c-0.5,0.1-0.9,0.3-1.4,0.4c0-0.4,0-0.8,0-1.2
		c0.2-0.1,0.4-0.1,0.6-0.2c0.2-0.1,0.4-0.1,0.7-0.2c0.1,0,0.1-0.1,0.1-0.2c0-0.5,0-1.1,0-1.6c0-0.1,0-0.1,0-0.2c0.1,0,0.3,0,0.4-0.1
		c0,0.6,0,1.2,0,1.9c0.2-0.1,0.4-0.1,0.6-0.2c0.2-0.1,0.5-0.1,0.7-0.2c0.1,0,0.1-0.1,0.1-0.2c0-0.5,0-1.1,0-1.6c0-0.1,0-0.2,0.2-0.2
		c0.1,0,0.1,0,0.2,0c0,0.6,0,1.3,0,1.9c0.5-0.1,0.9-0.3,1.4-0.4c0,0.4,0,0.8,0,1.2c0,0-0.1,0.1-0.1,0.1c-0.4,0.1-0.8,0.2-1.2,0.4
		c0,0.6,0,1.2,0,1.9c0.4-0.1,0.9-0.3,1.3-0.4c0,0.4,0,0.8,0,1.2c-0.4,0.1-0.8,0.2-1.2,0.3c-0.1,0-0.2,0.1-0.2,0.2c0,0.6,0,1.2,0,1.8
		c-0.1,0-0.3,0-0.4,0.1c0-0.7,0-1.3,0-2c-0.3,0.1-0.6,0.2-0.9,0.3c-0.1,0-0.1,0-0.2,0c-0.4,0.1-0.4,0.1-0.4,0.5c0,0.5,0,1,0,1.5
		C490.4,95.7,490.4,95.8,490.4,95.8z M490.4,92.6c0.5-0.1,0.9-0.3,1.4-0.4c0,0,0.1-0.1,0.1-0.1c0-0.4,0-0.8,0-1.2c0-0.2,0-0.4,0-0.6
		c-0.5,0.1-0.9,0.3-1.4,0.4c-0.1,0-0.1,0.1-0.1,0.2c0,0.5,0,1,0,1.4C490.4,92.4,490.4,92.5,490.4,92.6z"/>
</g>
<g id="XMLID_460_">
	<path id="XMLID_461_" d="M555.8,116.2c-0.1,0-0.3,0-0.4,0.1c0-0.7,0-1.3,0-2c-0.5,0.1-0.9,0.3-1.4,0.4c0-0.4,0-0.8,0-1.1
		c0,0,0.1-0.1,0.1-0.1c0.4-0.1,0.7-0.2,1.1-0.3c0.1,0,0.1,0,0.2,0c0-0.6,0-1.2,0-1.9c-0.5,0.1-0.9,0.3-1.4,0.4c0-0.4,0-0.8,0-1.2
		c0.2-0.1,0.4-0.1,0.6-0.2c0.2-0.1,0.4-0.1,0.7-0.2c0.1,0,0.1-0.1,0.1-0.2c0-0.5,0-1.1,0-1.6c0-0.1,0-0.1,0-0.2c0.1,0,0.3,0,0.4-0.1
		c0,0.6,0,1.2,0,1.9c0.2-0.1,0.4-0.1,0.6-0.2c0.2-0.1,0.5-0.1,0.7-0.2c0.1,0,0.1-0.1,0.1-0.2c0-0.5,0-1.1,0-1.6c0-0.1,0-0.2,0.2-0.2
		c0.1,0,0.1,0,0.2,0c0,0.6,0,1.3,0,1.9c0.5-0.1,0.9-0.3,1.4-0.4c0,0.4,0,0.8,0,1.2c0,0-0.1,0.1-0.1,0.1c-0.4,0.1-0.8,0.2-1.2,0.4
		c0,0.6,0,1.2,0,1.9c0.4-0.1,0.9-0.3,1.3-0.4c0,0.4,0,0.8,0,1.2c-0.4,0.1-0.8,0.2-1.2,0.3c-0.1,0-0.2,0.1-0.2,0.2c0,0.6,0,1.2,0,1.8
		c-0.1,0-0.3,0-0.4,0.1c0-0.7,0-1.3,0-2c-0.3,0.1-0.6,0.2-0.9,0.3c-0.1,0-0.1,0-0.2,0c-0.4,0.1-0.4,0.1-0.4,0.5c0,0.5,0,1,0,1.5
		C555.8,116.1,555.8,116.1,555.8,116.2z M555.8,112.9c0.5-0.1,0.9-0.3,1.4-0.4c0,0,0.1-0.1,0.1-0.1c0-0.4,0-0.8,0-1.2
		c0-0.2,0-0.4,0-0.6c-0.5,0.1-0.9,0.3-1.4,0.4c-0.1,0-0.1,0.1-0.1,0.2c0,0.5,0,1,0,1.4C555.8,112.7,555.8,112.8,555.8,112.9z"/>
</g>
<g id="XMLID_476_">
	<path id="XMLID_477_" d="M586.6,125c-0.1,0-0.3,0-0.4,0.1c0-0.7,0-1.3,0-2c-0.5,0.1-0.9,0.3-1.4,0.4c0-0.4,0-0.8,0-1.1
		c0,0,0.1-0.1,0.1-0.1c0.4-0.1,0.7-0.2,1.1-0.3c0.1,0,0.1,0,0.2,0c0-0.6,0-1.2,0-1.9c-0.5,0.1-0.9,0.3-1.4,0.4c0-0.4,0-0.8,0-1.2
		c0.2-0.1,0.4-0.1,0.6-0.2c0.2-0.1,0.4-0.1,0.7-0.2c0.1,0,0.1-0.1,0.1-0.2c0-0.5,0-1.1,0-1.6c0-0.1,0-0.1,0-0.2c0.1,0,0.3,0,0.4-0.1
		c0,0.6,0,1.2,0,1.9c0.2-0.1,0.4-0.1,0.6-0.2c0.2-0.1,0.5-0.1,0.7-0.2c0.1,0,0.1-0.1,0.1-0.2c0-0.5,0-1.1,0-1.6c0-0.1,0-0.2,0.2-0.2
		c0.1,0,0.1,0,0.2,0c0,0.6,0,1.3,0,1.9c0.5-0.1,0.9-0.3,1.4-0.4c0,0.4,0,0.8,0,1.2c0,0-0.1,0.1-0.1,0.1c-0.4,0.1-0.8,0.2-1.2,0.4
		c0,0.6,0,1.2,0,1.9c0.4-0.1,0.9-0.3,1.3-0.4c0,0.4,0,0.8,0,1.2c-0.4,0.1-0.8,0.2-1.2,0.3c-0.1,0-0.2,0.1-0.2,0.2c0,0.6,0,1.2,0,1.8
		c-0.1,0-0.3,0-0.4,0.1c0-0.7,0-1.3,0-2c-0.3,0.1-0.6,0.2-0.9,0.3c-0.1,0-0.1,0-0.2,0c-0.4,0.1-0.4,0.1-0.4,0.5c0,0.5,0,1,0,1.5
		C586.6,124.9,586.6,124.9,586.6,125z M586.6,121.7c0.5-0.1,0.9-0.3,1.4-0.4c0,0,0.1-0.1,0.1-0.1c0-0.4,0-0.8,0-1.2
		c0-0.2,0-0.4,0-0.6c-0.5,0.1-0.9,0.3-1.4,0.4c-0.1,0-0.1,0.1-0.1,0.2c0,0.5,0,1,0,1.4C586.6,121.5,586.6,121.6,586.6,121.7z"/>
</g>
</svg>
