<?xml version="1.0" encoding="utf-8"?>
<!-- Generator: Adobe Illustrator 25.0.0, SVG Export Plug-In . SVG Version: 6.00 Build 0)  -->
<svg version="1.1" id="Layer_1" xmlns="http://www.w3.org/2000/svg" xmlns:xlink="http://www.w3.org/1999/xlink" x="0px" y="0px"
	 viewBox="0 0 641 195" style="enable-background:new 0 0 641 195;" xml:space="preserve">
<style type="text/css">
	.st0{fill:none;stroke:#000000;stroke-width:0.5;stroke-miterlimit:10;}
	.st1{fill:none;stroke:#7C287D;stroke-width:1.5;stroke-miterlimit:10;}
	.st2{fill:none;stroke:#67BF75;stroke-miterlimit:10;}
	.st3{fill:#7B7B7B;}
</style>
<path id="XMLID_189_" d="M57.1,33.4c0,7.3,0,14.5,0,22.2c2.2-0.4,3.9-0.8,5.7-1.1c4.1-0.7,5.9,1.4,4.6,5.2c-1.6,5-5.6,8.1-11.5,8.8
	c0-11.7,0-23.4,0-35.2C56.2,33.4,56.6,33.4,57.1,33.4z M57.1,66.1c0.4,0.2,0.8,0.4,1.1,0.6c1.8-1.8,3.8-3.5,5.3-5.6
	c0.6-0.8,0-2.4,0-3.6c-1.6,0.1-3.2,0-4.7,0.4c-0.7,0.2-1.5,1.2-1.6,1.9C56.9,61.9,57.1,64.1,57.1,66.1z"/>
<path id="XMLID_278_" d="M68.7,2.7c0,7.3,0,14.5,0,22.2c2.2-0.4,3.9-0.8,5.7-1.1c4.1-0.7,5.9,1.4,4.6,5.2c-1.6,5-5.6,8.1-11.5,8.8
	c0-11.7,0-23.4,0-35.2C67.8,2.7,68.3,2.7,68.7,2.7z M68.7,35.4c0.4,0.2,0.8,0.4,1.1,0.6c1.8-1.8,3.8-3.5,5.3-5.6
	c0.6-0.8,0-2.4,0-3.6c-1.6,0.1-3.2,0-4.7,0.4c-0.7,0.2-1.5,1.2-1.6,1.9C68.5,31.2,68.7,33.3,68.7,35.4z"/>
<line id="XMLID_332_" class="st0" x1="139.6" y1="122.4" x2="170.2" y2="122.4"/>
<line id="XMLID_982_" class="st0" x1="107.7" y1="122.4" x2="138.4" y2="122.4"/>
<line id="XMLID_992_" class="st0" x1="600.3" y1="122.4" x2="630.9" y2="122.4"/>
<line id="XMLID_983_" class="st0" x1="568.4" y1="122.4" x2="599.1" y2="122.4"/>
<g id="XMLID_612_">
	<line id="XMLID_617_" class="st0" x1="0" y1="40.5" x2="641" y2="40.5"/>
	<line id="XMLID_616_" class="st0" x1="-0.2" y1="20.2" x2="640.8" y2="20.2"/>
	<line id="XMLID_615_" class="st0" x1="0" y1="60.8" x2="641" y2="60.8"/>
	<line id="XMLID_614_" class="st0" x1="0" y1="81.2" x2="641" y2="81.2"/>
	<line id="XMLID_613_" class="st0" x1="0" y1="101.5" x2="641" y2="101.5"/>
</g>
<circle id="XMLID_610_" class="st1" cx="155" cy="122.1" r="10.2"/>
<circle id="XMLID_607_" class="st1" cx="123" cy="132.3" r="10.2"/>
<circle id="XMLID_604_" class="st1" cx="186.9" cy="111.8" r="10.2"/>
<circle id="XMLID_601_" class="st1" cx="218.8" cy="101.6" r="10.2"/>
<circle id="XMLID_598_" class="st1" cx="250.7" cy="91.2" r="10.2"/>
<circle id="XMLID_595_" class="st1" cx="282.7" cy="81.3" r="10.2"/>
<circle id="XMLID_592_" class="st1" cx="314.6" cy="71.3" r="10.2"/>
<circle id="XMLID_589_" class="st1" cx="346.5" cy="61.1" r="10.2"/>
<circle id="XMLID_586_" class="st1" cx="423.7" cy="71.2" r="10.2"/>
<circle id="XMLID_583_" class="st1" cx="391.8" cy="61" r="10.2"/>
<circle id="XMLID_580_" class="st1" cx="455.7" cy="81.7" r="10.2"/>
<circle id="XMLID_577_" class="st1" cx="487.6" cy="92.1" r="10.2"/>
<circle id="XMLID_574_" class="st1" cx="519.5" cy="101.6" r="10.2"/>
<circle id="XMLID_571_" class="st1" cx="551.5" cy="112.6" r="10.2"/>
<circle id="XMLID_568_" class="st1" cx="583.4" cy="122" r="10.2"/>
<circle id="XMLID_565_" class="st1" cx="615.3" cy="133.1" r="10.2"/>
<g id="XMLID_2392_">
	<path id="XMLID_2393_" d="M117.5,127.4c0.6-0.1,1.5-0.2,2.4-0.2c1.3,0,2.1,0.2,2.8,0.7c0.5,0.4,0.9,1,0.9,1.8c0,1-0.7,1.8-1.7,2.2
		v0c1,0.2,2.1,1,2.1,2.5c0,0.9-0.3,1.5-0.9,2c-0.7,0.6-1.8,0.9-3.5,0.9c-0.9,0-1.6-0.1-2-0.1V127.4z M118.8,131.5h1.2
		c1.4,0,2.2-0.7,2.2-1.7c0-1.2-0.9-1.7-2.2-1.7c-0.6,0-0.9,0-1.2,0.1V131.5z M118.8,136.3c0.3,0,0.6,0.1,1.1,0.1
		c1.3,0,2.6-0.5,2.6-2c0-1.4-1.2-2-2.6-2h-1.1V136.3z"/>
</g>
<g id="XMLID_2362_">
	<path id="XMLID_2363_" d="M610.3,128.5c0.6-0.1,1.5-0.2,2.4-0.2c1.3,0,2.1,0.2,2.8,0.7c0.5,0.4,0.9,1,0.9,1.8c0,1-0.7,1.8-1.7,2.2
		v0c1,0.2,2.1,1,2.1,2.5c0,0.9-0.3,1.5-0.9,2c-0.7,0.6-1.8,0.9-3.5,0.9c-0.9,0-1.6-0.1-2-0.1V128.5z M611.6,132.6h1.2
		c1.4,0,2.2-0.7,2.2-1.7c0-1.2-0.9-1.7-2.2-1.7c-0.6,0-0.9,0-1.2,0.1V132.6z M611.6,137.5c0.3,0,0.6,0.1,1.1,0.1
		c1.3,0,2.6-0.5,2.6-2c0-1.4-1.2-2-2.6-2h-1.1V137.5z"/>
</g>
<g id="XMLID_2359_">
	<path id="XMLID_2360_" d="M158.5,126.5c-0.5,0.2-1.4,0.5-2.7,0.5c-2.8,0-5-1.8-5-5.1c0-3.2,2.1-5.3,5.3-5.3c1.2,0,2.1,0.3,2.4,0.5
		l-0.3,1.1c-0.5-0.2-1.2-0.4-2-0.4c-2.4,0-3.9,1.5-3.9,4.2c0,2.5,1.4,4.1,3.9,4.1c0.8,0,1.6-0.2,2.1-0.4L158.5,126.5z"/>
</g>
<g id="XMLID_2356_">
	<path id="XMLID_2357_" d="M587.2,126.1c-0.5,0.2-1.4,0.5-2.7,0.5c-2.8,0-5-1.8-5-5.1c0-3.2,2.1-5.3,5.3-5.3c1.2,0,2.1,0.3,2.4,0.5
		l-0.3,1.1c-0.5-0.2-1.2-0.4-2-0.4c-2.4,0-3.9,1.5-3.9,4.2c0,2.5,1.4,4.1,3.9,4.1c0.8,0,1.6-0.2,2.1-0.4L587.2,126.1z"/>
</g>
<g id="XMLID_2352_">
	<path id="XMLID_2353_" d="M184.2,106.7c0.8-0.1,1.7-0.2,2.8-0.2c1.9,0,3.2,0.5,4.1,1.3c0.9,0.8,1.4,2,1.4,3.6c0,1.7-0.5,3-1.5,3.9
		c-1,0.9-2.5,1.5-4.5,1.5c-0.9,0-1.7,0-2.4-0.1V106.7z M185.6,115.6c0.3,0,0.8,0.1,1.3,0.1c2.8,0,4.3-1.6,4.3-4.3
		c0-2.4-1.3-3.9-4.1-3.9c-0.7,0-1.2,0.1-1.5,0.1V115.6z"/>
</g>
<g id="XMLID_2348_">
	<path id="XMLID_2349_" d="M548,107.6c0.8-0.1,1.7-0.2,2.8-0.2c1.9,0,3.2,0.5,4.1,1.3c0.9,0.8,1.4,2,1.4,3.6c0,1.7-0.5,3-1.5,3.9
		c-1,0.9-2.5,1.5-4.5,1.5c-0.9,0-1.7,0-2.4-0.1V107.6z M549.3,116.6c0.3,0,0.8,0.1,1.3,0.1c2.8,0,4.3-1.6,4.3-4.3
		c0-2.4-1.3-3.9-4.1-3.9c-0.7,0-1.2,0.1-1.5,0.1V116.6z"/>
</g>
<g id="XMLID_2345_">
	<path id="XMLID_2346_" d="M219.1,101.6h-3.9v3.6h4.4v1.1h-5.7V96.2h5.5v1.1h-4.2v3.2h3.9V101.6z"/>
</g>
<g id="XMLID_2342_">
	<path id="XMLID_2343_" d="M519.4,101.6h-3.9v3.6h4.4v1.1h-5.7V96.2h5.5v1.1h-4.2v3.2h3.9V101.6z"/>
</g>
<g id="XMLID_2339_">
	<path id="XMLID_2340_" d="M247.4,86.2h5.4v1.1h-4.1v3.4h3.8v1.1h-3.8v4.6h-1.3V86.2z"/>
</g>
<g id="XMLID_2336_">
	<path id="XMLID_2337_" d="M484.9,86.8h5.4v1.1h-4.1v3.4h3.8v1.1h-3.8v4.6h-1.3V86.8z"/>
</g>
<g id="XMLID_2333_">
	<path id="XMLID_2334_" d="M286.1,85.9c-0.6,0.2-1.8,0.6-3.1,0.6c-1.5,0-2.8-0.4-3.8-1.3c-0.9-0.8-1.4-2.2-1.4-3.8
		c0-3,2.1-5.2,5.5-5.2c1.2,0,2.1,0.3,2.5,0.5l-0.3,1.1c-0.5-0.3-1.2-0.4-2.2-0.4c-2.5,0-4.1,1.5-4.1,4.1c0,2.6,1.5,4.1,3.9,4.1
		c0.9,0,1.4-0.1,1.7-0.3v-3h-2v-1h3.3V85.9z"/>
</g>
<g id="XMLID_2330_">
	<path id="XMLID_2331_" d="M459.9,85.9c-0.6,0.2-1.8,0.6-3.1,0.6c-1.5,0-2.8-0.4-3.8-1.3c-0.9-0.8-1.4-2.2-1.4-3.8
		c0-3,2.1-5.2,5.5-5.2c1.2,0,2.1,0.3,2.5,0.5l-0.3,1.1c-0.5-0.3-1.2-0.4-2.2-0.4c-2.5,0-4.1,1.5-4.1,4.1c0,2.6,1.5,4.1,3.9,4.1
		c0.9,0,1.4-0.1,1.7-0.3v-3h-2v-1h3.3V85.9z"/>
</g>
<g id="XMLID_2326_">
	<path id="XMLID_2327_" d="M313,73.1l-1,3.2h-1.4l3.4-10.1h1.6l3.4,10.1h-1.4l-1.1-3.2H313z M316.3,72.1l-1-2.9
		c-0.2-0.7-0.4-1.3-0.5-1.8h0c-0.1,0.6-0.3,1.2-0.5,1.8l-1,2.9H316.3z"/>
</g>
<g id="XMLID_2318_">
	<path id="XMLID_2319_" d="M422.2,72.3l-1,3.2h-1.3l3.4-10.1h1.6l3.4,10.1h-1.4l-1.1-3.2H422.2z M425.5,71.3l-1-2.9
		c-0.2-0.7-0.4-1.3-0.5-1.8h0c-0.2,0.6-0.3,1.2-0.5,1.8l-1,2.9H425.5z"/>
</g>
<g id="XMLID_2307_">
	<path id="XMLID_2310_" d="M341.8,56.5c0.6-0.1,1.5-0.2,2.4-0.2c1.3,0,2.1,0.2,2.8,0.7c0.5,0.4,0.9,1,0.9,1.8c0,1-0.7,1.8-1.7,2.2v0
		c1,0.2,2.1,1,2.1,2.5c0,0.9-0.3,1.5-0.9,2c-0.7,0.6-1.8,0.9-3.5,0.9c-0.9,0-1.6-0.1-2-0.1V56.5z M343.1,60.6h1.2
		c1.4,0,2.2-0.7,2.2-1.7c0-1.2-0.9-1.6-2.2-1.6c-0.6,0-0.9,0-1.2,0.1V60.6z M343.1,65.4c0.3,0,0.6,0.1,1.1,0.1c1.3,0,2.6-0.5,2.6-2
		c0-1.4-1.2-1.9-2.6-1.9h-1.1V65.4z"/>
</g>
<g id="XMLID_542_">
	<path id="XMLID_543_" d="M35.5,101.3c-2.1,0.7-4.3,1-6.5,1.1c-5.8,0.1-11.2-1.5-15.8-5c-4.9-3.7-7.5-8.7-8.7-14.6
		c-1.1-5.7,0-11.1,2.4-16.3c2.1-4.5,5-8.5,8.2-12.2c0.7-0.8,1.4-1.5,2.1-2.3c0.3-0.3,0.3-0.5,0.2-0.9c-0.8-2.8-1.8-5.5-2.4-8.3
		c-1.3-5.6-1.5-11.3,0.3-16.9c2.1-6.4,6-11.2,12.5-13.5c0.8-0.3,1.6-0.5,2.4-0.6c1.7-0.1,3.2,0.6,4.5,1.6c2.7,2.1,4,5,4.2,8.3
		c0.3,5.1-1.4,9.7-3.8,14.2c-2.3,4.3-5.4,8.2-8.6,11.9c-1.1,1.3-2.1,2.5-3.2,3.7c-0.3,0.4-0.1,0.6,0,0.9c2,3.9,3.9,7.8,5.9,11.6
		c1-0.2,2-0.5,3.1-0.7c3.1-0.6,6.1,0,8.9,1.4c5.5,2.9,8.8,7.5,9.8,13.7c0.8,5-0.6,9.6-3.4,13.7c-1.8,2.7-4.1,4.9-6.8,6.6
		c-0.4,0.3-0.5,0.5-0.4,1c0.5,3.1,1.1,6.1,1.6,9.2c0.5,3.4,0.7,6.8-0.4,10.1c-1.4,4.5-4.6,7.1-9,8.3c-5.7,1.5-10.9,0.3-15.5-3.2
		c-3.9-2.9-6.5-6.6-7.6-11.4c-0.1-0.6-0.2-1.3-0.3-1.9c0-0.3,0-0.6,0-0.9c1.3,6.7,5,11.5,11.1,14.3c4.3,2,8.7,2.1,13-0.1
		c3.3-1.7,5-4.5,5.1-8.2c0.1-3.3-0.8-6.4-1.5-9.6c-0.4-1.5-0.8-2.9-1.2-4.4C35.7,101.7,35.6,101.5,35.5,101.3z M34,96
		c-2.5-9.1-6.5-17.6-9.3-26.6c-2.5,2.7-3.5,5.7-2.7,9.1c1,4.3,3.6,7.2,7.9,8.4c-0.3,0-0.5,0-0.8-0.1c-4.8-1.1-8.4-5.9-8.5-10.9
		c0-2.9,1-5.4,2.9-7.5c0.4-0.4,0.4-0.7,0.2-1.2c-0.6-1.6-1.2-3.1-1.9-4.7c-0.8-2-1.6-3.9-2.5-6c-0.8,1.1-1.6,2.1-2.3,3.1
		c-2.4,3.4-4.5,7.1-5.8,11.1c-1,3.3-1.3,6.6-0.7,10c0.8,4,2.9,7.4,5.7,10.3C21.2,95.8,27.2,97.2,34,96z M21.3,47.8
		c1.5-1.5,2.9-3,4.2-4.4c2.7-2.9,5.3-5.9,7.4-9.3c2.2-3.6,3.9-7.3,4.1-11.6c0.1-3.2-0.8-6-3.3-8.1c-1.4-1.2-2.9-1.8-4.9-1
		c-4.2,1.8-7.2,4.7-9.2,8.8c-2,4.2-2.4,8.6-1.9,13.1C18.2,39.6,19.5,43.7,21.3,47.8z M39.3,93.7c2.7-1.8,4.7-3.9,6.2-6.6
		c1.5-2.8,2.2-5.7,1.8-8.9c-0.4-3.3-1.9-6.2-4.2-8.6c-2.8-2.9-6.1-4.4-10.2-4.1c-0.9,0.1-1.7,0.3-2.8,0.5
		C34.8,74.8,37,84.2,39.3,93.7z"/>
</g>
<path id="XMLID_650_" d="M125.4,125.9c0,2.3,0,4.5,0,6.9c0.7-0.1,1.2-0.3,1.8-0.3c1.3-0.2,1.8,0.4,1.4,1.6c-0.5,1.6-1.7,2.5-3.6,2.7
	c0-3.7,0-7.3,0-11C125.2,125.9,125.3,125.9,125.4,125.9z M125.4,136.1c0.1,0.1,0.2,0.1,0.4,0.2c0.6-0.6,1.2-1.1,1.6-1.7
	c0.2-0.2,0-0.7,0-1.1c-0.5,0-1,0-1.5,0.1c-0.2,0.1-0.5,0.4-0.5,0.6C125.4,134.8,125.4,135.4,125.4,136.1z"/>
<path id="XMLID_539_" d="M349.1,55.3c0,2.3,0,4.5,0,6.9c0.7-0.1,1.2-0.3,1.8-0.3c1.3-0.2,1.8,0.4,1.4,1.6c-0.5,1.6-1.7,2.5-3.6,2.7
	c0-3.7,0-7.3,0-11C348.8,55.3,349,55.3,349.1,55.3z M349.1,65.6c0.1,0.1,0.2,0.1,0.4,0.2c0.6-0.6,1.2-1.1,1.6-1.7
	c0.2-0.2,0-0.7,0-1.1c-0.5,0-1,0-1.5,0.1c-0.2,0.1-0.5,0.4-0.5,0.6C349,64.3,349.1,64.9,349.1,65.6z"/>
<g id="XMLID_2298_">
	<path id="XMLID_2299_" d="M387.1,56.5c0.6-0.1,1.5-0.2,2.4-0.2c1.3,0,2.1,0.2,2.8,0.7c0.5,0.4,0.9,1,0.9,1.8c0,1-0.7,1.8-1.7,2.2v0
		c1,0.2,2.1,1,2.1,2.5c0,0.9-0.3,1.5-0.9,2c-0.7,0.6-1.8,0.9-3.5,0.9c-0.9,0-1.6-0.1-2-0.1V56.5z M388.4,60.6h1.2
		c1.4,0,2.2-0.7,2.2-1.7c0-1.2-0.9-1.6-2.2-1.6c-0.6,0-0.9,0-1.2,0.1V60.6z M388.4,65.4c0.3,0,0.6,0.1,1.1,0.1c1.3,0,2.6-0.5,2.6-2
		c0-1.4-1.2-1.9-2.6-1.9h-1.1V65.4z"/>
</g>
<path id="XMLID_548_" d="M394.3,55.3c0,2.3,0,4.5,0,6.9c0.7-0.1,1.2-0.3,1.8-0.3c1.3-0.2,1.8,0.4,1.4,1.6c-0.5,1.6-1.7,2.5-3.6,2.7
	c0-3.7,0-7.3,0-11C394.1,55.3,394.2,55.3,394.3,55.3z M394.3,65.6c0.1,0.1,0.2,0.1,0.4,0.2c0.6-0.6,1.2-1.1,1.6-1.7
	c0.2-0.2,0-0.7,0-1.1c-0.5,0-1,0-1.5,0.1c-0.2,0.1-0.5,0.4-0.5,0.6C394.3,64.3,394.3,64.9,394.3,65.6z"/>
<path id="XMLID_352_" d="M521.3,95.3c0,2.3,0,4.5,0,6.9c0.7-0.1,1.2-0.3,1.8-0.3c1.3-0.2,1.8,0.4,1.4,1.6c-0.5,1.6-1.7,2.5-3.6,2.7
	c0-3.7,0-7.3,0-11C521.1,95.3,521.2,95.3,521.3,95.3z M521.3,105.5c0.1,0.1,0.2,0.1,0.4,0.2c0.6-0.6,1.2-1.1,1.6-1.7
	c0.2-0.2,0-0.7,0-1.1c-0.5,0-1,0-1.5,0.1c-0.2,0.1-0.5,0.4-0.5,0.6C521.3,104.2,521.3,104.9,521.3,105.5z"/>
<path id="XMLID_210_" d="M618.1,127.6c0,2.3,0,4.5,0,6.9c0.7-0.1,1.2-0.3,1.8-0.3c1.3-0.2,1.8,0.4,1.4,1.6c-0.5,1.6-1.7,2.5-3.6,2.7
	c0-3.7,0-7.3,0-11C617.9,127.6,618,127.6,618.1,127.6z M618.1,137.9c0.1,0.1,0.2,0.1,0.4,0.2c0.6-0.6,1.2-1.1,1.6-1.7
	c0.2-0.2,0-0.7,0-1.1c-0.5,0-1,0-1.5,0.1c-0.2,0.1-0.5,0.4-0.5,0.6C618.1,136.6,618.1,137.2,618.1,137.9z"/>
<path id="XMLID_654_" d="M220.8,95.3c0,2.3,0,4.5,0,6.9c0.7-0.1,1.2-0.3,1.8-0.3c1.3-0.2,1.8,0.4,1.4,1.6c-0.5,1.6-1.7,2.5-3.6,2.7
	c0-3.7,0-7.3,0-11C220.5,95.3,220.7,95.3,220.8,95.3z M220.8,105.5c0.1,0.1,0.2,0.1,0.4,0.2c0.6-0.6,1.2-1.1,1.6-1.7
	c0.2-0.2,0-0.7,0-1.1c-0.5,0-1,0-1.5,0.1c-0.2,0.1-0.5,0.4-0.5,0.6C220.7,104.2,220.8,104.9,220.8,105.5z"/>
</svg>
