<?xml version="1.0" standalone="no"?>
<!DOCTYPE svg PUBLIC "-//W3C//DTD SVG 20010904//EN"
 "http://www.w3.org/TR/2001/REC-SVG-20010904/DTD/svg10.dtd">
<svg version="1.0" xmlns="http://www.w3.org/2000/svg"
 width="5238.000000pt" height="992.000000pt" viewBox="0 0 5238.000000 992.000000"
 preserveAspectRatio="xMidYMid meet">

<g transform="translate(0.000000,992.000000) scale(0.100000,-0.100000)"
fill="#000000" stroke="none">
<path d="M5709 9903 c-10 -11 -14 -44 -14 -102 0 -47 2 -401 4 -786 2 -385 0
-707 -4 -717 -3 -9 -18 -21 -33 -27 -19 -8 -403 -11 -1363 -9 -1262 3 -1338 4
-1356 21 -18 15 -21 36 -27 177 -11 253 -35 408 -97 624 -57 201 -208 543
-288 653 -52 72 -133 92 -210 51 -53 -29 -191 -165 -246 -243 -189 -271 -319
-677 -344 -1083 -10 -151 -18 -177 -66 -191 -17 -6 -366 -8 -830 -7 -495 2
-805 -1 -812 -7 -7 -5 -13 -22 -13 -37 0 -54 -1 -54 877 -60 798 -5 803 -5
823 -26 18 -18 25 -51 46 -210 13 -104 36 -258 49 -342 31 -188 32 -271 4
-332 -25 -55 -71 -105 -124 -133 -40 -22 -44 -22 -843 -27 l-804 -5 -19 -24
c-11 -13 -18 -31 -17 -40 8 -40 28 -41 713 -41 622 0 825 -5 825 -19 0 -3 -59
-69 -131 -146 -248 -264 -421 -485 -543 -691 -35 -60 -73 -122 -83 -139 -10
-16 -38 -40 -63 -52 -43 -22 -53 -23 -343 -23 -309 0 -332 -3 -366 -43 -10
-12 -6 -19 23 -37 34 -20 52 -22 340 -29 168 -4 307 -9 310 -12 2 -2 -6 -48
-19 -102 -43 -175 -58 -341 -52 -547 3 -102 13 -230 21 -284 9 -55 14 -102 11
-105 -12 -12 -152 -20 -355 -21 -207 0 -216 -1 -254 -24 l-38 -23 33 -24 c33
-24 38 -24 314 -29 355 -7 336 1 411 -168 125 -275 304 -508 511 -659 75 -56
266 -161 322 -178 13 -4 40 -14 60 -23 l36 -16 -50 -9 c-27 -5 -387 -12 -800
-15 l-750 -7 -44 -23 -44 -24 44 -26 44 -27 1273 -5 c1259 -5 1274 -5 1288
-25 18 -25 15 -7 68 -335 84 -511 99 -683 73 -807 -39 -181 -164 -346 -337
-446 -173 -100 -451 -116 -603 -34 -55 29 -127 98 -127 121 0 6 52 26 115 45
64 19 135 46 159 61 208 133 257 404 111 624 -98 148 -245 213 -423 187 -141
-21 -227 -76 -310 -198 -136 -201 -156 -366 -67 -561 66 -144 225 -318 352
-385 127 -66 204 -82 398 -81 331 2 529 73 695 251 85 91 145 206 187 358 25
91 28 115 27 265 0 150 -3 177 -32 296 -17 72 -51 241 -77 375 -25 134 -48
254 -50 266 l-5 23 24752 2 24753 3 38 26 38 27 -38 23 -38 24 -24750 5
c-14034 3 -24760 9 -24773 14 -13 5 -22 15 -20 24 2 9 51 46 110 83 146 92
217 147 324 254 170 169 265 351 289 557 9 75 34 114 82 127 27 8 7326 11
24403 11 l24365 0 25 25 25 25 -28 27 -27 28 -24358 -4 c-22006 -3 -24361 -2
-24394 12 -20 8 -44 26 -52 40 -9 13 -28 88 -41 167 -41 231 -98 378 -200 510
-59 77 -198 206 -278 259 -36 24 -64 47 -62 51 16 27 124 30 919 30 l825 0 15
-22 c14 -19 16 -69 17 -333 0 -170 3 -328 7 -349 l7 -39 254 218 c140 121 315
275 388 342 73 68 157 135 186 150 l52 28 1737 0 c1723 0 1737 0 1763 -20 18
-13 34 -40 45 -77 54 -174 208 -296 492 -389 335 -110 685 -108 1028 7 74 24
165 63 202 85 102 60 186 150 242 258 52 100 85 131 149 138 23 2 9267 5
20542 6 l20500 2 32 24 c36 27 32 40 -18 67 -24 12 -2411 14 -17998 14 -13227
0 -17990 3 -18046 11 -48 7 -75 16 -75 24 0 7 26 28 58 45 204 115 302 263
302 456 0 170 -74 289 -275 437 -44 32 -81 63 -83 67 -2 4 10 11 25 16 15 4
838 9 1828 11 1729 3 1801 3 1834 -15 28 -15 36 -28 47 -70 43 -166 153 -269
394 -367 311 -127 623 -154 949 -84 116 25 276 80 356 122 85 45 220 182 267
272 40 76 77 118 121 134 20 8 4491 11 15154 11 l15126 0 34 26 c38 29 34 43
-18 70 -24 12 -1704 14 -12616 14 -8089 0 -12609 4 -12647 10 -84 14 -87 28
-15 66 136 73 238 176 281 284 18 45 22 76 22 170 1 109 -1 118 -31 183 -40
85 -127 177 -247 263 -54 39 -83 66 -75 69 59 21 332 25 1902 25 1212 0 1721
-3 1752 -11 52 -13 67 -29 84 -89 53 -185 194 -300 488 -396 182 -59 304 -78
513 -78 211 -1 333 18 519 80 177 60 266 108 352 194 62 61 79 85 93 130 37
120 48 140 76 155 26 13 1192 15 9760 15 l9731 0 50 21 c27 12 49 25 49 29 0
4 -26 17 -57 29 l-58 21 -7217 7 c-3969 5 -7219 11 -7223 15 -14 13 30 60 111
119 92 66 140 119 177 194 72 147 57 322 -41 464 -52 77 -177 172 -307 236
-182 90 -359 125 -624 125 -264 0 -464 -45 -690 -157 -207 -102 -283 -191
-319 -376 -38 -191 42 -387 194 -476 33 -19 81 -50 108 -70 l48 -34 -28 -16
c-26 -14 -209 -16 -1842 -19 l-1813 -2 -28 28 c-16 16 -35 52 -45 85 -14 47
-30 72 -88 133 -39 41 -92 90 -118 109 -112 83 -307 157 -495 191 -135 24
-420 24 -560 0 -350 -58 -591 -200 -695 -406 -39 -78 -79 -120 -128 -135 -41
-12 -24726 -9 -24749 3 -42 23 -44 50 -37 567 4 270 3 606 -1 748 l-7 259 -30
34 c-34 38 -76 45 -99 17z m31497 -618 c118 -57 231 -208 282 -377 12 -37 26
-113 33 -170 24 -214 -29 -359 -160 -436 -41 -24 -56 -27 -141 -27 -86 0 -101
3 -163 32 -134 64 -225 187 -293 393 -24 76 -28 103 -31 260 l-5 175 29 55
c22 42 39 59 73 77 121 61 272 68 376 18z m-34603 -201 c27 -18 47 -43 65 -82
23 -51 27 -72 30 -194 4 -137 -21 -434 -39 -470 -5 -10 -31 -30 -57 -45 l-47
-28 -272 0 -273 0 -31 32 -32 31 33 84 c52 129 189 447 220 509 81 159 283
241 403 163z m29205 -382 c59 -31 117 -86 162 -152 45 -67 150 -248 150 -260
0 -19 -144 -30 -411 -30 -299 0 -351 6 -370 42 -18 34 -4 238 19 292 41 92
147 138 307 133 80 -2 109 -8 143 -25z m-29238 -548 c0 -25 -177 -296 -272
-416 -63 -80 -306 -323 -314 -315 -2 2 -15 129 -29 283 -13 153 -27 305 -29
336 -8 81 10 101 101 109 91 8 543 11 543 3z m2126 -25 l26 -26 2 -474 c3
-498 1 -517 -41 -534 -21 -8 -2051 -7 -2105 2 -21 3 -38 8 -38 10 0 2 71 178
159 391 174 426 174 427 191 527 14 84 30 111 73 124 19 6 367 9 869 8 l838
-2 26 -26z m961 21 c17 -6 35 -22 42 -36 8 -18 11 -165 11 -495 0 -469 -2
-500 -34 -521 -6 -4 -177 -8 -379 -8 l-369 0 -28 28 c-24 25 -29 39 -35 108
-5 43 -5 256 -2 473 l6 394 27 28 c26 27 32 29 128 32 262 8 605 6 633 -3z
m19889 -1 c60 -6 113 -14 117 -18 4 -5 -31 -36 -79 -71 -211 -153 -286 -279
-271 -455 17 -189 116 -330 309 -433 72 -39 82 -54 46 -68 -38 -14 -3638 -17
-3671 -3 -23 10 -39 34 -78 116 -39 83 -61 116 -111 167 -115 114 -279 188
-537 243 -114 24 -147 27 -341 28 -239 0 -304 -9 -487 -70 -272 -91 -449 -224
-498 -378 -22 -67 -37 -83 -94 -102 -41 -13 -749 -15 -6921 -13 -6369 3 -6875
4 -6878 19 -2 11 44 55 135 130 263 215 356 319 432 478 32 69 36 84 36 161 0
94 -21 152 -78 217 -16 18 -28 35 -26 37 2 2 51 8 109 13 155 15 18742 16
18886 2z m6561 -22 c27 -26 28 -31 27 -125 0 -84 -4 -105 -28 -159 -33 -73
-66 -107 -123 -127 -109 -38 -245 -28 -353 26 -71 36 -100 71 -221 272 -53 88
-59 102 -50 124 l11 24 355 -4 355 -3 27 -28z m-5728 -6 c116 -36 196 -118
277 -287 68 -142 95 -316 75 -483 -15 -118 -44 -178 -104 -212 -37 -21 -55
-24 -147 -24 -153 0 -211 11 -267 49 -95 64 -222 271 -257 418 -48 195 -13
452 67 502 84 52 251 70 356 37z m-20174 -85 c48 -49 90 -122 100 -179 13 -66
-58 -243 -151 -382 -61 -91 -155 -203 -244 -290 l-71 -70 3 375 c3 369 3 376
26 418 49 92 165 172 249 172 38 0 49 -6 88 -44z m14824 -520 c79 -41 137
-108 225 -261 60 -105 76 -139 67 -148 -9 -9 -112 -13 -373 -15 l-360 -3 -25
23 c-25 23 -25 25 -19 133 7 129 18 173 53 215 53 63 139 90 278 87 87 -3 107
-7 154 -31z m-16334 -561 c14 -13 25 -32 25 -42 0 -10 2 -220 5 -467 4 -478 2
-501 -43 -525 -29 -15 -2311 -15 -2345 0 -36 16 -46 41 -73 180 -14 71 -47
223 -75 337 -49 199 -50 208 -35 240 36 75 175 197 301 264 l70 37 1073 1
1073 0 24 -25z m925 17 c41 -6 48 -12 89 -70 l44 -64 19 30 c25 39 83 77 150
97 49 14 480 15 4483 12 2911 -1 4439 -6 4458 -12 27 -10 27 -11 -63 -74 -162
-114 -247 -226 -271 -356 -20 -110 8 -249 70 -339 45 -64 149 -156 230 -201
93 -52 91 -68 -9 -76 -41 -4 -862 -7 -1823 -8 -1885 -1 -1793 -4 -1831 50 -8
13 -25 50 -36 84 -54 161 -229 285 -533 375 -377 112 -743 85 -1120 -84 -178
-80 -287 -187 -327 -323 -7 -24 -21 -50 -31 -59 -49 -44 -6 -43 -1686 -44
-1099 0 -1624 3 -1695 11 -57 6 -104 12 -106 14 -1 1 5 22 15 46 12 31 17 76
17 154 1 104 -1 113 -29 164 -79 142 -281 221 -455 177 -65 -16 -215 -85 -277
-126 l-33 -22 0 326 0 326 353 -1 c193 0 372 -4 397 -7z m15697 -16 c27 -24
28 -27 28 -128 0 -92 -3 -110 -29 -166 -52 -113 -126 -148 -300 -140 -180 9
-223 40 -375 279 -74 117 -82 134 -72 155 l11 24 354 0 355 0 28 -24z m-5682
-26 c146 -70 280 -306 307 -542 21 -191 -19 -370 -94 -416 -75 -47 -292 -52
-391 -10 -125 54 -277 320 -308 542 -22 159 18 351 84 398 85 61 302 76 402
28z m-13627 -408 c13 -9 97 -415 109 -523 9 -91 19 -89 -369 -89 -294 0 -328
2 -328 16 0 15 554 604 568 604 4 0 13 -4 20 -8z m8224 -177 c93 -47 147 -111
252 -304 31 -57 56 -105 56 -106 0 -27 -710 -38 -760 -12 -25 13 -25 13 -23
141 3 160 24 219 94 259 104 61 283 71 381 22z m-5011 -71 c17 -16 45 -60 64
-98 43 -85 49 -168 14 -205 -42 -44 -84 -55 -245 -59 l-151 -4 -21 27 c-46 58
-38 154 21 242 26 39 47 56 117 92 102 52 151 53 201 5z m-3168 -488 c4 -9
-22 -33 -71 -67 -112 -78 -255 -220 -322 -320 -109 -163 -154 -326 -148 -534
l3 -125 -263 0 -263 0 -24 25 c-23 22 -25 32 -25 112 0 242 64 435 254 763
101 175 54 160 487 160 302 0 368 -2 372 -14z m3165 -13 c2 -16 -40 -72 -159
-210 -88 -103 -167 -195 -175 -203 -12 -12 -14 16 -14 197 0 180 2 214 16 228
13 13 40 15 172 13 152 -3 157 -4 160 -25z m5294 16 c66 -35 63 -227 -6 -341
-43 -72 -99 -100 -213 -106 -129 -7 -226 20 -301 83 -35 29 -95 118 -172 253
-43 76 -50 95 -40 107 11 13 64 15 362 15 231 0 356 -4 370 -11z m-7891 -509
c30 -5 97 -31 149 -56 80 -40 109 -61 185 -138 72 -72 100 -110 137 -182 26
-50 50 -109 54 -132 l7 -42 -292 0 -292 0 -23 23 c-17 17 -27 44 -35 98 -9 60
-57 306 -78 406 -4 17 0 22 23 26 55 8 112 7 165 -3z m-352 -24 c6 -7 20 -62
31 -122 11 -60 31 -165 45 -233 14 -68 25 -130 25 -137 0 -12 -49 -14 -273
-14 l-274 0 -11 25 c-7 14 -12 33 -12 42 0 29 78 176 129 244 104 137 297 247
340 195z m82 -645 c37 -18 54 -53 82 -166 34 -132 137 -661 137 -698 0 -11
-25 -21 -92 -38 -80 -20 -119 -23 -278 -23 -256 -1 -409 34 -625 139 -294 145
-505 387 -589 679 -14 48 -26 95 -26 103 0 22 562 15 584 -7 8 -8 34 -53 57
-100 75 -155 149 -242 277 -329 103 -70 182 -103 239 -99 l48 3 -136 135 c-75
74 -152 156 -172 182 -37 49 -69 126 -81 190 l-7 37 138 4 c231 6 416 1 444
-12z m739 10 c59 -6 66 -9 88 -41 22 -33 23 -41 17 -120 -22 -262 -141 -463
-379 -639 -38 -28 -70 -50 -72 -48 -8 7 -135 595 -150 693 -19 120 -16 140 18
154 26 10 378 11 478 1z"/>
<path d="M41890 9886 c-225 -99 -320 -181 -351 -301 -30 -120 -65 -151 -158
-142 -48 5 -66 2 -121 -23 l-65 -29 30 -11 c87 -34 116 -42 174 -50 84 -11
109 -31 132 -105 50 -165 197 -282 476 -378 197 -69 282 -82 523 -82 184 1
229 4 314 23 123 27 315 91 392 130 142 71 241 176 279 294 10 29 24 60 32 70
19 22 136 64 219 80 72 13 86 28 59 58 -15 16 -32 20 -94 21 -98 0 -181 26
-197 59 -6 14 -26 56 -43 93 -55 120 -171 219 -340 292 l-83 35 -551 0 -552
-1 -75 -33z m715 -15 c84 -41 132 -98 229 -265 42 -73 76 -135 76 -139 0 -18
-132 -27 -421 -27 l-320 0 -24 25 c-23 22 -25 32 -25 118 0 148 40 240 121
283 105 54 260 56 364 5z m294 -565 c46 -49 37 -198 -20 -315 -28 -57 -37 -66
-85 -88 -143 -65 -371 -28 -452 74 -33 43 -147 217 -183 279 -42 75 -49 74
360 74 l358 0 22 -24z"/>
<path d="M46917 9863 c47 -183 162 -300 378 -386 113 -45 158 -56 265 -66 81
-7 84 -8 55 -20 -39 -17 -208 -28 -602 -40 -300 -9 -325 -11 -374 -32 l-53
-23 59 -28 60 -27 1220 0 1220 -1 50 24 50 24 -55 26 c-53 25 -63 26 -223 26
-155 0 -422 12 -657 28 l-95 7 127 33 c172 43 222 63 319 128 165 109 246 214
272 352 l7 32 -310 0 c-171 0 -310 -4 -310 -9 0 -5 6 -26 14 -48 12 -35 12
-49 -8 -139 -12 -54 -33 -118 -46 -141 -75 -134 -329 -165 -493 -61 -80 51
-189 214 -232 346 l-17 52 -318 0 -318 0 15 -57z"/>
<path d="M10537 1373 c-12 -12 -8 -1303 4 -1303 19 0 184 173 238 250 64 91
91 149 91 199 0 53 -36 103 -87 121 -38 12 -48 12 -96 -3 -68 -21 -73 -21 -97
3 -19 19 -20 33 -20 380 0 293 -2 360 -13 360 -8 0 -17 -3 -20 -7z m154 -823
c10 -6 26 -24 34 -41 15 -28 14 -33 -26 -127 -63 -148 -78 -175 -95 -168 -9 3
-20 6 -25 6 -14 0 -11 273 4 293 12 16 64 47 80 47 5 0 17 -5 28 -10z"/>
<path d="M26617 1373 c-10 -10 -8 -1313 2 -1313 4 0 62 53 127 118 202 200
259 338 175 423 -42 42 -92 51 -184 35 l-77 -13 0 378 c0 361 -1 379 -18 379
-10 0 -22 -3 -25 -7z m173 -840 c27 -22 31 -31 26 -56 -9 -47 -110 -277 -121
-277 -33 0 -36 18 -37 166 0 148 0 149 27 171 34 30 66 29 105 -4z"/>
<path d="M48280 700 c0 -363 4 -660 8 -660 12 0 219 224 270 292 50 66 66 132
52 210 -22 115 -72 137 -198 87 -24 -10 -37 -11 -50 -3 -15 10 -18 45 -23 370
-3 197 -7 360 -7 362 -1 1 -13 2 -27 2 l-25 0 0 -660z m185 -177 c16 -25 28
-58 27 -71 -2 -29 -102 -242 -113 -242 -36 0 -39 10 -39 147 l0 135 42 39 c24
22 45 39 48 39 3 0 18 -21 35 -47z"/>
<path d="M9608 1293 l-58 -4 0 -634 0 -635 133 -2 c199 -4 322 1 421 18 207
34 258 94 272 318 11 172 -27 252 -159 336 l-55 34 44 39 c25 22 54 56 64 77
42 82 42 218 0 299 -31 62 -78 96 -166 119 -144 39 -278 48 -496 35z m361
-174 c118 -19 161 -56 161 -140 0 -80 -53 -148 -133 -170 -23 -7 -94 -19 -157
-28 l-115 -17 -7 71 c-8 82 0 262 14 288 8 15 19 17 91 12 45 -3 111 -11 146
-16z m43 -534 c114 -15 142 -30 170 -92 17 -38 20 -61 16 -123 -5 -91 -31
-141 -87 -169 -47 -24 -165 -34 -291 -26 l-100 8 0 214 0 215 98 -7 c53 -4
141 -13 194 -20z"/>
<path d="M20593 1293 l-63 -4 0 -645 0 -645 63 6 c34 3 153 12 264 20 256 19
334 30 382 55 51 26 97 82 110 136 7 27 11 187 11 442 0 326 -3 408 -15 449
-38 127 -183 180 -515 187 -96 2 -203 2 -237 -1z m504 -181 c28 -15 50 -37 65
-65 22 -41 23 -52 25 -337 2 -162 0 -323 -3 -357 -7 -77 -34 -120 -94 -150
-41 -21 -58 -23 -212 -23 l-168 0 0 474 c0 370 3 476 13 480 6 3 84 4 172 3
143 -2 164 -5 202 -25z"/>
<path d="M25735 1289 c-3 -8 -4 -295 -3 -639 l3 -625 343 -3 343 -2 -3 77 -3
78 -252 3 -253 2 0 210 0 210 163 1 c300 1 318 10 276 147 l-11 32 -214 0
-214 0 0 185 0 185 265 0 c146 0 265 2 265 5 0 11 -62 114 -75 125 -8 7 -116
13 -319 17 -258 5 -306 4 -311 -8z"/>
<path d="M47332 1288 c-12 -6 -25 -21 -28 -32 -2 -12 -3 -285 -2 -608 l3 -587
22 -22 22 -22 233 12 c128 7 270 17 316 21 199 21 251 100 239 362 -7 150 -16
171 -90 229 -90 71 -93 97 -23 199 20 28 41 71 47 93 37 136 -57 297 -188 325
-46 10 -235 25 -438 36 -54 2 -99 0 -113 -6z m366 -148 c132 -22 181 -61 190
-151 12 -130 -96 -209 -289 -209 -62 0 -79 4 -97 21 -22 19 -22 26 -20 172 3
150 3 152 28 164 30 15 103 16 188 3z m-28 -560 c98 -13 225 -45 256 -65 26
-17 35 -81 24 -172 -10 -78 -30 -104 -115 -144 -56 -27 -68 -29 -187 -29 -167
0 -168 1 -168 139 0 92 21 235 41 272 9 17 9 17 149 -1z"/>
<path d="M15401 1280 c-90 -19 -168 -51 -200 -82 -69 -67 -66 -46 -66 -538 l0
-445 24 -48 c28 -57 76 -93 146 -107 28 -6 125 -13 216 -17 135 -5 179 -3 241
11 137 31 197 98 206 232 5 77 -6 111 -50 152 l-25 22 -41 -30 c-30 -21 -50
-48 -70 -93 -54 -118 -131 -172 -247 -172 -86 0 -144 29 -189 92 -26 38 -30
53 -38 160 -6 65 -7 219 -4 343 5 221 6 226 33 280 23 44 38 59 82 82 141 74
313 -1 372 -163 19 -54 73 -88 115 -74 45 17 67 56 67 122 -1 122 -73 211
-205 252 -82 26 -286 38 -367 21z"/>
<path d="M31320 660 l0 -630 85 0 85 0 0 290 0 290 255 0 255 0 0 85 0 85
-250 0 -250 0 0 180 0 179 249 3 c228 3 251 5 270 22 23 21 27 59 11 100 l-10
26 -350 0 -350 0 0 -630z"/>
<path d="M36938 1270 c-142 -35 -197 -79 -218 -172 -8 -37 -11 -178 -8 -468 3
-413 3 -415 27 -463 30 -61 74 -90 176 -118 108 -30 321 -33 407 -6 79 25 147
74 183 132 l30 48 3 224 3 223 -219 0 -219 0 5 -57 c2 -32 9 -63 14 -70 11
-14 45 -22 158 -37 l85 -12 0 -99 c0 -124 -16 -158 -90 -195 -44 -22 -63 -25
-150 -24 -115 0 -166 19 -207 76 l-23 33 0 370 0 370 24 39 c35 55 85 76 192
76 150 0 216 -33 258 -131 13 -33 33 -57 64 -78 l45 -31 31 42 c17 23 32 53
33 67 9 151 -62 226 -252 266 -98 21 -256 18 -352 -5z"/>
<path d="M42357 1259 c-34 -32 -41 -51 -141 -399 -212 -735 -230 -802 -219
-819 7 -11 28 -17 62 -19 46 -3 55 0 80 26 16 16 34 49 41 73 33 129 43 154
75 186 l33 33 106 0 c171 0 188 -13 255 -185 37 -96 56 -122 96 -133 35 -10
91 2 98 21 4 12 -146 572 -284 1056 -47 168 -55 178 -127 188 -35 5 -44 1 -75
-28z m134 -492 c34 -131 59 -240 57 -243 -3 -2 -64 -3 -135 -2 l-130 3 64 235
c69 254 74 270 79 255 2 -5 31 -117 65 -248z"/>
</g>
</svg>
