<?xml version="1.0" standalone="no"?>
<!DOCTYPE svg PUBLIC "-//W3C//DTD SVG 20010904//EN"
 "http://www.w3.org/TR/2001/REC-SVG-20010904/DTD/svg10.dtd">
<svg version="1.0" xmlns="http://www.w3.org/2000/svg"
 width="5286.000000pt" height="1258.000000pt" viewBox="0 0 5286.000000 1258.000000"
 preserveAspectRatio="xMidYMid meet">

<g transform="translate(0.000000,1258.000000) scale(0.100000,-0.100000)"
fill="#000000" stroke="none">
<path d="M2565 12517 c-359 -450 -526 -1026 -552 -1904 l-6 -223 -948 0 -949
0 -6 -25 c-19 -77 -26 -76 971 -84 852 -6 864 -6 892 -27 41 -30 62 -80 89
-212 28 -139 31 -230 8 -275 -10 -18 -47 -63 -84 -102 -36 -38 -114 -124 -172
-191 -115 -131 -153 -164 -226 -197 -46 -21 -57 -21 -707 -24 -575 -3 -667 -5
-717 -20 -60 -17 -64 -23 -52 -70 l6 -23 684 -2 683 -3 -190 -360 c-251 -475
-318 -596 -337 -619 -38 -43 -65 -46 -414 -46 -332 0 -333 0 -385 -25 -51 -23
-60 -36 -47 -69 5 -14 48 -16 381 -16 l374 0 -7 -132 c-3 -73 -14 -306 -23
-518 l-16 -385 -349 -3 c-368 -2 -366 -2 -366 -48 0 -15 13 -27 49 -44 48 -22
57 -23 378 -24 397 -1 364 11 448 -162 176 -359 418 -594 800 -775 74 -35 135
-67 135 -71 0 -15 -93 -17 -890 -22 -752 -3 -829 -5 -873 -21 -46 -17 -49 -19
-43 -48 3 -16 6 -32 6 -36 0 -4 593 -7 1318 -6 724 0 1329 -3 1344 -7 35 -10
41 -31 78 -278 17 -113 40 -244 51 -292 23 -106 25 -291 5 -389 -39 -184 -157
-372 -309 -493 -203 -162 -501 -206 -700 -104 -48 24 -49 23 88 103 178 105
263 212 301 384 42 186 -28 426 -165 573 -124 132 -277 161 -437 83 -190 -93
-306 -372 -274 -657 30 -265 172 -489 372 -587 123 -61 191 -76 338 -75 151 0
249 23 387 89 273 132 472 415 514 730 14 112 12 143 -52 558 -29 185 -50 339
-47 342 2 3 2342 4 5199 3 l5194 -3 -65 -50 c-152 -116 -224 -205 -260 -323
-22 -71 -26 -197 -9 -271 51 -224 288 -403 618 -468 366 -71 875 80 1033 306
65 92 82 151 82 271 -1 117 -19 181 -79 275 -34 54 -143 160 -218 215 -26 18
-47 39 -47 47 0 10 374 13 2108 15 l2107 3 40 -22 c37 -19 44 -30 73 -105 39
-103 108 -196 193 -260 186 -140 566 -213 855 -163 305 53 521 185 610 372 42
90 71 128 117 154 l42 24 16173 -4 16172 -4 0 66 0 67 -13527 0 -13527 0 45
37 c152 129 215 210 249 321 35 114 23 258 -31 364 -23 45 -113 143 -202 220
l-68 58 2131 -2 2131 -3 25 -75 c37 -108 78 -176 155 -252 108 -107 249 -165
489 -202 295 -45 503 -20 725 89 164 80 283 198 324 323 20 59 74 119 119 132
25 7 3367 10 10500 10 l10462 0 0 60 0 60 -7826 0 -7826 0 94 89 c111 105 160
173 194 265 65 180 6 347 -196 548 -93 92 -105 107 -86 112 11 3 955 6 2097 7
2047 2 2077 2 2110 -17 26 -16 47 -45 89 -129 79 -154 157 -236 288 -303 200
-102 337 -136 552 -135 134 0 168 3 251 26 172 45 330 118 415 191 40 34 77
80 218 274 l68 92 4779 0 4779 0 0 65 0 65 -2110 0 -2110 0 80 76 c143 137
200 252 200 403 0 90 -20 175 -57 243 -31 57 -150 173 -242 238 l-64 45 2152
3 2151 2 0 65 0 65 -25170 2 -25170 3 115 165 c116 166 187 298 326 603 70
156 83 175 144 217 l44 30 24855 0 24856 0 0 60 0 60 -24891 0 -24891 0 6 33
c46 220 67 556 47 767 -31 329 -134 674 -297 1004 -59 118 -206 376 -214 376
-3 0 -27 -28 -55 -63z m206 -634 c53 -48 131 -208 160 -328 18 -77 20 -111 16
-230 -4 -123 -8 -152 -37 -240 -68 -209 -261 -629 -305 -663 -26 -21 -37 -22
-238 -22 l-210 0 7 148 c20 443 98 796 247 1109 74 156 188 261 281 263 30 0
47 -8 79 -37z m-277 -1625 c-4 -7 -75 -95 -158 -196 -100 -122 -152 -179 -157
-170 -4 7 -10 95 -14 196 l-7 182 171 0 c135 0 171 -3 165 -12z m22528 -1118
l22490 0 -80 -88 c-327 -359 -343 -533 -75 -837 74 -85 80 -94 60 -99 -12 -3
-942 -6 -2066 -6 l-2043 0 -39 22 c-21 12 -76 67 -122 122 -166 202 -316 304
-543 372 -70 21 -118 27 -223 31 -194 8 -332 -22 -502 -107 -132 -65 -195
-115 -267 -208 -101 -130 -172 -203 -217 -221 -37 -15 -1639 -16 -19435 -11
l-19395 5 -31 22 c-17 13 -38 37 -47 55 -32 70 -147 779 -134 830 4 14 25 50
48 78 41 52 42 52 87 46 24 -3 10165 -6 22534 -6z m23119 -47 c85 -42 147 -98
203 -182 87 -130 151 -323 163 -491 5 -75 3 -92 -16 -135 -12 -28 -34 -62 -48
-77 -63 -66 -276 -120 -388 -98 -202 40 -379 224 -446 466 -29 102 -31 273 -4
348 53 151 152 207 360 203 102 -2 115 -4 176 -34z m-45867 -333 c47 -252 106
-604 106 -627 0 -11 -83 -13 -438 -13 -429 0 -437 0 -450 20 -12 19 5 42 206
273 120 139 287 332 372 430 85 98 156 175 157 170 1 -4 23 -118 47 -253z
m40159 -247 c115 -54 214 -174 272 -327 l25 -66 -409 0 c-298 0 -412 3 -417
11 -4 7 -7 55 -7 108 0 79 4 104 23 144 51 108 184 169 355 164 77 -2 100 -7
158 -34z m-40402 -529 l75 -7 -102 -101 c-232 -231 -334 -475 -334 -798 l0
-108 -251 0 -252 0 6 193 c6 205 23 309 82 482 38 112 135 314 159 331 16 11
73 14 282 14 143 0 294 -3 335 -6z m40737 -28 c54 -61 56 -185 5 -278 -41 -76
-136 -136 -251 -158 -240 -48 -482 125 -582 415 l-19 55 409 0 408 0 30 -34z
m-6761 -56 c-141 -147 -206 -251 -233 -370 -19 -82 -10 -159 29 -243 32 -69
130 -189 211 -257 l65 -55 -52 -7 c-29 -3 -967 -6 -2085 -7 -1705 -1 -2038 1
-2065 13 -43 18 -76 57 -122 141 -50 91 -186 228 -273 274 -151 79 -376 132
-562 132 -183 1 -341 -42 -494 -131 -97 -57 -153 -106 -258 -228 -50 -59 -108
-126 -130 -149 l-38 -43 -13224 0 -13224 0 -7 98 c-25 361 -139 622 -369 840
l-76 72 16491 0 16492 0 -76 -80z m738 31 c157 -78 266 -215 326 -411 18 -58
23 -99 24 -185 0 -103 -2 -114 -32 -177 -58 -123 -150 -184 -294 -195 -138
-11 -262 40 -380 157 -136 135 -201 300 -203 515 -1 117 0 122 32 188 60 121
139 159 323 155 114 -3 117 -4 204 -47z m-33887 -366 c168 -85 303 -306 337
-553 l7 -54 -225 4 c-224 3 -226 3 -252 28 -15 14 -33 36 -40 50 -11 21 -95
489 -95 529 0 19 41 30 121 30 68 1 84 -3 147 -34z m-395 -10 c20 -21 29 -48
46 -138 29 -157 71 -412 71 -431 0 -14 -32 -16 -320 -16 l-320 0 0 28 c0 46
27 154 53 219 68 167 213 313 346 349 70 19 96 17 124 -11z m28538 -164 c66
-25 140 -81 189 -144 38 -48 121 -204 135 -255 l6 -22 -418 2 -418 3 -3 89
c-4 113 15 178 67 238 91 103 295 144 442 89z m-29315 -571 c14 -14 58 -67 96
-118 81 -107 167 -183 253 -223 66 -31 130 -48 124 -32 -2 5 -51 85 -108 177
-92 149 -103 171 -95 195 l10 26 297 -1 c208 -1 302 -5 311 -13 8 -7 22 -28
31 -47 16 -34 69 -308 116 -602 l23 -144 -24 -19 c-42 -33 -162 -88 -230 -106
-102 -27 -298 -23 -422 10 -315 83 -601 313 -750 602 -46 90 -90 215 -101 289
l-6 38 224 -4 c222 -4 224 -4 251 -28z m22972 13 c-8 -10 -45 -53 -82 -96
-148 -172 -209 -294 -209 -417 0 -129 53 -229 211 -392 51 -53 90 -98 85 -101
-4 -3 -944 -6 -2088 -8 -1893 -3 -2083 -2 -2110 13 -41 22 -55 40 -106 136
-79 150 -191 248 -363 318 -280 112 -545 122 -821 30 -250 -84 -380 -188 -474
-381 -27 -55 -48 -85 -69 -98 -29 -16 -402 -17 -7852 -17 l-7822 0 -39 22
c-31 17 -38 26 -33 42 16 53 44 88 102 131 227 166 410 414 498 675 28 83 37
99 74 128 l42 32 10535 0 c10033 0 10535 -1 10521 -17z m6550 10 l143 -6 27
-34 c25 -34 26 -35 13 -111 -22 -128 -40 -172 -96 -228 -153 -154 -434 -118
-611 79 -70 78 -144 229 -144 294 0 10 52 13 263 13 144 0 326 -3 405 -7z
m-28002 -78 c-14 -159 -65 -296 -160 -439 -55 -81 -190 -235 -198 -226 -5 5
-128 707 -128 728 0 9 67 12 246 12 l247 0 -7 -75z m22130 31 c116 -57 224
-168 286 -296 58 -119 81 -220 76 -337 -6 -152 -73 -254 -204 -308 -60 -25
-82 -29 -169 -29 -92 -1 -105 2 -165 30 -254 121 -409 426 -370 728 17 137 62
199 173 238 42 15 76 18 173 16 117 -3 122 -4 200 -42z m-5824 -517 c181 -39
340 -199 401 -406 l16 -53 -390 0 c-249 0 -397 4 -410 10 -38 21 -52 68 -45
148 13 155 97 256 248 296 66 18 112 19 180 5z m295 -579 c95 0 103 -2 133
-26 60 -51 63 -70 30 -175 -39 -124 -65 -167 -124 -207 -218 -146 -517 -29
-658 258 -26 52 -50 107 -54 122 l-6 27 133 4 c74 2 204 3 289 1 85 -2 201 -4
257 -4z m-5863 -54 c170 -84 294 -296 351 -600 27 -142 6 -218 -80 -294 -71
-62 -207 -98 -348 -90 -258 13 -487 336 -487 687 0 178 79 288 234 327 31 8
92 12 153 10 95 -2 108 -5 177 -40z"/>
<path d="M7763 4030 c-125 -12 -242 -43 -343 -92 -75 -36 -99 -54 -205 -162
-163 -166 -172 -170 -388 -176 -162 -5 -170 -6 -188 -29 -20 -24 -22 -47 -10
-91 l7 -25 194 -5 c233 -7 239 -9 306 -110 84 -128 202 -211 345 -244 253 -59
611 -77 812 -43 262 45 416 141 516 319 30 53 35 57 82 67 28 6 135 11 239 11
l189 0 6 44 c8 52 -5 83 -41 96 -14 6 -105 10 -203 10 -103 0 -191 5 -209 11
-21 7 -47 32 -76 73 -165 231 -405 335 -806 350 -74 2 -176 0 -227 -4z m213
-84 c136 -36 269 -145 338 -275 l37 -71 -394 0 -393 0 -27 28 c-50 53 -30 173
41 239 85 79 266 114 398 79z m438 -522 c11 -29 6 -135 -8 -162 -24 -45 -77
-89 -149 -122 -80 -38 -191 -50 -289 -31 -138 27 -287 129 -355 242 -59 99
-101 89 375 89 374 0 421 -2 426 -16z"/>
<path d="M7811 1774 c-126 -37 -215 -88 -297 -169 -111 -110 -163 -220 -185
-392 -14 -108 -2 -218 35 -324 67 -193 218 -340 412 -403 66 -22 199 -33 295
-25 169 14 336 101 426 222 45 61 98 165 89 174 -8 8 -177 -18 -211 -32 -16
-6 -61 -36 -100 -65 -169 -128 -319 -150 -483 -69 -173 85 -273 291 -244 499
30 208 119 330 287 392 48 17 83 22 175 22 135 1 163 -10 245 -94 28 -28 73
-63 100 -78 43 -23 62 -26 138 -26 48 1 90 4 93 7 15 15 -65 137 -137 208
-125 125 -262 179 -450 178 -80 0 -123 -6 -188 -25z"/>
<path d="M30772 1780 c-97 -26 -152 -51 -228 -106 -116 -82 -197 -199 -246
-354 -33 -106 -33 -273 0 -380 74 -234 229 -390 462 -461 59 -18 98 -23 185
-23 197 1 329 54 460 188 129 130 189 278 183 449 l-3 82 -353 3 -353 2 3 -87
3 -88 233 -3 234 -2 -7 -33 c-12 -57 -62 -155 -104 -200 -24 -26 -66 -56 -104
-73 -58 -27 -70 -29 -192 -29 -125 0 -132 1 -197 32 -88 41 -148 98 -191 181
-48 91 -61 159 -55 279 15 276 183 443 448 446 84 1 102 -2 154 -26 32 -15 87
-53 121 -85 44 -42 76 -63 111 -73 47 -13 189 -18 200 -6 3 3 -6 29 -21 59
-79 157 -214 263 -393 309 -100 25 -250 25 -350 -1z"/>
<path d="M47896 1780 c-99 -26 -221 -90 -287 -149 -158 -141 -239 -368 -210
-591 34 -270 186 -459 436 -546 73 -26 93 -28 220 -28 155 -1 222 13 332 65
117 55 220 176 252 293 l10 38 -57 -6 c-137 -16 -159 -24 -228 -85 -138 -123
-267 -154 -437 -106 -162 47 -268 170 -303 352 -18 95 -18 161 1 241 51 217
224 352 450 352 114 0 163 -20 251 -101 41 -39 90 -77 107 -84 79 -32 217 -30
217 3 0 41 -54 128 -114 187 -155 152 -428 222 -640 165z"/>
<path d="M36595 1783 c-61 -17 -102 -74 -125 -173 -7 -30 -28 -95 -47 -145
-35 -90 -271 -749 -323 -902 -24 -68 -26 -84 -15 -99 12 -17 17 -16 94 6 87
25 131 51 131 78 0 32 47 118 79 145 18 14 49 31 69 36 57 16 440 4 467 -13
23 -15 35 -42 56 -120 15 -60 58 -111 105 -126 36 -12 127 -7 153 9 10 7 -31
133 -193 592 -113 321 -216 604 -228 628 -33 63 -63 82 -139 86 -35 2 -73 1
-84 -2z m170 -558 c54 -154 100 -286 102 -292 4 -10 -40 -13 -201 -13 -151 0
-206 3 -206 12 0 6 41 129 91 272 110 314 109 310 113 305 2 -2 47 -130 101
-284z"/>
<path d="M13480 1770 l-165 -5 -3 -646 -2 -647 127 -7 c183 -11 420 1 523 25
287 69 456 277 485 595 12 135 -30 306 -101 414 -79 118 -185 197 -328 240
-68 21 -254 43 -331 39 -22 -1 -114 -5 -205 -8z m413 -181 c143 -28 253 -139
313 -319 27 -81 25 -225 -4 -311 -30 -87 -96 -185 -158 -232 -81 -62 -161 -81
-344 -82 l-155 0 -3 477 -2 477 82 4 c101 4 207 -1 271 -14z"/>
<path d="M19237 1773 c-4 -3 -7 -296 -7 -650 l0 -643 360 0 360 0 0 58 c0 31
-3 67 -6 80 l-6 22 -244 0 -244 0 0 205 0 205 223 0 222 0 -3 67 c-5 125 20
113 -227 113 l-215 0 0 190 0 190 245 0 245 0 0 85 0 85 -348 0 c-192 0 -352
-3 -355 -7z"/>
<path d="M41958 1773 l-48 -4 0 -649 0 -648 148 -7 c81 -4 219 -5 307 -2 228
9 314 35 401 123 63 62 87 121 88 214 1 91 -21 141 -119 275 l-67 89 29 20
c92 66 128 137 128 256 0 76 -4 93 -33 152 -39 80 -95 130 -179 160 -53 19
-82 21 -333 23 -151 2 -296 1 -322 -2z m552 -195 c108 -55 122 -225 27 -302
l-39 -31 -189 -3 -189 -3 0 180 0 181 173 0 c159 0 176 -2 217 -22z m22 -555
c31 -14 56 -35 75 -64 24 -37 28 -52 28 -113 -1 -85 -19 -125 -74 -161 -50
-34 -126 -45 -298 -45 l-143 0 0 199 c0 181 2 200 18 205 9 3 91 4 182 2 142
-2 172 -5 212 -23z"/>
<path d="M24910 1120 l0 -651 108 3 107 3 3 283 2 282 205 0 205 0 0 90 0 90
-205 0 -205 0 0 195 0 195 270 0 270 0 0 80 0 80 -380 0 -380 0 0 -650z"/>
</g>
</svg>
