<?xml version="1.0" encoding="utf-8"?>
<!-- Generator: Adobe Illustrator 26.0.2, SVG Export Plug-In . SVG Version: 6.00 Build 0)  -->
<svg version="1.1" id="Layer_1" xmlns="http://www.w3.org/2000/svg" xmlns:xlink="http://www.w3.org/1999/xlink" x="0px" y="0px"
	 viewBox="0 0 641 183.8" style="enable-background:new 0 0 641 183.8;" xml:space="preserve">
<style type="text/css">
	.st0{fill:none;stroke:#000000;stroke-width:0.5;stroke-miterlimit:10;}
	.st1{fill:none;stroke:#7C287D;stroke-width:1.5;stroke-miterlimit:10;}
	.st2{fill:none;stroke:#67BF75;stroke-miterlimit:10;}
</style>
<line id="XMLID_7_" class="st0" x1="107.7" y1="122" x2="138.4" y2="122"/>
<g id="XMLID_6_">
	<line id="XMLID_171_" class="st0" x1="0" y1="40.5" x2="641" y2="40.5"/>
	<line id="XMLID_170_" class="st0" x1="-0.2" y1="20.2" x2="640.8" y2="20.2"/>
	<line id="XMLID_169_" class="st0" x1="0" y1="60.8" x2="641" y2="60.8"/>
	<line id="XMLID_168_" class="st0" x1="0" y1="81.2" x2="641" y2="81.2"/>
	<line id="XMLID_167_" class="st0" x1="0" y1="101.5" x2="641" y2="101.5"/>
</g>
<line id="XMLID_166_" class="st0" x1="145" y1="173.7" x2="145" y2="111.8"/>
<circle id="XMLID_165_" class="st1" cx="155" cy="111.8" r="10.2"/>
<line id="XMLID_163_" class="st0" x1="113.1" y1="183.8" x2="113.1" y2="122"/>
<circle id="XMLID_162_" class="st1" cx="123" cy="122" r="10.2"/>
<line id="XMLID_160_" class="st0" x1="177" y1="163.3" x2="177" y2="101.5"/>
<circle id="XMLID_159_" class="st1" cx="186.9" cy="101.5" r="10.2"/>
<line id="XMLID_157_" class="st0" x1="208.9" y1="153.2" x2="208.9" y2="91.3"/>
<circle id="XMLID_156_" class="st1" cx="218.8" cy="91.3" r="10.2"/>
<line id="XMLID_13_" class="st0" x1="600" y1="121.9" x2="630.7" y2="121.9"/>
<line id="XMLID_154_" class="st0" x1="240.8" y1="142.7" x2="240.8" y2="80.9"/>
<circle id="XMLID_153_" class="st1" cx="250.7" cy="80.9" r="10.2"/>
<line id="XMLID_151_" class="st0" x1="272.8" y1="132.8" x2="272.8" y2="71"/>
<circle id="XMLID_150_" class="st1" cx="282.7" cy="71" r="10.2"/>
<line id="XMLID_147_" class="st0" x1="304.7" y1="122.8" x2="304.7" y2="61"/>
<circle id="XMLID_146_" class="st1" cx="314.6" cy="61" r="10.2"/>
<line id="XMLID_144_" class="st0" x1="336.6" y1="112.6" x2="336.6" y2="50.7"/>
<circle id="XMLID_143_" class="st1" cx="346.5" cy="50.7" r="10.2"/>
<line id="XMLID_140_" class="st0" x1="413.8" y1="124.3" x2="413.8" y2="62.5"/>
<circle id="XMLID_139_" class="st1" cx="423.7" cy="62.5" r="10.2"/>
<line id="XMLID_137_" class="st0" x1="381.9" y1="112.5" x2="381.9" y2="50.7"/>
<circle id="XMLID_136_" class="st1" cx="391.8" cy="50.7" r="10.2"/>
<line id="XMLID_134_" class="st0" x1="445.8" y1="133.2" x2="445.8" y2="71.4"/>
<circle id="XMLID_133_" class="st1" cx="455.7" cy="71.4" r="10.2"/>
<line id="XMLID_131_" class="st0" x1="477.7" y1="143.6" x2="477.7" y2="81.7"/>
<circle id="XMLID_130_" class="st1" cx="487.6" cy="81.7" r="10.2"/>
<line id="XMLID_128_" class="st0" x1="509.6" y1="153.2" x2="509.6" y2="91.3"/>
<circle id="XMLID_127_" class="st1" cx="519.5" cy="91.3" r="10.2"/>
<line id="XMLID_125_" class="st0" x1="541.5" y1="164.2" x2="541.5" y2="102.3"/>
<circle id="XMLID_124_" class="st1" cx="551.5" cy="102.3" r="10.2"/>
<line id="XMLID_121_" class="st0" x1="573.5" y1="173.5" x2="573.5" y2="111.7"/>
<circle id="XMLID_120_" class="st1" cx="583.4" cy="111.7" r="10.2"/>
<line id="XMLID_118_" class="st0" x1="605.4" y1="184.7" x2="605.4" y2="122.8"/>
<circle id="XMLID_117_" class="st1" cx="615.3" cy="122.8" r="10.2"/>
<g id="XMLID_3028_">
	<path id="XMLID_3029_" d="M126.5,126.7c-0.5,0.2-1.4,0.5-2.7,0.5c-2.8,0-5-1.8-5-5.1c0-3.2,2.1-5.3,5.3-5.3c1.2,0,2.1,0.3,2.4,0.5
		l-0.3,1.1c-0.5-0.2-1.2-0.4-2-0.4c-2.4,0-3.9,1.5-3.9,4.2c0,2.5,1.4,4.1,3.9,4.1c0.8,0,1.6-0.2,2.1-0.4L126.5,126.7z"/>
</g>
<g id="XMLID_3025_">
	<path id="XMLID_3026_" d="M619.3,127.8c-0.5,0.2-1.4,0.5-2.7,0.5c-2.8,0-5-1.8-5-5.1c0-3.2,2.1-5.3,5.3-5.3c1.2,0,2.1,0.3,2.4,0.5
		l-0.3,1.1c-0.5-0.2-1.2-0.4-2-0.4c-2.4,0-3.9,1.5-3.9,4.2c0,2.5,1.4,4.1,3.9,4.1c0.8,0,1.6-0.2,2.1-0.4L619.3,127.8z"/>
</g>
<g id="XMLID_3021_">
	<path id="XMLID_3022_" d="M151.4,106.6c0.8-0.1,1.7-0.2,2.8-0.2c1.9,0,3.2,0.5,4.1,1.3c0.9,0.8,1.4,2,1.4,3.6c0,1.7-0.5,3-1.5,3.9
		c-1,0.9-2.5,1.5-4.5,1.5c-0.9,0-1.7,0-2.4-0.1V106.6z M152.7,115.5c0.3,0,0.8,0.1,1.3,0.1c2.8,0,4.3-1.6,4.3-4.3
		c0-2.4-1.3-3.9-4.1-3.9c-0.7,0-1.2,0.1-1.5,0.1V115.5z"/>
</g>
<g id="XMLID_3017_">
	<path id="XMLID_3018_" d="M580.2,107.2c0.8-0.1,1.7-0.2,2.8-0.2c1.9,0,3.2,0.5,4.1,1.3c0.9,0.8,1.4,2,1.4,3.6c0,1.7-0.5,3-1.5,3.9
		c-1,0.9-2.5,1.5-4.5,1.5c-0.9,0-1.7,0-2.4-0.1V107.2z M581.5,116.1c0.3,0,0.8,0.1,1.3,0.1c2.8,0,4.3-1.6,4.3-4.3
		c0-2.4-1.3-3.9-4.1-3.9c-0.7,0-1.2,0.1-1.5,0.1V116.1z"/>
</g>
<g id="XMLID_3014_">
	<path id="XMLID_3015_" d="M189.5,101.6h-3.9v3.6h4.4v1.1h-5.7V96.2h5.5v1.1h-4.2v3.2h3.9V101.6z"/>
</g>
<g id="XMLID_3011_">
	<path id="XMLID_3012_" d="M553.9,102.4H550v3.6h4.4v1.1h-5.7V97h5.5v1.1H550v3.2h3.9V102.4z"/>
</g>
<g id="XMLID_3008_">
	<path id="XMLID_3009_" d="M216.5,85.9h5.4V87h-4.1v3.4h3.8v1.1h-3.8V96h-1.3V85.9z"/>
</g>
<g id="XMLID_3005_">
	<path id="XMLID_3006_" d="M516.8,85.9h5.4V87h-4.1v3.4h3.8v1.1h-3.8V96h-1.3V85.9z"/>
</g>
<line id="XMLID_104_" class="st2" x1="333.8" y1="40.6" x2="358.1" y2="40.6"/>
<g id="XMLID_3002_">
	<path id="XMLID_3003_" d="M254.6,85.6c-0.6,0.2-1.8,0.6-3.1,0.6c-1.5,0-2.8-0.4-3.8-1.3c-0.9-0.8-1.4-2.2-1.4-3.8
		c0-3,2.1-5.2,5.5-5.2c1.2,0,2.1,0.3,2.5,0.5l-0.3,1.1c-0.5-0.3-1.2-0.4-2.2-0.4c-2.5,0-4.1,1.5-4.1,4.1c0,2.6,1.5,4.1,3.9,4.1
		c0.9,0,1.4-0.1,1.7-0.3v-3h-2v-1h3.3V85.6z"/>
</g>
<g id="XMLID_2999_">
	<path id="XMLID_3000_" d="M491.1,86.1c-0.6,0.2-1.8,0.6-3.1,0.6c-1.5,0-2.8-0.4-3.8-1.3c-0.9-0.8-1.4-2.2-1.4-3.8
		c0-3,2.1-5.2,5.5-5.2c1.2,0,2.1,0.3,2.5,0.5l-0.3,1.1c-0.5-0.3-1.2-0.4-2.2-0.4c-2.5,0-4.1,1.5-4.1,4.1c0,2.6,1.5,4.1,3.9,4.1
		c0.9,0,1.4-0.1,1.7-0.3v-3h-2v-1h3.3V86.1z"/>
</g>
<g id="XMLID_2995_">
	<path id="XMLID_2996_" d="M281,72.1l-1,3.2h-1.4l3.4-10.1h1.6l3.4,10.1h-1.4l-1.1-3.2H281z M284.3,71.1l-1-2.9
		c-0.2-0.7-0.4-1.3-0.5-1.8h0c-0.1,0.6-0.3,1.2-0.5,1.8l-1,2.9H284.3z"/>
</g>
<g id="XMLID_2991_">
	<path id="XMLID_2992_" d="M453.8,72.1l-1,3.2h-1.3l3.4-10.1h1.6l3.4,10.1h-1.4l-1.1-3.2H453.8z M457.2,71.1l-1-2.9
		c-0.2-0.7-0.4-1.3-0.5-1.8h0c-0.2,0.6-0.3,1.2-0.5,1.8l-1,2.9H457.2z"/>
</g>
<g id="XMLID_2986_">
	<path id="XMLID_2987_" d="M312,56c0.6-0.1,1.5-0.2,2.4-0.2c1.3,0,2.1,0.2,2.8,0.7c0.5,0.4,0.9,1,0.9,1.8c0,1-0.7,1.8-1.7,2.2v0
		c1,0.2,2.1,1,2.1,2.5c0,0.9-0.3,1.5-0.9,2c-0.7,0.6-1.8,0.9-3.5,0.9c-0.9,0-1.6-0.1-2-0.1V56z M313.3,60.2h1.2
		c1.4,0,2.2-0.7,2.2-1.7c0-1.2-0.9-1.6-2.2-1.6c-0.6,0-0.9,0-1.2,0.1V60.2z M313.3,65c0.3,0,0.6,0.1,1.1,0.1c1.3,0,2.6-0.5,2.6-2
		c0-1.4-1.2-1.9-2.6-1.9h-1.1V65z"/>
</g>
<g id="XMLID_2981_">
	<path id="XMLID_2982_" d="M420.3,58.1c0.6-0.1,1.5-0.2,2.4-0.2c1.3,0,2.1,0.2,2.8,0.7c0.5,0.4,0.9,1,0.9,1.8c0,1-0.7,1.8-1.7,2.2v0
		c1,0.2,2.1,1,2.1,2.5c0,0.9-0.3,1.5-0.9,2c-0.7,0.6-1.8,0.9-3.5,0.9c-0.9,0-1.6-0.1-2-0.1V58.1z M421.6,62.3h1.2
		c1.4,0,2.2-0.7,2.2-1.7c0-1.2-0.9-1.6-2.2-1.6c-0.6,0-0.9,0-1.2,0.1V62.3z M421.6,67.1c0.3,0,0.6,0.1,1.1,0.1c1.3,0,2.6-0.5,2.6-2
		c0-1.4-1.2-1.9-2.6-1.9h-1.1V67.1z"/>
</g>
<g id="XMLID_2978_">
	<path id="XMLID_2979_" d="M349.9,55.8c-0.5,0.2-1.4,0.5-2.7,0.5c-2.8,0-5-1.8-5-5.1c0-3.2,2.1-5.3,5.3-5.3c1.2,0,2.1,0.3,2.4,0.4
		l-0.3,1.1c-0.5-0.2-1.2-0.4-2-0.4c-2.4,0-3.9,1.5-3.9,4.2c0,2.5,1.4,4.1,3.9,4.1c0.8,0,1.6-0.2,2.1-0.4L349.9,55.8z"/>
</g>
<g id="XMLID_2975_">
	<path id="XMLID_2976_" d="M395.2,55.7c-0.5,0.2-1.4,0.5-2.7,0.5c-2.8,0-5-1.8-5-5.1c0-3.2,2.1-5.3,5.3-5.3c1.2,0,2.1,0.3,2.4,0.4
		l-0.3,1.1c-0.5-0.2-1.2-0.4-2-0.4c-2.4,0-3.9,1.5-3.9,4.2c0,2.5,1.4,4.1,3.9,4.1c0.8,0,1.6-0.2,2.1-0.4L395.2,55.7z"/>
</g>
<g id="XMLID_81_">
	<path id="XMLID_90_" d="M47.5,101.3c-2.1,0.7-4.3,1-6.5,1.1c-5.8,0.1-11.2-1.5-15.8-5c-4.9-3.7-7.5-8.7-8.7-14.6
		c-1.1-5.7,0-11.1,2.4-16.3c2.1-4.5,5-8.5,8.2-12.2c0.7-0.8,1.4-1.5,2.1-2.3c0.3-0.3,0.3-0.5,0.2-0.9c-0.8-2.8-1.8-5.5-2.4-8.3
		c-1.3-5.6-1.5-11.3,0.3-16.9c2.1-6.4,6-11.2,12.5-13.5c0.8-0.3,1.6-0.5,2.4-0.6c1.7-0.1,3.2,0.6,4.5,1.6c2.7,2.1,4,5,4.2,8.3
		c0.3,5.1-1.4,9.7-3.8,14.2c-2.3,4.3-5.4,8.2-8.6,11.9c-1.1,1.3-2.1,2.5-3.2,3.7c-0.3,0.4-0.1,0.6,0,0.9c2,3.9,3.9,7.8,5.9,11.6
		c1-0.2,2-0.5,3.1-0.7c3.1-0.6,6.1,0,8.9,1.4c5.5,2.9,8.8,7.5,9.8,13.7c0.8,5-0.6,9.6-3.4,13.7c-1.8,2.7-4.1,4.9-6.8,6.6
		c-0.4,0.3-0.5,0.5-0.4,1c0.5,3.1,1.1,6.1,1.6,9.2c0.5,3.4,0.7,6.8-0.4,10.1c-1.4,4.5-4.6,7.1-9,8.3c-5.7,1.5-10.9,0.3-15.5-3.2
		c-3.9-2.9-6.5-6.6-7.6-11.4c-0.1-0.6-0.2-1.3-0.3-1.9c0-0.3,0-0.6,0-0.9c1.3,6.7,5,11.5,11.1,14.3c4.3,2,8.7,2.1,13-0.1
		c3.3-1.7,5-4.5,5.1-8.2c0.1-3.3-0.8-6.4-1.5-9.6c-0.4-1.5-0.8-2.9-1.2-4.4C47.7,101.7,47.6,101.5,47.5,101.3z M46,96
		c-2.5-9.1-6.5-17.6-9.3-26.6c-2.5,2.7-3.5,5.7-2.7,9.1c1,4.3,3.6,7.2,7.9,8.4c-0.3,0-0.5,0-0.8-0.1c-4.8-1.1-8.4-5.9-8.5-10.9
		c0-2.9,1-5.4,2.9-7.5c0.4-0.4,0.4-0.7,0.2-1.2c-0.6-1.6-1.2-3.1-1.9-4.7c-0.8-2-1.6-3.9-2.5-6c-0.8,1.1-1.6,2.1-2.3,3.1
		c-2.4,3.4-4.5,7.1-5.8,11.1c-1,3.3-1.3,6.6-0.7,10c0.8,4,2.9,7.4,5.7,10.3C33.2,95.8,39.2,97.2,46,96z M33.3,47.8
		c1.5-1.5,2.9-3,4.2-4.4c2.7-2.9,5.3-5.9,7.4-9.3c2.2-3.6,3.9-7.3,4.1-11.6c0.1-3.2-0.8-6-3.3-8.1c-1.4-1.2-2.9-1.8-4.9-1
		c-4.2,1.8-7.2,4.7-9.2,8.8c-2,4.2-2.4,8.6-1.9,13.1C30.2,39.6,31.5,43.7,33.3,47.8z M51.3,93.7c2.7-1.8,4.7-3.9,6.2-6.6
		c1.5-2.8,2.2-5.7,1.8-8.9c-0.4-3.3-1.9-6.2-4.2-8.6c-2.8-2.9-6.1-4.4-10.2-4.1c-0.9,0.1-1.7,0.3-2.8,0.5
		C46.8,74.8,49,84.2,51.3,93.7z"/>
</g>
</svg>
