<?xml version="1.0" encoding="UTF-8"?>
<!DOCTYPE svg PUBLIC "-//W3C//DTD SVG 1.1//EN" "http://www.w3.org/Graphics/SVG/1.1/DTD/svg11.dtd">
<svg xmlns="http://www.w3.org/2000/svg" version="1.1" width="5288px" height="1049px" style="shape-rendering:geometricPrecision; text-rendering:geometricPrecision; image-rendering:optimizeQuality; fill-rule:evenodd; clip-rule:evenodd" xmlns:xlink="http://www.w3.org/1999/xlink">
<g><path style="opacity:0.951" fill="#000000" d="M 182.5,-0.5 C 188.833,-0.5 195.167,-0.5 201.5,-0.5C 216.637,4.78418 228.803,14.1175 238,27.5C 248.892,43.8402 255.225,61.8402 257,81.5C 258.17,98.4745 258.837,115.474 259,132.5C 260.066,135.563 262.233,137.063 265.5,137C 1535.5,137.667 2805.5,137.667 4075.5,137C 4084.53,135.326 4093.53,133.493 4102.5,131.5C 4109.53,132.842 4116.53,134.342 4123.5,136C 4308.83,137.571 4494.16,137.904 4679.5,137C 4684.29,135.703 4686.62,132.536 4686.5,127.5C 4685,112.783 4685.17,98.1168 4687,83.5C 4687.83,82 4689,80.8333 4690.5,80C 4693.82,79.5017 4697.15,79.335 4700.5,79.5C 4700.5,98.8333 4700.5,118.167 4700.5,137.5C 4893.17,137.333 5085.83,137.5 5278.5,138C 5281.48,139.271 5284.48,140.438 5287.5,141.5C 5287.5,142.167 5287.5,142.833 5287.5,143.5C 5284.52,144.654 5281.52,145.82 5278.5,147C 5086.17,147.5 4893.83,147.667 4701.5,147.5C 4700.87,175.19 4700.2,202.857 4699.5,230.5C 4699.36,236.854 4702.36,240.687 4708.5,242C 4899.16,241.435 5089.83,241.435 5280.5,242C 5282.72,243.723 5285.05,245.223 5287.5,246.5C 5287.5,247.167 5287.5,247.833 5287.5,248.5C 5285.74,249.072 5284.08,249.906 5282.5,251C 5176.17,251.333 5069.83,251.667 4963.5,252C 4959.31,252.071 4955.31,252.738 4951.5,254C 4964.44,260.944 4973.94,271.111 4980,284.5C 4986.27,311.12 4977.44,330.953 4953.5,344C 4954.5,344.333 4955.5,344.667 4956.5,345C 5065.16,345.955 5173.83,346.622 5282.5,347C 5284.32,347.997 5285.99,349.164 5287.5,350.5C 5287.5,351.167 5287.5,351.833 5287.5,352.5C 5285.99,353.836 5284.32,355.003 5282.5,356C 4987.5,356.333 4692.5,356.667 4397.5,357C 4393.53,357.964 4390.36,360.131 4388,363.5C 4385.74,374.751 4379.9,383.585 4370.5,390C 4336.88,407.374 4301.55,412.041 4264.5,404C 4250.02,400.847 4236.69,395.18 4224.5,387C 4216.33,379.832 4210.83,370.998 4208,360.5C 4204.42,357.034 4200.09,355.7 4195,356.5C 4188.61,355.966 4182.77,357.466 4177.5,361C 4167.42,374.417 4155.42,385.75 4141.5,395C 4129.36,401.992 4116.36,406.492 4102.5,408.5C 4097.96,408.819 4095.12,406.819 4094,402.5C 4093.67,388.833 4093.33,375.167 4093,361.5C 4092.17,359.333 4090.67,357.833 4088.5,357C 3983.83,356.333 3879.17,356.333 3774.5,357C 3771.71,357.241 3769.04,357.908 3766.5,359C 3776.2,364.362 3784.37,371.529 3791,380.5C 3802.56,403.367 3798.73,423.2 3779.5,440C 3775.38,442.726 3771.05,444.893 3766.5,446.5C 3766.5,447.5 3766.5,448.5 3766.5,449.5C 4258.49,450.33 4750.49,450.83 5242.5,451C 5255.17,451.333 5267.83,451.667 5280.5,452C 5282.74,453.136 5285.08,453.97 5287.5,454.5C 5287.5,455.167 5287.5,455.833 5287.5,456.5C 5285.22,457.64 5282.89,458.807 5280.5,460C 4591.5,460.333 3902.5,460.667 3213.5,461C 3209.95,461.441 3206.95,462.941 3204.5,465.5C 3199.71,482.791 3189.04,494.957 3172.5,502C 3139.62,513.506 3106.28,515.173 3072.5,507C 3056.75,502.882 3043.25,495.049 3032,483.5C 3027.85,477.739 3024.85,471.405 3023,464.5C 3013.24,459.147 3003.41,459.314 2993.5,465C 2982.71,479.463 2969.71,491.463 2954.5,501C 2942.68,507.164 2930.18,511.33 2917,513.5C 2913.82,513.457 2911.49,512.124 2910,509.5C 2908.25,495.973 2908.08,482.473 2909.5,469C 2909.25,464.493 2906.92,461.826 2902.5,461C 2795.83,460.17 2689.16,460.503 2582.5,462C 2591.3,468.462 2599.13,475.962 2606,484.5C 2619.13,514.112 2611.63,536.946 2583.5,553C 2584.5,553.333 2585.5,553.667 2586.5,554C 3483.83,555.306 4381.16,555.972 5278.5,556C 5281.52,557.18 5284.52,558.346 5287.5,559.5C 5287.5,560.167 5287.5,560.833 5287.5,561.5C 5284.9,562.757 5282.24,563.924 5279.5,565C 4195.5,565.333 3111.5,565.667 2027.5,566C 2023.93,566.7 2021.1,568.533 2019,571.5C 2016.7,580.938 2012.2,589.104 2005.5,596C 1982.02,610.08 1956.52,616.913 1929,616.5C 1904.7,617.051 1881.87,611.551 1860.5,600C 1849.5,592.993 1842.33,583.159 1839,570.5C 1835.39,566.093 1830.72,564.427 1825,565.5C 1819.43,564.962 1814.27,566.129 1809.5,569C 1802.17,577 1794.83,585 1787.5,593C 1771.61,606.471 1753.27,614.638 1732.5,617.5C 1729.03,617.849 1726.53,616.516 1725,613.5C 1723.53,600.504 1723.37,587.504 1724.5,574.5C 1724.77,570.78 1723.44,567.946 1720.5,566C 1616.17,565.333 1511.83,565.333 1407.5,566C 1403.87,566.156 1400.53,567.156 1397.5,569C 1408.62,575.117 1417.45,583.617 1424,594.5C 1432.47,618.084 1426.64,637.251 1406.5,652C 1384.37,664.495 1360.54,669.995 1335,668.5C 1308.39,669.809 1284.22,662.976 1262.5,648C 1245.94,632.896 1241.44,614.729 1249,593.5C 1251.75,587.848 1255.58,583.014 1260.5,579C 1265.83,575.333 1271.17,571.667 1276.5,568C 1259.17,567.5 1241.84,567.333 1224.5,567.5C 1229.53,607.284 1214.53,636.784 1179.5,656C 1166.79,662.515 1153.46,667.349 1139.5,670.5C 1134.52,670.222 1132.02,667.555 1132,662.5C 1131.67,631.833 1131.33,601.167 1131,570.5C 1130.89,568.152 1129.72,566.652 1127.5,566C 936.5,565.5 745.5,565.333 554.5,565.5C 554.5,583.5 554.5,601.5 554.5,619.5C 569.307,614.954 584.307,611.12 599.5,608C 621.138,605.969 633.472,615.636 636.5,637C 635.539,643.71 633.872,650.21 631.5,656.5C 638.424,656.037 644.758,653.87 650.5,650C 657.833,642.667 665.167,635.333 672.5,628C 689.433,615.689 708.433,609.356 729.5,609C 749.079,607.922 768.413,609.589 787.5,614C 798.676,617.253 808.676,622.586 817.5,630C 824.543,636.773 830.876,644.107 836.5,652C 839.456,652.989 842.456,653.822 845.5,654.5C 849.799,653.458 854.132,653.291 858.5,654C 859,654.5 859.5,655 860,655.5C 860.667,662.167 860.667,668.833 860,675.5C 859.5,676 859,676.5 858.5,677C 853.958,677.746 849.458,677.579 845,676.5C 841.633,677.133 838.467,678.3 835.5,680C 830.55,687.284 825.217,694.284 819.5,701C 806.812,710.568 792.479,716.235 776.5,718C 747.547,724.185 719.213,722.185 691.5,712C 676.72,706.375 665.22,696.875 657,683.5C 649.296,677.363 640.463,674.863 630.5,676C 629.5,675.5 628.5,675 627.5,674.5C 611.93,687.573 595.93,700.073 579.5,712C 568.537,717.989 556.87,721.322 544.5,722C 542.333,721.167 540.833,719.667 540,717.5C 539.667,668.833 539.333,620.167 539,571.5C 538.727,569.671 537.893,568.171 536.5,567C 439.248,565.338 341.914,565.005 244.5,566C 243.572,566.388 242.905,567.055 242.5,568C 251.377,593.297 258.21,619.13 263,645.5C 270.706,676.276 261.873,700.776 236.5,719C 214.834,729.685 192.167,732.351 168.5,727C 133.737,716.037 115.403,692.203 113.5,655.5C 113.657,642.531 117.49,630.864 125,620.5C 139.451,608.549 155.284,606.382 172.5,614C 183.148,622.299 188.482,633.299 188.5,647C 188.195,665.965 178.862,677.631 160.5,682C 130.173,679.671 127.506,687.005 152.5,704C 177.439,713.6 201.439,711.6 224.5,698C 244.265,683.476 250.765,664.309 244,640.5C 238.756,616.777 231.923,593.61 223.5,571C 220.637,569.601 217.637,568.601 214.5,568C 144.167,566.984 73.8336,565.984 3.5,565C 2.52912,563.519 1.19578,562.685 -0.5,562.5C -0.5,561.5 -0.5,560.5 -0.5,559.5C 0.316435,557.856 1.64977,556.69 3.5,556C 44.1667,555.667 84.8333,555.333 125.5,555C 131.301,554.726 136.968,553.726 142.5,552C 124.779,543.956 109.613,532.456 97,517.5C 83.7473,501.494 72.9139,483.994 64.5,465C 61.8742,462.854 58.8742,461.521 55.5,461C 46.8301,460.583 38.1634,460.75 29.5,461.5C 21.1601,461.111 12.8268,460.611 4.5,460C 2.80428,458.824 1.13761,457.657 -0.5,456.5C -0.5,455.833 -0.5,455.167 -0.5,454.5C 2.03654,452.284 5.03654,451.117 8.5,451C 24.8646,450.789 41.1979,450.289 57.5,449.5C 52.1765,420.673 52.1765,391.84 57.5,363C 57.4018,360.127 56.0684,358.127 53.5,357C 38.8333,356.667 24.1667,356.333 9.5,356C 5.76419,355.297 2.43086,353.797 -0.5,351.5C -0.5,351.167 -0.5,350.833 -0.5,350.5C 2.09602,349.243 4.76268,348.076 7.5,347C 23.5,346.667 39.5,346.333 55.5,346C 57.6079,345.64 59.6079,344.973 61.5,344C 77.4242,311.468 97.0909,281.468 120.5,254C 116.251,252.874 111.918,252.208 107.5,252C 73.8333,251.667 40.1667,251.333 6.5,251C 4.14011,249.82 1.80678,248.653 -0.5,247.5C -0.5,246.833 -0.5,246.167 -0.5,245.5C 2.02357,244.073 4.69024,242.906 7.5,242C 44.8333,241.667 82.1667,241.333 119.5,241C 120.122,239.431 120.456,237.764 120.5,236C 115.739,210.266 111.572,184.432 108,158.5C 107.81,154.924 106.643,151.758 104.5,149C 70.9185,147.68 37.2518,147.014 3.5,147C 2.01608,146.338 0.682751,145.504 -0.5,144.5C -0.5,143.5 -0.5,142.5 -0.5,141.5C 0.363622,140.312 1.36362,139.145 2.5,138C 35.5,137.667 68.5,137.333 101.5,137C 105.704,135.772 107.87,132.939 108,128.5C 110.086,90.8941 122.419,57.2274 145,27.5C 152.53,18.1589 161.363,10.3256 171.5,4C 175.307,2.57157 178.974,1.07157 182.5,-0.5 Z M 188.5,42.5 C 216.316,42.3437 232.816,56.0104 238,83.5C 240.175,100.96 236.841,117.293 228,132.5C 225.293,134.936 222.127,136.436 218.5,137C 188.772,137.976 159.105,137.643 129.5,136C 128.056,134.874 127.39,133.374 127.5,131.5C 132.248,100.158 146.248,73.9918 169.5,53C 175.316,48.4282 181.649,44.9282 188.5,42.5 Z M 130.5,147.5 C 159.897,147.024 189.23,147.524 218.5,149C 203.244,175.27 183.911,198.27 160.5,218C 154.732,222.879 148.398,226.712 141.5,229.5C 137.452,206.426 132.952,183.426 128,160.5C 126.743,155.617 127.576,151.284 130.5,147.5 Z M 258.5,147.5 C 1535.5,147.333 2812.5,147.5 4089.5,148C 4091.33,148.5 4092.5,149.667 4093,151.5C 4093.67,180.167 4093.67,208.833 4093,237.5C 4091.41,240.383 4088.91,241.883 4085.5,242C 3898.17,241.396 3710.83,241.396 3523.5,242C 3519.45,241.619 3516.95,239.453 3516,235.5C 3516.79,218.168 3516.63,200.835 3515.5,183.5C 3512.48,183.335 3509.48,183.502 3506.5,184C 3504.33,184.833 3502.83,186.333 3502,188.5C 3501.67,204.5 3501.33,220.5 3501,236.5C 3500.88,240.653 3498.71,242.653 3494.5,242.5C 3309.51,241.67 3124.51,241.17 2939.5,241C 2932.27,238.978 2924.93,237.478 2917.5,236.5C 2910.07,237.478 2902.73,238.978 2895.5,241C 1998.5,241.667 1101.5,241.667 204.5,241C 202.833,240.667 201.167,240.333 199.5,240C 219.007,218.503 235.174,194.67 248,168.5C 248.389,159.77 251.889,152.77 258.5,147.5 Z M 4107.5,147.5 C 4298.5,147.333 4489.5,147.5 4680.5,148C 4684.76,150.122 4686.76,153.622 4686.5,158.5C 4685.42,183.498 4685.25,208.498 4686,233.5C 4685.83,239 4683,241.833 4677.5,242C 4490.49,241.408 4303.49,241.408 4116.5,242C 4111.33,241.5 4108.5,238.667 4108,233.5C 4108.76,204.832 4108.59,176.165 4107.5,147.5 Z M 201.5,251.5 C 1101.83,251.333 2002.17,251.5 2902.5,252C 2905.19,251.946 2907.02,253.113 2908,255.5C 2908.2,282.015 2908.7,308.515 2909.5,335C 2909.84,340.047 2907.84,343.714 2903.5,346C 2715.17,346.667 2526.83,346.667 2338.5,346C 2334.47,345.573 2331.97,343.406 2331,339.5C 2331.19,322.511 2331.36,305.511 2331.5,288.5C 2328.15,288.335 2324.82,288.502 2321.5,289C 2319.19,290.109 2317.69,291.943 2317,294.5C 2316.67,310.5 2316.33,326.5 2316,342.5C 2314.99,344.259 2313.49,345.426 2311.5,346C 2140.83,346.667 1970.17,346.667 1799.5,346C 1782.83,345.667 1766.17,345.333 1749.5,345C 1743.84,342.958 1738,341.792 1732,341.5C 1724.1,342.577 1716.26,344.077 1708.5,346C 1200.5,346.667 692.5,346.667 184.5,346C 178.438,344.938 174.605,341.438 173,335.5C 168.822,319.789 164.489,304.122 160,288.5C 159.241,282.11 160.908,276.444 165,271.5C 171.464,263.03 179.631,256.864 189.5,253C 193.688,252.824 197.688,252.324 201.5,251.5 Z M 2923.5,251.5 C 3113.5,251.333 3303.5,251.5 3493.5,252C 3497.57,252.438 3500.07,254.605 3501,258.5C 3500.46,285.831 3500.46,313.164 3501,340.5C 3500.17,343.333 3498.33,345.167 3495.5,346C 3306.83,346.667 3118.17,346.667 2929.5,346C 2926.77,345.602 2924.93,344.102 2924,341.5C 2923.5,311.502 2923.33,281.502 2923.5,251.5 Z M 3516.5,251.5 C 3706.5,251.333 3896.5,251.5 4086.5,252C 4089.57,252.739 4091.74,254.572 4093,257.5C 4093.67,285.5 4093.67,313.5 4093,341.5C 4092.17,343.667 4090.67,345.167 4088.5,346C 3899.17,346.667 3709.83,346.667 3520.5,346C 3518.33,345.167 3516.83,343.667 3516,341.5C 3515.23,311.487 3515.4,281.487 3516.5,251.5 Z M 4108.5,251.5 C 4298.5,251.333 4488.5,251.5 4678.5,252C 4684.31,253.824 4686.98,257.824 4686.5,264C 4685.43,288.829 4685.26,313.662 4686,338.5C 4685.72,342.12 4683.88,344.62 4680.5,346C 4585.83,346.667 4491.17,346.667 4396.5,346C 4393.45,345.394 4390.95,343.894 4389,341.5C 4380.87,319.045 4365.04,305.545 4341.5,301C 4304.78,290.477 4269.12,293.144 4234.5,309C 4228.43,312.399 4222.93,316.565 4218,321.5C 4212.84,328.99 4208.34,336.823 4204.5,345C 4198.7,346.913 4193.03,346.413 4187.5,343.5C 4187.17,342.667 4186.83,341.833 4186.5,341C 4189.7,331.288 4190.2,321.454 4188,311.5C 4180.96,297.026 4169.46,291.526 4153.5,295C 4138.38,297.652 4123.71,301.819 4109.5,307.5C 4108.5,288.845 4108.17,270.179 4108.5,251.5 Z M 4877.5,251.5 C 4887.38,250.073 4896.04,252.573 4903.5,259C 4921.18,279.043 4927.85,302.376 4923.5,329C 4922.64,336.735 4918.64,342.069 4911.5,345C 4894.63,349.307 4881.13,344.474 4871,330.5C 4857.8,313.046 4853.8,293.713 4859,272.5C 4861.18,261.83 4867.35,254.83 4877.5,251.5 Z M 4778.5,253.5 C 4795.5,253.333 4812.5,253.5 4829.5,254C 4816.13,261.031 4806.63,271.531 4801,285.5C 4796.44,311.881 4805.94,331.381 4829.5,344C 4796.83,344.667 4764.17,344.667 4731.5,344C 4751.54,331.96 4766.71,315.46 4777,294.5C 4782.15,280.978 4782.65,267.312 4778.5,253.5 Z M 4741.5,264.5 C 4745.57,264.735 4748.4,266.735 4750,270.5C 4752.61,280.465 4751.94,290.131 4748,299.5C 4737.03,317.964 4721.53,331.297 4701.5,339.5C 4700.33,321.176 4700.17,302.842 4701,284.5C 4701.47,282.754 4702.14,281.087 4703,279.5C 4715.65,273.788 4728.48,268.788 4741.5,264.5 Z M 137.5,297.5 C 139.582,297.624 141.082,298.624 142,300.5C 146.012,314.884 150.179,329.218 154.5,343.5C 136.843,344.666 119.176,344.833 101.5,344C 113.739,328.605 125.739,313.105 137.5,297.5 Z M 4287.5,301.5 C 4301.85,303.004 4312.68,310.004 4320,322.5C 4322.61,327.38 4324.94,332.38 4327,337.5C 4327.83,341.994 4326,344.828 4321.5,346C 4304.17,346.667 4286.83,346.667 4269.5,346C 4266.05,345.288 4264.38,343.122 4264.5,339.5C 4265.51,329.268 4268.34,319.602 4273,310.5C 4277.02,305.946 4281.85,302.946 4287.5,301.5 Z M 4140.5,317.5 C 4154.89,315.55 4161.55,321.884 4160.5,336.5C 4160.49,339.684 4159.49,342.517 4157.5,345C 4143.57,346.614 4129.57,346.947 4115.5,346C 4109.37,345.06 4107.21,341.56 4109,335.5C 4117.92,326.788 4128.42,320.788 4140.5,317.5 Z M 99.5,356.5 C 116.503,356.333 133.503,356.5 150.5,357C 159.789,358.572 162.289,363.406 158,371.5C 137.805,392.748 129.139,418.081 132,447.5C 131.5,448.667 130.667,449.5 129.5,450C 116.483,451.537 103.483,451.537 90.5,450C 87.6667,448.5 85.5,446.333 84,443.5C 82.8655,436.218 82.1988,428.885 82,421.5C 81.2496,420.874 80.4162,420.374 79.5,420C 84.2271,401.257 88.7271,382.423 93,363.5C 94.0183,359.985 96.1849,357.652 99.5,356.5 Z M 272.5,356.5 C 755.167,356.333 1237.83,356.5 1720.5,357C 1722.77,358.514 1723.93,360.681 1724,363.5C 1724.67,390.5 1724.67,417.5 1724,444.5C 1723.05,448.453 1720.55,450.619 1716.5,451C 1529.82,450.303 1343.16,450.47 1156.5,451.5C 1152.19,451.8 1149.03,450.134 1147,446.5C 1146.5,428.503 1146.33,410.503 1146.5,392.5C 1140.84,391.411 1136.34,393.078 1133,397.5C 1131.88,405.093 1131.38,412.759 1131.5,420.5C 1131.51,427.41 1131.84,434.244 1132.5,441C 1132.44,446.481 1129.77,449.814 1124.5,451C 938.835,450.814 753.168,450.481 567.5,450C 560.756,448.106 553.923,446.606 547,445.5C 540.74,446.607 534.573,448.107 528.5,450C 457.833,450.667 387.167,450.667 316.5,450C 314.667,449.5 313.5,448.333 313,446.5C 312.614,407.703 295.781,378.703 262.5,359.5C 262.709,358.914 263.043,358.414 263.5,358C 266.695,357.819 269.695,357.319 272.5,356.5 Z M 1740.5,356.5 C 1930.83,356.333 2121.17,356.5 2311.5,357C 2313.81,358.109 2315.31,359.943 2316,362.5C 2316.67,390.5 2316.67,418.5 2316,446.5C 2314.37,449.399 2311.87,450.899 2308.5,451C 2119.5,450.853 1930.5,450.52 1741.5,450C 1740.3,449.097 1739.47,447.931 1739,446.5C 1738.86,416.46 1739.36,386.46 1740.5,356.5 Z M 2332.5,356.5 C 2522.83,356.333 2713.17,356.5 2903.5,357C 2907.42,359.326 2909.42,362.826 2909.5,367.5C 2908.17,391.988 2908.17,416.488 2909.5,441C 2909.27,444.558 2907.93,447.558 2905.5,450C 2895.71,451.098 2885.88,451.598 2876,451.5C 2696.83,450.37 2517.67,450.203 2338.5,451C 2334.45,450.619 2331.95,448.453 2331,444.5C 2330.92,415.099 2331.42,385.765 2332.5,356.5 Z M 2924.5,356.5 C 3115.17,356.333 3305.83,356.5 3496.5,357C 3497.93,357.465 3499.1,358.299 3500,359.5C 3500.33,361.833 3500.67,364.167 3501,366.5C 3501.67,392.833 3501.67,419.167 3501,445.5C 3500.22,447.286 3499.05,448.786 3497.5,450C 3401.5,450.667 3305.5,450.667 3209.5,450C 3207.38,448.878 3205.54,447.378 3204,445.5C 3197.83,427.333 3185.67,415.167 3167.5,409C 3138.35,398.995 3108.68,396.995 3078.5,403C 3060.55,407.22 3045.05,415.72 3032,428.5C 3028.03,436.271 3023.2,443.438 3017.5,450C 3012.1,451.39 3006.93,450.557 3002,447.5C 3003.21,441.116 3004.04,434.616 3004.5,428C 3002.69,404.214 2990.03,394.881 2966.5,400C 2952.6,403.058 2938.93,406.891 2925.5,411.5C 2924.5,393.179 2924.17,374.845 2924.5,356.5 Z M 3691.5,356.5 C 3705.2,353.896 3716.04,358.229 3724,369.5C 3739.56,391.888 3743.56,416.221 3736,442.5C 3729.19,450.004 3720.69,452.837 3710.5,451C 3700.85,449.093 3693.02,444.259 3687,436.5C 3671.23,414.094 3668.23,390.094 3678,364.5C 3681.62,360.116 3686.12,357.45 3691.5,356.5 Z M 4268.5,356.5 C 4288.5,356.333 4308.5,356.5 4328.5,357C 4330.54,358.586 4331.54,360.753 4331.5,363.5C 4331.18,374.25 4329.02,384.583 4325,394.5C 4321.12,399.63 4315.95,401.963 4309.5,401.5C 4295.18,399.922 4284.35,392.922 4277,380.5C 4272.47,373.071 4269.64,365.071 4268.5,356.5 Z M 4108.5,357.5 C 4122.83,357.5 4137.17,357.5 4151.5,357.5C 4151.65,358.552 4151.48,359.552 4151,360.5C 4139.51,374.335 4125.51,384.668 4109,391.5C 4108.5,380.172 4108.33,368.838 4108.5,357.5 Z M 3593.5,358.5 C 3610.17,358.333 3626.84,358.5 3643.5,359C 3615.16,375.689 3607.99,398.856 3622,428.5C 3627.97,436.809 3635.47,443.309 3644.5,448C 3612.47,451.232 3580.47,451.232 3548.5,448C 3567.16,437.012 3581.32,421.845 3591,402.5C 3595.89,388.055 3596.72,373.388 3593.5,358.5 Z M 3553.5,369.5 C 3559.69,368.345 3563.86,370.678 3566,376.5C 3566.86,384.564 3566.53,392.564 3565,400.5C 3554.02,421.146 3537.69,435.813 3516,444.5C 3515.05,425.781 3515.39,407.114 3517,388.5C 3518.79,385.705 3520.96,383.205 3523.5,381C 3533.34,376.448 3543.34,372.615 3553.5,369.5 Z M 207.5,387.5 C 234.366,386.847 254.866,397.847 269,420.5C 273.714,429.26 277.88,438.26 281.5,447.5C 281.167,448.167 280.833,448.833 280.5,449.5C 263.502,450.273 246.502,450.939 229.5,451.5C 222.571,451.53 215.904,450.363 209.5,448C 206.195,444.105 204.028,439.605 203,434.5C 199.52,422.58 196.353,410.58 193.5,398.5C 193.648,395.37 194.982,392.87 197.5,391C 200.85,389.514 204.184,388.347 207.5,387.5 Z M 3099.5,406.5 C 3114.54,405.937 3125.7,412.27 3133,425.5C 3136.67,432.167 3140.33,438.833 3144,445.5C 3144.87,447.888 3144.03,449.388 3141.5,450C 3122.17,450.667 3102.83,450.667 3083.5,450C 3081.27,448.38 3079.94,446.214 3079.5,443.5C 3078.7,426.75 3085.36,414.417 3099.5,406.5 Z M 169.5,409.5 C 173.137,409.562 175.637,411.228 177,414.5C 180.815,426.429 184.315,438.429 187.5,450.5C 178.161,450.666 168.827,450.5 159.5,450C 156.833,448.667 154.833,446.667 153.5,444C 158.546,432.36 163.879,420.86 169.5,409.5 Z M 2954.5,422.5 C 2968.98,419.484 2975.98,425.318 2975.5,440C 2975.92,443.521 2974.92,446.521 2972.5,449C 2961.76,450.259 2950.92,451.092 2940,451.5C 2934.27,451.549 2928.94,450.216 2924,447.5C 2923.31,442.562 2924.81,438.395 2928.5,435C 2936.6,429.45 2945.26,425.283 2954.5,422.5 Z M 101.5,460.5 C 112.639,460.106 123.639,460.939 134.5,463C 138.527,470.216 142.693,477.383 147,484.5C 158.83,501.347 174.996,509.847 195.5,510C 179.239,497.082 165.906,481.749 155.5,464C 157.337,462.048 159.671,461.048 162.5,461C 171.199,460.355 179.865,460.688 188.5,462C 192.087,465.005 194.254,468.838 195,473.5C 201.94,498.429 209.106,523.263 216.5,548C 214.192,549.867 211.525,550.867 208.5,551C 180.65,552.605 155.65,544.939 133.5,528C 111.941,511.113 96.6079,489.78 87.5,464C 92.2074,462.506 96.8741,461.34 101.5,460.5 Z M 318.5,460.5 C 390.878,460.013 463.211,460.513 535.5,462C 537.487,463.319 538.654,465.152 539,467.5C 539.667,495.167 539.667,522.833 539,550.5C 538.167,552.667 536.667,554.167 534.5,555C 447.833,555.667 361.167,555.667 274.5,555C 270.106,554.697 265.773,554.03 261.5,553C 292.061,532.078 308.895,502.911 312,465.5C 313.272,462.508 315.438,460.841 318.5,460.5 Z M 556.5,460.5 C 745.834,460.333 935.167,460.5 1124.5,461C 1127.49,461.406 1129.66,462.906 1131,465.5C 1131.18,491.876 1131.68,518.209 1132.5,544.5C 1132.69,549.338 1130.69,552.838 1126.5,555C 938.167,555.667 749.833,555.667 561.5,555C 558.898,554.117 556.731,552.617 555,550.5C 554.333,521.5 554.333,492.5 555,463.5C 555.513,462.473 556.013,461.473 556.5,460.5 Z M 1147.5,460.5 C 1337.17,460.333 1526.83,460.5 1716.5,461C 1721,461.5 1723.5,464 1724,468.5C 1723.36,495.499 1723.36,522.499 1724,549.5C 1723.6,552.232 1722.1,554.065 1719.5,555C 1530.17,555.667 1340.83,555.667 1151.5,555C 1146.82,552.055 1144.82,547.722 1145.5,542C 1146.15,514.82 1146.82,487.653 1147.5,460.5 Z M 1739.5,460.5 C 1929.5,460.333 2119.5,460.5 2309.5,461C 2311.68,461.163 2313.51,461.996 2315,463.5C 2316.64,492.105 2316.98,520.772 2316,549.5C 2314.74,552.428 2312.57,554.261 2309.5,555C 2215.5,555.667 2121.5,555.667 2027.5,555C 2024.63,554.869 2022.3,553.703 2020.5,551.5C 2016.63,540.913 2010.63,531.747 2002.5,524C 1991.95,516.562 1980.28,511.562 1967.5,509C 1934.8,500.491 1902.8,502.491 1871.5,515C 1853.59,522.577 1841.59,535.577 1835.5,554C 1833.63,554.985 1831.63,555.485 1829.5,555.5C 1825.03,554.965 1820.7,553.965 1816.5,552.5C 1818.46,545.975 1819.8,539.308 1820.5,532.5C 1820.61,519.202 1814.61,510.035 1802.5,505C 1795.25,503.443 1787.91,503.11 1780.5,504C 1766.78,507.347 1753.11,510.847 1739.5,514.5C 1739.5,496.5 1739.5,478.5 1739.5,460.5 Z M 2508.5,460.5 C 2516.93,459.358 2524.6,461.192 2531.5,466C 2554.02,489.278 2560.52,516.445 2551,547.5C 2543.33,555.032 2534.16,557.532 2523.5,555C 2514.42,552.911 2507.26,548.077 2502,540.5C 2489,523.483 2484.66,504.483 2489,483.5C 2491.08,471.933 2497.58,464.267 2508.5,460.5 Z M 2939.5,460.5 C 2948.51,460.334 2957.51,460.5 2966.5,461C 2967.17,462.333 2967.83,463.667 2968.5,465C 2954.36,475.642 2940.36,486.475 2926.5,497.5C 2925.52,497.023 2924.69,496.357 2924,495.5C 2923.33,485.167 2923.33,474.833 2924,464.5C 2924.37,463.584 2924.87,462.75 2925.5,462C 2930.35,461.826 2935.02,461.326 2939.5,460.5 Z M 214.5,461.5 C 235.503,461.333 256.503,461.5 277.5,462C 279.667,462.833 281.167,464.333 282,466.5C 283.733,476.717 282.733,486.717 279,496.5C 273.044,512.785 263.544,526.619 250.5,538C 246.554,540.557 242.387,542.723 238,544.5C 235.697,543.249 234.364,541.249 234,538.5C 227,515.5 220,492.5 213,469.5C 212.109,466.502 212.609,463.836 214.5,461.5 Z M 3081.5,461.5 C 3102.5,461.333 3123.5,461.5 3144.5,462C 3147.82,465.26 3149.49,469.26 3149.5,474C 3148.33,487.028 3142.33,497.028 3131.5,504C 3121.65,506.955 3112.65,505.288 3104.5,499C 3093.15,488.802 3085.48,476.302 3081.5,461.5 Z M 2409.5,462.5 C 2426.17,462.333 2442.84,462.5 2459.5,463C 2450.42,468.748 2442.58,475.915 2436,484.5C 2423.36,515.556 2432.2,538.222 2462.5,552.5C 2428.84,553.667 2395.17,553.833 2361.5,553C 2377.97,542.532 2391.8,529.365 2403,513.5C 2411.47,497.33 2413.64,480.33 2409.5,462.5 Z M 2361.5,474.5 C 2367.89,473.791 2373.89,474.957 2379.5,478C 2382.42,481.434 2383.76,485.434 2383.5,490C 2381.69,504.957 2375.36,517.623 2364.5,528C 2354.41,536.744 2343.24,543.911 2331,549.5C 2330.33,533.5 2330.33,517.5 2331,501.5C 2331.47,492.384 2335.64,485.551 2343.5,481C 2349.43,478.304 2355.43,476.137 2361.5,474.5 Z M 1918.5,510.5 C 1923.4,510.724 1928.06,511.891 1932.5,514C 1936.97,517.465 1941.13,521.298 1945,525.5C 1949.67,533.5 1954.33,541.5 1959,549.5C 1959.72,551.112 1959.55,552.612 1958.5,554C 1939.26,555.641 1919.92,555.975 1900.5,555C 1896.96,554.291 1894.96,552.124 1894.5,548.5C 1894.07,535.96 1898.07,525.126 1906.5,516C 1910.23,513.299 1914.23,511.465 1918.5,510.5 Z M 1771.5,526.5 C 1784.94,524.939 1791.27,530.939 1790.5,544.5C 1791.03,548.261 1790.03,551.427 1787.5,554C 1773.59,555.631 1759.59,555.964 1745.5,555C 1736.89,551.446 1736.22,546.446 1743.5,540C 1752,533.582 1761.33,529.082 1771.5,526.5 Z M 1321.5,565.5 C 1336.34,563.008 1347.84,568.008 1356,580.5C 1369.37,601.105 1373.37,623.439 1368,647.5C 1362.42,659.872 1352.92,664.705 1339.5,662C 1330.42,658.209 1322.92,652.375 1317,644.5C 1303.55,625.74 1299.55,605.074 1305,582.5C 1307.02,573.311 1312.52,567.645 1321.5,565.5 Z M 1895.5,566.5 C 1905.49,565.833 1915.66,565.5 1926,565.5C 1961.74,556.869 1972.07,568.869 1957,601.5C 1951.16,609.451 1943.32,612.284 1933.5,610C 1924.56,606.943 1917.06,601.777 1911,594.5C 1905.55,585.265 1900.39,575.932 1895.5,566.5 Z M 1738.5,566.5 C 1752.84,566.333 1767.17,566.5 1781.5,567C 1781.96,567.414 1782.29,567.914 1782.5,568.5C 1770.85,582.821 1756.51,593.487 1739.5,600.5C 1738.5,589.186 1738.17,577.853 1738.5,566.5 Z M 1179.5,578.5 C 1192.74,577.41 1198.41,583.41 1196.5,596.5C 1196.53,601.235 1196.03,605.901 1195,610.5C 1184.53,631.143 1168.36,645.143 1146.5,652.5C 1146.04,632.766 1146.54,613.099 1148,593.5C 1157.75,586.706 1168.25,581.706 1179.5,578.5 Z M 731.5,615.5 C 749.772,617.078 762.606,626.411 770,643.5C 771.15,646.768 771.984,650.101 772.5,653.5C 753.12,653.821 733.787,653.487 714.5,652.5C 712.102,650.37 710.768,647.703 710.5,644.5C 711.936,630.569 718.936,620.902 731.5,615.5 Z M 585.5,631.5 C 597.898,628.345 604.565,633.012 605.5,645.5C 605.867,656.381 602.7,666.048 596,674.5C 585.053,688.551 571.22,698.551 554.5,704.5C 554.333,685.83 554.5,667.164 555,648.5C 557.425,644.866 560.592,642.032 564.5,640C 571.331,636.453 578.331,633.619 585.5,631.5 Z M 719.5,677.5 C 736.868,677.122 754.201,677.622 771.5,679C 773.587,679.792 775.421,680.959 777,682.5C 779.446,700.621 771.78,711.621 754,715.5C 741.715,712.901 731.715,706.568 724,696.5C 720.124,691.386 717.291,685.719 715.5,679.5C 716.949,678.828 718.282,678.161 719.5,677.5 Z"/></g>
<g><path style="opacity:0.854" fill="#000000" d="M 2553.5,913.5 C 2555.5,913.5 2557.5,913.5 2559.5,913.5C 2559.17,938.842 2559.5,964.175 2560.5,989.5C 2569.32,986.807 2578.32,985.641 2587.5,986C 2592.87,987.7 2595.53,991.366 2595.5,997C 2591.31,1020.29 2577.31,1032.79 2553.5,1034.5C 2553.5,994.167 2553.5,953.833 2553.5,913.5 Z M 2570.5,997.5 C 2579.68,995.834 2582.85,999.501 2580,1008.5C 2574.37,1015.14 2568.37,1021.47 2562,1027.5C 2561,1026.83 2560,1026.17 2559,1025.5C 2558.2,1018.11 2558.53,1010.78 2560,1003.5C 2562.45,999.53 2565.95,997.53 2570.5,997.5 Z"/></g>
<g><path style="opacity:0.874" fill="#000000" d="M 3145.5,913.5 C 3147.17,913.5 3148.83,913.5 3150.5,913.5C 3150.5,938.833 3150.5,964.167 3150.5,989.5C 3160.03,986.347 3169.7,985.847 3179.5,988C 3184.9,988.897 3187.57,992.063 3187.5,997.5C 3183.36,1020.97 3169.36,1033.64 3145.5,1035.5C 3145.5,994.833 3145.5,954.167 3145.5,913.5 Z M 3162.5,995.5 C 3174.15,995.468 3176.98,1000.47 3171,1010.5C 3166.02,1016.65 3160.52,1022.32 3154.5,1027.5C 3153.52,1027.02 3152.69,1026.36 3152,1025.5C 3151.33,1019.17 3151.33,1012.83 3152,1006.5C 3152.72,1004.05 3153.72,1001.72 3155,999.5C 3157.51,997.996 3160.01,996.662 3162.5,995.5 Z"/></g>
<g><path style="opacity:0.915" fill="#000000" d="M 3730.5,914.5 C 3731.83,914.5 3733.17,914.5 3734.5,914.5C 3734.5,939.167 3734.5,963.833 3734.5,988.5C 3743.83,987.331 3753.17,986.498 3762.5,986C 3769.16,986.663 3772.16,990.329 3771.5,997C 3768.05,1020.12 3754.72,1032.45 3731.5,1034C 3729.67,1033.5 3728.5,1032.33 3728,1030.5C 3728.02,991.789 3728.85,953.122 3730.5,914.5 Z M 3747.5,997.5 C 3750.46,998.159 3753.46,998.492 3756.5,998.5C 3756.85,1002.64 3756.35,1006.64 3755,1010.5C 3749.3,1016.53 3743.3,1022.2 3737,1027.5C 3736.59,1027.04 3736.09,1026.71 3735.5,1026.5C 3734.1,1018.78 3734.27,1011.11 3736,1003.5C 3739.04,999.73 3742.88,997.73 3747.5,997.5 Z"/></g>
<g><path style="opacity:0.894" fill="#000000" d="M 4923.5,914.5 C 4925.14,914.286 4926.64,914.62 4928,915.5C 4928.17,940.173 4928.67,964.84 4929.5,989.5C 4931.12,988.846 4932.78,988.346 4934.5,988C 4965.42,982.444 4972.58,992.944 4956,1019.5C 4947.88,1029.15 4937.72,1033.65 4925.5,1033C 4923.95,1031.79 4922.78,1030.29 4922,1028.5C 4921.33,992.167 4921.33,955.833 4922,919.5C 4923.01,917.975 4923.51,916.308 4923.5,914.5 Z M 4935.5,998.5 C 4939.83,998.5 4944.17,998.5 4948.5,998.5C 4949.59,1006.62 4947.26,1013.46 4941.5,1019C 4938.33,1020.83 4935.17,1022.67 4932,1024.5C 4930.22,1020.6 4928.72,1016.6 4927.5,1012.5C 4928.51,1008.31 4930.01,1004.31 4932,1000.5C 4933.3,999.915 4934.47,999.249 4935.5,998.5 Z"/></g>
<g><path style="opacity:0.931" fill="#000000" d="M 776.5,915.5 C 778.167,915.5 779.833,915.5 781.5,915.5C 781.5,940.167 781.5,964.833 781.5,989.5C 786.819,988.337 792.153,987.171 797.5,986C 802.167,985.333 806.833,985.333 811.5,986C 816.255,988.732 818.255,992.899 817.5,998.5C 814.552,1016.62 804.219,1028.46 786.5,1034C 782.495,1035.1 778.995,1034.26 776,1031.5C 775.173,992.762 775.34,954.095 776.5,915.5 Z M 792.5,996.5 C 796.839,995.846 800.673,996.846 804,999.5C 803.358,1011.43 797.358,1019.43 786,1023.5C 780.387,1017.27 779.387,1010.27 783,1002.5C 785.843,999.837 789.009,997.837 792.5,996.5 Z"/></g>
<g><path style="opacity:0.934" fill="#000000" d="M 1377.5,915.5 C 1379.17,915.5 1380.83,915.5 1382.5,915.5C 1382.5,940.167 1382.5,964.833 1382.5,989.5C 1387.82,988.337 1393.15,987.171 1398.5,986C 1416.38,982.886 1422.55,990.053 1417,1007.5C 1409.99,1022.5 1398.33,1031.5 1382,1034.5C 1379.97,1034.65 1378.3,1033.98 1377,1032.5C 1375.95,1028.59 1375.45,1024.59 1375.5,1020.5C 1376.12,985.477 1376.79,950.477 1377.5,915.5 Z M 1395.5,996.5 C 1400.64,995.909 1403.64,998.076 1404.5,1003C 1402.67,1015.33 1395.67,1022.49 1383.5,1024.5C 1379.41,1011.37 1383.41,1002.04 1395.5,996.5 Z"/></g>
<g><path style="opacity:0.893" fill="#000000" d="M 4339.5,915.5 C 4340.83,915.5 4342.17,915.5 4343.5,915.5C 4343.33,940.169 4343.5,964.836 4344,989.5C 4353.01,987.145 4362.17,985.978 4371.5,986C 4378,986.836 4381.34,990.503 4381.5,997C 4377.17,1020.15 4363.17,1032.65 4339.5,1034.5C 4339.5,994.833 4339.5,955.167 4339.5,915.5 Z M 4360.5,997.5 C 4362.17,997.5 4363.83,997.5 4365.5,997.5C 4366.11,1001.16 4366.28,1004.83 4366,1008.5C 4361.44,1016.39 4356.11,1023.73 4350,1030.5C 4348.33,1029.17 4346.67,1027.83 4345,1026.5C 4344.33,1019.17 4344.33,1011.83 4345,1004.5C 4346.17,1002 4348,1000.17 4350.5,999C 4354.03,998.821 4357.36,998.321 4360.5,997.5 Z"/></g>
<g><path style="opacity:0.858" fill="#000000" d="M 1952.5,916.5 C 1954.5,916.5 1956.5,916.5 1958.5,916.5C 1958.5,940.5 1958.5,964.5 1958.5,988.5C 1966.34,987.554 1974.17,986.554 1982,985.5C 1993.09,985.984 1997.09,991.651 1994,1002.5C 1990.72,1015.58 1982.88,1024.74 1970.5,1030C 1964.71,1032.43 1958.71,1033.93 1952.5,1034.5C 1952.5,995.167 1952.5,955.833 1952.5,916.5 Z M 1963.5,998.5 C 1968.54,998.173 1973.54,998.506 1978.5,999.5C 1980.35,1004.4 1979.52,1008.73 1976,1012.5C 1970.97,1017.87 1965.63,1022.87 1960,1027.5C 1959.59,1027.04 1959.09,1026.71 1958.5,1026.5C 1957.34,1019.19 1957.17,1011.86 1958,1004.5C 1959.36,1001.98 1961.19,999.977 1963.5,998.5 Z"/></g>
<g><path style="opacity:0.947" fill="#000000" d="M 3683.5,917.5 C 3688.44,920.601 3692.6,924.601 3696,929.5C 3705.2,959.44 3714.2,989.44 3723,1019.5C 3725.9,1026.02 3724.4,1031.19 3718.5,1035C 3714.39,1035.35 3710.72,1034.19 3707.5,1031.5C 3705.77,1025.81 3703.94,1020.14 3702,1014.5C 3700.94,1011.44 3699.11,1008.94 3696.5,1007C 3688.24,1005.43 3679.91,1005.09 3671.5,1006C 3669.06,1006.77 3667.23,1008.27 3666,1010.5C 3664.02,1017.76 3662.35,1025.1 3661,1032.5C 3657.22,1036.9 3652.72,1037.73 3647.5,1035C 3645.01,1031.52 3644.17,1027.69 3645,1023.5C 3654.05,991.305 3663.72,959.305 3674,927.5C 3677.34,924.324 3680.51,920.991 3683.5,917.5 Z M 3683.5,949.5 C 3687.79,962.629 3691.79,975.963 3695.5,989.5C 3687.83,990.833 3680.17,990.833 3672.5,989.5C 3676.58,976.269 3680.24,962.935 3683.5,949.5 Z"/></g>
<g><path style="opacity:0.959" fill="#000000" d="M 1287.5,921.5 C 1305.56,921.818 1323.56,922.985 1341.5,925C 1350.92,926.756 1356.75,932.256 1359,941.5C 1360.94,966.497 1360.94,991.497 1359,1016.5C 1356.39,1024.77 1350.89,1029.94 1342.5,1032C 1324.23,1034.29 1305.89,1035.29 1287.5,1035C 1286.58,1034.63 1285.75,1034.13 1285,1033.5C 1283.35,997.585 1283.01,961.585 1284,925.5C 1284.69,923.65 1285.86,922.316 1287.5,921.5 Z M 1301.5,937.5 C 1311.17,937.334 1320.84,937.5 1330.5,938C 1334.97,938.313 1338.13,940.479 1340,944.5C 1341.19,950.085 1341.85,955.751 1342,961.5C 1342.67,975.5 1342.67,989.5 1342,1003.5C 1341.99,1013.84 1336.82,1019.34 1326.5,1020C 1320.5,1020.67 1314.5,1020.67 1308.5,1020C 1305.94,1019.31 1304.11,1017.81 1303,1015.5C 1301.66,989.52 1301.16,963.52 1301.5,937.5 Z"/></g>
<g><path style="opacity:0.959" fill="#000000" d="M 1879.5,921.5 C 1898.93,921.025 1918.26,921.525 1937.5,923C 1940.83,928.622 1939.5,932.956 1933.5,936C 1920.84,936.5 1908.17,936.667 1895.5,936.5C 1894.42,945.132 1894.26,953.798 1895,962.5C 1896.48,965.663 1898.98,967.496 1902.5,968C 1913.83,968.5 1925.16,968.667 1936.5,968.5C 1936.34,973.547 1936.67,978.547 1937.5,983.5C 1923.17,983.5 1908.83,983.5 1894.5,983.5C 1894.33,994.505 1894.5,1005.51 1895,1016.5C 1897.45,1019.47 1900.61,1020.97 1904.5,1021C 1913.35,1021.73 1922.19,1021.56 1931,1020.5C 1940.31,1021.55 1943.14,1026.55 1939.5,1035.5C 1919.83,1035.67 1900.16,1035.5 1880.5,1035C 1879.33,1033.83 1878.17,1032.67 1877,1031.5C 1876.33,995.833 1876.33,960.167 1877,924.5C 1878.04,923.627 1878.88,922.627 1879.5,921.5 Z"/></g>
<g><path style="opacity:0.958" fill="#000000" d="M 2468.5,921.5 C 2490.22,921.044 2511.89,921.544 2533.5,923C 2537.74,927.704 2537.41,932.038 2532.5,936C 2517.54,937.355 2502.54,937.855 2487.5,937.5C 2487.5,947.833 2487.5,958.167 2487.5,968.5C 2501.84,968.333 2516.17,968.5 2530.5,969C 2532.06,970.996 2532.73,973.329 2532.5,976C 2532.33,977.833 2532.17,979.667 2532,981.5C 2531.25,982.126 2530.42,982.626 2529.5,983C 2515.17,983.5 2500.84,983.667 2486.5,983.5C 2486.5,1000.5 2486.5,1017.5 2486.5,1034.5C 2481.2,1035.51 2475.87,1035.68 2470.5,1035C 2469.87,1034.25 2469.37,1033.42 2469,1032.5C 2468.5,995.502 2468.33,958.502 2468.5,921.5 Z"/></g>
<g><path style="opacity:0.958" fill="#000000" d="M 4249.5,921.5 C 4266.2,922.1 4282.87,923.267 4299.5,925C 4310.02,927.175 4315.52,933.675 4316,944.5C 4319.51,957.114 4316.01,967.114 4305.5,974.5C 4312.67,980.853 4317.84,988.52 4321,997.5C 4323.63,1020.42 4313.46,1032.58 4290.5,1034C 4277.52,1035.25 4264.52,1035.58 4251.5,1035C 4249.71,1034.22 4248.21,1033.05 4247,1031.5C 4245.35,996.252 4245.01,960.918 4246,925.5C 4246.69,923.65 4247.86,922.316 4249.5,921.5 Z M 4263.5,936.5 C 4272.32,935.971 4280.99,936.804 4289.5,939C 4297.56,945.736 4299.72,953.903 4296,963.5C 4293.81,966.181 4290.97,967.681 4287.5,968C 4280.46,969.441 4273.46,969.441 4266.5,968C 4265.14,966.055 4264.3,963.888 4264,961.5C 4263.5,953.173 4263.33,944.84 4263.5,936.5 Z M 4263.5,983.5 C 4273.65,982.915 4283.65,983.748 4293.5,986C 4299.82,988.957 4303.15,993.957 4303.5,1001C 4304,1010.36 4300,1016.69 4291.5,1020C 4283.11,1021.8 4274.77,1021.8 4266.5,1020C 4264.93,1017.07 4264.1,1013.9 4264,1010.5C 4263.5,1001.51 4263.33,992.506 4263.5,983.5 Z"/></g>
<g><path style="opacity:0.94" fill="#000000" d="M 717.5,923.5 C 728.576,923.395 739.576,924.229 750.5,926C 761.233,931.637 765.4,940.47 763,952.5C 759.995,959.77 755.162,961.27 748.5,957C 746.141,952.451 743.641,947.951 741,943.5C 733.207,935.54 724.373,934.04 714.5,939C 711.769,941.626 709.936,944.793 709,948.5C 708.333,969.5 708.333,990.5 709,1011.5C 709.883,1014.1 711.383,1016.27 713.5,1018C 722.995,1021.61 732.329,1021.28 741.5,1017C 743.562,1014.93 744.728,1012.43 745,1009.5C 745.171,1004.14 745.671,998.802 746.5,993.5C 751.801,995.211 756.968,997.211 762,999.5C 764.288,1025.38 752.455,1037.04 726.5,1034.5C 716.076,1035.45 706.409,1033.28 697.5,1028C 694.156,1024.48 691.989,1020.31 691,1015.5C 689.047,989.826 689.047,964.16 691,938.5C 692.399,932.1 696.233,927.934 702.5,926C 707.643,925.162 712.643,924.328 717.5,923.5 Z"/></g>
<g><path style="opacity:0.951" fill="#000000" d="M 3082.5,923.5 C 3091.17,923.334 3099.84,923.5 3108.5,924C 3124.13,924.968 3132.47,933.301 3133.5,949C 3133.48,955.123 3130.31,957.956 3124,957.5C 3121.19,957.297 3118.52,956.631 3116,955.5C 3113.68,938.674 3104.18,932.841 3087.5,938C 3080.96,939.545 3077.8,943.711 3078,950.5C 3077.83,960.167 3077.67,969.833 3077.5,979.5C 3077.38,990.555 3077.88,1001.55 3079,1012.5C 3081.25,1017.37 3085.08,1019.87 3090.5,1020C 3097.5,1021.09 3104.17,1020.09 3110.5,1017C 3113.85,1012.45 3115.52,1007.28 3115.5,1001.5C 3114.84,998.532 3114.51,995.532 3114.5,992.5C 3109.49,992.666 3104.49,992.499 3099.5,992C 3096.31,990.305 3093.97,987.805 3092.5,984.5C 3094.65,981.849 3096.98,979.349 3099.5,977C 3110.49,977.565 3121.49,978.399 3132.5,979.5C 3132.81,991.539 3132.31,1003.54 3131,1015.5C 3129.54,1026.29 3123.37,1032.46 3112.5,1034C 3098.89,1036.65 3085.55,1035.65 3072.5,1031C 3065.45,1028.62 3061.29,1023.79 3060,1016.5C 3059.33,991.167 3059.33,965.833 3060,940.5C 3063.68,929.639 3071.18,923.972 3082.5,923.5 Z"/></g>
<g><path style="opacity:0.95" fill="#000000" d="M 4858.5,923.5 C 4871.61,922.966 4884.61,923.8 4897.5,926C 4909.32,932.804 4912.82,942.637 4908,955.5C 4907.13,958.203 4905.3,959.536 4902.5,959.5C 4899.22,959.109 4896.39,957.776 4894,955.5C 4892.48,951.103 4890.82,946.77 4889,942.5C 4887.27,940.383 4885.1,938.883 4882.5,938C 4875.01,935.684 4867.68,936.017 4860.5,939C 4856.6,942.631 4854.77,947.131 4855,952.5C 4854.06,972.543 4854.39,992.543 4856,1012.5C 4857.72,1016.78 4860.89,1019.28 4865.5,1020C 4886.24,1024.09 4895.24,1015.59 4892.5,994.5C 4896.86,995.116 4901.2,995.95 4905.5,997C 4907.67,997.833 4909.17,999.333 4910,1001.5C 4911.91,1011.1 4909.74,1019.6 4903.5,1027C 4884.1,1036.15 4864.44,1036.82 4844.5,1029C 4841.57,1026.74 4839.4,1023.9 4838,1020.5C 4836.37,994.216 4836.04,967.882 4837,941.5C 4839.48,929.85 4846.65,923.85 4858.5,923.5 Z"/></g>
</svg>
