<?xml version="1.0" encoding="utf-8"?>
<!-- Generator: Adobe Illustrator 26.0.2, SVG Export Plug-In . SVG Version: 6.00 Build 0)  -->
<svg version="1.1" id="Layer_1" xmlns="http://www.w3.org/2000/svg" xmlns:xlink="http://www.w3.org/1999/xlink" x="0px" y="0px"
	 viewBox="0 0 641 183.8" style="enable-background:new 0 0 641 183.8;" xml:space="preserve">
<style type="text/css">
	.st0{fill:none;stroke:#000000;stroke-width:0.5;stroke-miterlimit:10;}
	.st1{fill:none;stroke:#7C287D;stroke-width:1.5;stroke-miterlimit:10;}
	.st2{fill:none;stroke:#67BF75;stroke-miterlimit:10;}
</style>
<line id="XMLID_1283_" class="st0" x1="107.7" y1="122" x2="138.4" y2="122"/>
<g id="XMLID_1277_">
	<line id="XMLID_1282_" class="st0" x1="0" y1="40.5" x2="641" y2="40.5"/>
	<line id="XMLID_1281_" class="st0" x1="-0.2" y1="20.2" x2="640.8" y2="20.2"/>
	<line id="XMLID_1280_" class="st0" x1="0" y1="60.8" x2="641" y2="60.8"/>
	<line id="XMLID_1279_" class="st0" x1="0" y1="81.2" x2="641" y2="81.2"/>
	<line id="XMLID_1278_" class="st0" x1="0" y1="101.5" x2="641" y2="101.5"/>
</g>
<line id="XMLID_1276_" class="st0" x1="145" y1="173.7" x2="145" y2="111.8"/>
<circle id="XMLID_1273_" class="st1" cx="155" cy="111.8" r="10.2"/>
<line id="XMLID_1272_" class="st0" x1="113.1" y1="183.8" x2="113.1" y2="122"/>
<circle id="XMLID_1269_" class="st1" cx="123" cy="122" r="10.2"/>
<line id="XMLID_1268_" class="st0" x1="177" y1="163.3" x2="177" y2="101.5"/>
<circle id="XMLID_1265_" class="st1" cx="186.9" cy="101.5" r="10.2"/>
<line id="XMLID_1264_" class="st0" x1="208.9" y1="153.2" x2="208.9" y2="91.3"/>
<circle id="XMLID_1261_" class="st1" cx="218.8" cy="91.3" r="10.2"/>
<line id="XMLID_1260_" class="st0" x1="600" y1="121.9" x2="630.7" y2="121.9"/>
<line id="XMLID_1259_" class="st0" x1="240.8" y1="142.7" x2="240.8" y2="80.9"/>
<circle id="XMLID_1256_" class="st1" cx="250.7" cy="80.9" r="10.2"/>
<line id="XMLID_1255_" class="st0" x1="272.8" y1="132.8" x2="272.8" y2="71"/>
<circle id="XMLID_1252_" class="st1" cx="282.7" cy="71" r="10.2"/>
<line id="XMLID_1251_" class="st0" x1="304.7" y1="122.8" x2="304.7" y2="61"/>
<circle id="XMLID_1250_" class="st1" cx="314.6" cy="61" r="10.2"/>
<line id="XMLID_1249_" class="st0" x1="336.6" y1="112.6" x2="336.6" y2="50.7"/>
<circle id="XMLID_1246_" class="st1" cx="346.5" cy="50.7" r="10.2"/>
<line id="XMLID_1245_" class="st0" x1="413.8" y1="124.3" x2="413.8" y2="62.5"/>
<circle id="XMLID_1397_" class="st1" cx="423.7" cy="62.5" r="10.2"/>
<line id="XMLID_1241_" class="st0" x1="381.9" y1="112.5" x2="381.9" y2="50.7"/>
<circle id="XMLID_1238_" class="st1" cx="391.8" cy="50.7" r="10.2"/>
<line id="XMLID_1237_" class="st0" x1="445.8" y1="133.2" x2="445.8" y2="71.4"/>
<circle id="XMLID_1234_" class="st1" cx="455.7" cy="71.4" r="10.2"/>
<line id="XMLID_1233_" class="st0" x1="477.7" y1="143.6" x2="477.7" y2="81.7"/>
<circle id="XMLID_1230_" class="st1" cx="487.6" cy="81.7" r="10.2"/>
<line id="XMLID_1229_" class="st0" x1="509.6" y1="153.2" x2="509.6" y2="91.3"/>
<circle id="XMLID_1226_" class="st1" cx="519.5" cy="91.3" r="10.2"/>
<line id="XMLID_1225_" class="st0" x1="541.5" y1="164.2" x2="541.5" y2="102.3"/>
<circle id="XMLID_1222_" class="st1" cx="551.5" cy="102.3" r="10.2"/>
<line id="XMLID_1221_" class="st0" x1="573.5" y1="173.5" x2="573.5" y2="111.7"/>
<circle id="XMLID_1218_" class="st1" cx="583.4" cy="111.7" r="10.2"/>
<line id="XMLID_1217_" class="st0" x1="605.4" y1="184.7" x2="605.4" y2="122.8"/>
<circle id="XMLID_1214_" class="st1" cx="615.3" cy="122.8" r="10.2"/>
<g id="XMLID_2916_">
	<path id="XMLID_2917_" d="M123.5,126.7c-0.5,0.2-1.4,0.5-2.7,0.5c-2.8,0-5-1.8-5-5.1c0-3.2,2.1-5.3,5.3-5.3c1.2,0,2.1,0.3,2.4,0.5
		l-0.3,1.1c-0.5-0.2-1.2-0.4-2-0.4c-2.4,0-3.9,1.5-3.9,4.2c0,2.5,1.4,4.1,3.9,4.1c0.8,0,1.6-0.2,2.1-0.4L123.5,126.7z"/>
</g>
<g id="XMLID_2913_">
	<path id="XMLID_2914_" d="M616.6,127.8c-0.5,0.2-1.4,0.5-2.7,0.5c-2.8,0-5-1.8-5-5.1c0-3.2,2.1-5.3,5.3-5.3c1.2,0,2.1,0.3,2.4,0.5
		l-0.3,1.1c-0.5-0.2-1.2-0.4-2-0.4c-2.4,0-3.9,1.5-3.9,4.2c0,2.5,1.4,4.1,3.9,4.1c0.8,0,1.6-0.2,2.1-0.4L616.6,127.8z"/>
</g>
<g id="XMLID_2909_">
	<path id="XMLID_2910_" d="M149,107.1c0.8-0.1,1.7-0.2,2.8-0.2c1.9,0,3.2,0.5,4.1,1.3c0.9,0.8,1.4,2,1.4,3.6c0,1.6-0.5,3-1.5,3.9
		c-1,0.9-2.5,1.5-4.5,1.5c-0.9,0-1.7,0-2.4-0.1V107.1z M150.3,116.1c0.3,0,0.8,0.1,1.3,0.1c2.8,0,4.3-1.6,4.3-4.3
		c0-2.4-1.3-3.9-4.1-3.9c-0.7,0-1.2,0.1-1.5,0.1V116.1z"/>
</g>
<g id="XMLID_2905_">
	<path id="XMLID_2906_" d="M577.2,107.2c0.8-0.1,1.7-0.2,2.8-0.2c1.9,0,3.2,0.5,4.1,1.3c0.9,0.8,1.4,2,1.4,3.6c0,1.7-0.5,3-1.5,3.9
		c-1,0.9-2.5,1.5-4.5,1.5c-0.9,0-1.7,0-2.4-0.1V107.2z M578.5,116.1c0.3,0,0.8,0.1,1.3,0.1c2.8,0,4.3-1.6,4.3-4.3
		c0-2.4-1.3-3.9-4.1-3.9c-0.7,0-1.2,0.1-1.5,0.1V116.1z"/>
</g>
<g id="XMLID_2902_">
	<path id="XMLID_2903_" d="M186.9,101.6h-3.9v3.6h4.4v1.1h-5.7V96.2h5.5v1.1h-4.2v3.2h3.9V101.6z"/>
</g>
<g id="XMLID_2899_">
	<path id="XMLID_2900_" d="M551.8,102.4h-3.9v3.6h4.4v1.1h-5.7V97h5.5v1.1h-4.2v3.2h3.9V102.4z"/>
</g>
<g id="XMLID_2896_">
	<path id="XMLID_2897_" d="M213.9,86.2h5.4v1.1h-4.1v3.4h3.8v1.1h-3.8v4.6h-1.3V86.2z"/>
</g>
<g id="XMLID_2893_">
	<path id="XMLID_2894_" d="M514.8,85.9h5.4V87h-4.1v3.4h3.8v1.1h-3.8V96h-1.3V85.9z"/>
</g>
<line id="XMLID_1205_" class="st0" x1="333.8" y1="40.6" x2="358.1" y2="40.6"/>
<g id="XMLID_2890_">
	<path id="XMLID_2891_" d="M251.6,85.6c-0.6,0.2-1.8,0.6-3.1,0.6c-1.5,0-2.8-0.4-3.8-1.3c-0.9-0.8-1.4-2.2-1.4-3.8
		c0-3,2.1-5.2,5.5-5.2c1.2,0,2.1,0.3,2.5,0.5l-0.3,1.1c-0.5-0.3-1.2-0.4-2.2-0.4c-2.5,0-4.1,1.5-4.1,4.1c0,2.6,1.5,4.1,3.9,4.1
		c0.9,0,1.4-0.1,1.7-0.3v-3h-2v-1h3.3V85.6z"/>
</g>
<g id="XMLID_2887_">
	<path id="XMLID_2888_" d="M489,86.1c-0.6,0.2-1.8,0.6-3.1,0.6c-1.5,0-2.8-0.4-3.8-1.3c-0.9-0.8-1.4-2.2-1.4-3.8
		c0-3,2.1-5.2,5.5-5.2c1.2,0,2.1,0.3,2.5,0.5l-0.3,1.1c-0.5-0.3-1.2-0.4-2.2-0.4c-2.5,0-4.1,1.5-4.1,4.1c0,2.6,1.5,4.1,3.9,4.1
		c0.9,0,1.4-0.1,1.7-0.3v-3h-2v-1h3.3V86.1z"/>
</g>
<g id="XMLID_2883_">
	<path id="XMLID_2884_" d="M278,72.1l-1,3.2h-1.4l3.5-10.1h1.6l3.5,10.1h-1.4l-1.1-3.2H278z M281.3,71.1l-1-2.9
		c-0.2-0.7-0.4-1.3-0.5-1.8h0c-0.1,0.6-0.3,1.2-0.5,1.8l-1,2.9H281.3z"/>
</g>
<g id="XMLID_2879_">
	<path id="XMLID_2880_" d="M451.5,72.5l-1,3.2h-1.4l3.5-10.1h1.6l3.5,10.1h-1.4l-1.1-3.2H451.5z M454.8,71.5l-1-2.9
		c-0.2-0.7-0.4-1.3-0.5-1.8h0c-0.1,0.6-0.3,1.2-0.5,1.8l-1,2.9H454.8z"/>
</g>
<g id="XMLID_2874_">
	<path id="XMLID_2875_" d="M309.5,56c0.6-0.1,1.5-0.2,2.4-0.2c1.3,0,2.1,0.2,2.8,0.7c0.5,0.4,0.9,1,0.9,1.8c0,1-0.7,1.8-1.7,2.2v0
		c1,0.2,2.1,1,2.1,2.5c0,0.9-0.3,1.5-0.9,2c-0.7,0.6-1.8,0.9-3.5,0.9c-0.9,0-1.6-0.1-2-0.1V56z M310.8,60.2h1.2
		c1.4,0,2.2-0.7,2.2-1.7c0-1.2-0.9-1.6-2.2-1.6c-0.6,0-0.9,0-1.2,0.1V60.2z M310.8,65c0.3,0,0.6,0.1,1.1,0.1c1.3,0,2.6-0.5,2.6-2
		c0-1.4-1.2-1.9-2.6-1.9h-1.1V65z"/>
</g>
<g id="XMLID_2869_">
	<path id="XMLID_2870_" d="M418.6,58.1c0.6-0.1,1.5-0.2,2.4-0.2c1.3,0,2.1,0.2,2.8,0.7c0.5,0.4,0.9,1,0.9,1.8c0,1-0.7,1.8-1.7,2.2v0
		c1,0.2,2.1,1,2.1,2.5c0,0.9-0.3,1.5-0.9,2c-0.7,0.6-1.8,0.9-3.5,0.9c-0.9,0-1.6-0.1-2-0.1V58.1z M419.9,62.3h1.2
		c1.4,0,2.2-0.7,2.2-1.7c0-1.2-0.9-1.6-2.2-1.6c-0.6,0-0.9,0-1.2,0.1V62.3z M419.9,67.1c0.3,0,0.6,0.1,1.1,0.1c1.3,0,2.6-0.5,2.6-2
		c0-1.4-1.2-1.9-2.6-1.9h-1.1V67.1z"/>
</g>
<g id="XMLID_2866_">
	<path id="XMLID_2867_" d="M346.9,55.8c-0.5,0.2-1.4,0.5-2.7,0.5c-2.8,0-5-1.8-5-5.1c0-3.2,2.1-5.3,5.3-5.3c1.2,0,2.1,0.3,2.4,0.4
		l-0.3,1.1c-0.5-0.2-1.2-0.4-2-0.4c-2.4,0-3.9,1.5-3.9,4.2c0,2.5,1.4,4.1,3.9,4.1c0.8,0,1.6-0.2,2.1-0.4L346.9,55.8z"/>
</g>
<g id="XMLID_2863_">
	<path id="XMLID_2864_" d="M393.4,55.7c-0.5,0.2-1.4,0.5-2.7,0.5c-2.8,0-5-1.8-5-5.1c0-3.2,2.1-5.3,5.3-5.3c1.2,0,2.1,0.3,2.4,0.4
		l-0.3,1.1c-0.5-0.2-1.2-0.4-2-0.4c-2.4,0-3.9,1.5-3.9,4.2c0,2.5,1.4,4.1,3.9,4.1c0.8,0,1.6-0.2,2.1-0.4L393.4,55.7z"/>
</g>
<g id="XMLID_1191_">
	<path id="XMLID_1192_" d="M47.5,101.3c-2.1,0.7-4.3,1-6.5,1.1c-5.8,0.1-11.2-1.5-15.8-5c-4.9-3.7-7.5-8.7-8.7-14.6
		c-1.1-5.7,0-11.1,2.4-16.3c2.1-4.5,5-8.5,8.2-12.2c0.7-0.8,1.4-1.5,2.1-2.3c0.3-0.3,0.3-0.5,0.2-0.9c-0.8-2.8-1.8-5.5-2.4-8.3
		c-1.3-5.6-1.5-11.3,0.3-16.9c2.1-6.4,6-11.2,12.5-13.5c0.8-0.3,1.6-0.5,2.4-0.6c1.7-0.1,3.2,0.6,4.5,1.6c2.7,2.1,4,5,4.2,8.3
		c0.3,5.1-1.4,9.7-3.8,14.2c-2.3,4.3-5.4,8.2-8.6,11.9c-1.1,1.3-2.1,2.5-3.2,3.7c-0.3,0.4-0.1,0.6,0,0.9c2,3.9,3.9,7.8,5.9,11.6
		c1-0.2,2-0.5,3.1-0.7c3.1-0.6,6.1,0,8.9,1.4c5.5,2.9,8.8,7.5,9.8,13.7c0.8,5-0.6,9.6-3.4,13.7c-1.8,2.7-4.1,4.9-6.8,6.6
		c-0.4,0.3-0.5,0.5-0.4,1c0.5,3.1,1.1,6.1,1.6,9.2c0.5,3.4,0.7,6.8-0.4,10.1c-1.4,4.5-4.6,7.1-9,8.3c-5.7,1.5-10.9,0.3-15.5-3.2
		c-3.9-2.9-6.5-6.6-7.6-11.4c-0.1-0.6-0.2-1.3-0.3-1.9c0-0.3,0-0.6,0-0.9c1.3,6.7,5,11.5,11.1,14.3c4.3,2,8.7,2.1,13-0.1
		c3.3-1.7,5-4.5,5.1-8.2c0.1-3.3-0.8-6.4-1.5-9.6c-0.4-1.5-0.8-2.9-1.2-4.4C47.7,101.7,47.6,101.5,47.5,101.3z M46,96
		c-2.5-9.1-6.5-17.6-9.3-26.6c-2.5,2.7-3.5,5.7-2.7,9.1c1,4.3,3.6,7.2,7.9,8.4c-0.3,0-0.5,0-0.8-0.1c-4.8-1.1-8.4-5.9-8.5-10.9
		c0-2.9,1-5.4,2.9-7.5c0.4-0.4,0.4-0.7,0.2-1.2c-0.6-1.6-1.2-3.1-1.9-4.7c-0.8-2-1.6-3.9-2.5-6c-0.8,1.1-1.6,2.1-2.3,3.1
		c-2.4,3.4-4.5,7.1-5.8,11.1c-1,3.3-1.3,6.6-0.7,10c0.8,4,2.9,7.4,5.7,10.3C33.2,95.8,39.2,97.2,46,96z M33.3,47.8
		c1.5-1.5,2.9-3,4.2-4.4c2.7-2.9,5.3-5.9,7.4-9.3c2.2-3.6,3.9-7.3,4.1-11.6c0.1-3.2-0.8-6-3.3-8.1c-1.4-1.2-2.9-1.8-4.9-1
		c-4.2,1.8-7.2,4.7-9.2,8.8c-2,4.2-2.4,8.6-1.9,13.1C30.2,39.6,31.5,43.7,33.3,47.8z M51.3,93.7c2.7-1.8,4.7-3.9,6.2-6.6
		c1.5-2.8,2.2-5.7,1.8-8.9c-0.4-3.3-1.9-6.2-4.2-8.6c-2.8-2.9-6.1-4.4-10.2-4.1c-0.9,0.1-1.7,0.3-2.8,0.5
		C46.8,74.8,49,84.2,51.3,93.7z"/>
</g>
<path id="XMLID_1345_" d="M63.8,23c0,7.3,0,14.5,0,22.2c2.2-0.4,3.9-0.8,5.7-1.1c4.1-0.7,5.9,1.4,4.6,5.2c-1.6,5-5.6,8.1-11.5,8.8
	c0-11.7,0-23.4,0-35.2C63,23,63.4,23,63.8,23z M63.8,55.7c0.4,0.2,0.8,0.4,1.1,0.6c1.8-1.8,3.8-3.5,5.3-5.6c0.6-0.8,0-2.4,0-3.6
	c-1.6,0.1-3.2,0-4.7,0.4c-0.7,0.2-1.5,1.2-1.6,1.9C63.7,51.5,63.8,53.6,63.8,55.7z"/>
<path id="XMLID_1342_" d="M71.8,5c0,7.3,0,14.5,0,22.2c2.2-0.4,3.9-0.8,5.7-1.1c4.1-0.7,5.9,1.4,4.6,5.2c-1.6,5-5.6,8.1-11.5,8.8
	c0-11.7,0-23.4,0-35.2C71,5,71.4,5,71.8,5z M71.8,37.7c0.4,0.2,0.8,0.4,1.1,0.6c1.8-1.8,3.8-3.5,5.3-5.6c0.6-0.8,0-2.4,0-3.6
	c-1.6,0.1-3.2,0-4.7,0.4c-0.7,0.2-1.5,1.2-1.6,1.9C71.7,33.5,71.8,35.6,71.8,37.7z"/>
<path id="XMLID_1339_" d="M86.4,31c0,7.3,0,14.5,0,22.2c2.2-0.4,3.9-0.8,5.7-1.1c4.1-0.7,5.9,1.4,4.6,5.2c-1.6,5-5.6,8.1-11.5,8.8
	c0-11.7,0-23.4,0-35.2C85.5,31,85.9,31,86.4,31z M86.3,63.7c0.4,0.2,0.8,0.4,1.1,0.6c1.8-1.8,3.8-3.5,5.3-5.6c0.6-0.8,0-2.4,0-3.6
	c-1.6,0.1-3.2,0-4.7,0.4c-0.7,0.2-1.5,1.2-1.6,1.9C86.2,59.5,86.3,61.6,86.3,63.7z"/>
<path id="XMLID_1336_" d="M94.4,13c0,7.3,0,14.5,0,22.2c2.2-0.4,3.9-0.8,5.7-1.1c4.1-0.7,5.9,1.4,4.6,5.2c-1.6,5-5.6,8.1-11.5,8.8
	c0-11.7,0-23.4,0-35.2C93.5,13,93.9,13,94.4,13z M94.3,45.7c0.4,0.2,0.8,0.4,1.1,0.6c1.8-1.8,3.8-3.5,5.3-5.6c0.6-0.8,0-2.4,0-3.6
	c-1.6,0.1-3.2,0-4.7,0.4c-0.7,0.2-1.5,1.2-1.6,1.9C94.2,41.5,94.3,43.6,94.3,45.7z"/>
<path id="XMLID_1364_" d="M107.2,44.3c0,7.3,0,14.5,0,22.2c2.2-0.4,3.9-0.8,5.7-1.1c4.1-0.7,5.9,1.4,4.6,5.2
	c-1.6,5-5.6,8.1-11.5,8.8c0-11.7,0-23.4,0-35.2C106.3,44.3,106.7,44.3,107.2,44.3z M107.1,77c0.4,0.2,0.8,0.4,1.1,0.6
	c1.8-1.8,3.8-3.5,5.3-5.6c0.6-0.8,0-2.4,0-3.6c-1.6,0.1-3.2,0-4.7,0.4c-0.7,0.2-1.5,1.2-1.6,1.9C107,72.8,107.1,74.9,107.1,77z"/>
<path id="XMLID_1370_" d="M125.4,114.9c0,2.5,0,5,0,7.7c0.8-0.1,1.4-0.3,2-0.4c1.4-0.2,2,0.5,1.6,1.8c-0.6,1.7-1.9,2.8-4,3
	c0-4.1,0-8.1,0-12.2C125.1,114.9,125.2,114.9,125.4,114.9z M125.4,126.2c0.1,0.1,0.3,0.1,0.4,0.2c0.6-0.6,1.3-1.2,1.8-1.9
	c0.2-0.3,0-0.8,0-1.2c-0.5,0-1.1,0-1.6,0.1c-0.2,0.1-0.5,0.4-0.6,0.7C125.3,124.7,125.4,125.5,125.4,126.2z"/>
<path id="XMLID_1373_" d="M158.4,104.9c0,2.5,0,5,0,7.7c0.8-0.1,1.4-0.3,2-0.4c1.4-0.2,2,0.5,1.6,1.8c-0.6,1.7-1.9,2.8-4,3
	c0-4.1,0-8.1,0-12.2C158.1,104.9,158.3,104.9,158.4,104.9z M158.4,116.3c0.1,0.1,0.3,0.1,0.4,0.2c0.6-0.6,1.3-1.2,1.8-1.9
	c0.2-0.3,0-0.8,0-1.2c-0.5,0-1.1,0-1.6,0.1c-0.2,0.1-0.5,0.4-0.6,0.7C158.4,114.8,158.4,115.5,158.4,116.3z"/>
<path id="XMLID_1376_" d="M189.6,94.6c0,2.5,0,5,0,7.7c0.8-0.1,1.4-0.3,2-0.4c1.4-0.2,2,0.5,1.6,1.8c-0.6,1.7-1.9,2.8-4,3
	c0-4.1,0-8.1,0-12.2C189.3,94.6,189.4,94.6,189.6,94.6z M189.6,106c0.1,0.1,0.3,0.1,0.4,0.2c0.6-0.6,1.3-1.2,1.8-1.9
	c0.2-0.3,0-0.8,0-1.2c-0.5,0-1.1,0-1.6,0.1c-0.2,0.1-0.5,0.4-0.6,0.7C189.5,104.5,189.6,105.2,189.6,106z"/>
<path id="XMLID_1379_" d="M253.2,73.8c0,2.5,0,5,0,7.7c0.8-0.1,1.4-0.3,2-0.4c1.4-0.2,2,0.5,1.6,1.8c-0.6,1.7-1.9,2.8-4,3
	c0-4.1,0-8.1,0-12.2C252.9,73.8,253,73.8,253.2,73.8z M253.2,85.2c0.1,0.1,0.3,0.1,0.4,0.2c0.6-0.6,1.3-1.2,1.8-1.9
	c0.2-0.3,0-0.8,0-1.2c-0.5,0-1.1,0-1.6,0.1c-0.2,0.1-0.5,0.4-0.6,0.7C253.1,83.7,253.2,84.4,253.2,85.2z"/>
<path id="XMLID_1382_" d="M285.2,63.7c0,2.5,0,5,0,7.7c0.8-0.1,1.4-0.3,2-0.4c1.4-0.2,2,0.5,1.6,1.8c-0.6,1.7-1.9,2.8-4,3
	c0-4.1,0-8.1,0-12.2C284.9,63.7,285,63.7,285.2,63.7z M285.2,75c0.1,0.1,0.3,0.1,0.4,0.2c0.6-0.6,1.3-1.2,1.8-1.9
	c0.2-0.3,0-0.8,0-1.2c-0.5,0-1.1,0-1.6,0.1c-0.2,0.1-0.5,0.4-0.6,0.7C285.1,73.5,285.2,74.3,285.2,75z"/>
<path id="XMLID_1385_" d="M317.1,53.8c0,2.5,0,5,0,7.7c0.8-0.1,1.4-0.3,2-0.4c1.4-0.2,2,0.5,1.6,1.8c-0.6,1.7-1.9,2.8-4,3
	c0-4.1,0-8.1,0-12.2C316.8,53.8,317,53.8,317.1,53.8z M317.1,65.1c0.1,0.1,0.3,0.1,0.4,0.2c0.6-0.6,1.3-1.2,1.8-1.9
	c0.2-0.3,0-0.8,0-1.2c-0.5,0-1.1,0-1.6,0.1c-0.2,0.1-0.5,0.4-0.6,0.7C317.1,63.7,317.1,64.4,317.1,65.1z"/>
<path id="XMLID_1388_" d="M348.4,43.9c0,2.5,0,5,0,7.7c0.8-0.1,1.4-0.3,2-0.4c1.4-0.2,2,0.5,1.6,1.8c-0.6,1.7-1.9,2.8-4,3
	c0-4.1,0-8.1,0-12.2C348.1,43.9,348.2,43.9,348.4,43.9z M348.4,55.2c0.1,0.1,0.3,0.1,0.4,0.2c0.6-0.6,1.3-1.2,1.8-1.9
	c0.2-0.3,0-0.8,0-1.2c-0.5,0-1.1,0-1.6,0.1c-0.2,0.1-0.5,0.4-0.6,0.7C348.3,53.7,348.4,54.5,348.4,55.2z"/>
<path id="XMLID_1391_" d="M394.7,43.9c0,2.5,0,5,0,7.7c0.8-0.1,1.4-0.3,2-0.4c1.4-0.2,2,0.5,1.6,1.8c-0.6,1.7-1.9,2.8-4,3
	c0-4.1,0-8.1,0-12.2C394.4,43.9,394.6,43.9,394.7,43.9z M394.7,55.2c0.1,0.1,0.3,0.1,0.4,0.2c0.6-0.6,1.3-1.2,1.8-1.9
	c0.2-0.3,0-0.8,0-1.2c-0.5,0-1.1,0-1.6,0.1c-0.2,0.1-0.5,0.4-0.6,0.7C394.7,53.7,394.7,54.5,394.7,55.2z"/>
<path id="XMLID_1394_" d="M426.3,56c0,2.5,0,5,0,7.7c0.8-0.1,1.4-0.3,2-0.4c1.4-0.2,2,0.5,1.6,1.8c-0.6,1.7-1.9,2.8-4,3
	c0-4.1,0-8.1,0-12.2C426,56,426.2,56,426.3,56z M426.3,67.4c0.1,0.1,0.3,0.1,0.4,0.2c0.6-0.6,1.3-1.2,1.8-1.9c0.2-0.3,0-0.8,0-1.2
	c-0.5,0-1.1,0-1.6,0.1c-0.2,0.1-0.5,0.4-0.6,0.7C426.3,65.9,426.3,66.6,426.3,67.4z"/>
<path id="XMLID_1400_" d="M459,63.6c0,2.5,0,5,0,7.7c0.8-0.1,1.4-0.3,2-0.4c1.4-0.2,2,0.5,1.6,1.8c-0.6,1.7-1.9,2.8-4,3
	c0-4.1,0-8.1,0-12.2C458.7,63.6,458.8,63.6,459,63.6z M459,74.9c0.1,0.1,0.3,0.1,0.4,0.2c0.6-0.6,1.3-1.2,1.8-1.9
	c0.2-0.3,0-0.8,0-1.2c-0.5,0-1.1,0-1.6,0.1c-0.2,0.1-0.5,0.4-0.6,0.7C458.9,73.4,459,74.2,459,74.9z"/>
<path id="XMLID_1403_" d="M490.3,74.7c0,2.5,0,5,0,7.7c0.8-0.1,1.4-0.3,2-0.4c1.4-0.2,2,0.5,1.6,1.8c-0.6,1.7-1.9,2.8-4,3
	c0-4.1,0-8.1,0-12.2C490,74.7,490.2,74.7,490.3,74.7z M490.3,86c0.1,0.1,0.3,0.1,0.4,0.2c0.6-0.6,1.3-1.2,1.8-1.9
	c0.2-0.3,0-0.8,0-1.2c-0.5,0-1.1,0-1.6,0.1c-0.2,0.1-0.5,0.4-0.6,0.7C490.3,84.6,490.3,85.3,490.3,86z"/>
<path id="XMLID_1406_" d="M521.7,84.2c0,2.5,0,5,0,7.7c0.8-0.1,1.4-0.3,2-0.4c1.4-0.2,2,0.5,1.6,1.8c-0.6,1.7-1.9,2.8-4,3
	c0-4.1,0-8.1,0-12.2C521.4,84.2,521.5,84.2,521.7,84.2z M521.7,95.5c0.1,0.1,0.3,0.1,0.4,0.2c0.6-0.6,1.3-1.2,1.8-1.9
	c0.2-0.3,0-0.8,0-1.2c-0.5,0-1.1,0-1.6,0.1c-0.2,0.1-0.5,0.4-0.6,0.7C521.6,94.1,521.7,94.8,521.7,95.5z"/>
<path id="XMLID_1458_" d="M221.2,84.2c0,2.5,0,5,0,7.7c0.8-0.1,1.4-0.3,2-0.4c1.4-0.2,2,0.5,1.6,1.8c-0.6,1.7-1.9,2.8-4,3
	c0-4.1,0-8.1,0-12.2C220.9,84.2,221.1,84.2,221.2,84.2z M221.2,95.5c0.1,0.1,0.3,0.1,0.4,0.2c0.6-0.6,1.3-1.2,1.8-1.9
	c0.2-0.3,0-0.8,0-1.2c-0.5,0-1.1,0-1.6,0.1c-0.2,0.1-0.5,0.4-0.6,0.7C221.2,94.1,221.2,94.8,221.2,95.5z"/>
<path id="XMLID_1409_" d="M553.7,95.4c0,2.5,0,5,0,7.7c0.8-0.1,1.4-0.3,2-0.4c1.4-0.2,2,0.5,1.6,1.8c-0.6,1.7-1.9,2.8-4,3
	c0-4.1,0-8.1,0-12.2C553.5,95.4,553.6,95.4,553.7,95.4z M553.7,106.7c0.1,0.1,0.3,0.1,0.4,0.2c0.6-0.6,1.3-1.2,1.8-1.9
	c0.2-0.3,0-0.8,0-1.2c-0.5,0-1.1,0-1.6,0.1c-0.2,0.1-0.5,0.4-0.6,0.7C553.7,105.3,553.7,106,553.7,106.7z"/>
<path id="XMLID_1412_" d="M586.7,105c0,2.5,0,5,0,7.7c0.8-0.1,1.4-0.3,2-0.4c1.4-0.2,2,0.5,1.6,1.8c-0.6,1.7-1.9,2.8-4,3
	c0-4.1,0-8.1,0-12.2C586.4,105,586.5,105,586.7,105z M586.6,116.3c0.1,0.1,0.3,0.1,0.4,0.2c0.6-0.6,1.3-1.2,1.8-1.9
	c0.2-0.3,0-0.8,0-1.2c-0.5,0-1.1,0-1.6,0.1c-0.2,0.1-0.5,0.4-0.6,0.7C586.6,114.8,586.6,115.6,586.6,116.3z"/>
<path id="XMLID_1415_" d="M618.5,115.7c0,2.5,0,5,0,7.7c0.8-0.1,1.4-0.3,2-0.4c1.4-0.2,2,0.5,1.6,1.8c-0.6,1.7-1.9,2.8-4,3
	c0-4.1,0-8.1,0-12.2C618.2,115.7,618.3,115.7,618.5,115.7z M618.5,127.1c0.1,0.1,0.3,0.1,0.4,0.2c0.6-0.6,1.3-1.2,1.8-1.9
	c0.2-0.3,0-0.8,0-1.2c-0.5,0-1.1,0-1.6,0.1c-0.2,0.1-0.5,0.4-0.6,0.7C618.4,125.6,618.5,126.3,618.5,127.1z"/>
<path id="XMLID_1367_" d="M127,58.8c0,7.3,0,14.5,0,22.2c2.2-0.4,3.9-0.8,5.7-1.1c4.1-0.7,5.9,1.4,4.6,5.2c-1.6,5-5.6,8.1-11.5,8.8
	c0-11.7,0-23.4,0-35.2C126.2,58.8,126.6,58.8,127,58.8z M127,91.5c0.4,0.2,0.8,0.4,1.1,0.6c1.8-1.8,3.8-3.5,5.3-5.6
	c0.6-0.8,0-2.4,0-3.6c-1.6,0.1-3.2,0-4.7,0.4c-0.7,0.2-1.5,1.2-1.6,1.9C126.9,87.3,127,89.4,127,91.5z"/>
<path id="XMLID_1361_" d="M115.2,26.3c0,7.3,0,14.5,0,22.2c2.2-0.4,3.9-0.8,5.7-1.1c4.1-0.7,5.9,1.4,4.6,5.2
	c-1.6,5-5.6,8.1-11.5,8.8c0-11.7,0-23.4,0-35.2C114.3,26.3,114.7,26.3,115.2,26.3z M115.1,59c0.4,0.2,0.8,0.4,1.1,0.6
	c1.8-1.8,3.8-3.5,5.3-5.6c0.6-0.8,0-2.4,0-3.6c-1.6,0.1-3.2,0-4.7,0.4c-0.7,0.2-1.5,1.2-1.6,1.9C115,54.8,115.1,56.9,115.1,59z"/>
</svg>
