<?xml version="1.0" encoding="utf-8"?>
<!-- Generator: Adobe Illustrator 25.0.0, SVG Export Plug-In . SVG Version: 6.00 Build 0)  -->
<svg version="1.1" id="Layer_1" xmlns="http://www.w3.org/2000/svg" xmlns:xlink="http://www.w3.org/1999/xlink" x="0px" y="0px"
	 viewBox="0 0 641 183.8" style="enable-background:new 0 0 641 183.8;" xml:space="preserve">
<style type="text/css">
	.st0{fill:none;stroke:#000000;stroke-width:0.5;stroke-miterlimit:10;}
	.st1{fill:none;stroke:#7C287D;stroke-width:1.5;stroke-miterlimit:10;}
	.st2{fill:none;stroke:#67BF75;stroke-miterlimit:10;}
</style>
<line id="XMLID_1882_" class="st0" x1="107.7" y1="122" x2="138.4" y2="122"/>
<line id="XMLID_1859_" class="st0" x1="600" y1="121.9" x2="630.7" y2="121.9"/>
<g id="XMLID_1876_">
	<line id="XMLID_1881_" class="st0" x1="0" y1="40.5" x2="641" y2="40.5"/>
	<line id="XMLID_1880_" class="st0" x1="-0.2" y1="20.2" x2="640.8" y2="20.2"/>
	<line id="XMLID_1879_" class="st0" x1="0" y1="60.8" x2="641" y2="60.8"/>
	<line id="XMLID_1878_" class="st0" x1="0" y1="81.2" x2="641" y2="81.2"/>
	<line id="XMLID_1877_" class="st0" x1="0" y1="101.5" x2="641" y2="101.5"/>
</g>
<circle id="XMLID_1872_" class="st1" cx="155" cy="111.8" r="10.2"/>
<circle id="XMLID_1868_" class="st1" cx="123" cy="122" r="10.2"/>
<circle id="XMLID_1864_" class="st1" cx="186.9" cy="101.5" r="10.2"/>
<circle id="XMLID_1860_" class="st1" cx="218.8" cy="91.3" r="10.2"/>
<circle id="XMLID_1855_" class="st1" cx="250.7" cy="80.9" r="10.2"/>
<circle id="XMLID_1851_" class="st1" cx="282.7" cy="71" r="10.2"/>
<circle id="XMLID_1849_" class="st1" cx="314.6" cy="61" r="10.2"/>
<circle id="XMLID_1845_" class="st1" cx="346.5" cy="50.7" r="10.2"/>
<circle id="XMLID_1789_" class="st1" cx="423.7" cy="62.5" r="10.2"/>
<circle id="XMLID_1785_" class="st1" cx="391.8" cy="50.7" r="10.2"/>
<circle id="XMLID_1781_" class="st1" cx="455.7" cy="71.4" r="10.2"/>
<circle id="XMLID_1765_" class="st1" cx="487.6" cy="81.7" r="10.2"/>
<circle id="XMLID_1761_" class="st1" cx="519.5" cy="91.3" r="10.2"/>
<circle id="XMLID_1757_" class="st1" cx="551.5" cy="102.3" r="10.2"/>
<circle id="XMLID_1753_" class="st1" cx="583.4" cy="111.7" r="10.2"/>
<circle id="XMLID_1749_" class="st1" cx="615.3" cy="122.8" r="10.2"/>
<g id="XMLID_2972_">
	<path id="XMLID_2973_" d="M123.4,126.7c-0.5,0.2-1.4,0.5-2.7,0.5c-2.8,0-5-1.8-5-5.1c0-3.2,2.1-5.3,5.3-5.3c1.2,0,2.1,0.3,2.4,0.5
		l-0.3,1.1c-0.5-0.2-1.2-0.4-2-0.4c-2.4,0-3.9,1.5-3.9,4.2c0,2.5,1.4,4.1,3.9,4.1c0.8,0,1.6-0.2,2.1-0.4L123.4,126.7z"/>
</g>
<g id="XMLID_2969_">
	<path id="XMLID_2970_" d="M616.2,127.8c-0.5,0.2-1.4,0.5-2.7,0.5c-2.8,0-5-1.8-5-5.1c0-3.2,2.1-5.3,5.3-5.3c1.2,0,2.1,0.3,2.4,0.5
		l-0.3,1.1c-0.5-0.2-1.2-0.4-2-0.4c-2.4,0-3.9,1.5-3.9,4.2c0,2.5,1.4,4.1,3.9,4.1c0.8,0,1.6-0.2,2.1-0.4L616.2,127.8z"/>
</g>
<g id="XMLID_2965_">
	<path id="XMLID_2966_" d="M148.3,107.2c0.8-0.1,1.7-0.2,2.8-0.2c1.9,0,3.2,0.5,4.1,1.3c0.9,0.8,1.4,2,1.4,3.6c0,1.6-0.5,3-1.5,3.9
		c-1,0.9-2.5,1.5-4.5,1.5c-0.9,0-1.7,0-2.4-0.1V107.2z M149.6,116.1c0.3,0,0.8,0.1,1.3,0.1c2.8,0,4.3-1.6,4.3-4.3
		c0-2.4-1.3-3.9-4.1-3.9c-0.7,0-1.2,0.1-1.5,0.1V116.1z"/>
</g>
<g id="XMLID_2961_">
	<path id="XMLID_2962_" d="M576.7,106.4c0.8-0.1,1.7-0.2,2.8-0.2c1.9,0,3.2,0.5,4.1,1.3c0.9,0.8,1.4,2,1.4,3.6c0,1.7-0.5,3-1.5,3.9
		c-1,0.9-2.5,1.5-4.5,1.5c-0.9,0-1.7,0-2.4-0.1V106.4z M578,115.3c0.3,0,0.8,0.1,1.3,0.1c2.8,0,4.3-1.6,4.3-4.3
		c0-2.4-1.3-3.9-4.1-3.9c-0.7,0-1.2,0.1-1.5,0.1V115.3z"/>
</g>
<g id="XMLID_2958_">
	<path id="XMLID_2959_" d="M186.3,101.6h-3.9v3.6h4.4v1.1h-5.7V96.2h5.5v1.1h-4.2v3.2h3.9V101.6z"/>
</g>
<g id="XMLID_2955_">
	<path id="XMLID_2956_" d="M550.9,102.4H547v3.6h4.4v1.1h-5.7V97h5.5v1.1H547v3.2h3.9V102.4z"/>
</g>
<g id="XMLID_2952_">
	<path id="XMLID_2953_" d="M213.4,86.3h5.4v1.1h-4.1v3.4h3.8v1.1h-3.8v4.6h-1.3V86.3z"/>
</g>
<g id="XMLID_2949_">
	<path id="XMLID_2950_" d="M514.3,85.9h5.4V87h-4.1v3.4h3.8v1.1h-3.8V96h-1.3V85.9z"/>
</g>
<g id="XMLID_2946_">
	<path id="XMLID_2947_" d="M251.1,85.6c-0.6,0.2-1.8,0.6-3.1,0.6c-1.5,0-2.8-0.4-3.8-1.3c-0.9-0.8-1.4-2.2-1.4-3.8
		c0-3,2.1-5.2,5.5-5.2c1.2,0,2.1,0.3,2.5,0.5l-0.3,1.1c-0.5-0.3-1.2-0.4-2.2-0.4c-2.5,0-4.1,1.5-4.1,4.1c0,2.6,1.5,4.1,3.9,4.1
		c0.9,0,1.4-0.1,1.7-0.3v-3h-2v-1h3.3V85.6z"/>
</g>
<g id="XMLID_2943_">
	<path id="XMLID_2944_" d="M488.5,86.3c-0.6,0.2-1.8,0.6-3.1,0.6c-1.5,0-2.8-0.4-3.8-1.3c-0.9-0.8-1.4-2.2-1.4-3.8
		c0-3,2.1-5.2,5.5-5.2c1.2,0,2.1,0.3,2.5,0.5l-0.3,1.1c-0.5-0.3-1.2-0.4-2.2-0.4c-2.5,0-4.1,1.5-4.1,4.1c0,2.6,1.5,4.1,3.9,4.1
		c0.9,0,1.4-0.1,1.7-0.3v-3h-2v-1h3.3V86.3z"/>
</g>
<g id="XMLID_2939_">
	<path id="XMLID_2940_" d="M277.8,72.1l-1,3.2h-1.4l3.5-10.1h1.6l3.5,10.1h-1.4l-1.1-3.2H277.8z M281.2,71.1l-1-2.9
		c-0.2-0.7-0.4-1.3-0.5-1.8h0c-0.1,0.6-0.3,1.2-0.5,1.8l-1,2.9H281.2z"/>
</g>
<g id="XMLID_2935_">
	<path id="XMLID_2936_" d="M450.6,72.1l-1,3.2h-1.3l3.4-10.1h1.6l3.4,10.1h-1.4l-1.1-3.2H450.6z M454,71.1l-1-2.9
		c-0.2-0.7-0.4-1.3-0.5-1.8h0c-0.2,0.6-0.3,1.2-0.5,1.8l-1,2.9H454z"/>
</g>
<g id="XMLID_2930_">
	<path id="XMLID_2931_" d="M308.5,56c0.6-0.1,1.5-0.2,2.4-0.2c1.3,0,2.1,0.2,2.8,0.7c0.5,0.4,0.9,1,0.9,1.8c0,1-0.7,1.8-1.7,2.2v0
		c1,0.2,2.1,1,2.1,2.5c0,0.9-0.3,1.5-0.9,2c-0.7,0.6-1.8,0.9-3.5,0.9c-0.9,0-1.6-0.1-2-0.1V56z M309.8,60.2h1.2
		c1.4,0,2.2-0.7,2.2-1.7c0-1.2-0.9-1.6-2.2-1.6c-0.6,0-0.9,0-1.2,0.1V60.2z M309.8,65c0.3,0,0.6,0.1,1.1,0.1c1.3,0,2.6-0.5,2.6-2
		c0-1.4-1.2-1.9-2.6-1.9h-1.1V65z"/>
</g>
<g id="XMLID_2925_">
	<path id="XMLID_2926_" d="M417.7,58.1c0.6-0.1,1.5-0.2,2.4-0.2c1.3,0,2.1,0.2,2.8,0.7c0.5,0.4,0.9,1,0.9,1.8c0,1-0.7,1.8-1.7,2.2v0
		c1,0.2,2.1,1,2.1,2.5c0,0.9-0.3,1.5-0.9,2c-0.7,0.6-1.8,0.9-3.5,0.9c-0.9,0-1.6-0.1-2-0.1V58.1z M419,62.3h1.2
		c1.4,0,2.2-0.7,2.2-1.7c0-1.2-0.9-1.6-2.2-1.6c-0.6,0-0.9,0-1.2,0.1V62.3z M419,67.1c0.3,0,0.6,0.1,1.1,0.1c1.3,0,2.6-0.5,2.6-2
		c0-1.4-1.2-1.9-2.6-1.9H419V67.1z"/>
</g>
<g id="XMLID_2922_">
	<path id="XMLID_2923_" d="M347,55.8c-0.5,0.2-1.4,0.5-2.7,0.5c-2.8,0-5-1.8-5-5.1c0-3.2,2.1-5.3,5.3-5.3c1.2,0,2.1,0.3,2.4,0.4
		l-0.3,1.1c-0.5-0.2-1.2-0.4-2-0.4c-2.4,0-3.9,1.5-3.9,4.2c0,2.5,1.4,4.1,3.9,4.1c0.8,0,1.6-0.2,2.1-0.4L347,55.8z"/>
</g>
<g id="XMLID_2919_">
	<path id="XMLID_2920_" d="M392.7,55.7c-0.5,0.2-1.4,0.5-2.7,0.5c-2.8,0-5-1.8-5-5.1c0-3.2,2.1-5.3,5.3-5.3c1.2,0,2.1,0.3,2.4,0.4
		l-0.3,1.1c-0.5-0.2-1.2-0.4-2-0.4c-2.4,0-3.9,1.5-3.9,4.2c0,2.5,1.4,4.1,3.9,4.1c0.8,0,1.6-0.2,2.1-0.4L392.7,55.7z"/>
</g>
<g id="XMLID_1718_">
	<path id="XMLID_1719_" d="M47.5,101.3c-2.1,0.7-4.3,1-6.5,1.1c-5.8,0.1-11.2-1.5-15.8-5c-4.9-3.7-7.5-8.7-8.7-14.6
		c-1.1-5.7,0-11.1,2.4-16.3c2.1-4.5,5-8.5,8.2-12.2c0.7-0.8,1.4-1.5,2.1-2.3c0.3-0.3,0.3-0.5,0.2-0.9c-0.8-2.8-1.8-5.5-2.4-8.3
		c-1.3-5.6-1.5-11.3,0.3-16.9c2.1-6.4,6-11.2,12.5-13.5c0.8-0.3,1.6-0.5,2.4-0.6c1.7-0.1,3.2,0.6,4.5,1.6c2.7,2.1,4,5,4.2,8.3
		c0.3,5.1-1.4,9.7-3.8,14.2c-2.3,4.3-5.4,8.2-8.6,11.9c-1.1,1.3-2.1,2.5-3.2,3.7c-0.3,0.4-0.1,0.6,0,0.9c2,3.9,3.9,7.8,5.9,11.6
		c1-0.2,2-0.5,3.1-0.7c3.1-0.6,6.1,0,8.9,1.4c5.5,2.9,8.8,7.5,9.8,13.7c0.8,5-0.6,9.6-3.4,13.7c-1.8,2.7-4.1,4.9-6.8,6.6
		c-0.4,0.3-0.5,0.5-0.4,1c0.5,3.1,1.1,6.1,1.6,9.2c0.5,3.4,0.7,6.8-0.4,10.1c-1.4,4.5-4.6,7.1-9,8.3c-5.7,1.5-10.9,0.3-15.5-3.2
		c-3.9-2.9-6.5-6.6-7.6-11.4c-0.1-0.6-0.2-1.3-0.3-1.9c0-0.3,0-0.6,0-0.9c1.3,6.7,5,11.5,11.1,14.3c4.3,2,8.7,2.1,13-0.1
		c3.3-1.7,5-4.5,5.1-8.2c0.1-3.3-0.8-6.4-1.5-9.6c-0.4-1.5-0.8-2.9-1.2-4.4C47.7,101.7,47.6,101.5,47.5,101.3z M46,96
		c-2.5-9.1-6.5-17.6-9.3-26.6c-2.5,2.7-3.5,5.7-2.7,9.1c1,4.3,3.6,7.2,7.9,8.4c-0.3,0-0.5,0-0.8-0.1c-4.8-1.1-8.4-5.9-8.5-10.9
		c0-2.9,1-5.4,2.9-7.5c0.4-0.4,0.4-0.7,0.2-1.2c-0.6-1.6-1.2-3.1-1.9-4.7c-0.8-2-1.6-3.9-2.5-6c-0.8,1.1-1.6,2.1-2.3,3.1
		c-2.4,3.4-4.5,7.1-5.8,11.1c-1,3.3-1.3,6.6-0.7,10c0.8,4,2.9,7.4,5.7,10.3C33.2,95.8,39.2,97.2,46,96z M33.3,47.8
		c1.5-1.5,2.9-3,4.2-4.4c2.7-2.9,5.3-5.9,7.4-9.3c2.2-3.6,3.9-7.3,4.1-11.6c0.1-3.2-0.8-6-3.3-8.1c-1.4-1.2-2.9-1.8-4.9-1
		c-4.2,1.8-7.2,4.7-9.2,8.8c-2,4.2-2.4,8.6-1.9,13.1C30.2,39.6,31.5,43.7,33.3,47.8z M51.3,93.7c2.7-1.8,4.7-3.9,6.2-6.6
		c1.5-2.8,2.2-5.7,1.8-8.9c-0.4-3.3-1.9-6.2-4.2-8.6c-2.8-2.9-6.1-4.4-10.2-4.1c-0.9,0.1-1.7,0.3-2.8,0.5
		C46.8,74.8,49,84.2,51.3,93.7z"/>
</g>
<g id="XMLID_1443_">
	<path id="XMLID_1456_" d="M84.1,34.9c-0.5,0.1-0.9,0.1-1.5,0.2c0-2.4,0-4.8,0-7.3c-1.7,0.5-3.4,1-5.1,1.4c0-1.4,0-2.8,0-4.2
		c0-0.1,0.3-0.3,0.4-0.4c1.3-0.4,2.7-0.8,4-1.2c0.2-0.1,0.4-0.1,0.6-0.2c0-2.3,0-4.5,0-6.8c-1.7,0.5-3.3,0.9-5,1.4
		c0-1.5,0-2.9,0-4.4c0.7-0.2,1.4-0.4,2.1-0.6c0.8-0.2,1.6-0.5,2.5-0.7c0.4-0.1,0.5-0.3,0.5-0.7c0-2,0-4,0-5.9c0-0.2,0-0.5,0-0.7
		c0.5-0.1,1-0.1,1.5-0.2c0,2.3,0,4.6,0,7c0.8-0.2,1.6-0.4,2.3-0.6c0.9-0.2,1.8-0.5,2.7-0.7c0.3-0.1,0.5-0.2,0.5-0.6c0-2,0-4,0-6.1
		c0-0.6,0.1-0.8,0.7-0.8c0.2,0,0.5-0.1,0.8-0.1c0,2.3,0,4.6,0,7c1.7-0.5,3.3-0.9,5.1-1.4c0,1.5,0,2.9,0,4.2c0,0.1-0.3,0.3-0.5,0.3
		c-1.5,0.4-3,0.9-4.5,1.3c0,2.3,0,4.5,0,6.9c1.7-0.5,3.3-0.9,5-1.4c0,1.5,0,2.9,0,4.5c-1.4,0.4-2.9,0.8-4.3,1.2
		c-0.5,0.1-0.7,0.3-0.7,0.9c0,2.2,0,4.5,0,6.8c-0.5,0.1-1,0.1-1.5,0.2c0-2.4,0-4.8,0-7.2c-1.2,0.3-2.3,0.6-3.5,0.9
		c-0.2,0.1-0.4,0.1-0.6,0.2c-1.5,0.4-1.5,0.4-1.5,2c0,1.8,0,3.6,0,5.4C84.1,34.5,84.1,34.7,84.1,34.9z M84.1,22.9
		c1.8-0.5,3.5-1,5.2-1.5c0.1,0,0.3-0.4,0.3-0.5c0-1.4,0-2.9,0-4.3c0-0.7,0-1.3,0-2.1c-1.7,0.5-3.4,1-5,1.4c-0.4,0.1-0.5,0.3-0.5,0.7
		c0,1.8,0,3.6,0,5.3C84.1,22.2,84.1,22.6,84.1,22.9z"/>
</g>
<g id="XMLID_1421_">
	<path id="XMLID_1422_" d="M100.2,63.3c-0.5,0.1-0.9,0.1-1.5,0.2c0-2.4,0-4.8,0-7.3c-1.7,0.5-3.4,1-5.1,1.4c0-1.4,0-2.8,0-4.2
		c0-0.1,0.3-0.3,0.4-0.4c1.3-0.4,2.7-0.8,4-1.2c0.2-0.1,0.4-0.1,0.6-0.2c0-2.3,0-4.5,0-6.8c-1.7,0.5-3.3,0.9-5,1.4
		c0-1.5,0-2.9,0-4.4c0.7-0.2,1.4-0.4,2.1-0.6c0.8-0.2,1.6-0.5,2.5-0.7c0.4-0.1,0.5-0.3,0.5-0.7c0-2,0-4,0-5.9c0-0.2,0-0.5,0-0.7
		c0.5-0.1,1-0.1,1.5-0.2c0,2.3,0,4.6,0,7c0.8-0.2,1.6-0.4,2.3-0.6c0.9-0.2,1.8-0.5,2.7-0.7c0.3-0.1,0.5-0.2,0.5-0.6c0-2,0-4,0-6.1
		c0-0.6,0.1-0.8,0.7-0.8c0.2,0,0.5-0.1,0.8-0.1c0,2.3,0,4.6,0,7c1.7-0.5,3.3-0.9,5.1-1.4c0,1.5,0,2.9,0,4.2c0,0.1-0.3,0.3-0.5,0.3
		c-1.5,0.4-3,0.9-4.5,1.3c0,2.3,0,4.5,0,6.9c1.7-0.5,3.3-0.9,5-1.4c0,1.5,0,2.9,0,4.5c-1.4,0.4-2.9,0.8-4.3,1.2
		c-0.5,0.1-0.7,0.3-0.7,0.9c0,2.2,0,4.5,0,6.8c-0.5,0.1-1,0.1-1.5,0.2c0-2.4,0-4.8,0-7.2c-1.2,0.3-2.3,0.6-3.5,0.9
		c-0.2,0.1-0.4,0.1-0.6,0.2c-1.5,0.4-1.5,0.4-1.5,2c0,1.8,0,3.6,0,5.4C100.2,62.9,100.2,63.1,100.2,63.3z M100.2,51.3
		c1.8-0.5,3.5-1,5.2-1.5c0.1,0,0.3-0.4,0.3-0.5c0-1.4,0-2.9,0-4.3c0-0.7,0-1.3,0-2.1c-1.7,0.5-3.4,1-5,1.4c-0.4,0.1-0.5,0.3-0.5,0.7
		c0,1.8,0,3.6,0,5.3C100.2,50.6,100.2,51,100.2,51.3z"/>
</g>
<g id="XMLID_1350_">
	<path id="XMLID_1418_" d="M124.2,53.2c-0.5,0.1-0.9,0.1-1.5,0.2c0-2.4,0-4.8,0-7.3c-1.7,0.5-3.4,1-5.1,1.4c0-1.4,0-2.8,0-4.2
		c0-0.1,0.3-0.3,0.4-0.4c1.3-0.4,2.7-0.8,4-1.2c0.2-0.1,0.4-0.1,0.6-0.2c0-2.3,0-4.5,0-6.8c-1.7,0.5-3.3,0.9-5,1.4
		c0-1.5,0-2.9,0-4.4c0.7-0.2,1.4-0.4,2.1-0.6c0.8-0.2,1.6-0.5,2.5-0.7c0.4-0.1,0.5-0.3,0.5-0.7c0-2,0-4,0-5.9c0-0.2,0-0.5,0-0.7
		c0.5-0.1,1-0.1,1.5-0.2c0,2.3,0,4.6,0,7c0.8-0.2,1.6-0.4,2.3-0.6c0.9-0.2,1.8-0.5,2.7-0.7c0.3-0.1,0.5-0.2,0.5-0.6c0-2,0-4,0-6.1
		c0-0.6,0.1-0.8,0.7-0.8c0.2,0,0.5-0.1,0.8-0.1c0,2.3,0,4.6,0,7c1.7-0.5,3.3-0.9,5.1-1.4c0,1.5,0,2.9,0,4.2c0,0.1-0.3,0.3-0.5,0.3
		c-1.5,0.4-3,0.9-4.5,1.3c0,2.3,0,4.5,0,6.9c1.7-0.5,3.3-0.9,5-1.4c0,1.5,0,2.9,0,4.5c-1.4,0.4-2.9,0.8-4.3,1.2
		c-0.5,0.1-0.7,0.3-0.7,0.9c0,2.2,0,4.5,0,6.8c-0.5,0.1-1,0.1-1.5,0.2c0-2.4,0-4.8,0-7.2c-1.2,0.3-2.3,0.6-3.5,0.9
		c-0.2,0.1-0.4,0.1-0.6,0.2c-1.5,0.4-1.5,0.4-1.5,2c0,1.8,0,3.6,0,5.4C124.2,52.8,124.2,53,124.2,53.2z M124.2,41.2
		c1.8-0.5,3.5-1,5.2-1.5c0.1,0,0.3-0.4,0.3-0.5c0-1.4,0-2.9,0-4.3c0-0.7,0-1.3,0-2.1c-1.7,0.5-3.4,1-5,1.4c-0.4,0.1-0.5,0.3-0.5,0.7
		c0,1.8,0,3.6,0,5.3C124.2,40.5,124.2,40.9,124.2,41.2z"/>
</g>
<g id="XMLID_1334_">
	<path id="XMLID_1335_" d="M61.3,45c-0.5,0.1-0.9,0.1-1.5,0.2c0-2.4,0-4.8,0-7.3c-1.7,0.5-3.4,1-5.1,1.4c0-1.4,0-2.8,0-4.2
		c0-0.1,0.3-0.3,0.4-0.4c1.3-0.4,2.7-0.8,4-1.2c0.2-0.1,0.4-0.1,0.6-0.2c0-2.3,0-4.5,0-6.8c-1.7,0.5-3.3,0.9-5,1.4
		c0-1.5,0-2.9,0-4.4c0.7-0.2,1.4-0.4,2.1-0.6c0.8-0.2,1.6-0.5,2.5-0.7c0.4-0.1,0.5-0.3,0.5-0.7c0-2,0-4,0-5.9c0-0.2,0-0.5,0-0.7
		c0.5-0.1,1-0.1,1.5-0.2c0,2.3,0,4.6,0,7c0.8-0.2,1.6-0.4,2.3-0.6c0.9-0.2,1.8-0.5,2.7-0.7c0.3-0.1,0.5-0.2,0.5-0.6c0-2,0-4,0-6.1
		c0-0.6,0.1-0.8,0.7-0.8c0.2,0,0.5-0.1,0.8-0.1c0,2.3,0,4.6,0,7c1.7-0.5,3.3-0.9,5.1-1.4c0,1.5,0,2.9,0,4.2c0,0.1-0.3,0.3-0.5,0.3
		c-1.5,0.4-3,0.9-4.5,1.3c0,2.3,0,4.5,0,6.9c1.7-0.5,3.3-0.9,5-1.4c0,1.5,0,2.9,0,4.5c-1.4,0.4-2.9,0.8-4.3,1.2
		c-0.5,0.1-0.7,0.3-0.7,0.9c0,2.2,0,4.5,0,6.8c-0.5,0.1-1,0.1-1.5,0.2c0-2.4,0-4.8,0-7.2c-1.2,0.3-2.3,0.6-3.5,0.9
		C63.2,37,63,37,62.8,37.1c-1.5,0.4-1.5,0.4-1.5,2c0,1.8,0,3.6,0,5.4C61.4,44.6,61.3,44.8,61.3,45z M61.4,33c1.8-0.5,3.5-1,5.2-1.5
		c0.1,0,0.3-0.4,0.3-0.5c0-1.4,0-2.9,0-4.3c0-0.7,0-1.3,0-2.1c-1.7,0.5-3.4,1-5,1.4c-0.4,0.1-0.5,0.3-0.5,0.7c0,1.8,0,3.6,0,5.3
		C61.4,32.3,61.4,32.7,61.4,33z"/>
</g>
<g id="XMLID_1316_">
	<path id="XMLID_1318_" d="M77.5,73.4c-0.5,0.1-0.9,0.1-1.5,0.2c0-2.4,0-4.8,0-7.3c-1.7,0.5-3.4,1-5.1,1.4c0-1.4,0-2.8,0-4.2
		c0-0.1,0.3-0.3,0.4-0.4c1.3-0.4,2.7-0.8,4-1.2c0.2-0.1,0.4-0.1,0.6-0.2c0-2.3,0-4.5,0-6.8c-1.7,0.5-3.3,0.9-5,1.4
		c0-1.5,0-2.9,0-4.4c0.7-0.2,1.4-0.4,2.1-0.6c0.8-0.2,1.6-0.5,2.5-0.7c0.4-0.1,0.5-0.3,0.5-0.7c0-2,0-4,0-5.9c0-0.2,0-0.5,0-0.7
		c0.5-0.1,1-0.1,1.5-0.2c0,2.3,0,4.6,0,7c0.8-0.2,1.6-0.4,2.3-0.6c0.9-0.2,1.8-0.5,2.7-0.7c0.3-0.1,0.5-0.2,0.5-0.6c0-2,0-4,0-6.1
		c0-0.6,0.1-0.8,0.7-0.8c0.2,0,0.5-0.1,0.8-0.1c0,2.3,0,4.6,0,7c1.7-0.5,3.3-0.9,5.1-1.4c0,1.5,0,2.9,0,4.2c0,0.1-0.3,0.3-0.5,0.3
		c-1.5,0.4-3,0.9-4.5,1.3c0,2.3,0,4.5,0,6.9c1.7-0.5,3.3-0.9,5-1.4c0,1.5,0,2.9,0,4.5c-1.4,0.4-2.9,0.8-4.3,1.2
		c-0.5,0.1-0.7,0.3-0.7,0.9c0,2.2,0,4.5,0,6.8c-0.5,0.1-1,0.1-1.5,0.2c0-2.4,0-4.8,0-7.2c-1.2,0.3-2.3,0.6-3.5,0.9
		c-0.2,0.1-0.4,0.1-0.6,0.2c-1.5,0.4-1.5,0.4-1.5,2c0,1.8,0,3.6,0,5.4C77.5,73,77.5,73.2,77.5,73.4z M77.5,61.4
		c1.8-0.5,3.5-1,5.2-1.5c0.1,0,0.3-0.4,0.3-0.5c0-1.4,0-2.9,0-4.3c0-0.7,0-1.3,0-2.1c-1.7,0.5-3.4,1-5,1.4c-0.4,0.1-0.5,0.3-0.5,0.7
		c0,1.8,0,3.6,0,5.3C77.5,60.7,77.5,61.1,77.5,61.4z"/>
</g>
<g id="XMLID_1310_">
	<path id="XMLID_1312_" d="M115.4,91.7c-0.5,0.1-0.9,0.1-1.5,0.2c0-2.4,0-4.8,0-7.3c-1.7,0.5-3.4,1-5.1,1.4c0-1.4,0-2.8,0-4.2
		c0-0.1,0.3-0.3,0.4-0.4c1.3-0.4,2.7-0.8,4-1.2c0.2-0.1,0.4-0.1,0.6-0.2c0-2.3,0-4.5,0-6.8c-1.7,0.5-3.3,0.9-5,1.4
		c0-1.5,0-2.9,0-4.4c0.7-0.2,1.4-0.4,2.1-0.6c0.8-0.2,1.6-0.5,2.5-0.7c0.4-0.1,0.5-0.3,0.5-0.7c0-2,0-4,0-5.9c0-0.2,0-0.5,0-0.7
		c0.5-0.1,1-0.1,1.5-0.2c0,2.3,0,4.6,0,7c0.8-0.2,1.6-0.4,2.3-0.6c0.9-0.2,1.8-0.5,2.7-0.7c0.3-0.1,0.5-0.2,0.5-0.6c0-2,0-4,0-6.1
		c0-0.6,0.1-0.8,0.7-0.8c0.2,0,0.5-0.1,0.8-0.1c0,2.3,0,4.6,0,7c1.7-0.5,3.3-0.9,5.1-1.4c0,1.5,0,2.9,0,4.2c0,0.1-0.3,0.3-0.5,0.3
		c-1.5,0.4-3,0.9-4.5,1.3c0,2.3,0,4.5,0,6.9c1.7-0.5,3.3-0.9,5-1.4c0,1.5,0,2.9,0,4.5c-1.4,0.4-2.9,0.8-4.3,1.2
		c-0.5,0.1-0.7,0.3-0.7,0.9c0,2.2,0,4.5,0,6.8c-0.5,0.1-1,0.1-1.5,0.2c0-2.4,0-4.8,0-7.2c-1.2,0.3-2.3,0.6-3.5,0.9
		c-0.2,0.1-0.4,0.1-0.6,0.2c-1.5,0.4-1.5,0.4-1.5,2c0,1.8,0,3.6,0,5.4C115.4,91.3,115.4,91.5,115.4,91.7z M115.4,79.7
		c1.8-0.5,3.5-1,5.2-1.5c0.1,0,0.3-0.4,0.3-0.5c0-1.4,0-2.9,0-4.3c0-0.7,0-1.3,0-2.1c-1.7,0.5-3.4,1-5,1.4c-0.4,0.1-0.5,0.3-0.5,0.7
		c0,1.8,0,3.6,0,5.3C115.4,79,115.4,79.4,115.4,79.7z"/>
</g>
<g id="XMLID_1520_">
	<path id="XMLID_1521_" d="M138.5,81.7c-0.5,0.1-0.9,0.1-1.5,0.2c0-2.4,0-4.8,0-7.3c-1.7,0.5-3.4,1-5.1,1.4c0-1.4,0-2.8,0-4.2
		c0-0.1,0.3-0.3,0.4-0.4c1.3-0.4,2.7-0.8,4-1.2c0.2-0.1,0.4-0.1,0.6-0.2c0-2.3,0-4.5,0-6.8c-1.7,0.5-3.3,0.9-5,1.4
		c0-1.5,0-2.9,0-4.4c0.7-0.2,1.4-0.4,2.1-0.6c0.8-0.2,1.6-0.5,2.5-0.7c0.4-0.1,0.5-0.3,0.5-0.7c0-2,0-4,0-5.9c0-0.2,0-0.5,0-0.7
		c0.5-0.1,1-0.1,1.5-0.2c0,2.3,0,4.6,0,7c0.8-0.2,1.6-0.4,2.3-0.6c0.9-0.2,1.8-0.5,2.7-0.7c0.3-0.1,0.5-0.2,0.5-0.6c0-2,0-4,0-6.1
		c0-0.6,0.1-0.8,0.7-0.8c0.2,0,0.5-0.1,0.8-0.1c0,2.3,0,4.6,0,7c1.7-0.5,3.3-0.9,5.1-1.4c0,1.5,0,2.9,0,4.2c0,0.1-0.3,0.3-0.5,0.3
		c-1.5,0.4-3,0.9-4.5,1.3c0,2.3,0,4.5,0,6.9c1.7-0.5,3.3-0.9,5-1.4c0,1.5,0,2.9,0,4.5c-1.4,0.4-2.9,0.8-4.3,1.2
		c-0.5,0.1-0.7,0.3-0.7,0.9c0,2.2,0,4.5,0,6.8c-0.5,0.1-1,0.1-1.5,0.2c0-2.4,0-4.8,0-7.2c-1.2,0.3-2.3,0.6-3.5,0.9
		c-0.2,0.1-0.4,0.1-0.6,0.2c-1.5,0.4-1.5,0.4-1.5,2c0,1.8,0,3.6,0,5.4C138.5,81.3,138.5,81.5,138.5,81.7z M138.5,69.7
		c1.8-0.5,3.5-1,5.2-1.5c0.1,0,0.3-0.4,0.3-0.5c0-1.4,0-2.9,0-4.3c0-0.7,0-1.3,0-2.1c-1.7,0.5-3.4,1-5,1.4c-0.4,0.1-0.5,0.3-0.5,0.7
		c0,1.8,0,3.6,0,5.3C138.5,69,138.5,69.4,138.5,69.7z"/>
</g>
<g id="XMLID_2180_">
	<path id="XMLID_2181_" d="M125.7,126.7c-0.2,0-0.3,0-0.5,0.1c0-0.8,0-1.6,0-2.5c-0.6,0.2-1.1,0.3-1.7,0.5c0-0.5,0-1,0-1.4
		c0,0,0.1-0.1,0.1-0.1c0.5-0.1,0.9-0.3,1.4-0.4c0.1,0,0.1,0,0.2-0.1c0-0.8,0-1.5,0-2.3c-0.6,0.2-1.1,0.3-1.7,0.5c0-0.5,0-1,0-1.5
		c0.2-0.1,0.5-0.1,0.7-0.2c0.3-0.1,0.6-0.2,0.8-0.2c0.1,0,0.2-0.1,0.2-0.2c0-0.7,0-1.3,0-2c0-0.1,0-0.2,0-0.2c0.2,0,0.3,0,0.5-0.1
		c0,0.8,0,1.6,0,2.4c0.3-0.1,0.5-0.2,0.8-0.2c0.3-0.1,0.6-0.2,0.9-0.3c0.1,0,0.2-0.1,0.2-0.2c0-0.7,0-1.4,0-2.1c0-0.2,0-0.3,0.2-0.3
		c0.1,0,0.2,0,0.3,0c0,0.8,0,1.6,0,2.4c0.6-0.2,1.1-0.3,1.7-0.5c0,0.5,0,1,0,1.4c0,0-0.1,0.1-0.2,0.1c-0.5,0.1-1,0.3-1.5,0.4
		c0,0.8,0,1.5,0,2.3c0.6-0.2,1.1-0.3,1.7-0.5c0,0.5,0,1,0,1.5c-0.5,0.1-1,0.3-1.5,0.4c-0.2,0-0.2,0.1-0.2,0.3c0,0.8,0,1.5,0,2.3
		c-0.2,0-0.3,0-0.5,0.1c0-0.8,0-1.6,0-2.5c-0.4,0.1-0.8,0.2-1.2,0.3c-0.1,0-0.1,0-0.2,0.1c-0.5,0.1-0.5,0.1-0.5,0.7
		c0,0.6,0,1.2,0,1.8C125.7,126.6,125.7,126.7,125.7,126.7z M125.7,122.7c0.6-0.2,1.2-0.3,1.8-0.5c0,0,0.1-0.1,0.1-0.2
		c0-0.5,0-1,0-1.5c0-0.2,0-0.5,0-0.7c-0.6,0.2-1.1,0.3-1.7,0.5c-0.1,0-0.2,0.1-0.2,0.2c0,0.6,0,1.2,0,1.8
		C125.7,122.4,125.7,122.5,125.7,122.7z"/>
</g>
<g id="XMLID_1949_">
	<path id="XMLID_1950_" d="M617.7,127.9c-0.2,0-0.3,0-0.5,0.1c0-0.8,0-1.6,0-2.5c-0.6,0.2-1.1,0.3-1.7,0.5c0-0.5,0-1,0-1.4
		c0,0,0.1-0.1,0.1-0.1c0.5-0.1,0.9-0.3,1.4-0.4c0.1,0,0.1,0,0.2-0.1c0-0.8,0-1.5,0-2.3c-0.6,0.2-1.1,0.3-1.7,0.5c0-0.5,0-1,0-1.5
		c0.2-0.1,0.5-0.1,0.7-0.2c0.3-0.1,0.6-0.2,0.8-0.2c0.1,0,0.2-0.1,0.2-0.2c0-0.7,0-1.3,0-2c0-0.1,0-0.2,0-0.2c0.2,0,0.3,0,0.5-0.1
		c0,0.8,0,1.6,0,2.4c0.3-0.1,0.5-0.2,0.8-0.2c0.3-0.1,0.6-0.2,0.9-0.3c0.1,0,0.2-0.1,0.2-0.2c0-0.7,0-1.4,0-2.1c0-0.2,0-0.3,0.2-0.3
		c0.1,0,0.2,0,0.3,0c0,0.8,0,1.6,0,2.4c0.6-0.2,1.1-0.3,1.7-0.5c0,0.5,0,1,0,1.4c0,0-0.1,0.1-0.2,0.1c-0.5,0.1-1,0.3-1.5,0.4
		c0,0.8,0,1.5,0,2.3c0.6-0.2,1.1-0.3,1.7-0.5c0,0.5,0,1,0,1.5c-0.5,0.1-1,0.3-1.5,0.4c-0.2,0-0.2,0.1-0.2,0.3c0,0.8,0,1.5,0,2.3
		c-0.2,0-0.3,0-0.5,0.1c0-0.8,0-1.6,0-2.5c-0.4,0.1-0.8,0.2-1.2,0.3c-0.1,0-0.1,0-0.2,0.1c-0.5,0.1-0.5,0.1-0.5,0.7
		c0,0.6,0,1.2,0,1.8C617.7,127.8,617.7,127.9,617.7,127.9z M617.7,123.9c0.6-0.2,1.2-0.3,1.8-0.5c0,0,0.1-0.1,0.1-0.2
		c0-0.5,0-1,0-1.5c0-0.2,0-0.5,0-0.7c-0.6,0.2-1.1,0.3-1.7,0.5c-0.1,0-0.2,0.1-0.2,0.2c0,0.6,0,1.2,0,1.8
		C617.7,123.6,617.7,123.8,617.7,123.9z"/>
</g>
<g id="XMLID_2184_">
	<path id="XMLID_2185_" d="M159.1,117.3c-0.2,0-0.3,0-0.5,0.1c0-0.8,0-1.6,0-2.5c-0.6,0.2-1.1,0.3-1.7,0.5c0-0.5,0-1,0-1.4
		c0,0,0.1-0.1,0.1-0.1c0.5-0.1,0.9-0.3,1.4-0.4c0.1,0,0.1,0,0.2-0.1c0-0.8,0-1.5,0-2.3c-0.6,0.2-1.1,0.3-1.7,0.5c0-0.5,0-1,0-1.5
		c0.2-0.1,0.5-0.1,0.7-0.2c0.3-0.1,0.6-0.2,0.8-0.2c0.1,0,0.2-0.1,0.2-0.2c0-0.7,0-1.3,0-2c0-0.1,0-0.2,0-0.2c0.2,0,0.3,0,0.5-0.1
		c0,0.8,0,1.6,0,2.4c0.3-0.1,0.5-0.2,0.8-0.2c0.3-0.1,0.6-0.2,0.9-0.3c0.1,0,0.2-0.1,0.2-0.2c0-0.7,0-1.4,0-2.1c0-0.2,0-0.3,0.2-0.3
		c0.1,0,0.2,0,0.3,0c0,0.8,0,1.6,0,2.4c0.6-0.2,1.1-0.3,1.7-0.5c0,0.5,0,1,0,1.4c0,0-0.1,0.1-0.2,0.1c-0.5,0.1-1,0.3-1.5,0.4
		c0,0.8,0,1.5,0,2.3c0.6-0.2,1.1-0.3,1.7-0.5c0,0.5,0,1,0,1.5c-0.5,0.1-1,0.3-1.5,0.4c-0.2,0-0.2,0.1-0.2,0.3c0,0.8,0,1.5,0,2.3
		c-0.2,0-0.3,0-0.5,0.1c0-0.8,0-1.6,0-2.5c-0.4,0.1-0.8,0.2-1.2,0.3c-0.1,0-0.1,0-0.2,0.1c-0.5,0.1-0.5,0.1-0.5,0.7
		c0,0.6,0,1.2,0,1.8C159.2,117.1,159.1,117.2,159.1,117.3z M159.2,113.2c0.6-0.2,1.2-0.3,1.8-0.5c0,0,0.1-0.1,0.1-0.2
		c0-0.5,0-1,0-1.5c0-0.2,0-0.5,0-0.7c-0.6,0.2-1.1,0.3-1.7,0.5c-0.1,0-0.2,0.1-0.2,0.2c0,0.6,0,1.2,0,1.8
		C159.2,113,159.2,113.1,159.2,113.2z"/>
</g>
<g id="XMLID_1758_">
	<path id="XMLID_1759_" d="M587.9,117.3c-0.2,0-0.3,0-0.5,0.1c0-0.8,0-1.6,0-2.5c-0.6,0.2-1.1,0.3-1.7,0.5c0-0.5,0-1,0-1.4
		c0,0,0.1-0.1,0.1-0.1c0.5-0.1,0.9-0.3,1.4-0.4c0.1,0,0.1,0,0.2-0.1c0-0.8,0-1.5,0-2.3c-0.6,0.2-1.1,0.3-1.7,0.5c0-0.5,0-1,0-1.5
		c0.2-0.1,0.5-0.1,0.7-0.2c0.3-0.1,0.6-0.2,0.8-0.2c0.1,0,0.2-0.1,0.2-0.2c0-0.7,0-1.3,0-2c0-0.1,0-0.2,0-0.2c0.2,0,0.3,0,0.5-0.1
		c0,0.8,0,1.6,0,2.4c0.3-0.1,0.5-0.2,0.8-0.2c0.3-0.1,0.6-0.2,0.9-0.3c0.1,0,0.2-0.1,0.2-0.2c0-0.7,0-1.4,0-2.1c0-0.2,0-0.3,0.2-0.3
		c0.1,0,0.2,0,0.3,0c0,0.8,0,1.6,0,2.4c0.6-0.2,1.1-0.3,1.7-0.5c0,0.5,0,1,0,1.4c0,0-0.1,0.1-0.2,0.1c-0.5,0.1-1,0.3-1.5,0.4
		c0,0.8,0,1.5,0,2.3c0.6-0.2,1.1-0.3,1.7-0.5c0,0.5,0,1,0,1.5c-0.5,0.1-1,0.3-1.5,0.4c-0.2,0-0.2,0.1-0.2,0.3c0,0.8,0,1.5,0,2.3
		c-0.2,0-0.3,0-0.5,0.1c0-0.8,0-1.6,0-2.5c-0.4,0.1-0.8,0.2-1.2,0.3c-0.1,0-0.1,0-0.2,0.1c-0.5,0.1-0.5,0.1-0.5,0.7
		c0,0.6,0,1.2,0,1.8C587.9,117.1,587.9,117.2,587.9,117.3z M587.9,113.2c0.6-0.2,1.2-0.3,1.8-0.5c0,0,0.1-0.1,0.1-0.2
		c0-0.5,0-1,0-1.5c0-0.2,0-0.5,0-0.7c-0.6,0.2-1.1,0.3-1.7,0.5c-0.1,0-0.2,0.1-0.2,0.2c0,0.6,0,1.2,0,1.8
		C587.9,113,587.9,113.1,587.9,113.2z"/>
</g>
<g id="XMLID_2188_">
	<path id="XMLID_2189_" d="M189.7,106.3c-0.2,0-0.3,0-0.5,0.1c0-0.8,0-1.6,0-2.5c-0.6,0.2-1.1,0.3-1.7,0.5c0-0.5,0-1,0-1.4
		c0,0,0.1-0.1,0.1-0.1c0.5-0.1,0.9-0.3,1.4-0.4c0.1,0,0.1,0,0.2-0.1c0-0.8,0-1.5,0-2.3c-0.6,0.2-1.1,0.3-1.7,0.5c0-0.5,0-1,0-1.5
		c0.2-0.1,0.5-0.1,0.7-0.2c0.3-0.1,0.6-0.2,0.8-0.2c0.1,0,0.2-0.1,0.2-0.2c0-0.7,0-1.3,0-2c0-0.1,0-0.2,0-0.2c0.2,0,0.3,0,0.5-0.1
		c0,0.8,0,1.6,0,2.4c0.3-0.1,0.5-0.2,0.8-0.2c0.3-0.1,0.6-0.2,0.9-0.3c0.1,0,0.2-0.1,0.2-0.2c0-0.7,0-1.4,0-2.1c0-0.2,0-0.3,0.2-0.3
		c0.1,0,0.2,0,0.3,0c0,0.8,0,1.6,0,2.4c0.6-0.2,1.1-0.3,1.7-0.5c0,0.5,0,1,0,1.4c0,0-0.1,0.1-0.2,0.1c-0.5,0.1-1,0.3-1.5,0.4
		c0,0.8,0,1.5,0,2.3c0.6-0.2,1.1-0.3,1.7-0.5c0,0.5,0,1,0,1.5c-0.5,0.1-1,0.3-1.5,0.4c-0.2,0-0.2,0.1-0.2,0.3c0,0.8,0,1.5,0,2.3
		c-0.2,0-0.3,0-0.5,0.1c0-0.8,0-1.6,0-2.5c-0.4,0.1-0.8,0.2-1.2,0.3c-0.1,0-0.1,0-0.2,0.1c-0.5,0.1-0.5,0.1-0.5,0.7
		c0,0.6,0,1.2,0,1.8C189.7,106.2,189.7,106.2,189.7,106.3z M189.7,102.2c0.6-0.2,1.2-0.3,1.8-0.5c0,0,0.1-0.1,0.1-0.2
		c0-0.5,0-1,0-1.5c0-0.2,0-0.5,0-0.7c-0.6,0.2-1.1,0.3-1.7,0.5c-0.1,0-0.2,0.1-0.2,0.2c0,0.6,0,1.2,0,1.8
		C189.7,102,189.7,102.1,189.7,102.2z"/>
</g>
<g id="XMLID_1556_">
	<path id="XMLID_1557_" d="M554.3,106.9c-0.2,0-0.3,0-0.5,0.1c0-0.8,0-1.6,0-2.5c-0.6,0.2-1.1,0.3-1.7,0.5c0-0.5,0-1,0-1.4
		c0,0,0.1-0.1,0.1-0.1c0.5-0.1,0.9-0.3,1.4-0.4c0.1,0,0.1,0,0.2-0.1c0-0.8,0-1.5,0-2.3c-0.6,0.2-1.1,0.3-1.7,0.5c0-0.5,0-1,0-1.5
		c0.2-0.1,0.5-0.1,0.7-0.2c0.3-0.1,0.6-0.2,0.8-0.2c0.1,0,0.2-0.1,0.2-0.2c0-0.7,0-1.3,0-2c0-0.1,0-0.2,0-0.2c0.2,0,0.3,0,0.5-0.1
		c0,0.8,0,1.6,0,2.4c0.3-0.1,0.5-0.2,0.8-0.2c0.3-0.1,0.6-0.2,0.9-0.3c0.1,0,0.2-0.1,0.2-0.2c0-0.7,0-1.4,0-2.1c0-0.2,0-0.3,0.2-0.3
		c0.1,0,0.2,0,0.3,0c0,0.8,0,1.6,0,2.4c0.6-0.2,1.1-0.3,1.7-0.5c0,0.5,0,1,0,1.4c0,0-0.1,0.1-0.2,0.1c-0.5,0.1-1,0.3-1.5,0.4
		c0,0.8,0,1.5,0,2.3c0.6-0.2,1.1-0.3,1.7-0.5c0,0.5,0,1,0,1.5c-0.5,0.1-1,0.3-1.5,0.4c-0.2,0-0.2,0.1-0.2,0.3c0,0.8,0,1.5,0,2.3
		c-0.2,0-0.3,0-0.5,0.1c0-0.8,0-1.6,0-2.5c-0.4,0.1-0.8,0.2-1.2,0.3c-0.1,0-0.1,0-0.2,0.1c-0.5,0.1-0.5,0.1-0.5,0.7
		c0,0.6,0,1.2,0,1.8C554.3,106.7,554.3,106.8,554.3,106.9z M554.3,102.8c0.6-0.2,1.2-0.3,1.8-0.5c0,0,0.1-0.1,0.1-0.2
		c0-0.5,0-1,0-1.5c0-0.2,0-0.5,0-0.7c-0.6,0.2-1.1,0.3-1.7,0.5c-0.1,0-0.2,0.1-0.2,0.2c0,0.6,0,1.2,0,1.8
		C554.3,102.6,554.3,102.7,554.3,102.8z"/>
</g>
<g id="XMLID_2192_">
	<path id="XMLID_2193_" d="M221.2,95.9c-0.2,0-0.3,0-0.5,0.1c0-0.8,0-1.6,0-2.5c-0.6,0.2-1.1,0.3-1.7,0.5c0-0.5,0-1,0-1.4
		c0,0,0.1-0.1,0.1-0.1c0.5-0.1,0.9-0.3,1.4-0.4c0.1,0,0.1,0,0.2-0.1c0-0.8,0-1.5,0-2.3c-0.6,0.2-1.1,0.3-1.7,0.5c0-0.5,0-1,0-1.5
		c0.2-0.1,0.5-0.1,0.7-0.2c0.3-0.1,0.6-0.2,0.8-0.2c0.1,0,0.2-0.1,0.2-0.2c0-0.7,0-1.3,0-2c0-0.1,0-0.2,0-0.2c0.2,0,0.3,0,0.5-0.1
		c0,0.8,0,1.6,0,2.4c0.3-0.1,0.5-0.2,0.8-0.2c0.3-0.1,0.6-0.2,0.9-0.3c0.1,0,0.2-0.1,0.2-0.2c0-0.7,0-1.4,0-2.1c0-0.2,0-0.3,0.2-0.3
		c0.1,0,0.2,0,0.3,0c0,0.8,0,1.6,0,2.4c0.6-0.2,1.1-0.3,1.7-0.5c0,0.5,0,1,0,1.4c0,0-0.1,0.1-0.2,0.1c-0.5,0.1-1,0.3-1.5,0.4
		c0,0.8,0,1.5,0,2.3c0.6-0.2,1.1-0.3,1.7-0.5c0,0.5,0,1,0,1.5c-0.5,0.1-1,0.3-1.5,0.4c-0.2,0-0.2,0.1-0.2,0.3c0,0.8,0,1.5,0,2.3
		c-0.2,0-0.3,0-0.5,0.1c0-0.8,0-1.6,0-2.5c-0.4,0.1-0.8,0.2-1.2,0.3c-0.1,0-0.1,0-0.2,0.1c-0.5,0.1-0.5,0.1-0.5,0.7
		c0,0.6,0,1.2,0,1.8C221.2,95.8,221.2,95.9,221.2,95.9z M221.2,91.9c0.6-0.2,1.2-0.3,1.8-0.5c0,0,0.1-0.1,0.1-0.2c0-0.5,0-1,0-1.5
		c0-0.2,0-0.5,0-0.7c-0.6,0.2-1.1,0.3-1.7,0.5c-0.1,0-0.2,0.1-0.2,0.2c0,0.6,0,1.2,0,1.8C221.2,91.6,221.2,91.7,221.2,91.9z"/>
</g>
<g id="XMLID_1552_">
	<path id="XMLID_1553_" d="M521.8,95.9c-0.2,0-0.3,0-0.5,0.1c0-0.8,0-1.6,0-2.5c-0.6,0.2-1.1,0.3-1.7,0.5c0-0.5,0-1,0-1.4
		c0,0,0.1-0.1,0.1-0.1c0.5-0.1,0.9-0.3,1.4-0.4c0.1,0,0.1,0,0.2-0.1c0-0.8,0-1.5,0-2.3c-0.6,0.2-1.1,0.3-1.7,0.5c0-0.5,0-1,0-1.5
		c0.2-0.1,0.5-0.1,0.7-0.2c0.3-0.1,0.6-0.2,0.8-0.2c0.1,0,0.2-0.1,0.2-0.2c0-0.7,0-1.3,0-2c0-0.1,0-0.2,0-0.2c0.2,0,0.3,0,0.5-0.1
		c0,0.8,0,1.6,0,2.4c0.3-0.1,0.5-0.2,0.8-0.2c0.3-0.1,0.6-0.2,0.9-0.3c0.1,0,0.2-0.1,0.2-0.2c0-0.7,0-1.4,0-2.1c0-0.2,0-0.3,0.2-0.3
		c0.1,0,0.2,0,0.3,0c0,0.8,0,1.6,0,2.4c0.6-0.2,1.1-0.3,1.7-0.5c0,0.5,0,1,0,1.4c0,0-0.1,0.1-0.2,0.1c-0.5,0.1-1,0.3-1.5,0.4
		c0,0.8,0,1.5,0,2.3c0.6-0.2,1.1-0.3,1.7-0.5c0,0.5,0,1,0,1.5c-0.5,0.1-1,0.3-1.5,0.4c-0.2,0-0.2,0.1-0.2,0.3c0,0.8,0,1.5,0,2.3
		c-0.2,0-0.3,0-0.5,0.1c0-0.8,0-1.6,0-2.5c-0.4,0.1-0.8,0.2-1.2,0.3c-0.1,0-0.1,0-0.2,0.1c-0.5,0.1-0.5,0.1-0.5,0.7
		c0,0.6,0,1.2,0,1.8C521.8,95.8,521.8,95.9,521.8,95.9z M521.8,91.9c0.6-0.2,1.2-0.3,1.8-0.5c0,0,0.1-0.1,0.1-0.2c0-0.5,0-1,0-1.5
		c0-0.2,0-0.5,0-0.7c-0.6,0.2-1.1,0.3-1.7,0.5c-0.1,0-0.2,0.1-0.2,0.2c0,0.6,0,1.2,0,1.8C521.8,91.6,521.8,91.7,521.8,91.9z"/>
</g>
<g id="XMLID_2196_">
	<path id="XMLID_2197_" d="M253.9,85.7c-0.2,0-0.3,0-0.5,0.1c0-0.8,0-1.6,0-2.5c-0.6,0.2-1.1,0.3-1.7,0.5c0-0.5,0-1,0-1.4
		c0,0,0.1-0.1,0.1-0.1c0.5-0.1,0.9-0.3,1.4-0.4c0.1,0,0.1,0,0.2-0.1c0-0.8,0-1.5,0-2.3c-0.6,0.2-1.1,0.3-1.7,0.5c0-0.5,0-1,0-1.5
		c0.2-0.1,0.5-0.1,0.7-0.2c0.3-0.1,0.6-0.2,0.8-0.2c0.1,0,0.2-0.1,0.2-0.2c0-0.7,0-1.3,0-2c0-0.1,0-0.2,0-0.2c0.2,0,0.3,0,0.5-0.1
		c0,0.8,0,1.6,0,2.4c0.3-0.1,0.5-0.2,0.8-0.2c0.3-0.1,0.6-0.2,0.9-0.3c0.1,0,0.2-0.1,0.2-0.2c0-0.7,0-1.4,0-2.1c0-0.2,0-0.3,0.2-0.3
		c0.1,0,0.2,0,0.3,0c0,0.8,0,1.6,0,2.4c0.6-0.2,1.1-0.3,1.7-0.5c0,0.5,0,1,0,1.4c0,0-0.1,0.1-0.2,0.1c-0.5,0.1-1,0.3-1.5,0.4
		c0,0.8,0,1.5,0,2.3c0.6-0.2,1.1-0.3,1.7-0.5c0,0.5,0,1,0,1.5c-0.5,0.1-1,0.3-1.5,0.4c-0.2,0-0.2,0.1-0.2,0.3c0,0.8,0,1.5,0,2.3
		c-0.2,0-0.3,0-0.5,0.1c0-0.8,0-1.6,0-2.5c-0.4,0.1-0.8,0.2-1.2,0.3c-0.1,0-0.1,0-0.2,0.1c-0.5,0.1-0.5,0.1-0.5,0.7
		c0,0.6,0,1.2,0,1.8C254,85.6,254,85.6,253.9,85.7z M254,81.7c0.6-0.2,1.2-0.3,1.8-0.5c0,0,0.1-0.1,0.1-0.2c0-0.5,0-1,0-1.5
		c0-0.2,0-0.5,0-0.7c-0.6,0.2-1.1,0.3-1.7,0.5c-0.1,0-0.2,0.1-0.2,0.2c0,0.6,0,1.2,0,1.8C254,81.4,254,81.5,254,81.7z"/>
</g>
<g id="XMLID_1428_">
	<path id="XMLID_1429_" d="M491.3,86.4c-0.2,0-0.3,0-0.5,0.1c0-0.8,0-1.6,0-2.5c-0.6,0.2-1.1,0.3-1.7,0.5c0-0.5,0-1,0-1.4
		c0,0,0.1-0.1,0.1-0.1c0.5-0.1,0.9-0.3,1.4-0.4c0.1,0,0.1,0,0.2-0.1c0-0.8,0-1.5,0-2.3c-0.6,0.2-1.1,0.3-1.7,0.5c0-0.5,0-1,0-1.5
		c0.2-0.1,0.5-0.1,0.7-0.2c0.3-0.1,0.6-0.2,0.8-0.2c0.1,0,0.2-0.1,0.2-0.2c0-0.7,0-1.3,0-2c0-0.1,0-0.2,0-0.2c0.2,0,0.3,0,0.5-0.1
		c0,0.8,0,1.6,0,2.4c0.3-0.1,0.5-0.2,0.8-0.2c0.3-0.1,0.6-0.2,0.9-0.3c0.1,0,0.2-0.1,0.2-0.2c0-0.7,0-1.4,0-2.1c0-0.2,0-0.3,0.2-0.3
		c0.1,0,0.2,0,0.3,0c0,0.8,0,1.6,0,2.4c0.6-0.2,1.1-0.3,1.7-0.5c0,0.5,0,1,0,1.4c0,0-0.1,0.1-0.2,0.1c-0.5,0.1-1,0.3-1.5,0.4
		c0,0.8,0,1.5,0,2.3c0.6-0.2,1.1-0.3,1.7-0.5c0,0.5,0,1,0,1.5c-0.5,0.1-1,0.3-1.5,0.4c-0.2,0-0.2,0.1-0.2,0.3c0,0.8,0,1.5,0,2.3
		c-0.2,0-0.3,0-0.5,0.1c0-0.8,0-1.6,0-2.5c-0.4,0.1-0.8,0.2-1.2,0.3c-0.1,0-0.1,0-0.2,0.1c-0.5,0.1-0.5,0.1-0.5,0.7
		c0,0.6,0,1.2,0,1.8C491.3,86.3,491.3,86.3,491.3,86.4z M491.3,82.4c0.6-0.2,1.2-0.3,1.8-0.5c0,0,0.1-0.1,0.1-0.2c0-0.5,0-1,0-1.5
		c0-0.2,0-0.5,0-0.7c-0.6,0.2-1.1,0.3-1.7,0.5c-0.1,0-0.2,0.1-0.2,0.2c0,0.6,0,1.2,0,1.8C491.3,82.1,491.3,82.2,491.3,82.4z"/>
</g>
<g id="XMLID_2200_">
	<path id="XMLID_2201_" d="M285.9,75.2c-0.2,0-0.3,0-0.5,0.1c0-0.8,0-1.6,0-2.5c-0.6,0.2-1.1,0.3-1.7,0.5c0-0.5,0-1,0-1.4
		c0,0,0.1-0.1,0.1-0.1c0.5-0.1,0.9-0.3,1.4-0.4c0.1,0,0.1,0,0.2-0.1c0-0.8,0-1.5,0-2.3c-0.6,0.2-1.1,0.3-1.7,0.5c0-0.5,0-1,0-1.5
		c0.2-0.1,0.5-0.1,0.7-0.2c0.3-0.1,0.6-0.2,0.8-0.2c0.1,0,0.2-0.1,0.2-0.2c0-0.7,0-1.3,0-2c0-0.1,0-0.2,0-0.2c0.2,0,0.3,0,0.5-0.1
		c0,0.8,0,1.6,0,2.4c0.3-0.1,0.5-0.2,0.8-0.2c0.3-0.1,0.6-0.2,0.9-0.3c0.1,0,0.2-0.1,0.2-0.2c0-0.7,0-1.4,0-2.1c0-0.2,0-0.3,0.2-0.3
		c0.1,0,0.2,0,0.3,0c0,0.8,0,1.6,0,2.4c0.6-0.2,1.1-0.3,1.7-0.5c0,0.5,0,1,0,1.4c0,0-0.1,0.1-0.2,0.1c-0.5,0.1-1,0.3-1.5,0.4
		c0,0.8,0,1.5,0,2.3c0.6-0.2,1.1-0.3,1.7-0.5c0,0.5,0,1,0,1.5c-0.5,0.1-1,0.3-1.5,0.4c-0.2,0-0.2,0.1-0.2,0.3c0,0.8,0,1.5,0,2.3
		c-0.2,0-0.3,0-0.5,0.1c0-0.8,0-1.6,0-2.5c-0.4,0.1-0.8,0.2-1.2,0.3c-0.1,0-0.1,0-0.2,0.1c-0.5,0.1-0.5,0.1-0.5,0.7
		c0,0.6,0,1.2,0,1.8C286,75.1,286,75.2,285.9,75.2z M286,71.2c0.6-0.2,1.2-0.3,1.8-0.5c0,0,0.1-0.1,0.1-0.2c0-0.5,0-1,0-1.5
		c0-0.2,0-0.5,0-0.7c-0.6,0.2-1.1,0.3-1.7,0.5c-0.1,0-0.2,0.1-0.2,0.2c0,0.6,0,1.2,0,1.8C286,70.9,286,71.1,286,71.2z"/>
</g>
<g id="XMLID_1359_">
	<path id="XMLID_1424_" d="M459.4,75.8c-0.2,0-0.3,0-0.5,0.1c0-0.8,0-1.6,0-2.5c-0.6,0.2-1.1,0.3-1.7,0.5c0-0.5,0-1,0-1.4
		c0,0,0.1-0.1,0.1-0.1c0.5-0.1,0.9-0.3,1.4-0.4c0.1,0,0.1,0,0.2-0.1c0-0.8,0-1.5,0-2.3c-0.6,0.2-1.1,0.3-1.7,0.5c0-0.5,0-1,0-1.5
		c0.2-0.1,0.5-0.1,0.7-0.2c0.3-0.1,0.6-0.2,0.8-0.2c0.1,0,0.2-0.1,0.2-0.2c0-0.7,0-1.3,0-2c0-0.1,0-0.2,0-0.2c0.2,0,0.3,0,0.5-0.1
		c0,0.8,0,1.6,0,2.4c0.3-0.1,0.5-0.2,0.8-0.2c0.3-0.1,0.6-0.2,0.9-0.3c0.1,0,0.2-0.1,0.2-0.2c0-0.7,0-1.4,0-2.1c0-0.2,0-0.3,0.2-0.3
		c0.1,0,0.2,0,0.3,0c0,0.8,0,1.6,0,2.4c0.6-0.2,1.1-0.3,1.7-0.5c0,0.5,0,1,0,1.4c0,0-0.1,0.1-0.2,0.1c-0.5,0.1-1,0.3-1.5,0.4
		c0,0.8,0,1.5,0,2.3c0.6-0.2,1.1-0.3,1.7-0.5c0,0.5,0,1,0,1.5c-0.5,0.1-1,0.3-1.5,0.4c-0.2,0-0.2,0.1-0.2,0.3c0,0.8,0,1.5,0,2.3
		c-0.2,0-0.3,0-0.5,0.1c0-0.8,0-1.6,0-2.5c-0.4,0.1-0.8,0.2-1.2,0.3c-0.1,0-0.1,0-0.2,0.1c-0.5,0.1-0.5,0.1-0.5,0.7
		c0,0.6,0,1.2,0,1.8C459.4,75.6,459.4,75.7,459.4,75.8z M459.4,71.7c0.6-0.2,1.2-0.3,1.8-0.5c0,0,0.1-0.1,0.1-0.2c0-0.5,0-1,0-1.5
		c0-0.2,0-0.5,0-0.7c-0.6,0.2-1.1,0.3-1.7,0.5c-0.1,0-0.2,0.1-0.2,0.2c0,0.6,0,1.2,0,1.8C459.4,71.5,459.4,71.6,459.4,71.7z"/>
</g>
<g id="XMLID_2204_">
	<path id="XMLID_2205_" d="M317.8,66.4c-0.2,0-0.3,0-0.5,0.1c0-0.8,0-1.6,0-2.5c-0.6,0.2-1.1,0.3-1.7,0.5c0-0.5,0-1,0-1.4
		c0,0,0.1-0.1,0.1-0.1c0.5-0.1,0.9-0.3,1.4-0.4c0.1,0,0.1,0,0.2-0.1c0-0.8,0-1.5,0-2.3c-0.6,0.2-1.1,0.3-1.7,0.5c0-0.5,0-1,0-1.5
		c0.2-0.1,0.5-0.1,0.7-0.2c0.3-0.1,0.6-0.2,0.8-0.2c0.1,0,0.2-0.1,0.2-0.2c0-0.7,0-1.3,0-2c0-0.1,0-0.2,0-0.2c0.2,0,0.3,0,0.5-0.1
		c0,0.8,0,1.6,0,2.4c0.3-0.1,0.5-0.2,0.8-0.2c0.3-0.1,0.6-0.2,0.9-0.3c0.1,0,0.2-0.1,0.2-0.2c0-0.7,0-1.4,0-2.1c0-0.2,0-0.3,0.2-0.3
		c0.1,0,0.2,0,0.3,0c0,0.8,0,1.6,0,2.4c0.6-0.2,1.1-0.3,1.7-0.5c0,0.5,0,1,0,1.4c0,0-0.1,0.1-0.2,0.1c-0.5,0.1-1,0.3-1.5,0.4
		c0,0.8,0,1.5,0,2.3c0.6-0.2,1.1-0.3,1.7-0.5c0,0.5,0,1,0,1.5c-0.5,0.1-1,0.3-1.5,0.4c-0.2,0-0.2,0.1-0.2,0.3c0,0.8,0,1.5,0,2.3
		c-0.2,0-0.3,0-0.5,0.1c0-0.8,0-1.6,0-2.5c-0.4,0.1-0.8,0.2-1.2,0.3c-0.1,0-0.1,0-0.2,0.1c-0.5,0.1-0.5,0.1-0.5,0.7
		c0,0.6,0,1.2,0,1.8C317.8,66.3,317.8,66.3,317.8,66.4z M317.8,62.3c0.6-0.2,1.2-0.3,1.8-0.5c0,0,0.1-0.1,0.1-0.2c0-0.5,0-1,0-1.5
		c0-0.2,0-0.5,0-0.7c-0.6,0.2-1.1,0.3-1.7,0.5c-0.1,0-0.2,0.1-0.2,0.2c0,0.6,0,1.2,0,1.8C317.8,62.1,317.8,62.2,317.8,62.3z"/>
</g>
<g id="XMLID_1300_">
	<path id="XMLID_1301_" d="M426.8,67.3c-0.2,0-0.3,0-0.5,0.1c0-0.8,0-1.6,0-2.5c-0.6,0.2-1.1,0.3-1.7,0.5c0-0.5,0-1,0-1.4
		c0,0,0.1-0.1,0.1-0.1c0.5-0.1,0.9-0.3,1.4-0.4c0.1,0,0.1,0,0.2-0.1c0-0.8,0-1.5,0-2.3c-0.6,0.2-1.1,0.3-1.7,0.5c0-0.5,0-1,0-1.5
		c0.2-0.1,0.5-0.1,0.7-0.2c0.3-0.1,0.6-0.2,0.8-0.2c0.1,0,0.2-0.1,0.2-0.2c0-0.7,0-1.3,0-2c0-0.1,0-0.2,0-0.2c0.2,0,0.3,0,0.5-0.1
		c0,0.8,0,1.6,0,2.4c0.3-0.1,0.5-0.2,0.8-0.2c0.3-0.1,0.6-0.2,0.9-0.3c0.1,0,0.2-0.1,0.2-0.2c0-0.7,0-1.4,0-2.1c0-0.2,0-0.3,0.2-0.3
		c0.1,0,0.2,0,0.3,0c0,0.8,0,1.6,0,2.4c0.6-0.2,1.1-0.3,1.7-0.5c0,0.5,0,1,0,1.4c0,0-0.1,0.1-0.2,0.1c-0.5,0.1-1,0.3-1.5,0.4
		c0,0.8,0,1.5,0,2.3c0.6-0.2,1.1-0.3,1.7-0.5c0,0.5,0,1,0,1.5c-0.5,0.1-1,0.3-1.5,0.4c-0.2,0-0.2,0.1-0.2,0.3c0,0.8,0,1.5,0,2.3
		c-0.2,0-0.3,0-0.5,0.1c0-0.8,0-1.6,0-2.5c-0.4,0.1-0.8,0.2-1.2,0.3c-0.1,0-0.1,0-0.2,0.1c-0.5,0.1-0.5,0.1-0.5,0.7
		c0,0.6,0,1.2,0,1.8C426.8,67.1,426.8,67.2,426.8,67.3z M426.8,63.2c0.6-0.2,1.2-0.3,1.8-0.5c0,0,0.1-0.1,0.1-0.2c0-0.5,0-1,0-1.5
		c0-0.2,0-0.5,0-0.7c-0.6,0.2-1.1,0.3-1.7,0.5c-0.1,0-0.2,0.1-0.2,0.2c0,0.6,0,1.2,0,1.8C426.8,63,426.8,63.1,426.8,63.2z"/>
</g>
<g id="XMLID_2208_">
	<path id="XMLID_2209_" d="M348.9,55.4c-0.2,0-0.3,0-0.5,0.1c0-0.8,0-1.6,0-2.5c-0.6,0.2-1.1,0.3-1.7,0.5c0-0.5,0-1,0-1.4
		c0,0,0.1-0.1,0.1-0.1c0.5-0.1,0.9-0.3,1.4-0.4c0.1,0,0.1,0,0.2-0.1c0-0.8,0-1.5,0-2.3c-0.6,0.2-1.1,0.3-1.7,0.5c0-0.5,0-1,0-1.5
		c0.2-0.1,0.5-0.1,0.7-0.2c0.3-0.1,0.6-0.2,0.8-0.2c0.1,0,0.2-0.1,0.2-0.2c0-0.7,0-1.3,0-2c0-0.1,0-0.2,0-0.2c0.2,0,0.3,0,0.5-0.1
		c0,0.8,0,1.6,0,2.4c0.3-0.1,0.5-0.2,0.8-0.2c0.3-0.1,0.6-0.2,0.9-0.3c0.1,0,0.2-0.1,0.2-0.2c0-0.7,0-1.4,0-2.1c0-0.2,0-0.3,0.2-0.3
		c0.1,0,0.2,0,0.3,0c0,0.8,0,1.6,0,2.4c0.6-0.2,1.1-0.3,1.7-0.5c0,0.5,0,1,0,1.4c0,0-0.1,0.1-0.2,0.1c-0.5,0.1-1,0.3-1.5,0.4
		c0,0.8,0,1.5,0,2.3c0.6-0.2,1.1-0.3,1.7-0.5c0,0.5,0,1,0,1.5c-0.5,0.1-1,0.3-1.5,0.4c-0.2,0-0.2,0.1-0.2,0.3c0,0.8,0,1.5,0,2.3
		c-0.2,0-0.3,0-0.5,0.1c0-0.8,0-1.6,0-2.5c-0.4,0.1-0.8,0.2-1.2,0.3c-0.1,0-0.1,0-0.2,0.1c-0.5,0.1-0.5,0.1-0.5,0.7
		c0,0.6,0,1.2,0,1.8C349,55.3,348.9,55.3,348.9,55.4z M349,51.3c0.6-0.2,1.2-0.3,1.8-0.5c0,0,0.1-0.1,0.1-0.2c0-0.5,0-1,0-1.5
		c0-0.2,0-0.5,0-0.7c-0.6,0.2-1.1,0.3-1.7,0.5c-0.1,0-0.2,0.1-0.2,0.2c0,0.6,0,1.2,0,1.8C349,51.1,349,51.2,349,51.3z"/>
</g>
<g id="XMLID_1294_">
	<path id="XMLID_1295_" d="M394.4,55.4c-0.2,0-0.3,0-0.5,0.1c0-0.8,0-1.6,0-2.5c-0.6,0.2-1.1,0.3-1.7,0.5c0-0.5,0-1,0-1.4
		c0,0,0.1-0.1,0.1-0.1c0.5-0.1,0.9-0.3,1.4-0.4c0.1,0,0.1,0,0.2-0.1c0-0.8,0-1.5,0-2.3c-0.6,0.2-1.1,0.3-1.7,0.5c0-0.5,0-1,0-1.5
		c0.2-0.1,0.5-0.1,0.7-0.2c0.3-0.1,0.6-0.2,0.8-0.2c0.1,0,0.2-0.1,0.2-0.2c0-0.7,0-1.3,0-2c0-0.1,0-0.2,0-0.2c0.2,0,0.3,0,0.5-0.1
		c0,0.8,0,1.6,0,2.4c0.3-0.1,0.5-0.2,0.8-0.2c0.3-0.1,0.6-0.2,0.9-0.3c0.1,0,0.2-0.1,0.2-0.2c0-0.7,0-1.4,0-2.1c0-0.2,0-0.3,0.2-0.3
		c0.1,0,0.2,0,0.3,0c0,0.8,0,1.6,0,2.4c0.6-0.2,1.1-0.3,1.7-0.5c0,0.5,0,1,0,1.4c0,0-0.1,0.1-0.2,0.1c-0.5,0.1-1,0.3-1.5,0.4
		c0,0.8,0,1.5,0,2.3c0.6-0.2,1.1-0.3,1.7-0.5c0,0.5,0,1,0,1.5c-0.5,0.1-1,0.3-1.5,0.4c-0.2,0-0.2,0.1-0.2,0.3c0,0.8,0,1.5,0,2.3
		c-0.2,0-0.3,0-0.5,0.1c0-0.8,0-1.6,0-2.5c-0.4,0.1-0.8,0.2-1.2,0.3c-0.1,0-0.1,0-0.2,0.1c-0.5,0.1-0.5,0.1-0.5,0.7
		c0,0.6,0,1.2,0,1.8C394.5,55.3,394.4,55.3,394.4,55.4z M394.5,51.3c0.6-0.2,1.2-0.3,1.8-0.5c0,0,0.1-0.1,0.1-0.2c0-0.5,0-1,0-1.5
		c0-0.2,0-0.5,0-0.7c-0.6,0.2-1.1,0.3-1.7,0.5c-0.1,0-0.2,0.1-0.2,0.2c0,0.6,0,1.2,0,1.8C394.5,51.1,394.5,51.2,394.5,51.3z"/>
</g>
</svg>
