<?xml version="1.0" standalone="no"?>
<!DOCTYPE svg PUBLIC "-//W3C//DTD SVG 20010904//EN"
 "http://www.w3.org/TR/2001/REC-SVG-20010904/DTD/svg10.dtd">
<svg version="1.0" xmlns="http://www.w3.org/2000/svg"
 width="5322.000000pt" height="974.000000pt" viewBox="0 0 5322.000000 974.000000"
 preserveAspectRatio="xMidYMid meet">

<g transform="translate(0.000000,974.000000) scale(0.100000,-0.100000)"
fill="#000000" stroke="none">
<path d="M2453 9666 c-338 -362 -493 -794 -533 -1480 -5 -98 -10 -194 -10
-212 l0 -35 -937 1 -938 1 -17 -21 c-18 -23 -12 -49 15 -67 6 -4 417 -10 912
-13 1022 -6 945 1 983 -89 25 -57 62 -208 62 -252 0 -68 -16 -86 -337 -371
-42 -38 -101 -80 -132 -95 l-56 -28 -675 -5 -675 -6 -59 -23 -60 -24 50 -21
c48 -21 63 -21 701 -24 l652 -3 -10 -26 c-17 -45 -500 -743 -538 -777 -45 -41
-82 -45 -426 -46 -181 -1 -350 -5 -375 -8 -42 -7 -45 -9 -48 -39 l-3 -33 380
0 c298 0 381 -3 381 -12 0 -7 -11 -200 -25 -428 -14 -228 -25 -416 -25 -417 0
-2 -138 -3 -306 -3 -291 0 -308 -1 -356 -22 l-50 -21 53 -28 54 -28 309 -1
c370 0 360 2 458 -118 191 -237 355 -401 492 -495 33 -22 125 -71 205 -109 80
-38 169 -79 196 -93 l50 -24 -860 -1 -860 0 -49 -23 -50 -23 40 -24 39 -25
1295 -5 c1419 -5 1322 -1 1354 -65 9 -16 24 -82 35 -145 11 -63 31 -171 46
-240 33 -156 32 -308 -4 -401 -65 -170 -208 -311 -414 -410 -116 -56 -204 -72
-352 -66 -109 5 -236 30 -282 56 -9 5 26 24 99 55 185 79 258 139 313 258 57
125 52 246 -15 384 -67 137 -192 239 -327 266 -118 24 -273 -30 -373 -130 -98
-98 -140 -209 -140 -367 0 -172 58 -315 175 -430 133 -131 308 -197 530 -198
129 -1 194 9 320 50 297 97 480 263 562 508 24 72 27 95 27 230 0 140 -3 165
-47 381 -26 126 -47 235 -47 242 0 9 370 12 1629 12 l1629 0 7 -85 c12 -143
10 -148 -125 -248 -25 -18 -50 -44 -57 -57 -14 -27 -19 -300 -5 -300 10 0 131
19 165 26 l27 6 0 -260 c0 -143 -3 -274 -6 -291 -7 -32 -64 -94 -134 -146 -19
-14 -40 -36 -47 -48 -13 -24 -19 -287 -5 -286 4 0 49 8 100 18 l92 18 0 -226
c0 -212 1 -228 21 -261 l21 -34 28 30 27 31 6 216 c8 301 5 296 221 362 65 19
121 35 127 35 5 0 9 -92 9 -227 0 -217 1 -230 23 -267 12 -21 26 -39 31 -40 5
-1 18 17 30 39 19 37 21 57 22 267 1 257 0 255 80 297 83 45 119 141 107 294
l-6 74 -71 -13 c-39 -8 -80 -16 -92 -19 -21 -5 -21 -4 -20 290 2 336 0 328 92
375 26 14 59 40 71 59 21 31 23 45 23 171 l0 138 -83 -19 c-45 -10 -85 -19
-89 -19 -17 0 -8 77 10 93 17 16 223 17 2759 17 l2740 0 7 -117 c4 -65 9 -119
11 -122 3 -2 45 3 95 11 l90 15 0 -282 c0 -276 0 -283 -23 -316 -14 -21 -44
-44 -79 -61 -87 -42 -93 -56 -94 -225 0 -164 -12 -152 114 -124 l82 18 0 -215
c0 -198 2 -219 21 -259 11 -24 25 -43 30 -43 5 0 18 14 28 30 16 27 19 60 23
243 7 297 6 295 234 360 50 15 99 29 108 33 15 6 16 -16 16 -236 0 -232 1
-244 22 -278 l21 -35 28 30 c25 28 27 39 34 149 3 66 5 175 3 244 -2 90 1 131
10 148 8 13 42 36 77 52 93 42 99 55 103 222 4 112 2 138 -9 138 -8 0 -49 -7
-92 -15 -43 -8 -81 -15 -83 -15 -2 0 -4 132 -4 294 l0 293 25 27 24 26 377 0
378 0 -90 -61 c-49 -33 -111 -81 -137 -107 -138 -135 -157 -355 -41 -490 69
-81 244 -187 359 -217 78 -20 397 -38 545 -30 336 17 413 37 587 158 137 94
196 186 196 307 0 128 -67 228 -243 359 -47 35 -89 68 -94 73 -6 4 730 8 1635
8 l1644 0 0 -153 c0 -97 -4 -159 -12 -172 -19 -34 -48 -55 -94 -68 -31 -9 -51
-23 -66 -46 -21 -31 -23 -45 -23 -166 0 -72 2 -134 5 -137 3 -2 40 1 82 8 43
7 83 13 89 13 8 1 13 -63 16 -211 4 -196 6 -216 27 -256 25 -49 37 -46 65 12
13 27 16 71 16 223 0 202 7 247 43 281 17 16 276 112 302 112 2 0 5 -105 7
-233 3 -227 4 -233 28 -274 14 -24 28 -43 31 -43 4 0 16 22 28 49 19 46 21 68
21 275 0 224 0 225 25 254 13 16 44 36 67 45 28 11 52 30 68 54 23 34 25 47
28 175 2 76 2 138 0 138 -1 0 -37 -9 -78 -20 -41 -11 -81 -20 -87 -20 -10 0
-13 24 -13 85 l0 85 185 0 c241 0 252 -4 300 -106 61 -134 173 -223 352 -283
348 -117 816 -94 1122 56 98 49 161 112 208 209 65 133 -103 119 1366 122 700
2 1309 0 1355 -3 l82 -7 0 -129 c0 -148 -12 -136 117 -115 l83 13 2 -256 3
-256 26 -3 c46 -5 53 28 59 278 6 237 14 278 57 295 27 10 305 105 309 105 2
0 4 -126 4 -280 0 -163 4 -280 9 -280 5 0 17 -3 25 -6 12 -4 21 4 33 32 15 32
19 81 23 279 6 270 9 282 78 313 34 16 224 17 2462 20 1334 2 2471 0 2526 -3
l102 -7 3 -113 c4 -96 7 -118 25 -141 27 -37 36 -38 57 -8 14 18 19 48 22 114
5 118 22 144 97 153 79 10 221 8 238 -3 10 -6 18 -38 25 -92 10 -79 11 -83 36
-86 26 -3 29 2 59 92 l32 96 11481 0 c9229 0 11487 3 11507 13 15 7 30 28 38
51 10 30 12 426 10 1902 l-3 1863 -22 23 -22 22 -25091 -1 -25091 0 6 26 c52
204 70 493 41 687 -44 299 -173 606 -387 919 -37 55 -81 115 -96 134 l-29 33
-71 -76z m250 -513 c86 -61 148 -244 149 -438 1 -215 -61 -377 -246 -642 -39
-56 -81 -107 -94 -112 -14 -7 -108 -11 -234 -11 l-211 0 6 133 c13 309 84 584
215 842 63 123 159 232 222 253 59 19 147 8 193 -25z m50357 -1728 l0 -415
-2750 0 c-2193 0 -2750 3 -2750 13 -2 53 -19 260 -23 263 -3 3 -41 -4 -85 -15
-44 -12 -83 -21 -85 -21 -3 0 -7 96 -9 213 -3 184 -6 217 -22 247 -34 63 -37
64 -59 18 -18 -37 -21 -71 -26 -258 -7 -243 -13 -265 -80 -300 -39 -19 -186
-50 -242 -50 l-29 0 0 215 c0 220 -4 249 -43 299 -14 19 -16 18 -38 -25 -22
-42 -23 -54 -24 -274 -1 -160 -5 -237 -13 -252 -17 -30 -52 -47 -141 -67 -67
-15 -292 -16 -2537 -16 l-2463 0 -5 33 c-3 17 -13 83 -21 146 -9 63 -17 117
-20 119 -2 2 -15 2 -28 -2 -29 -7 -33 -24 -43 -178 l-7 -108 -166 0 -167 0
-28 85 c-15 47 -33 85 -39 85 -27 -1 -37 -20 -49 -93 l-12 -77 -19314 0
-19314 0 55 63 c61 69 240 338 382 572 61 100 102 157 124 172 l34 23 25018 0
25019 0 0 -415z m-50805 240 c-87 -91 -161 -165 -165 -165 -4 0 -10 51 -14
113 -4 61 -10 136 -13 165 l-6 52 178 0 177 0 -157 -165z m38813 -897 c-5
-157 -18 -193 -72 -203 -51 -10 -96 -42 -112 -80 -10 -24 -14 -75 -14 -170 l0
-135 28 6 c15 3 43 10 62 14 19 4 47 11 63 14 l27 6 0 -85 0 -85 -2439 0
c-1676 0 -2447 3 -2468 10 -41 15 -52 45 -63 168 -5 58 -12 107 -15 110 -5 5
-137 -16 -162 -25 -10 -4 -13 43 -13 216 0 203 -2 225 -20 261 -11 22 -23 40
-25 40 -3 0 -17 -19 -32 -42 l-28 -42 0 -211 c0 -185 -2 -214 -18 -238 -24
-37 -52 -53 -122 -71 -33 -8 -93 -27 -134 -41 -41 -14 -78 -25 -83 -25 -4 0
-8 126 -8 280 l0 280 -29 0 c-48 0 -59 -55 -63 -305 -3 -200 -5 -212 -28 -260
-20 -40 -35 -55 -75 -75 l-50 -25 -2483 0 -2484 0 -29 33 c-29 32 -30 36 -27
122 3 82 1 90 -21 114 -14 14 -27 26 -30 26 -3 0 -16 -15 -28 -33 -21 -30 -23
-45 -23 -150 l0 -117 -143 0 -143 0 -26 28 c-14 15 -42 56 -62 92 l-35 64 -26
-57 c-14 -32 -25 -70 -25 -86 0 -27 -2 -28 -67 -34 -91 -9 -25629 -9 -26447 0
-634 6 -639 6 -664 28 -22 19 -31 54 -89 336 -36 173 -67 341 -70 375 -5 57
-4 62 22 82 l28 22 19385 0 19384 0 -4 -132z m5526 45 c4 -49 9 -102 12 -119
l4 -32 73 14 c39 7 82 16 95 19 l23 6 -3 -305 c-3 -277 -5 -307 -21 -323 -17
-17 -90 -18 -1425 -21 -1569 -3 -1458 -8 -1524 67 -18 21 -52 63 -75 93 -139
182 -436 288 -807 288 -211 0 -399 -45 -581 -138 -107 -55 -158 -99 -191 -163
-13 -26 -40 -63 -60 -83 -58 -57 -102 -66 -311 -66 l-183 0 1 143 c0 144 11
204 39 217 8 4 38 16 65 26 41 16 54 27 73 64 22 41 23 55 20 167 -2 67 -7
125 -11 129 -3 4 -43 1 -87 -6 -44 -7 -82 -11 -84 -9 -3 2 -7 20 -11 41 -6 29
-3 40 14 57 l21 21 2464 0 2464 0 6 -87z m1501 40 c-101 -67 -196 -167 -236
-249 -30 -60 -34 -78 -34 -144 1 -63 6 -85 33 -141 31 -66 117 -164 197 -227
l40 -31 -266 -1 -267 0 -6 23 c-3 12 -6 58 -6 102 0 44 -4 85 -8 92 -5 9 -23
8 -72 -2 -36 -8 -75 -14 -87 -15 l-23 0 0 291 0 291 29 29 29 29 374 0 373 0
-70 -47z m605 36 c207 -33 353 -180 434 -437 50 -159 43 -234 -30 -306 -57
-56 -115 -76 -252 -88 -160 -13 -217 -7 -295 30 -273 128 -417 559 -241 724
75 70 232 102 384 77z m-7186 -38 c13 -81 -13 -129 -88 -161 -46 -20 -179 -50
-224 -50 l-29 0 -6 83 c-4 45 -7 101 -7 125 l0 42 174 0 173 0 7 -39z m11546
-376 l0 -415 -1882 0 -1883 1 30 22 c130 97 212 187 240 266 22 63 19 169 -6
236 -28 74 -109 160 -218 232 -47 31 -90 60 -95 65 -6 4 850 8 1902 8 l1912 0
0 -415z m-5810 83 c0 -373 16 -338 -188 -408 -79 -28 -148 -50 -153 -50 -5 0
-9 123 -9 298 0 320 1 325 53 354 16 9 274 103 295 107 1 1 2 -135 2 -301z
m-45106 195 c30 -102 151 -682 143 -689 -2 -2 -205 -3 -452 -2 l-447 3 67 85
c106 132 334 353 510 493 87 70 163 127 166 127 4 0 10 -8 13 -17z m40832
-344 c144 -26 258 -114 332 -256 23 -45 42 -84 42 -87 0 -3 -190 -6 -421 -6
l-422 0 6 80 c13 167 74 235 237 266 84 16 152 17 226 3z m-1454 -207 c3 -111
2 -114 -22 -134 -23 -19 -33 -20 -145 -14 -189 10 -185 8 -185 117 0 88 24
106 225 164 l110 32 7 -26 c4 -14 9 -77 10 -139z m-39579 -291 c-252 -213
-365 -426 -367 -693 l-1 -98 -254 0 -254 0 6 153 c7 215 50 363 163 561 75
133 52 126 442 126 l323 0 -58 -49z m28081 33 c12 -5 16 -20 16 -66 0 -54 -3
-63 -32 -92 -34 -33 -134 -68 -240 -82 l-46 -6 -12 58 c-7 33 -13 83 -14 113
0 45 3 56 24 73 23 19 34 20 156 14 73 -3 139 -9 148 -12z m5100 -31 c3 -27 8
-80 12 -119 l6 -72 71 19 c40 10 83 19 96 19 l23 0 -3 -289 c-4 -313 -3 -306
-63 -339 -29 -16 -140 -17 -1416 -20 l-1385 -2 -45 22 c-31 16 -63 47 -105
103 -173 224 -435 329 -825 330 -238 0 -398 -39 -598 -145 -134 -72 -150 -85
-176 -144 -30 -66 -68 -112 -120 -139 -38 -20 -54 -22 -233 -22 -105 0 -195 4
-200 8 -4 5 -8 72 -8 150 1 170 11 199 80 216 99 25 121 72 112 244 -3 66 -8
122 -11 124 -2 3 -39 -1 -81 -8 -88 -14 -95 -10 -95 53 0 25 6 40 18 47 11 7
825 10 2479 11 l2461 0 6 -47z m6930 26 c14 -11 41 -53 59 -92 40 -86 114
-169 190 -215 68 -41 221 -94 358 -124 151 -32 447 -32 598 0 137 30 283 77
352 114 78 41 164 131 208 219 20 40 49 82 64 93 l28 21 1340 3 1339 2 0 -150
c0 -82 2 -150 4 -150 3 0 42 9 88 20 46 11 90 20 99 20 14 0 16 -25 16 -224 0
-215 1 -226 23 -261 l22 -36 27 38 c26 38 26 38 27 254 2 239 8 265 65 295 23
11 267 84 284 84 1 0 4 -102 7 -227 3 -218 5 -230 27 -270 27 -47 33 -47 59 0
15 28 17 65 19 265 2 299 -6 285 170 321 l102 21 2669 0 c1468 0 2690 -3 2716
-6 l46 -7 0 -413 0 -414 -5705 0 -5705 0 -12 28 c-6 15 -12 64 -12 109 -1 80
0 83 34 118 19 20 56 50 81 67 26 16 53 42 60 56 8 17 14 79 17 170 l4 143
-24 -5 c-41 -9 -141 -26 -155 -26 -10 0 -13 22 -13 90 l0 90 199 0 c186 0 200
-1 225 -21z m1324 5 c84 -58 61 -231 -40 -305 -92 -66 -255 -96 -381 -70 -77
16 -180 70 -245 127 -67 59 -145 171 -166 242 l-7 22 408 0 c354 0 412 -2 431
-16z m-13788 -128 c0 -156 -10 -178 -86 -197 -54 -14 -89 -46 -103 -93 -10
-38 -3 -286 8 -286 4 0 39 9 79 20 107 30 102 33 102 -60 l0 -80 -2485 0
-2485 0 0 143 0 144 -52 -8 c-29 -4 -74 -10 -100 -14 l-48 -6 0 161 c0 137
-15 348 -25 358 -2 2 -20 0 -40 -4 l-37 -7 2 -226 c2 -124 2 -238 2 -253 -3
-46 -56 -96 -121 -114 -31 -8 -91 -27 -134 -41 -60 -19 -82 -22 -90 -14 -8 8
-12 78 -13 224 -1 246 -12 317 -49 317 -57 0 -55 9 -55 -268 0 -234 -2 -259
-20 -297 -11 -22 -33 -48 -50 -58 -81 -48 0 -47 -2632 -47 l-2466 0 -4 123
c-2 103 -6 126 -23 149 -23 32 -32 31 -59 -6 -18 -23 -21 -45 -25 -142 l-3
-114 -160 0 -159 0 -41 88 -40 87 -44 -88 -44 -87 -7302 2 -7301 3 -43 173
c-63 257 -100 327 -288 534 -53 58 -96 109 -96 112 0 3 5969 6 13265 6 l13265
0 0 -134z m6961 27 c-176 -174 -229 -277 -197 -385 22 -77 65 -135 178 -243
l100 -95 -270 0 -270 0 -6 48 c-3 26 -8 77 -12 115 -3 37 -8 67 -9 67 -2 0
-39 -7 -82 -15 -43 -8 -79 -15 -80 -15 -2 0 -3 142 -3 315 l0 315 380 0 380 0
-109 -107z m691 96 c137 -28 297 -143 372 -268 80 -131 100 -288 50 -388 -35
-71 -88 -116 -170 -144 -58 -20 -89 -24 -190 -24 l-121 0 -88 44 c-67 33 -106
61 -160 115 -113 113 -165 237 -165 397 0 74 4 93 28 140 46 92 146 136 309
138 45 1 106 -4 135 -10z m3826 -155 c-6 -189 -5 -186 -95 -219 -91 -32 -98
-49 -98 -220 0 -79 3 -147 7 -151 7 -6 48 0 146 23 21 5 22 2 22 -45 0 -43 -3
-50 -22 -56 -33 -8 -3115 -6 -3163 2 l-40 7 49 34 c80 56 162 146 198 219 29
59 33 76 33 147 0 68 -5 89 -30 139 -36 73 -136 176 -230 239 l-70 47 1649 0
1649 0 -5 -166z m448 119 c11 -60 -11 -141 -48 -180 -39 -40 -124 -69 -233
-79 l-75 -7 0 152 0 151 175 0 174 0 7 -37z m-5736 -290 c0 -329 1 -323 -66
-356 -33 -17 -261 -97 -275 -97 -5 0 -9 129 -9 294 0 369 -13 341 180 408 74
26 143 47 153 47 16 1 17 -19 17 -296z m-33065 12 c141 -37 258 -139 329 -288
45 -92 76 -201 62 -215 -13 -12 -271 -14 -347 -3 -164 26 -216 93 -239 311
-15 152 -14 198 8 203 38 10 131 6 187 -8z m-296 -147 c39 -165 73 -350 65
-357 -3 -3 -147 -8 -320 -9 l-314 -4 0 69 c0 58 5 80 32 133 78 157 297 295
475 299 l31 1 31 -132z m29130 -17 c33 -10 80 -30 104 -44 64 -38 157 -142
200 -225 l38 -72 -420 0 -420 0 -7 46 c-8 56 9 145 37 190 61 100 307 155 468
105z m-1499 -186 l0 -145 -169 0 -168 0 -7 31 c-3 17 -6 55 -6 84 0 79 41 108
207 150 157 38 143 50 143 -120z m11468 -43 l3 -122 -171 0 -170 0 0 53 c0
111 81 168 270 190 68 8 65 13 68 -121z m-39944 -242 c23 -11 79 -59 126 -107
47 -47 112 -104 145 -125 56 -36 183 -84 204 -76 6 1 -37 68 -95 148 -58 80
-110 153 -115 163 -10 18 1 19 309 15 320 -3 320 -3 345 -26 14 -13 30 -36 36
-50 16 -41 112 -501 114 -547 2 -37 0 -41 -51 -71 -29 -18 -90 -43 -135 -55
-70 -20 -105 -24 -242 -24 -166 0 -217 7 -364 51 -358 107 -637 366 -725 672
l-15 52 211 0 c191 0 216 -2 252 -20z m16554 -108 c-4 -155 -12 -171 -103
-214 -35 -16 -70 -36 -77 -45 -9 -12 -13 -55 -13 -159 0 -78 3 -145 6 -149 4
-3 44 1 90 10 45 8 83 14 84 13 2 -2 5 -38 7 -80 l3 -78 -2486 0 -2486 0 -7
132 c-3 72 -8 133 -10 136 -3 2 -43 -5 -90 -15 l-85 -20 -3 228 c-3 212 -4
230 -24 255 -29 39 -39 39 -63 1 -20 -32 -21 -48 -21 -259 0 -289 10 -272
-197 -332 -65 -19 -125 -37 -134 -41 -15 -5 -17 17 -21 223 l-5 230 -28 48
-28 47 -21 -39 c-19 -35 -21 -60 -26 -259 -5 -207 -6 -222 -28 -256 -24 -40
-62 -62 -132 -78 -52 -12 -5539 -15 -5555 -3 -6 4 -10 58 -10 123 -1 111 -2
118 -27 147 l-26 32 -26 -31 c-25 -29 -26 -36 -26 -150 l0 -119 -167 2 -167 3
-34 89 -35 90 -49 -97 -48 -97 -1581 0 -1580 0 -52 22 c-29 12 -54 23 -56 25
-11 8 81 90 164 146 50 34 141 112 206 177 120 120 185 210 235 330 34 80 48
98 99 121 39 18 278 19 7339 19 l7298 0 -4 -128z m411 122 c31 -6 31 -7 31
-68 0 -55 -3 -65 -27 -87 -39 -35 -72 -48 -195 -74 l-108 -23 0 129 0 129 134
0 c73 0 148 -3 165 -6z m5125 -25 c3 -17 6 -67 6 -110 0 -57 4 -79 13 -79 6 0
49 9 95 19 l82 19 0 -287 c0 -315 1 -310 -64 -350 l-33 -21 -1386 0 c-957 0
-1394 3 -1414 11 -39 15 -67 43 -126 128 -119 171 -293 257 -633 311 -97 16
-294 13 -395 -4 -194 -35 -428 -135 -514 -221 -27 -28 -65 -76 -83 -108 -63
-109 -123 -129 -364 -120 l-158 6 0 154 c0 186 5 201 87 241 90 43 97 59 101
223 l4 139 -29 -5 c-15 -3 -55 -9 -87 -15 -66 -11 -76 -6 -76 42 0 17 9 33 22
42 20 14 272 16 2484 16 l2462 0 6 -31z m6928 12 c13 -11 41 -53 61 -94 90
-182 265 -279 612 -339 100 -17 148 -19 290 -15 147 4 186 9 287 35 65 17 160
51 212 75 82 39 105 56 168 124 124 132 202 205 235 219 27 12 254 14 1315 14
706 0 1300 -3 1321 -6 l37 -7 0 -133 c0 -74 1 -134 3 -134 1 0 40 7 87 15 47
8 91 15 98 15 9 0 12 -49 12 -212 0 -210 0 -211 26 -256 l27 -45 23 44 c21 40
23 57 24 194 1 259 22 329 114 371 44 19 169 44 224 44 15 0 17 -21 17 -224
l1 -224 27 -41 c15 -22 29 -41 32 -41 2 0 14 18 25 40 18 36 20 58 20 264 0
124 4 236 10 250 14 38 50 56 147 72 75 12 455 14 2509 14 1332 0 2442 -3
2468 -6 l46 -7 0 -165 0 -165 21 19 c51 46 62 74 70 173 4 53 11 104 14 114 6
15 24 17 175 17 l168 0 7 -67 c8 -80 19 -103 45 -103 19 0 22 7 66 163 5 16
286 17 5715 17 l5709 0 0 -410 0 -410 -11450 0 -11450 0 -2 58 c-3 93 2 185
13 212 7 19 25 30 71 45 96 31 103 46 103 220 0 79 -3 147 -7 150 -6 6 -91
-10 -160 -31 -16 -5 -18 4 -18 85 l0 91 204 0 c185 0 205 -2 228 -19z m1337
-11 c54 -55 51 -156 -8 -230 -38 -48 -158 -108 -244 -122 -212 -35 -454 94
-560 298 -20 40 -37 75 -37 78 0 3 184 6 409 6 l409 0 31 -30z m-28822 -52
c-12 -140 -79 -278 -190 -391 -62 -62 -152 -125 -163 -114 -3 3 -30 122 -60
264 -30 142 -56 270 -60 286 l-6 27 243 0 242 0 -6 -72z m22715 52 c231 -71
398 -285 398 -509 -1 -155 -80 -245 -252 -286 -186 -44 -349 7 -499 155 -96
95 -144 186 -161 307 -21 154 17 269 102 313 60 31 104 38 231 39 90 1 132 -4
181 -19z m3768 -138 c0 -182 -5 -195 -76 -213 -56 -14 -99 -54 -113 -105 -9
-32 -5 -274 4 -274 2 0 40 7 85 16 93 17 100 14 100 -43 0 -22 -6 -36 -19 -43
-14 -7 -527 -9 -1617 -8 l-1598 3 44 29 c67 44 182 165 215 226 26 48 30 65
30 135 0 113 -30 172 -149 291 -50 49 -107 102 -126 117 l-35 26 1628 1 1627
0 0 -158z m448 73 c2 -66 -1 -86 -18 -113 -31 -50 -109 -82 -220 -89 l-90 -6
0 147 0 146 163 -2 162 -3 3 -80z m-4916 35 c-76 -51 -172 -153 -201 -214 -47
-100 -46 -197 1 -295 28 -58 135 -171 210 -221 l60 -40 -284 0 -285 0 -6 116
c-4 64 -8 118 -9 120 -2 1 -39 -6 -83 -16 -44 -11 -83 -19 -87 -20 -5 0 -8
137 -8 305 l0 305 376 0 376 0 -60 -40z m-802 -260 c0 -326 -2 -335 -68 -369
-44 -22 -254 -91 -278 -91 -16 0 -17 23 -11 298 3 163 9 305 13 315 3 10 21
25 38 34 29 15 282 102 299 103 4 0 7 -131 7 -290z m-4300 -150 c147 -23 287
-131 363 -280 l39 -75 -418 -3 c-229 -1 -420 0 -423 4 -3 3 -6 42 -6 87 0 72
4 88 28 130 43 73 125 118 247 136 78 12 97 12 170 1z m-1450 -210 l0 -150
-164 0 -164 0 -6 63 c-11 103 19 164 93 188 45 15 188 47 219 48 22 1 22 0 22
-149z m11470 -30 l0 -120 -165 0 -165 0 0 48 c0 102 81 161 255 185 82 11 75
21 75 -113z m-9671 -238 c77 -6 86 -9 105 -35 30 -41 28 -140 -4 -191 -67
-110 -279 -171 -460 -132 -131 28 -226 87 -304 190 -36 47 -86 144 -86 166 0
11 611 12 749 2z m-13824 -42 c18 -108 -24 -140 -247 -188 l-88 -19 0 124 0
123 164 0 164 0 7 -40z m7747 25 c254 -53 467 -301 468 -541 0 -74 -42 -168
-97 -213 -90 -74 -298 -104 -434 -61 -171 53 -339 231 -378 400 -18 76 -13
229 8 275 22 50 86 109 136 125 91 30 202 36 297 15z m4277 -22 c6 -21 11 -60
11 -86 0 -61 -30 -94 -110 -124 -72 -27 -218 -58 -228 -49 -4 4 -8 72 -10 152
l-3 144 165 0 165 0 10 -37z m-5719 -303 l0 -300 -27 -30 c-22 -25 -57 -41
-173 -80 l-145 -48 -8 86 c-4 48 -5 183 -1 301 7 238 9 247 72 275 37 16 260
94 275 95 4 1 7 -134 7 -299z m-6292 -460 l-4 -301 -29 -29 c-21 -20 -69 -42
-164 -74 -73 -25 -137 -46 -142 -46 -5 0 -9 134 -9 298 0 332 0 330 69 360 71
30 246 91 265 91 18 1 18 -11 14 -299z"/>
<path d="M8115 3684 c-232 -37 -366 -109 -533 -285 -108 -114 -197 -149 -386
-149 -72 0 -83 -3 -137 -36 -33 -19 -59 -39 -59 -43 0 -4 24 -21 53 -39 l53
-32 149 0 c185 0 213 -10 264 -97 52 -87 146 -174 232 -217 62 -30 97 -39 214
-56 346 -48 691 -48 865 0 159 45 300 149 370 273 51 91 51 91 294 97 l210 5
8 35 c9 46 1 77 -25 95 -17 12 -58 15 -197 15 -229 0 -237 3 -295 90 -114 172
-302 278 -580 326 -79 14 -442 27 -500 18z m315 -101 c119 -38 230 -142 284
-265 l26 -58 -409 0 -409 0 -6 23 c-11 41 -6 127 10 165 32 77 99 124 213 148
83 17 217 11 291 -13z m348 -499 c39 -27 44 -48 26 -111 -31 -107 -60 -146
-145 -189 -227 -115 -578 29 -683 280 l-15 36 397 0 c343 0 401 -2 420 -16z"/>
<path d="M9298 1443 c-4 -86 -11 -159 -18 -175 -16 -35 -59 -55 -136 -63 l-61
-7 -6 98 c-4 55 -7 125 -7 157 0 58 0 58 -27 55 l-28 -3 -2 -145 c-1 -79 -4
-154 -8 -167 -3 -13 -23 -34 -45 -48 -64 -40 -74 -63 -65 -151 l7 -76 55 4 54
3 -3 -184 c-3 -167 -5 -185 -22 -195 -91 -54 -106 -83 -90 -178 l9 -53 48 -7
c27 -4 51 -8 53 -10 2 -2 6 -70 10 -151 l7 -147 29 0 28 0 0 159 c0 151 1 161
23 186 18 22 36 28 100 37 42 6 79 9 81 7 2 -2 7 -58 11 -124 9 -173 12 -187
38 -183 21 3 22 7 27 171 5 152 7 170 24 183 11 8 25 14 31 14 16 0 51 40 60
69 4 13 4 52 0 87 l-7 64 -39 0 c-33 0 -41 4 -55 32 -22 43 -30 155 -15 215 7
26 37 104 67 174 29 69 57 140 60 157 6 32 6 32 -34 32 -22 0 -52 4 -66 10
-23 9 -26 15 -26 63 0 30 -3 95 -6 145 -7 86 -8 92 -29 92 -22 0 -22 -4 -27
-147z m2 -568 c14 -149 6 -201 -36 -234 -27 -21 -160 -68 -168 -60 -3 3 -13
48 -22 99 -28 162 -6 242 77 289 50 28 121 51 131 42 3 -3 12 -65 18 -136z"/>
<path d="M15078 1438 c-2 -100 -8 -161 -17 -176 -16 -30 -61 -49 -139 -58
l-62 -7 0 59 c0 33 -3 103 -7 157 -6 92 -7 97 -28 97 -22 0 -22 -3 -27 -152
-3 -86 -10 -162 -16 -174 -6 -12 -28 -31 -47 -43 -54 -31 -69 -77 -55 -161 9
-55 15 -67 28 -65 9 2 34 6 55 9 l37 5 -1 -142 c-1 -203 -5 -225 -51 -251 -59
-33 -73 -60 -71 -139 1 -37 5 -72 8 -77 4 -6 23 -10 43 -10 60 0 63 -6 68
-131 7 -167 10 -179 39 -179 l25 0 0 144 c0 79 5 157 11 175 16 45 54 61 144
61 l75 0 0 -150 0 -150 25 0 25 0 0 143 c0 166 10 214 45 223 14 3 36 20 50
36 22 26 25 39 25 109 l0 79 -60 0 -60 0 0 168 c0 189 9 217 74 249 40 19 46
34 46 126 0 64 -1 67 -24 67 -13 0 -37 3 -55 6 -36 8 -37 12 -47 187 -6 114
-7 117 -29 117 -23 0 -23 -1 -27 -152z m-13 -440 c29 -134 34 -273 10 -318 -8
-15 -29 -37 -47 -48 -32 -20 -129 -52 -155 -52 -10 0 -13 39 -13 189 l0 189
88 30 c107 37 110 37 117 10z"/>
<path d="M20605 1580 c-3 -6 -3 -41 1 -79 3 -39 3 -104 -1 -146 -10 -107 -34
-133 -136 -151 -41 -7 -75 -11 -77 -9 -2 1 -7 71 -11 154 -5 84 -11 154 -13
157 -3 2 -13 -5 -24 -17 -16 -18 -20 -42 -24 -166 l-5 -144 -45 -40 c-25 -22
-51 -45 -57 -50 -9 -6 -13 -38 -13 -89 l0 -80 61 0 60 0 -3 -176 c-3 -174 -3
-176 -28 -194 -69 -52 -79 -63 -85 -91 -4 -16 -4 -57 0 -89 l7 -59 51 -3 52
-3 6 -110 c4 -60 7 -129 8 -152 1 -38 4 -43 25 -43 l24 0 4 153 c6 209 12 219
146 232 l70 7 8 -153 9 -154 25 0 25 0 5 168 c5 183 2 172 69 209 43 24 54 59
44 143 l-8 70 -50 3 c-27 2 -52 8 -56 13 -3 6 -5 80 -4 165 1 171 6 184 76
232 38 26 46 49 48 135 l1 57 -47 0 c-27 0 -53 4 -60 8 -7 5 -14 60 -19 155
-7 145 -7 147 -30 147 -12 0 -26 -5 -29 -10z m-7 -632 c22 -144 24 -169 17
-213 -10 -68 -51 -110 -132 -135 -36 -11 -71 -20 -79 -20 -11 0 -14 34 -14
189 l0 189 88 30 c48 17 92 31 98 31 6 1 16 -30 22 -71z"/>
<path d="M26328 1438 c-3 -95 -9 -162 -17 -176 -16 -30 -65 -51 -139 -58 l-59
-7 -6 108 c-4 60 -7 130 -7 157 0 44 -2 48 -23 48 -24 0 -24 -1 -30 -152 -5
-157 -16 -208 -41 -208 -27 0 -75 -50 -82 -85 -3 -18 -2 -57 3 -86 l8 -54 59
0 59 1 -6 -171 c-2 -93 -8 -178 -12 -188 -4 -10 -25 -27 -47 -38 -55 -28 -72
-72 -61 -153 l8 -61 48 -7 c27 -4 51 -8 53 -11 2 -2 7 -68 11 -148 l8 -144 25
0 25 0 5 162 c5 149 7 164 26 184 22 22 82 38 145 39 l36 0 6 -68 c4 -37 7
-96 7 -132 0 -89 7 -112 34 -108 20 3 21 9 26 171 5 152 7 170 24 183 11 8 25
14 31 14 20 0 54 44 61 78 4 17 3 56 -1 87 l-6 55 -39 0 c-34 0 -42 4 -56 32
-22 42 -29 141 -15 207 6 29 36 110 66 180 30 70 58 142 61 159 6 32 6 32 -34
32 -22 0 -52 4 -66 10 -23 9 -26 15 -26 63 0 30 -3 95 -6 145 -7 86 -8 92 -29
92 -22 0 -22 -3 -27 -152z m-8 -480 c19 -84 24 -191 11 -231 -7 -21 -32 -54
-56 -75 -51 -45 -146 -86 -157 -68 -4 6 -8 88 -8 182 0 127 3 175 13 189 12
16 126 53 169 54 12 1 20 -13 28 -51z"/>
<path d="M32266 1559 c-3 -17 -6 -75 -6 -128 -1 -185 -24 -221 -144 -221 l-73
0 -8 151 -7 150 -26 -3 -27 -3 -5 -168 c-5 -183 -2 -172 -69 -209 -37 -20 -51
-70 -42 -153 l6 -59 53 3 52 2 0 -169 c0 -94 -3 -178 -6 -186 -3 -9 -22 -23
-41 -32 -49 -24 -64 -61 -61 -147 2 -55 7 -72 18 -74 8 -1 31 -4 51 -8 l37 -5
8 -148 9 -147 28 -3 27 -3 0 151 c0 206 10 222 151 237 l56 6 6 -54 c4 -30 7
-90 7 -134 0 -104 6 -125 35 -125 23 0 23 1 27 162 3 90 8 170 12 179 4 8 22
21 42 28 61 22 76 67 60 174 l-7 47 -56 0 -55 0 4 176 c3 173 3 177 27 193 13
9 39 30 57 47 33 31 34 34 34 112 l0 80 -31 6 c-17 3 -42 6 -54 6 -27 0 -35
34 -35 150 0 108 -9 150 -30 150 -12 0 -20 -11 -24 -31z m-16 -738 l0 -189
-96 -32 c-52 -18 -97 -30 -99 -28 -2 2 -11 59 -20 127 -28 209 -3 265 128 297
95 23 87 39 87 -175z"/>
<path d="M38038 1443 c-5 -162 -14 -195 -59 -219 -16 -8 -56 -14 -92 -14 l-65
0 -8 148 -9 147 -25 0 -25 0 -5 -165 c-3 -91 -9 -171 -13 -177 -5 -7 -15 -13
-23 -13 -9 0 -29 -13 -45 -29 -28 -28 -29 -34 -29 -115 l0 -86 55 0 55 0 0
-172 c0 -95 -4 -179 -8 -186 -5 -7 -24 -21 -43 -31 -47 -25 -59 -53 -59 -143
l0 -78 43 0 c23 0 47 -4 54 -8 7 -4 14 -61 18 -154 l8 -148 28 0 29 0 0 144
c0 79 5 157 11 175 15 43 54 61 132 61 l64 0 7 -46 c3 -26 6 -70 6 -98 0 -28
3 -75 6 -103 6 -46 10 -53 29 -53 23 0 23 2 27 162 3 90 8 170 12 179 4 8 22
21 41 28 57 20 79 91 59 190 -6 30 -8 31 -61 31 l-55 0 4 176 c3 171 4 177 27
193 83 58 86 63 89 154 l4 85 -55 7 c-54 7 -55 8 -61 44 -3 20 -6 59 -6 87 0
28 -3 79 -6 113 -6 55 -9 61 -29 61 -22 0 -23 -3 -27 -147z m0 -599 l-3 -166
-37 -32 c-20 -17 -69 -48 -108 -69 l-70 -37 0 185 c0 215 6 238 68 255 83 23
108 28 130 29 l24 1 -4 -166z"/>
<path d="M43730 1450 c0 -205 -18 -234 -150 -241 l-65 -4 -6 110 c-4 61 -7
129 -8 153 -1 38 -3 42 -26 42 l-25 0 -1 -142 c-2 -184 -5 -196 -53 -223 -21
-12 -44 -32 -52 -46 -14 -26 -18 -97 -8 -149 l7 -32 53 5 54 6 0 -166 c0 -187
-8 -218 -66 -249 -39 -21 -51 -53 -55 -144 l-3 -55 51 -5 c29 -3 55 -9 60 -13
4 -5 11 -68 14 -140 4 -73 8 -138 8 -144 1 -7 12 -13 26 -13 l25 0 0 140 c0
211 18 240 152 240 l78 0 0 -150 0 -150 24 0 23 0 5 163 c3 89 9 169 12 177 4
8 26 24 49 36 56 27 71 68 56 154 l-11 60 -54 0 -54 0 1 128 c1 165 10 233 35
247 10 5 33 24 52 42 32 31 33 33 30 110 l-3 78 -48 7 c-27 4 -51 8 -52 10 -2
2 -7 46 -10 98 -12 191 -14 200 -41 200 l-24 0 0 -140z m-6 -467 c10 -46 19
-258 13 -285 -11 -42 -55 -76 -129 -100 -58 -19 -71 -20 -78 -8 -16 25 -35
144 -34 215 0 110 29 149 138 187 70 24 83 23 90 -9z"/>
<path d="M49550 1463 c-1 -217 -16 -245 -134 -251 l-73 -4 -6 38 c-4 22 -7 69
-7 105 0 36 -3 87 -6 113 -6 39 -10 46 -29 46 -22 0 -22 -3 -28 -152 -3 -84
-9 -163 -14 -176 -5 -13 -27 -33 -48 -45 -57 -32 -69 -62 -58 -150 l8 -72 46
3 45 3 15 -43 c8 -24 13 -76 13 -118 -2 -79 -12 -111 -92 -295 -62 -144 -63
-139 11 -156 l62 -14 7 -55 c3 -30 7 -86 7 -125 2 -95 8 -115 36 -115 23 0 23
1 27 153 4 206 12 217 151 232 l66 7 3 -153 3 -154 26 -3 26 -3 6 158 c2 87 8
166 12 176 4 9 23 24 42 34 50 24 68 56 66 124 -2 92 -6 99 -64 99 -40 0 -49
3 -49 18 0 9 -3 78 -6 152 -5 127 -4 138 18 180 13 25 39 55 58 68 45 30 52
50 44 127 l-7 63 -52 7 -53 6 -6 92 c-14 200 -15 207 -42 207 l-24 0 0 -127z
m-27 -833 c-9 -8 -165 -61 -169 -57 -1 1 -9 37 -18 79 -21 100 -21 190 0 234
22 45 76 90 139 113 l50 19 3 -191 c1 -105 -1 -194 -5 -197z"/>
<path d="M48293 1390 c-158 -24 -288 -87 -397 -190 -83 -79 -136 -163 -173
-275 -23 -69 -26 -97 -27 -210 0 -117 2 -138 28 -210 39 -112 79 -178 162
-265 130 -135 251 -189 449 -197 101 -5 134 -2 205 16 157 39 267 112 355 235
39 55 90 155 83 161 -5 4 -172 -32 -215 -45 -21 -7 -63 -31 -93 -55 -127 -97
-218 -130 -340 -123 -62 4 -92 12 -154 41 -164 78 -256 235 -256 439 0 309
197 501 500 486 103 -5 134 -19 215 -99 33 -32 82 -68 110 -80 54 -24 166 -36
203 -22 l23 9 -32 64 c-47 94 -161 206 -259 253 -125 61 -269 86 -387 67z"/>
<path d="M7874 1375 c-348 -76 -564 -381 -523 -740 30 -267 198 -481 442 -562
72 -23 98 -27 217 -27 100 -1 152 4 199 17 186 51 330 175 392 337 10 27 16
50 11 50 -27 0 -191 -34 -216 -44 -17 -7 -60 -35 -96 -62 -117 -89 -206 -119
-324 -112 -178 12 -336 144 -390 327 -33 113 -17 287 39 408 65 143 227 232
422 233 110 0 167 -25 257 -115 89 -88 121 -100 238 -90 43 4 78 9 78 12 0 3
-14 33 -32 67 -42 79 -164 202 -243 243 -132 69 -316 92 -471 58z"/>
<path d="M30872 1370 c-117 -31 -206 -83 -297 -174 -164 -166 -228 -392 -179
-634 49 -241 230 -433 469 -497 96 -26 237 -30 335 -11 126 25 219 75 310 166
124 124 192 285 194 460 l1 85 -357 3 c-395 3 -357 9 -372 -60 -5 -23 13 -92
26 -100 2 -1 112 -4 244 -7 l241 -6 -47 -100 c-55 -118 -103 -170 -196 -216
-54 -27 -79 -33 -159 -37 -118 -6 -200 14 -283 68 -237 153 -270 550 -62 758
85 86 242 140 366 127 82 -9 150 -42 224 -110 69 -63 101 -80 176 -90 62 -8
144 3 144 19 0 37 -58 126 -123 191 -83 83 -175 133 -301 165 -104 26 -253 26
-354 0z"/>
<path d="M36775 1370 c-11 -4 -30 -19 -43 -32 -30 -33 -465 -1254 -457 -1285
7 -28 10 -28 99 -2 108 32 121 42 136 94 20 72 62 129 111 153 41 20 59 21
260 19 179 -2 220 -5 240 -19 25 -16 33 -31 86 -163 37 -90 56 -101 151 -85
37 6 74 15 81 19 11 7 -18 98 -142 442 -85 239 -181 508 -212 599 -32 91 -66
179 -76 197 -27 44 -92 73 -160 72 -30 0 -63 -4 -74 -9z m193 -567 c56 -158
100 -288 98 -290 -2 -2 -95 -2 -208 -1 l-204 3 100 288 c55 158 103 287 106
287 4 0 52 -129 108 -287z"/>
<path d="M13530 1361 l-105 -6 0 -650 0 -650 290 0 c272 0 295 2 370 23 226
65 386 222 442 433 24 93 21 289 -6 394 -33 125 -75 200 -157 283 -82 82 -167
127 -294 157 -82 20 -348 27 -540 16z m395 -170 c44 -5 107 -20 140 -32 147
-55 265 -255 265 -449 -1 -182 -93 -357 -227 -427 -81 -43 -141 -53 -313 -53
l-150 0 0 480 0 479 78 4 c42 1 88 4 102 5 14 1 61 -2 105 -7z"/>
<path d="M19247 1363 c-4 -3 -7 -298 -7 -655 l0 -648 360 0 360 0 0 85 0 85
-245 0 -245 0 0 200 0 200 199 0 c181 0 201 2 222 19 34 27 34 110 1 143 -22
22 -28 23 -175 20 -84 -2 -173 0 -199 3 l-48 7 0 184 0 184 245 0 245 0 0 90
0 90 -353 0 c-195 0 -357 -3 -360 -7z"/>
<path d="M25052 708 l3 -653 105 0 105 0 3 282 2 283 213 2 212 3 3 93 3 92
-211 0 -210 0 0 195 0 195 270 0 270 0 0 80 0 80 -385 0 -385 0 2 -652z"/>
<path d="M42120 706 l0 -656 308 0 c326 0 374 5 464 51 57 29 129 104 157 164
32 67 39 166 17 231 -23 67 -75 136 -147 191 l-60 47 28 21 c60 43 100 86 129
137 26 47 29 63 29 138 0 76 -4 93 -33 152 -38 77 -92 129 -161 154 -39 15
-97 18 -388 22 l-343 4 0 -656z m620 458 c57 -33 81 -86 78 -166 -3 -48 -9
-75 -24 -95 -51 -68 -108 -83 -315 -83 l-139 0 0 186 0 186 183 -4 c162 -3
186 -5 217 -24z m-18 -544 c48 -14 97 -55 114 -97 18 -42 18 -144 0 -187 -18
-43 -70 -82 -126 -95 -25 -6 -118 -11 -207 -11 l-163 0 0 200 0 200 173 0 c94
0 189 -5 209 -10z"/>
</g>
</svg>
