<?xml version="1.0" standalone="no"?>
<!DOCTYPE svg PUBLIC "-//W3C//DTD SVG 20010904//EN"
 "http://www.w3.org/TR/2001/REC-SVG-20010904/DTD/svg10.dtd">
<svg version="1.0" xmlns="http://www.w3.org/2000/svg"
 width="5262.000000pt" height="1208.000000pt" viewBox="0 0 5262.000000 1208.000000"
 preserveAspectRatio="xMidYMid meet">

<g transform="translate(0.000000,1208.000000) scale(0.100000,-0.100000)"
fill="#000000" stroke="none">
<path d="M5506 12049 l-26 -31 -1 -376 c0 -265 -4 -387 -12 -412 -14 -42 -63
-72 -153 -94 -92 -23 -140 -21 -155 6 -9 16 -11 130 -10 416 2 291 -1 397 -10
408 -18 22 -92 18 -115 -7 -18 -20 -19 -46 -24 -439 l-5 -418 -24 -25 c-13
-15 -44 -31 -73 -37 -30 -8 -62 -25 -83 -45 l-35 -32 0 -197 0 -196 64 2 c53
1 71 -3 111 -27 l48 -28 -41 -38 -41 -39 -946 0 c-932 0 -945 0 -965 20 -11
11 -20 27 -20 36 0 67 -36 406 -55 519 -39 229 -90 383 -231 695 -88 194 -132
253 -199 266 -105 19 -285 -135 -404 -346 -168 -299 -264 -627 -290 -992 -11
-145 -18 -170 -53 -189 -16 -9 -227 -12 -782 -13 l-761 -1 -65 -26 -65 -27 30
-12 c98 -40 91 -40 876 -40 457 0 768 -4 783 -10 17 -6 28 -21 35 -47 24 -91
96 -643 96 -734 0 -89 -2 -99 -30 -145 -37 -59 -107 -108 -176 -123 -35 -8
-295 -11 -807 -11 l-756 0 -25 -24 -25 -25 24 -26 23 -25 633 0 c556 0 824 -8
843 -26 6 -5 -29 -46 -181 -211 -229 -247 -397 -468 -520 -683 -49 -86 -59
-97 -108 -122 l-54 -28 -285 0 c-268 0 -287 -1 -328 -21 -24 -11 -43 -24 -43
-28 0 -4 19 -18 42 -32 42 -24 47 -24 342 -27 l298 -4 -6 -26 c-68 -316 -81
-433 -73 -642 3 -80 13 -196 23 -257 10 -62 14 -116 10 -120 -4 -5 -132 -10
-284 -13 -238 -4 -281 -7 -309 -22 -46 -25 -47 -34 -11 -60 32 -22 40 -23 313
-28 257 -5 283 -7 313 -25 27 -16 47 -48 101 -160 199 -407 461 -670 803 -803
40 -16 82 -33 93 -37 48 -20 -108 -26 -821 -34 -749 -9 -750 -9 -794 -31 -42
-21 -43 -23 -24 -37 57 -44 16 -43 1323 -43 860 0 1247 -3 1264 -11 12 -6 28
-19 35 -29 12 -20 109 -583 137 -793 27 -210 15 -324 -48 -460 -70 -150 -175
-256 -322 -328 -112 -54 -189 -71 -320 -72 -130 0 -214 20 -279 67 -51 36
-100 92 -92 104 3 5 40 19 83 32 110 32 170 61 230 108 163 130 198 343 92
555 -62 122 -174 197 -326 219 -148 21 -270 -19 -373 -122 -183 -183 -220
-447 -97 -693 32 -66 59 -101 136 -177 169 -169 331 -231 596 -231 207 0 386
42 521 122 218 128 373 424 377 719 2 108 -3 140 -82 530 -47 228 -82 423 -79
431 6 14 39 17 255 23 1127 27 6242 3 6556 -32 l62 -7 -100 -64 c-204 -130
-275 -237 -275 -418 0 -259 149 -430 460 -531 373 -121 714 -137 1002 -46 148
47 309 132 410 216 158 132 206 364 112 551 -40 81 -90 131 -209 214 -71 48
-114 84 -112 93 2 12 26 17 107 23 58 4 881 6 1830 5 l1725 -3 31 -22 c20 -15
34 -35 38 -55 27 -140 168 -281 366 -363 325 -137 632 -166 967 -94 120 26
277 79 354 121 81 42 214 170 258 244 70 120 82 135 124 155 41 18 376 19
17782 19 l17740 0 50 24 50 23 -55 29 -55 29 -15260 5 c-8444 3 -15268 9
-15277 14 -32 15 -19 30 65 76 46 25 108 71 143 105 103 101 140 203 132 361
-4 75 -10 100 -37 158 -43 88 -127 173 -249 250 -51 33 -91 64 -89 70 2 6 32
14 68 17 35 4 859 7 1830 8 l1766 1 33 -22 c24 -17 37 -37 50 -80 53 -175 202
-293 487 -387 213 -71 383 -93 615 -79 200 12 496 92 625 170 95 57 180 148
223 241 43 92 68 123 116 143 28 12 1869 14 12422 14 l12389 0 27 21 c32 25
33 40 5 65 -21 19 -204 19 -9928 24 -5448 3 -9918 10 -9933 14 -47 14 -38 31
37 69 80 42 180 127 225 191 52 77 72 157 68 272 -3 92 -6 107 -41 176 -42 86
-123 169 -252 259 l-77 54 63 12 c48 9 498 12 1834 12 2036 1 1813 14 1854
-105 67 -199 233 -320 554 -404 179 -48 317 -63 497 -57 240 9 420 53 627 153
89 43 126 67 176 116 65 65 109 140 122 211 10 49 54 87 103 87 20 0 3183 0
7028 0 l6991 0 33 22 c45 31 46 39 7 65 l-33 23 -4467 0 c-3244 0 -4487 3
-4541 11 l-76 11 73 51 c194 136 277 275 277 463 0 181 -88 311 -313 464 -31
20 -45 36 -39 42 24 24 352 29 1964 26 1671 -3 1687 -3 1713 -23 17 -13 34
-40 44 -75 44 -140 125 -229 278 -308 390 -200 867 -223 1300 -63 238 88 336
169 384 317 27 85 43 110 83 132 29 16 152 17 1671 22 l1640 5 39 25 40 24
-47 22 -47 21 -1628 5 c-1611 5 -1627 5 -1673 25 -42 19 -47 25 -58 69 -45
178 -216 308 -542 412 -163 52 -256 66 -444 67 -199 0 -307 -17 -487 -76 -306
-99 -460 -212 -510 -372 -23 -74 -37 -91 -95 -113 -41 -16 -1273 -17 -20000
-12 -19760 6 -19956 6 -19982 26 -23 17 -27 28 -32 93 -7 81 -15 109 -33 109
-6 0 -49 -7 -96 -15 -47 -8 -86 -15 -87 -15 -2 0 -3 182 -3 405 0 394 1 406
20 425 12 12 32 25 46 30 16 7 8277 10 22812 10 l22787 0 40 21 c60 32 61 35
14 61 l-44 23 -23362 5 c-12849 3 -23365 9 -23369 13 -5 4 -10 64 -12 132 -4
123 -4 124 22 148 14 13 48 30 74 37 120 33 127 47 119 252 -7 198 -10 202
-130 206 l-85 3 -8 76 c-3 43 -5 220 -2 394 6 363 3 379 -56 379 -26 0 -40 -7
-60 -31z m-2863 -783 c46 -20 92 -72 124 -141 26 -55 28 -69 27 -170 -2 -137
-39 -410 -62 -449 -9 -16 -30 -38 -45 -50 -28 -20 -37 -21 -310 -18 -278 3
-353 7 -375 21 -15 9 228 578 274 642 101 139 261 211 367 165z m2821 -592
c12 -12 16 -37 16 -105 0 -124 -5 -128 -147 -131 -180 -3 -183 -1 -183 86 0
110 75 162 237 165 44 1 66 -4 77 -15z m-1 -365 c13 -17 17 -40 17 -108 -1
-163 -51 -214 -216 -215 -104 -1 -117 8 -112 78 3 28 1 77 -4 109 -10 68 4
132 31 146 10 6 58 10 106 10 48 0 90 3 93 6 12 12 67 -5 85 -26z m-2823 11
c0 -16 -123 -218 -189 -310 -33 -47 -92 -121 -132 -165 -83 -94 -251 -247
-260 -237 -3 4 -12 77 -18 162 -7 85 -19 234 -26 330 -18 213 -16 217 72 223
140 8 553 6 553 -3z m2346 -12 c14 -14 17 -40 19 -150 4 -222 -8 -242 -157
-273 -16 -3 -35 -19 -47 -39 -19 -31 -21 -48 -21 -237 l0 -205 78 8 c138 12
129 15 141 -43 13 -58 3 -86 -32 -94 -42 -11 -2365 -1 -2376 10 -7 7 8 38 45
95 147 224 260 513 320 817 13 62 24 94 41 110 l22 23 975 -2 c898 -3 977 -4
992 -20z m1529 8 c21 -9 37 -24 40 -38 3 -13 4 -204 3 -425 -3 -397 -3 -403
-25 -424 -16 -16 -57 -29 -159 -50 -76 -16 -142 -29 -146 -29 -4 0 -8 179 -8
398 l0 397 -25 38 c-14 20 -29 37 -33 37 -5 0 -25 -18 -47 -40 l-38 -39 -2
-401 c-1 -392 -2 -401 -22 -422 -25 -24 -128 -45 -275 -54 -93 -7 -97 -6 -121
18 -22 22 -26 37 -32 121 -4 53 -4 113 -1 133 9 47 44 81 92 89 60 10 93 25
114 53 18 23 20 41 20 238 0 246 14 224 -120 194 -46 -10 -86 -18 -87 -16 -8
8 -24 170 -19 190 3 14 18 29 33 34 17 6 186 11 426 11 324 1 404 -2 432 -13z
m41571 -620 c72 -33 117 -69 158 -125 44 -60 157 -271 151 -282 -14 -22 -128
-30 -423 -27 -373 4 -352 -4 -352 123 0 168 33 255 113 297 102 53 254 59 353
14z m-42603 -203 c8 -78 0 -162 -17 -184 -30 -40 -59 -49 -161 -49 -60 0 -110
5 -125 13 -23 12 -25 19 -28 94 -4 118 4 126 178 162 74 15 138 29 141 30 3 0
9 -29 12 -66z m-501 -361 c23 -22 23 -26 20 -201 -5 -221 2 -283 36 -322 19
-24 31 -29 56 -27 53 5 57 26 54 283 -1 127 1 240 5 252 11 31 57 43 163 43
104 0 137 -9 154 -41 7 -12 14 -79 15 -154 3 -120 6 -138 30 -185 25 -50 27
-51 45 -35 11 10 29 36 40 59 17 37 20 62 20 193 l0 150 83 7 c89 7 130 -1
141 -29 3 -9 6 -89 6 -176 0 -148 1 -160 18 -155 21 6 181 36 193 36 5 0 9
-139 9 -318 0 -317 0 -319 -22 -340 -25 -22 -154 -53 -306 -71 -54 -7 -653
-11 -1689 -11 -1525 -1 -1606 0 -1635 17 -54 31 -67 60 -97 218 -16 83 -46
225 -65 318 -20 92 -36 174 -36 181 0 52 204 251 314 306 l60 30 1183 -2 1182
-3 23 -23z m37018 0 c0 -24 -8 -32 -62 -59 -145 -71 -248 -174 -290 -289 -28
-76 -31 -214 -6 -295 37 -118 133 -225 280 -312 34 -20 67 -38 72 -41 28 -10
-20 -29 -91 -37 -43 -4 -858 -8 -1811 -8 -1488 -1 -1738 1 -1767 13 -36 15
-54 45 -90 149 -20 58 -100 148 -173 194 -110 71 -381 164 -582 200 -142 25
-375 23 -507 -5 -173 -37 -309 -94 -466 -194 -97 -63 -160 -133 -215 -241 -34
-67 -51 -89 -77 -101 -30 -15 -1334 -16 -14617 -16 -10058 0 -14595 3 -14620
11 -44 12 -46 18 -50 136 -3 69 -7 86 -25 105 -21 20 -25 21 -75 9 -29 -7 -64
-11 -78 -10 -45 7 -50 34 -50 304 0 288 4 325 32 325 34 0 84 29 146 86 33 30
80 65 104 79 l43 25 17488 0 17487 0 0 -28z m6394 -1 c71 -78 12 -341 -89
-398 -110 -61 -319 -48 -423 26 -41 30 -117 135 -201 278 -71 121 -94 113 333
113 346 0 364 -1 380 -19z m-5751 -6 c139 -36 226 -109 300 -252 79 -154 92
-211 92 -408 l0 -170 -33 -67 c-29 -58 -39 -70 -84 -92 -42 -21 -66 -26 -128
-26 -194 0 -294 47 -388 183 -63 92 -104 174 -134 267 -43 140 -27 412 31 490
55 76 211 110 344 75z m-36105 -207 c9 -9 12 -88 12 -295 0 -309 -3 -327 -56
-352 -43 -19 -145 -41 -195 -41 -75 0 -74 -5 -73 305 0 240 2 276 17 299 25
38 60 57 140 77 86 21 139 23 155 7z m-4388 -492 c27 -147 50 -276 50 -286 0
-9 -8 -24 -18 -34 -17 -15 -53 -16 -356 -14 l-338 3 299 316 c229 243 300 313
305 300 4 -9 30 -137 58 -285z m35180 101 c83 -31 158 -113 253 -277 76 -132
77 -135 55 -144 -13 -6 -171 -12 -368 -14 -345 -3 -346 -3 -374 19 l-29 22 5
116 c6 133 24 189 78 234 88 75 247 93 380 44z m-35388 -547 c215 0 220 -4 98
-94 -155 -114 -287 -262 -355 -396 -67 -134 -87 -219 -93 -392 l-4 -157 -50
-10 c-27 -6 -143 -11 -259 -11 l-210 0 -26 26 c-26 26 -26 27 -20 142 10 188
69 377 202 642 65 130 100 179 151 211 69 42 110 49 253 44 74 -3 214 -5 313
-5z m29218 -8 c75 -5 95 -10 98 -23 2 -10 -12 -22 -40 -35 -73 -33 -181 -108
-231 -163 -164 -176 -150 -454 32 -638 33 -33 97 -85 142 -116 l81 -56 -38 -8
c-22 -4 -848 -8 -1836 -8 l-1796 0 -26 24 c-15 14 -35 53 -46 90 -52 165 -179
261 -475 360 -193 64 -296 82 -495 88 -136 4 -196 1 -270 -11 -318 -56 -658
-251 -714 -411 -30 -86 -47 -113 -81 -129 -30 -14 -974 -16 -9614 -16 l-9582
0 -25 25 -25 25 3 354 c4 439 -13 400 190 450 36 9 77 16 91 16 51 0 52 -7 57
-379 l5 -347 31 -42 32 -43 33 52 33 52 5 346 c7 393 2 371 94 440 71 54 146
90 216 104 44 9 2866 11 12057 9 6599 -1 12042 -6 12094 -10z m-25329 -11 c24
-19 24 -22 21 -170 l-4 -151 24 0 c12 0 58 7 101 15 43 8 85 15 93 15 12 0 14
-52 14 -324 0 -178 -3 -337 -6 -354 -5 -24 -16 -36 -48 -52 -42 -20 -57 -20
-1215 -20 l-1172 0 -24 24 c-27 27 -30 36 -44 162 -16 130 -44 232 -96 341
-79 168 -175 278 -373 427 -57 43 -102 80 -100 82 18 18 283 22 1459 23 1312
1 1347 1 1370 -18z m31814 -5 c49 -50 42 -189 -17 -306 -39 -75 -75 -104 -156
-121 -143 -29 -306 12 -380 97 -33 38 -121 172 -183 280 -42 75 -49 74 358 74
l354 0 24 -24z m-5680 -16 c139 -67 276 -275 315 -478 8 -40 11 -107 7 -185
-8 -183 -42 -269 -122 -311 -35 -18 -58 -21 -176 -21 -131 0 -137 1 -194 30
-74 38 -132 108 -203 242 -103 197 -126 391 -72 586 13 43 60 102 101 123 97
50 257 56 344 14z m-29192 -505 c131 -45 257 -141 343 -261 44 -62 94 -167
108 -227 l7 -28 -273 3 c-304 3 -316 6 -348 68 -10 20 -26 79 -36 131 -9 52
-30 147 -45 211 -16 65 -29 120 -29 122 0 8 82 12 145 8 33 -2 91 -15 128 -27z
m-423 -4 c5 -11 21 -84 35 -163 13 -79 33 -185 43 -235 l19 -93 -299 0 -299 0
7 23 c14 47 98 205 140 263 110 155 316 275 354 205z m24224 -71 c100 -38 159
-103 272 -305 56 -98 61 -111 46 -120 -10 -6 -159 -11 -374 -13 -437 -4 -404
-17 -395 152 7 139 18 177 67 226 75 75 263 105 384 60z m322 -565 c21 -28 27
-78 22 -174 -6 -103 -29 -162 -80 -207 -54 -47 -98 -59 -223 -59 -104 0 -114
2 -176 32 -117 58 -205 173 -275 360 l-24 63 213 2 c463 6 528 4 543 -17z
m-25277 -9 c10 -9 33 -47 51 -84 98 -202 246 -345 437 -426 67 -28 103 -32
134 -15 27 14 23 18 -130 143 -166 135 -236 227 -256 337 -6 34 -5 37 27 50
45 18 488 26 528 9 59 -24 76 -57 109 -200 34 -151 106 -510 116 -581 8 -51
-11 -101 -43 -118 -76 -41 -476 -39 -652 2 -253 60 -487 193 -633 360 -83 94
-141 191 -228 379 l-79 171 300 -5 c266 -4 302 -6 319 -22z m1620 -2 c30 -25
31 -28 31 -112 0 -106 -19 -190 -65 -288 -50 -110 -116 -203 -195 -277 -58
-56 -160 -127 -181 -127 -19 0 -49 115 -110 423 -38 192 -69 353 -69 358 0 5
9 18 20 29 19 19 33 20 279 20 l259 0 31 -26z m17104 19 c185 -7 198 -17 94
-71 -161 -83 -279 -231 -308 -386 -33 -180 84 -389 294 -524 56 -36 75 -52 65
-58 -7 -5 -834 -10 -1837 -12 -1602 -2 -1827 -1 -1847 12 -12 9 -32 40 -43 71
-34 92 -60 136 -114 192 -86 91 -193 149 -387 211 -410 130 -806 103 -1187
-83 -144 -71 -237 -153 -277 -247 -45 -105 -50 -112 -96 -135 l-44 -23 -5866
1 c-3226 0 -5885 4 -5910 7 -78 12 -65 29 102 140 229 152 356 273 452 431 56
93 109 240 129 360 11 65 20 89 37 103 21 17 343 18 8304 18 4554 0 8352 -3
8439 -7z m885 -39 c69 -34 138 -105 184 -191 20 -38 66 -155 102 -261 60 -178
64 -193 47 -202 -13 -7 -20 -25 -24 -69 -10 -113 -74 -216 -164 -261 -41 -21
-62 -25 -138 -25 -81 0 -97 4 -163 35 -50 23 -87 49 -115 80 -65 73 -136 199
-175 312 -34 98 -36 110 -37 233 0 139 17 221 57 277 69 98 295 136 426 72z
m-5431 -569 c70 -21 139 -70 193 -137 56 -69 140 -226 140 -260 0 -53 -5 -53
-379 -50 -420 3 -385 -12 -379 163 5 144 27 197 100 242 88 55 224 72 325 42z
m-5360 -587 c102 -38 191 -125 248 -243 73 -151 127 -501 95 -617 -29 -102
-136 -158 -306 -158 -92 0 -143 15 -210 60 -177 123 -313 498 -260 723 19 82
36 116 83 168 85 94 213 119 350 67z m5709 1 c70 -65 14 -330 -82 -389 -18
-12 -66 -28 -106 -36 -136 -29 -285 11 -370 99 -24 24 -78 105 -121 180 -68
120 -76 140 -66 159 l11 21 356 -6 c346 -6 355 -7 378 -28z"/>
<path d="M36866 1643 c-3 -3 -6 -296 -6 -650 0 -608 1 -643 18 -643 31 0 333
20 467 31 169 13 220 28 267 76 51 53 69 108 75 238 7 144 -10 207 -72 274
-24 26 -67 58 -94 71 l-50 23 49 44 c68 61 94 119 95 213 0 103 -19 164 -69
216 -56 58 -106 70 -371 89 -121 8 -239 17 -261 20 -23 2 -44 1 -48 -2z m309
-178 c223 -17 294 -65 265 -177 -16 -59 -55 -107 -104 -129 -35 -15 -236 -49
-292 -49 -12 0 -14 27 -14 160 0 174 8 213 44 205 12 -2 57 -7 101 -10z m145
-536 c153 -18 190 -56 190 -194 0 -88 -15 -131 -59 -168 -47 -39 -90 -47 -263
-47 l-158 0 0 216 0 217 103 -7 c56 -4 140 -11 187 -17z"/>
<path d="M10014 1630 c-12 -5 -25 -14 -29 -20 -8 -13 -7 -1193 1 -1214 12 -32
51 -36 237 -26 222 12 292 18 379 31 89 14 148 52 179 115 l24 49 0 440 0 440
-23 48 c-45 89 -105 108 -407 126 -312 20 -340 20 -361 11z m483 -161 c66 -13
97 -38 120 -97 16 -42 18 -82 18 -394 0 -336 -1 -347 -21 -375 -51 -69 -95
-82 -307 -86 -175 -3 -159 -52 -154 492 3 245 6 447 6 449 1 2 16 9 34 17 35
16 205 13 304 -6z"/>
<path d="M15375 1616 l-26 -26 3 -577 c3 -554 4 -579 23 -611 l19 -32 303 0
302 0 26 37 c32 48 32 54 -7 84 -32 23 -41 24 -225 29 -174 5 -194 7 -220 26
-39 29 -52 74 -52 184 0 109 11 186 28 203 8 8 70 14 186 17 l175 5 47 48 48
48 -25 19 c-55 43 -84 50 -203 50 -141 0 -216 13 -239 41 -14 17 -18 39 -18
103 1 112 13 166 43 192 23 20 38 22 211 26 l187 4 37 37 37 37 -38 38 -37 37
-280 3 -279 4 -26 -26z"/>
<path d="M47625 1615 l-25 -24 0 -580 c0 -355 4 -590 10 -606 5 -14 20 -29 33
-34 39 -15 541 18 636 41 57 14 125 79 140 133 7 26 11 187 11 463 0 465 0
465 -62 529 -35 36 -94 58 -178 67 -44 5 -504 36 -533 36 -4 0 -19 -11 -32
-25z m508 -155 c38 -10 55 -22 78 -53 16 -22 34 -58 40 -79 6 -25 9 -162 7
-373 -3 -319 -4 -335 -24 -362 -36 -50 -79 -63 -243 -74 -121 -9 -155 -8 -178
3 l-28 13 -3 443 c-2 390 0 446 14 474 l16 31 136 -6 c76 -2 159 -10 185 -17z"/>
<path d="M20542 1003 l3 -628 83 -3 82 -3 0 291 0 290 255 0 255 0 0 85 0 85
-250 0 -250 0 0 179 0 179 248 4 c136 2 255 8 264 12 26 12 28 31 12 86 l-15
50 -344 0 -345 0 2 -627z"/>
<path d="M26340 1614 c-97 -21 -166 -59 -198 -107 l-27 -41 -3 -454 c-3 -447
-2 -455 19 -499 26 -53 73 -87 157 -113 257 -80 545 -21 618 127 16 33 19 69
22 261 l4 222 -210 0 -210 0 -7 -38 c-8 -50 8 -90 41 -103 15 -5 65 -13 112
-17 84 -7 86 -7 94 -37 5 -16 6 -57 3 -90 -15 -144 -85 -215 -213 -215 -85 0
-151 23 -194 67 -69 70 -71 82 -71 418 1 215 4 312 13 343 54 176 285 206 423
53 20 -22 43 -53 51 -70 20 -38 62 -71 91 -71 33 0 73 52 80 103 26 170 -139
279 -419 276 -61 -1 -140 -7 -176 -15z"/>
<path d="M31755 1621 c-36 -15 -55 -46 -80 -132 -56 -185 -315 -1088 -315
-1098 0 -15 74 -33 105 -25 40 10 71 57 104 159 39 123 52 140 106 154 94 24
270 7 291 -27 6 -9 26 -64 44 -122 48 -151 97 -194 184 -160 17 6 26 17 26 31
0 35 -311 1143 -331 1181 -20 38 -88 57 -134 39z m105 -497 c33 -126 63 -237
66 -246 5 -17 -6 -18 -136 -18 -110 0 -141 3 -137 13 2 6 35 119 73 249 37
131 69 236 71 234 1 -1 30 -105 63 -232z"/>
<path d="M42284 1616 c-135 -31 -206 -80 -235 -163 -19 -53 -20 -848 -1 -910
17 -55 57 -102 107 -124 106 -47 491 -44 584 4 122 62 180 257 104 347 -32 39
-72 40 -114 2 -26 -23 -33 -39 -40 -86 -16 -118 -89 -169 -246 -168 -122 1
-177 25 -210 92 -22 43 -23 52 -23 375 0 326 0 331 24 380 41 87 102 125 204
125 109 0 199 -65 248 -179 69 -159 215 -98 183 75 -20 106 -88 178 -202 214
-92 28 -291 37 -383 16z"/>
<path d="M21545 1208 c-4 -11 -35 -209 -35 -223 0 -3 -27 -5 -60 -5 l-60 0 0
-40 0 -40 56 0 c53 0 56 -1 51 -22 -3 -13 -9 -53 -12 -90 l-7 -68 -59 0 -59 0
0 -40 0 -40 50 0 c58 0 56 9 35 -135 -8 -55 -15 -103 -15 -107 0 -5 18 -8 39
-8 45 0 43 -6 62 153 l11 97 64 0 c35 0 64 -3 64 -7 0 -5 -7 -53 -15 -108 -21
-141 -22 -135 24 -135 l38 0 12 93 c21 171 14 157 82 157 l59 0 0 40 0 40 -56
0 c-48 0 -55 2 -50 18 3 9 8 50 12 90 l7 72 59 0 59 0 -3 38 c-3 37 -3 37 -50
40 -55 4 -53 -6 -34 135 7 53 10 99 8 102 -3 3 -20 5 -38 5 -37 0 -35 4 -55
-147 l-12 -93 -63 0 c-35 0 -64 3 -64 8 0 4 7 52 15 107 19 133 20 125 -20
125 -20 0 -38 -6 -40 -12z m151 -380 c-11 -111 -8 -108 -78 -108 l-61 0 7 73
c11 110 8 107 78 107 l61 0 -7 -72z"/>
<path d="M43226 1203 c-2 -10 -10 -64 -17 -120 l-12 -102 -61 -3 -61 -3 -3
-37 -3 -38 57 0 56 0 -7 -67 c-11 -115 -9 -112 -73 -115 l-57 -3 -3 -37 -3
-38 56 0 56 0 -6 -32 c-10 -62 -25 -173 -25 -195 0 -20 5 -23 39 -23 l38 0 12
108 c17 151 12 142 82 142 57 0 59 -1 59 -26 0 -22 -13 -121 -25 -196 -4 -27
-3 -28 35 -28 22 0 40 1 41 3 0 1 8 56 17 122 l17 120 63 3 63 3 -3 37 -3 37
-54 3 -53 3 6 57 c16 130 10 122 78 122 l59 0 -3 38 -3 37 -52 3 c-51 3 -52 4
-48 30 12 71 25 173 25 192 0 18 -5 21 -37 18 l-38 -3 -17 -115 c-9 -63 -17
-116 -17 -117 -1 -2 -29 -3 -62 -3 l-62 0 7 58 c3 31 9 85 13 120 l6 62 -36 0
c-25 0 -37 -5 -41 -17z m161 -340 c-3 -21 -9 -62 -13 -90 l-7 -53 -64 0 -65 0
5 33 c3 17 9 58 13 90 l6 57 65 0 66 0 -6 -37z"/>
</g>
</svg>
