<?xml version="1.0" encoding="utf-8"?>
<!-- Generator: Adobe Illustrator 25.0.0, SVG Export Plug-In . SVG Version: 6.00 Build 0)  -->
<svg version="1.1" id="Layer_1" xmlns="http://www.w3.org/2000/svg" xmlns:xlink="http://www.w3.org/1999/xlink" x="0px" y="0px"
	 viewBox="0 0 641 172" style="enable-background:new 0 0 641 172;" xml:space="preserve">
<style type="text/css">
	.st0{fill:none;stroke:#000000;stroke-width:0.5;stroke-miterlimit:10;}
	.st1{fill:none;stroke:#7C287D;stroke-width:1.5;stroke-miterlimit:10;}
	.st2{fill:none;stroke:#67BF75;stroke-miterlimit:10;}
	.st3{fill:#7B7B7B;}
</style>
<line id="XMLID_1_" class="st0" x1="0" y1="40.5" x2="641" y2="40.5"/>
<line id="XMLID_123_" class="st0" x1="-0.2" y1="20.3" x2="640.8" y2="20.3"/>
<line id="XMLID_3_" class="st0" x1="0" y1="60.8" x2="641" y2="60.8"/>
<line id="XMLID_4_" class="st0" x1="0" y1="81.2" x2="641" y2="81.2"/>
<line id="XMLID_5_" class="st0" x1="0" y1="101.5" x2="641" y2="101.5"/>
<circle id="XMLID_16_" class="st1" cx="155" cy="100.7" r="10.2"/>
<circle id="XMLID_12_" class="st1" cx="123" cy="111.8" r="10.2"/>
<circle id="XMLID_19_" class="st1" cx="186.9" cy="91.3" r="10.2"/>
<circle id="XMLID_22_" class="st1" cx="218.8" cy="80.3" r="10.2"/>
<circle id="XMLID_25_" class="st1" cx="250.7" cy="70.7" r="10.2"/>
<circle id="XMLID_28_" class="st1" cx="282.7" cy="60.4" r="10.2"/>
<circle id="XMLID_31_" class="st1" cx="314.6" cy="51.5" r="10.2"/>
<circle id="XMLID_58_" class="st1" cx="423.7" cy="51.5" r="10.2"/>
<circle id="XMLID_52_" class="st1" cx="455.7" cy="60.4" r="10.2"/>
<circle id="XMLID_49_" class="st1" cx="487.6" cy="70.7" r="10.2"/>
<circle id="XMLID_46_" class="st1" cx="519.5" cy="80.3" r="10.2"/>
<circle id="XMLID_43_" class="st1" cx="551.5" cy="91.3" r="10.2"/>
<circle id="XMLID_40_" class="st1" cx="583.4" cy="100.7" r="10.2"/>
<circle id="XMLID_37_" class="st1" cx="615.3" cy="111.8" r="10.2"/>
<g id="XMLID_3199_">
	<path id="XMLID_3200_" d="M119.2,107.2c0.8-0.1,1.7-0.2,2.8-0.2c1.9,0,3.2,0.5,4.1,1.3c0.9,0.8,1.4,2,1.4,3.6c0,1.6-0.5,3-1.5,3.9
		c-1,0.9-2.5,1.5-4.5,1.5c-0.9,0-1.7,0-2.4-0.1V107.2z M120.5,116.1c0.3,0,0.8,0.1,1.3,0.1c2.8,0,4.3-1.6,4.3-4.3
		c0-2.4-1.3-3.9-4.1-3.9c-0.7,0-1.2,0.1-1.5,0.1V116.1z"/>
</g>
<g id="XMLID_3195_">
	<path id="XMLID_3196_" d="M612.3,107.2c0.8-0.1,1.7-0.2,2.8-0.2c1.9,0,3.2,0.5,4.1,1.3c0.9,0.8,1.4,2,1.4,3.6c0,1.6-0.5,3-1.5,3.9
		c-1,0.9-2.5,1.5-4.5,1.5c-0.9,0-1.7,0-2.4-0.1V107.2z M613.6,116.1c0.3,0,0.8,0.1,1.3,0.1c2.8,0,4.3-1.6,4.3-4.3
		c0-2.4-1.3-3.9-4.1-3.9c-0.7,0-1.2,0.1-1.5,0.1V116.1z"/>
</g>
<g id="XMLID_3192_">
	<path id="XMLID_3193_" d="M157.1,101.4h-3.9v3.6h4.4v1.1h-5.7V96h5.5v1.1h-4.2v3.2h3.9V101.4z"/>
</g>
<g id="XMLID_3189_">
	<path id="XMLID_3190_" d="M586.2,101.4h-3.9v3.6h4.4v1.1H581V96h5.5v1.1h-4.2v3.2h3.9V101.4z"/>
</g>
<g id="XMLID_3186_">
	<path id="XMLID_3187_" d="M182.6,86h5.4v1.1h-4.1v3.4h3.8v1.1h-3.8v4.6h-1.3V86z"/>
</g>
<g id="XMLID_3183_">
	<path id="XMLID_3184_" d="M547,86h5.4v1.1h-4.1v3.4h3.8v1.1h-3.8v4.6H547V86z"/>
</g>
<g id="XMLID_3180_">
	<path id="XMLID_3181_" d="M222.6,84.5c-0.6,0.2-1.8,0.6-3.1,0.6c-1.5,0-2.8-0.4-3.8-1.3c-0.9-0.8-1.4-2.2-1.4-3.8
		c0-3,2.1-5.2,5.5-5.2c1.2,0,2.1,0.3,2.5,0.5l-0.3,1.1c-0.5-0.3-1.2-0.4-2.2-0.4c-2.5,0-4.1,1.5-4.1,4.1c0,2.6,1.5,4.1,3.9,4.1
		c0.9,0,1.4-0.1,1.7-0.3v-3h-2v-1h3.3V84.5z"/>
</g>
<g id="XMLID_3177_">
	<path id="XMLID_3178_" d="M522.6,84.5c-0.6,0.2-1.8,0.6-3.1,0.6c-1.5,0-2.8-0.4-3.8-1.3c-0.9-0.8-1.4-2.2-1.4-3.8
		c0-3,2.1-5.2,5.5-5.2c1.2,0,2.1,0.3,2.5,0.5l-0.3,1.1c-0.5-0.3-1.2-0.4-2.2-0.4c-2.5,0-4.1,1.5-4.1,4.1c0,2.6,1.5,4.1,3.9,4.1
		c0.9,0,1.4-0.1,1.7-0.3v-3h-2v-1h3.3V84.5z"/>
</g>
<line id="XMLID_83_" class="st0" x1="333.8" y1="40.6" x2="358.1" y2="40.6"/>
<line id="XMLID_82_" class="st0" x1="379.7" y1="40.6" x2="403.9" y2="40.6"/>
<g id="XMLID_3173_">
	<path id="XMLID_3174_" d="M249.1,71.6l-1,3.2h-1.4l3.4-10.1h1.6l3.4,10.1h-1.4l-1.1-3.2H249.1z M252.4,70.6l-1-2.9
		c-0.2-0.7-0.4-1.3-0.5-1.8h0c-0.1,0.6-0.3,1.2-0.5,1.8l-1,2.9H252.4z"/>
</g>
<circle id="XMLID_34_" class="st1" cx="346.5" cy="39.7" r="10.2"/>
<circle id="XMLID_55_" class="st1" cx="391.8" cy="39.7" r="10.2"/>
<g id="XMLID_3169_">
	<path id="XMLID_3170_" d="M485.6,71.6l-1,3.2h-1.4l3.5-10.1h1.6l3.5,10.1h-1.4l-1.1-3.2H485.6z M488.9,70.6l-1-2.9
		c-0.2-0.7-0.4-1.3-0.5-1.8h0c-0.1,0.6-0.3,1.2-0.5,1.8l-1,2.9H488.9z"/>
</g>
<g id="XMLID_3164_">
	<path id="XMLID_3165_" d="M280.1,55.5c0.6-0.1,1.5-0.2,2.4-0.2c1.3,0,2.1,0.2,2.8,0.7c0.5,0.4,0.9,1,0.9,1.8c0,1-0.7,1.8-1.7,2.2v0
		c1,0.2,2.1,1,2.1,2.5c0,0.9-0.3,1.5-0.9,2c-0.7,0.6-1.8,0.9-3.5,0.9c-0.9,0-1.6-0.1-2-0.1V55.5z M281.4,59.7h1.2
		c1.4,0,2.2-0.7,2.2-1.7c0-1.2-0.9-1.6-2.2-1.6c-0.6,0-0.9,0-1.2,0.1V59.7z M281.4,64.5c0.3,0,0.6,0.1,1.1,0.1c1.3,0,2.6-0.5,2.6-2
		c0-1.4-1.2-1.9-2.6-1.9h-1.1V64.5z"/>
</g>
<g id="XMLID_3159_">
	<path id="XMLID_3160_" d="M453.2,55.5c0.6-0.1,1.5-0.2,2.4-0.2c1.3,0,2.1,0.2,2.8,0.7c0.5,0.4,0.9,1,0.9,1.8c0,1-0.7,1.8-1.7,2.2v0
		c1,0.2,2.1,1,2.1,2.5c0,0.9-0.3,1.5-0.9,2c-0.7,0.6-1.8,0.9-3.5,0.9c-0.9,0-1.6-0.1-2-0.1V55.5z M454.5,59.7h1.2
		c1.4,0,2.2-0.7,2.2-1.7c0-1.2-0.9-1.6-2.2-1.6c-0.6,0-0.9,0-1.2,0.1V59.7z M454.5,64.5c0.3,0,0.6,0.1,1.1,0.1c1.3,0,2.6-0.5,2.6-2
		c0-1.4-1.2-1.9-2.6-1.9h-1.1V64.5z"/>
</g>
<g id="XMLID_3156_">
	<path id="XMLID_3157_" d="M316.6,56.8c-0.5,0.2-1.4,0.5-2.7,0.5c-2.8,0-5-1.8-5-5.1c0-3.2,2.1-5.3,5.3-5.3c1.2,0,2.1,0.3,2.4,0.4
		l-0.3,1.1c-0.5-0.2-1.2-0.4-2-0.4c-2.4,0-3.9,1.5-3.9,4.2c0,2.5,1.4,4.1,3.9,4.1c0.8,0,1.6-0.2,2.1-0.4L316.6,56.8z"/>
</g>
<g id="XMLID_3153_">
	<path id="XMLID_3154_" d="M425.4,55.8c-0.5,0.2-1.4,0.5-2.7,0.5c-2.8,0-5-1.8-5-5.1c0-3.2,2.1-5.3,5.3-5.3c1.2,0,2.1,0.3,2.4,0.4
		l-0.3,1.1c-0.5-0.2-1.2-0.4-2-0.4c-2.4,0-3.9,1.5-3.9,4.2c0,2.5,1.4,4.1,3.9,4.1c0.8,0,1.6-0.2,2.1-0.4L425.4,55.8z"/>
</g>
<g id="XMLID_3149_">
	<path id="XMLID_3150_" d="M342.8,35.1c0.8-0.1,1.7-0.2,2.8-0.2c1.9,0,3.2,0.5,4.1,1.3c0.9,0.8,1.4,2,1.4,3.6c0,1.6-0.5,3-1.5,3.9
		c-1,0.9-2.5,1.5-4.5,1.5c-0.9,0-1.7,0-2.4-0.1V35.1z M344.1,44c0.3,0,0.8,0.1,1.3,0.1c2.8,0,4.3-1.6,4.3-4.3c0-2.4-1.3-3.9-4.1-3.9
		c-0.7,0-1.2,0.1-1.5,0.1V44z"/>
</g>
<g id="XMLID_3145_">
	<path id="XMLID_3146_" d="M388.2,35.1c0.8-0.1,1.7-0.2,2.8-0.2c1.9,0,3.2,0.5,4.1,1.3c0.9,0.8,1.4,2,1.4,3.6c0,1.6-0.5,3-1.5,3.9
		c-1,0.9-2.5,1.5-4.5,1.5c-0.9,0-1.7,0-2.4-0.1V35.1z M389.5,44c0.3,0,0.8,0.1,1.3,0.1c2.8,0,4.3-1.6,4.3-4.3c0-2.4-1.3-3.9-4.1-3.9
		c-0.7,0-1.2,0.1-1.5,0.1V44z"/>
</g>
<g id="XMLID_9_">
	<path id="XMLID_173_" d="M35.5,101.3c-2.1,0.7-4.3,1-6.5,1.1c-5.8,0.1-11.2-1.5-15.8-5c-4.9-3.7-7.5-8.7-8.7-14.6
		c-1.1-5.7,0-11.1,2.4-16.3c2.1-4.5,5-8.5,8.2-12.2c0.7-0.8,1.4-1.5,2.1-2.3c0.3-0.3,0.3-0.5,0.2-0.9c-0.8-2.8-1.8-5.5-2.4-8.3
		c-1.3-5.6-1.5-11.3,0.3-16.9c2.1-6.4,6-11.2,12.5-13.5c0.8-0.3,1.6-0.5,2.4-0.6c1.7-0.1,3.2,0.6,4.5,1.6c2.7,2.1,4,5,4.2,8.3
		c0.3,5.1-1.4,9.7-3.8,14.2c-2.3,4.3-5.4,8.2-8.6,11.9c-1.1,1.3-2.1,2.5-3.2,3.7c-0.3,0.4-0.1,0.6,0,0.9c2,3.9,3.9,7.8,5.9,11.6
		c1-0.2,2-0.5,3.1-0.7c3.1-0.6,6.1,0,8.9,1.4c5.5,2.9,8.8,7.5,9.8,13.7c0.8,5-0.6,9.6-3.4,13.7c-1.8,2.7-4.1,4.9-6.8,6.6
		c-0.4,0.3-0.5,0.5-0.4,1c0.5,3.1,1.1,6.1,1.6,9.2c0.5,3.4,0.7,6.8-0.4,10.1c-1.4,4.5-4.6,7.1-9,8.3c-5.7,1.5-10.9,0.3-15.5-3.2
		c-3.9-2.9-6.5-6.6-7.6-11.4c-0.1-0.6-0.2-1.3-0.3-1.9c0-0.3,0-0.6,0-0.9c1.3,6.7,5,11.5,11.1,14.3c4.3,2,8.7,2.1,13-0.1
		c3.3-1.7,5-4.5,5.1-8.2c0.1-3.3-0.8-6.4-1.5-9.6c-0.4-1.5-0.8-2.9-1.2-4.4C35.7,101.7,35.6,101.5,35.5,101.3z M34,96
		c-2.5-9.1-6.5-17.6-9.3-26.6c-2.5,2.7-3.5,5.7-2.7,9.1c1,4.3,3.6,7.2,7.9,8.4c-0.3,0-0.5,0-0.8-0.1c-4.8-1.1-8.4-5.9-8.5-10.9
		c0-2.9,1-5.4,2.9-7.5c0.4-0.4,0.4-0.7,0.2-1.2c-0.6-1.6-1.2-3.1-1.9-4.7c-0.8-2-1.6-3.9-2.5-6c-0.8,1.1-1.6,2.1-2.3,3.1
		c-2.4,3.4-4.5,7.1-5.8,11.1c-1,3.3-1.3,6.6-0.7,10c0.8,4,2.9,7.4,5.7,10.3C21.2,95.8,27.2,97.2,34,96z M21.3,47.8
		c1.5-1.5,2.9-3,4.2-4.4c2.7-2.9,5.3-5.9,7.4-9.3c2.2-3.6,3.9-7.3,4.1-11.6c0.1-3.2-0.8-6-3.3-8.1c-1.4-1.2-2.9-1.8-4.9-1
		c-4.2,1.8-7.2,4.7-9.2,8.8c-2,4.2-2.4,8.6-1.9,13.1C18.2,39.6,19.5,43.7,21.3,47.8z M39.3,93.7c2.7-1.8,4.7-3.9,6.2-6.6
		c1.5-2.8,2.2-5.7,1.8-8.9c-0.4-3.3-1.9-6.2-4.2-8.6c-2.8-2.9-6.1-4.4-10.2-4.1c-0.9,0.1-1.7,0.3-2.8,0.5
		C34.8,74.8,37,84.2,39.3,93.7z"/>
</g>
<g id="XMLID_84_">
	<path id="XMLID_106_" d="M54.4,36.3c-0.4,0.1-0.9,0.1-1.4,0.2c0-2.2,0-4.5,0-6.7c-1.6,0.5-3.1,0.9-4.7,1.3c0-1.3,0-2.6,0-3.9
		c0-0.1,0.2-0.3,0.4-0.3c1.2-0.4,2.5-0.7,3.7-1.1c0.2,0,0.3-0.1,0.5-0.2c0-2.1,0-4.2,0-6.3c-1.6,0.4-3.1,0.9-4.6,1.3
		c0-1.4,0-2.7,0-4.1c0.6-0.2,1.3-0.4,1.9-0.6c0.8-0.2,1.5-0.5,2.3-0.6c0.4-0.1,0.5-0.3,0.5-0.6c0-1.8,0-3.7,0-5.5c0-0.2,0-0.4,0-0.7
		c0.5-0.1,0.9-0.1,1.4-0.2c0,2.1,0,4.2,0,6.4c0.8-0.2,1.5-0.4,2.2-0.6c0.8-0.2,1.7-0.5,2.5-0.7c0.3-0.1,0.4-0.2,0.4-0.6
		c0-1.9,0-3.7,0-5.6c0-0.5,0.1-0.8,0.7-0.7c0.2,0,0.4-0.1,0.7-0.1c0,2.2,0,4.3,0,6.5c1.6-0.4,3.1-0.9,4.7-1.3c0,1.4,0,2.6,0,3.9
		c0,0.1-0.3,0.3-0.4,0.3c-1.4,0.4-2.8,0.8-4.2,1.2c0,2.1,0,4.2,0,6.3c1.5-0.4,3-0.9,4.6-1.3c0,1.4,0,2.7,0,4.1
		c-1.3,0.4-2.7,0.8-4,1.1c-0.5,0.1-0.6,0.3-0.6,0.8c0,2.1,0,4.1,0,6.3c-0.5,0.1-0.9,0.1-1.4,0.2c0-2.2,0-4.4,0-6.7
		c-1.1,0.3-2.2,0.6-3.2,0.9c-0.2,0-0.4,0.1-0.5,0.2c-1.3,0.4-1.3,0.4-1.3,1.8c0,1.7,0,3.3,0,5C54.4,35.9,54.4,36.1,54.4,36.3z
		 M54.4,25.2c1.7-0.5,3.2-0.9,4.8-1.4c0.1,0,0.3-0.3,0.3-0.5c0-1.3,0-2.7,0-4c0-0.6,0-1.2,0-1.9c-1.6,0.4-3.1,0.9-4.6,1.3
		c-0.4,0.1-0.4,0.3-0.4,0.6c0,1.6,0,3.3,0,4.9C54.4,24.6,54.4,24.9,54.4,25.2z"/>
</g>
<g id="XMLID_86_">
	<path id="XMLID_87_" d="M71.6,66.1c-0.4,0.1-0.9,0.1-1.4,0.2c0-2.2,0-4.5,0-6.7c-1.6,0.5-3.1,0.9-4.7,1.3c0-1.3,0-2.6,0-3.9
		c0-0.1,0.2-0.3,0.4-0.3c1.2-0.4,2.5-0.7,3.7-1.1c0.2,0,0.3-0.1,0.5-0.2c0-2.1,0-4.2,0-6.3c-1.6,0.4-3.1,0.9-4.6,1.3
		c0-1.4,0-2.7,0-4.1c0.6-0.2,1.3-0.4,1.9-0.6c0.8-0.2,1.5-0.5,2.3-0.6c0.4-0.1,0.5-0.3,0.5-0.6c0-1.8,0-3.7,0-5.5c0-0.2,0-0.4,0-0.7
		c0.5-0.1,0.9-0.1,1.4-0.2c0,2.1,0,4.2,0,6.4c0.8-0.2,1.5-0.4,2.2-0.6c0.8-0.2,1.7-0.5,2.5-0.7c0.3-0.1,0.4-0.2,0.4-0.6
		c0-1.9,0-3.7,0-5.6c0-0.5,0.1-0.8,0.7-0.7c0.2,0,0.4-0.1,0.7-0.1c0,2.2,0,4.3,0,6.5c1.6-0.4,3.1-0.9,4.7-1.3c0,1.4,0,2.6,0,3.9
		c0,0.1-0.3,0.3-0.4,0.3c-1.4,0.4-2.8,0.8-4.2,1.2c0,2.1,0,4.2,0,6.3c1.5-0.4,3-0.9,4.6-1.3c0,1.4,0,2.7,0,4.1
		c-1.3,0.4-2.7,0.8-4,1.1c-0.5,0.1-0.6,0.3-0.6,0.8c0,2.1,0,4.1,0,6.3c-0.5,0.1-0.9,0.1-1.4,0.2c0-2.2,0-4.4,0-6.7
		c-1.1,0.3-2.2,0.6-3.2,0.9c-0.2,0-0.4,0.1-0.5,0.2c-1.3,0.4-1.3,0.4-1.3,1.8c0,1.7,0,3.3,0,5C71.6,65.8,71.6,65.9,71.6,66.1z
		 M71.6,55.1c1.7-0.5,3.2-0.9,4.8-1.4c0.1,0,0.3-0.3,0.3-0.5c0-1.3,0-2.7,0-4c0-0.6,0-1.2,0-1.9c-1.6,0.4-3.1,0.9-4.6,1.3
		c-0.4,0.1-0.4,0.3-0.4,0.6c0,1.6,0,3.3,0,4.9C71.6,54.4,71.6,54.7,71.6,55.1z"/>
</g>
<g id="XMLID_17_">
	<path id="XMLID_18_" d="M189.6,95.4c-0.1,0-0.2,0-0.3,0c0-0.6,0-1.1,0-1.7c-0.4,0.1-0.8,0.2-1.2,0.3c0-0.3,0-0.7,0-1
		c0,0,0.1-0.1,0.1-0.1c0.3-0.1,0.6-0.2,0.9-0.3c0,0,0.1,0,0.1,0c0-0.5,0-1.1,0-1.6c-0.4,0.1-0.8,0.2-1.2,0.3c0-0.4,0-0.7,0-1
		c0.2,0,0.3-0.1,0.5-0.1c0.2-0.1,0.4-0.1,0.6-0.2c0.1,0,0.1-0.1,0.1-0.2c0-0.5,0-0.9,0-1.4c0-0.1,0-0.1,0-0.2c0.1,0,0.2,0,0.4,0
		c0,0.5,0,1.1,0,1.6c0.2-0.1,0.4-0.1,0.5-0.2c0.2-0.1,0.4-0.1,0.6-0.2c0.1,0,0.1-0.1,0.1-0.1c0-0.5,0-0.9,0-1.4c0-0.1,0-0.2,0.2-0.2
		c0.1,0,0.1,0,0.2,0c0,0.5,0,1.1,0,1.6c0.4-0.1,0.8-0.2,1.2-0.3c0,0.3,0,0.7,0,1c0,0-0.1,0.1-0.1,0.1c-0.3,0.1-0.7,0.2-1.1,0.3
		c0,0.5,0,1.1,0,1.6c0.4-0.1,0.8-0.2,1.2-0.3c0,0.4,0,0.7,0,1c-0.3,0.1-0.7,0.2-1,0.3c-0.1,0-0.2,0.1-0.2,0.2c0,0.5,0,1,0,1.6
		c-0.1,0-0.2,0-0.4,0.1c0-0.6,0-1.1,0-1.7c-0.3,0.1-0.6,0.2-0.8,0.2c0,0-0.1,0-0.1,0c-0.3,0.1-0.3,0.1-0.3,0.5c0,0.4,0,0.8,0,1.3
		C189.6,95.3,189.6,95.4,189.6,95.4z M189.6,92.6c0.4-0.1,0.8-0.2,1.2-0.3c0,0,0.1-0.1,0.1-0.1c0-0.3,0-0.7,0-1c0-0.2,0-0.3,0-0.5
		c-0.4,0.1-0.8,0.2-1.2,0.3c-0.1,0-0.1,0.1-0.1,0.2c0,0.4,0,0.8,0,1.2C189.6,92.5,189.6,92.5,189.6,92.6z"/>
</g>
<g id="XMLID_2_">
	<path id="XMLID_10_" d="M317.5,55.8c-0.1,0-0.2,0-0.3,0c0-0.6,0-1.1,0-1.7c-0.4,0.1-0.8,0.2-1.2,0.3c0-0.3,0-0.7,0-1
		c0,0,0.1-0.1,0.1-0.1c0.3-0.1,0.6-0.2,0.9-0.3c0,0,0.1,0,0.1,0c0-0.5,0-1.1,0-1.6c-0.4,0.1-0.8,0.2-1.2,0.3c0-0.4,0-0.7,0-1
		c0.2,0,0.3-0.1,0.5-0.1c0.2-0.1,0.4-0.1,0.6-0.2c0.1,0,0.1-0.1,0.1-0.2c0-0.5,0-0.9,0-1.4c0-0.1,0-0.1,0-0.2c0.1,0,0.2,0,0.4,0
		c0,0.5,0,1.1,0,1.6c0.2-0.1,0.4-0.1,0.5-0.2c0.2-0.1,0.4-0.1,0.6-0.2c0.1,0,0.1-0.1,0.1-0.1c0-0.5,0-0.9,0-1.4c0-0.1,0-0.2,0.2-0.2
		c0.1,0,0.1,0,0.2,0c0,0.5,0,1.1,0,1.6c0.4-0.1,0.8-0.2,1.2-0.3c0,0.3,0,0.7,0,1c0,0-0.1,0.1-0.1,0.1c-0.3,0.1-0.7,0.2-1.1,0.3
		c0,0.5,0,1.1,0,1.6c0.4-0.1,0.8-0.2,1.2-0.3c0,0.4,0,0.7,0,1c-0.3,0.1-0.7,0.2-1,0.3c-0.1,0-0.2,0.1-0.2,0.2c0,0.5,0,1,0,1.6
		c-0.1,0-0.2,0-0.4,0.1c0-0.6,0-1.1,0-1.7c-0.3,0.1-0.6,0.2-0.8,0.2c0,0-0.1,0-0.1,0c-0.3,0.1-0.3,0.1-0.3,0.5c0,0.4,0,0.8,0,1.3
		C317.5,55.7,317.5,55.8,317.5,55.8z M317.5,53c0.4-0.1,0.8-0.2,1.2-0.3c0,0,0.1-0.1,0.1-0.1c0-0.3,0-0.7,0-1c0-0.2,0-0.3,0-0.5
		c-0.4,0.1-0.8,0.2-1.2,0.3c-0.1,0-0.1,0.1-0.1,0.2c0,0.4,0,0.8,0,1.2C317.5,52.8,317.5,52.9,317.5,53z"/>
</g>
<g id="XMLID_15_">
	<path id="XMLID_23_" d="M426.9,54.8c-0.1,0-0.2,0-0.3,0c0-0.6,0-1.1,0-1.7c-0.4,0.1-0.8,0.2-1.2,0.3c0-0.3,0-0.7,0-1
		c0,0,0.1-0.1,0.1-0.1c0.3-0.1,0.6-0.2,0.9-0.3c0,0,0.1,0,0.1,0c0-0.5,0-1.1,0-1.6c-0.4,0.1-0.8,0.2-1.2,0.3c0-0.4,0-0.7,0-1
		c0.2,0,0.3-0.1,0.5-0.1c0.2-0.1,0.4-0.1,0.6-0.2c0.1,0,0.1-0.1,0.1-0.2c0-0.5,0-0.9,0-1.4c0-0.1,0-0.1,0-0.2c0.1,0,0.2,0,0.4,0
		c0,0.5,0,1.1,0,1.6c0.2-0.1,0.4-0.1,0.5-0.2c0.2-0.1,0.4-0.1,0.6-0.2c0.1,0,0.1-0.1,0.1-0.1c0-0.5,0-0.9,0-1.4c0-0.1,0-0.2,0.2-0.2
		c0.1,0,0.1,0,0.2,0c0,0.5,0,1.1,0,1.6c0.4-0.1,0.8-0.2,1.2-0.3c0,0.3,0,0.7,0,1c0,0-0.1,0.1-0.1,0.1c-0.3,0.1-0.7,0.2-1.1,0.3
		c0,0.5,0,1.1,0,1.6c0.4-0.1,0.8-0.2,1.2-0.3c0,0.4,0,0.7,0,1c-0.3,0.1-0.7,0.2-1,0.3c-0.1,0-0.2,0.1-0.2,0.2c0,0.5,0,1,0,1.6
		c-0.1,0-0.2,0-0.4,0.1c0-0.6,0-1.1,0-1.7c-0.3,0.1-0.6,0.2-0.8,0.2c0,0-0.1,0-0.1,0c-0.3,0.1-0.3,0.1-0.3,0.5c0,0.4,0,0.8,0,1.3
		C426.9,54.7,426.9,54.8,426.9,54.8z M426.9,52c0.4-0.1,0.8-0.2,1.2-0.3c0,0,0.1-0.1,0.1-0.1c0-0.3,0-0.7,0-1c0-0.2,0-0.3,0-0.5
		c-0.4,0.1-0.8,0.2-1.2,0.3c-0.1,0-0.1,0.1-0.1,0.2c0,0.4,0,0.8,0,1.2C426.9,51.8,426.9,51.9,426.9,52z"/>
</g>
<g id="XMLID_27_">
	<path id="XMLID_29_" d="M554,94.8c-0.1,0-0.2,0-0.3,0c0-0.6,0-1.1,0-1.7c-0.4,0.1-0.8,0.2-1.2,0.3c0-0.3,0-0.7,0-1
		c0,0,0.1-0.1,0.1-0.1c0.3-0.1,0.6-0.2,0.9-0.3c0,0,0.1,0,0.1,0c0-0.5,0-1.1,0-1.6c-0.4,0.1-0.8,0.2-1.2,0.3c0-0.4,0-0.7,0-1
		c0.2,0,0.3-0.1,0.5-0.1c0.2-0.1,0.4-0.1,0.6-0.2c0.1,0,0.1-0.1,0.1-0.2c0-0.5,0-0.9,0-1.4c0-0.1,0-0.1,0-0.2c0.1,0,0.2,0,0.4,0
		c0,0.5,0,1.1,0,1.6c0.2-0.1,0.4-0.1,0.5-0.2c0.2-0.1,0.4-0.1,0.6-0.2c0.1,0,0.1-0.1,0.1-0.1c0-0.5,0-0.9,0-1.4c0-0.1,0-0.2,0.2-0.2
		c0.1,0,0.1,0,0.2,0c0,0.5,0,1.1,0,1.6c0.4-0.1,0.8-0.2,1.2-0.3c0,0.3,0,0.7,0,1c0,0-0.1,0.1-0.1,0.1c-0.3,0.1-0.7,0.2-1.1,0.3
		c0,0.5,0,1.1,0,1.6c0.4-0.1,0.8-0.2,1.2-0.3c0,0.4,0,0.7,0,1c-0.3,0.1-0.7,0.2-1,0.3c-0.1,0-0.2,0.1-0.2,0.2c0,0.5,0,1,0,1.6
		c-0.1,0-0.2,0-0.4,0.1c0-0.6,0-1.1,0-1.7c-0.3,0.1-0.6,0.2-0.8,0.2c0,0-0.1,0-0.1,0c-0.3,0.1-0.3,0.1-0.3,0.5c0,0.4,0,0.8,0,1.3
		C554,94.8,554,94.8,554,94.8z M554,92c0.4-0.1,0.8-0.2,1.2-0.3c0,0,0.1-0.1,0.1-0.1c0-0.3,0-0.7,0-1c0-0.2,0-0.3,0-0.5
		c-0.4,0.1-0.8,0.2-1.2,0.3c-0.1,0-0.1,0.1-0.1,0.2c0,0.4,0,0.8,0,1.2C554,91.9,554,92,554,92z"/>
</g>
</svg>
