<?xml version="1.0" standalone="no"?>
<!DOCTYPE svg PUBLIC "-//W3C//DTD SVG 20010904//EN"
 "http://www.w3.org/TR/2001/REC-SVG-20010904/DTD/svg10.dtd">
<svg version="1.0" xmlns="http://www.w3.org/2000/svg"
 width="5321.000000pt" height="1195.000000pt" viewBox="0 0 5321.000000 1195.000000"
 preserveAspectRatio="xMidYMid meet">

<g transform="translate(0.000000,1195.000000) scale(0.100000,-0.100000)"
fill="#000000" stroke="none">
<path d="M2478 9743 c-288 -298 -458 -689 -522 -1203 -13 -98 -35 -442 -36
-542 0 -17 -52 -18 -955 -18 l-955 0 -6 -26 c-16 -64 -9 -64 1020 -64 l915 0
6 -37 c3 -21 15 -83 27 -138 32 -155 34 -199 9 -239 -12 -19 -36 -45 -54 -59
-17 -13 -106 -92 -196 -176 -109 -100 -184 -161 -220 -179 l-56 -27 -722 -5
c-397 -3 -724 -7 -726 -10 -3 -3 -3 -17 0 -32 l5 -28 684 0 c376 0 684 -2 684
-5 0 -7 -338 -547 -450 -718 -63 -98 -88 -128 -112 -136 -20 -7 -149 -11 -357
-11 -263 0 -338 -3 -386 -16 -70 -18 -79 -25 -70 -53 6 -21 9 -21 381 -21
l374 0 0 -430 0 -430 -329 0 c-278 0 -337 -3 -380 -17 -52 -16 -61 -31 -41
-63 8 -13 61 -15 372 -15 352 0 364 -1 403 -22 56 -30 98 -77 135 -153 42 -85
264 -308 395 -397 165 -111 362 -203 570 -264 l80 -24 -980 -5 -980 -5 -3 -26
c-3 -25 0 -26 67 -37 50 -9 428 -12 1345 -12 701 0 1282 -3 1291 -6 23 -9 41
-50 55 -129 7 -38 28 -142 47 -230 69 -314 43 -481 -105 -658 -97 -117 -279
-233 -427 -272 -87 -22 -238 -30 -320 -16 -75 13 -191 60 -178 71 4 4 35 17
68 30 161 62 265 140 318 238 30 56 57 150 57 202 0 162 -135 373 -285 446
-55 26 -69 29 -165 29 -100 0 -109 -2 -181 -36 -175 -84 -270 -245 -271 -459
-1 -300 168 -509 487 -606 79 -24 107 -27 230 -27 111 -1 155 4 215 20 338 93
569 274 654 510 32 90 49 224 41 317 -6 61 -86 497 -101 549 -5 16 73 17 1535
17 l1541 0 0 -550 c0 -314 4 -550 9 -550 14 0 516 377 609 457 112 97 168 164
210 253 33 67 37 85 40 170 3 74 -1 109 -16 158 l-20 62 306 0 305 0 -74 -52
c-100 -70 -173 -148 -211 -226 -28 -56 -33 -76 -33 -141 0 -66 4 -85 33 -143
38 -79 123 -167 206 -217 288 -172 888 -186 1227 -29 227 106 340 282 295 459
-23 87 -71 156 -162 231 -42 35 -91 75 -108 90 l-31 27 1677 1 1678 0 2 -331
3 -330 270 222 c149 122 316 262 372 311 137 119 169 133 305 133 131 0 146
-9 201 -118 70 -138 190 -228 383 -285 283 -84 594 -88 874 -11 205 57 336
149 424 297 27 45 50 70 84 90 l47 27 19193 3 19192 2 0 50 0 50 -16632 2
-16631 3 61 38 c75 46 166 129 198 178 37 59 57 144 52 218 -9 128 -71 213
-231 322 -51 34 -96 66 -102 71 -5 4 752 8 1683 8 l1692 0 0 -293 c0 -274 1
-295 19 -311 17 -16 30 -7 281 199 467 382 466 381 653 406 89 11 97 11 128
-7 20 -12 57 -55 89 -101 30 -45 66 -94 80 -108 46 -49 154 -112 252 -149 339
-126 658 -125 1011 4 121 44 165 77 282 208 55 62 114 122 130 133 29 18 63
19 1508 19 1173 0 1478 -3 1482 -12 2 -7 6 -39 10 -70 4 -32 11 -58 16 -58 5
0 30 15 56 34 63 44 116 70 188 93 58 17 469 18 11893 20 l11832 3 0 1465 0
1465 -3256 0 -3256 0 3 276 c3 265 3 277 -16 290 -40 30 -58 15 -82 -66 -19
-66 -22 -100 -22 -282 l-1 -208 -21791 0 c-20748 0 -21790 1 -21785 18 3 9 15
60 26 112 110 524 -17 1017 -405 1569 -43 61 -81 111 -84 111 -4 0 -32 -26
-63 -57z m213 -517 c43 -29 102 -115 134 -194 81 -201 56 -413 -86 -710 -93
-197 -156 -272 -264 -318 -48 -20 -208 -30 -321 -19 l-77 7 6 141 c14 310 78
569 205 827 45 91 71 129 122 181 36 36 83 76 105 87 57 30 130 29 176 -2z
m43879 -1761 l0 -425 -5639 0 -5639 0 -6 58 c-3 31 -13 154 -21 272 -20 276
-16 260 -65 260 l-40 0 0 -295 0 -295 -2883 0 -2883 0 -53 54 -53 54 -47 -53
-46 -53 -13363 -1 c-13296 -1 -13363 -1 -13352 19 6 11 114 187 241 392 221
359 267 422 313 431 12 2 9812 5 21779 6 l21757 1 0 -425z m-44152 408 c-1 -5
-73 -77 -159 -161 l-157 -154 -6 39 c-3 21 -8 76 -11 123 -3 47 -8 102 -11
123 l-6 37 177 0 c97 0 175 -3 173 -7z m50782 -413 l0 -420 -1847 1 -1848 0
-45 71 c-54 85 -173 199 -261 251 -70 41 -207 88 -315 109 -88 17 -432 17
-534 0 -305 -51 -483 -159 -605 -367 l-38 -65 -138 0 -138 0 6 95 c9 137 -12
207 -83 285 -100 108 -252 165 -379 143 -71 -12 -169 -54 -240 -103 l-45 -31
0 226 0 225 3255 0 3255 0 0 -420z m-4555 -64 c104 -27 196 -91 260 -180 40
-57 85 -144 85 -167 0 -5 -170 -9 -414 -9 l-413 0 -7 31 c-34 171 43 287 214
325 74 17 214 17 275 0z m-1625 -23 c82 -43 95 -68 93 -171 -2 -118 -11 -144
-54 -159 -21 -7 -99 -12 -201 -12 l-166 -1 -7 29 c-7 33 9 163 25 207 47 123
187 171 310 107z m601 -448 c74 -27 108 -54 148 -124 94 -161 226 -238 509
-298 111 -23 151 -27 312 -27 199 0 307 14 470 60 201 58 329 152 395 289 18
38 36 78 39 88 5 16 102 17 1856 17 l1850 0 0 -415 0 -415 -4946 0 -4947 0 81
78 c186 181 220 310 123 459 -40 62 -152 173 -244 243 -32 23 -57 44 -57 46 0
2 756 4 1680 4 l1680 0 0 -303 c0 -167 3 -306 6 -310 20 -20 147 76 599 453
182 151 197 161 242 171 50 10 151 2 204 -16z m-18401 -405 l0 -420 -2897 0
-2898 0 -1 198 c-1 177 -4 206 -26 290 -14 51 -28 96 -32 99 -11 12 -60 -33
-67 -61 -5 -16 -5 -47 0 -70 4 -22 5 -137 3 -254 l-4 -212 -10342 4 c-6682 2
-10369 7 -10419 13 -64 8 -83 15 -107 38 -17 16 -35 45 -40 64 -20 73 -132
627 -133 660 -1 24 6 39 22 52 23 19 343 19 13482 19 l13459 0 0 -420z m5930
-5 l0 -425 -2452 0 c-2204 0 -2925 6 -3245 26 l-103 6 0 381 c0 210 4 387 8
393 4 5 18 18 32 27 23 16 215 17 2892 17 l2868 0 0 -425z m11897 411 c6 -6
-307 -390 -321 -394 -6 -1 -19 3 -29 10 -14 11 -18 38 -24 179 l-6 167 28 27
27 28 161 -6 c88 -4 162 -8 164 -11z m2000 -10 c40 -35 36 -95 -12 -193 -60
-121 -159 -175 -320 -175 -226 0 -428 137 -506 342 l-19 50 414 0 415 0 28
-24z m-6979 -15 c-13 -15 -58 -67 -100 -115 -137 -156 -184 -247 -175 -347 8
-97 65 -177 203 -289 l75 -60 -1943 -1 c-1069 -1 -1961 0 -1983 1 -59 2 -94
28 -147 105 -172 253 -459 364 -907 352 -146 -3 -192 -8 -271 -29 -137 -37
-232 -80 -345 -156 -92 -62 -101 -72 -131 -133 -60 -121 -132 -160 -262 -141
-40 5 -75 12 -77 14 -3 2 2 37 10 77 12 56 13 86 6 128 -29 151 -173 285 -341
315 -85 15 -189 -8 -312 -70 l-98 -48 0 213 0 213 3411 0 3410 0 -23 -29z
m642 4 c244 -65 429 -302 430 -550 0 -83 -15 -130 -58 -177 -58 -65 -102 -79
-279 -90 -133 -8 -162 -7 -211 7 -151 44 -281 178 -350 363 -20 54 -25 86 -26
167 -1 93 1 104 29 154 53 97 150 140 310 141 57 0 124 -7 155 -15z m-40478
-443 c42 -196 75 -358 74 -360 -2 -1 -208 -1 -460 0 l-456 3 67 85 c84 106
258 286 383 395 117 101 303 245 310 238 3 -2 39 -165 82 -361z m34949 2 c138
-40 267 -150 328 -277 51 -107 86 -97 -358 -97 l-389 0 -36 40 -36 40 20 50
c45 115 82 171 135 206 77 50 234 68 336 38z m-1585 -32 c23 -12 53 -35 68
-52 22 -27 26 -41 26 -99 0 -38 -3 -89 -6 -115 -10 -71 -26 -76 -244 -76
l-180 0 0 59 c0 152 48 257 135 298 42 19 149 11 201 -15z m-33654 -442 l49 0
-58 -48 c-131 -110 -233 -239 -285 -363 -43 -104 -60 -191 -62 -322 l-1 -118
-228 3 -229 3 -24 28 c-22 26 -24 36 -24 140 0 180 34 308 135 513 36 73 73
138 82 145 19 17 259 28 462 23 74 -2 156 -4 183 -4z m34256 4 l61 -7 45 -92
c119 -244 358 -350 791 -349 174 1 338 18 516 54 187 39 324 135 393 279 18
38 36 79 39 91 l5 20 7576 0 7576 0 0 -420 0 -420 -10691 0 -10691 0 63 42
c179 118 256 258 228 412 -25 140 -92 217 -284 329 l-80 47 1703 0 1702 0 0
-316 c0 -249 3 -315 13 -311 20 8 377 266 455 329 40 33 107 94 150 135 117
114 179 152 282 172 60 12 76 12 148 5z m1408 -25 c30 -28 29 -59 -5 -149 -33
-89 -72 -133 -148 -171 -61 -30 -79 -34 -169 -37 -75 -3 -117 0 -160 13 -111
31 -226 109 -289 194 -36 50 -85 141 -85 160 0 7 100 12 328 14 500 5 497 5
528 -24z m-8386 -404 l0 -425 -1469 0 c-1000 0 -1478 3 -1498 11 -18 6 -75 58
-137 124 -154 164 -276 240 -479 299 -126 37 -194 46 -340 46 -199 0 -390 -46
-581 -142 -135 -67 -185 -108 -223 -183 -60 -118 -111 -155 -216 -155 -36 0
-79 3 -97 6 -26 6 -31 10 -25 28 3 12 9 62 12 111 4 76 2 99 -17 147 -61 162
-287 282 -470 250 -73 -13 -175 -59 -231 -103 l-39 -31 0 221 0 221 2905 0
2905 0 0 -425z m1400 363 c-197 -115 -272 -220 -272 -380 -1 -64 4 -86 29
-140 35 -74 107 -150 201 -213 l67 -45 -505 0 c-277 0 -500 4 -494 8 5 5 52
45 105 90 53 45 133 120 177 167 154 163 195 318 134 513 l-20 62 342 0 341 0
-105 -62z m612 51 c76 -16 185 -71 245 -124 129 -114 237 -374 212 -510 -22
-117 -107 -174 -289 -195 -101 -11 -200 -1 -280 29 -158 60 -292 210 -336 376
-17 61 -18 194 -3 246 42 140 247 220 451 178z m4396 -6 c-8 -10 -79 -94 -158
-188 -79 -93 -149 -176 -156 -184 -7 -8 -20 -10 -33 -6 -20 6 -21 12 -21 201
l0 194 192 0 c181 0 190 -1 176 -17z m-12328 -408 l0 -415 -5659 0 -5659 0 -4
248 -3 247 -33 47 c-30 44 -34 47 -57 36 l-25 -11 0 -284 0 -283 -2877 0
-2877 0 -61 60 -61 61 -49 -61 -48 -60 -1193 0 -1192 0 -17 78 c-76 354 -104
414 -288 627 l-107 125 10105 0 10105 0 0 -415z m6363 402 c84 -36 145 -126
132 -196 -11 -58 -97 -212 -231 -412 -105 -157 -130 -189 -163 -204 -21 -9
-47 -15 -57 -13 -18 3 -19 15 -17 198 3 255 21 497 39 532 17 34 73 79 116 95
45 16 142 16 181 0z m-26938 -292 c198 -52 373 -264 392 -477 l6 -58 -207 0
c-282 0 -299 8 -334 165 -37 164 -74 357 -68 362 9 9 69 21 111 22 23 1 67 -6
100 -14z m-269 -270 c30 -137 54 -251 54 -252 0 -2 -147 -3 -326 -3 l-327 0 6
77 c12 157 105 282 270 363 80 38 198 71 246 67 23 -2 26 -11 77 -252z m22895
104 c80 -23 174 -83 229 -147 34 -40 120 -193 120 -215 0 -4 -178 -7 -396 -7
l-396 0 -35 35 c-35 35 -36 37 -31 98 9 112 66 186 174 227 114 42 212 45 335
9z m-1604 -25 c78 -37 87 -57 80 -183 -3 -58 -9 -114 -13 -124 -12 -31 -49
-37 -231 -37 l-175 0 4 113 c3 91 8 120 26 154 56 106 180 138 309 77z
m-22212 -441 l70 -6 80 -82 c96 -98 152 -144 222 -179 50 -25 163 -60 170 -52
2 2 -49 72 -112 156 -64 83 -113 155 -110 159 9 8 595 6 628 -3 50 -12 61 -44
137 -411 23 -110 43 -208 46 -217 7 -22 -88 -71 -195 -100 -105 -29 -356 -31
-481 -5 -453 97 -795 383 -854 715 l-5 32 167 0 c92 0 199 -3 237 -7z m4385
-417 l0 -424 -72 -7 c-40 -3 -716 -5 -1503 -3 l-1430 3 -57 29 -57 30 40 47
c21 26 83 78 136 116 190 134 323 281 407 448 25 50 46 95 46 101 0 5 14 23
31 40 l30 29 292 5 c161 3 707 7 1215 8 l922 2 0 -424z m13445 409 c164 -31
291 -122 374 -269 84 -148 118 -288 92 -384 -17 -61 -81 -124 -156 -152 -90
-35 -269 -40 -362 -11 -176 54 -314 188 -374 363 -30 87 -31 215 -2 279 42 94
115 151 223 175 75 17 115 17 205 -1z m6355 -5 c11 -6 27 -22 36 -35 15 -23
15 -30 -6 -97 -29 -96 -51 -130 -108 -166 -177 -113 -442 -70 -614 99 -63 62
-128 167 -128 208 0 12 59 13 400 8 247 -4 408 -11 420 -17z m-22580 0 c0 -6
-7 -46 -16 -88 -30 -150 -115 -287 -265 -425 -57 -53 -85 -74 -90 -65 -3 7
-32 137 -63 288 -32 151 -59 281 -61 288 -3 9 50 12 245 12 167 0 250 -3 250
-10z m8710 -409 l0 -418 -46 -7 c-26 -3 -1176 -6 -2556 -6 l-2509 0 -102 21
c-91 19 -123 21 -292 16 -135 -4 -203 -10 -234 -21 -24 -9 -47 -16 -52 -16 -5
0 -9 189 -9 425 l0 425 2900 0 2900 0 0 -419z m6882 344 c-95 -89 -168 -178
-208 -255 -38 -74 -40 -173 -5 -239 32 -62 112 -143 205 -210 l78 -56 -38 -7
c-22 -4 -919 -7 -1994 -7 -2205 -1 -1993 -9 -2058 79 -132 180 -225 250 -411
310 -218 71 -486 91 -687 52 -335 -66 -560 -208 -625 -394 l-13 -38 -139 0
-139 0 7 23 c4 12 9 59 12 103 9 139 -39 233 -158 313 -170 113 -373 108 -540
-15 l-49 -36 0 226 0 226 3422 0 3421 0 -81 -75z m5028 59 c0 -3 -70 -90 -157
-194 -147 -177 -157 -188 -180 -177 -23 10 -23 11 -23 194 l0 183 180 0 c99 0
180 -3 180 -6z m-11463 -483 c47 -23 100 -81 109 -117 11 -43 -2 -149 -22
-179 -31 -47 -66 -55 -248 -55 -145 0 -166 2 -187 19 l-23 19 28 73 c59 152
110 228 171 256 39 18 121 11 172 -16z m1553 19 c124 -20 247 -98 321 -206 24
-35 69 -133 69 -149 0 -3 -187 -5 -415 -5 l-415 0 -6 26 c-10 40 1 156 19 189
38 74 111 120 222 140 89 17 124 17 205 5z m-7498 -470 c80 -22 138 -103 137
-190 0 -53 -48 -185 -102 -283 -58 -103 -145 -212 -249 -312 l-93 -90 -3 350
c-2 228 1 363 8 387 32 111 171 174 302 138z m1643 -6 c135 -35 213 -107 302
-281 73 -140 93 -204 93 -292 0 -157 -103 -235 -330 -248 -159 -9 -298 40
-414 147 -119 110 -176 235 -176 385 0 74 3 90 33 146 40 77 87 116 169 140
81 23 242 25 323 3z m4320 -4 c5 -15 -28 -61 -146 -202 -84 -101 -155 -187
-159 -191 -4 -4 -19 -5 -34 -1 l-26 6 0 183 c0 236 -14 222 217 224 133 1 142
0 148 -19z m1971 -13 l35 -32 -20 -74 c-40 -145 -64 -175 -178 -229 -51 -23
-70 -27 -158 -27 -117 0 -180 17 -274 72 -87 52 -165 133 -206 216 -59 118
-96 107 365 107 l400 0 36 -33z"/>
<path d="M24902 1429 c-357 -46 -602 -323 -602 -679 0 -193 61 -341 195 -476
67 -68 96 -89 175 -127 207 -100 412 -101 610 -5 169 82 296 249 334 440 17
83 21 185 8 206 -7 9 -85 12 -357 10 l-349 -3 -7 -35 c-11 -50 0 -89 29 -108
22 -14 57 -17 233 -17 114 0 210 -3 214 -7 10 -10 -32 -129 -64 -179 -40 -63
-114 -125 -180 -150 -65 -24 -208 -29 -281 -9 -231 62 -367 278 -332 526 34
236 161 371 385 410 146 26 242 -3 344 -102 89 -86 129 -100 250 -89 85 8 83
4 30 95 -120 205 -389 332 -635 299z"/>
<path d="M8480 714 c0 -561 3 -704 13 -698 38 24 276 232 364 319 112 111 123
132 123 243 0 110 -40 158 -169 202 -81 27 -116 25 -211 -9 l-80 -30 0 340 c0
332 0 339 -20 339 -20 0 -20 -7 -20 -706z m263 -25 c71 -37 90 -91 59 -161
-24 -54 -212 -358 -221 -358 -4 0 -16 6 -26 14 -17 12 -19 30 -19 217 0 224 6
253 62 283 32 18 115 21 145 5z"/>
<path d="M25840 725 l0 -697 53 38 c158 115 212 159 308 254 119 118 150 171
151 256 1 130 -102 224 -246 224 -28 0 -87 -11 -131 -25 -44 -14 -81 -25 -82
-25 -2 0 -4 150 -5 333 l-3 332 -22 3 -23 3 0 -696z m281 -48 c54 -36 62 -92
23 -170 -30 -59 -192 -325 -203 -332 -4 -2 -17 -1 -29 2 -22 5 -22 9 -22 192
1 214 8 263 43 298 43 43 130 47 188 10z"/>
<path d="M31670 714 c0 -672 1 -706 18 -692 135 115 350 309 399 361 75 81 95
142 75 235 -15 69 -52 110 -134 147 -88 40 -148 42 -234 11 -39 -14 -74 -26
-78 -26 -3 0 -7 150 -8 332 -3 308 -4 333 -20 336 -17 3 -18 -36 -18 -704z
m266 -30 c38 -18 64 -58 64 -99 0 -14 -12 -49 -26 -77 -35 -68 -193 -326 -204
-333 -5 -3 -19 -1 -30 5 -19 10 -20 20 -20 198 1 217 7 256 50 295 25 22 40
27 81 27 28 0 66 -7 85 -16z"/>
<path d="M47853 1413 l-143 -4 0 -666 0 -665 273 5 c251 4 280 7 369 30 254
67 415 226 464 457 22 106 15 309 -16 405 -33 104 -75 177 -140 242 -95 94
-214 154 -363 182 -70 13 -262 19 -444 14z m509 -220 c209 -99 313 -391 224
-628 -54 -143 -146 -238 -266 -276 -75 -23 -234 -35 -333 -25 l-67 8 0 480 0
480 188 -4 c186 -3 187 -3 254 -35z"/>
<path d="M49050 714 l0 -705 123 108 c67 59 173 157 235 217 96 94 114 117
127 160 20 68 19 112 -5 160 -26 51 -65 82 -143 114 -95 38 -130 39 -220 4
l-77 -30 0 339 c0 332 0 339 -20 339 -20 0 -20 -7 -20 -706z m233 -25 c30 -8
42 -18 53 -44 23 -55 18 -128 -12 -188 -39 -76 -185 -287 -199 -287 -32 0 -38
30 -38 203 -1 148 2 177 18 207 25 49 52 82 83 102 31 21 43 22 95 7z"/>
<path d="M7233 1403 l-113 -4 0 -653 0 -654 138 -7 c429 -24 648 29 812 194
83 83 128 159 156 261 24 87 24 297 1 393 -58 235 -211 391 -438 447 -89 22
-312 32 -556 23z m481 -188 c115 -30 198 -101 257 -220 41 -84 59 -157 59
-245 0 -176 -90 -352 -217 -427 -70 -41 -137 -54 -310 -60 l-163 -6 0 487 0
486 158 0 c108 0 176 -5 216 -15z"/>
<path d="M13175 1398 c-3 -7 -4 -303 -3 -658 l3 -645 358 -3 357 -2 0 85 0 85
-250 0 -250 0 0 205 0 205 225 0 226 0 -3 93 -3 92 -222 3 -223 2 0 190 0 190
255 0 255 0 0 54 c0 29 -3 68 -6 85 l-6 31 -355 0 c-274 0 -355 -3 -358 -12z"/>
<path d="M14100 727 c0 -672 0 -684 20 -702 20 -18 21 -18 43 2 12 11 76 66
142 123 167 144 280 263 311 327 53 107 14 218 -95 275 -70 36 -153 38 -269 4
l-82 -24 -2 337 -3 336 -32 3 -33 3 0 -684z m286 -62 c22 -14 44 -81 44 -134
0 -40 -51 -136 -144 -270 -74 -106 -78 -110 -101 -99 l-25 11 0 166 c0 91 5
183 10 203 13 45 67 118 100 136 28 14 83 8 116 -13z"/>
<path d="M30798 1401 c-85 -28 -89 -36 -266 -541 -56 -157 -139 -393 -186
-524 -47 -132 -86 -241 -86 -243 0 -1 53 -3 119 -3 l118 0 6 58 c9 103 61 173
148 201 50 16 413 12 456 -5 35 -14 57 -49 67 -109 10 -58 46 -115 86 -136 38
-21 105 -24 161 -9 l37 10 -55 153 c-129 357 -345 948 -375 1027 -29 74 -38
87 -70 103 -43 21 -122 30 -160 18z m173 -576 l96 -275 -208 0 c-115 0 -209 1
-209 3 0 1 43 123 95 271 85 243 109 296 124 280 3 -3 49 -129 102 -279z"/>
<path d="M37513 1403 c-10 -4 -13 -154 -13 -704 l0 -699 167 133 c277 219 335
281 355 380 35 172 -144 316 -328 262 -32 -9 -75 -26 -96 -36 l-38 -19 0 345
c0 322 -1 345 -17 344 -10 0 -24 -3 -30 -6z m241 -727 c40 -17 56 -55 56 -133
0 -65 -18 -103 -129 -270 -78 -120 -81 -122 -106 -111 l-25 11 0 171 c0 94 5
188 11 210 14 51 98 136 134 136 14 0 41 -6 59 -14z"/>
<path d="M42635 1403 c-172 -26 -345 -117 -450 -235 -55 -63 -118 -188 -141
-278 -22 -86 -22 -245 0 -330 59 -226 233 -418 436 -481 267 -82 583 -3 732
184 43 54 94 154 84 164 -11 12 -111 22 -151 16 -60 -9 -104 -35 -162 -96 -67
-71 -134 -98 -259 -105 -148 -7 -246 31 -342 131 -91 97 -126 197 -126 357 1
152 39 254 128 348 89 94 206 137 355 130 114 -5 156 -23 241 -104 86 -82 181
-115 284 -100 l45 7 -16 42 c-76 193 -296 333 -553 350 -41 3 -88 3 -105 0z"/>
<path d="M36363 1393 c-10 -4 -13 -145 -13 -659 l0 -654 248 0 c281 0 406 11
486 40 77 29 148 96 188 178 29 58 33 76 33 147 0 67 -4 89 -28 136 -25 52
-97 131 -157 172 l-24 17 66 62 c85 80 112 136 111 233 0 89 -31 173 -86 233
-57 61 -104 82 -206 93 -89 9 -596 11 -618 2z m602 -189 c61 -32 87 -83 83
-166 -4 -71 -20 -103 -70 -141 -38 -28 -95 -36 -260 -37 l-148 0 0 186 0 186
178 -4 c156 -3 182 -5 217 -24z m-135 -534 c193 -17 249 -63 250 -203 0 -76
-14 -112 -59 -150 -41 -34 -104 -46 -291 -54 l-160 -6 0 211 0 212 73 0 c39 0
124 -5 187 -10z"/>
<path d="M19042 718 l3 -653 108 -3 107 -3 0 285 0 286 213 2 212 3 3 93 3 92
-211 0 -210 0 0 195 0 195 265 0 265 0 0 80 0 80 -380 0 -380 0 2 -652z"/>
</g>
</svg>
