<?xml version="1.0" encoding="utf-8"?>
<!-- Generator: Adobe Illustrator 26.0.2, SVG Export Plug-In . SVG Version: 6.00 Build 0)  -->
<svg version="1.1" id="Layer_1" xmlns="http://www.w3.org/2000/svg" xmlns:xlink="http://www.w3.org/1999/xlink" x="0px" y="0px"
	 viewBox="0 0 641 172" style="enable-background:new 0 0 641 172;" xml:space="preserve">
<style type="text/css">
	.st0{fill:none;stroke:#000000;stroke-width:0.5;stroke-miterlimit:10;}
	.st1{fill:none;stroke:#7C287D;stroke-width:1.5;stroke-miterlimit:10;}
	.st2{fill:none;stroke:#67BF75;stroke-miterlimit:10;}
</style>
<line id="XMLID_2077_" class="st0" x1="0" y1="40.5" x2="641" y2="40.5"/>
<line id="XMLID_2076_" class="st0" x1="-0.2" y1="20.2" x2="640.8" y2="20.2"/>
<line id="XMLID_2075_" class="st0" x1="0" y1="60.8" x2="641" y2="60.8"/>
<line id="XMLID_2074_" class="st0" x1="0" y1="81.2" x2="641" y2="81.2"/>
<line id="XMLID_2073_" class="st0" x1="0" y1="101.5" x2="641" y2="101.5"/>
<line id="XMLID_2072_" class="st0" x1="145" y1="162.5" x2="145" y2="100.7"/>
<circle id="XMLID_2069_" class="st1" cx="155" cy="100.7" r="10.2"/>
<line id="XMLID_2067_" class="st0" x1="113.1" y1="173.7" x2="113.1" y2="111.8"/>
<circle id="XMLID_2064_" class="st1" cx="123" cy="111.8" r="10.2"/>
<line id="XMLID_2063_" class="st0" x1="177" y1="153.2" x2="177" y2="91.3"/>
<circle id="XMLID_2060_" class="st1" cx="186.9" cy="91.3" r="10.2"/>
<line id="XMLID_2058_" class="st0" x1="208.9" y1="142.2" x2="208.9" y2="80.3"/>
<circle id="XMLID_2055_" class="st1" cx="218.8" cy="80.3" r="10.2"/>
<line id="XMLID_2053_" class="st0" x1="240.8" y1="132.6" x2="240.8" y2="70.7"/>
<circle id="XMLID_2050_" class="st1" cx="250.7" cy="70.7" r="10.2"/>
<line id="XMLID_2048_" class="st0" x1="272.8" y1="122.2" x2="272.8" y2="60.4"/>
<circle id="XMLID_2045_" class="st1" cx="282.7" cy="60.4" r="10.2"/>
<line id="XMLID_2043_" class="st0" x1="304.7" y1="112.2" x2="304.7" y2="50.3"/>
<circle id="XMLID_2040_" class="st1" cx="314.6" cy="50.3" r="10.2"/>
<line id="XMLID_2033_" class="st0" x1="413.8" y1="113.3" x2="413.8" y2="51.5"/>
<circle id="XMLID_2030_" class="st1" cx="423.7" cy="50.7" r="10.2"/>
<line id="XMLID_2024_" class="st0" x1="445.8" y1="122.2" x2="445.8" y2="60.4"/>
<circle id="XMLID_2021_" class="st1" cx="455.7" cy="60.4" r="10.2"/>
<g id="XMLID_2014_">
	<g id="XMLID_1355_">
		<line id="XMLID_1358_" class="st1" x1="477.7" y1="132.6" x2="477.7" y2="70.7"/>
		<circle id="XMLID_1356_" class="st1" cx="487.6" cy="70.7" r="10.2"/>
	</g>
</g>
<line id="XMLID_2013_" class="st0" x1="509.6" y1="142.2" x2="509.6" y2="80.3"/>
<circle id="XMLID_2010_" class="st1" cx="519.5" cy="80.3" r="10.2"/>
<line id="XMLID_2009_" class="st0" x1="541.5" y1="153.2" x2="541.5" y2="91.3"/>
<circle id="XMLID_1814_" class="st1" cx="551.5" cy="91.3" r="10.2"/>
<line id="XMLID_1813_" class="st0" x1="573.5" y1="162.5" x2="573.5" y2="100.7"/>
<circle id="XMLID_1586_" class="st1" cx="583.4" cy="100.7" r="10.2"/>
<line id="XMLID_1585_" class="st0" x1="605.4" y1="173.7" x2="605.4" y2="111.8"/>
<circle id="XMLID_1582_" class="st1" cx="615.3" cy="111.8" r="10.2"/>
<g id="XMLID_3141_">
	<path id="XMLID_3142_" d="M117.3,107.2c0.8-0.1,1.7-0.2,2.8-0.2c1.9,0,3.2,0.5,4.1,1.3c0.9,0.8,1.4,2,1.4,3.6c0,1.7-0.5,3-1.5,3.9
		c-1,0.9-2.5,1.5-4.5,1.5c-0.9,0-1.7,0-2.4-0.1V107.2z M118.6,116.1c0.3,0,0.8,0.1,1.3,0.1c2.8,0,4.3-1.6,4.3-4.3
		c0-2.4-1.3-3.9-4.1-3.9c-0.7,0-1.2,0.1-1.5,0.1V116.1z"/>
</g>
<g id="XMLID_3137_">
	<path id="XMLID_3138_" d="M609.8,107.2c0.8-0.1,1.7-0.2,2.8-0.2c1.9,0,3.2,0.5,4.1,1.3c0.9,0.8,1.4,2,1.4,3.6c0,1.7-0.5,3-1.5,3.9
		c-1,0.9-2.5,1.5-4.5,1.5c-0.9,0-1.7,0-2.4-0.1V107.2z M611.1,116.1c0.3,0,0.8,0.1,1.3,0.1c2.8,0,4.3-1.6,4.3-4.3
		c0-2.4-1.3-3.9-4.1-3.9c-0.7,0-1.2,0.1-1.5,0.1V116.1z"/>
</g>
<g id="XMLID_3134_">
	<path id="XMLID_3135_" d="M155.6,101.4h-3.9v3.6h4.4v1.1h-5.7V96h5.5v1.1h-4.2v3.2h3.9V101.4z"/>
</g>
<g id="XMLID_3131_">
	<path id="XMLID_3132_" d="M584,101.4H580v3.6h4.4v1.1h-5.7V96h5.5v1.1H580v3.2h3.9V101.4z"/>
</g>
<g id="XMLID_3128_">
	<path id="XMLID_3129_" d="M184.2,86h5.4v1.1h-4.1v3.4h3.8v1.1h-3.8v4.6h-1.3V86z"/>
</g>
<g id="XMLID_3125_">
	<path id="XMLID_3126_" d="M547.9,86h5.4v1.1h-4.1v3.4h3.8v1.1h-3.8v4.6h-1.3V86z"/>
</g>
<g id="XMLID_3122_">
	<path id="XMLID_3123_" d="M220.3,85c-0.6,0.2-1.8,0.6-3.1,0.6c-1.5,0-2.8-0.4-3.8-1.3c-0.9-0.8-1.4-2.2-1.4-3.8
		c0-3,2.1-5.2,5.5-5.2c1.2,0,2.1,0.3,2.5,0.5l-0.3,1.1c-0.5-0.3-1.2-0.4-2.2-0.4c-2.5,0-4.1,1.5-4.1,4.1c0,2.6,1.5,4.1,3.9,4.1
		c0.9,0,1.4-0.1,1.7-0.3v-3h-2v-1h3.3V85z"/>
</g>
<g id="XMLID_3119_">
	<path id="XMLID_3120_" d="M521,84.5c-0.6,0.2-1.8,0.6-3.1,0.6c-1.5,0-2.8-0.4-3.8-1.3c-0.9-0.8-1.4-2.2-1.4-3.8
		c0-3,2.1-5.2,5.5-5.2c1.2,0,2.1,0.3,2.5,0.5l-0.3,1.1c-0.5-0.3-1.2-0.4-2.2-0.4c-2.5,0-4.1,1.5-4.1,4.1c0,2.6,1.5,4.1,3.9,4.1
		c0.9,0,1.4-0.1,1.7-0.3v-3h-2v-1h3.3V84.5z"/>
</g>
<line id="XMLID_1573_" class="st0" x1="333.8" y1="40.6" x2="358.1" y2="40.6"/>
<line id="XMLID_1572_" class="st0" x1="379.7" y1="40.6" x2="403.9" y2="40.6"/>
<g id="XMLID_3115_">
	<path id="XMLID_3116_" d="M247.2,72.4l-1,3.2h-1.4l3.5-10.1h1.6l3.5,10.1h-1.4l-1.1-3.2H247.2z M250.6,71.4l-1-2.9
		c-0.2-0.7-0.4-1.3-0.5-1.8h0c-0.1,0.6-0.3,1.2-0.5,1.8l-1,2.9H250.6z"/>
</g>
<line id="XMLID_2038_" class="st0" x1="337.6" y1="101.5" x2="337.6" y2="39.7"/>
<circle id="XMLID_2035_" class="st1" cx="347.5" cy="39.7" r="10.2"/>
<line id="XMLID_2029_" class="st0" x1="381.9" y1="101.5" x2="381.9" y2="39.7"/>
<circle id="XMLID_2026_" class="st1" cx="391.8" cy="39.7" r="10.2"/>
<g id="XMLID_3111_">
	<path id="XMLID_3112_" d="M483.7,71.6l-1,3.2h-1.3l3.4-10.1h1.6l3.4,10.1h-1.4l-1.1-3.2H483.7z M487,70.6l-1-2.9
		c-0.2-0.7-0.4-1.3-0.5-1.8h0c-0.2,0.6-0.3,1.2-0.5,1.8l-1,2.9H487z"/>
</g>
<g id="XMLID_3106_">
	<path id="XMLID_3107_" d="M277.6,55.5c0.6-0.1,1.5-0.2,2.4-0.2c1.3,0,2.1,0.2,2.8,0.7c0.5,0.4,0.9,1,0.9,1.8c0,1-0.7,1.8-1.7,2.2v0
		c1,0.2,2.1,1,2.1,2.5c0,0.9-0.3,1.5-0.9,2c-0.7,0.6-1.8,0.9-3.5,0.9c-0.9,0-1.6-0.1-2-0.1V55.5z M278.9,59.7h1.2
		c1.4,0,2.2-0.7,2.2-1.7c0-1.2-0.9-1.7-2.2-1.7c-0.6,0-0.9,0-1.2,0.1V59.7z M278.9,64.5c0.3,0,0.6,0.1,1.1,0.1c1.3,0,2.6-0.5,2.6-2
		c0-1.4-1.2-2-2.6-2h-1.1V64.5z"/>
</g>
<g id="XMLID_3101_">
	<path id="XMLID_3102_" d="M451.2,55.5c0.6-0.1,1.5-0.2,2.4-0.2c1.3,0,2.1,0.2,2.8,0.7c0.5,0.4,0.9,1,0.9,1.8c0,1-0.7,1.8-1.7,2.2v0
		c1,0.2,2.1,1,2.1,2.5c0,0.9-0.3,1.5-0.9,2c-0.7,0.6-1.8,0.9-3.5,0.9c-0.9,0-1.6-0.1-2-0.1V55.5z M452.5,59.7h1.2
		c1.4,0,2.2-0.7,2.2-1.7c0-1.2-0.9-1.7-2.2-1.7c-0.6,0-0.9,0-1.2,0.1V59.7z M452.5,64.5c0.3,0,0.6,0.1,1.1,0.1c1.3,0,2.6-0.5,2.6-2
		c0-1.4-1.2-2-2.6-2h-1.1V64.5z"/>
</g>
<g id="XMLID_3098_">
	<path id="XMLID_3099_" d="M317.6,55.1c-0.5,0.2-1.4,0.5-2.7,0.5c-2.8,0-5-1.8-5-5.1c0-3.2,2.1-5.3,5.3-5.3c1.2,0,2.1,0.3,2.4,0.5
		l-0.3,1.1c-0.5-0.2-1.2-0.4-2-0.4c-2.4,0-3.9,1.5-3.9,4.2c0,2.5,1.4,4.1,3.9,4.1c0.8,0,1.6-0.2,2.1-0.4L317.6,55.1z"/>
</g>
<g id="XMLID_3095_">
	<path id="XMLID_3096_" d="M427.1,55c-0.5,0.2-1.4,0.5-2.7,0.5c-2.8,0-5-1.8-5-5.1c0-3.2,2.1-5.3,5.3-5.3c1.2,0,2.1,0.3,2.4,0.5
		l-0.3,1.1c-0.5-0.2-1.2-0.4-2-0.4c-2.4,0-3.9,1.5-3.9,4.2c0,2.5,1.4,4.1,3.9,4.1c0.8,0,1.6-0.2,2.1-0.4L427.1,55z"/>
</g>
<g id="XMLID_3091_">
	<path id="XMLID_3092_" d="M341.7,35.1c0.8-0.1,1.7-0.2,2.8-0.2c1.9,0,3.2,0.5,4.1,1.3c0.9,0.8,1.4,2,1.4,3.6c0,1.7-0.5,3-1.5,3.9
		c-1,0.9-2.5,1.5-4.5,1.5c-0.9,0-1.7,0-2.4-0.1V35.1z M343,44c0.3,0,0.8,0.1,1.3,0.1c2.8,0,4.3-1.6,4.3-4.3c0-2.4-1.3-3.9-4.1-3.9
		c-0.7,0-1.2,0.1-1.5,0.1V44z"/>
</g>
<g id="XMLID_3087_">
	<path id="XMLID_3088_" d="M385.7,35.1c0.8-0.1,1.7-0.2,2.8-0.2c1.9,0,3.2,0.5,4.1,1.3c0.9,0.8,1.4,2,1.4,3.6c0,1.7-0.5,3-1.5,3.9
		c-1,0.9-2.5,1.5-4.5,1.5c-0.9,0-1.7,0-2.4-0.1V35.1z M387,44c0.3,0,0.8,0.1,1.3,0.1c2.8,0,4.3-1.6,4.3-4.3c0-2.4-1.3-3.9-4.1-3.9
		c-0.7,0-1.2,0.1-1.5,0.1V44z"/>
</g>
<g id="XMLID_1558_">
	<path id="XMLID_1559_" d="M47.5,101.3c-2.1,0.7-4.3,1-6.5,1.1c-5.8,0.1-11.2-1.5-15.8-5c-4.9-3.7-7.5-8.7-8.7-14.6
		c-1.1-5.7,0-11.1,2.4-16.3c2.1-4.5,5-8.5,8.2-12.2c0.7-0.8,1.4-1.5,2.1-2.3c0.3-0.3,0.3-0.5,0.2-0.9c-0.8-2.8-1.8-5.5-2.4-8.3
		c-1.3-5.6-1.5-11.3,0.3-16.9c2.1-6.4,6-11.2,12.5-13.5c0.8-0.3,1.6-0.5,2.4-0.6c1.7-0.1,3.2,0.6,4.5,1.6c2.7,2.1,4,5,4.2,8.3
		c0.3,5.1-1.4,9.7-3.8,14.2c-2.3,4.3-5.4,8.2-8.6,11.9c-1.1,1.3-2.1,2.5-3.2,3.7c-0.3,0.4-0.1,0.6,0,0.9c2,3.9,3.9,7.8,5.9,11.6
		c1-0.2,2-0.5,3.1-0.7c3.1-0.6,6.1,0,8.9,1.4c5.5,2.9,8.8,7.5,9.8,13.7c0.8,5-0.6,9.6-3.4,13.7c-1.8,2.7-4.1,4.9-6.8,6.6
		c-0.4,0.3-0.5,0.5-0.4,1c0.5,3.1,1.1,6.1,1.6,9.2c0.5,3.4,0.7,6.8-0.4,10.1c-1.4,4.5-4.6,7.1-9,8.3c-5.7,1.5-10.9,0.3-15.5-3.2
		c-3.9-2.9-6.5-6.6-7.6-11.4c-0.1-0.6-0.2-1.3-0.3-1.9c0-0.3,0-0.6,0-0.9c1.3,6.7,5,11.5,11.1,14.3c4.3,2,8.7,2.1,13-0.1
		c3.3-1.7,5-4.5,5.1-8.2c0.1-3.3-0.8-6.4-1.5-9.6c-0.4-1.5-0.8-2.9-1.2-4.4C47.7,101.7,47.6,101.5,47.5,101.3z M46,96
		c-2.5-9.1-6.5-17.6-9.3-26.6c-2.5,2.7-3.5,5.7-2.7,9.1c1,4.3,3.6,7.2,7.9,8.4c-0.3,0-0.5,0-0.8-0.1c-4.8-1.1-8.4-5.9-8.5-10.9
		c0-2.9,1-5.4,2.9-7.5c0.4-0.4,0.4-0.7,0.2-1.2c-0.6-1.6-1.2-3.1-1.9-4.7c-0.8-2-1.6-3.9-2.5-6c-0.8,1.1-1.6,2.1-2.3,3.1
		c-2.4,3.4-4.5,7.1-5.8,11.1c-1,3.3-1.3,6.6-0.7,10c0.8,4,2.9,7.4,5.7,10.3C33.2,95.8,39.2,97.2,46,96z M33.3,47.8
		c1.5-1.5,2.9-3,4.2-4.4c2.7-2.9,5.3-5.9,7.4-9.3c2.2-3.6,3.9-7.3,4.1-11.6c0.1-3.2-0.8-6-3.3-8.1c-1.4-1.2-2.9-1.8-4.9-1
		c-4.2,1.8-7.2,4.7-9.2,8.8c-2,4.2-2.4,8.6-1.9,13.1C30.2,39.6,31.5,43.7,33.3,47.8z M51.3,93.7c2.7-1.8,4.7-3.9,6.2-6.6
		c1.5-2.8,2.2-5.7,1.8-8.9c-0.4-3.3-1.9-6.2-4.2-8.6c-2.8-2.9-6.1-4.4-10.2-4.1c-0.9,0.1-1.7,0.3-2.8,0.5
		C46.8,74.8,49,84.2,51.3,93.7z"/>
</g>
<path id="XMLID_2123_" d="M61.2,19c0,7.3,0,14.5,0,22.2c2.2-0.4,3.9-0.8,5.7-1.1c4.1-0.7,5.9,1.4,4.6,5.2c-1.6,5-5.6,8.1-11.5,8.8
	c0-11.7,0-23.4,0-35.2C60.3,19,60.8,19,61.2,19z M61.2,51.7c0.4,0.2,0.8,0.4,1.1,0.6c1.8-1.8,3.8-3.5,5.3-5.6c0.6-0.8,0-2.4,0-3.6
	c-1.6,0.1-3.2,0-4.7,0.4c-0.7,0.2-1.5,1.2-1.6,1.9C61,47.5,61.2,49.6,61.2,51.7z"/>
<path id="XMLID_2120_" d="M69.2,1c0,7.3,0,14.5,0,22.2c2.2-0.4,3.9-0.8,5.7-1.1c4.1-0.7,5.9,1.4,4.6,5.2c-1.6,5-5.6,8.1-11.5,8.8
	c0-11.7,0-23.4,0-35.2C68.3,1,68.8,1,69.2,1z M69.2,33.7c0.4,0.2,0.8,0.4,1.1,0.6c1.8-1.8,3.8-3.5,5.3-5.6c0.6-0.8,0-2.4,0-3.6
	c-1.6,0.1-3.2,0-4.7,0.4c-0.7,0.2-1.5,1.2-1.6,1.9C69,29.5,69.2,31.6,69.2,33.7z"/>
<path id="XMLID_2117_" d="M77.7,37c0,7.3,0,14.5,0,22.2c2.2-0.4,3.9-0.8,5.7-1.1c4.1-0.7,5.9,1.4,4.6,5.2c-1.6,5-5.6,8.1-11.5,8.8
	c0-11.7,0-23.4,0-35.2C76.9,37,77.3,37,77.7,37z M77.7,69.7c0.4,0.2,0.8,0.4,1.1,0.6c1.8-1.8,3.8-3.5,5.3-5.6c0.6-0.8,0-2.4,0-3.6
	c-1.6,0.1-3.2,0-4.7,0.4c-0.7,0.2-1.5,1.2-1.6,1.9C77.5,65.5,77.7,67.6,77.7,69.7z"/>
<path id="XMLID_2114_" d="M85.7,19c0,7.3,0,14.5,0,22.2c2.2-0.4,3.9-0.8,5.7-1.1c4.1-0.7,5.9,1.4,4.6,5.2c-1.6,5-5.6,8.1-11.5,8.8
	c0-11.7,0-23.4,0-35.2C84.9,19,85.3,19,85.7,19z M85.7,51.7c0.4,0.2,0.8,0.4,1.1,0.6c1.8-1.8,3.8-3.5,5.3-5.6c0.6-0.8,0-2.4,0-3.6
	c-1.6,0.1-3.2,0-4.7,0.4c-0.7,0.2-1.5,1.2-1.6,1.9C85.5,47.5,85.7,49.6,85.7,51.7z"/>
<path id="XMLID_2111_" d="M94.4,54c0,7.3,0,14.5,0,22.2c2.2-0.4,3.9-0.8,5.7-1.1c4.1-0.7,5.9,1.4,4.6,5.2c-1.6,5-5.6,8.1-11.5,8.8
	c0-11.7,0-23.4,0-35.2C93.6,54,94,54,94.4,54z M94.4,86.7c0.4,0.2,0.8,0.4,1.1,0.6c1.8-1.8,3.8-3.5,5.3-5.6c0.6-0.8,0-2.4,0-3.6
	c-1.6,0.1-3.2,0-4.7,0.4c-0.7,0.2-1.5,1.2-1.6,1.9C94.3,82.5,94.4,84.6,94.4,86.7z"/>
<path id="XMLID_1432_" d="M126.5,106.1c0,2.3,0,4.5,0,6.9c0.7-0.1,1.2-0.3,1.8-0.3c1.3-0.2,1.8,0.4,1.5,1.6
	c-0.5,1.6-1.7,2.5-3.6,2.8c0-3.7,0-7.3,0-11C126.2,106.1,126.4,106.1,126.5,106.1z M126.5,116.4c0.1,0.1,0.2,0.1,0.4,0.2
	c0.6-0.6,1.2-1.1,1.6-1.7c0.2-0.2,0-0.7,0-1.1c-0.5,0-1,0-1.5,0.1c-0.2,0.1-0.5,0.4-0.5,0.6C126.5,115.1,126.5,115.7,126.5,116.4z"
	/>
<path id="XMLID_1435_" d="M157.3,94.8c0,2.3,0,4.5,0,6.9c0.7-0.1,1.2-0.3,1.8-0.3c1.3-0.2,1.8,0.4,1.5,1.6c-0.5,1.6-1.7,2.5-3.6,2.8
	c0-3.7,0-7.3,0-11C157.1,94.8,157.2,94.8,157.3,94.8z M157.3,105c0.1,0.1,0.2,0.1,0.4,0.2c0.6-0.6,1.2-1.1,1.6-1.7
	c0.2-0.2,0-0.7,0-1.1c-0.5,0-1,0-1.5,0.1c-0.2,0.1-0.5,0.4-0.5,0.6C157.3,103.7,157.3,104.4,157.3,105z"/>
<path id="XMLID_1438_" d="M221.2,74.5c0,2.3,0,4.5,0,6.9c0.7-0.1,1.2-0.3,1.8-0.3c1.3-0.2,1.8,0.4,1.5,1.6c-0.5,1.6-1.7,2.5-3.6,2.8
	c0-3.7,0-7.3,0-11C221,74.5,221.1,74.5,221.2,74.5z M221.2,84.7c0.1,0.1,0.2,0.1,0.4,0.2c0.6-0.6,1.2-1.1,1.6-1.7
	c0.2-0.2,0-0.7,0-1.1c-0.5,0-1,0-1.5,0.1c-0.2,0.1-0.5,0.4-0.5,0.6C221.2,83.4,221.2,84.1,221.2,84.7z"/>
<path id="XMLID_1441_" d="M254.4,65.1c0,2.3,0,4.5,0,6.9c0.7-0.1,1.2-0.3,1.8-0.3c1.3-0.2,1.8,0.4,1.5,1.6c-0.5,1.6-1.7,2.5-3.6,2.8
	c0-3.7,0-7.3,0-11C254.1,65.1,254.3,65.1,254.4,65.1z M254.4,75.3c0.1,0.1,0.2,0.1,0.4,0.2c0.6-0.6,1.2-1.1,1.6-1.7
	c0.2-0.2,0-0.7,0-1.1c-0.5,0-1,0-1.5,0.1c-0.2,0.1-0.5,0.4-0.5,0.6C254.3,74,254.4,74.6,254.4,75.3z"/>
<path id="XMLID_1472_" d="M285.5,54.5c0,2.3,0,4.5,0,6.9c0.7-0.1,1.2-0.3,1.8-0.3c1.3-0.2,1.8,0.4,1.5,1.6c-0.5,1.6-1.7,2.5-3.6,2.8
	c0-3.7,0-7.3,0-11C285.2,54.5,285.4,54.5,285.5,54.5z M285.5,64.8c0.1,0.1,0.2,0.1,0.4,0.2c0.6-0.6,1.2-1.1,1.6-1.7
	c0.2-0.2,0-0.7,0-1.1c-0.5,0-1,0-1.5,0.1c-0.2,0.1-0.5,0.4-0.5,0.6C285.4,63.4,285.5,64.1,285.5,64.8z"/>
<path id="XMLID_567_" d="M351.1,34.2c0,2.3,0,4.5,0,6.9c0.7-0.1,1.2-0.3,1.8-0.3c1.3-0.2,1.8,0.4,1.5,1.6c-0.5,1.6-1.7,2.5-3.6,2.8
	c0-3.7,0-7.3,0-11C350.9,34.2,351,34.2,351.1,34.2z M351.1,44.4c0.1,0.1,0.2,0.1,0.4,0.2c0.6-0.6,1.2-1.1,1.6-1.7
	c0.2-0.2,0-0.7,0-1.1c-0.5,0-1,0-1.5,0.1c-0.2,0.1-0.5,0.4-0.5,0.6C351.1,43.1,351.1,43.7,351.1,44.4z"/>
<path id="XMLID_634_" d="M458.5,54.9c0,2.3,0,4.5,0,6.9c0.7-0.1,1.2-0.3,1.8-0.3c1.3-0.2,1.8,0.4,1.5,1.6c-0.5,1.6-1.7,2.5-3.6,2.8
	c0-3.7,0-7.3,0-11C458.2,54.9,458.4,54.9,458.5,54.9z M458.5,65.1c0.1,0.1,0.2,0.1,0.4,0.2c0.6-0.6,1.2-1.1,1.6-1.7
	c0.2-0.2,0-0.7,0-1.1c-0.5,0-1,0-1.5,0.1c-0.2,0.1-0.5,0.4-0.5,0.6C458.4,63.8,458.5,64.5,458.5,65.1z"/>
<path id="XMLID_637_" d="M491,63.9c0,2.3,0,4.5,0,6.9c0.7-0.1,1.2-0.3,1.8-0.3c1.3-0.2,1.8,0.4,1.5,1.6c-0.5,1.6-1.7,2.5-3.6,2.8
	c0-3.7,0-7.3,0-11C490.7,63.9,490.8,63.9,491,63.9z M491,74.1c0.1,0.1,0.2,0.1,0.4,0.2c0.6-0.6,1.2-1.1,1.6-1.7c0.2-0.2,0-0.7,0-1.1
	c-0.5,0-1,0-1.5,0.1c-0.2,0.1-0.5,0.4-0.5,0.6C490.9,72.8,491,73.5,491,74.1z"/>
<path id="XMLID_1480_" d="M554.5,85.5c0,2.3,0,4.5,0,6.9c0.7-0.1,1.2-0.3,1.8-0.3c1.3-0.2,1.8,0.4,1.5,1.6c-0.5,1.6-1.7,2.5-3.6,2.8
	c0-3.7,0-7.3,0-11C554.3,85.5,554.4,85.5,554.5,85.5z M554.5,95.7c0.1,0.1,0.2,0.1,0.4,0.2c0.6-0.6,1.2-1.1,1.6-1.7
	c0.2-0.2,0-0.7,0-1.1c-0.5,0-1,0-1.5,0.1c-0.2,0.1-0.5,0.4-0.5,0.6C554.5,94.4,554.5,95.1,554.5,95.7z"/>
<path id="XMLID_1485_" d="M585.8,95.2c0,2.3,0,4.5,0,6.9c0.7-0.1,1.2-0.3,1.8-0.3c1.3-0.2,1.8,0.4,1.5,1.6c-0.5,1.6-1.7,2.5-3.6,2.8
	c0-3.7,0-7.3,0-11C585.6,95.2,585.7,95.2,585.8,95.2z M585.8,105.4c0.1,0.1,0.2,0.1,0.4,0.2c0.6-0.6,1.2-1.1,1.6-1.7
	c0.2-0.2,0-0.7,0-1.1c-0.5,0-1,0-1.5,0.1c-0.2,0.1-0.5,0.4-0.5,0.6C585.8,104.1,585.8,104.7,585.8,105.4z"/>
<path id="XMLID_1599_" d="M619,106.1c0,2.3,0,4.5,0,6.9c0.7-0.1,1.2-0.3,1.8-0.3c1.3-0.2,1.8,0.4,1.5,1.6c-0.5,1.6-1.7,2.5-3.6,2.8
	c0-3.7,0-7.3,0-11C618.8,106.1,618.9,106.1,619,106.1z M619,116.4c0.1,0.1,0.2,0.1,0.4,0.2c0.6-0.6,1.2-1.1,1.6-1.7
	c0.2-0.2,0-0.7,0-1.1c-0.5,0-1,0-1.5,0.1c-0.2,0.1-0.5,0.4-0.5,0.6C619,115.1,619,115.7,619,116.4z"/>
<path id="XMLID_640_" d="M522.3,74c0,2.3,0,4.5,0,6.9c0.7-0.1,1.2-0.3,1.8-0.3c1.3-0.2,1.8,0.4,1.5,1.6c-0.5,1.6-1.7,2.5-3.6,2.8
	c0-3.7,0-7.3,0-11C522,74,522.1,74,522.3,74z M522.3,84.2c0.1,0.1,0.2,0.1,0.4,0.2c0.6-0.6,1.2-1.1,1.6-1.7c0.2-0.2,0-0.7,0-1.1
	c-0.5,0-1,0-1.5,0.1c-0.2,0.1-0.5,0.4-0.5,0.6C522.2,82.9,522.3,83.6,522.3,84.2z"/>
<path id="XMLID_631_" d="M395.4,34.2c0,2.3,0,4.5,0,6.9c0.7-0.1,1.2-0.3,1.8-0.3c1.3-0.2,1.8,0.4,1.5,1.6c-0.5,1.6-1.7,2.5-3.6,2.8
	c0-3.7,0-7.3,0-11C395.2,34.2,395.3,34.2,395.4,34.2z M395.4,44.4c0.1,0.1,0.2,0.1,0.4,0.2c0.6-0.6,1.2-1.1,1.6-1.7
	c0.2-0.2,0-0.7,0-1.1c-0.5,0-1,0-1.5,0.1c-0.2,0.1-0.5,0.4-0.5,0.6C395.4,43.1,395.4,43.7,395.4,44.4z"/>
</svg>
