<?xml version="1.0" encoding="UTF-8"?>
<!DOCTYPE svg PUBLIC "-//W3C//DTD SVG 1.1//EN" "http://www.w3.org/Graphics/SVG/1.1/DTD/svg11.dtd">
<svg xmlns="http://www.w3.org/2000/svg" version="1.1" width="5297px" height="959px" style="shape-rendering:geometricPrecision; text-rendering:geometricPrecision; image-rendering:optimizeQuality; fill-rule:evenodd; clip-rule:evenodd" xmlns:xlink="http://www.w3.org/1999/xlink">
<g><path style="opacity:0.95" fill="#000000" d="M 251.5,-0.5 C 252.167,-0.5 252.833,-0.5 253.5,-0.5C 275.07,26.6337 290.904,56.967 301,90.5C 303.728,102.34 305.228,114.34 305.5,126.5C 304.712,143.926 303.045,161.259 300.5,178.5C 1563.83,178.5 2827.17,178.5 4090.5,178.5C 4090.55,172.675 4092.22,167.341 4095.5,162.5C 4098.83,166.669 4101.99,171.003 4105,175.5C 4106.21,177.049 4107.71,178.215 4109.5,179C 4118.74,180.091 4128.07,180.258 4137.5,179.5C 4137.33,171.16 4137.5,162.827 4138,154.5C 4141.33,149.141 4144.33,149.475 4147,155.5C 4148.11,162.115 4148.77,168.782 4149,175.5C 4150.8,177.317 4152.97,178.484 4155.5,179C 4535.83,179.5 4916.17,179.667 5296.5,179.5C 5296.5,183.167 5296.5,186.833 5296.5,190.5C 5159.17,190.333 5021.83,190.5 4884.5,191C 4894.44,195.609 4903.27,201.775 4911,209.5C 4924.54,230.468 4921.71,248.968 4902.5,265C 4898.5,267.667 4894.5,270.333 4890.5,273C 5025.83,273.5 5161.17,273.667 5296.5,273.5C 5296.5,277.167 5296.5,280.833 5296.5,284.5C 4990.83,284.333 4685.17,284.5 4379.5,285C 4375.87,285.564 4372.71,287.064 4370,289.5C 4364.25,304.246 4354.09,314.746 4339.5,321C 4301.63,334.605 4263.63,334.939 4225.5,322C 4209.18,315.675 4198.34,304.175 4193,287.5C 4192.1,286.299 4190.93,285.465 4189.5,285C 4175.84,284.5 4162.17,284.333 4148.5,284.5C 4148.33,290.176 4148.5,295.843 4149,301.5C 4154.72,300.019 4160.55,299.019 4166.5,298.5C 4167.27,307.492 4167.44,316.492 4167,325.5C 4164.53,332.961 4159.37,337.128 4151.5,338C 4150.33,338.5 4149.5,339.333 4149,340.5C 4147.37,349.489 4147.21,358.489 4148.5,367.5C 4531.17,367.5 4913.83,367.5 5296.5,367.5C 5296.5,371.5 5296.5,375.5 5296.5,379.5C 4914.5,379.333 4532.5,379.5 4150.5,380C 4148.15,385.876 4145.65,391.71 4143,397.5C 4139.71,391.747 4136.54,385.913 4133.5,380C 4122.84,379.5 4112.17,379.333 4101.5,379.5C 4102.86,387.849 4102.69,396.182 4101,404.5C 4097.83,410.82 4094.83,410.487 4092,403.5C 4092.12,395.068 4091.29,386.901 4089.5,379C 3915.5,378.333 3741.5,378.333 3567.5,379C 3559.71,380.125 3554.21,384.291 3551,391.5C 3549.83,406.472 3549.17,421.472 3549,436.5C 3547.92,438.996 3546.59,441.33 3545,443.5C 3543.64,442.62 3542.14,442.286 3540.5,442.5C 3540.67,424.164 3540.5,405.83 3540,387.5C 3532.07,390.422 3523.9,392.589 3515.5,394C 3507.01,397.494 3503.01,403.827 3503.5,413C 3504.54,424.487 3504.71,435.987 3504,447.5C 3502.8,453.246 3499.64,455.912 3494.5,455.5C 3494.5,437.833 3494.5,420.167 3494.5,402.5C 3488.12,403.958 3481.79,405.625 3475.5,407.5C 3474.53,397.851 3473.87,388.184 3473.5,378.5C 3377.83,378.333 3282.17,378.5 3186.5,379C 3182.94,379.739 3179.77,381.239 3177,383.5C 3171.56,397.937 3161.73,408.104 3147.5,414C 3110.7,428.446 3073.7,429.113 3036.5,416C 3021.54,409.042 3009.71,398.542 3001,384.5C 2998.56,382.031 2995.73,380.198 2992.5,379C 2860.5,378.333 2728.5,378.333 2596.5,379C 2596.17,379.333 2595.83,379.667 2595.5,380C 2609,387.831 2618.5,398.997 2624,413.5C 2625.9,424.214 2623.57,433.88 2617,442.5C 2610.72,449.789 2603.55,455.956 2595.5,461C 3495.83,461.5 4396.17,461.667 5296.5,461.5C 5296.5,465.5 5296.5,469.5 5296.5,473.5C 4222.17,473.167 3147.83,473.5 2073.5,474.5C 2067.73,491.441 2056.39,502.941 2039.5,509C 2002.5,522.999 1965.5,522.999 1928.5,509C 1912.88,503.05 1902.38,492.217 1897,476.5C 1896.1,475.299 1894.93,474.465 1893.5,474C 1879.88,472.594 1866.22,472.094 1852.5,472.5C 1852.5,477.833 1852.5,483.167 1852.5,488.5C 1858.5,487.167 1864.5,485.833 1870.5,484.5C 1870.08,493.804 1869.92,503.137 1870,512.5C 1869.24,515.196 1868.07,517.696 1866.5,520C 1862.55,522.81 1858.21,524.81 1853.5,526C 1852.87,526.75 1852.37,527.584 1852,528.5C 1850.65,537.441 1850.15,546.441 1850.5,555.5C 2999.17,555.5 4147.83,555.5 5296.5,555.5C 5296.5,559.167 5296.5,562.833 5296.5,566.5C 4148.83,566.167 3001.17,566.5 1853.5,567.5C 1851.44,573.952 1848.61,579.952 1845,585.5C 1843.53,585.097 1842.19,584.43 1841,583.5C 1840.02,578.207 1839.52,572.874 1839.5,567.5C 1828.17,567.5 1816.83,567.5 1805.5,567.5C 1806.42,577.709 1804.59,587.376 1800,596.5C 1794.13,587.63 1792.29,577.963 1794.5,567.5C 1621.18,566.346 1447.84,566.18 1274.5,567C 1268.5,567.582 1262.84,569.248 1257.5,572C 1254.27,576.241 1252.77,581.074 1253,586.5C 1252.67,599.833 1252.33,613.167 1252,626.5C 1250.96,628.746 1249.79,630.913 1248.5,633C 1247.1,633.595 1245.77,633.428 1244.5,632.5C 1243.67,613.842 1243.17,595.176 1243,576.5C 1233.88,579.741 1224.71,582.908 1215.5,586C 1211.23,587.27 1208.73,590.104 1208,594.5C 1207.86,609.531 1207.19,624.531 1206,639.5C 1205.03,641.305 1203.86,642.972 1202.5,644.5C 1200.05,642.224 1198.22,639.558 1197,636.5C 1196.67,621.833 1196.33,607.167 1196,592.5C 1190,593.833 1184,595.167 1178,596.5C 1177.5,586.839 1177.33,577.172 1177.5,567.5C 1080.51,566.357 983.509,566.19 886.5,567C 884.051,567.725 881.717,568.725 879.5,570C 874.167,576.667 868.833,583.333 863.5,590C 857.968,595.185 851.634,599.185 844.5,602C 807.461,615.962 770.461,615.962 733.5,602C 730.339,600.587 727.339,598.92 724.5,597C 717.064,588.808 709.397,580.808 701.5,573C 698.446,570.806 695.112,569.139 691.5,568C 555.174,566.557 418.84,566.057 282.5,566.5C 285.6,582.499 288.766,598.499 292,614.5C 297.885,651.562 284.385,679.062 251.5,697C 217.841,714.49 184.841,713.49 152.5,694C 131.663,674.811 125.496,651.644 134,624.5C 143.911,603.595 160.411,594.095 183.5,596C 206.651,603.624 218.984,619.624 220.5,644C 219.851,660.969 212.184,673.636 197.5,682C 190.616,685.275 183.616,688.275 176.5,691C 196.241,700.65 216.241,700.983 236.5,692C 258.179,682.989 273.012,667.489 281,645.5C 282.497,637.221 282.831,628.888 282,620.5C 278.743,605.548 275.743,590.548 273,575.5C 271.427,570.929 268.26,568.096 263.5,567C 178.167,566.667 92.8333,566.333 7.5,566C 4.79341,565.605 2.12674,565.105 -0.5,564.5C -0.5,562.5 -0.5,560.5 -0.5,558.5C 62.1667,558.5 124.833,558.5 187.5,558.5C 187.719,557.325 187.386,556.325 186.5,555.5C 148.934,546.048 118.101,526.382 94,496.5C 90.0842,491.004 86.4175,485.337 83,479.5C 77.4899,474.552 70.9899,472.385 63.5,473C 41.9377,473.14 20.6044,472.306 -0.5,470.5C -0.5,469.167 -0.5,467.833 -0.5,466.5C 1.60887,465.609 3.60887,464.442 5.5,463C 27.4868,461.366 49.4868,461.199 71.5,462.5C 72.4484,434.48 73.7818,406.48 75.5,378.5C 54.5579,378.397 33.5579,378.23 12.5,378C 8.13708,377.631 3.80375,377.131 -0.5,376.5C -0.5,374.167 -0.5,371.833 -0.5,369.5C 25.4887,368.754 51.4887,368.254 77.5,368C 79.6079,367.64 81.6079,366.973 83.5,366C 101.207,339.422 118.54,312.589 135.5,285.5C 90.1666,284.698 44.8332,284.031 -0.5,283.5C -0.5,280.833 -0.5,278.167 -0.5,275.5C 46.8215,274.707 94.1548,274.207 141.5,274C 150.009,272.08 157.342,268.08 163.5,262C 174.333,251.833 185.167,241.667 196,231.5C 197.838,228.963 198.671,226.129 198.5,223C 195.922,212.275 193.922,201.441 192.5,190.5C 130.507,189.721 68.507,189.221 6.5,189C 4.18732,188.338 1.85398,187.838 -0.5,187.5C -0.5,185.5 -0.5,183.5 -0.5,181.5C 63.0955,180.504 126.762,180.171 190.5,180.5C 190.101,143.022 195.268,106.356 206,70.5C 215.68,43.0968 230.847,19.4301 251.5,-0.5 Z M 260.5,55.5 C 266.312,57.4717 270.812,61.1384 274,66.5C 284.924,80.871 288.258,96.871 284,114.5C 279.386,132.391 272.053,149.058 262,164.5C 254.58,175.794 244.08,181.127 230.5,180.5C 222.772,180.242 215.105,179.409 207.5,178C 206.388,139.95 215.388,104.45 234.5,71.5C 242.482,64.8104 251.148,59.4771 260.5,55.5 Z M 304.5,189.5 C 1566.83,189.5 2829.17,189.5 4091.5,189.5C 4091.67,198.506 4091.5,207.506 4091,216.5C 4090.29,218.081 4089.46,219.581 4088.5,221C 4085.03,223.279 4081.36,225.112 4077.5,226.5C 4075.16,229.166 4073.33,232.166 4072,235.5C 4071.5,244.16 4071.33,252.827 4071.5,261.5C 4077.85,260.593 4084.18,259.593 4090.5,258.5C 4090.5,263.5 4090.5,268.5 4090.5,273.5C 3916.83,273.5 3743.17,273.5 3569.5,273.5C 3569.83,263.478 3569.5,253.478 3568.5,243.5C 3563.17,244.833 3557.83,246.167 3552.5,247.5C 3552.17,247.167 3551.83,246.833 3551.5,246.5C 3549.31,236.597 3548.98,226.597 3550.5,216.5C 3551.02,209.261 3549.69,202.428 3546.5,196C 3544.19,195.503 3541.86,195.337 3539.5,195.5C 3539.23,210.021 3539.56,224.521 3540.5,239C 3540.32,245.031 3537.98,250.031 3533.5,254C 3524.59,256.601 3515.76,259.435 3507,262.5C 3505.11,257.561 3503.94,252.394 3503.5,247C 3504.63,236.868 3504.8,226.701 3504,216.5C 3503.47,213.736 3502.63,211.07 3501.5,208.5C 3498.91,207.52 3496.25,207.187 3493.5,207.5C 3493.95,226.222 3493.45,244.888 3492,263.5C 3490.54,265.96 3488.71,268.127 3486.5,270C 3481.72,272.113 3476.72,273.446 3471.5,274C 2395.17,274.833 1318.83,274.667 242.5,273.5C 260.196,247.636 277.696,221.636 295,195.5C 298.147,193.35 301.313,191.35 304.5,189.5 Z M 4114.5,189.5 C 4121.83,189.5 4129.17,189.5 4136.5,189.5C 4136.67,193.846 4136.5,198.179 4136,202.5C 4134.41,207.052 4131.25,209.885 4126.5,211C 4118.98,213.299 4111.31,214.799 4103.5,215.5C 4103.5,207.167 4103.5,198.833 4103.5,190.5C 4107.37,190.815 4111.04,190.482 4114.5,189.5 Z M 205.5,191.5 C 216.659,190.341 227.992,190.174 239.5,191C 229.333,201.167 219.167,211.333 209,221.5C 208.019,211.329 206.852,201.329 205.5,191.5 Z M 4148.5,190.5 C 4357.83,190.333 4567.17,190.5 4776.5,191C 4765.88,196.727 4756.71,204.227 4749,213.5C 4742.07,224.597 4741.74,235.93 4748,247.5C 4754.78,257.276 4762.61,266.109 4771.5,274C 4640.17,274.667 4508.83,274.667 4377.5,274C 4374.55,273.194 4371.89,271.861 4369.5,270C 4355.17,246.648 4334.17,233.648 4306.5,231C 4270.97,224.371 4238.31,231.038 4208.5,251C 4203.9,255.037 4200.4,259.871 4198,265.5C 4195.46,268.372 4192.63,270.872 4189.5,273C 4175.91,274.446 4162.24,274.946 4148.5,274.5C 4148.33,263.495 4148.5,252.495 4149,241.5C 4149.37,240.584 4149.87,239.75 4150.5,239C 4158.22,238.232 4163.72,234.398 4167,227.5C 4167.14,217.79 4167.31,208.123 4167.5,198.5C 4161.19,199.628 4154.86,200.628 4148.5,201.5C 4148.5,197.833 4148.5,194.167 4148.5,190.5 Z M 4812.5,190.5 C 4840.95,187.483 4860.45,199.149 4871,225.5C 4874.31,233.709 4876.48,242.209 4877.5,251C 4873.97,265.461 4864.63,272.794 4849.5,273C 4816.88,275.02 4795.71,260.52 4786,229.5C 4781.49,207.142 4790.32,194.142 4812.5,190.5 Z M 4262.5,238.5 C 4291.45,235.167 4310.45,247.167 4319.5,274.5C 4293.41,274.982 4267.41,274.482 4241.5,273C 4236.74,268.509 4235.24,263.009 4237,256.5C 4238.62,252.103 4241.12,248.269 4244.5,245C 4250.29,241.905 4256.29,239.739 4262.5,238.5 Z M 4133.5,243.5 C 4134.5,243.5 4135.5,243.5 4136.5,243.5C 4136.5,253.5 4136.5,263.5 4136.5,273.5C 4125.81,273.832 4115.15,273.499 4104.5,272.5C 4102.65,267.303 4102.15,261.97 4103,256.5C 4104.5,255 4106,253.5 4107.5,252C 4115.98,248.227 4124.65,245.394 4133.5,243.5 Z M 4114.5,283.5 C 4121.29,283.612 4127.96,284.445 4134.5,286C 4137.36,291.658 4137.86,297.491 4136,303.5C 4134.59,304.787 4133.09,305.954 4131.5,307C 4122.79,310.569 4113.96,313.736 4105,316.5C 4101.88,308.493 4100.88,300.159 4102,291.5C 4104.69,286.41 4108.86,283.744 4114.5,283.5 Z M 4249.5,283.5 C 4272.85,283.348 4296.18,283.848 4319.5,285C 4323.24,287.069 4325.9,290.069 4327.5,294C 4322.58,316.481 4308.58,326.148 4285.5,323C 4263.5,318.666 4248.5,306 4240.5,285C 4243.69,284.819 4246.69,284.319 4249.5,283.5 Z M 229.5,284.5 C 1310.83,284.5 2392.17,284.5 3473.5,284.5C 3473.74,292.33 3474.57,299.997 3476,307.5C 3481.64,306.039 3487.31,304.705 3493,303.5C 3493.67,322.833 3493.67,342.167 3493,361.5C 3491.33,365.165 3488.5,367.332 3484.5,368C 3384.5,368.667 3284.5,368.667 3184.5,368C 3182.05,367.275 3179.72,366.275 3177.5,365C 3172.93,357.756 3167.59,351.09 3161.5,345C 3113.97,314.503 3065.97,313.836 3017.5,343C 3010.71,348.921 3005.38,355.921 3001.5,364C 2999.11,365.861 2996.45,367.194 2993.5,368C 2612.83,368.5 2232.17,368.667 1851.5,368.5C 1852.25,357.691 1850.42,347.358 1846,337.5C 1840.13,346.631 1837.96,356.631 1839.5,367.5C 1828.48,367.832 1817.48,367.499 1806.5,366.5C 1805.39,361.534 1804.39,356.534 1803.5,351.5C 1802.04,348.592 1799.87,347.925 1797,349.5C 1795.02,355.735 1793.52,362.068 1792.5,368.5C 1280.16,368.991 767.824,368.491 255.5,367C 247.098,368.385 241.265,365.218 238,357.5C 232.626,334.633 228.293,311.633 225,288.5C 226.397,286.93 227.897,285.596 229.5,284.5 Z M 3557.5,284.5 C 3580.5,284.333 3603.5,284.5 3626.5,285C 3618.08,290.746 3610.25,297.246 3603,304.5C 3590.81,325.539 3594.31,343.705 3613.5,359C 3617.5,361.667 3621.5,364.333 3625.5,367C 3607.17,367.5 3588.84,367.667 3570.5,367.5C 3569.74,359.858 3569.4,352.191 3569.5,344.5C 3563.15,344.979 3556.81,345.646 3550.5,346.5C 3550.33,327.83 3550.5,309.164 3551,290.5C 3552.91,288.144 3555.08,286.144 3557.5,284.5 Z M 3663.5,284.5 C 3695.2,283.064 3716.7,297.064 3728,326.5C 3733.25,348.856 3724.75,362.356 3702.5,367C 3688.87,369.839 3676.2,367.506 3664.5,360C 3644.45,346.4 3635.95,327.566 3639,303.5C 3640.58,296.255 3644.74,291.089 3651.5,288C 3655.54,286.509 3659.54,285.342 3663.5,284.5 Z M 3742.5,285.5 C 3858.67,284.5 3975,284.167 4091.5,284.5C 4091.91,295.564 4091.41,306.564 4090,317.5C 4088.95,319.09 4087.79,320.59 4086.5,322C 4080.56,322.077 4076.06,324.577 4073,329.5C 4071.57,340.088 4071.07,350.755 4071.5,361.5C 4077.86,360.156 4084.19,358.989 4090.5,358C 4091.52,359.049 4091.68,360.216 4091,361.5C 4088.71,364.462 4085.88,366.629 4082.5,368C 3970.5,368.667 3858.5,368.667 3746.5,368C 3746.17,367.667 3745.83,367.333 3745.5,367C 3782.34,338.462 3781.34,311.296 3742.5,285.5 Z M 3538.5,287.5 C 3539.66,306.662 3539.83,325.996 3539,345.5C 3537.5,349.667 3534.67,352.5 3530.5,354C 3521.98,357.34 3513.31,360.173 3504.5,362.5C 3504.33,342.831 3504.5,323.164 3505,303.5C 3506.56,300.272 3509.06,298.105 3512.5,297C 3521.3,293.902 3529.97,290.735 3538.5,287.5 Z M 212.5,296.5 C 214.067,297.681 214.901,299.347 215,301.5C 219.822,323.451 224.322,345.451 228.5,367.5C 198.826,367.833 169.159,367.5 139.5,366.5C 160.663,339.667 184.996,316.333 212.5,296.5 Z M 3070.5,331.5 C 3090.98,329.482 3107.48,336.482 3120,352.5C 3123.02,357.525 3125.18,362.858 3126.5,368.5C 3099.74,368.982 3073.08,368.482 3046.5,367C 3044.2,364.455 3042.87,361.455 3042.5,358C 3042.92,349.836 3046.25,343.169 3052.5,338C 3058.29,334.905 3064.29,332.739 3070.5,331.5 Z M 4134.5,342.5 C 4136.47,350.769 4137.14,359.435 4136.5,368.5C 4127.83,368.666 4119.16,368.5 4110.5,368C 4107.31,366.906 4104.64,365.073 4102.5,362.5C 4103.5,358.647 4105.17,355.147 4107.5,352C 4116.43,348.303 4125.43,345.136 4134.5,342.5 Z M 134.5,378.5 C 156.503,378.333 178.503,378.5 200.5,379C 188.04,387.793 177.207,398.293 168,410.5C 159.673,426.45 155.84,443.45 156.5,461.5C 140.167,461.5 123.833,461.5 107.5,461.5C 105.239,432.043 112.573,405.209 129.5,381C 131.315,380.243 132.981,379.41 134.5,378.5 Z M 1854.5,378.5 C 2062.5,378.333 2270.5,378.5 2478.5,379C 2470.42,384.411 2462.92,390.578 2456,397.5C 2443.81,418.25 2446.98,436.416 2465.5,452C 2470.33,455.252 2475.33,458.252 2480.5,461C 2348.18,462.649 2215.85,462.983 2083.5,462C 2079.46,461.144 2075.79,459.478 2072.5,457C 2058.25,434.696 2037.92,421.696 2011.5,418C 1975.05,411.017 1941.38,417.684 1910.5,438C 1907.11,442.498 1904.28,447.332 1902,452.5C 1894.37,460.871 1884.87,464.205 1873.5,462.5C 1865.83,462.194 1858.16,461.861 1850.5,461.5C 1850.16,450.784 1850.66,440.118 1852,429.5C 1852.78,427.714 1853.95,426.214 1855.5,425C 1865.71,423.625 1870.71,417.791 1870.5,407.5C 1869.86,400.177 1869.36,392.843 1869,385.5C 1863.65,387.369 1858.15,388.203 1852.5,388C 1849.57,384.091 1850.24,380.924 1854.5,378.5 Z M 2513.5,378.5 C 2543.9,373.94 2565.07,385.607 2577,413.5C 2581.54,422.336 2583.21,431.669 2582,441.5C 2578.8,450.873 2572.3,456.707 2562.5,459C 2527.98,465.164 2504.48,451.998 2492,419.5C 2489.19,409.053 2490.19,399.053 2495,389.5C 2499.87,383.425 2506.04,379.759 2513.5,378.5 Z M 3047.5,378.5 C 3073.84,378.333 3100.17,378.5 3126.5,379C 3133.24,382.976 3135.74,388.809 3134,396.5C 3131.19,404.641 3125.69,410.141 3117.5,413C 3084.24,421.535 3060.9,410.035 3047.5,378.5 Z M 305.5,380.5 C 801.666,379.5 1298,379.167 1794.5,379.5C 1794.75,388.213 1794.25,396.88 1793,405.5C 1792.53,406.931 1791.7,408.097 1790.5,409C 1776.2,411.221 1770.87,419.554 1774.5,434C 1774.67,439.167 1774.83,444.333 1775,449.5C 1781.03,447.619 1787.19,446.286 1793.5,445.5C 1793.5,450.833 1793.5,456.167 1793.5,461.5C 1620.17,461.5 1446.83,461.5 1273.5,461.5C 1272.83,452.5 1272.17,443.5 1271.5,434.5C 1265.83,435.167 1260.17,435.833 1254.5,436.5C 1253.07,420.501 1251.57,404.501 1250,388.5C 1248.07,386.241 1245.57,385.241 1242.5,385.5C 1242.96,403.236 1242.46,420.902 1241,438.5C 1239.44,441.728 1236.94,443.895 1233.5,445C 1224.66,447.003 1216,449.503 1207.5,452.5C 1207.89,436.461 1207.39,420.461 1206,404.5C 1204.5,402.167 1203,399.833 1201.5,397.5C 1199.19,400.457 1197.69,403.791 1197,407.5C 1196.67,422.5 1196.33,437.5 1196,452.5C 1194.37,456.232 1191.54,458.399 1187.5,459C 1180.87,460.217 1174.2,461.217 1167.5,462C 897.167,462.667 626.833,462.667 356.5,462C 352.991,462.021 349.825,461.188 347,459.5C 345.307,448.034 342.973,436.701 340,425.5C 336.731,414.96 331.398,405.627 324,397.5C 317.706,391.943 311.54,386.276 305.5,380.5 Z M 1805.5,379.5 C 1816.5,379.5 1827.5,379.5 1838.5,379.5C 1839.75,386.258 1837.75,391.758 1832.5,396C 1824,400.209 1815,402.376 1805.5,402.5C 1805.5,394.833 1805.5,387.167 1805.5,379.5 Z M 254.5,409.5 C 281.79,409.932 299.624,423.266 308,449.5C 309.157,453.782 309.99,458.116 310.5,462.5C 297.163,462.667 283.829,462.5 270.5,462C 263.906,461.407 259.739,457.907 258,451.5C 255.288,438.269 252.454,425.103 249.5,412C 251.175,411.015 252.842,410.181 254.5,409.5 Z M 231.5,412.5 C 233.833,412.5 236.167,412.5 238.5,412.5C 242.15,428.434 245.484,444.434 248.5,460.5C 227.511,461.5 206.511,461.833 185.5,461.5C 185.774,439.716 196.108,424.883 216.5,417C 221.577,415.32 226.577,413.82 231.5,412.5 Z M 1974.5,424.5 C 1991.06,424.694 2004.22,431.361 2014,444.5C 2017.55,449.755 2020.71,455.255 2023.5,461C 1995.83,461.667 1968.17,461.667 1940.5,461C 1936.32,446.333 1940.98,435.666 1954.5,429C 1961.16,426.831 1967.83,425.331 1974.5,424.5 Z M 1835.5,431.5 C 1836.83,431.5 1838.17,431.5 1839.5,431.5C 1839.5,441.5 1839.5,451.5 1839.5,461.5C 1828.5,461.5 1817.5,461.5 1806.5,461.5C 1805.89,457.002 1805.22,452.502 1804.5,448C 1804.5,443.667 1806.5,440.667 1810.5,439C 1818.91,436.32 1827.24,433.82 1835.5,431.5 Z M 111.5,472.5 C 127.2,472.159 142.866,472.659 158.5,474C 165.811,481.643 173.477,488.976 181.5,496C 189.036,501.399 197.369,504.399 206.5,505C 199.555,494.389 192.222,484.056 184.5,474C 206.831,473.5 229.164,473.333 251.5,473.5C 255.639,494.359 259.972,515.192 264.5,536C 262.54,539.501 259.54,541.835 255.5,543C 225.392,553.133 196.059,551.133 167.5,537C 139.311,523.652 120.645,502.152 111.5,472.5 Z M 356.5,472.5 C 629.833,472.5 903.167,472.5 1176.5,472.5C 1176.5,480.5 1176.5,488.5 1176.5,496.5C 1182.9,495.887 1189.23,494.887 1195.5,493.5C 1195.5,514.167 1195.5,534.833 1195.5,555.5C 1091.51,556.654 987.515,556.82 883.5,556C 877.634,553.132 873.468,548.632 871,542.5C 857.935,527.205 841.435,517.372 821.5,513C 784.197,504.106 749.531,510.106 717.5,531C 711.581,536.351 706.747,542.517 703,549.5C 700.736,552.433 697.902,554.6 694.5,556C 559.167,556.667 423.833,556.667 288.5,556C 285.421,554.589 282.421,553.089 279.5,551.5C 281.138,548.696 282.971,546.029 285,543.5C 301.933,529.237 318.267,514.237 334,498.5C 335.64,494.608 336.973,490.608 338,486.5C 341.395,478.063 347.562,473.397 356.5,472.5 Z M 1279.5,472.5 C 1297.5,472.333 1315.5,472.5 1333.5,473C 1319.06,479.778 1308.22,490.278 1301,504.5C 1296.87,517.732 1299.21,529.732 1308,540.5C 1312.96,546.465 1318.79,551.298 1325.5,555C 1307.84,555.5 1290.17,555.667 1272.5,555.5C 1272.83,547.804 1272.5,540.138 1271.5,532.5C 1265.64,534.466 1259.64,535.799 1253.5,536.5C 1253.33,516.831 1253.5,497.164 1254,477.5C 1255.21,475.951 1256.71,474.785 1258.5,474C 1265.68,473.829 1272.68,473.329 1279.5,472.5 Z M 1943.5,473.5 C 1970.33,472.336 1997.33,472.17 2024.5,473C 2028.38,474.043 2030.71,476.543 2031.5,480.5C 2027.64,500.522 2015.47,510.522 1995,510.5C 1970.43,508.311 1953.26,495.978 1943.5,473.5 Z M 263.5,473.5 C 279.5,473.5 295.5,473.5 311.5,473.5C 310.413,488.998 304.913,502.664 295,514.5C 288.969,520.866 282.636,526.866 276,532.5C 271.259,512.964 267.093,493.298 263.5,473.5 Z M 1365.5,473.5 C 1385.46,471.094 1402.29,477.094 1416,491.5C 1425.13,503.755 1430.96,517.421 1433.5,532.5C 1431.52,546.31 1423.52,553.81 1409.5,555C 1386.64,559.046 1367.47,552.546 1352,535.5C 1341.17,520.805 1338.5,504.805 1344,487.5C 1349.48,480.181 1356.65,475.515 1365.5,473.5 Z M 1442.5,474.5 C 1559.67,473.5 1677,473.167 1794.5,473.5C 1794.84,483.883 1794.34,494.216 1793,504.5C 1792.53,505.931 1791.7,507.097 1790.5,508C 1782.99,508.252 1777.83,511.752 1775,518.5C 1774.33,527.833 1774.33,537.167 1775,546.5C 1780.49,546.702 1785.99,546.702 1791.5,546.5C 1792.47,548.573 1793.14,550.739 1793.5,553C 1793.25,554.326 1792.58,555.326 1791.5,556C 1676.83,556.667 1562.17,556.667 1447.5,556C 1457.71,548.79 1466.21,539.957 1473,529.5C 1477.65,516.746 1475.31,505.413 1466,495.5C 1458.89,487.551 1451.06,480.551 1442.5,474.5 Z M 1805.5,473.5 C 1816.17,473.333 1826.84,473.5 1837.5,474C 1843.21,486.451 1839.55,494.451 1826.5,498C 1819.83,499.835 1813.16,501.668 1806.5,503.5C 1805.5,493.522 1805.17,483.522 1805.5,473.5 Z M 1240.5,477.5 C 1241.83,486.809 1242.5,496.476 1242.5,506.5C 1242.63,517.235 1242.13,527.902 1241,538.5C 1239.46,540.378 1237.62,541.878 1235.5,543C 1226.3,546.346 1216.97,549.179 1207.5,551.5C 1207.33,531.831 1207.5,512.164 1208,492.5C 1209.17,490 1211,488.167 1213.5,487C 1222.66,483.97 1231.66,480.804 1240.5,477.5 Z M 775.5,517.5 C 801.691,518.908 819.025,531.908 827.5,556.5C 800.744,556.982 774.078,556.482 747.5,555C 740.811,543.493 742.811,533.493 753.5,525C 760.449,520.962 767.783,518.462 775.5,517.5 Z M 1836.5,529.5 C 1837.5,529.5 1838.5,529.5 1839.5,529.5C 1839.5,538.5 1839.5,547.5 1839.5,556.5C 1830.16,556.666 1820.83,556.5 1811.5,556C 1808.38,555.291 1806.38,553.458 1805.5,550.5C 1806,546.629 1807.34,543.129 1809.5,540C 1818.34,535.783 1827.34,532.283 1836.5,529.5 Z M 748.5,568.5 C 776.003,567.171 803.67,567.171 831.5,568.5C 837.869,582.266 834.202,592.433 820.5,599C 787.643,609.398 763.643,599.231 748.5,568.5 Z"/></g>
<g><path style="opacity:0.956" fill="#000000" d="M 1976.5,958.5 C 1958.83,958.5 1941.17,958.5 1923.5,958.5C 1892.13,942.436 1878.63,916.77 1883,881.5C 1890.53,849.308 1910.69,831.141 1943.5,827C 1969.45,824.412 1989.95,833.578 2005,854.5C 2007.35,858.203 2008.85,862.203 2009.5,866.5C 1993.37,869.848 1980.37,865.015 1970.5,852C 1950.72,843.564 1932.88,846.731 1917,861.5C 1901.48,882.407 1900.81,903.74 1915,925.5C 1931.5,943.75 1950.66,947.25 1972.5,936C 1980.25,928.252 1987.25,919.919 1993.5,911C 1992.64,910.311 1991.98,909.478 1991.5,908.5C 1975.51,907.501 1959.51,907.167 1943.5,907.5C 1943.03,901.509 1942.7,895.509 1942.5,889.5C 1966.41,889.172 1990.24,889.506 2014,890.5C 2016.85,921.815 2004.35,944.481 1976.5,958.5 Z"/></g>
<g><path style="opacity:0.954" fill="#000000" d="M 3675.5,958.5 C 3657.83,958.5 3640.17,958.5 3622.5,958.5C 3596.02,945.634 3582.36,924.301 3581.5,894.5C 3584.74,852.124 3607.58,829.458 3650,826.5C 3671.94,826.639 3689.61,835.306 3703,852.5C 3705.69,856.879 3707.53,861.546 3708.5,866.5C 3700.7,868.118 3693.03,867.618 3685.5,865C 3679.57,861.079 3674.24,856.412 3669.5,851C 3653.21,844.242 3637.55,845.576 3622.5,855C 3607.04,869.652 3601.54,887.486 3606,908.5C 3614.13,933.643 3631.29,944.81 3657.5,942C 3661.73,940.885 3665.73,939.219 3669.5,937C 3674.99,932.754 3680.66,928.754 3686.5,925C 3694.11,923.175 3701.77,921.675 3709.5,920.5C 3704.12,938.541 3692.79,951.207 3675.5,958.5 Z"/></g>
<g><path style="opacity:0.96" fill="#000000" d="M 829.5,958.5 C 805.167,958.5 780.833,958.5 756.5,958.5C 756.5,915.5 756.5,872.5 756.5,829.5C 780.5,829.5 804.5,829.5 828.5,829.5C 828.5,835.167 828.5,840.833 828.5,846.5C 811.833,846.5 795.167,846.5 778.5,846.5C 778.5,859.167 778.5,871.833 778.5,884.5C 793.5,884.5 808.5,884.5 823.5,884.5C 823.5,890.833 823.5,897.167 823.5,903.5C 808.5,903.5 793.5,903.5 778.5,903.5C 778.5,916.5 778.5,929.5 778.5,942.5C 795.167,942.5 811.833,942.5 828.5,942.5C 829.342,947.787 829.676,953.12 829.5,958.5 Z"/></g>
<g><path style="opacity:0.964" fill="#000000" d="M 1344.5,958.5 C 1336.83,958.5 1329.17,958.5 1321.5,958.5C 1321.5,915.5 1321.5,872.5 1321.5,829.5C 1347.17,829.5 1372.83,829.5 1398.5,829.5C 1398.5,835.5 1398.5,841.5 1398.5,847.5C 1380.5,847.5 1362.5,847.5 1344.5,847.5C 1344.5,860.167 1344.5,872.833 1344.5,885.5C 1358.17,885.5 1371.83,885.5 1385.5,885.5C 1385.5,891.5 1385.5,897.5 1385.5,903.5C 1371.83,903.5 1358.17,903.5 1344.5,903.5C 1344.5,921.833 1344.5,940.167 1344.5,958.5 Z"/></g>
<g><path style="opacity:0.963" fill="#000000" d="M 2595.5,958.5 C 2587.83,958.5 2580.17,958.5 2572.5,958.5C 2570.24,952.901 2568.08,947.234 2566,941.5C 2564.44,938.272 2561.94,936.105 2558.5,935C 2552.82,934.445 2547.15,934.612 2541.5,935.5C 2535.8,935.031 2530.14,934.364 2524.5,933.5C 2511.35,934.818 2503.35,941.984 2500.5,955C 2499.46,956.174 2498.46,957.341 2497.5,958.5C 2490.5,958.5 2483.5,958.5 2476.5,958.5C 2491.03,917.414 2505.86,876.414 2521,835.5C 2521.83,833.333 2523.33,831.833 2525.5,831C 2532.51,829.046 2539.51,829.046 2546.5,831C 2548.29,831.785 2549.79,832.951 2551,834.5C 2566.33,875.667 2581.17,917 2595.5,958.5 Z M 2535.5,857.5 C 2536.12,857.611 2536.62,857.944 2537,858.5C 2543.22,877.273 2549.72,895.94 2556.5,914.5C 2542.85,915.666 2529.18,915.833 2515.5,915C 2522.47,895.927 2529.14,876.761 2535.5,857.5 Z"/></g>
<g><path style="opacity:0.954" fill="#000000" d="M 3118.5,958.5 C 3093.5,958.5 3068.5,958.5 3043.5,958.5C 3043.5,915.5 3043.5,872.5 3043.5,829.5C 3066.87,829.075 3090.2,829.575 3113.5,831C 3126.39,834.259 3134.22,842.426 3137,855.5C 3139.63,871.558 3134.13,883.891 3120.5,892.5C 3126.16,897.324 3131.32,902.657 3136,908.5C 3145.79,930.593 3139.96,947.26 3118.5,958.5 Z M 3067.5,847.5 C 3079.56,847.085 3091.56,847.585 3103.5,849C 3114.25,855.139 3117.08,863.972 3112,875.5C 3109.25,879.567 3105.42,882.067 3100.5,883C 3089.51,883.5 3078.51,883.667 3067.5,883.5C 3067.5,871.5 3067.5,859.5 3067.5,847.5 Z M 3067.5,902.5 C 3075.51,902.334 3083.51,902.5 3091.5,903C 3113.81,902.798 3121.64,913.298 3115,934.5C 3112.74,937.433 3109.9,939.6 3106.5,941C 3093.56,942.422 3080.56,942.922 3067.5,942.5C 3067.5,929.167 3067.5,915.833 3067.5,902.5 Z"/></g>
<g><path style="opacity:0.963" fill="#000000" d="M 4257.5,958.5 C 4234.5,958.5 4211.5,958.5 4188.5,958.5C 4188.5,915.833 4188.5,873.167 4188.5,830.5C 4207.15,829.445 4225.82,829.278 4244.5,830C 4273.77,832.611 4291.94,848.111 4299,876.5C 4302.82,893.134 4301.82,909.467 4296,925.5C 4287.87,942.145 4275.03,953.145 4257.5,958.5 Z M 4210.5,847.5 C 4221.51,847.333 4232.51,847.5 4243.5,848C 4258.54,851.372 4269.04,860.205 4275,874.5C 4282.73,896.849 4278.56,916.683 4262.5,934C 4257.06,937.818 4251.06,940.485 4244.5,942C 4233.21,943.293 4221.87,943.793 4210.5,943.5C 4210.5,911.5 4210.5,879.5 4210.5,847.5 Z"/></g>
<g><path style="opacity:0.975" fill="#000000" d="M 4868.5,958.5 C 4844.83,958.5 4821.17,958.5 4797.5,958.5C 4797.5,915.5 4797.5,872.5 4797.5,829.5C 4821.17,829.5 4844.83,829.5 4868.5,829.5C 4868.5,835.167 4868.5,840.833 4868.5,846.5C 4852.17,846.5 4835.83,846.5 4819.5,846.5C 4819.5,858.833 4819.5,871.167 4819.5,883.5C 4833.83,883.5 4848.17,883.5 4862.5,883.5C 4862.5,890.167 4862.5,896.833 4862.5,903.5C 4848.17,903.5 4833.83,903.5 4819.5,903.5C 4819.5,916.5 4819.5,929.5 4819.5,942.5C 4835.83,942.5 4852.17,942.5 4868.5,942.5C 4868.5,947.833 4868.5,953.167 4868.5,958.5 Z"/></g>
<g><path style="opacity:0.894" fill="#000000" d="M 1409.5,868.5 C 1411.83,868.5 1414.17,868.5 1416.5,868.5C 1415.65,874.812 1414.98,881.145 1414.5,887.5C 1417.5,887.5 1420.5,887.5 1423.5,887.5C 1424.33,881.514 1425.17,875.514 1426,869.5C 1428.47,868.223 1430.97,868.223 1433.5,869.5C 1432.42,875.154 1431.42,880.821 1430.5,886.5C 1433.09,887.48 1435.75,887.813 1438.5,887.5C 1438.5,889.833 1438.5,892.167 1438.5,894.5C 1435.5,894.5 1432.5,894.5 1429.5,894.5C 1428.87,899.141 1428.54,903.807 1428.5,908.5C 1431.17,908.5 1433.83,908.5 1436.5,908.5C 1436.5,910.833 1436.5,913.167 1436.5,915.5C 1433.17,915.5 1429.83,915.5 1426.5,915.5C 1426.02,921.855 1425.35,928.188 1424.5,934.5C 1422.17,934.5 1419.83,934.5 1417.5,934.5C 1418.08,928.157 1418.75,921.824 1419.5,915.5C 1416.43,915.183 1413.43,915.516 1410.5,916.5C 1409.42,922.112 1408.59,927.779 1408,933.5C 1405.62,934.435 1403.12,934.768 1400.5,934.5C 1401.36,928.278 1402.36,922.112 1403.5,916C 1400.52,915.502 1397.52,915.335 1394.5,915.5C 1394.5,913.167 1394.5,910.833 1394.5,908.5C 1397.83,908.5 1401.17,908.5 1404.5,908.5C 1405,903.848 1405.33,899.181 1405.5,894.5C 1402.83,894.5 1400.17,894.5 1397.5,894.5C 1397.5,892.167 1397.5,889.833 1397.5,887.5C 1400.83,887.5 1404.17,887.5 1407.5,887.5C 1407.92,881.137 1408.59,874.804 1409.5,868.5 Z M 1413.5,894.5 C 1416.5,894.5 1419.5,894.5 1422.5,894.5C 1422.08,898.879 1421.41,903.212 1420.5,907.5C 1417.57,908.484 1414.57,908.817 1411.5,908.5C 1411.84,903.747 1412.51,899.081 1413.5,894.5 Z"/></g>
<g><path style="opacity:0.895" fill="#000000" d="M 2039.5,868.5 C 2041.83,868.5 2044.17,868.5 2046.5,868.5C 2045.92,874.843 2045.25,881.176 2044.5,887.5C 2047.57,887.817 2050.57,887.484 2053.5,886.5C 2054.58,880.846 2055.58,875.179 2056.5,869.5C 2058.74,868.526 2061.08,868.192 2063.5,868.5C 2062.78,874.744 2061.78,880.91 2060.5,887C 2063.48,887.498 2066.48,887.665 2069.5,887.5C 2069.5,889.833 2069.5,892.167 2069.5,894.5C 2066.17,894.5 2062.83,894.5 2059.5,894.5C 2059.17,899.167 2058.83,903.833 2058.5,908.5C 2061.17,908.5 2063.83,908.5 2066.5,908.5C 2066.5,910.833 2066.5,913.167 2066.5,915.5C 2063.22,915.216 2060.06,915.549 2057,916.5C 2056.17,922.514 2055.33,928.514 2054.5,934.5C 2052.17,934.5 2049.83,934.5 2047.5,934.5C 2048.35,928.188 2049.02,921.855 2049.5,915.5C 2046.5,915.5 2043.5,915.5 2040.5,915.5C 2039.46,921.79 2038.79,928.123 2038.5,934.5C 2035.81,934.664 2033.15,934.497 2030.5,934C 2031.64,927.888 2032.64,921.722 2033.5,915.5C 2030.83,915.5 2028.17,915.5 2025.5,915.5C 2025.5,913.167 2025.5,910.833 2025.5,908.5C 2028.5,908.5 2031.5,908.5 2034.5,908.5C 2034.79,904.102 2035.46,899.769 2036.5,895.5C 2033.57,894.516 2030.57,894.183 2027.5,894.5C 2027.5,892.167 2027.5,889.833 2027.5,887.5C 2030.83,887.5 2034.17,887.5 2037.5,887.5C 2038.17,881.167 2038.83,874.833 2039.5,868.5 Z M 2043.5,894.5 C 2046.5,894.5 2049.5,894.5 2052.5,894.5C 2052.24,898.853 2051.74,903.187 2051,907.5C 2047.94,908.451 2044.78,908.784 2041.5,908.5C 2042.07,903.817 2042.74,899.15 2043.5,894.5 Z"/></g>
<g><path style="opacity:0.89" fill="#000000" d="M 3729.5,868.5 C 3732.19,868.336 3734.85,868.503 3737.5,869C 3736.36,875.112 3735.36,881.278 3734.5,887.5C 3737.83,887.5 3741.17,887.5 3744.5,887.5C 3744.92,881.137 3745.59,874.804 3746.5,868.5C 3748.83,868.5 3751.17,868.5 3753.5,868.5C 3752.75,874.824 3752.08,881.157 3751.5,887.5C 3754.17,887.5 3756.83,887.5 3759.5,887.5C 3759.5,889.833 3759.5,892.167 3759.5,894.5C 3756.22,894.216 3753.06,894.549 3750,895.5C 3749.42,899.832 3748.92,904.165 3748.5,908.5C 3751.5,908.5 3754.5,908.5 3757.5,908.5C 3757.5,910.833 3757.5,913.167 3757.5,915.5C 3754.17,915.5 3750.83,915.5 3747.5,915.5C 3746.53,921.467 3745.7,927.467 3745,933.5C 3742.62,934.435 3740.12,934.768 3737.5,934.5C 3738.36,928.278 3739.36,922.112 3740.5,916C 3737.18,915.502 3733.85,915.335 3730.5,915.5C 3729.92,921.843 3729.25,928.176 3728.5,934.5C 3726.17,934.5 3723.83,934.5 3721.5,934.5C 3721.98,928.145 3722.65,921.812 3723.5,915.5C 3720.83,915.5 3718.17,915.5 3715.5,915.5C 3715.5,913.167 3715.5,910.833 3715.5,908.5C 3718.57,908.817 3721.57,908.484 3724.5,907.5C 3725.41,903.212 3726.08,898.879 3726.5,894.5C 3723.5,894.5 3720.5,894.5 3717.5,894.5C 3717.5,892.167 3717.5,889.833 3717.5,887.5C 3720.83,887.5 3724.17,887.5 3727.5,887.5C 3728.54,881.21 3729.21,874.877 3729.5,868.5 Z M 3733.5,894.5 C 3736.5,894.5 3739.5,894.5 3742.5,894.5C 3742.33,899.181 3742,903.848 3741.5,908.5C 3738.1,908.82 3734.77,908.487 3731.5,907.5C 3732.54,903.231 3733.21,898.898 3733.5,894.5 Z"/></g>
<g><path style="opacity:0.89" fill="#000000" d="M 4325.5,868.5 C 4327.92,868.192 4330.26,868.526 4332.5,869.5C 4331.58,875.179 4330.58,880.846 4329.5,886.5C 4332.77,887.487 4336.1,887.82 4339.5,887.5C 4340.08,881.157 4340.75,874.824 4341.5,868.5C 4343.83,868.5 4346.17,868.5 4348.5,868.5C 4347.92,874.843 4347.25,881.176 4346.5,887.5C 4349.17,887.5 4351.83,887.5 4354.5,887.5C 4354.5,889.833 4354.5,892.167 4354.5,894.5C 4351.43,894.183 4348.43,894.516 4345.5,895.5C 4344.59,899.788 4343.92,904.121 4343.5,908.5C 4346.5,908.5 4349.5,908.5 4352.5,908.5C 4352.5,910.833 4352.5,913.167 4352.5,915.5C 4349.17,915.5 4345.83,915.5 4342.5,915.5C 4341.46,921.79 4340.79,928.123 4340.5,934.5C 4337.75,934.813 4335.09,934.48 4332.5,933.5C 4333.58,927.846 4334.58,922.179 4335.5,916.5C 4332.23,915.513 4328.9,915.18 4325.5,915.5C 4325.08,921.863 4324.41,928.196 4323.5,934.5C 4321.17,934.5 4318.83,934.5 4316.5,934.5C 4317.17,928.167 4317.83,921.833 4318.5,915.5C 4315.83,915.5 4313.17,915.5 4310.5,915.5C 4310.5,913.167 4310.5,910.833 4310.5,908.5C 4313.78,908.784 4316.94,908.451 4320,907.5C 4320.58,903.168 4321.08,898.835 4321.5,894.5C 4318.5,894.5 4315.5,894.5 4312.5,894.5C 4312.5,892.167 4312.5,889.833 4312.5,887.5C 4315.83,887.5 4319.17,887.5 4322.5,887.5C 4323.41,881.117 4324.41,874.784 4325.5,868.5 Z M 4328.5,894.5 C 4331.85,894.335 4335.18,894.502 4338.5,895C 4337.47,899.409 4336.8,903.909 4336.5,908.5C 4333.15,908.665 4329.82,908.498 4326.5,908C 4327.67,903.611 4328.34,899.111 4328.5,894.5 Z"/></g>
</svg>
