<?xml version="1.0" encoding="utf-8"?>
<!-- Generator: Adobe Illustrator 25.0.0, SVG Export Plug-In . SVG Version: 6.00 Build 0)  -->
<svg version="1.1" id="Layer_1" xmlns="http://www.w3.org/2000/svg" xmlns:xlink="http://www.w3.org/1999/xlink" x="0px" y="0px"
	 viewBox="0 0 641 175.7" style="enable-background:new 0 0 641 175.7;" xml:space="preserve">
<style type="text/css">
	.st0{fill:none;stroke:#000000;stroke-width:0.5;stroke-miterlimit:10;}
	.st1{fill:none;stroke:#7C287D;stroke-width:1.5;stroke-miterlimit:10;}
	.st2{fill:none;stroke:#67BF75;stroke-miterlimit:10;}
	.st3{fill:#7B7B7B;}
</style>
<g id="XMLID_969_">
	<line id="XMLID_974_" class="st0" x1="0" y1="44.2" x2="641" y2="44.2"/>
	<line id="XMLID_973_" class="st0" x1="-0.2" y1="24" x2="640.8" y2="24"/>
	<line id="XMLID_972_" class="st0" x1="0" y1="64.6" x2="641" y2="64.6"/>
	<line id="XMLID_971_" class="st0" x1="0" y1="84.9" x2="641" y2="84.9"/>
	<line id="XMLID_970_" class="st0" x1="0" y1="105.2" x2="641" y2="105.2"/>
</g>
<circle id="XMLID_965_" class="st1" cx="155" cy="95.1" r="10.2"/>
<circle id="XMLID_937_" class="st1" cx="123" cy="106.3" r="10.2"/>
<circle id="XMLID_933_" class="st1" cx="186.9" cy="85.8" r="10.2"/>
<circle id="XMLID_929_" class="st1" cx="218.8" cy="74.8" r="10.2"/>
<circle id="XMLID_925_" class="st1" cx="250.7" cy="65.2" r="10.2"/>
<circle id="XMLID_921_" class="st1" cx="282.7" cy="54.9" r="10.2"/>
<circle id="XMLID_917_" class="st1" cx="314.6" cy="46" r="10.2"/>
<circle id="XMLID_913_" class="st1" cx="346.5" cy="34.1" r="10.2"/>
<circle id="XMLID_909_" class="st1" cx="423.7" cy="46" r="10.2"/>
<circle id="XMLID_868_" class="st1" cx="391.8" cy="34.1" r="10.2"/>
<circle id="XMLID_856_" class="st1" cx="455.7" cy="54.9" r="10.2"/>
<circle id="XMLID_160_" class="st1" cx="487.6" cy="64.2" r="10.2"/>
<circle id="XMLID_794_" class="st1" cx="519.5" cy="74.8" r="10.2"/>
<circle id="XMLID_790_" class="st1" cx="551.5" cy="85.8" r="10.2"/>
<circle id="XMLID_786_" class="st1" cx="583.4" cy="95.1" r="10.2"/>
<circle id="XMLID_779_" class="st1" cx="615.3" cy="106.3" r="10.2"/>
<g id="XMLID_2746_">
	<path id="XMLID_2747_" d="M125.4,106.9h-3.9v3.6h4.4v1.1h-5.7v-10.1h5.5v1.1h-4.2v3.2h3.9V106.9z"/>
</g>
<g id="XMLID_2743_">
	<path id="XMLID_2744_" d="M618.2,106.9h-3.9v3.6h4.4v1.1H613v-10.1h5.5v1.1h-4.2v3.2h3.9V106.9z"/>
</g>
<g id="XMLID_2740_">
	<path id="XMLID_2741_" d="M149.9,90.6h5.4v1.1h-4.1v3.4h3.8v1.1h-3.8v4.6h-1.3V90.6z"/>
</g>
<g id="XMLID_2737_">
	<path id="XMLID_2738_" d="M578.4,90.5h5.4v1.1h-4.1V95h3.8V96h-3.8v4.6h-1.3V90.5z"/>
</g>
<g id="XMLID_2734_">
	<path id="XMLID_2735_" d="M187.9,90.2c-0.6,0.2-1.8,0.6-3.1,0.6c-1.5,0-2.8-0.4-3.8-1.3c-0.9-0.8-1.4-2.2-1.4-3.8
		c0-3,2.1-5.2,5.5-5.2c1.2,0,2.1,0.3,2.5,0.5l-0.3,1.1c-0.5-0.3-1.2-0.4-2.2-0.4c-2.5,0-4.1,1.5-4.1,4.1c0,2.6,1.5,4.1,3.9,4.1
		c0.9,0,1.4-0.1,1.7-0.3v-3h-2v-1h3.3V90.2z"/>
</g>
<g id="XMLID_2731_">
	<path id="XMLID_2732_" d="M552.9,90.2c-0.6,0.2-1.8,0.6-3.1,0.6c-1.5,0-2.8-0.4-3.8-1.3c-0.9-0.8-1.4-2.2-1.4-3.8
		c0-3,2.1-5.2,5.5-5.2c1.2,0,2.1,0.3,2.5,0.5l-0.3,1.1c-0.5-0.3-1.2-0.4-2.2-0.4c-2.5,0-4.1,1.5-4.1,4.1c0,2.6,1.5,4.1,3.9,4.1
		c0.9,0,1.4-0.1,1.7-0.3v-3h-2v-1h3.3V90.2z"/>
</g>
<g id="XMLID_2727_">
	<path id="XMLID_2728_" d="M217.1,76.3l-1,3.2h-1.4l3.5-10.1h1.6l3.5,10.1h-1.4l-1.1-3.2H217.1z M220.4,75.2l-1-2.9
		c-0.2-0.7-0.4-1.3-0.5-1.8h0c-0.1,0.6-0.3,1.2-0.5,1.8l-1,2.9H220.4z"/>
</g>
<g id="XMLID_2723_">
	<path id="XMLID_2724_" d="M517.7,76.3l-1,3.2h-1.4l3.5-10.1h1.6l3.5,10.1h-1.4l-1.1-3.2H517.7z M521,75.2l-1-2.9
		c-0.2-0.7-0.4-1.3-0.5-1.8h0c-0.1,0.6-0.3,1.2-0.5,1.8l-1,2.9H521z"/>
</g>
<g id="XMLID_2718_">
	<path id="XMLID_2719_" d="M247.7,60.1c0.6-0.1,1.5-0.2,2.4-0.2c1.3,0,2.1,0.2,2.8,0.7c0.5,0.4,0.9,1,0.9,1.8c0,1-0.7,1.8-1.7,2.2v0
		c1,0.2,2.1,1,2.1,2.5c0,0.9-0.3,1.5-0.9,2c-0.7,0.6-1.8,0.9-3.5,0.9c-0.9,0-1.6-0.1-2-0.1V60.1z M249,64.2h1.2
		c1.4,0,2.2-0.7,2.2-1.7c0-1.2-0.9-1.7-2.2-1.7c-0.6,0-0.9,0-1.2,0.1V64.2z M249,69c0.3,0,0.6,0.1,1.1,0.1c1.3,0,2.6-0.5,2.6-2
		c0-1.4-1.2-2-2.6-2H249V69z"/>
</g>
<g id="XMLID_2713_">
	<path id="XMLID_2714_" d="M484.4,60.1c0.6-0.1,1.5-0.2,2.4-0.2c1.3,0,2.1,0.2,2.8,0.7c0.5,0.4,0.9,1,0.9,1.8c0,1-0.7,1.8-1.7,2.2v0
		c1,0.2,2.1,1,2.1,2.5c0,0.9-0.3,1.5-0.9,2c-0.7,0.6-1.8,0.9-3.5,0.9c-0.9,0-1.6-0.1-2-0.1V60.1z M485.7,64.2h1.2
		c1.4,0,2.2-0.7,2.2-1.7c0-1.2-0.9-1.7-2.2-1.7c-0.6,0-0.9,0-1.2,0.1V64.2z M485.7,69c0.3,0,0.6,0.1,1.1,0.1c1.3,0,2.6-0.5,2.6-2
		c0-1.4-1.2-2-2.6-2h-1.1V69z"/>
</g>
<g id="XMLID_2710_">
	<path id="XMLID_2711_" d="M283.9,59.6c-0.5,0.2-1.4,0.5-2.7,0.5c-2.8,0-5-1.8-5-5.1c0-3.2,2.1-5.3,5.3-5.3c1.2,0,2.1,0.3,2.4,0.5
		l-0.3,1.1c-0.5-0.2-1.2-0.4-2-0.4c-2.4,0-3.9,1.5-3.9,4.2c0,2.5,1.4,4.1,3.9,4.1c0.8,0,1.6-0.2,2.1-0.4L283.9,59.6z"/>
</g>
<g id="XMLID_2707_">
	<path id="XMLID_2708_" d="M457.2,59.6c-0.5,0.2-1.4,0.5-2.7,0.5c-2.8,0-5-1.8-5-5.1c0-3.2,2.1-5.3,5.3-5.3c1.2,0,2.1,0.3,2.4,0.4
		l-0.3,1.1c-0.5-0.2-1.2-0.4-2-0.4c-2.4,0-3.9,1.5-3.9,4.2c0,2.5,1.4,4.1,3.9,4.1c0.8,0,1.6-0.2,2.1-0.4L457.2,59.6z"/>
</g>
<g id="XMLID_2703_">
	<path id="XMLID_2704_" d="M308.5,41.6c0.8-0.1,1.7-0.2,2.8-0.2c1.9,0,3.2,0.5,4.1,1.3c0.9,0.8,1.4,2,1.4,3.6c0,1.7-0.5,3-1.5,3.9
		c-1,0.9-2.5,1.5-4.5,1.5c-0.9,0-1.7,0-2.4-0.1V41.6z M309.8,50.6c0.3,0,0.8,0.1,1.3,0.1c2.8,0,4.3-1.6,4.3-4.3
		c0-2.4-1.3-3.9-4.1-3.9c-0.7,0-1.2,0.1-1.5,0.1V50.6z"/>
</g>
<g id="XMLID_2699_">
	<path id="XMLID_2700_" d="M417.2,41.6c0.8-0.1,1.7-0.2,2.8-0.2c1.9,0,3.2,0.5,4.1,1.3c0.9,0.8,1.4,2,1.4,3.6c0,1.7-0.5,3-1.5,3.9
		c-1,0.9-2.5,1.5-4.5,1.5c-0.9,0-1.7,0-2.4-0.1V41.6z M418.5,50.6c0.3,0,0.8,0.1,1.3,0.1c2.8,0,4.3-1.6,4.3-4.3
		c0-2.4-1.3-3.9-4.1-3.9c-0.7,0-1.2,0.1-1.5,0.1V50.6z"/>
</g>
<g id="XMLID_2696_">
	<path id="XMLID_2697_" d="M348.9,34.8H345v3.6h4.4v1.1h-5.7V29.4h5.5v1.1H345v3.2h3.9V34.8z"/>
</g>
<g id="XMLID_2693_">
	<path id="XMLID_2694_" d="M394.5,34.8h-3.9v3.6h4.4v1.1h-5.7V29.4h5.5v1.1h-4.2v3.2h3.9V34.8z"/>
</g>
<g id="XMLID_702_">
	<path id="XMLID_708_" d="M34.5,105c-2.1,0.7-4.3,1-6.5,1.1c-5.8,0.1-11.2-1.5-15.8-5c-4.9-3.7-7.5-8.7-8.7-14.6
		c-1.1-5.7,0-11.1,2.4-16.3c2.1-4.5,5-8.5,8.2-12.2c0.7-0.8,1.4-1.5,2.1-2.3c0.3-0.3,0.3-0.5,0.2-0.9c-0.8-2.8-1.8-5.5-2.4-8.3
		c-1.3-5.6-1.5-11.3,0.3-16.9c2.1-6.4,6-11.2,12.5-13.5c0.8-0.3,1.6-0.5,2.4-0.6c1.7-0.1,3.2,0.6,4.5,1.6c2.7,2.1,4,5,4.2,8.3
		c0.3,5.1-1.4,9.7-3.8,14.2c-2.3,4.3-5.4,8.2-8.6,11.9c-1.1,1.3-2.1,2.5-3.2,3.7c-0.3,0.4-0.1,0.6,0,0.9c2,3.9,3.9,7.8,5.9,11.6
		c1-0.2,2-0.5,3.1-0.7c3.1-0.6,6.1,0,8.9,1.4c5.5,2.9,8.8,7.5,9.8,13.7c0.8,5-0.6,9.6-3.4,13.7c-1.8,2.7-4.1,4.9-6.8,6.6
		c-0.4,0.3-0.5,0.5-0.4,1c0.5,3.1,1.1,6.1,1.6,9.2c0.5,3.4,0.7,6.8-0.4,10.1c-1.4,4.5-4.6,7.1-9,8.3c-5.7,1.5-10.9,0.3-15.5-3.2
		c-3.9-2.9-6.5-6.6-7.6-11.4c-0.1-0.6-0.2-1.3-0.3-1.9c0-0.3,0-0.6,0-0.9c1.3,6.7,5,11.5,11.1,14.3c4.3,2,8.7,2.1,13-0.1
		c3.3-1.7,5-4.5,5.1-8.2c0.1-3.3-0.8-6.4-1.5-9.6c-0.4-1.5-0.8-2.9-1.2-4.4C34.7,105.4,34.6,105.2,34.5,105z M33,99.7
		c-2.5-9.1-6.5-17.6-9.3-26.6c-2.5,2.7-3.5,5.7-2.7,9.1c1,4.3,3.6,7.2,7.9,8.4c-0.3,0-0.5,0-0.8-0.1c-4.8-1.1-8.4-5.9-8.5-10.9
		c0-2.9,1-5.4,2.9-7.5c0.4-0.4,0.4-0.7,0.2-1.2c-0.6-1.6-1.2-3.1-1.9-4.7c-0.8-2-1.6-3.9-2.5-6c-0.8,1.1-1.6,2.1-2.3,3.1
		c-2.4,3.4-4.5,7.1-5.8,11.1c-1,3.3-1.3,6.6-0.7,10c0.8,4,2.9,7.4,5.7,10.3C20.2,99.5,26.2,100.9,33,99.7z M20.3,51.5
		c1.5-1.5,2.9-3,4.2-4.4c2.7-2.9,5.3-5.9,7.4-9.3c2.2-3.6,3.9-7.3,4.1-11.6c0.1-3.2-0.8-6-3.3-8.1c-1.4-1.2-2.9-1.8-4.9-1
		c-4.2,1.8-7.2,4.7-9.2,8.8c-2,4.2-2.4,8.6-1.9,13.1C17.2,43.3,18.5,47.4,20.3,51.5z M38.3,97.5c2.7-1.8,4.7-3.9,6.2-6.6
		c1.5-2.8,2.2-5.7,1.8-8.9c-0.4-3.3-1.9-6.2-4.2-8.6c-2.8-2.9-6.1-4.4-10.2-4.1c-0.9,0.1-1.7,0.3-2.8,0.5C33.8,78.5,36,88,38.3,97.5
		z"/>
</g>
<g id="XMLID_582_">
	<path id="XMLID_585_" d="M157.7,100.5c-0.1,0-0.3,0-0.4,0.1c0-0.7,0-1.3,0-2c-0.5,0.1-0.9,0.3-1.4,0.4c0-0.4,0-0.8,0-1.2
		c0,0,0.1-0.1,0.1-0.1c0.4-0.1,0.7-0.2,1.1-0.3c0.1,0,0.1,0,0.2,0c0-0.6,0-1.2,0-1.9c-0.5,0.1-0.9,0.3-1.4,0.4c0-0.4,0-0.8,0-1.2
		c0.2-0.1,0.4-0.1,0.6-0.2c0.2-0.1,0.5-0.1,0.7-0.2c0.1,0,0.1-0.1,0.1-0.2c0-0.5,0-1.1,0-1.6c0-0.1,0-0.1,0-0.2c0.1,0,0.3,0,0.4-0.1
		c0,0.6,0,1.3,0,1.9c0.2-0.1,0.4-0.1,0.6-0.2c0.2-0.1,0.5-0.1,0.7-0.2c0.1,0,0.1-0.1,0.1-0.2c0-0.6,0-1.1,0-1.7c0-0.2,0-0.2,0.2-0.2
		c0.1,0,0.1,0,0.2,0c0,0.6,0,1.3,0,1.9c0.5-0.1,0.9-0.3,1.4-0.4c0,0.4,0,0.8,0,1.2c0,0-0.1,0.1-0.1,0.1c-0.4,0.1-0.8,0.2-1.2,0.4
		c0,0.6,0,1.2,0,1.9c0.5-0.1,0.9-0.3,1.4-0.4c0,0.4,0,0.8,0,1.2c-0.4,0.1-0.8,0.2-1.2,0.3c-0.1,0-0.2,0.1-0.2,0.2c0,0.6,0,1.2,0,1.9
		c-0.1,0-0.3,0-0.4,0.1c0-0.7,0-1.3,0-2c-0.3,0.1-0.6,0.2-1,0.3c-0.1,0-0.1,0-0.2,0c-0.4,0.1-0.4,0.1-0.4,0.5c0,0.5,0,1,0,1.5
		C157.8,100.3,157.8,100.4,157.7,100.5z M157.8,97.2c0.5-0.1,1-0.3,1.4-0.4c0,0,0.1-0.1,0.1-0.1c0-0.4,0-0.8,0-1.2
		c0-0.2,0-0.4,0-0.6c-0.5,0.1-0.9,0.3-1.4,0.4c-0.1,0-0.1,0.1-0.1,0.2c0,0.5,0,1,0,1.5C157.8,97,157.8,97.1,157.8,97.2z"/>
</g>
<g id="XMLID_573_">
	<path id="XMLID_576_" d="M190.5,89.2c-0.1,0-0.3,0-0.4,0.1c0-0.7,0-1.3,0-2c-0.5,0.1-0.9,0.3-1.4,0.4c0-0.4,0-0.8,0-1.2
		c0,0,0.1-0.1,0.1-0.1c0.4-0.1,0.7-0.2,1.1-0.3c0.1,0,0.1,0,0.2,0c0-0.6,0-1.2,0-1.9c-0.5,0.1-0.9,0.3-1.4,0.4c0-0.4,0-0.8,0-1.2
		c0.2-0.1,0.4-0.1,0.6-0.2c0.2-0.1,0.5-0.1,0.7-0.2c0.1,0,0.1-0.1,0.1-0.2c0-0.5,0-1.1,0-1.6c0-0.1,0-0.1,0-0.2c0.1,0,0.3,0,0.4-0.1
		c0,0.6,0,1.3,0,1.9c0.2-0.1,0.4-0.1,0.6-0.2c0.2-0.1,0.5-0.1,0.7-0.2c0.1,0,0.1-0.1,0.1-0.2c0-0.6,0-1.1,0-1.7c0-0.2,0-0.2,0.2-0.2
		c0.1,0,0.1,0,0.2,0c0,0.6,0,1.3,0,1.9c0.5-0.1,0.9-0.3,1.4-0.4c0,0.4,0,0.8,0,1.2c0,0-0.1,0.1-0.1,0.1c-0.4,0.1-0.8,0.2-1.2,0.4
		c0,0.6,0,1.2,0,1.9c0.5-0.1,0.9-0.3,1.4-0.4c0,0.4,0,0.8,0,1.2c-0.4,0.1-0.8,0.2-1.2,0.3c-0.1,0-0.2,0.1-0.2,0.2c0,0.6,0,1.2,0,1.9
		c-0.1,0-0.3,0-0.4,0.1c0-0.7,0-1.3,0-2c-0.3,0.1-0.6,0.2-1,0.3c-0.1,0-0.1,0-0.2,0c-0.4,0.1-0.4,0.1-0.4,0.5c0,0.5,0,1,0,1.5
		C190.5,89.1,190.5,89.1,190.5,89.2z M190.5,85.9c0.5-0.1,1-0.3,1.4-0.4c0,0,0.1-0.1,0.1-0.1c0-0.4,0-0.8,0-1.2c0-0.2,0-0.4,0-0.6
		c-0.5,0.1-0.9,0.3-1.4,0.4c-0.1,0-0.1,0.1-0.1,0.2c0,0.5,0,1,0,1.5C190.5,85.7,190.5,85.8,190.5,85.9z"/>
</g>
<g id="XMLID_219_">
	<path id="XMLID_222_" d="M586.1,100.5c-0.1,0-0.3,0-0.4,0.1c0-0.7,0-1.3,0-2c-0.5,0.1-0.9,0.3-1.4,0.4c0-0.4,0-0.8,0-1.2
		c0,0,0.1-0.1,0.1-0.1c0.4-0.1,0.7-0.2,1.1-0.3c0.1,0,0.1,0,0.2,0c0-0.6,0-1.2,0-1.9c-0.5,0.1-0.9,0.3-1.4,0.4c0-0.4,0-0.8,0-1.2
		c0.2-0.1,0.4-0.1,0.6-0.2c0.2-0.1,0.5-0.1,0.7-0.2c0.1,0,0.1-0.1,0.1-0.2c0-0.5,0-1.1,0-1.6c0-0.1,0-0.1,0-0.2c0.1,0,0.3,0,0.4-0.1
		c0,0.6,0,1.3,0,1.9c0.2-0.1,0.4-0.1,0.6-0.2c0.2-0.1,0.5-0.1,0.7-0.2c0.1,0,0.1-0.1,0.1-0.2c0-0.6,0-1.1,0-1.7c0-0.2,0-0.2,0.2-0.2
		c0.1,0,0.1,0,0.2,0c0,0.6,0,1.3,0,1.9c0.5-0.1,0.9-0.3,1.4-0.4c0,0.4,0,0.8,0,1.2c0,0-0.1,0.1-0.1,0.1c-0.4,0.1-0.8,0.2-1.2,0.4
		c0,0.6,0,1.2,0,1.9c0.5-0.1,0.9-0.3,1.4-0.4c0,0.4,0,0.8,0,1.2c-0.4,0.1-0.8,0.2-1.2,0.3c-0.1,0-0.2,0.1-0.2,0.2c0,0.6,0,1.2,0,1.9
		c-0.1,0-0.3,0-0.4,0.1c0-0.7,0-1.3,0-2c-0.3,0.1-0.6,0.2-1,0.3c-0.1,0-0.1,0-0.2,0c-0.4,0.1-0.4,0.1-0.4,0.5c0,0.5,0,1,0,1.5
		C586.1,100.3,586.1,100.4,586.1,100.5z M586.1,97.2c0.5-0.1,1-0.3,1.4-0.4c0,0,0.1-0.1,0.1-0.1c0-0.4,0-0.8,0-1.2
		c0-0.2,0-0.4,0-0.6c-0.5,0.1-0.9,0.3-1.4,0.4c-0.1,0-0.1,0.1-0.1,0.2c0,0.5,0,1,0,1.5C586.1,97,586.1,97.1,586.1,97.2z"/>
</g>
<g id="XMLID_36_">
	<path id="XMLID_39_" d="M555.6,89.2c-0.1,0-0.3,0-0.4,0.1c0-0.7,0-1.3,0-2c-0.5,0.1-0.9,0.3-1.4,0.4c0-0.4,0-0.8,0-1.2
		c0,0,0.1-0.1,0.1-0.1c0.4-0.1,0.7-0.2,1.1-0.3c0.1,0,0.1,0,0.2,0c0-0.6,0-1.2,0-1.9c-0.5,0.1-0.9,0.3-1.4,0.4c0-0.4,0-0.8,0-1.2
		c0.2-0.1,0.4-0.1,0.6-0.2c0.2-0.1,0.5-0.1,0.7-0.2c0.1,0,0.1-0.1,0.1-0.2c0-0.5,0-1.1,0-1.6c0-0.1,0-0.1,0-0.2c0.1,0,0.3,0,0.4-0.1
		c0,0.6,0,1.3,0,1.9c0.2-0.1,0.4-0.1,0.6-0.2c0.2-0.1,0.5-0.1,0.7-0.2c0.1,0,0.1-0.1,0.1-0.2c0-0.6,0-1.1,0-1.7c0-0.2,0-0.2,0.2-0.2
		c0.1,0,0.1,0,0.2,0c0,0.6,0,1.3,0,1.9c0.5-0.1,0.9-0.3,1.4-0.4c0,0.4,0,0.8,0,1.2c0,0-0.1,0.1-0.1,0.1c-0.4,0.1-0.8,0.2-1.2,0.4
		c0,0.6,0,1.2,0,1.9c0.5-0.1,0.9-0.3,1.4-0.4c0,0.4,0,0.8,0,1.2c-0.4,0.1-0.8,0.2-1.2,0.3c-0.1,0-0.2,0.1-0.2,0.2c0,0.6,0,1.2,0,1.9
		c-0.1,0-0.3,0-0.4,0.1c0-0.7,0-1.3,0-2c-0.3,0.1-0.6,0.2-1,0.3c-0.1,0-0.1,0-0.2,0c-0.4,0.1-0.4,0.1-0.4,0.5c0,0.5,0,1,0,1.5
		C555.6,89.1,555.6,89.1,555.6,89.2z M555.6,85.9c0.5-0.1,1-0.3,1.4-0.4c0,0,0.1-0.1,0.1-0.1c0-0.4,0-0.8,0-1.2c0-0.2,0-0.4,0-0.6
		c-0.5,0.1-0.9,0.3-1.4,0.4c-0.1,0-0.1,0.1-0.1,0.2c0,0.5,0,1,0,1.5C555.6,85.7,555.6,85.8,555.6,85.9z"/>
</g>
<g id="XMLID_1105_">
	<path id="XMLID_1106_" d="M319.3,50.8c-0.1,0-0.3,0-0.4,0.1c0-0.7,0-1.3,0-2c-0.5,0.1-0.9,0.3-1.4,0.4c0-0.4,0-0.8,0-1.2
		c0,0,0.1-0.1,0.1-0.1c0.4-0.1,0.7-0.2,1.1-0.3c0.1,0,0.1,0,0.2,0c0-0.6,0-1.2,0-1.9c-0.5,0.1-0.9,0.3-1.4,0.4c0-0.4,0-0.8,0-1.2
		c0.2-0.1,0.4-0.1,0.6-0.2c0.2-0.1,0.5-0.1,0.7-0.2c0.1,0,0.1-0.1,0.1-0.2c0-0.5,0-1.1,0-1.6c0-0.1,0-0.1,0-0.2c0.1,0,0.3,0,0.4-0.1
		c0,0.6,0,1.3,0,1.9c0.2-0.1,0.4-0.1,0.6-0.2c0.2-0.1,0.5-0.1,0.7-0.2c0.1,0,0.1-0.1,0.1-0.2c0-0.6,0-1.1,0-1.7c0-0.2,0-0.2,0.2-0.2
		c0.1,0,0.1,0,0.2,0c0,0.6,0,1.3,0,1.9c0.5-0.1,0.9-0.3,1.4-0.4c0,0.4,0,0.8,0,1.2c0,0-0.1,0.1-0.1,0.1c-0.4,0.1-0.8,0.2-1.2,0.4
		c0,0.6,0,1.2,0,1.9c0.5-0.1,0.9-0.3,1.4-0.4c0,0.4,0,0.8,0,1.2c-0.4,0.1-0.8,0.2-1.2,0.3c-0.1,0-0.2,0.1-0.2,0.2c0,0.6,0,1.2,0,1.9
		c-0.1,0-0.3,0-0.4,0.1c0-0.7,0-1.3,0-2c-0.3,0.1-0.6,0.2-1,0.3c-0.1,0-0.1,0-0.2,0c-0.4,0.1-0.4,0.1-0.4,0.5c0,0.5,0,1,0,1.5
		C319.3,50.7,319.3,50.7,319.3,50.8z M319.3,47.5c0.5-0.1,1-0.3,1.4-0.4c0,0,0.1-0.1,0.1-0.1c0-0.4,0-0.8,0-1.2c0-0.2,0-0.4,0-0.6
		c-0.5,0.1-0.9,0.3-1.4,0.4c-0.1,0-0.1,0.1-0.1,0.2c0,0.5,0,1,0,1.5C319.3,47.3,319.3,47.4,319.3,47.5z"/>
</g>
<g id="XMLID_1109_">
	<path id="XMLID_1110_" d="M428.2,50.8c-0.1,0-0.3,0-0.4,0.1c0-0.7,0-1.3,0-2c-0.5,0.1-0.9,0.3-1.4,0.4c0-0.4,0-0.8,0-1.2
		c0,0,0.1-0.1,0.1-0.1c0.4-0.1,0.7-0.2,1.1-0.3c0.1,0,0.1,0,0.2,0c0-0.6,0-1.2,0-1.9c-0.5,0.1-0.9,0.3-1.4,0.4c0-0.4,0-0.8,0-1.2
		c0.2-0.1,0.4-0.1,0.6-0.2c0.2-0.1,0.5-0.1,0.7-0.2c0.1,0,0.1-0.1,0.1-0.2c0-0.5,0-1.1,0-1.6c0-0.1,0-0.1,0-0.2c0.1,0,0.3,0,0.4-0.1
		c0,0.6,0,1.3,0,1.9c0.2-0.1,0.4-0.1,0.6-0.2c0.2-0.1,0.5-0.1,0.7-0.2c0.1,0,0.1-0.1,0.1-0.2c0-0.6,0-1.1,0-1.7c0-0.2,0-0.2,0.2-0.2
		c0.1,0,0.1,0,0.2,0c0,0.6,0,1.3,0,1.9c0.5-0.1,0.9-0.3,1.4-0.4c0,0.4,0,0.8,0,1.2c0,0-0.1,0.1-0.1,0.1c-0.4,0.1-0.8,0.2-1.2,0.4
		c0,0.6,0,1.2,0,1.9c0.5-0.1,0.9-0.3,1.4-0.4c0,0.4,0,0.8,0,1.2c-0.4,0.1-0.8,0.2-1.2,0.3c-0.1,0-0.2,0.1-0.2,0.2c0,0.6,0,1.2,0,1.9
		c-0.1,0-0.3,0-0.4,0.1c0-0.7,0-1.3,0-2c-0.3,0.1-0.6,0.2-1,0.3c-0.1,0-0.1,0-0.2,0c-0.4,0.1-0.4,0.1-0.4,0.5c0,0.5,0,1,0,1.5
		C428.2,50.7,428.2,50.7,428.2,50.8z M428.2,47.5c0.5-0.1,1-0.3,1.4-0.4c0,0,0.1-0.1,0.1-0.1c0-0.4,0-0.8,0-1.2c0-0.2,0-0.4,0-0.6
		c-0.5,0.1-0.9,0.3-1.4,0.4c-0.1,0-0.1,0.1-0.1,0.2c0,0.5,0,1,0,1.5C428.2,47.3,428.2,47.4,428.2,47.5z"/>
</g>
<g id="XMLID_234_">
	<path id="XMLID_237_" d="M285.3,59.3c-0.1,0-0.3,0-0.4,0.1c0-0.7,0-1.3,0-2c-0.5,0.1-0.9,0.3-1.4,0.4c0-0.4,0-0.8,0-1.2
		c0,0,0.1-0.1,0.1-0.1c0.4-0.1,0.7-0.2,1.1-0.3c0.1,0,0.1,0,0.2,0c0-0.6,0-1.2,0-1.9c-0.5,0.1-0.9,0.3-1.4,0.4c0-0.4,0-0.8,0-1.2
		c0.2-0.1,0.4-0.1,0.6-0.2c0.2-0.1,0.5-0.1,0.7-0.2c0.1,0,0.1-0.1,0.1-0.2c0-0.5,0-1.1,0-1.6c0-0.1,0-0.1,0-0.2c0.1,0,0.3,0,0.4-0.1
		c0,0.6,0,1.3,0,1.9c0.2-0.1,0.4-0.1,0.6-0.2c0.2-0.1,0.5-0.1,0.7-0.2c0.1,0,0.1-0.1,0.1-0.2c0-0.6,0-1.1,0-1.7c0-0.2,0-0.2,0.2-0.2
		c0.1,0,0.1,0,0.2,0c0,0.6,0,1.3,0,1.9c0.5-0.1,0.9-0.3,1.4-0.4c0,0.4,0,0.8,0,1.2c0,0-0.1,0.1-0.1,0.1c-0.4,0.1-0.8,0.2-1.2,0.4
		c0,0.6,0,1.2,0,1.9c0.5-0.1,0.9-0.3,1.4-0.4c0,0.4,0,0.8,0,1.2c-0.4,0.1-0.8,0.2-1.2,0.3c-0.1,0-0.2,0.1-0.2,0.2c0,0.6,0,1.2,0,1.9
		c-0.1,0-0.3,0-0.4,0.1c0-0.7,0-1.3,0-2c-0.3,0.1-0.6,0.2-1,0.3c-0.1,0-0.1,0-0.2,0c-0.4,0.1-0.4,0.1-0.4,0.5c0,0.5,0,1,0,1.5
		C285.3,59.2,285.3,59.2,285.3,59.3z M285.3,56c0.5-0.1,1-0.3,1.4-0.4c0,0,0.1-0.1,0.1-0.1c0-0.4,0-0.8,0-1.2c0-0.2,0-0.4,0-0.6
		c-0.5,0.1-0.9,0.3-1.4,0.4c-0.1,0-0.1,0.1-0.1,0.2c0,0.5,0,1,0,1.5C285.3,55.8,285.3,55.9,285.3,56z"/>
</g>
<g id="XMLID_1170_">
	<path id="XMLID_1174_" d="M459,59.3c-0.1,0-0.3,0-0.4,0.1c0-0.7,0-1.3,0-2c-0.5,0.1-0.9,0.3-1.4,0.4c0-0.4,0-0.8,0-1.2
		c0,0,0.1-0.1,0.1-0.1c0.4-0.1,0.7-0.2,1.1-0.3c0.1,0,0.1,0,0.2,0c0-0.6,0-1.2,0-1.9c-0.5,0.1-0.9,0.3-1.4,0.4c0-0.4,0-0.8,0-1.2
		c0.2-0.1,0.4-0.1,0.6-0.2c0.2-0.1,0.5-0.1,0.7-0.2c0.1,0,0.1-0.1,0.1-0.2c0-0.5,0-1.1,0-1.6c0-0.1,0-0.1,0-0.2c0.1,0,0.3,0,0.4-0.1
		c0,0.6,0,1.3,0,1.9c0.2-0.1,0.4-0.1,0.6-0.2c0.2-0.1,0.5-0.1,0.7-0.2c0.1,0,0.1-0.1,0.1-0.2c0-0.6,0-1.1,0-1.7c0-0.2,0-0.2,0.2-0.2
		c0.1,0,0.1,0,0.2,0c0,0.6,0,1.3,0,1.9c0.5-0.1,0.9-0.3,1.4-0.4c0,0.4,0,0.8,0,1.2c0,0-0.1,0.1-0.1,0.1c-0.4,0.1-0.8,0.2-1.2,0.4
		c0,0.6,0,1.2,0,1.9c0.5-0.1,0.9-0.3,1.4-0.4c0,0.4,0,0.8,0,1.2c-0.4,0.1-0.8,0.2-1.2,0.3c-0.1,0-0.2,0.1-0.2,0.2c0,0.6,0,1.2,0,1.9
		c-0.1,0-0.3,0-0.4,0.1c0-0.7,0-1.3,0-2c-0.3,0.1-0.6,0.2-1,0.3c-0.1,0-0.1,0-0.2,0c-0.4,0.1-0.4,0.1-0.4,0.5c0,0.5,0,1,0,1.5
		C459,59.2,459,59.2,459,59.3z M459,56c0.5-0.1,1-0.3,1.4-0.4c0,0,0.1-0.1,0.1-0.1c0-0.4,0-0.8,0-1.2c0-0.2,0-0.4,0-0.6
		c-0.5,0.1-0.9,0.3-1.4,0.4c-0.1,0-0.1,0.1-0.1,0.2c0,0.5,0,1,0,1.5C459,55.8,459,55.9,459,56z"/>
</g>
<g id="XMLID_217_">
	<path id="XMLID_218_" d="M53.3,39.6c-0.4,0.1-0.9,0.1-1.4,0.2c0-2.2,0-4.5,0-6.7c-1.6,0.5-3.1,0.9-4.7,1.3c0-1.3,0-2.6,0-3.9
		c0-0.1,0.2-0.3,0.4-0.3c1.2-0.4,2.5-0.7,3.7-1.1c0.2,0,0.3-0.1,0.5-0.2c0-2.1,0-4.2,0-6.3c-1.6,0.4-3.1,0.9-4.6,1.3
		c0-1.4,0-2.7,0-4.1c0.6-0.2,1.3-0.4,1.9-0.6c0.8-0.2,1.5-0.5,2.3-0.6c0.4-0.1,0.5-0.3,0.5-0.6c0-1.8,0-3.7,0-5.5c0-0.2,0-0.4,0-0.7
		c0.5-0.1,0.9-0.1,1.4-0.2c0,2.1,0,4.2,0,6.4c0.8-0.2,1.5-0.4,2.2-0.6c0.8-0.2,1.7-0.5,2.5-0.7c0.3-0.1,0.4-0.2,0.4-0.6
		c0-1.9,0-3.7,0-5.6c0-0.5,0.1-0.8,0.7-0.7c0.2,0,0.4-0.1,0.7-0.1c0,2.2,0,4.3,0,6.5c1.6-0.4,3.1-0.9,4.7-1.3c0,1.4,0,2.6,0,3.9
		c0,0.1-0.3,0.3-0.4,0.3c-1.4,0.4-2.8,0.8-4.2,1.2c0,2.1,0,4.2,0,6.3c1.5-0.4,3-0.9,4.6-1.3c0,1.4,0,2.7,0,4.1
		c-1.3,0.4-2.7,0.8-4,1.1c-0.5,0.1-0.6,0.3-0.6,0.8c0,2.1,0,4.1,0,6.3c-0.5,0.1-0.9,0.1-1.4,0.2c0-2.2,0-4.4,0-6.7
		c-1.1,0.3-2.2,0.6-3.2,0.9c-0.2,0-0.4,0.1-0.5,0.2c-1.3,0.4-1.3,0.4-1.3,1.8c0,1.7,0,3.3,0,5C53.3,39.2,53.3,39.4,53.3,39.6z
		 M53.3,28.5c1.7-0.5,3.2-0.9,4.8-1.4c0.1,0,0.3-0.3,0.3-0.5c0-1.3,0-2.7,0-4c0-0.6,0-1.2,0-1.9c-1.6,0.4-3.1,0.9-4.6,1.3
		c-0.4,0.1-0.4,0.3-0.4,0.6c0,1.6,0,3.3,0,4.9C53.3,27.9,53.3,28.2,53.3,28.5z"/>
</g>
<g id="XMLID_208_">
	<path id="XMLID_209_" d="M70.9,69.4c-0.4,0.1-0.9,0.1-1.4,0.2c0-2.2,0-4.5,0-6.7c-1.6,0.5-3.1,0.9-4.7,1.3c0-1.3,0-2.6,0-3.9
		c0-0.1,0.2-0.3,0.4-0.3c1.2-0.4,2.5-0.7,3.7-1.1c0.2,0,0.3-0.1,0.5-0.2c0-2.1,0-4.2,0-6.3c-1.6,0.4-3.1,0.9-4.6,1.3
		c0-1.4,0-2.7,0-4.1c0.6-0.2,1.3-0.4,1.9-0.6c0.8-0.2,1.5-0.5,2.3-0.6c0.4-0.1,0.5-0.3,0.5-0.6c0-1.8,0-3.7,0-5.5c0-0.2,0-0.4,0-0.7
		c0.5-0.1,0.9-0.1,1.4-0.2c0,2.1,0,4.2,0,6.4c0.8-0.2,1.5-0.4,2.2-0.6c0.8-0.2,1.7-0.5,2.5-0.7c0.3-0.1,0.4-0.2,0.4-0.6
		c0-1.9,0-3.7,0-5.6c0-0.5,0.1-0.8,0.7-0.7c0.2,0,0.4-0.1,0.7-0.1c0,2.2,0,4.3,0,6.5c1.6-0.4,3.1-0.9,4.7-1.3c0,1.4,0,2.6,0,3.9
		c0,0.1-0.3,0.3-0.4,0.3c-1.4,0.4-2.8,0.8-4.2,1.2c0,2.1,0,4.2,0,6.3c1.5-0.4,3-0.9,4.6-1.3c0,1.4,0,2.7,0,4.1
		c-1.3,0.4-2.7,0.8-4,1.1c-0.5,0.1-0.6,0.3-0.6,0.8c0,2.1,0,4.1,0,6.3c-0.5,0.1-0.9,0.1-1.4,0.2c0-2.2,0-4.4,0-6.7
		c-1.1,0.3-2.2,0.6-3.2,0.9c-0.2,0-0.4,0.1-0.5,0.2c-1.3,0.4-1.3,0.4-1.3,1.8c0,1.7,0,3.3,0,5C70.9,69.1,70.9,69.2,70.9,69.4z
		 M70.9,58.4c1.7-0.5,3.2-0.9,4.8-1.4c0.1,0,0.3-0.3,0.3-0.5c0-1.3,0-2.7,0-4c0-0.6,0-1.2,0-1.9c-1.6,0.4-3.1,0.9-4.6,1.3
		c-0.4,0.1-0.4,0.3-0.4,0.6c0,1.6,0,3.3,0,4.9C70.9,57.7,70.9,58,70.9,58.4z"/>
</g>
<g id="XMLID_227_">
	<path id="XMLID_230_" d="M105.8,59c-0.4,0.1-0.9,0.1-1.4,0.2c0-2.2,0-4.5,0-6.7c-1.6,0.5-3.1,0.9-4.7,1.3c0-1.3,0-2.6,0-3.9
		c0-0.1,0.2-0.3,0.4-0.3c1.2-0.4,2.5-0.7,3.7-1.1c0.2,0,0.3-0.1,0.5-0.2c0-2.1,0-4.2,0-6.3c-1.6,0.4-3.1,0.9-4.6,1.3
		c0-1.4,0-2.7,0-4.1c0.6-0.2,1.3-0.4,1.9-0.6c0.8-0.2,1.5-0.5,2.3-0.6c0.4-0.1,0.5-0.3,0.5-0.6c0-1.8,0-3.7,0-5.5c0-0.2,0-0.4,0-0.7
		c0.5-0.1,0.9-0.1,1.4-0.2c0,2.1,0,4.2,0,6.4c0.8-0.2,1.5-0.4,2.2-0.6c0.8-0.2,1.7-0.5,2.5-0.7c0.3-0.1,0.4-0.2,0.4-0.6
		c0-1.9,0-3.7,0-5.6c0-0.5,0.1-0.8,0.7-0.7c0.2,0,0.4-0.1,0.7-0.1c0,2.2,0,4.3,0,6.5c1.6-0.4,3.1-0.9,4.7-1.3c0,1.4,0,2.6,0,3.9
		c0,0.1-0.3,0.3-0.4,0.3c-1.4,0.4-2.8,0.8-4.2,1.2c0,2.1,0,4.2,0,6.3c1.5-0.4,3-0.9,4.6-1.3c0,1.4,0,2.7,0,4.1
		c-1.3,0.4-2.7,0.8-4,1.1c-0.5,0.1-0.6,0.3-0.6,0.8c0,2.1,0,4.1,0,6.3c-0.5,0.1-0.9,0.1-1.4,0.2c0-2.2,0-4.4,0-6.7
		c-1.1,0.3-2.2,0.6-3.2,0.9c-0.2,0-0.4,0.1-0.5,0.2c-1.3,0.4-1.3,0.4-1.3,1.8c0,1.7,0,3.3,0,5C105.8,58.7,105.8,58.9,105.8,59z
		 M105.8,48c1.7-0.5,3.2-0.9,4.8-1.4c0.1,0,0.3-0.3,0.3-0.5c0-1.3,0-2.7,0-4c0-0.6,0-1.2,0-1.9c-1.6,0.4-3.1,0.9-4.6,1.3
		c-0.4,0.1-0.4,0.3-0.4,0.6c0,1.6,0,3.3,0,4.9C105.8,47.3,105.8,47.6,105.8,48z"/>
</g>
<g id="XMLID_203_">
	<path id="XMLID_205_" d="M88.6,29.8c-0.4,0.1-0.9,0.1-1.4,0.2c0-2.2,0-4.5,0-6.7c-1.6,0.5-3.1,0.9-4.7,1.3c0-1.3,0-2.6,0-3.9
		c0-0.1,0.2-0.3,0.4-0.3c1.2-0.4,2.5-0.7,3.7-1.1c0.2,0,0.3-0.1,0.5-0.2c0-2.1,0-4.2,0-6.3c-1.6,0.4-3.1,0.9-4.6,1.3
		c0-1.4,0-2.7,0-4.1c0.6-0.2,1.3-0.4,1.9-0.6C85.3,9.2,86,9,86.8,8.8c0.4-0.1,0.5-0.3,0.5-0.6c0-1.8,0-3.7,0-5.5c0-0.2,0-0.4,0-0.7
		c0.5-0.1,0.9-0.1,1.4-0.2c0,2.1,0,4.2,0,6.4c0.8-0.2,1.5-0.4,2.2-0.6c0.8-0.2,1.7-0.5,2.5-0.7c0.3-0.1,0.4-0.2,0.4-0.6
		c0-1.9,0-3.7,0-5.6c0-0.5,0.1-0.8,0.7-0.7c0.2,0,0.4-0.1,0.7-0.1c0,2.2,0,4.3,0,6.5c1.6-0.4,3.1-0.9,4.7-1.3c0,1.4,0,2.6,0,3.9
		c0,0.1-0.3,0.3-0.4,0.3c-1.4,0.4-2.8,0.8-4.2,1.2c0,2.1,0,4.2,0,6.3c1.5-0.4,3-0.9,4.6-1.3c0,1.4,0,2.7,0,4.1
		c-1.3,0.4-2.7,0.8-4,1.1c-0.5,0.1-0.6,0.3-0.6,0.8c0,2.1,0,4.1,0,6.3c-0.5,0.1-0.9,0.1-1.4,0.2c0-2.2,0-4.4,0-6.7
		c-1.1,0.3-2.2,0.6-3.2,0.9c-0.2,0-0.4,0.1-0.5,0.2c-1.3,0.4-1.3,0.4-1.3,1.8c0,1.7,0,3.3,0,5C88.6,29.5,88.6,29.6,88.6,29.8z
		 M88.6,18.8c1.7-0.5,3.2-0.9,4.8-1.4c0.1,0,0.3-0.3,0.3-0.5c0-1.3,0-2.7,0-4c0-0.6,0-1.2,0-1.9c-1.6,0.4-3.1,0.9-4.6,1.3
		c-0.4,0.1-0.4,0.3-0.4,0.6c0,1.6,0,3.3,0,4.9C88.6,18.1,88.6,18.4,88.6,18.8z"/>
</g>
</svg>
