<?xml version="1.0" encoding="utf-8"?>
<!-- Generator: Adobe Illustrator 26.0.2, SVG Export Plug-In . SVG Version: 6.00 Build 0)  -->
<svg version="1.1" id="Layer_1" xmlns="http://www.w3.org/2000/svg" xmlns:xlink="http://www.w3.org/1999/xlink" x="0px" y="0px"
	 viewBox="0 0 641 172" style="enable-background:new 0 0 641 172;" xml:space="preserve">
<style type="text/css">
	.st0{fill:none;stroke:#000000;stroke-width:0.5;stroke-miterlimit:10;}
	.st1{fill:none;stroke:#7C287D;stroke-width:1.5;stroke-miterlimit:10;}
	.st2{fill:none;stroke:#67BF75;stroke-miterlimit:10;}
</style>
<g id="XMLID_969_">
	<line id="XMLID_974_" class="st0" x1="0" y1="40.5" x2="641" y2="40.5"/>
	<line id="XMLID_973_" class="st0" x1="-0.2" y1="20.2" x2="640.8" y2="20.2"/>
	<line id="XMLID_972_" class="st0" x1="0" y1="60.8" x2="641" y2="60.8"/>
	<line id="XMLID_971_" class="st0" x1="0" y1="81.2" x2="641" y2="81.2"/>
	<line id="XMLID_970_" class="st0" x1="0" y1="101.5" x2="641" y2="101.5"/>
</g>
<line id="XMLID_968_" class="st0" x1="145" y1="153.3" x2="145" y2="91.4"/>
<circle id="XMLID_965_" class="st1" cx="155" cy="91.4" r="10.2"/>
<line id="XMLID_964_" class="st0" x1="113.1" y1="164.4" x2="113.1" y2="102.6"/>
<circle id="XMLID_937_" class="st1" cx="123" cy="102.6" r="10.2"/>
<line id="XMLID_936_" class="st0" x1="177" y1="143.9" x2="177" y2="82.1"/>
<circle id="XMLID_933_" class="st1" cx="186.9" cy="82.1" r="10.2"/>
<line id="XMLID_932_" class="st0" x1="208.9" y1="132.9" x2="208.9" y2="71.1"/>
<circle id="XMLID_929_" class="st1" cx="218.8" cy="71.1" r="10.2"/>
<line id="XMLID_928_" class="st0" x1="240.8" y1="123.3" x2="240.8" y2="61.5"/>
<circle id="XMLID_925_" class="st1" cx="250.7" cy="61.5" r="10.2"/>
<line id="XMLID_924_" class="st0" x1="272.8" y1="113" x2="272.8" y2="51.2"/>
<circle id="XMLID_921_" class="st1" cx="282.7" cy="51.2" r="10.2"/>
<line id="XMLID_920_" class="st0" x1="304.7" y1="104.1" x2="304.7" y2="42.2"/>
<circle id="XMLID_917_" class="st1" cx="314.6" cy="42.2" r="10.2"/>
<line id="XMLID_916_" class="st0" x1="336.6" y1="92.3" x2="336.6" y2="30.4"/>
<circle id="XMLID_913_" class="st1" cx="346.5" cy="30.4" r="10.2"/>
<line id="XMLID_912_" class="st0" x1="413.8" y1="104.1" x2="413.8" y2="42.2"/>
<circle id="XMLID_909_" class="st1" cx="423.7" cy="42.2" r="10.2"/>
<line id="XMLID_889_" class="st0" x1="381.9" y1="92.3" x2="381.9" y2="30.4"/>
<circle id="XMLID_868_" class="st1" cx="391.8" cy="30.4" r="10.2"/>
<line id="XMLID_865_" class="st0" x1="445.8" y1="113" x2="445.8" y2="51.2"/>
<circle id="XMLID_856_" class="st1" cx="455.7" cy="51.2" r="10.2"/>
<g id="XMLID_798_">
	<g id="XMLID_746_">
		<line id="XMLID_759_" class="st1" x1="477.7" y1="123.3" x2="477.7" y2="61.5"/>
		<g id="XMLID_747_">
			<circle id="XMLID_757_" class="st1" cx="487.6" cy="61.5" r="10.2"/>
		</g>
	</g>
</g>
<line id="XMLID_797_" class="st0" x1="509.6" y1="132.9" x2="509.6" y2="71.1"/>
<circle id="XMLID_794_" class="st1" cx="519.5" cy="71.1" r="10.2"/>
<line id="XMLID_793_" class="st0" x1="541.5" y1="143.9" x2="541.5" y2="82.1"/>
<circle id="XMLID_790_" class="st1" cx="551.5" cy="82.1" r="10.2"/>
<line id="XMLID_789_" class="st0" x1="573.5" y1="153.3" x2="573.5" y2="91.4"/>
<circle id="XMLID_786_" class="st1" cx="583.4" cy="91.4" r="10.2"/>
<line id="XMLID_785_" class="st0" x1="605.4" y1="164.4" x2="605.4" y2="102.6"/>
<circle id="XMLID_779_" class="st1" cx="615.3" cy="102.6" r="10.2"/>
<g id="XMLID_2746_">
	<path id="XMLID_2747_" d="M125.4,103.2h-3.9v3.6h4.4v1.1h-5.7V97.8h5.5v1.1h-4.2v3.2h3.9V103.2z"/>
</g>
<g id="XMLID_2743_">
	<path id="XMLID_2744_" d="M618.2,103.2h-3.9v3.6h4.4v1.1H613V97.8h5.5v1.1h-4.2v3.2h3.9V103.2z"/>
</g>
<g id="XMLID_2740_">
	<path id="XMLID_2741_" d="M149.9,86.9h5.4V88h-4.1v3.4h3.8v1.1h-3.8V97h-1.3V86.9z"/>
</g>
<g id="XMLID_2737_">
	<path id="XMLID_2738_" d="M578.4,86.8h5.4v1.1h-4.1v3.4h3.8v1.1h-3.8v4.6h-1.3V86.8z"/>
</g>
<g id="XMLID_2734_">
	<path id="XMLID_2735_" d="M187.9,86.4c-0.6,0.2-1.8,0.6-3.1,0.6c-1.5,0-2.8-0.4-3.8-1.3c-0.9-0.8-1.4-2.2-1.4-3.8
		c0-3,2.1-5.2,5.5-5.2c1.2,0,2.1,0.3,2.5,0.5l-0.3,1.1c-0.5-0.3-1.2-0.4-2.2-0.4c-2.5,0-4.1,1.5-4.1,4.1c0,2.6,1.5,4.1,3.9,4.1
		c0.9,0,1.4-0.1,1.7-0.3v-3h-2v-1h3.3V86.4z"/>
</g>
<g id="XMLID_2731_">
	<path id="XMLID_2732_" d="M552.9,86.4c-0.6,0.2-1.8,0.6-3.1,0.6c-1.5,0-2.8-0.4-3.8-1.3c-0.9-0.8-1.4-2.2-1.4-3.8
		c0-3,2.1-5.2,5.5-5.2c1.2,0,2.1,0.3,2.5,0.5l-0.3,1.1c-0.5-0.3-1.2-0.4-2.2-0.4c-2.5,0-4.1,1.5-4.1,4.1c0,2.6,1.5,4.1,3.9,4.1
		c0.9,0,1.4-0.1,1.7-0.3v-3h-2v-1h3.3V86.4z"/>
</g>
<g id="XMLID_2727_">
	<path id="XMLID_2728_" d="M217.1,72.5l-1,3.2h-1.4l3.5-10.1h1.6l3.5,10.1h-1.4l-1.1-3.2H217.1z M220.4,71.5l-1-2.9
		c-0.2-0.7-0.4-1.3-0.5-1.8h0c-0.1,0.6-0.3,1.2-0.5,1.8l-1,2.9H220.4z"/>
</g>
<g id="XMLID_2723_">
	<path id="XMLID_2724_" d="M517.7,72.5l-1,3.2h-1.4l3.5-10.1h1.6l3.5,10.1h-1.4l-1.1-3.2H517.7z M521,71.5l-1-2.9
		c-0.2-0.7-0.4-1.3-0.5-1.8h0c-0.1,0.6-0.3,1.2-0.5,1.8l-1,2.9H521z"/>
</g>
<g id="XMLID_2718_">
	<path id="XMLID_2719_" d="M247.7,56.3c0.6-0.1,1.5-0.2,2.4-0.2c1.3,0,2.1,0.2,2.8,0.7c0.5,0.4,0.9,1,0.9,1.8c0,1-0.7,1.8-1.7,2.2v0
		c1,0.2,2.1,1,2.1,2.5c0,0.9-0.3,1.5-0.9,2c-0.7,0.6-1.8,0.9-3.5,0.9c-0.9,0-1.6-0.1-2-0.1V56.3z M249,60.5h1.2
		c1.4,0,2.2-0.7,2.2-1.7c0-1.2-0.9-1.7-2.2-1.7c-0.6,0-0.9,0-1.2,0.1V60.5z M249,65.3c0.3,0,0.6,0.1,1.1,0.1c1.3,0,2.6-0.5,2.6-2
		c0-1.4-1.2-2-2.6-2H249V65.3z"/>
</g>
<g id="XMLID_2713_">
	<path id="XMLID_2714_" d="M485.5,56.3c0.6-0.1,1.5-0.2,2.4-0.2c1.3,0,2.1,0.2,2.8,0.7c0.5,0.4,0.9,1,0.9,1.8c0,1-0.7,1.8-1.7,2.2v0
		c1,0.2,2.1,1,2.1,2.5c0,0.9-0.3,1.5-0.9,2c-0.7,0.6-1.8,0.9-3.5,0.9c-0.9,0-1.6-0.1-2-0.1V56.3z M486.8,60.5h1.2
		c1.4,0,2.2-0.7,2.2-1.7c0-1.2-0.9-1.7-2.2-1.7c-0.6,0-0.9,0-1.2,0.1V60.5z M486.8,65.3c0.3,0,0.6,0.1,1.1,0.1c1.3,0,2.6-0.5,2.6-2
		c0-1.4-1.2-2-2.6-2h-1.1V65.3z"/>
</g>
<g id="XMLID_2710_">
	<path id="XMLID_2711_" d="M283.9,55.9c-0.5,0.2-1.4,0.5-2.7,0.5c-2.8,0-5-1.8-5-5.1c0-3.2,2.1-5.3,5.3-5.3c1.2,0,2.1,0.3,2.4,0.5
		l-0.3,1.1c-0.5-0.2-1.2-0.4-2-0.4c-2.4,0-3.9,1.5-3.9,4.2c0,2.5,1.4,4.1,3.9,4.1c0.8,0,1.6-0.2,2.1-0.4L283.9,55.9z"/>
</g>
<g id="XMLID_2707_">
	<path id="XMLID_2708_" d="M457.2,55.9c-0.5,0.2-1.4,0.5-2.7,0.5c-2.8,0-5-1.8-5-5.1c0-3.2,2.1-5.3,5.3-5.3c1.2,0,2.1,0.3,2.4,0.4
		l-0.3,1.1c-0.5-0.2-1.2-0.4-2-0.4c-2.4,0-3.9,1.5-3.9,4.2c0,2.5,1.4,4.1,3.9,4.1c0.8,0,1.6-0.2,2.1-0.4L457.2,55.9z"/>
</g>
<g id="XMLID_2703_">
	<path id="XMLID_2704_" d="M308.5,37.9c0.8-0.1,1.7-0.2,2.8-0.2c1.9,0,3.2,0.5,4.1,1.3c0.9,0.8,1.4,2,1.4,3.6c0,1.7-0.5,3-1.5,3.9
		c-1,0.9-2.5,1.5-4.5,1.5c-0.9,0-1.7,0-2.4-0.1V37.9z M309.8,46.8c0.3,0,0.8,0.1,1.3,0.1c2.8,0,4.3-1.6,4.3-4.3
		c0-2.4-1.3-3.9-4.1-3.9c-0.7,0-1.2,0.1-1.5,0.1V46.8z"/>
</g>
<g id="XMLID_2699_">
	<path id="XMLID_2700_" d="M417.2,37.9c0.8-0.1,1.7-0.2,2.8-0.2c1.9,0,3.2,0.5,4.1,1.3c0.9,0.8,1.4,2,1.4,3.6c0,1.7-0.5,3-1.5,3.9
		c-1,0.9-2.5,1.5-4.5,1.5c-0.9,0-1.7,0-2.4-0.1V37.9z M418.5,46.8c0.3,0,0.8,0.1,1.3,0.1c2.8,0,4.3-1.6,4.3-4.3
		c0-2.4-1.3-3.9-4.1-3.9c-0.7,0-1.2,0.1-1.5,0.1V46.8z"/>
</g>
<g id="XMLID_2696_">
	<path id="XMLID_2697_" d="M348.9,31H345v3.6h4.4v1.1h-5.7V25.7h5.5v1.1H345V30h3.9V31z"/>
</g>
<g id="XMLID_2693_">
	<path id="XMLID_2694_" d="M394.5,31h-3.9v3.6h4.4v1.1h-5.7V25.7h5.5v1.1h-4.2V30h3.9V31z"/>
</g>
<g id="XMLID_702_">
	<path id="XMLID_708_" d="M47.5,101.3c-2.1,0.7-4.3,1-6.5,1.1c-5.8,0.1-11.2-1.5-15.8-5c-4.9-3.7-7.5-8.7-8.7-14.6
		c-1.1-5.7,0-11.1,2.4-16.3c2.1-4.5,5-8.5,8.2-12.2c0.7-0.8,1.4-1.5,2.1-2.3c0.3-0.3,0.3-0.5,0.2-0.9c-0.8-2.8-1.8-5.5-2.4-8.3
		c-1.3-5.6-1.5-11.3,0.3-16.9c2.1-6.4,6-11.2,12.5-13.5c0.8-0.3,1.6-0.5,2.4-0.6c1.7-0.1,3.2,0.6,4.5,1.6c2.7,2.1,4,5,4.2,8.3
		c0.3,5.1-1.4,9.7-3.8,14.2c-2.3,4.3-5.4,8.2-8.6,11.9c-1.1,1.3-2.1,2.5-3.2,3.7c-0.3,0.4-0.1,0.6,0,0.9c2,3.9,3.9,7.8,5.9,11.6
		c1-0.2,2-0.5,3.1-0.7c3.1-0.6,6.1,0,8.9,1.4c5.5,2.9,8.8,7.5,9.8,13.7c0.8,5-0.6,9.6-3.4,13.7c-1.8,2.7-4.1,4.9-6.8,6.6
		c-0.4,0.3-0.5,0.5-0.4,1c0.5,3.1,1.1,6.1,1.6,9.2c0.5,3.4,0.7,6.8-0.4,10.1c-1.4,4.5-4.6,7.1-9,8.3c-5.7,1.5-10.9,0.3-15.5-3.2
		c-3.9-2.9-6.5-6.6-7.6-11.4c-0.1-0.6-0.2-1.3-0.3-1.9c0-0.3,0-0.6,0-0.9c1.3,6.7,5,11.5,11.1,14.3c4.3,2,8.7,2.1,13-0.1
		c3.3-1.7,5-4.5,5.1-8.2c0.1-3.3-0.8-6.4-1.5-9.6c-0.4-1.5-0.8-2.9-1.2-4.4C47.7,101.7,47.6,101.5,47.5,101.3z M46,96
		c-2.5-9.1-6.5-17.6-9.3-26.6c-2.5,2.7-3.5,5.7-2.7,9.1c1,4.3,3.6,7.2,7.9,8.4c-0.3,0-0.5,0-0.8-0.1c-4.8-1.1-8.4-5.9-8.5-10.9
		c0-2.9,1-5.4,2.9-7.5c0.4-0.4,0.4-0.7,0.2-1.2c-0.6-1.6-1.2-3.1-1.9-4.7c-0.8-2-1.6-3.9-2.5-6c-0.8,1.1-1.6,2.1-2.3,3.1
		c-2.4,3.4-4.5,7.1-5.8,11.1c-1,3.3-1.3,6.6-0.7,10c0.8,4,2.9,7.4,5.7,10.3C33.2,95.8,39.2,97.2,46,96z M33.3,47.8
		c1.5-1.5,2.9-3,4.2-4.4c2.7-2.9,5.3-5.9,7.4-9.3c2.2-3.6,3.9-7.3,4.1-11.6c0.1-3.2-0.8-6-3.3-8.1c-1.4-1.2-2.9-1.8-4.9-1
		c-4.2,1.8-7.2,4.7-9.2,8.8c-2,4.2-2.4,8.6-1.9,13.1C30.2,39.6,31.5,43.7,33.3,47.8z M51.3,93.7c2.7-1.8,4.7-3.9,6.2-6.6
		c1.5-2.8,2.2-5.7,1.8-8.9c-0.4-3.3-1.9-6.2-4.2-8.6c-2.8-2.9-6.1-4.4-10.2-4.1c-0.9,0.1-1.7,0.3-2.8,0.5
		C46.8,74.8,49,84.2,51.3,93.7z"/>
</g>
<g id="XMLID_1057_">
	<g id="XMLID_1062_">
		<path id="XMLID_1063_" d="M62.5,41.9C62,41.9,61.6,42,61.1,42c0-2.2,0-4.5,0-6.7c-1.6,0.5-3.1,0.9-4.7,1.3c0-1.3,0-2.6,0-3.9
			c0-0.1,0.2-0.3,0.4-0.3c1.2-0.4,2.5-0.7,3.7-1.1c0.2,0,0.3-0.1,0.5-0.2c0-2.1,0-4.2,0-6.3c-1.6,0.4-3.1,0.9-4.6,1.3
			c0-1.4,0-2.7,0-4.1c0.6-0.2,1.3-0.4,1.9-0.6c0.8-0.2,1.5-0.5,2.3-0.6c0.4-0.1,0.5-0.3,0.5-0.6c0-1.8,0-3.7,0-5.5
			c0-0.2,0-0.4,0-0.7c0.5-0.1,0.9-0.1,1.4-0.2c0,2.1,0,4.2,0,6.4c0.8-0.2,1.5-0.4,2.2-0.6c0.8-0.2,1.7-0.5,2.5-0.7
			c0.3-0.1,0.4-0.2,0.4-0.6c0-1.9,0-3.7,0-5.6c0-0.5,0.1-0.8,0.7-0.7c0.2,0,0.4-0.1,0.7-0.1c0,2.2,0,4.3,0,6.5
			c1.6-0.4,3.1-0.9,4.7-1.3c0,1.4,0,2.6,0,3.9c0,0.1-0.3,0.3-0.4,0.3c-1.4,0.4-2.8,0.8-4.2,1.2c0,2.1,0,4.2,0,6.3
			c1.5-0.4,3-0.9,4.6-1.3c0,1.4,0,2.7,0,4.1c-1.3,0.4-2.7,0.8-4,1.1C69.1,33,69,33.2,69,33.7c0,2.1,0,4.1,0,6.3
			c-0.5,0.1-0.9,0.1-1.4,0.2c0-2.2,0-4.4,0-6.7c-1.1,0.3-2.2,0.6-3.2,0.9c-0.2,0-0.4,0.1-0.5,0.2c-1.3,0.4-1.3,0.4-1.3,1.8
			c0,1.7,0,3.3,0,5C62.5,41.5,62.5,41.7,62.5,41.9z M62.5,30.8c1.7-0.5,3.2-0.9,4.8-1.4c0.1,0,0.3-0.3,0.3-0.5c0-1.3,0-2.7,0-4
			c0-0.6,0-1.2,0-1.9c-1.6,0.4-3.1,0.9-4.6,1.3c-0.4,0.1-0.4,0.3-0.4,0.6c0,1.6,0,3.3,0,4.9C62.5,30.2,62.5,30.4,62.5,30.8z"/>
	</g>
	<g id="XMLID_1058_">
		<path id="XMLID_1059_" d="M77.4,63.1c-0.4,0.1-0.9,0.1-1.4,0.2c0-2.2,0-4.5,0-6.7c-1.6,0.5-3.1,0.9-4.7,1.3c0-1.3,0-2.6,0-3.9
			c0-0.1,0.2-0.3,0.4-0.3c1.2-0.4,2.5-0.7,3.7-1.1c0.2,0,0.3-0.1,0.5-0.2c0-2.1,0-4.2,0-6.3c-1.6,0.4-3.1,0.9-4.6,1.3
			c0-1.4,0-2.7,0-4.1c0.6-0.2,1.3-0.4,1.9-0.6c0.8-0.2,1.5-0.5,2.3-0.6c0.4-0.1,0.5-0.3,0.5-0.6c0-1.8,0-3.7,0-5.5
			c0-0.2,0-0.4,0-0.7c0.5-0.1,0.9-0.1,1.4-0.2c0,2.1,0,4.2,0,6.4c0.8-0.2,1.5-0.4,2.2-0.6c0.8-0.2,1.7-0.5,2.5-0.7
			c0.3-0.1,0.4-0.2,0.4-0.6c0-1.9,0-3.7,0-5.6c0-0.5,0.1-0.8,0.7-0.7c0.2,0,0.4-0.1,0.7-0.1c0,2.2,0,4.3,0,6.5
			c1.6-0.4,3.1-0.9,4.7-1.3c0,1.4,0,2.6,0,3.9c0,0.1-0.3,0.3-0.4,0.3c-1.4,0.4-2.8,0.8-4.2,1.2c0,2.1,0,4.2,0,6.3
			c1.5-0.4,3-0.9,4.6-1.3c0,1.4,0,2.7,0,4.1c-1.3,0.4-2.7,0.8-4,1.1c-0.5,0.1-0.6,0.3-0.6,0.8c0,2.1,0,4.1,0,6.3
			c-0.5,0.1-0.9,0.1-1.4,0.2c0-2.2,0-4.4,0-6.7c-1.1,0.3-2.2,0.6-3.2,0.9c-0.2,0-0.4,0.1-0.5,0.2c-1.3,0.4-1.3,0.4-1.3,1.8
			c0,1.7,0,3.3,0,5C77.4,62.8,77.4,63,77.4,63.1z M77.4,52.1c1.7-0.5,3.2-0.9,4.8-1.4c0.1,0,0.3-0.3,0.3-0.5c0-1.3,0-2.7,0-4
			c0-0.6,0-1.2,0-1.9c-1.6,0.4-3.1,0.9-4.6,1.3c-0.4,0.1-0.4,0.3-0.4,0.6c0,1.6,0,3.3,0,4.9C77.4,51.4,77.4,51.7,77.4,52.1z"/>
	</g>
</g>
<g id="XMLID_1099_">
	<path id="XMLID_1100_" d="M88.5,33.9c-0.4,0.1-0.9,0.1-1.4,0.2c0-2.2,0-4.5,0-6.7c-1.6,0.5-3.1,0.9-4.7,1.3c0-1.3,0-2.6,0-3.9
		c0-0.1,0.2-0.3,0.4-0.3c1.2-0.4,2.5-0.7,3.7-1.1c0.2,0,0.3-0.1,0.5-0.2c0-2.1,0-4.2,0-6.3c-1.6,0.4-3.1,0.9-4.6,1.3
		c0-1.4,0-2.7,0-4.1c0.6-0.2,1.3-0.4,1.9-0.6c0.8-0.2,1.5-0.5,2.3-0.6c0.4-0.1,0.5-0.3,0.5-0.6c0-1.8,0-3.7,0-5.5c0-0.2,0-0.4,0-0.7
		C87.6,6,88,6,88.5,5.9c0,2.1,0,4.2,0,6.4c0.8-0.2,1.5-0.4,2.2-0.6c0.8-0.2,1.7-0.5,2.5-0.7c0.3-0.1,0.4-0.2,0.4-0.6
		c0-1.9,0-3.7,0-5.6c0-0.5,0.1-0.8,0.7-0.7c0.2,0,0.4-0.1,0.7-0.1c0,2.2,0,4.3,0,6.5c1.6-0.4,3.1-0.9,4.7-1.3c0,1.4,0,2.6,0,3.9
		c0,0.1-0.3,0.3-0.4,0.3c-1.4,0.4-2.8,0.8-4.2,1.2c0,2.1,0,4.2,0,6.3c1.5-0.4,3-0.9,4.6-1.3c0,1.4,0,2.7,0,4.1
		c-1.3,0.4-2.7,0.8-4,1.1C95.2,25,95,25.2,95,25.7c0,2.1,0,4.1,0,6.3c-0.5,0.1-0.9,0.1-1.4,0.2c0-2.2,0-4.4,0-6.7
		c-1.1,0.3-2.2,0.6-3.2,0.9c-0.2,0-0.4,0.1-0.5,0.2c-1.3,0.4-1.3,0.4-1.3,1.8c0,1.7,0,3.3,0,5C88.6,33.5,88.5,33.7,88.5,33.9z
		 M88.6,22.8c1.7-0.5,3.2-0.9,4.8-1.4c0.1,0,0.3-0.3,0.3-0.5c0-1.3,0-2.7,0-4c0-0.6,0-1.2,0-1.9c-1.6,0.4-3.1,0.9-4.6,1.3
		c-0.4,0.1-0.4,0.3-0.4,0.6c0,1.6,0,3.3,0,4.9C88.6,22.2,88.6,22.4,88.6,22.8z"/>
</g>
<g id="XMLID_1095_">
	<path id="XMLID_1096_" d="M103.4,55.1c-0.4,0.1-0.9,0.1-1.4,0.2c0-2.2,0-4.5,0-6.7c-1.6,0.5-3.1,0.9-4.7,1.3c0-1.3,0-2.6,0-3.9
		c0-0.1,0.2-0.3,0.4-0.3c1.2-0.4,2.5-0.7,3.7-1.1c0.2,0,0.3-0.1,0.5-0.2c0-2.1,0-4.2,0-6.3c-1.6,0.4-3.1,0.9-4.6,1.3
		c0-1.4,0-2.7,0-4.1c0.6-0.2,1.3-0.4,1.9-0.6c0.8-0.2,1.5-0.5,2.3-0.6c0.4-0.1,0.5-0.3,0.5-0.6c0-1.8,0-3.7,0-5.5c0-0.2,0-0.4,0-0.7
		c0.5-0.1,0.9-0.1,1.4-0.2c0,2.1,0,4.2,0,6.4c0.8-0.2,1.5-0.4,2.2-0.6c0.8-0.2,1.7-0.5,2.5-0.7c0.3-0.1,0.4-0.2,0.4-0.6
		c0-1.9,0-3.7,0-5.6c0-0.5,0.1-0.8,0.7-0.7c0.2,0,0.4-0.1,0.7-0.1c0,2.2,0,4.3,0,6.5c1.6-0.4,3.1-0.9,4.7-1.3c0,1.4,0,2.6,0,3.9
		c0,0.1-0.3,0.3-0.4,0.3c-1.4,0.4-2.8,0.8-4.2,1.2c0,2.1,0,4.2,0,6.3c1.5-0.4,3-0.9,4.6-1.3c0,1.4,0,2.7,0,4.1
		c-1.3,0.4-2.7,0.8-4,1.1c-0.5,0.1-0.6,0.3-0.6,0.8c0,2.1,0,4.1,0,6.3c-0.5,0.1-0.9,0.1-1.4,0.2c0-2.2,0-4.4,0-6.7
		c-1.1,0.3-2.2,0.6-3.2,0.9c-0.2,0-0.4,0.1-0.5,0.2c-1.3,0.4-1.3,0.4-1.3,1.8c0,1.7,0,3.3,0,5C103.5,54.8,103.4,55,103.4,55.1z
		 M103.5,44.1c1.7-0.5,3.2-0.9,4.8-1.4c0.1,0,0.3-0.3,0.3-0.5c0-1.3,0-2.7,0-4c0-0.6,0-1.2,0-1.9c-1.6,0.4-3.1,0.9-4.6,1.3
		c-0.4,0.1-0.4,0.3-0.4,0.6c0,1.6,0,3.3,0,4.9C103.5,43.4,103.5,43.7,103.5,44.1z"/>
</g>
<g id="XMLID_582_">
	<path id="XMLID_585_" d="M157.7,96.7c-0.1,0-0.3,0-0.4,0.1c0-0.7,0-1.3,0-2c-0.5,0.1-0.9,0.3-1.4,0.4c0-0.4,0-0.8,0-1.2
		c0,0,0.1-0.1,0.1-0.1c0.4-0.1,0.7-0.2,1.1-0.3c0.1,0,0.1,0,0.2,0c0-0.6,0-1.2,0-1.9c-0.5,0.1-0.9,0.3-1.4,0.4c0-0.4,0-0.8,0-1.2
		c0.2-0.1,0.4-0.1,0.6-0.2c0.2-0.1,0.5-0.1,0.7-0.2c0.1,0,0.1-0.1,0.1-0.2c0-0.5,0-1.1,0-1.6c0-0.1,0-0.1,0-0.2c0.1,0,0.3,0,0.4-0.1
		c0,0.6,0,1.3,0,1.9c0.2-0.1,0.4-0.1,0.6-0.2c0.2-0.1,0.5-0.1,0.7-0.2c0.1,0,0.1-0.1,0.1-0.2c0-0.6,0-1.1,0-1.7c0-0.2,0-0.2,0.2-0.2
		c0.1,0,0.1,0,0.2,0c0,0.6,0,1.3,0,1.9c0.5-0.1,0.9-0.3,1.4-0.4c0,0.4,0,0.8,0,1.2c0,0-0.1,0.1-0.1,0.1c-0.4,0.1-0.8,0.2-1.2,0.4
		c0,0.6,0,1.2,0,1.9c0.5-0.1,0.9-0.3,1.4-0.4c0,0.4,0,0.8,0,1.2c-0.4,0.1-0.8,0.2-1.2,0.3c-0.1,0-0.2,0.1-0.2,0.2c0,0.6,0,1.2,0,1.9
		c-0.1,0-0.3,0-0.4,0.1c0-0.7,0-1.3,0-2c-0.3,0.1-0.6,0.2-1,0.3c-0.1,0-0.1,0-0.2,0c-0.4,0.1-0.4,0.1-0.4,0.5c0,0.5,0,1,0,1.5
		C157.8,96.6,157.8,96.7,157.7,96.7z M157.8,93.4c0.5-0.1,1-0.3,1.4-0.4c0,0,0.1-0.1,0.1-0.1c0-0.4,0-0.8,0-1.2c0-0.2,0-0.4,0-0.6
		c-0.5,0.1-0.9,0.3-1.4,0.4c-0.1,0-0.1,0.1-0.1,0.2c0,0.5,0,1,0,1.5C157.8,93.3,157.8,93.3,157.8,93.4z"/>
</g>
<g id="XMLID_573_">
	<path id="XMLID_576_" d="M190.5,85.5c-0.1,0-0.3,0-0.4,0.1c0-0.7,0-1.3,0-2c-0.5,0.1-0.9,0.3-1.4,0.4c0-0.4,0-0.8,0-1.2
		c0,0,0.1-0.1,0.1-0.1c0.4-0.1,0.7-0.2,1.1-0.3c0.1,0,0.1,0,0.2,0c0-0.6,0-1.2,0-1.9c-0.5,0.1-0.9,0.3-1.4,0.4c0-0.4,0-0.8,0-1.2
		c0.2-0.1,0.4-0.1,0.6-0.2c0.2-0.1,0.5-0.1,0.7-0.2c0.1,0,0.1-0.1,0.1-0.2c0-0.5,0-1.1,0-1.6c0-0.1,0-0.1,0-0.2c0.1,0,0.3,0,0.4-0.1
		c0,0.6,0,1.3,0,1.9c0.2-0.1,0.4-0.1,0.6-0.2c0.2-0.1,0.5-0.1,0.7-0.2c0.1,0,0.1-0.1,0.1-0.2c0-0.6,0-1.1,0-1.7c0-0.2,0-0.2,0.2-0.2
		c0.1,0,0.1,0,0.2,0c0,0.6,0,1.3,0,1.9c0.5-0.1,0.9-0.3,1.4-0.4c0,0.4,0,0.8,0,1.2c0,0-0.1,0.1-0.1,0.1c-0.4,0.1-0.8,0.2-1.2,0.4
		c0,0.6,0,1.2,0,1.9c0.5-0.1,0.9-0.3,1.4-0.4c0,0.4,0,0.8,0,1.2c-0.4,0.1-0.8,0.2-1.2,0.3c-0.1,0-0.2,0.1-0.2,0.2c0,0.6,0,1.2,0,1.9
		c-0.1,0-0.3,0-0.4,0.1c0-0.7,0-1.3,0-2c-0.3,0.1-0.6,0.2-1,0.3c-0.1,0-0.1,0-0.2,0c-0.4,0.1-0.4,0.1-0.4,0.5c0,0.5,0,1,0,1.5
		C190.5,85.4,190.5,85.4,190.5,85.5z M190.5,82.2c0.5-0.1,1-0.3,1.4-0.4c0,0,0.1-0.1,0.1-0.1c0-0.4,0-0.8,0-1.2c0-0.2,0-0.4,0-0.6
		c-0.5,0.1-0.9,0.3-1.4,0.4c-0.1,0-0.1,0.1-0.1,0.2c0,0.5,0,1,0,1.5C190.5,82,190.5,82.1,190.5,82.2z"/>
</g>
<g id="XMLID_219_">
	<path id="XMLID_222_" d="M586.1,96.7c-0.1,0-0.3,0-0.4,0.1c0-0.7,0-1.3,0-2c-0.5,0.1-0.9,0.3-1.4,0.4c0-0.4,0-0.8,0-1.2
		c0,0,0.1-0.1,0.1-0.1c0.4-0.1,0.7-0.2,1.1-0.3c0.1,0,0.1,0,0.2,0c0-0.6,0-1.2,0-1.9c-0.5,0.1-0.9,0.3-1.4,0.4c0-0.4,0-0.8,0-1.2
		c0.2-0.1,0.4-0.1,0.6-0.2c0.2-0.1,0.5-0.1,0.7-0.2c0.1,0,0.1-0.1,0.1-0.2c0-0.5,0-1.1,0-1.6c0-0.1,0-0.1,0-0.2c0.1,0,0.3,0,0.4-0.1
		c0,0.6,0,1.3,0,1.9c0.2-0.1,0.4-0.1,0.6-0.2c0.2-0.1,0.5-0.1,0.7-0.2c0.1,0,0.1-0.1,0.1-0.2c0-0.6,0-1.1,0-1.7c0-0.2,0-0.2,0.2-0.2
		c0.1,0,0.1,0,0.2,0c0,0.6,0,1.3,0,1.9c0.5-0.1,0.9-0.3,1.4-0.4c0,0.4,0,0.8,0,1.2c0,0-0.1,0.1-0.1,0.1c-0.4,0.1-0.8,0.2-1.2,0.4
		c0,0.6,0,1.2,0,1.9c0.5-0.1,0.9-0.3,1.4-0.4c0,0.4,0,0.8,0,1.2c-0.4,0.1-0.8,0.2-1.2,0.3c-0.1,0-0.2,0.1-0.2,0.2c0,0.6,0,1.2,0,1.9
		c-0.1,0-0.3,0-0.4,0.1c0-0.7,0-1.3,0-2c-0.3,0.1-0.6,0.2-1,0.3c-0.1,0-0.1,0-0.2,0c-0.4,0.1-0.4,0.1-0.4,0.5c0,0.5,0,1,0,1.5
		C586.1,96.6,586.1,96.7,586.1,96.7z M586.1,93.4c0.5-0.1,1-0.3,1.4-0.4c0,0,0.1-0.1,0.1-0.1c0-0.4,0-0.8,0-1.2c0-0.2,0-0.4,0-0.6
		c-0.5,0.1-0.9,0.3-1.4,0.4c-0.1,0-0.1,0.1-0.1,0.2c0,0.5,0,1,0,1.5C586.1,93.3,586.1,93.3,586.1,93.4z"/>
</g>
<g id="XMLID_36_">
	<path id="XMLID_39_" d="M555.6,85.5c-0.1,0-0.3,0-0.4,0.1c0-0.7,0-1.3,0-2c-0.5,0.1-0.9,0.3-1.4,0.4c0-0.4,0-0.8,0-1.2
		c0,0,0.1-0.1,0.1-0.1c0.4-0.1,0.7-0.2,1.1-0.3c0.1,0,0.1,0,0.2,0c0-0.6,0-1.2,0-1.9c-0.5,0.1-0.9,0.3-1.4,0.4c0-0.4,0-0.8,0-1.2
		c0.2-0.1,0.4-0.1,0.6-0.2c0.2-0.1,0.5-0.1,0.7-0.2c0.1,0,0.1-0.1,0.1-0.2c0-0.5,0-1.1,0-1.6c0-0.1,0-0.1,0-0.2c0.1,0,0.3,0,0.4-0.1
		c0,0.6,0,1.3,0,1.9c0.2-0.1,0.4-0.1,0.6-0.2c0.2-0.1,0.5-0.1,0.7-0.2c0.1,0,0.1-0.1,0.1-0.2c0-0.6,0-1.1,0-1.7c0-0.2,0-0.2,0.2-0.2
		c0.1,0,0.1,0,0.2,0c0,0.6,0,1.3,0,1.9c0.5-0.1,0.9-0.3,1.4-0.4c0,0.4,0,0.8,0,1.2c0,0-0.1,0.1-0.1,0.1c-0.4,0.1-0.8,0.2-1.2,0.4
		c0,0.6,0,1.2,0,1.9c0.5-0.1,0.9-0.3,1.4-0.4c0,0.4,0,0.8,0,1.2c-0.4,0.1-0.8,0.2-1.2,0.3c-0.1,0-0.2,0.1-0.2,0.2c0,0.6,0,1.2,0,1.9
		c-0.1,0-0.3,0-0.4,0.1c0-0.7,0-1.3,0-2c-0.3,0.1-0.6,0.2-1,0.3c-0.1,0-0.1,0-0.2,0c-0.4,0.1-0.4,0.1-0.4,0.5c0,0.5,0,1,0,1.5
		C555.6,85.4,555.6,85.4,555.6,85.5z M555.6,82.2c0.5-0.1,1-0.3,1.4-0.4c0,0,0.1-0.1,0.1-0.1c0-0.4,0-0.8,0-1.2c0-0.2,0-0.4,0-0.6
		c-0.5,0.1-0.9,0.3-1.4,0.4c-0.1,0-0.1,0.1-0.1,0.2c0,0.5,0,1,0,1.5C555.6,82,555.6,82.1,555.6,82.2z"/>
</g>
<g id="XMLID_1105_">
	<path id="XMLID_1106_" d="M319.3,47c-0.1,0-0.3,0-0.4,0.1c0-0.7,0-1.3,0-2c-0.5,0.1-0.9,0.3-1.4,0.4c0-0.4,0-0.8,0-1.2
		c0,0,0.1-0.1,0.1-0.1c0.4-0.1,0.7-0.2,1.1-0.3c0.1,0,0.1,0,0.2,0c0-0.6,0-1.2,0-1.9c-0.5,0.1-0.9,0.3-1.4,0.4c0-0.4,0-0.8,0-1.2
		c0.2-0.1,0.4-0.1,0.6-0.2c0.2-0.1,0.5-0.1,0.7-0.2c0.1,0,0.1-0.1,0.1-0.2c0-0.5,0-1.1,0-1.6c0-0.1,0-0.1,0-0.2c0.1,0,0.3,0,0.4-0.1
		c0,0.6,0,1.3,0,1.9c0.2-0.1,0.4-0.1,0.6-0.2c0.2-0.1,0.5-0.1,0.7-0.2c0.1,0,0.1-0.1,0.1-0.2c0-0.6,0-1.1,0-1.7c0-0.2,0-0.2,0.2-0.2
		c0.1,0,0.1,0,0.2,0c0,0.6,0,1.3,0,1.9c0.5-0.1,0.9-0.3,1.4-0.4c0,0.4,0,0.8,0,1.2c0,0-0.1,0.1-0.1,0.1c-0.4,0.1-0.8,0.2-1.2,0.4
		c0,0.6,0,1.2,0,1.9c0.5-0.1,0.9-0.3,1.4-0.4c0,0.4,0,0.8,0,1.2c-0.4,0.1-0.8,0.2-1.2,0.3c-0.1,0-0.2,0.1-0.2,0.2c0,0.6,0,1.2,0,1.9
		c-0.1,0-0.3,0-0.4,0.1c0-0.7,0-1.3,0-2c-0.3,0.1-0.6,0.2-1,0.3c-0.1,0-0.1,0-0.2,0c-0.4,0.1-0.4,0.1-0.4,0.5c0,0.5,0,1,0,1.5
		C319.3,46.9,319.3,47,319.3,47z M319.3,43.8c0.5-0.1,1-0.3,1.4-0.4c0,0,0.1-0.1,0.1-0.1c0-0.4,0-0.8,0-1.2c0-0.2,0-0.4,0-0.6
		c-0.5,0.1-0.9,0.3-1.4,0.4c-0.1,0-0.1,0.1-0.1,0.2c0,0.5,0,1,0,1.5C319.3,43.6,319.3,43.7,319.3,43.8z"/>
</g>
<g id="XMLID_1109_">
	<path id="XMLID_1110_" d="M428.2,47c-0.1,0-0.3,0-0.4,0.1c0-0.7,0-1.3,0-2c-0.5,0.1-0.9,0.3-1.4,0.4c0-0.4,0-0.8,0-1.2
		c0,0,0.1-0.1,0.1-0.1c0.4-0.1,0.7-0.2,1.1-0.3c0.1,0,0.1,0,0.2,0c0-0.6,0-1.2,0-1.9c-0.5,0.1-0.9,0.3-1.4,0.4c0-0.4,0-0.8,0-1.2
		c0.2-0.1,0.4-0.1,0.6-0.2c0.2-0.1,0.5-0.1,0.7-0.2c0.1,0,0.1-0.1,0.1-0.2c0-0.5,0-1.1,0-1.6c0-0.1,0-0.1,0-0.2c0.1,0,0.3,0,0.4-0.1
		c0,0.6,0,1.3,0,1.9c0.2-0.1,0.4-0.1,0.6-0.2c0.2-0.1,0.5-0.1,0.7-0.2c0.1,0,0.1-0.1,0.1-0.2c0-0.6,0-1.1,0-1.7c0-0.2,0-0.2,0.2-0.2
		c0.1,0,0.1,0,0.2,0c0,0.6,0,1.3,0,1.9c0.5-0.1,0.9-0.3,1.4-0.4c0,0.4,0,0.8,0,1.2c0,0-0.1,0.1-0.1,0.1c-0.4,0.1-0.8,0.2-1.2,0.4
		c0,0.6,0,1.2,0,1.9c0.5-0.1,0.9-0.3,1.4-0.4c0,0.4,0,0.8,0,1.2c-0.4,0.1-0.8,0.2-1.2,0.3c-0.1,0-0.2,0.1-0.2,0.2c0,0.6,0,1.2,0,1.9
		c-0.1,0-0.3,0-0.4,0.1c0-0.7,0-1.3,0-2c-0.3,0.1-0.6,0.2-1,0.3c-0.1,0-0.1,0-0.2,0c-0.4,0.1-0.4,0.1-0.4,0.5c0,0.5,0,1,0,1.5
		C428.2,46.9,428.2,47,428.2,47z M428.2,43.8c0.5-0.1,1-0.3,1.4-0.4c0,0,0.1-0.1,0.1-0.1c0-0.4,0-0.8,0-1.2c0-0.2,0-0.4,0-0.6
		c-0.5,0.1-0.9,0.3-1.4,0.4c-0.1,0-0.1,0.1-0.1,0.2c0,0.5,0,1,0,1.5C428.2,43.6,428.2,43.7,428.2,43.8z"/>
</g>
<g id="XMLID_234_">
	<path id="XMLID_237_" d="M285.3,55.5c-0.1,0-0.3,0-0.4,0.1c0-0.7,0-1.3,0-2c-0.5,0.1-0.9,0.3-1.4,0.4c0-0.4,0-0.8,0-1.2
		c0,0,0.1-0.1,0.1-0.1c0.4-0.1,0.7-0.2,1.1-0.3c0.1,0,0.1,0,0.2,0c0-0.6,0-1.2,0-1.9c-0.5,0.1-0.9,0.3-1.4,0.4c0-0.4,0-0.8,0-1.2
		c0.2-0.1,0.4-0.1,0.6-0.2c0.2-0.1,0.5-0.1,0.7-0.2c0.1,0,0.1-0.1,0.1-0.2c0-0.5,0-1.1,0-1.6c0-0.1,0-0.1,0-0.2c0.1,0,0.3,0,0.4-0.1
		c0,0.6,0,1.3,0,1.9c0.2-0.1,0.4-0.1,0.6-0.2c0.2-0.1,0.5-0.1,0.7-0.2c0.1,0,0.1-0.1,0.1-0.2c0-0.6,0-1.1,0-1.7c0-0.2,0-0.2,0.2-0.2
		c0.1,0,0.1,0,0.2,0c0,0.6,0,1.3,0,1.9c0.5-0.1,0.9-0.3,1.4-0.4c0,0.4,0,0.8,0,1.2c0,0-0.1,0.1-0.1,0.1c-0.4,0.1-0.8,0.2-1.2,0.4
		c0,0.6,0,1.2,0,1.9c0.5-0.1,0.9-0.3,1.4-0.4c0,0.4,0,0.8,0,1.2c-0.4,0.1-0.8,0.2-1.2,0.3c-0.1,0-0.2,0.1-0.2,0.2c0,0.6,0,1.2,0,1.9
		c-0.1,0-0.3,0-0.4,0.1c0-0.7,0-1.3,0-2c-0.3,0.1-0.6,0.2-1,0.3c-0.1,0-0.1,0-0.2,0c-0.4,0.1-0.4,0.1-0.4,0.5c0,0.5,0,1,0,1.5
		C285.3,55.4,285.3,55.5,285.3,55.5z M285.3,52.3c0.5-0.1,1-0.3,1.4-0.4c0,0,0.1-0.1,0.1-0.1c0-0.4,0-0.8,0-1.2c0-0.2,0-0.4,0-0.6
		c-0.5,0.1-0.9,0.3-1.4,0.4c-0.1,0-0.1,0.1-0.1,0.2c0,0.5,0,1,0,1.5C285.3,52.1,285.3,52.2,285.3,52.3z"/>
</g>
<g id="XMLID_1170_">
	<path id="XMLID_1174_" d="M459,55.5c-0.1,0-0.3,0-0.4,0.1c0-0.7,0-1.3,0-2c-0.5,0.1-0.9,0.3-1.4,0.4c0-0.4,0-0.8,0-1.2
		c0,0,0.1-0.1,0.1-0.1c0.4-0.1,0.7-0.2,1.1-0.3c0.1,0,0.1,0,0.2,0c0-0.6,0-1.2,0-1.9c-0.5,0.1-0.9,0.3-1.4,0.4c0-0.4,0-0.8,0-1.2
		c0.2-0.1,0.4-0.1,0.6-0.2c0.2-0.1,0.5-0.1,0.7-0.2c0.1,0,0.1-0.1,0.1-0.2c0-0.5,0-1.1,0-1.6c0-0.1,0-0.1,0-0.2c0.1,0,0.3,0,0.4-0.1
		c0,0.6,0,1.3,0,1.9c0.2-0.1,0.4-0.1,0.6-0.2c0.2-0.1,0.5-0.1,0.7-0.2c0.1,0,0.1-0.1,0.1-0.2c0-0.6,0-1.1,0-1.7c0-0.2,0-0.2,0.2-0.2
		c0.1,0,0.1,0,0.2,0c0,0.6,0,1.3,0,1.9c0.5-0.1,0.9-0.3,1.4-0.4c0,0.4,0,0.8,0,1.2c0,0-0.1,0.1-0.1,0.1c-0.4,0.1-0.8,0.2-1.2,0.4
		c0,0.6,0,1.2,0,1.9c0.5-0.1,0.9-0.3,1.4-0.4c0,0.4,0,0.8,0,1.2c-0.4,0.1-0.8,0.2-1.2,0.3c-0.1,0-0.2,0.1-0.2,0.2c0,0.6,0,1.2,0,1.9
		c-0.1,0-0.3,0-0.4,0.1c0-0.7,0-1.3,0-2c-0.3,0.1-0.6,0.2-1,0.3c-0.1,0-0.1,0-0.2,0c-0.4,0.1-0.4,0.1-0.4,0.5c0,0.5,0,1,0,1.5
		C459,55.4,459,55.5,459,55.5z M459,52.3c0.5-0.1,1-0.3,1.4-0.4c0,0,0.1-0.1,0.1-0.1c0-0.4,0-0.8,0-1.2c0-0.2,0-0.4,0-0.6
		c-0.5,0.1-0.9,0.3-1.4,0.4c-0.1,0-0.1,0.1-0.1,0.2c0,0.5,0,1,0,1.5C459,52.1,459,52.2,459,52.3z"/>
</g>
</svg>
