<?xml version="1.0" encoding="UTF-8"?>
<!DOCTYPE svg PUBLIC "-//W3C//DTD SVG 1.1//EN" "http://www.w3.org/Graphics/SVG/1.1/DTD/svg11.dtd">
<svg xmlns="http://www.w3.org/2000/svg" version="1.1" width="5247px" height="1065px" style="shape-rendering:geometricPrecision; text-rendering:geometricPrecision; image-rendering:optimizeQuality; fill-rule:evenodd; clip-rule:evenodd" xmlns:xlink="http://www.w3.org/1999/xlink">
<g><path style="opacity:0.955" fill="#000000" d="M 563.5,-0.5 C 566.833,-0.5 570.167,-0.5 573.5,-0.5C 574.504,0.682751 575.338,2.01608 576,3.5C 576.448,53.504 576.448,103.504 576,153.5C 577.068,159.809 580.901,162.975 587.5,163C 2140.5,162.505 3693.5,162.338 5246.5,162.5C 5246.5,166.167 5246.5,169.833 5246.5,173.5C 5132.17,173.333 5017.83,173.5 4903.5,174C 4897.8,174.17 4892.14,174.67 4886.5,175.5C 4886.29,176.086 4885.96,176.586 4885.5,177C 4896.8,183.399 4906.63,191.566 4915,201.5C 4926.75,223.112 4924.41,243.112 4908,261.5C 4902.29,266.937 4896.12,271.77 4889.5,276C 4889.83,276.333 4890.17,276.667 4890.5,277C 5009.14,278.489 5127.8,278.989 5246.5,278.5C 5246.5,282.167 5246.5,285.833 5246.5,289.5C 4963.83,289.333 4681.17,289.5 4398.5,290C 4395.03,290.319 4392.19,291.819 4390,294.5C 4387.44,302.158 4384.11,309.492 4380,316.5C 4371.03,325.406 4360.53,331.906 4348.5,336C 4300.99,352.905 4254.99,349.572 4210.5,326C 4199.01,318.539 4191.84,308.039 4189,294.5C 4186.91,293.206 4184.75,292.039 4182.5,291C 4068.19,289.351 3953.85,289.018 3839.5,290C 3833.92,290.085 3828.59,291.085 3823.5,293C 3834.54,299.704 3844.04,308.204 3852,318.5C 3865.19,350.783 3856.03,374.45 3824.5,389.5C 3823.61,390.325 3823.28,391.325 3823.5,392.5C 3826.84,392.89 3830.17,393.39 3833.5,394C 4304.5,394.201 4775.5,394.701 5246.5,395.5C 5246.5,398.833 5246.5,402.167 5246.5,405.5C 4610.17,405.333 3973.83,405.5 3337.5,406C 3332.33,406.834 3328.17,409.334 3325,413.5C 3316.44,432.391 3302.44,445.391 3283,452.5C 3238.1,467.999 3194.27,465.499 3151.5,445C 3137.43,437.59 3128.6,426.09 3125,410.5C 3123.05,408.106 3120.55,406.606 3117.5,406C 3000.16,405.299 2882.83,405.632 2765.5,407C 2763.05,407.29 2760.71,407.956 2758.5,409C 2768.2,415.03 2777.04,422.197 2785,430.5C 2802.63,463.776 2794.46,488.776 2760.5,505.5C 2759.61,506.325 2759.28,507.325 2759.5,508.5C 2762.84,508.89 2766.17,509.39 2769.5,510C 3595.17,510.5 4420.83,510.667 5246.5,510.5C 5246.5,514.5 5246.5,518.5 5246.5,522.5C 4255.17,521.371 3263.83,521.205 2272.5,522C 2268.96,522.187 2265.79,523.354 2263,525.5C 2259.55,532.266 2256.55,539.266 2254,546.5C 2246.58,555.309 2237.41,561.809 2226.5,566C 2186.54,581.518 2146.2,582.518 2105.5,569C 2091.79,564.398 2079.96,556.898 2070,546.5C 2065.63,540.101 2062.63,533.101 2061,525.5C 2058.21,523.354 2055.04,522.187 2051.5,522C 1935.16,521.198 1818.83,521.532 1702.5,523C 1700.05,523.29 1697.71,523.956 1695.5,525C 1708.67,532.833 1719.17,543.333 1727,556.5C 1733.62,574.701 1730.96,591.367 1719,606.5C 1712.27,613.065 1705.11,619.065 1697.5,624.5C 1699.77,625.314 1702.1,625.814 1704.5,626C 2885.17,626.5 4065.83,626.667 5246.5,626.5C 5246.5,630.167 5246.5,633.833 5246.5,637.5C 3900.83,637.333 2555.17,637.5 1209.5,638C 1204.22,638.089 1200.06,640.255 1197,644.5C 1193.73,659.753 1185.23,670.92 1171.5,678C 1120.62,702.12 1070.28,701.12 1020.5,675C 1007.69,667.841 999.853,657.008 997,642.5C 993.489,639.278 989.322,637.778 984.5,638C 748.166,637.167 511.833,637.333 275.5,638.5C 279.934,659.168 284.434,679.834 289,700.5C 294.427,724.134 293.427,747.468 286,770.5C 276.273,794.556 258.773,809.723 233.5,816C 210.836,821.494 188.503,820.494 166.5,813C 140.713,800.039 126.046,779.205 122.5,750.5C 122.662,740.852 125.162,731.852 130,723.5C 142.717,700.584 161.884,692.417 187.5,699C 208.924,710.012 218.091,727.512 215,751.5C 211.587,765.249 203.42,775.083 190.5,781C 182.628,783.214 174.961,785.881 167.5,789C 186.036,805.06 207.036,809.06 230.5,801C 262.735,787.723 277.569,763.557 275,728.5C 271.534,700.37 267.201,672.37 262,644.5C 260.772,640.296 257.939,638.13 253.5,638C 173.32,637.177 93.1538,637.343 13,638.5C 8.20549,637.514 3.70549,635.848 -0.5,633.5C -0.5,632.833 -0.5,632.167 -0.5,631.5C 1.61246,630.56 3.61246,629.394 5.5,628C 52.4869,626.764 99.4869,626.098 146.5,626C 152.515,625.465 158.515,624.799 164.5,624C 130.952,612.325 104.785,591.491 86,561.5C 79.3423,549.016 72.8423,536.516 66.5,524C 64.6079,523.027 62.6079,522.36 60.5,522C 42.1667,521.667 23.8333,521.333 5.5,521C 3.5952,519.579 1.5952,518.412 -0.5,517.5C -0.5,516.833 -0.5,516.167 -0.5,515.5C 3.19863,512.324 7.53197,510.824 12.5,511C 29.5146,510.727 46.5146,510.227 63.5,509.5C 57.1235,474.666 58.4568,440.166 67.5,406C 46.5,405.667 25.5,405.333 4.5,405C 2.67694,404.003 1.01027,402.836 -0.5,401.5C -0.5,400.833 -0.5,400.167 -0.5,399.5C 1.92484,396.954 4.92484,395.454 8.5,395C 27.8333,394.667 47.1667,394.333 66.5,394C 68.9494,393.275 71.2827,392.275 73.5,391C 93.2876,355.972 117.788,324.472 147,296.5C 147.707,294.919 148.54,293.419 149.5,292C 143.515,291.201 137.515,290.535 131.5,290C 88.5,289.667 45.5,289.333 2.5,289C 1.62656,287.955 0.626561,287.122 -0.5,286.5C -0.5,284.833 -0.5,283.167 -0.5,281.5C 0.88159,280.199 2.54826,279.366 4.5,279C 55.8333,278.667 107.167,278.333 158.5,278C 172.704,274.59 179.704,265.59 179.5,251C 176.521,226.816 173.355,202.649 170,178.5C 169.535,177.069 168.701,175.903 167.5,175C 140.714,173.851 113.88,173.351 87,173.5C 58.8127,173.702 30.6461,173.868 2.5,174C 1.36362,172.855 0.363622,171.688 -0.5,170.5C -0.5,169.167 -0.5,167.833 -0.5,166.5C 3.32856,164.836 7.32856,163.669 11.5,163C 62.9163,162.991 114.25,162.324 165.5,161C 167.487,159.681 168.654,157.848 169,155.5C 169.644,115.586 179.644,78.2529 199,43.5C 206.373,31.7893 215.54,21.6227 226.5,13C 236.07,7.19289 243.903,9.02622 250,18.5C 276.234,61.7647 288.901,108.765 288,159.5C 288.833,160.333 289.667,161.167 290.5,162C 379.167,162.667 467.833,162.667 556.5,162C 558.667,161.167 560.167,159.667 561,157.5C 561.893,154.567 562.393,151.567 562.5,148.5C 561.427,99.8411 560.927,51.1745 561,2.5C 561.698,1.30943 562.531,0.309426 563.5,-0.5 Z M 241.5,79.5 C 254.447,79.7183 262.613,86.0517 266,98.5C 268.455,118.191 266.789,137.524 261,156.5C 259.337,158.917 257.171,160.75 254.5,162C 235.5,162.667 216.5,162.667 197.5,162C 194.167,161.333 190.833,160.667 187.5,160C 197.523,138.936 207.356,117.769 217,96.5C 223.268,87.961 231.434,82.2944 241.5,79.5 Z M 294.5,173.5 C 348.168,173.333 401.834,173.5 455.5,174C 461.488,173.736 464.654,176.57 465,182.5C 465.977,213.561 465.644,244.561 464,275.5C 463.097,276.701 461.931,277.535 460.5,278C 390.443,278.99 320.443,278.657 250.5,277C 260.853,251.125 271.353,225.292 282,199.5C 283.44,193.195 284.773,186.862 286,180.5C 287.453,176.372 290.286,174.039 294.5,173.5 Z M 485.5,173.5 C 508.498,174.54 531.498,174.706 554.5,174C 560.803,176.421 563.47,181.088 562.5,188C 562.468,214.334 562.468,240.667 562.5,267C 562.573,270.72 561.573,274.054 559.5,277C 533.921,278.648 508.254,278.981 482.5,278C 481.667,277.167 480.833,276.333 480,275.5C 479.333,243.167 479.333,210.833 480,178.5C 481.107,175.887 482.94,174.22 485.5,173.5 Z M 665.5,173.5 C 2022.17,173.333 3378.83,173.5 4735.5,174C 4742.58,174.457 4749.58,175.457 4756.5,177C 4744.55,182.95 4734.38,191.116 4726,201.5C 4716.51,220.306 4717.84,238.306 4730,255.5C 4736.95,263.452 4744.78,270.286 4753.5,276C 4750.36,277.244 4747.03,277.911 4743.5,278C 4627.83,278.667 4512.17,278.667 4396.5,278C 4394.67,276.833 4392.83,275.667 4391,274.5C 4382.98,259.478 4371.81,247.312 4357.5,238C 4323.17,221.778 4287.5,217.778 4250.5,226C 4231.35,231.657 4214.18,240.824 4199,253.5C 4194.03,259.774 4190.36,266.774 4188,274.5C 4186.42,276.041 4184.59,277.208 4182.5,278C 3013.83,278.667 1845.17,278.667 676.5,278C 674.667,277.5 673.5,276.333 673,274.5C 672.376,267.486 672.542,260.486 673.5,253.5C 673,248.5 672.5,243.5 672,238.5C 670.039,235.537 667.706,232.871 665,230.5C 662.23,232.601 660.23,235.268 659,238.5C 658.667,249.167 658.333,259.833 658,270.5C 657.394,273.548 655.894,276.048 653.5,278C 634.503,278.5 615.503,278.667 596.5,278.5C 596.286,276.856 596.62,275.356 597.5,274C 607.349,266.574 617.015,258.907 626.5,251C 634.404,243.766 641.571,235.933 648,227.5C 656.447,215.068 658.447,201.735 654,187.5C 651.888,183.722 649.388,180.222 646.5,177C 652.923,175.588 659.256,174.421 665.5,173.5 Z M 192.5,174.5 C 212.503,174.333 232.503,174.5 252.5,175C 237.958,202.238 218.791,225.738 195,245.5C 192.724,223.186 191.057,200.853 190,178.5C 190.662,177.016 191.496,175.683 192.5,174.5 Z M 4804.5,175.5 C 4820.69,173.513 4833.85,178.847 4844,191.5C 4859.74,214.078 4864.08,238.744 4857,265.5C 4855.5,269.667 4852.67,272.5 4848.5,274C 4819.83,281.416 4799.67,271.583 4788,244.5C 4782.13,227.898 4780.47,210.898 4783,193.5C 4783.77,189.286 4785.61,185.619 4788.5,182.5C 4793.45,179.021 4798.78,176.688 4804.5,175.5 Z M 598.5,181.5 C 604.421,180.877 609.254,182.877 613,187.5C 618.776,194.493 621.109,202.493 620,211.5C 616.859,222.782 611.859,233.115 605,242.5C 596.078,254.093 586.411,265.093 576,275.5C 575.049,250.792 575.382,226.125 577,201.5C 581.171,191.491 588.338,184.825 598.5,181.5 Z M 4280.5,232.5 C 4294.05,233.19 4304.55,239.19 4312,250.5C 4317.17,259 4322.33,267.5 4327.5,276C 4324.9,276.92 4322.23,277.587 4319.5,278C 4308.67,278.167 4297.83,278.333 4287,278.5C 4275.41,278.647 4263.91,278.147 4252.5,277C 4250.04,274.173 4249.04,270.84 4249.5,267C 4249.01,257.487 4251.34,248.821 4256.5,241C 4263.87,236.046 4271.87,233.212 4280.5,232.5 Z M 248.5,289.5 C 319.558,289.01 390.558,289.51 461.5,291C 463.487,292.319 464.654,294.152 465,296.5C 465.977,327.894 465.644,359.228 464,390.5C 459.921,394.61 454.921,396.277 449,395.5C 396.006,394.5 343.006,394.5 290,395.5C 270.438,395.649 250.938,395.149 231.5,394C 227.23,392.321 224.73,389.155 224,384.5C 220.383,365.417 216.383,346.417 212,327.5C 211.333,325.167 211.333,322.833 212,320.5C 221.294,306.7 233.461,296.366 248.5,289.5 Z M 589.5,289.5 C 607.512,290.12 625.512,290.12 643.5,289.5C 646.5,289.667 649.5,289.833 652.5,290C 654.329,290.273 655.829,291.107 657,292.5C 658.652,325.081 658.985,357.748 658,390.5C 655.364,393.876 651.864,395.542 647.5,395.5C 620.183,394.692 592.85,394.192 565.5,394C 562.02,393.699 558.687,392.865 555.5,391.5C 565.194,365.729 557.194,348.229 531.5,339C 518.968,336.532 506.968,338.199 495.5,344C 490.588,346.372 485.755,348.872 481,351.5C 480.5,331.169 480.333,310.836 480.5,290.5C 506.169,290.333 531.835,290.5 557.5,291C 560.624,295.414 563.624,299.914 566.5,304.5C 571.832,295.82 579.499,290.82 589.5,289.5 Z M 679.5,289.5 C 1675.83,289.333 2672.17,289.5 3668.5,290C 3676.19,290.357 3683.86,291.024 3691.5,292C 3672.15,301.341 3660.32,316.508 3656,337.5C 3655.16,351.653 3659.5,363.986 3669,374.5C 3676.33,381.497 3684.5,387.331 3693.5,392C 3689.21,392.912 3684.87,393.579 3680.5,394C 3563.83,394.667 3447.17,394.667 3330.5,394C 3328.92,393.293 3327.42,392.46 3326,391.5C 3322.47,375.261 3313.3,363.427 3298.5,356C 3263.03,338.694 3226.03,334.028 3187.5,342C 3166.04,347.503 3147.54,358.003 3132,373.5C 3129.09,378.551 3126.76,383.884 3125,389.5C 3123.36,391.81 3121.2,393.31 3118.5,394C 2307.99,394.168 1497.49,394.668 687,395.5C 682.136,395.704 677.803,394.37 674,391.5C 673.667,390.5 673.333,389.5 673,388.5C 672.333,358.167 672.333,327.833 673,297.5C 672.88,292.8 675.047,290.133 679.5,289.5 Z M 4253.5,289.5 C 4276.54,289.064 4299.54,289.564 4322.5,291C 4325,292.167 4326.83,294 4328,296.5C 4330.24,330.161 4315.08,341.994 4282.5,332C 4276.75,329.247 4271.92,325.414 4268,320.5C 4262.75,312.332 4257.75,303.999 4253,295.5C 4252.51,293.455 4252.68,291.455 4253.5,289.5 Z M 3744.5,291.5 C 3762.99,290.49 3776.49,298.157 3785,314.5C 3795.17,332.655 3798.5,351.989 3795,372.5C 3794.02,381.32 3789.52,387.487 3781.5,391C 3769.61,393.489 3757.95,392.823 3746.5,389C 3728.28,372.882 3718.61,352.549 3717.5,328C 3717.54,319.564 3719.04,311.397 3722,303.5C 3723.46,301.04 3725.29,298.873 3727.5,297C 3733.04,294.374 3738.7,292.54 3744.5,291.5 Z M 195.5,334.5 C 197.417,335.116 198.584,336.45 199,338.5C 202.567,356.834 206.067,375.168 209.5,393.5C 186.498,393.667 163.498,393.5 140.5,393C 159.404,373.932 177.738,354.432 195.5,334.5 Z M 3208.5,349.5 C 3225.88,346.944 3239.38,352.944 3249,367.5C 3253.96,375.919 3258.79,384.419 3263.5,393C 3238.87,394.597 3214.2,394.93 3189.5,394C 3186.23,391.464 3184.9,388.131 3185.5,384C 3185.21,374.495 3187.38,365.662 3192,357.5C 3196.97,353.576 3202.47,350.909 3208.5,349.5 Z M 502.5,356.5 C 507.447,355.628 511.613,356.961 515,360.5C 520.645,369.413 522.645,379.08 521,389.5C 515.475,392.889 509.475,395.222 503,396.5C 502,395.833 501,395.167 500,394.5C 495.722,394.358 491.389,394.692 487,395.5C 484.113,395.097 481.779,393.764 480,391.5C 476.528,380.541 479.028,371.374 487.5,364C 492.592,361.454 497.592,358.954 502.5,356.5 Z M 137.5,405.5 C 159.203,405.738 180.87,406.571 202.5,408C 181.797,420.702 165.963,437.869 155,459.5C 148.789,475.992 146.622,492.992 148.5,510.5C 131.83,510.667 115.163,510.5 98.5,510C 95.8366,508.199 94.0033,505.699 93,502.5C 92.2916,488.459 94.2916,474.793 99,461.5C 104.664,446.162 111.664,431.496 120,417.5C 124.851,411.843 130.684,407.843 137.5,405.5 Z M 398.5,405.5 C 418.169,405.333 437.836,405.5 457.5,406C 459.519,406.45 461.352,407.283 463,408.5C 463.99,432.56 464.99,456.56 466,480.5C 489.132,460.37 511.965,439.87 534.5,419C 539.486,414.839 544.819,411.173 550.5,408C 572.255,406.133 594.088,405.3 616,405.5C 628.886,405.372 641.72,405.872 654.5,407C 656.333,407.5 657.5,408.667 658,410.5C 658.667,442.167 658.667,473.833 658,505.5C 656.891,507.815 655.057,509.315 652.5,510C 556.828,510.188 461.161,510.688 365.5,511.5C 360.777,511.479 356.111,510.979 351.5,510C 348.619,508.749 346.786,506.583 346,503.5C 345.908,480.891 339.241,460.558 326,442.5C 314.471,430.637 302.638,419.137 290.5,408C 326.636,406.873 362.636,406.04 398.5,405.5 Z M 493.5,405.5 C 500.174,405.713 506.841,406.046 513.5,406.5C 513.66,408.199 513.494,409.866 513,411.5C 502,424.5 491,437.5 480,450.5C 479.333,437.167 479.333,423.833 480,410.5C 480.465,409.069 481.299,407.903 482.5,407C 486.356,406.823 490.023,406.323 493.5,405.5 Z M 1351.5,405.5 C 1639.17,405.333 1926.83,405.5 2214.5,406C 2330.5,406.316 2446.5,406.983 2562.5,408C 2584.85,408.161 2607.19,408.827 2629.5,410C 2619.85,414.655 2611.02,420.488 2603,427.5C 2588.46,446.589 2587.8,466.255 2601,486.5C 2609.17,495.331 2618.67,502.331 2629.5,507.5C 2628.62,508.251 2627.62,508.751 2626.5,509C 2506.86,510.651 2387.19,510.985 2267.5,510C 2264.09,508.923 2261.59,506.756 2260,503.5C 2257.01,491.185 2250.18,481.685 2239.5,475C 2189.34,447.655 2138.68,446.655 2087.5,472C 2073.52,478.648 2064.68,489.481 2061,504.5C 2058.37,507.231 2055.21,509.064 2051.5,510C 1598.83,510.5 1146.17,510.667 693.5,510.5C 693.178,508.278 693.845,506.444 695.5,505C 709.317,494.664 722.483,483.497 735,471.5C 743.594,462.314 749.594,451.647 753,439.5C 755.194,428.421 752.36,418.921 744.5,411C 797.812,409.123 851.145,408.123 904.5,408C 1053.67,407.201 1202.67,406.368 1351.5,405.5 Z M 3189.5,406.5 C 3212.84,406.333 3236.17,406.5 3259.5,407C 3261.67,407.833 3263.17,409.333 3264,411.5C 3267.36,445.124 3252.53,457.624 3219.5,449C 3212.05,445.218 3206.22,439.718 3202,432.5C 3197.29,424.915 3192.46,417.415 3187.5,410C 3188.31,408.887 3188.97,407.721 3189.5,406.5 Z M 2678.5,407.5 C 2696.24,405.787 2709.74,412.454 2719,427.5C 2727.75,444.503 2732.75,462.503 2734,481.5C 2726.46,506.518 2710.3,515.018 2685.5,507C 2682.83,505.333 2680.17,503.667 2677.5,502C 2658.92,481.275 2651.42,457.108 2655,429.5C 2657.25,416.137 2665.08,408.804 2678.5,407.5 Z M 695.5,413.5 C 702.59,413.464 708.09,416.464 712,422.5C 716.348,428.536 718.015,435.202 717,442.5C 705.389,465.436 691.389,486.769 675,506.5C 674.586,506.043 674.086,505.709 673.5,505.5C 672.334,482.841 672.167,460.174 673,437.5C 676.245,425.424 683.745,417.424 695.5,413.5 Z M 242.5,456.5 C 270.545,457.939 291.378,470.939 305,495.5C 307.11,500.055 308.944,504.722 310.5,509.5C 293.176,510.666 275.843,510.833 258.5,510C 251.541,508.29 247.707,503.79 247,496.5C 245.074,483.372 242.574,470.372 239.5,457.5C 240.791,457.737 241.791,457.404 242.5,456.5 Z M 216.5,458.5 C 218.527,458.338 220.527,458.505 222.5,459C 226.143,473.711 229.477,488.544 232.5,503.5C 231.764,505.541 230.931,507.541 230,509.5C 211.576,510.493 193.076,510.826 174.5,510.5C 180.904,486.788 194.904,469.455 216.5,458.5 Z M 2146.5,465.5 C 2163.11,463.556 2175.94,469.556 2185,483.5C 2189.75,491.338 2194.25,499.338 2198.5,507.5C 2196.63,508.624 2194.63,509.457 2192.5,510C 2169.75,510.978 2147.08,510.645 2124.5,509C 2122.15,506.867 2121.15,504.2 2121.5,501C 2122.06,495.839 2122.56,490.673 2123,485.5C 2123.67,479.319 2126.5,474.486 2131.5,471C 2136.43,468.637 2141.43,466.804 2146.5,465.5 Z M 197.5,521.5 C 208.511,521.706 219.511,522.206 230.5,523C 233.333,524.5 235.5,526.667 237,529.5C 242,553.167 247,576.833 252,600.5C 254.259,608.152 251.426,612.319 243.5,613C 203.404,619.475 166.738,611.142 133.5,588C 112.423,571.033 99.0892,549.199 93.5,522.5C 111.503,522.333 129.503,522.5 147.5,523C 149.96,524.458 152.127,526.291 154,528.5C 162.714,549.88 177.547,565.38 198.5,575C 203.093,576.251 207.759,577.085 212.5,577.5C 212.046,574.86 210.879,572.527 209,570.5C 203.594,565.549 198.094,560.716 192.5,556C 182.228,547.917 176.561,537.417 175.5,524.5C 182.866,523.035 190.2,522.035 197.5,521.5 Z M 275.5,521.5 C 286.849,521.593 298.182,522.093 309.5,523C 311.333,524.167 312.833,525.667 314,527.5C 314.642,561.879 299.976,587.546 270,604.5C 263.926,578.962 258.426,553.295 253.5,527.5C 253.632,525.399 254.632,523.899 256.5,523C 263.013,522.828 269.347,522.328 275.5,521.5 Z M 353.5,521.5 C 451.834,521.333 550.167,521.5 648.5,522C 657.351,522.859 661.017,527.693 659.5,536.5C 660.873,536.657 662.207,536.49 663.5,536C 670.088,526.871 679.088,522.205 690.5,522C 978.168,521.174 1265.83,521.508 1553.5,523C 1557.19,523.559 1560.85,524.226 1564.5,525C 1552.23,531.042 1542.07,539.542 1534,550.5C 1523.71,573.137 1527.21,593.304 1544.5,611C 1550.22,615.721 1556.22,620.054 1562.5,624C 1562.17,624.333 1561.83,624.667 1561.5,625C 1442.53,626.653 1323.53,626.987 1204.5,626C 1201.46,624.969 1198.96,623.135 1197,620.5C 1189.77,600.934 1176.27,587.768 1156.5,581C 1116.3,566.718 1076.3,567.052 1036.5,582C 1022.37,587.156 1010.87,595.656 1002,607.5C 999.873,612.048 998.039,616.715 996.5,621.5C 993.965,623.85 990.965,625.35 987.5,626C 751.833,626.667 516.167,626.667 280.5,626C 277.833,625.667 275.167,625.333 272.5,625C 271.269,623.817 271.269,622.651 272.5,621.5C 294.202,610.061 312.702,594.727 328,575.5C 337.426,560.893 343.092,544.893 345,527.5C 346.943,524.122 349.776,522.122 353.5,521.5 Z M 2124.5,523.5 C 2148,522.337 2171.66,522.17 2195.5,523C 2199.89,526.32 2201.89,530.82 2201.5,536.5C 2201.23,546.823 2197.56,555.656 2190.5,563C 2174.79,569.784 2159.79,568.451 2145.5,559C 2135.77,548.694 2128.77,536.86 2124.5,523.5 Z M 1618.5,523.5 C 1634.22,523.11 1646.39,529.444 1655,542.5C 1666.98,563.081 1670.98,585.081 1667,608.5C 1664.99,615.181 1660.82,620.014 1654.5,623C 1645.56,624.548 1636.56,624.881 1627.5,624C 1619.5,622.245 1613,618.079 1608,611.5C 1593.34,592.176 1587.67,570.509 1591,546.5C 1591.34,538.433 1594.84,532.266 1601.5,528C 1607.18,526 1612.84,524.5 1618.5,523.5 Z M 1082.5,581.5 C 1097.56,579.574 1109.73,584.574 1119,596.5C 1124.67,605.174 1129.84,614.174 1134.5,623.5C 1132.89,624.427 1131.22,625.261 1129.5,626C 1109.3,626.184 1089.14,626.684 1069,627.5C 1062.19,627.705 1058.36,624.539 1057.5,618C 1058.14,612.848 1058.64,607.681 1059,602.5C 1059.35,595.962 1062.19,590.795 1067.5,587C 1072.45,584.692 1077.45,582.859 1082.5,581.5 Z M 1061.5,638.5 C 1084.84,638.333 1108.17,638.5 1131.5,639C 1133.67,639.833 1135.17,641.333 1136,643.5C 1139.5,676.655 1125,689.155 1092.5,681C 1086.18,678.677 1081.01,674.843 1077,669.5C 1071.04,660.418 1065.21,651.251 1059.5,642C 1060.82,641.184 1061.49,640.017 1061.5,638.5 Z"/></g>
<g><path style="opacity:0.922" fill="#000000" d="M 1124.5,928.5 C 1125.83,928.5 1127.17,928.5 1128.5,928.5C 1128.33,953.502 1128.5,978.502 1129,1003.5C 1136.39,1000.96 1143.89,1000.46 1151.5,1002C 1158.32,1006.13 1160.49,1011.97 1158,1019.5C 1149.98,1035.53 1138.98,1049.2 1125,1060.5C 1124.5,1016.5 1124.33,972.501 1124.5,928.5 Z M 1137.5,1009.5 C 1139.92,1010.03 1142.26,1010.86 1144.5,1012C 1145.1,1013.06 1145.43,1014.23 1145.5,1015.5C 1142,1025.51 1137.66,1035.18 1132.5,1044.5C 1131.25,1043.96 1130.09,1043.29 1129,1042.5C 1128.33,1034.83 1128.33,1027.17 1129,1019.5C 1129.6,1014.15 1132.43,1010.82 1137.5,1009.5 Z"/></g>
<g><path style="opacity:0.88" fill="#000000" d="M 2729.5,928.5 C 2730.83,928.5 2732.17,928.5 2733.5,928.5C 2733.5,953.167 2733.5,977.833 2733.5,1002.5C 2739.05,1002.26 2744.55,1001.59 2750,1000.5C 2761.75,1001.67 2766.41,1008 2764,1019.5C 2755.42,1034.99 2744.25,1048.32 2730.5,1059.5C 2729.5,1015.84 2729.17,972.172 2729.5,928.5 Z M 2739.5,1010.5 C 2745.24,1009.57 2748.9,1011.9 2750.5,1017.5C 2747,1025.83 2743.5,1034.17 2740,1042.5C 2738.64,1043.38 2737.14,1043.71 2735.5,1043.5C 2735.33,1033.16 2735.5,1022.83 2736,1012.5C 2737.3,1011.92 2738.47,1011.25 2739.5,1010.5 Z"/></g>
<g><path style="opacity:0.859" fill="#000000" d="M 3261.5,928.5 C 3263.17,928.5 3264.83,928.5 3266.5,928.5C 3266.5,953.167 3266.5,977.833 3266.5,1002.5C 3273.82,1001.71 3281.16,1001.55 3288.5,1002C 3296.23,1006.51 3298.39,1013.01 3295,1021.5C 3287.22,1036.71 3276.38,1049.37 3262.5,1059.5C 3261.5,1015.84 3261.17,972.172 3261.5,928.5 Z M 3270.5,1009.5 C 3275.75,1009.86 3280.42,1011.7 3284.5,1015C 3280.04,1024.76 3275.2,1034.26 3270,1043.5C 3269.13,1043.26 3268.29,1042.93 3267.5,1042.5C 3266.33,1033.85 3266.17,1025.19 3267,1016.5C 3267.13,1013.6 3268.3,1011.26 3270.5,1009.5 Z"/></g>
<g><path style="opacity:0.878" fill="#000000" d="M 4847.5,930.5 C 4849.17,930.5 4850.83,930.5 4852.5,930.5C 4852.33,954.502 4852.5,978.502 4853,1002.5C 4853.89,1003.08 4854.89,1003.41 4856,1003.5C 4860.28,1001.47 4864.78,1000.14 4869.5,999.5C 4877.73,1000.92 4881.4,1005.92 4880.5,1014.5C 4880.47,1022.43 4877.97,1029.43 4873,1035.5C 4865.28,1043.06 4857.11,1050.06 4848.5,1056.5C 4847.5,1014.51 4847.17,972.505 4847.5,930.5 Z M 4861.5,1009.5 C 4863.08,1012.26 4864.91,1014.93 4867,1017.5C 4867.67,1019.5 4867.67,1021.5 4867,1023.5C 4864.18,1031.14 4860.35,1038.14 4855.5,1044.5C 4854.83,1044.17 4854.17,1043.83 4853.5,1043.5C 4852.19,1034.47 4852.36,1025.47 4854,1016.5C 4856.48,1014.03 4858.98,1011.7 4861.5,1009.5 Z"/></g>
<g><path style="opacity:0.955" fill="#000000" d="M 3179.5,1064.5 C 3174.83,1064.5 3170.17,1064.5 3165.5,1064.5C 3165.5,1021.5 3165.5,978.5 3165.5,935.5C 3183.83,936.904 3202.16,938.404 3220.5,940C 3230.67,941.658 3236.84,947.491 3239,957.5C 3241.98,967.844 3240.64,977.51 3235,986.5C 3232.02,988.311 3229.52,990.644 3227.5,993.5C 3238.51,997.341 3245.01,1005.01 3247,1016.5C 3247.85,1025.89 3247.52,1035.22 3246,1044.5C 3242.3,1055.77 3234.47,1061.27 3222.5,1061C 3208,1062.08 3193.67,1063.25 3179.5,1064.5 Z M 3185.5,953.5 C 3195.29,953.678 3204.96,954.844 3214.5,957C 3219.71,958.694 3222.38,962.194 3222.5,967.5C 3221.75,978.146 3216.09,984.313 3205.5,986C 3197.89,987.41 3190.22,988.243 3182.5,988.5C 3181.9,976.639 3182.9,964.973 3185.5,953.5 Z M 3182.5,1004.5 C 3195.96,1005.42 3209.29,1007.25 3222.5,1010C 3228.1,1013.78 3230.44,1019.11 3229.5,1026C 3230.3,1038.86 3224.3,1045.86 3211.5,1047C 3201.83,1047.47 3192.16,1047.97 3182.5,1048.5C 3182.5,1033.83 3182.5,1019.17 3182.5,1004.5 Z"/></g>
<g><path style="opacity:0.949" fill="#000000" d="M 4262.5,1064.5 C 4257.83,1064.5 4253.17,1064.5 4248.5,1064.5C 4248.5,1021.5 4248.5,978.5 4248.5,935.5C 4271.28,936.573 4293.95,938.739 4316.5,942C 4324.29,944.788 4328.79,950.288 4330,958.5C 4330.67,986.167 4330.67,1013.83 4330,1041.5C 4327.81,1051.69 4321.64,1057.86 4311.5,1060C 4295.05,1061.84 4278.71,1063.34 4262.5,1064.5 Z M 4266.5,953.5 C 4277.51,953.333 4288.51,953.5 4299.5,954C 4305.93,955.427 4310.09,959.26 4312,965.5C 4312.67,988.5 4312.67,1011.5 4312,1034.5C 4309.42,1042.41 4303.92,1046.57 4295.5,1047C 4285.84,1047.5 4276.17,1047.67 4266.5,1047.5C 4266.5,1016.17 4266.5,984.833 4266.5,953.5 Z"/></g>
<g><path style="opacity:0.963" fill="#000000" d="M 1041.5,936.5 C 1061.18,936.426 1080.85,936.926 1100.5,938C 1106.32,943.592 1105.65,948.258 1098.5,952C 1083.84,952.5 1069.17,952.667 1054.5,952.5C 1054.5,964.5 1054.5,976.5 1054.5,988.5C 1068.52,987.654 1082.52,987.488 1096.5,988C 1099.82,989.804 1101.15,992.637 1100.5,996.5C 1100.89,999.861 1099.89,1002.69 1097.5,1005C 1083.5,1005.5 1069.5,1005.67 1055.5,1005.5C 1055.5,1019.5 1055.5,1033.5 1055.5,1047.5C 1072.17,1047.5 1088.83,1047.5 1105.5,1047.5C 1105.5,1052.5 1105.5,1057.5 1105.5,1062.5C 1082.83,1062.5 1060.17,1062.5 1037.5,1062.5C 1037.5,1020.83 1037.5,979.167 1037.5,937.5C 1039.1,937.768 1040.43,937.434 1041.5,936.5 Z"/></g>
<g><path style="opacity:0.948" fill="#000000" d="M 2660.5,936.5 C 2664.27,936.263 2667.94,936.763 2671.5,938C 2672.7,938.903 2673.53,940.069 2674,941.5C 2684,976.833 2694,1012.17 2704,1047.5C 2705.27,1052.44 2706.1,1057.44 2706.5,1062.5C 2696.85,1066.09 2690.35,1063.09 2687,1053.5C 2685,1047.5 2683,1041.5 2681,1035.5C 2680.17,1034.67 2679.33,1033.83 2678.5,1033C 2668.81,1029.92 2659.14,1029.92 2649.5,1033C 2644.32,1039.2 2641.16,1046.36 2640,1054.5C 2635.65,1063.93 2629.15,1065.93 2620.5,1060.5C 2631.9,1020.47 2643.4,980.465 2655,940.5C 2656.81,939.023 2658.65,937.69 2660.5,936.5 Z M 2663.5,965.5 C 2668.43,981.227 2672.77,997.227 2676.5,1013.5C 2667.81,1013.83 2659.14,1013.5 2650.5,1012.5C 2655.3,996.946 2659.64,981.279 2663.5,965.5 Z"/></g>
<g><path style="opacity:0.955" fill="#000000" d="M 4771.5,936.5 C 4788.54,936.107 4805.54,936.607 4822.5,938C 4824.33,939.833 4826.17,941.667 4828,943.5C 4828.67,944.5 4828.67,945.5 4828,946.5C 4825.77,948.7 4823.27,950.533 4820.5,952C 4806.82,952.167 4793.15,952.667 4779.5,953.5C 4778.25,960.33 4777.25,967.164 4776.5,974C 4776.68,981.849 4780.68,986.183 4788.5,987C 4797.5,987.333 4806.5,987.667 4815.5,988C 4819.16,989.002 4822.33,990.836 4825,993.5C 4824.55,997.864 4822.39,1001.36 4818.5,1004C 4806.21,1005.2 4793.87,1005.87 4781.5,1006C 4779.23,1007.56 4778.07,1009.72 4778,1012.5C 4777.33,1021.17 4777.33,1029.83 4778,1038.5C 4779.13,1043.5 4782.29,1046.33 4787.5,1047C 4799.5,1047.33 4811.5,1047.67 4823.5,1048C 4832.15,1051.44 4832.82,1056.1 4825.5,1062C 4804.83,1062.67 4784.17,1062.67 4763.5,1062C 4762.54,1060.58 4761.71,1059.08 4761,1057.5C 4759.56,1019.16 4759.56,980.825 4761,942.5C 4763.45,938.53 4766.95,936.53 4771.5,936.5 Z"/></g>
<g><path style="opacity:0.929" fill="#000000" d="M 1588.5,937.5 C 1611.83,937.5 1635.17,937.5 1658.5,937.5C 1658.93,940.376 1659.59,943.209 1660.5,946C 1660.11,949.092 1658.44,951.092 1655.5,952C 1639.17,952.5 1622.84,952.667 1606.5,952.5C 1606.5,964.167 1606.5,975.833 1606.5,987.5C 1623.17,987.5 1639.83,987.5 1656.5,987.5C 1656.5,993.5 1656.5,999.5 1656.5,1005.5C 1639.83,1005.5 1623.17,1005.5 1606.5,1005.5C 1606.5,1024.5 1606.5,1043.5 1606.5,1062.5C 1600.5,1062.5 1594.5,1062.5 1588.5,1062.5C 1588.5,1020.83 1588.5,979.167 1588.5,937.5 Z"/></g>
<g><path style="opacity:0.953" fill="#000000" d="M 2149.5,937.5 C 2164.76,935.91 2179.42,938.077 2193.5,944C 2201.88,950.471 2204.71,958.971 2202,969.5C 2197.82,976.721 2192.66,977.388 2186.5,971.5C 2177.04,951.29 2162.88,946.956 2144,958.5C 2140.04,963.055 2138.04,968.389 2138,974.5C 2137.03,995.564 2137.37,1016.56 2139,1037.5C 2141.32,1041.82 2144.82,1044.65 2149.5,1046C 2176.1,1052.55 2187.77,1042.38 2184.5,1015.5C 2176.72,1015.93 2169.05,1015.43 2161.5,1014C 2157.97,1009.24 2157.63,1004.24 2160.5,999C 2174.74,997.534 2189.07,997.034 2203.5,997.5C 2203.21,1012.53 2202.38,1027.53 2201,1042.5C 2198.05,1053.44 2190.88,1059.28 2179.5,1060C 2164.47,1060.81 2149.47,1060.48 2134.5,1059C 2126.89,1057.05 2122.39,1052.22 2121,1044.5C 2120.33,1014.5 2120.33,984.5 2121,954.5C 2122.3,950.726 2124.47,947.559 2127.5,945C 2134.58,941.365 2141.91,938.865 2149.5,937.5 Z"/></g>
<g><path style="opacity:0.944" fill="#000000" d="M 3745.5,937.5 C 3758.81,936.476 3771.81,937.976 3784.5,942C 3796.44,948.722 3801.28,958.888 3799,972.5C 3795.61,978.467 3790.77,979.967 3784.5,977C 3781.3,972.106 3778.47,966.939 3776,961.5C 3765.89,949.956 3754.39,948.456 3741.5,957C 3737,961.166 3734.5,966.333 3734,972.5C 3733.33,992.167 3733.33,1011.83 3734,1031.5C 3739.1,1046.3 3749.26,1051.47 3764.5,1047C 3773.58,1042.92 3779.42,1036.08 3782,1026.5C 3784.64,1022.61 3788.14,1020.45 3792.5,1020C 3793.96,1022.46 3795.79,1024.63 3798,1026.5C 3802.17,1047.04 3794.01,1058.54 3773.5,1061C 3760.13,1061.83 3746.8,1061.5 3733.5,1060C 3724.48,1058.58 3718.98,1053.41 3717,1044.5C 3715.9,1029.03 3715.4,1013.53 3715.5,998C 3715.37,983.781 3715.87,969.615 3717,955.5C 3718.51,950.645 3721.34,946.812 3725.5,944C 3731.99,940.891 3738.66,938.724 3745.5,937.5 Z"/></g>
</svg>
