<?xml version="1.0" encoding="utf-8"?>
<!-- Generator: Adobe Illustrator 26.0.2, SVG Export Plug-In . SVG Version: 6.00 Build 0)  -->
<svg version="1.1" id="Layer_1" xmlns="http://www.w3.org/2000/svg" xmlns:xlink="http://www.w3.org/1999/xlink" x="0px" y="0px"
	 viewBox="0 0 641 172" style="enable-background:new 0 0 641 172;" xml:space="preserve">
<style type="text/css">
	.st0{fill:none;stroke:#000000;stroke-width:0.5;stroke-miterlimit:10;}
	.st1{fill:none;stroke:#7C287D;stroke-width:1.5;stroke-miterlimit:10;}
	.st2{fill:none;stroke:#67BF75;stroke-miterlimit:10;}
</style>
<g id="XMLID_240_">
	<line id="XMLID_783_" class="st0" x1="0" y1="40.5" x2="641" y2="40.5"/>
	<line id="XMLID_782_" class="st0" x1="-0.2" y1="20.2" x2="640.8" y2="20.2"/>
	<line id="XMLID_781_" class="st0" x1="0" y1="60.8" x2="641" y2="60.8"/>
	<line id="XMLID_742_" class="st0" x1="0" y1="81.2" x2="641" y2="81.2"/>
	<line id="XMLID_741_" class="st0" x1="0" y1="101.5" x2="641" y2="101.5"/>
</g>
<line id="XMLID_740_" class="st0" x1="145" y1="153.3" x2="145" y2="91.4"/>
<circle id="XMLID_739_" class="st1" cx="155" cy="91.4" r="10.2"/>
<line id="XMLID_737_" class="st0" x1="113.1" y1="164.4" x2="113.1" y2="102.6"/>
<circle id="XMLID_736_" class="st1" cx="123" cy="102.6" r="10.2"/>
<line id="XMLID_734_" class="st0" x1="177" y1="143.9" x2="177" y2="82.1"/>
<circle id="XMLID_733_" class="st1" cx="186.9" cy="82.1" r="10.2"/>
<line id="XMLID_731_" class="st0" x1="208.9" y1="132.9" x2="208.9" y2="71.1"/>
<circle id="XMLID_730_" class="st1" cx="218.8" cy="71.1" r="10.2"/>
<line id="XMLID_728_" class="st0" x1="240.8" y1="123.3" x2="240.8" y2="61.5"/>
<circle id="XMLID_727_" class="st1" cx="250.7" cy="61.5" r="10.2"/>
<line id="XMLID_725_" class="st0" x1="272.8" y1="113" x2="272.8" y2="51.2"/>
<circle id="XMLID_724_" class="st1" cx="282.7" cy="51.2" r="10.2"/>
<line id="XMLID_722_" class="st0" x1="304.7" y1="104.1" x2="304.7" y2="42.2"/>
<circle id="XMLID_721_" class="st1" cx="314.6" cy="42.2" r="10.2"/>
<line id="XMLID_719_" class="st0" x1="336.6" y1="92.3" x2="336.6" y2="30.4"/>
<circle id="XMLID_718_" class="st1" cx="346.5" cy="30.4" r="10.2"/>
<line id="XMLID_716_" class="st0" x1="413.8" y1="104.1" x2="413.8" y2="42.2"/>
<circle id="XMLID_715_" class="st1" cx="423.7" cy="42.2" r="10.2"/>
<line id="XMLID_713_" class="st0" x1="381.9" y1="92.3" x2="381.9" y2="30.4"/>
<circle id="XMLID_712_" class="st1" cx="391.8" cy="30.4" r="10.2"/>
<line id="XMLID_710_" class="st0" x1="445.8" y1="113" x2="445.8" y2="51.2"/>
<circle id="XMLID_709_" class="st1" cx="455.7" cy="51.2" r="10.2"/>
<line id="XMLID_707_" class="st0" x1="477.7" y1="123.3" x2="477.7" y2="61.5"/>
<circle id="XMLID_706_" class="st1" cx="487.6" cy="61.5" r="10.2"/>
<line id="XMLID_704_" class="st0" x1="509.6" y1="132.9" x2="509.6" y2="71.1"/>
<circle id="XMLID_703_" class="st1" cx="519.5" cy="71.1" r="10.2"/>
<line id="XMLID_701_" class="st0" x1="541.5" y1="143.9" x2="541.5" y2="82.1"/>
<circle id="XMLID_700_" class="st1" cx="551.5" cy="82.1" r="10.2"/>
<line id="XMLID_698_" class="st0" x1="573.5" y1="153.3" x2="573.5" y2="91.4"/>
<circle id="XMLID_697_" class="st1" cx="583.4" cy="91.4" r="10.2"/>
<line id="XMLID_695_" class="st0" x1="605.4" y1="164.4" x2="605.4" y2="102.6"/>
<circle id="XMLID_694_" class="st1" cx="615.3" cy="102.6" r="10.2"/>
<g id="XMLID_3084_">
	<path id="XMLID_3085_" d="M123.4,103.2h-3.9v3.6h4.4v1.1h-5.7V97.8h5.5v1.1h-4.2v3.2h3.9V103.2z"/>
</g>
<g id="XMLID_3081_">
	<path id="XMLID_3082_" d="M615.7,103.2h-3.9v3.6h4.4v1.1h-5.7V97.8h5.5v1.1h-4.2v3.2h3.9V103.2z"/>
</g>
<g id="XMLID_3078_">
	<path id="XMLID_3079_" d="M152.8,86.8h5.4v1.1h-4.1v3.4h3.8v1.1h-3.8v4.6h-1.3V86.8z"/>
</g>
<g id="XMLID_3075_">
	<path id="XMLID_3076_" d="M581,86.8h5.4v1.1h-4.1v3.4h3.8v1.1h-3.8v4.6H581V86.8z"/>
</g>
<g id="XMLID_3072_">
	<path id="XMLID_3073_" d="M190.8,86.4c-0.6,0.2-1.8,0.6-3.1,0.6c-1.5,0-2.8-0.4-3.8-1.3c-0.9-0.8-1.4-2.2-1.4-3.8
		c0-3,2.1-5.2,5.5-5.2c1.2,0,2.1,0.3,2.5,0.5l-0.3,1.1c-0.5-0.3-1.2-0.4-2.2-0.4c-2.5,0-4.1,1.5-4.1,4.1c0,2.6,1.5,4.1,3.9,4.1
		c0.9,0,1.4-0.1,1.7-0.3v-3h-2v-1h3.3V86.4z"/>
</g>
<g id="XMLID_3069_">
	<path id="XMLID_3070_" d="M554.9,86.4c-0.6,0.2-1.8,0.6-3.1,0.6c-1.5,0-2.8-0.4-3.8-1.3c-0.9-0.8-1.4-2.2-1.4-3.8
		c0-3,2.1-5.2,5.5-5.2c1.2,0,2.1,0.3,2.5,0.5l-0.3,1.1c-0.5-0.3-1.2-0.4-2.2-0.4c-2.5,0-4.1,1.5-4.1,4.1c0,2.6,1.5,4.1,3.9,4.1
		c0.9,0,1.4-0.1,1.7-0.3v-3h-2v-1h3.3V86.4z"/>
</g>
<g id="XMLID_3065_">
	<path id="XMLID_3066_" d="M215.2,72.5l-1,3.2h-1.4l3.5-10.1h1.6l3.5,10.1h-1.4l-1.1-3.2H215.2z M218.6,71.5l-1-2.9
		c-0.2-0.7-0.4-1.3-0.5-1.8h0c-0.1,0.6-0.3,1.2-0.5,1.8l-1,2.9H218.6z"/>
</g>
<g id="XMLID_3061_">
	<path id="XMLID_3062_" d="M515.5,72.5l-1,3.2h-1.3l3.4-10.1h1.6l3.4,10.1h-1.4l-1.1-3.2H515.5z M518.9,71.5l-1-2.9
		c-0.2-0.7-0.4-1.3-0.5-1.8h0c-0.2,0.6-0.3,1.2-0.5,1.8l-1,2.9H518.9z"/>
</g>
<g id="XMLID_3056_">
	<path id="XMLID_3057_" d="M245.9,56.3c0.6-0.1,1.5-0.2,2.4-0.2c1.3,0,2.1,0.2,2.8,0.7c0.5,0.4,0.9,1,0.9,1.8c0,1-0.7,1.8-1.7,2.2v0
		c1,0.2,2.1,1,2.1,2.5c0,0.9-0.3,1.5-0.9,2c-0.7,0.6-1.8,0.9-3.5,0.9c-0.9,0-1.6-0.1-2-0.1V56.3z M247.2,60.5h1.2
		c1.4,0,2.2-0.7,2.2-1.7c0-1.2-0.9-1.6-2.2-1.6c-0.6,0-0.9,0-1.2,0.1V60.5z M247.2,65.3c0.3,0,0.6,0.1,1.1,0.1c1.3,0,2.6-0.5,2.6-2
		c0-1.4-1.2-1.9-2.6-1.9h-1.1V65.3z"/>
</g>
<g id="XMLID_3051_">
	<path id="XMLID_3052_" d="M482.7,56.3c0.6-0.1,1.5-0.2,2.4-0.2c1.3,0,2.1,0.2,2.8,0.7c0.5,0.4,0.9,1,0.9,1.8c0,1-0.7,1.8-1.7,2.2v0
		c1,0.2,2.1,1,2.1,2.5c0,0.9-0.3,1.5-0.9,2c-0.7,0.6-1.8,0.9-3.5,0.9c-0.9,0-1.6-0.1-2-0.1V56.3z M484,60.5h1.2
		c1.4,0,2.2-0.7,2.2-1.7c0-1.2-0.9-1.6-2.2-1.6c-0.6,0-0.9,0-1.2,0.1V60.5z M484,65.3c0.3,0,0.6,0.1,1.1,0.1c1.3,0,2.6-0.5,2.6-2
		c0-1.4-1.2-1.9-2.6-1.9H484V65.3z"/>
</g>
<g id="XMLID_3048_">
	<path id="XMLID_3049_" d="M285.4,55.9c-0.5,0.2-1.4,0.5-2.7,0.5c-2.8,0-5-1.8-5-5.1c0-3.2,2.1-5.3,5.3-5.3c1.2,0,2.1,0.3,2.4,0.4
		l-0.3,1.1c-0.5-0.2-1.2-0.4-2-0.4c-2.4,0-3.9,1.5-3.9,4.2c0,2.5,1.4,4.1,3.9,4.1c0.8,0,1.6-0.2,2.1-0.4L285.4,55.9z"/>
</g>
<g id="XMLID_3045_">
	<path id="XMLID_3046_" d="M458.9,55.9c-0.5,0.2-1.4,0.5-2.7,0.5c-2.8,0-5-1.8-5-5.1c0-3.2,2.1-5.3,5.3-5.3c1.2,0,2.1,0.3,2.4,0.4
		l-0.3,1.1c-0.5-0.2-1.2-0.4-2-0.4c-2.4,0-3.9,1.5-3.9,4.2c0,2.5,1.4,4.1,3.9,4.1c0.8,0,1.6-0.2,2.1-0.4L458.9,55.9z"/>
</g>
<g id="XMLID_3041_">
	<path id="XMLID_3042_" d="M310.6,37.9c0.8-0.1,1.7-0.2,2.8-0.2c1.9,0,3.2,0.5,4.1,1.3c0.9,0.8,1.4,2,1.4,3.6c0,1.6-0.5,3-1.5,3.9
		c-1,0.9-2.5,1.5-4.5,1.5c-0.9,0-1.7,0-2.4-0.1V37.9z M311.9,46.8c0.3,0,0.8,0.1,1.3,0.1c2.8,0,4.3-1.6,4.3-4.3
		c0-2.4-1.3-3.9-4.1-3.9c-0.7,0-1.2,0.1-1.5,0.1V46.8z"/>
</g>
<g id="XMLID_3037_">
	<path id="XMLID_3038_" d="M420.3,37.9c0.8-0.1,1.7-0.2,2.8-0.2c1.9,0,3.2,0.5,4.1,1.3c0.9,0.8,1.4,2,1.4,3.6c0,1.6-0.5,3-1.5,3.9
		c-1,0.9-2.5,1.5-4.5,1.5c-0.9,0-1.7,0-2.4-0.1V37.9z M421.6,46.8c0.3,0,0.8,0.1,1.3,0.1c2.8,0,4.3-1.6,4.3-4.3
		c0-2.4-1.3-3.9-4.1-3.9c-0.7,0-1.2,0.1-1.5,0.1V46.8z"/>
</g>
<g id="XMLID_3034_">
	<path id="XMLID_3035_" d="M348.9,31H345v3.6h4.4v1.1h-5.7V25.7h5.5v1.1H345V30h3.9V31z"/>
</g>
<g id="XMLID_3031_">
	<path id="XMLID_3032_" d="M394.5,31h-3.9v3.6h4.4v1.1h-5.7V25.7h5.5v1.1h-4.2V30h3.9V31z"/>
</g>
<g id="XMLID_669_">
	<path id="XMLID_670_" d="M47.5,101.3c-2.1,0.7-4.3,1-6.5,1.1c-5.8,0.1-11.2-1.5-15.8-5c-4.9-3.7-7.5-8.7-8.7-14.6
		c-1.1-5.7,0-11.1,2.4-16.3c2.1-4.5,5-8.5,8.2-12.2c0.7-0.8,1.4-1.5,2.1-2.3c0.3-0.3,0.3-0.5,0.2-0.9c-0.8-2.8-1.8-5.5-2.4-8.3
		c-1.3-5.6-1.5-11.3,0.3-16.9c2.1-6.4,6-11.2,12.5-13.5c0.8-0.3,1.6-0.5,2.4-0.6c1.7-0.1,3.2,0.6,4.5,1.6c2.7,2.1,4,5,4.2,8.3
		c0.3,5.1-1.4,9.7-3.8,14.2c-2.3,4.3-5.4,8.2-8.6,11.9c-1.1,1.3-2.1,2.5-3.2,3.7c-0.3,0.4-0.1,0.6,0,0.9c2,3.9,3.9,7.8,5.9,11.6
		c1-0.2,2-0.5,3.1-0.7c3.1-0.6,6.1,0,8.9,1.4c5.5,2.9,8.8,7.5,9.8,13.7c0.8,5-0.6,9.6-3.4,13.7c-1.8,2.7-4.1,4.9-6.8,6.6
		c-0.4,0.3-0.5,0.5-0.4,1c0.5,3.1,1.1,6.1,1.6,9.2c0.5,3.4,0.7,6.8-0.4,10.1c-1.4,4.5-4.6,7.1-9,8.3c-5.7,1.5-10.9,0.3-15.5-3.2
		c-3.9-2.9-6.5-6.6-7.6-11.4c-0.1-0.6-0.2-1.3-0.3-1.9c0-0.3,0-0.6,0-0.9c1.3,6.7,5,11.5,11.1,14.3c4.3,2,8.7,2.1,13-0.1
		c3.3-1.7,5-4.5,5.1-8.2c0.1-3.3-0.8-6.4-1.5-9.6c-0.4-1.5-0.8-2.9-1.2-4.4C47.7,101.7,47.6,101.5,47.5,101.3z M46,96
		c-2.5-9.1-6.5-17.6-9.3-26.6c-2.5,2.7-3.5,5.7-2.7,9.1c1,4.3,3.6,7.2,7.9,8.4c-0.3,0-0.5,0-0.8-0.1c-4.8-1.1-8.4-5.9-8.5-10.9
		c0-2.9,1-5.4,2.9-7.5c0.4-0.4,0.4-0.7,0.2-1.2c-0.6-1.6-1.2-3.1-1.9-4.7c-0.8-2-1.6-3.9-2.5-6c-0.8,1.1-1.6,2.1-2.3,3.1
		c-2.4,3.4-4.5,7.1-5.8,11.1c-1,3.3-1.3,6.6-0.7,10c0.8,4,2.9,7.4,5.7,10.3C33.2,95.8,39.2,97.2,46,96z M33.3,47.8
		c1.5-1.5,2.9-3,4.2-4.4c2.7-2.9,5.3-5.9,7.4-9.3c2.2-3.6,3.9-7.3,4.1-11.6c0.1-3.2-0.8-6-3.3-8.1c-1.4-1.2-2.9-1.8-4.9-1
		c-4.2,1.8-7.2,4.7-9.2,8.8c-2,4.2-2.4,8.6-1.9,13.1C30.2,39.6,31.5,43.7,33.3,47.8z M51.3,93.7c2.7-1.8,4.7-3.9,6.2-6.6
		c1.5-2.8,2.2-5.7,1.8-8.9c-0.4-3.3-1.9-6.2-4.2-8.6c-2.8-2.9-6.1-4.4-10.2-4.1c-0.9,0.1-1.7,0.3-2.8,0.5
		C46.8,74.8,49,84.2,51.3,93.7z"/>
</g>
<path id="XMLID_818_" d="M63.8,17c0,7.3,0,14.5,0,22.2c2.2-0.4,3.9-0.8,5.7-1.1c4.1-0.7,5.9,1.4,4.6,5.2c-1.6,5-5.6,8.1-11.5,8.8
	c0-11.7,0-23.4,0-35.2C63,17,63.4,17,63.8,17z M63.8,49.7c0.4,0.2,0.8,0.4,1.1,0.6c1.8-1.8,3.8-3.5,5.3-5.6c0.6-0.8,0-2.4,0-3.6
	c-1.6,0.1-3.2,0-4.7,0.4c-0.7,0.2-1.5,1.2-1.6,1.9C63.7,45.5,63.8,47.6,63.8,49.7z"/>
<path id="XMLID_815_" d="M71.8-1c0,7.3,0,14.5,0,22.2c2.2-0.4,3.9-0.8,5.7-1.1c4.1-0.7,5.9,1.4,4.6,5.2c-1.6,5-5.6,8.1-11.5,8.8
	c0-11.7,0-23.4,0-35.2C71-1,71.4-1,71.8-1z M71.8,31.7c0.4,0.2,0.8,0.4,1.1,0.6c1.8-1.8,3.8-3.5,5.3-5.6c0.6-0.8,0-2.4,0-3.6
	c-1.6,0.1-3.2,0-4.7,0.4c-0.7,0.2-1.5,1.2-1.6,1.9C71.7,27.5,71.8,29.6,71.8,31.7z"/>
<path id="XMLID_837_" d="M82.4,35c0,7.3,0,14.5,0,22.2c2.2-0.4,3.9-0.8,5.7-1.1c4.1-0.7,5.9,1.4,4.6,5.2c-1.6,5-5.6,8.1-11.5,8.8
	c0-11.7,0-23.4,0-35.2C81.5,35,81.9,35,82.4,35z M82.3,67.7c0.4,0.2,0.8,0.4,1.1,0.6c1.8-1.8,3.8-3.5,5.3-5.6c0.6-0.8,0-2.4,0-3.6
	c-1.6,0.1-3.2,0-4.7,0.4c-0.7,0.2-1.5,1.2-1.6,1.9C82.2,63.5,82.3,65.6,82.3,67.7z"/>
<path id="XMLID_834_" d="M90.4,17c0,7.3,0,14.5,0,22.2c2.2-0.4,3.9-0.8,5.7-1.1c4.1-0.7,5.9,1.4,4.6,5.2c-1.6,5-5.6,8.1-11.5,8.8
	c0-11.7,0-23.4,0-35.2C89.5,17,89.9,17,90.4,17z M90.3,49.7c0.4,0.2,0.8,0.4,1.1,0.6c1.8-1.8,3.8-3.5,5.3-5.6c0.6-0.8,0-2.4,0-3.6
	c-1.6,0.1-3.2,0-4.7,0.4c-0.7,0.2-1.5,1.2-1.6,1.9C90.2,45.5,90.3,47.6,90.3,49.7z"/>
<path id="XMLID_181_" d="M125.5,97.3c0,2.2,0,4.4,0,6.7c0.7-0.1,1.2-0.2,1.7-0.3c1.2-0.2,1.8,0.4,1.4,1.6c-0.5,1.5-1.7,2.4-3.5,2.6
	c0-3.5,0-7,0-10.5C125.2,97.3,125.4,97.3,125.5,97.3z M125.5,107.1c0.1,0.1,0.2,0.1,0.3,0.2c0.5-0.6,1.1-1.1,1.6-1.7
	c0.2-0.2,0-0.7,0-1.1c-0.5,0-1,0-1.4,0.1c-0.2,0-0.5,0.4-0.5,0.6C125.5,105.9,125.5,106.5,125.5,107.1z"/>
<path id="XMLID_184_" d="M222,65.5c0,2.2,0,4.4,0,6.7c0.7-0.1,1.2-0.2,1.7-0.3c1.2-0.2,1.8,0.4,1.4,1.6c-0.5,1.5-1.7,2.4-3.5,2.6
	c0-3.5,0-7,0-10.5C221.7,65.5,221.8,65.5,222,65.5z M222,75.3c0.1,0.1,0.2,0.1,0.3,0.2c0.5-0.6,1.1-1.1,1.6-1.7c0.2-0.2,0-0.7,0-1.1
	c-0.5,0-1,0-1.4,0.1c-0.2,0-0.5,0.4-0.5,0.6C221.9,74,222,74.7,222,75.3z"/>
<path id="XMLID_187_" d="M253.5,55.6c0,2.2,0,4.4,0,6.7c0.7-0.1,1.2-0.2,1.7-0.3c1.2-0.2,1.8,0.4,1.4,1.6c-0.5,1.5-1.7,2.4-3.5,2.6
	c0-3.5,0-7,0-10.5C253.3,55.6,253.4,55.6,253.5,55.6z M253.5,65.4c0.1,0.1,0.2,0.1,0.3,0.2c0.5-0.6,1.1-1.1,1.6-1.7
	c0.2-0.2,0-0.7,0-1.1c-0.5,0-1,0-1.4,0.1c-0.2,0-0.5,0.4-0.5,0.6C253.5,64.1,253.5,64.8,253.5,65.4z"/>
<path id="XMLID_376_" d="M490.4,55.6c0,2.2,0,4.4,0,6.7c0.7-0.1,1.2-0.2,1.7-0.3c1.2-0.2,1.8,0.4,1.4,1.6c-0.5,1.5-1.7,2.4-3.5,2.6
	c0-3.5,0-7,0-10.5C490.2,55.6,490.3,55.6,490.4,55.6z M490.4,65.4c0.1,0.1,0.2,0.1,0.3,0.2c0.5-0.6,1.1-1.1,1.6-1.7
	c0.2-0.2,0-0.7,0-1.1c-0.5,0-1,0-1.4,0.1c-0.2,0-0.5,0.4-0.5,0.6C490.4,64.1,490.4,64.8,490.4,65.4z"/>
<path id="XMLID_493_" d="M522.7,65.5c0,2.2,0,4.4,0,6.7c0.7-0.1,1.2-0.2,1.7-0.3c1.2-0.2,1.8,0.4,1.4,1.6c-0.5,1.5-1.7,2.4-3.5,2.6
	c0-3.5,0-7,0-10.5C522.4,65.5,522.5,65.5,522.7,65.5z M522.7,75.3c0.1,0.1,0.2,0.1,0.3,0.2c0.5-0.6,1.1-1.1,1.6-1.7
	c0.2-0.2,0-0.7,0-1.1c-0.5,0-1,0-1.4,0.1c-0.2,0-0.5,0.4-0.5,0.6C522.6,74,522.7,74.7,522.7,75.3z"/>
<path id="XMLID_496_" d="M617.6,97.3c0,2.2,0,4.4,0,6.7c0.7-0.1,1.2-0.2,1.7-0.3c1.2-0.2,1.8,0.4,1.4,1.6c-0.5,1.5-1.7,2.4-3.5,2.6
	c0-3.5,0-7,0-10.5C617.4,97.3,617.5,97.3,617.6,97.3z M617.6,107.2c0.1,0.1,0.2,0.1,0.3,0.2c0.5-0.6,1.1-1.1,1.6-1.7
	c0.2-0.2,0-0.7,0-1.1c-0.5,0-1,0-1.4,0.1c-0.2,0-0.5,0.4-0.5,0.6C617.6,105.9,617.6,106.5,617.6,107.2z"/>
</svg>
