<?xml version="1.0" encoding="UTF-8"?>
<!DOCTYPE svg PUBLIC "-//W3C//DTD SVG 1.1//EN" "http://www.w3.org/Graphics/SVG/1.1/DTD/svg11.dtd">
<svg xmlns="http://www.w3.org/2000/svg" version="1.1" width="5250px" height="1021px" style="shape-rendering:geometricPrecision; text-rendering:geometricPrecision; image-rendering:optimizeQuality; fill-rule:evenodd; clip-rule:evenodd" xmlns:xlink="http://www.w3.org/1999/xlink">
<g><path style="opacity:0.951" fill="#000000" d="M 239.5,-0.5 C 243.167,-0.5 246.833,-0.5 250.5,-0.5C 255.236,2.92725 259.07,7.26059 262,12.5C 286.658,54.7968 298.658,100.463 298,149.5C 299.408,154.242 302.574,156.742 307.5,157C 1763.83,156.437 3220.16,156.437 4676.5,157C 4683.55,156.288 4688.71,152.788 4692,146.5C 4698.01,133.492 4707.17,123.325 4719.5,116C 4768.84,92.6668 4818.17,92.6668 4867.5,116C 4883.11,123.106 4893.11,134.939 4897.5,151.5C 4900.46,153.812 4903.79,155.312 4907.5,156C 5018.5,156.333 5129.5,156.667 5240.5,157C 5243.84,157.842 5246.84,159.342 5249.5,161.5C 5249.5,162.167 5249.5,162.833 5249.5,163.5C 5247.66,165.168 5245.66,166.668 5243.5,168C 5131.17,168.333 5018.83,168.667 4906.5,169C 4903.8,169.765 4901.3,170.932 4899,172.5C 4895.89,177.81 4893.56,183.477 4892,189.5C 4886.22,198.825 4878.38,205.992 4868.5,211C 4817.81,233.629 4767.47,232.962 4717.5,209C 4702.42,201.346 4693.25,189.179 4690,172.5C 4687.7,170.932 4685.2,169.765 4682.5,169C 4563.17,168.333 4443.83,168.333 4324.5,169C 4319.68,169.364 4315.01,170.364 4310.5,172C 4324.62,179.783 4335.78,190.617 4344,204.5C 4352.88,237.078 4341.71,259.745 4310.5,272.5C 4312.57,274.83 4315.24,275.997 4318.5,276C 4625.16,277.213 4931.83,277.879 5238.5,278C 5242.4,279.019 5246.06,280.519 5249.5,282.5C 5249.5,282.833 5249.5,283.167 5249.5,283.5C 5246.31,285.26 5242.98,286.76 5239.5,288C 4762.17,288.333 4284.83,288.667 3807.5,289C 3804.13,289.521 3801.13,290.854 3798.5,293C 3793.88,299.748 3789.38,306.581 3785,313.5C 3769.5,330.337 3750.33,340.504 3727.5,344C 3685.34,352.694 3645.67,346.361 3608.5,325C 3597.57,316.404 3590.24,305.404 3586.5,292C 3582.39,290.109 3578.06,289.109 3573.5,289C 3459.17,288.333 3344.83,288.333 3230.5,289C 3222.72,289.188 3215.06,290.188 3207.5,292C 3222.61,299.446 3234.11,310.613 3242,325.5C 3249.13,346.59 3244.96,365.09 3229.5,381C 3223.45,386.053 3217.11,390.719 3210.5,395C 3214.11,395.945 3217.78,396.612 3221.5,397C 3895.5,397.333 4569.5,397.667 5243.5,398C 5246.25,398.599 5248.25,400.099 5249.5,402.5C 5249.5,403.5 5249.5,404.5 5249.5,405.5C 5247.4,406.412 5245.4,407.579 5243.5,409C 4398.17,408.877 3552.83,408.877 2707.5,409C 2699.97,409.347 2694.47,412.847 2691,419.5C 2682.48,439.016 2667.98,451.849 2647.5,458C 2601.22,473.876 2556.22,470.876 2512.5,449C 2498.37,441.539 2489.53,430.039 2486,414.5C 2484.05,412.106 2481.55,410.606 2478.5,410C 2466,409.538 2453.5,409.038 2441,408.5C 2332.5,409.309 2224,409.809 2115.5,410C 2112.17,410.333 2108.83,410.667 2105.5,411C 2105.04,411.414 2104.71,411.914 2104.5,412.5C 2111.28,416.771 2117.95,421.271 2124.5,426C 2142.36,441.287 2147.53,460.121 2140,482.5C 2132.91,496.478 2122.07,506.478 2107.5,512.5C 2106.61,513.325 2106.28,514.325 2106.5,515.5C 2110.19,515.781 2113.85,516.281 2117.5,517C 3156.83,517.333 4196.17,517.667 5235.5,518C 5240.42,518.806 5245.08,520.306 5249.5,522.5C 5249.5,523.167 5249.5,523.833 5249.5,524.5C 5245.63,526.265 5241.63,527.765 5237.5,529C 4027.83,529.655 2818.16,529.655 1608.5,529C 1602.94,529.075 1597.94,530.742 1593.5,534C 1588.71,540.417 1584.54,547.25 1581,554.5C 1572.85,563.987 1563.01,571.153 1551.5,576C 1502.58,594.822 1454.91,592.156 1408.5,568C 1394.91,560.337 1386.58,548.837 1383.5,533.5C 1381.87,531.703 1379.87,530.536 1377.5,530C 1257.17,529.333 1136.83,529.333 1016.5,530C 1012.68,530.235 1009.01,531.068 1005.5,532.5C 1016.37,539.534 1025.87,548.201 1034,558.5C 1044.91,578.407 1043.57,597.407 1030,615.5C 1022.18,622.828 1013.68,629.161 1004.5,634.5C 1006.88,636.071 1009.55,636.904 1012.5,637C 2421.5,637.333 3830.5,637.667 5239.5,638C 5241.5,638.333 5243.5,638.667 5245.5,639C 5246.71,640.376 5248.04,641.542 5249.5,642.5C 5249.5,643.5 5249.5,644.5 5249.5,645.5C 5247.99,646.836 5246.32,648.003 5244.5,649C 3591.83,649.5 1939.17,649.667 286.5,649.5C 292.421,679.359 297.588,709.359 302,739.5C 305.821,777.685 291.655,806.852 259.5,827C 236.062,837.378 211.729,840.044 186.5,835C 157.534,826.702 138.368,808.202 129,779.5C 124.369,753.937 132.202,733.103 152.5,717C 171.732,707.264 190.065,708.597 207.5,721C 220.604,732.975 225.771,747.809 223,765.5C 220.042,780.78 211.542,791.613 197.5,798C 190.333,800.167 183.167,802.333 176,804.5C 174.743,804.85 174.409,805.517 175,806.5C 185.586,817.479 198.586,822.812 214,822.5C 246.676,820.466 269.343,804.466 282,774.5C 284.908,762.995 285.908,751.329 285,739.5C 281.957,714.282 277.623,689.282 272,664.5C 270.366,655.866 265.2,651.032 256.5,650C 173.5,649.667 90.5,649.333 7.5,649C 4.68823,647.672 2.02157,646.172 -0.5,644.5C -0.5,643.833 -0.5,643.167 -0.5,642.5C 1.61246,641.56 3.61246,640.394 5.5,639C 55.157,637.808 104.824,637.141 154.5,637C 159.19,636.497 163.857,635.83 168.5,635C 136.606,623.828 111.773,603.994 94,575.5C 86.9199,562.338 79.5866,549.338 72,536.5C 70.1266,534.291 67.96,532.458 65.5,531C 47.5655,529.706 29.5655,529.04 11.5,529C 6.93589,528.88 2.93589,527.38 -0.5,524.5C -0.5,523.833 -0.5,523.167 -0.5,522.5C 2.43086,520.203 5.76419,518.703 9.5,518C 25.5,517.667 41.5,517.333 57.5,517C 60.1677,516.433 62.8344,515.933 65.5,515.5C 59.2431,480.48 60.4098,445.813 69,411.5C 67.2663,410.751 65.433,410.251 63.5,410C 44.8148,409.777 26.1482,409.111 7.5,408C 4.92885,406.546 2.26219,405.38 -0.5,404.5C -0.5,403.833 -0.5,403.167 -0.5,402.5C 2.68874,400.74 6.02208,399.24 9.5,398C 29.1667,397.667 48.8333,397.333 68.5,397C 73.2391,395.881 77.0724,393.381 80,389.5C 99.0282,354.786 123.028,323.786 152,296.5C 153.167,294.667 154.333,292.833 155.5,291C 149.186,290.153 142.853,289.487 136.5,289C 91.8333,288.667 47.1667,288.333 2.5,288C 1.62656,286.955 0.626561,286.122 -0.5,285.5C -0.5,284.167 -0.5,282.833 -0.5,281.5C 0.363622,280.312 1.36362,279.145 2.5,278C 55.8333,277.667 109.167,277.333 162.5,277C 177.929,273.739 185.929,264.239 186.5,248.5C 183.141,223.484 179.641,198.484 176,173.5C 174.891,171.185 173.057,169.685 170.5,169C 114.833,168.667 59.1667,168.333 3.5,168C 2.01608,167.338 0.682751,166.504 -0.5,165.5C -0.5,163.833 -0.5,162.167 -0.5,160.5C 2.26111,158.015 5.59445,156.848 9.5,157C 16.5,156.833 23.5,156.667 30.5,156.5C 78.8384,157.78 127.172,157.78 175.5,156.5C 174.452,109.012 186.619,65.3449 212,25.5C 216.833,20 221.667,14.5 226.5,9C 230.476,5.16784 234.81,2.00118 239.5,-0.5 Z M 249.5,71.5 C 263.534,71.0096 272.367,77.6762 276,91.5C 277.671,100.808 277.671,110.142 276,119.5C 275.082,127.178 274.082,134.844 273,142.5C 272.485,150.01 268.652,154.844 261.5,157C 241.819,157.658 222.152,157.324 202.5,156C 199.728,155.474 197.062,154.641 194.5,153.5C 204.667,131.833 214.833,110.167 225,88.5C 231.268,79.961 239.434,74.2944 249.5,71.5 Z M 4781.5,109.5 C 4795.19,108.93 4806.36,113.93 4815,124.5C 4821.09,133.005 4826.42,142.005 4831,151.5C 4831.52,153.289 4831.19,154.956 4830,156.5C 4818.41,157.162 4806.74,157.495 4795,157.5C 4782.11,157.628 4769.28,157.128 4756.5,156C 4753.14,153.307 4751.81,149.807 4752.5,145.5C 4750.51,123.84 4760.18,111.84 4781.5,109.5 Z M 214.5,168.5 C 230.181,168.167 245.848,168.501 261.5,169.5C 247.192,196.985 228.192,220.819 204.5,241C 203.552,241.483 202.552,241.649 201.5,241.5C 199.858,220.584 197.858,199.751 195.5,179C 196.119,175.43 197.786,172.43 200.5,170C 205.351,169.826 210.018,169.326 214.5,168.5 Z M 300.5,168.5 C 355.834,168.333 411.168,168.5 466.5,169C 474.552,168.926 479.385,172.76 481,180.5C 481.333,185.833 481.667,191.167 482,196.5C 481.844,216.343 482.011,236.176 482.5,256C 482.333,260.5 482.167,265 482,269.5C 481.573,273.527 479.406,276.027 475.5,277C 405.833,277.667 336.167,277.667 266.5,277C 262.814,276.441 259.147,275.774 255.5,275C 276.82,244.392 290.32,210.559 296,173.5C 297.025,171.313 298.525,169.646 300.5,168.5 Z M 504.5,168.5 C 1721.5,168.333 2938.5,168.5 4155.5,169C 4161.87,169.311 4168.21,169.977 4174.5,171C 4153,181.173 4140.67,198.006 4137.5,221.5C 4138.91,238.485 4146.24,252.319 4159.5,263C 4165.2,266.846 4170.87,270.68 4176.5,274.5C 4173.55,275.321 4170.55,275.821 4167.5,276C 4046.17,277.502 3924.84,277.836 3803.5,277C 3800.54,276.771 3798.04,275.604 3796,273.5C 3792.46,259.22 3784.62,248.054 3772.5,240C 3722.33,213.228 3671.33,211.561 3619.5,235C 3602.5,242.663 3591.17,255.33 3585.5,273C 3583.5,274 3581.5,275 3579.5,276C 3573.5,276.333 3567.5,276.667 3561.5,277C 2541.83,277.667 1522.17,277.667 502.5,277C 500.061,276.226 498.227,274.726 497,272.5C 496.333,240.167 496.333,207.833 497,175.5C 498.211,171.666 500.711,169.333 504.5,168.5 Z M 4757.5,168.5 C 4781.53,168.121 4805.53,168.621 4829.5,170C 4831.67,170.833 4833.17,172.333 4834,174.5C 4837.16,208.694 4822,221.527 4788.5,213C 4781.23,210.292 4775.4,205.792 4771,199.5C 4765.33,190.826 4760.16,181.826 4755.5,172.5C 4756.18,171.14 4756.85,169.807 4757.5,168.5 Z M 4230.5,170.5 C 4247.98,169.491 4261.15,176.491 4270,191.5C 4278.99,206.959 4283.82,223.625 4284.5,241.5C 4283.64,258.161 4275.64,269.661 4260.5,276C 4248.2,278.806 4237.2,276.139 4227.5,268C 4211.98,250.62 4202.98,230.287 4200.5,207C 4201.15,198.881 4202.99,191.048 4206,183.5C 4207.79,180.705 4209.96,178.205 4212.5,176C 4218.34,173.213 4224.34,171.38 4230.5,170.5 Z M 3674.5,230.5 C 3692.1,228.081 3705.94,234.081 3716,248.5C 3721.09,257.005 3725.92,265.672 3730.5,274.5C 3727.94,275.641 3725.27,276.474 3722.5,277C 3699.77,277.968 3677.1,277.635 3654.5,276C 3651.53,273.735 3650.2,270.735 3650.5,267C 3650.89,259.036 3652.06,251.203 3654,243.5C 3659.03,236.241 3665.86,231.908 3674.5,230.5 Z M 257.5,288.5 C 330.891,288.009 404.225,288.509 477.5,290C 480.094,291.339 481.594,293.506 482,296.5C 482.167,299.833 482.333,303.167 482.5,306.5C 481.252,329.331 481.252,352.165 482.5,375C 482.601,381.245 482.101,387.411 481,393.5C 479.786,395.049 478.286,396.215 476.5,397C 400.822,397.179 325.155,397.679 249.5,398.5C 241.674,399.508 236.174,396.508 233,389.5C 228.74,367.364 223.906,345.364 218.5,323.5C 225.26,311.24 234.593,301.406 246.5,294C 250.017,291.674 253.683,289.84 257.5,288.5 Z M 503.5,288.5 C 1351.83,288.333 2200.17,288.5 3048.5,289C 3056.92,289.289 3065.25,290.289 3073.5,292C 3063.49,297.678 3054.32,304.511 3046,312.5C 3032.15,332.733 3032.15,353.066 3046,373.5C 3053.48,381.974 3061.98,389.141 3071.5,395C 3067.89,395.945 3064.22,396.612 3060.5,397C 2940.5,397.667 2820.5,397.667 2700.5,397C 2697.45,396.394 2694.95,394.894 2693,392.5C 2689.03,376.204 2679.53,364.37 2664.5,357C 2609.19,330.376 2555.19,332.709 2502.5,364C 2493.68,370.808 2488.18,379.642 2486,390.5C 2482.98,394.092 2479.15,396.258 2474.5,397C 1846.17,397.667 1217.83,397.667 589.5,397C 584.844,396.335 580.177,395.835 575.5,395.5C 577.601,388.661 578.934,381.661 579.5,374.5C 579.115,361.558 573.449,351.724 562.5,345C 548.192,337.122 533.525,336.455 518.5,343C 511.179,346.325 504.179,350.159 497.5,354.5C 496.334,334.842 496.167,315.175 497,295.5C 497.346,291.325 499.512,288.992 503.5,288.5 Z M 3654.5,289.5 C 3678.84,289.333 3703.17,289.5 3727.5,290C 3729.81,291.109 3731.31,292.943 3732,295.5C 3734.09,306.868 3732.09,317.534 3726,327.5C 3718.93,333.791 3710.59,336.458 3701,335.5C 3692.85,336.073 3685.35,334.24 3678.5,330C 3669.22,318.725 3660.72,306.891 3653,294.5C 3652.88,292.718 3653.38,291.052 3654.5,289.5 Z M 3123.5,290.5 C 3148.13,289.645 3164.97,300.645 3174,323.5C 3182.06,343.07 3183.4,363.07 3178,383.5C 3176.54,387.26 3174.04,390.093 3170.5,392C 3157.16,396.585 3143.82,396.585 3130.5,392C 3126.42,389.925 3122.92,387.092 3120,383.5C 3105.29,364.697 3098.62,343.364 3100,319.5C 3100.52,311.283 3103.02,303.783 3107.5,297C 3112.57,293.928 3117.9,291.762 3123.5,290.5 Z M 201.5,334.5 C 203.229,335.117 204.729,336.117 206,337.5C 209.644,356.885 213.477,376.218 217.5,395.5C 193.174,396.666 168.84,396.833 144.5,396C 163.706,375.63 182.706,355.13 201.5,334.5 Z M 2574.5,350.5 C 2591.55,349.443 2605.05,355.776 2615,369.5C 2620.03,378.221 2624.53,387.221 2628.5,396.5C 2605.17,397.666 2581.84,397.833 2558.5,397C 2549.98,395.306 2546.31,390.139 2547.5,381.5C 2549.05,364.617 2558.05,354.284 2574.5,350.5 Z M 521.5,357.5 C 528.4,356.917 533.566,359.584 537,365.5C 539.59,370.272 541.59,375.272 543,380.5C 544.109,390.405 539.609,395.905 529.5,397C 519.067,397.95 508.734,397.617 498.5,396C 496.986,392.362 496.32,388.529 496.5,384.5C 495.571,375.19 499.238,368.357 507.5,364C 512.137,361.511 516.804,359.344 521.5,357.5 Z M 144.5,408.5 C 166.17,409.636 187.837,409.636 209.5,408.5C 209.714,410.144 209.38,411.644 208.5,413C 168.804,435.551 150.471,469.718 153.5,515.5C 135.562,519.206 117.562,519.373 99.5,516C 96.8638,512.258 95.5305,508.091 95.5,503.5C 99.0276,471.959 109.694,443.126 127.5,417C 132.521,412.725 138.187,409.892 144.5,408.5 Z M 601.5,408.5 C 1053.83,409.178 1506.17,409.678 1958.5,410C 1962.5,410.333 1966.5,410.667 1970.5,411C 1971.31,411.308 1971.97,411.808 1972.5,412.5C 1965.99,416.83 1959.32,420.997 1952.5,425C 1934.75,439.269 1929.25,457.435 1936,479.5C 1943.62,495.786 1955.79,507.286 1972.5,514C 1971.83,514.667 1971.17,515.333 1970.5,516C 1966.83,516.333 1963.17,516.667 1959.5,517C 1838.83,517.667 1718.17,517.667 1597.5,517C 1594.8,516.31 1592.64,514.81 1591,512.5C 1588.44,501.535 1582.94,492.368 1574.5,485C 1520.38,452.092 1465.04,450.092 1408.5,479C 1394.69,486.139 1386.19,497.306 1383,512.5C 1380.03,514.401 1376.86,515.901 1373.5,517C 1037.17,517.667 700.833,517.667 364.5,517C 362,515.833 360.167,514 359,511.5C 357.653,499.394 355.653,487.394 353,475.5C 350.883,469.264 348.216,463.264 345,457.5C 331.934,441.429 317.767,426.263 302.5,412C 304.788,411.178 307.122,410.511 309.5,410C 365.5,409.333 421.5,409.333 477.5,410C 479.333,410.5 480.5,411.667 481,413.5C 481.333,438.167 481.667,462.833 482,487.5C 509.167,463 536.333,438.5 563.5,414C 566.948,412.073 570.615,410.739 574.5,410C 583.676,409.83 592.676,409.33 601.5,408.5 Z M 500.5,409.5 C 510.839,409.334 521.172,409.5 531.5,410C 532.059,410.725 532.392,411.558 532.5,412.5C 522.887,424.619 513.054,436.619 503,448.5C 501.429,450.923 499.263,452.256 496.5,452.5C 496.333,440.162 496.5,427.829 497,415.5C 497.564,413.113 498.73,411.113 500.5,409.5 Z M 2552.5,409.5 C 2576.5,409.333 2600.5,409.5 2624.5,410C 2627.38,411.251 2629.21,413.417 2630,416.5C 2631.74,451.868 2615.57,464.035 2581.5,453C 2577.76,451.262 2574.59,448.762 2572,445.5C 2564.09,435.351 2556.92,424.684 2550.5,413.5C 2551.63,412.378 2552.3,411.044 2552.5,409.5 Z M 2020.5,411.5 C 2038.96,408.257 2053.46,414.257 2064,429.5C 2076.4,448.088 2081.06,468.422 2078,490.5C 2073.62,510.227 2061.46,519.061 2041.5,517C 2028.32,513.333 2018.49,505.499 2012,493.5C 2006.84,484.188 2002.51,474.522 1999,464.5C 1995.87,452.106 1996.21,439.773 2000,427.5C 2003.19,417.474 2010.02,412.141 2020.5,411.5 Z M 254.5,461.5 C 272.021,461.596 287.021,467.762 299.5,480C 310.572,490.312 317.906,502.812 321.5,517.5C 301.131,517.913 280.797,517.413 260.5,516C 258.959,514.421 257.792,512.587 257,510.5C 254.112,495.338 251.279,480.172 248.5,465C 250.223,463.251 252.223,462.084 254.5,461.5 Z M 224.5,463.5 C 229.118,462.949 231.951,464.949 233,469.5C 235.643,485.214 238.476,500.88 241.5,516.5C 221.833,516.5 202.167,516.5 182.5,516.5C 188.16,492.158 202.16,474.492 224.5,463.5 Z M 1474.5,470.5 C 1490.85,469.26 1503.35,475.594 1512,489.5C 1516,496.833 1520,504.167 1524,511.5C 1524.63,513.903 1523.8,515.737 1521.5,517C 1497.41,517.98 1473.41,517.646 1449.5,516C 1446.97,513.427 1445.97,510.261 1446.5,506.5C 1446.51,497.869 1448.01,489.536 1451,481.5C 1453.2,478.96 1455.7,476.793 1458.5,475C 1463.96,473.473 1469.29,471.973 1474.5,470.5 Z M 98.5,529.5 C 116.88,529.067 135.214,529.567 153.5,531C 155.624,532.122 157.457,533.622 159,535.5C 170.088,561.591 189.088,578.924 216,587.5C 218.79,586.906 221.29,585.739 223.5,584C 211.74,574.911 200.573,565.078 190,554.5C 185.217,548.264 182.05,541.264 180.5,533.5C 183.279,531.778 186.279,530.611 189.5,530C 206.167,529.333 222.833,529.333 239.5,530C 243.406,530.973 245.573,533.473 246,537.5C 250.36,561.636 255.36,585.636 261,609.5C 261.667,612.833 261.667,616.167 261,619.5C 259.681,621.487 257.848,622.654 255.5,623C 210.994,631.103 170.661,621.769 134.5,595C 115.042,577.249 103.042,555.416 98.5,529.5 Z M 268.5,529.5 C 285.837,529.333 303.17,529.5 320.5,530C 323.428,531.26 325.261,533.427 326,536.5C 325.671,571.465 310.338,597.465 280,614.5C 273.609,589.546 268.109,564.379 263.5,539C 264.259,535.313 265.926,532.146 268.5,529.5 Z M 362.5,529.5 C 525.834,529.333 689.167,529.5 852.5,530C 857.922,530.57 863.255,531.57 868.5,533C 857.221,539.051 847.388,546.885 839,556.5C 826.214,581.568 830.048,603.735 850.5,623C 855.889,627.389 861.556,631.389 867.5,635C 672.174,637.221 476.841,638.054 281.5,637.5C 281.215,635.712 281.548,634.045 282.5,632.5C 303.062,621.626 320.895,607.293 336,589.5C 348.868,573.083 356.202,554.417 358,533.5C 359.397,531.93 360.897,530.596 362.5,529.5 Z M 1450.5,529.5 C 1474.5,529.333 1498.5,529.5 1522.5,530C 1527.57,532.348 1529.91,536.348 1529.5,542C 1528.79,551.025 1526.29,559.525 1522,567.5C 1515.2,573.938 1507.03,576.938 1497.5,576.5C 1487.95,576.928 1479.45,574.261 1472,568.5C 1463.58,557.242 1455.75,545.576 1448.5,533.5C 1449.63,532.378 1450.3,531.044 1450.5,529.5 Z M 926.5,530.5 C 942.537,530.931 954.704,537.931 963,551.5C 977.986,574.719 980.986,599.385 972,625.5C 969.408,628.762 966.241,631.262 962.5,633C 949.171,638.217 936.171,637.55 923.5,631C 917.955,627.122 913.455,622.289 910,616.5C 900.797,600.891 895.63,584.058 894.5,566C 895.48,559.139 896.647,552.306 898,545.5C 899.198,541.254 901.698,538.087 905.5,536C 912.346,533.04 919.346,531.207 926.5,530.5 Z"/></g>
<g><path style="opacity:0.893" fill="#000000" d="M 2629.5,1020.5 C 2628.83,1020.5 2628.17,1020.5 2627.5,1020.5C 2627.5,975.167 2627.5,929.833 2627.5,884.5C 2628.83,884.5 2630.17,884.5 2631.5,884.5C 2631.5,910.167 2631.5,935.833 2631.5,961.5C 2639.1,959.95 2646.76,959.45 2654.5,960C 2660.61,962.366 2663.61,966.866 2663.5,973.5C 2662.46,979.578 2660.3,985.245 2657,990.5C 2648.36,1000.97 2639.2,1010.97 2629.5,1020.5 Z M 2638.5,968.5 C 2643.49,968.495 2646.82,970.828 2648.5,975.5C 2645.66,985.507 2641.49,994.84 2636,1003.5C 2635.13,1003.26 2634.29,1002.93 2633.5,1002.5C 2632.33,992.851 2632.17,983.184 2633,973.5C 2634.35,971.251 2636.18,969.584 2638.5,968.5 Z"/></g>
<g><path style="opacity:0.956" fill="#000000" d="M 3713.5,1020.5 C 3692.17,1020.5 3670.83,1020.5 3649.5,1020.5C 3649.5,977.167 3649.5,933.833 3649.5,890.5C 3672.87,892.549 3696.2,895.049 3719.5,898C 3726.24,899.736 3730.74,903.903 3733,910.5C 3734.63,940.793 3734.96,971.127 3734,1001.5C 3731.44,1012.56 3724.61,1018.9 3713.5,1020.5 Z M 3668.5,909.5 C 3679.51,909.333 3690.51,909.5 3701.5,910C 3709.68,911.509 3714.51,916.342 3716,924.5C 3716.67,946.5 3716.67,968.5 3716,990.5C 3715.07,998.761 3710.57,1003.93 3702.5,1006C 3691.18,1007.71 3679.84,1007.88 3668.5,1006.5C 3668.5,974.167 3668.5,941.833 3668.5,909.5 Z"/></g>
<g><path style="opacity:0.956" fill="#000000" d="M 2592.5,1020.5 C 2570.83,1020.5 2549.17,1020.5 2527.5,1020.5C 2527.5,977.5 2527.5,934.5 2527.5,891.5C 2547.92,892.34 2568.26,894.174 2588.5,897C 2598.18,900.832 2603.68,907.999 2605,918.5C 2606.9,931.811 2602.74,942.644 2592.5,951C 2613.47,965.374 2618.97,984.208 2609,1007.5C 2604.83,1013.65 2599.33,1017.98 2592.5,1020.5 Z M 2547.5,909.5 C 2559.46,909.535 2571.13,911.368 2582.5,915C 2585.35,917.523 2587.01,920.69 2587.5,924.5C 2585.92,936.247 2579.25,942.747 2567.5,944C 2560.19,945.09 2552.86,945.923 2545.5,946.5C 2545.33,935.162 2545.5,923.828 2546,912.5C 2546.51,911.473 2547.01,910.473 2547.5,909.5 Z M 2545.5,963.5 C 2558.24,963.895 2570.9,965.061 2583.5,967C 2591.41,970.986 2595.08,977.486 2594.5,986.5C 2594.63,994.634 2591.3,1000.8 2584.5,1005C 2571.61,1007.83 2558.61,1008.33 2545.5,1006.5C 2545.5,992.167 2545.5,977.833 2545.5,963.5 Z"/></g>
<g><path style="opacity:0.967" fill="#000000" d="M 911.5,1020.5 C 905.5,1020.5 899.5,1020.5 893.5,1020.5C 893.333,980.165 893.5,939.832 894,899.5C 895.5,896.667 897.667,894.5 900.5,893C 920.867,892.087 941.2,892.42 961.5,894C 964.017,896.349 966.35,898.849 968.5,901.5C 966.423,904.374 963.756,906.541 960.5,908C 945.074,908.031 929.741,908.698 914.5,910C 913.107,911.171 912.273,912.671 912,914.5C 910.711,922.878 910.711,931.212 912,939.5C 913.378,942.108 915.545,943.608 918.5,944C 931.135,945.155 943.801,945.821 956.5,946C 959.919,947.586 962.919,949.752 965.5,952.5C 963.308,956.733 960.308,960.233 956.5,963C 943.5,963.333 930.5,963.667 917.5,964C 912.853,966.575 910.853,970.575 911.5,976C 912.788,990.853 912.788,1005.69 911.5,1020.5 Z"/></g>
<g><path style="opacity:0.953" fill="#000000" d="M 1512.5,1020.5 C 1495.83,1020.5 1479.17,1020.5 1462.5,1020.5C 1452.62,1017.45 1446.79,1010.78 1445,1000.5C 1444.09,971.476 1444.42,942.476 1446,913.5C 1452.65,900.208 1463.48,893.375 1478.5,893C 1491.57,891.623 1504.24,893.289 1516.5,898C 1528.61,903.729 1533.11,913.229 1530,926.5C 1524.9,935.48 1519.24,935.813 1513,927.5C 1504.64,910.573 1491.48,905.073 1473.5,911C 1468.77,913.956 1465.6,918.123 1464,923.5C 1462,946.833 1462,970.167 1464,993.5C 1466.14,999.641 1470.31,1003.81 1476.5,1006C 1484.92,1008.15 1493.25,1007.82 1501.5,1005C 1508.11,1002.39 1511.61,997.561 1512,990.5C 1512.67,985.5 1512.67,980.5 1512,975.5C 1503.69,974.406 1495.52,972.573 1487.5,970C 1485.99,968.527 1485.33,966.693 1485.5,964.5C 1485.84,961.824 1486.17,959.157 1486.5,956.5C 1501.17,956.5 1515.83,956.5 1530.5,956.5C 1530.89,972.872 1530.39,989.205 1529,1005.5C 1525.85,1013.15 1520.35,1018.15 1512.5,1020.5 Z"/></g>
<g><path style="opacity:0.952" fill="#000000" d="M 2072.5,1020.5 C 2066.83,1020.5 2061.17,1020.5 2055.5,1020.5C 2052.03,1011.97 2048.86,1003.3 2046,994.5C 2043.96,992.396 2041.46,991.229 2038.5,991C 2030.11,990.169 2021.78,990.503 2013.5,992C 2012,993.5 2010.5,995 2009,996.5C 2006.16,1004.55 2003.33,1012.55 2000.5,1020.5C 1994.83,1020.5 1989.17,1020.5 1983.5,1020.5C 1993.75,979.495 2005.25,938.828 2018,898.5C 2020.07,894.047 2023.57,892.047 2028.5,892.5C 2033.43,892.047 2036.93,894.047 2039,898.5C 2050.8,939.046 2061.97,979.713 2072.5,1020.5 Z M 2027.5,924.5 C 2028.59,924.62 2029.25,925.287 2029.5,926.5C 2033.3,941.229 2037.3,955.896 2041.5,970.5C 2032.52,971.498 2023.52,971.832 2014.5,971.5C 2018.68,955.79 2023.01,940.123 2027.5,924.5 Z"/></g>
<g><path style="opacity:0.946" fill="#000000" d="M 3164.5,1020.5 C 3148.83,1020.5 3133.17,1020.5 3117.5,1020.5C 3107.83,1019.24 3101.66,1013.91 3099,1004.5C 3097.39,974.864 3097.06,945.197 3098,915.5C 3101.11,903.401 3108.94,896.568 3121.5,895C 3140.42,890.694 3158.42,893.027 3175.5,902C 3183.93,910.291 3186.43,920.124 3183,931.5C 3178.8,935.714 3173.97,936.548 3168.5,934C 3165.47,928.118 3162.31,922.285 3159,916.5C 3152.64,909.614 3144.81,907.114 3135.5,909C 3126.76,909.603 3120.59,913.77 3117,921.5C 3115.18,945.17 3115.18,968.837 3117,992.5C 3123.28,1006.16 3133.78,1010.99 3148.5,1007C 3158.08,1002.37 3164.24,994.872 3167,984.5C 3170,982.167 3173,979.833 3176,977.5C 3178.33,980.5 3180.67,983.5 3183,986.5C 3186.92,1003.68 3180.75,1015.01 3164.5,1020.5 Z"/></g>
<g><path style="opacity:0.952" fill="#000000" d="M 4271.5,1020.5 C 4247.83,1020.5 4224.17,1020.5 4200.5,1020.5C 4200.5,977.833 4200.5,935.167 4200.5,892.5C 4222.23,892.033 4243.9,892.533 4265.5,894C 4267.18,896.344 4268.85,898.677 4270.5,901C 4268.85,903.987 4266.51,906.321 4263.5,908C 4248.84,908.5 4234.17,908.667 4219.5,908.5C 4219.5,920.833 4219.5,933.167 4219.5,945.5C 4233.5,945.333 4247.5,945.5 4261.5,946C 4266.15,948.897 4267.65,953.063 4266,958.5C 4265.43,960.492 4264.26,961.992 4262.5,963C 4248.17,963.5 4233.84,963.667 4219.5,963.5C 4219.5,978.167 4219.5,992.833 4219.5,1007.5C 4235.84,1007.33 4252.17,1007.5 4268.5,1008C 4269.42,1008.37 4270.25,1008.87 4271,1009.5C 4271.5,1013.15 4271.67,1016.82 4271.5,1020.5 Z"/></g>
<g><path style="opacity:0.951" fill="#000000" d="M 4768.5,1020.5 C 4762.83,1020.5 4757.17,1020.5 4751.5,1020.5C 4750.34,979.238 4750.17,937.904 4751,896.5C 4751.5,894.667 4752.67,893.5 4754.5,893C 4775.53,892.112 4796.53,892.445 4817.5,894C 4820.8,896.295 4823.8,898.962 4826.5,902C 4823.47,904.516 4820.13,906.516 4816.5,908C 4805.01,909.602 4793.51,909.769 4782,908.5C 4773.43,906.596 4769.1,909.929 4769,918.5C 4768.07,925.94 4768.41,933.274 4770,940.5C 4772.73,943.712 4776.23,945.212 4780.5,945C 4791.83,945.333 4803.17,945.667 4814.5,946C 4817.64,947.886 4820.31,950.22 4822.5,953C 4820.57,957.268 4817.57,960.601 4813.5,963C 4800.17,963.333 4786.83,963.667 4773.5,964C 4772.33,965.167 4771.17,966.333 4770,967.5C 4769.82,985.24 4769.32,1002.91 4768.5,1020.5 Z"/></g>
</svg>
