<?xml version="1.0" encoding="utf-8"?>
<!-- Generator: Adobe Illustrator 26.0.2, SVG Export Plug-In . SVG Version: 6.00 Build 0)  -->
<svg version="1.1" id="Layer_1" xmlns="http://www.w3.org/2000/svg" xmlns:xlink="http://www.w3.org/1999/xlink" x="0px" y="0px"
	 viewBox="0 0 641 172" style="enable-background:new 0 0 641 172;" xml:space="preserve">
<style type="text/css">
	.st0{fill:none;stroke:#000000;stroke-width:0.5;stroke-miterlimit:10;}
	.st1{fill:none;stroke:#7C287D;stroke-width:1.5;stroke-miterlimit:10;}
	.st2{fill:none;stroke:#67BF75;stroke-miterlimit:10;}
</style>
<g id="XMLID_269_">
	<line id="XMLID_274_" class="st0" x1="0" y1="40.5" x2="641" y2="40.5"/>
	<line id="XMLID_273_" class="st0" x1="-0.2" y1="20.3" x2="640.8" y2="20.3"/>
	<line id="XMLID_272_" class="st0" x1="0" y1="60.8" x2="641" y2="60.8"/>
	<line id="XMLID_271_" class="st0" x1="0" y1="81.2" x2="641" y2="81.2"/>
	<line id="XMLID_270_" class="st0" x1="0" y1="101.5" x2="641" y2="101.5"/>
</g>
<line id="XMLID_268_" class="st0" x1="145" y1="142.8" x2="145" y2="81"/>
<line id="XMLID_265_" class="st0" x1="113.1" y1="153" x2="113.1" y2="91.1"/>
<line id="XMLID_262_" class="st0" x1="177" y1="132.5" x2="177" y2="70.6"/>
<line id="XMLID_259_" class="st0" x1="208.9" y1="122.3" x2="208.9" y2="60.5"/>
<line id="XMLID_254_" class="st0" x1="240.8" y1="111.9" x2="240.8" y2="50"/>
<line id="XMLID_251_" class="st0" x1="272.8" y1="102" x2="272.8" y2="40.1"/>
<line id="XMLID_248_" class="st0" x1="304.7" y1="92" x2="304.7" y2="30.1"/>
<line id="XMLID_245_" class="st0" x1="336.6" y1="81.7" x2="336.6" y2="19.9"/>
<line id="XMLID_242_" class="st0" x1="413.8" y1="93.5" x2="413.8" y2="31.6"/>
<line id="XMLID_239_" class="st0" x1="381.9" y1="81.7" x2="381.9" y2="19.8"/>
<line id="XMLID_236_" class="st0" x1="445.8" y1="102.4" x2="445.8" y2="40.6"/>
<line id="XMLID_233_" class="st0" x1="477.7" y1="112.7" x2="477.7" y2="50.9"/>
<line id="XMLID_230_" class="st0" x1="509.6" y1="122.3" x2="509.6" y2="60.5"/>
<line id="XMLID_227_" class="st0" x1="541.5" y1="133.3" x2="541.5" y2="71.5"/>
<line id="XMLID_224_" class="st0" x1="573.5" y1="142.7" x2="573.5" y2="80.8"/>
<line id="XMLID_221_" class="st0" x1="605.4" y1="153.8" x2="605.4" y2="92"/>
<circle id="XMLID_267_" class="st1" cx="155" cy="81" r="10.2"/>
<circle id="XMLID_264_" class="st1" cx="123" cy="91.1" r="10.2"/>
<circle id="XMLID_261_" class="st1" cx="186.9" cy="70.6" r="10.2"/>
<circle id="XMLID_258_" class="st1" cx="218.8" cy="60.5" r="10.2"/>
<circle id="XMLID_253_" class="st1" cx="250.7" cy="50" r="10.2"/>
<circle id="XMLID_250_" class="st1" cx="282.7" cy="40.1" r="10.2"/>
<circle id="XMLID_247_" class="st1" cx="314.6" cy="30.1" r="10.2"/>
<circle id="XMLID_244_" class="st1" cx="346.5" cy="19.9" r="10.2"/>
<circle id="XMLID_241_" class="st1" cx="423.7" cy="31.6" r="10.2"/>
<circle id="XMLID_238_" class="st1" cx="391.8" cy="19.8" r="10.2"/>
<circle id="XMLID_235_" class="st1" cx="455.7" cy="40.6" r="10.2"/>
<circle id="XMLID_232_" class="st1" cx="487.6" cy="50.9" r="10.2"/>
<circle id="XMLID_229_" class="st1" cx="519.5" cy="60.5" r="10.2"/>
<circle id="XMLID_226_" class="st1" cx="551.5" cy="71.5" r="10.2"/>
<circle id="XMLID_223_" class="st1" cx="583.4" cy="80.8" r="10.2"/>
<circle id="XMLID_220_" class="st1" cx="615.3" cy="92" r="10.2"/>
<g id="XMLID_2802_">
	<path id="XMLID_2803_" d="M120.5,86.1h5.4v1.1h-4.1v3.4h3.8v1.1h-3.8v4.6h-1.3V86.1z"/>
</g>
<g id="XMLID_2799_">
	<path id="XMLID_2800_" d="M612.8,87.2h5.4v1.1h-4.1v3.4h3.8v1.1h-3.8v4.6h-1.3V87.2z"/>
</g>
<g id="XMLID_2796_">
	<path id="XMLID_2797_" d="M159.1,85.3c-0.6,0.2-1.8,0.6-3.1,0.6c-1.5,0-2.8-0.4-3.8-1.3c-0.9-0.8-1.4-2.2-1.4-3.8
		c0-3,2.1-5.2,5.5-5.2c1.2,0,2.1,0.3,2.5,0.5l-0.3,1.1c-0.5-0.3-1.2-0.4-2.2-0.4c-2.5,0-4.1,1.5-4.1,4.1c0,2.6,1.5,4.1,3.9,4.1
		c0.9,0,1.4-0.1,1.7-0.3v-3h-2v-1h3.3V85.3z"/>
</g>
<g id="XMLID_2793_">
	<path id="XMLID_2794_" d="M587.9,85.8c-0.6,0.2-1.8,0.6-3.1,0.6c-1.5,0-2.8-0.4-3.8-1.3c-0.9-0.8-1.4-2.2-1.4-3.8
		c0-3,2.1-5.2,5.5-5.2c1.2,0,2.1,0.3,2.5,0.5l-0.3,1.1c-0.5-0.3-1.2-0.4-2.2-0.4c-2.5,0-4.1,1.5-4.1,4.1c0,2.6,1.5,4.1,3.9,4.1
		c0.9,0,1.4-0.1,1.7-0.3v-3h-2v-1h3.3V85.8z"/>
</g>
<g id="XMLID_2789_">
	<path id="XMLID_2790_" d="M185.9,72.3l-1,3.2h-1.4l3.4-10.1h1.6l3.4,10.1h-1.4l-1.1-3.2H185.9z M189.2,71.3l-1-2.9
		c-0.2-0.7-0.4-1.3-0.5-1.8h0c-0.1,0.6-0.3,1.2-0.5,1.8l-1,2.9H189.2z"/>
</g>
<g id="XMLID_2785_">
	<path id="XMLID_2786_" d="M549.7,73.1l-1,3.2h-1.4l3.5-10.1h1.6l3.5,10.1h-1.4l-1.1-3.2H549.7z M553,72.1l-1-2.9
		c-0.2-0.7-0.4-1.3-0.5-1.8h0c-0.1,0.6-0.3,1.2-0.5,1.8l-1,2.9H553z"/>
</g>
<g id="XMLID_2780_">
	<path id="XMLID_2781_" d="M214.4,55.2c0.6-0.1,1.5-0.2,2.4-0.2c1.3,0,2.1,0.2,2.8,0.7c0.5,0.4,0.9,1,0.9,1.8c0,1-0.7,1.8-1.7,2.2v0
		c1,0.2,2.1,1,2.1,2.5c0,0.9-0.3,1.5-0.9,2c-0.7,0.6-1.8,0.9-3.5,0.9c-0.9,0-1.6-0.1-2-0.1V55.2z M215.7,59.3h1.2
		c1.4,0,2.2-0.7,2.2-1.7c0-1.2-0.9-1.7-2.2-1.7c-0.6,0-0.9,0-1.2,0.1V59.3z M215.7,64.1c0.3,0,0.6,0.1,1.1,0.1c1.3,0,2.6-0.5,2.6-2
		c0-1.4-1.2-2-2.6-2h-1.1V64.1z"/>
</g>
<g id="XMLID_2775_">
	<path id="XMLID_2776_" d="M514.8,55.2c0.6-0.1,1.5-0.2,2.4-0.2c1.3,0,2.1,0.2,2.8,0.7c0.5,0.4,0.9,1,0.9,1.8c0,1-0.7,1.8-1.7,2.2v0
		c1,0.2,2.1,1,2.1,2.5c0,0.9-0.3,1.5-0.9,2c-0.7,0.6-1.8,0.9-3.5,0.9c-0.9,0-1.6-0.1-2-0.1V55.2z M516.1,59.3h1.2
		c1.4,0,2.2-0.7,2.2-1.7c0-1.2-0.9-1.7-2.2-1.7c-0.6,0-0.9,0-1.2,0.1V59.3z M516.1,64.1c0.3,0,0.6,0.1,1.1,0.1c1.3,0,2.6-0.5,2.6-2
		c0-1.4-1.2-2-2.6-2h-1.1V64.1z"/>
</g>
<g id="XMLID_2772_">
	<path id="XMLID_2773_" d="M254,54.8c-0.5,0.2-1.4,0.5-2.7,0.5c-2.8,0-5-1.8-5-5.1c0-3.2,2.1-5.3,5.3-5.3c1.2,0,2.1,0.3,2.4,0.5
		l-0.3,1.1c-0.5-0.2-1.2-0.4-2-0.4c-2.4,0-3.9,1.5-3.9,4.2c0,2.5,1.4,4.1,3.9,4.1c0.8,0,1.6-0.2,2.1-0.4L254,54.8z"/>
</g>
<g id="XMLID_2769_">
	<path id="XMLID_2770_" d="M491,55.4c-0.5,0.2-1.4,0.5-2.7,0.5c-2.8,0-5-1.8-5-5.1c0-3.2,2.1-5.3,5.3-5.3c1.2,0,2.1,0.3,2.4,0.4
		l-0.3,1.1c-0.5-0.2-1.2-0.4-2-0.4c-2.4,0-3.9,1.5-3.9,4.2c0,2.5,1.4,4.1,3.9,4.1c0.8,0,1.6-0.2,2.1-0.4L491,55.4z"/>
</g>
<g id="XMLID_2765_">
	<path id="XMLID_2766_" d="M279.3,35.3c0.8-0.1,1.7-0.2,2.8-0.2c1.9,0,3.2,0.5,4.1,1.3c0.9,0.8,1.4,2,1.4,3.6c0,1.7-0.5,3-1.5,3.9
		c-1,0.9-2.5,1.5-4.5,1.5c-0.9,0-1.7,0-2.4-0.1V35.3z M280.6,44.2c0.3,0,0.8,0.1,1.3,0.1c2.8,0,4.3-1.6,4.3-4.3
		c0-2.4-1.3-3.9-4.1-3.9c-0.7,0-1.2,0.1-1.5,0.1V44.2z"/>
</g>
<g id="XMLID_2761_">
	<path id="XMLID_2762_" d="M452.2,35.3c0.8-0.1,1.7-0.2,2.8-0.2c1.9,0,3.2,0.5,4.1,1.3c0.9,0.8,1.4,2,1.4,3.6c0,1.6-0.5,3-1.5,3.9
		c-1,0.9-2.5,1.5-4.5,1.5c-0.9,0-1.7,0-2.4-0.1V35.3z M453.5,44.2c0.3,0,0.8,0.1,1.3,0.1c2.8,0,4.3-1.6,4.3-4.3
		c0-2.4-1.3-3.9-4.1-3.9c-0.7,0-1.2,0.1-1.5,0.1V44.2z"/>
</g>
<g id="XMLID_2758_">
	<path id="XMLID_2759_" d="M317.2,30.4h-3.9V34h4.4v1.1h-5.7V25h5.5v1.1h-4.2v3.2h3.9V30.4z"/>
</g>
<g id="XMLID_2755_">
	<path id="XMLID_2756_" d="M426.3,32.5h-3.9v3.6h4.4v1.1h-5.7V27.1h5.5v1.1h-4.2v3.2h3.9V32.5z"/>
</g>
<g id="XMLID_2752_">
	<path id="XMLID_2753_" d="M343.9,15.2h5.4v1.1h-4.1v3.4h3.8v1.1h-3.8v4.6h-1.3V15.2z"/>
</g>
<g id="XMLID_2749_">
	<path id="XMLID_2750_" d="M389.4,15.1h5.4v1.1h-4.1v3.4h3.8v1.1h-3.8v4.6h-1.3V15.1z"/>
</g>
<g id="XMLID_60_">
	<path id="XMLID_77_" d="M47.5,101.3c-2.1,0.7-4.3,1-6.5,1.1c-5.8,0.1-11.2-1.5-15.8-5c-4.9-3.7-7.5-8.7-8.7-14.6
		c-1.1-5.7,0-11.1,2.4-16.3c2.1-4.5,5-8.5,8.2-12.2c0.7-0.8,1.4-1.5,2.1-2.3c0.3-0.3,0.3-0.5,0.2-0.9c-0.8-2.8-1.8-5.5-2.4-8.3
		c-1.3-5.6-1.5-11.3,0.3-16.9c2.1-6.4,6-11.2,12.5-13.5c0.8-0.3,1.6-0.5,2.4-0.6c1.7-0.1,3.2,0.6,4.5,1.6c2.7,2.1,4,5,4.2,8.3
		c0.3,5.1-1.4,9.7-3.8,14.2c-2.3,4.3-5.4,8.2-8.6,11.9c-1.1,1.3-2.1,2.5-3.2,3.7c-0.3,0.4-0.1,0.6,0,0.9c2,3.9,3.9,7.8,5.9,11.6
		c1-0.2,2-0.5,3.1-0.7c3.1-0.6,6.1,0,8.9,1.4c5.5,2.9,8.8,7.5,9.8,13.7c0.8,5-0.6,9.6-3.4,13.7c-1.8,2.7-4.1,4.9-6.8,6.6
		c-0.4,0.3-0.5,0.5-0.4,1c0.5,3.1,1.1,6.1,1.6,9.2c0.5,3.4,0.7,6.8-0.4,10.1c-1.4,4.5-4.6,7.1-9,8.3c-5.7,1.5-10.9,0.3-15.5-3.2
		c-3.9-2.9-6.5-6.6-7.6-11.4c-0.1-0.6-0.2-1.3-0.3-1.9c0-0.3,0-0.6,0-0.9c1.3,6.7,5,11.5,11.1,14.3c4.3,2,8.7,2.1,13-0.1
		c3.3-1.7,5-4.5,5.1-8.2c0.1-3.3-0.8-6.4-1.5-9.6c-0.4-1.5-0.8-2.9-1.2-4.4C47.7,101.7,47.6,101.5,47.5,101.3z M46,96
		c-2.5-9.1-6.5-17.6-9.3-26.6c-2.5,2.7-3.5,5.7-2.7,9.1c1,4.3,3.6,7.2,7.9,8.4c-0.3,0-0.5,0-0.8-0.1c-4.8-1.1-8.4-5.9-8.5-10.9
		c0-2.9,1-5.4,2.9-7.5c0.4-0.4,0.4-0.7,0.2-1.2c-0.6-1.6-1.2-3.1-1.9-4.7c-0.8-2-1.6-3.9-2.5-6c-0.8,1.1-1.6,2.1-2.3,3.1
		c-2.4,3.4-4.5,7.1-5.8,11.1c-1,3.3-1.3,6.6-0.7,10c0.8,4,2.9,7.4,5.7,10.3C33.2,95.8,39.2,97.2,46,96z M33.3,47.8
		c1.5-1.5,2.9-3,4.2-4.4c2.7-2.9,5.3-5.9,7.4-9.3c2.2-3.6,3.9-7.3,4.1-11.6c0.1-3.2-0.8-6-3.3-8.1c-1.4-1.2-2.9-1.8-4.9-1
		c-4.2,1.8-7.2,4.7-9.2,8.8c-2,4.2-2.4,8.6-1.9,13.1C30.2,39.6,31.5,43.7,33.3,47.8z M51.3,93.7c2.7-1.8,4.7-3.9,6.2-6.6
		c1.5-2.8,2.2-5.7,1.8-8.9c-0.4-3.3-1.9-6.2-4.2-8.6c-2.8-2.9-6.1-4.4-10.2-4.1c-0.9,0.1-1.7,0.3-2.8,0.5
		C46.8,74.8,49,84.2,51.3,93.7z"/>
</g>
<path id="XMLID_1086_" d="M221.7,54c0,2.3,0,4.5,0,6.9c0.7-0.1,1.2-0.3,1.8-0.3c1.3-0.2,1.8,0.4,1.4,1.6c-0.5,1.6-1.7,2.5-3.6,2.7
	c0-3.7,0-7.3,0-11C221.5,54,221.6,54,221.7,54z M221.7,64.2c0.1,0.1,0.2,0.1,0.4,0.2c0.6-0.6,1.2-1.1,1.6-1.7c0.2-0.2,0-0.7,0-1.1
	c-0.5,0-1,0-1.5,0.1c-0.2,0.1-0.5,0.4-0.5,0.6C221.7,62.9,221.7,63.6,221.7,64.2z"/>
<path id="XMLID_366_" d="M66.7,37.4c0,7.3,0,14.5,0,22.2c2.2-0.4,3.9-0.8,5.7-1.1c4.1-0.7,5.9,1.4,4.6,5.2c-1.6,5-5.6,8.1-11.5,8.8
	c0-11.7,0-23.4,0-35.2C65.8,37.4,66.2,37.4,66.7,37.4z M66.6,70.2c0.4,0.2,0.8,0.4,1.1,0.6c1.8-1.8,3.8-3.5,5.3-5.6
	c0.6-0.8,0-2.4,0-3.6c-1.6,0.1-3.2,0-4.7,0.4c-0.7,0.2-1.5,1.2-1.6,1.9C66.5,66,66.6,68.1,66.6,70.2z"/>
<path id="XMLID_255_" d="M522.7,54c0,2.3,0,4.5,0,6.9c0.7-0.1,1.2-0.3,1.8-0.3c1.3-0.2,1.8,0.4,1.4,1.6c-0.5,1.6-1.7,2.5-3.6,2.7
	c0-3.7,0-7.3,0-11C522.5,54,522.6,54,522.7,54z M522.7,64.2c0.1,0.1,0.2,0.1,0.4,0.2c0.6-0.6,1.2-1.1,1.6-1.7c0.2-0.2,0-0.7,0-1.1
	c-0.5,0-1,0-1.5,0.1c-0.2,0.1-0.5,0.4-0.5,0.6C522.7,62.9,522.7,63.6,522.7,64.2z"/>
</svg>
