<?xml version="1.0" encoding="utf-8"?>
<!-- Generator: Adobe Illustrator 25.0.0, SVG Export Plug-In . SVG Version: 6.00 Build 0)  -->
<svg version="1.1" id="Layer_1" xmlns="http://www.w3.org/2000/svg" xmlns:xlink="http://www.w3.org/1999/xlink" x="0px" y="0px"
	 viewBox="0 0 641 172" style="enable-background:new 0 0 641 172;" xml:space="preserve">
<style type="text/css">
	.st0{fill:none;stroke:#000000;stroke-width:0.5;stroke-miterlimit:10;}
	.st1{fill:none;stroke:#7C287D;stroke-width:1.5;stroke-miterlimit:10;}
	.st2{fill:none;stroke:#67BF75;stroke-miterlimit:10;}
</style>
<g id="XMLID_1836_">
	<line id="XMLID_1841_" class="st0" x1="0" y1="40.5" x2="641" y2="40.5"/>
	<line id="XMLID_1840_" class="st0" x1="-0.2" y1="20.3" x2="640.8" y2="20.3"/>
	<line id="XMLID_1839_" class="st0" x1="0" y1="60.8" x2="641" y2="60.8"/>
	<line id="XMLID_1838_" class="st0" x1="0" y1="81.2" x2="641" y2="81.2"/>
	<line id="XMLID_1837_" class="st0" x1="0" y1="101.5" x2="641" y2="101.5"/>
</g>
<circle id="XMLID_1815_" class="st1" cx="155" cy="81" r="10.2"/>
<circle id="XMLID_1689_" class="st1" cx="123" cy="91.1" r="10.2"/>
<circle id="XMLID_1332_" class="st1" cx="186.9" cy="70.6" r="10.2"/>
<circle id="XMLID_1329_" class="st1" cx="218.8" cy="60.5" r="10.2"/>
<circle id="XMLID_1326_" class="st1" cx="250.7" cy="50" r="10.2"/>
<circle id="XMLID_1323_" class="st1" cx="282.7" cy="40.1" r="10.2"/>
<circle id="XMLID_1320_" class="st1" cx="314.6" cy="30.1" r="10.2"/>
<circle id="XMLID_1317_" class="st1" cx="346.5" cy="19.9" r="10.2"/>
<circle id="XMLID_1314_" class="st1" cx="423.7" cy="31.6" r="10.2"/>
<circle id="XMLID_1311_" class="st1" cx="391.8" cy="19.8" r="10.2"/>
<circle id="XMLID_1308_" class="st1" cx="455.7" cy="40.6" r="10.2"/>
<circle id="XMLID_1305_" class="st1" cx="487.6" cy="50.9" r="10.2"/>
<circle id="XMLID_1302_" class="st1" cx="519.5" cy="60.5" r="10.2"/>
<circle id="XMLID_1299_" class="st1" cx="551.5" cy="71.5" r="10.2"/>
<circle id="XMLID_1296_" class="st1" cx="583.4" cy="80.8" r="10.2"/>
<circle id="XMLID_1293_" class="st1" cx="615.3" cy="92" r="10.2"/>
<g id="XMLID_2690_">
	<path id="XMLID_2691_" d="M118.1,86.1h5.4v1.1h-4.1v3.4h3.8v1.1h-3.8v4.6h-1.3V86.1z"/>
</g>
<g id="XMLID_2687_">
	<path id="XMLID_2688_" d="M610.7,87.2h5.4v1.1H612v3.4h3.8v1.1H612v4.6h-1.3V87.2z"/>
</g>
<g id="XMLID_2684_">
	<path id="XMLID_2685_" d="M155.7,85.5c-0.6,0.2-1.8,0.6-3.1,0.6c-1.5,0-2.8-0.4-3.8-1.3c-0.9-0.8-1.4-2.2-1.4-3.8
		c0-3,2.1-5.2,5.5-5.2c1.2,0,2.1,0.3,2.5,0.5l-0.3,1.1c-0.5-0.3-1.2-0.4-2.2-0.4c-2.5,0-4.1,1.5-4.1,4.1c0,2.6,1.5,4.1,3.9,4.1
		c0.9,0,1.4-0.1,1.7-0.3v-3h-2v-1h3.3V85.5z"/>
</g>
<g id="XMLID_2681_">
	<path id="XMLID_2682_" d="M584.8,85.8c-0.6,0.2-1.8,0.6-3.1,0.6c-1.5,0-2.8-0.4-3.8-1.3c-0.9-0.8-1.4-2.2-1.4-3.8
		c0-3,2.1-5.2,5.5-5.2c1.2,0,2.1,0.3,2.5,0.5l-0.3,1.1c-0.5-0.3-1.2-0.4-2.2-0.4c-2.5,0-4.1,1.5-4.1,4.1c0,2.6,1.5,4.1,3.9,4.1
		c0.9,0,1.4-0.1,1.7-0.3v-3h-2v-1h3.3V85.8z"/>
</g>
<g id="XMLID_2677_">
	<path id="XMLID_2678_" d="M182.1,72.3l-1,3.2h-1.3l3.4-10.1h1.6l3.4,10.1h-1.4l-1.1-3.2H182.1z M185.4,71.3l-1-2.9
		c-0.2-0.7-0.4-1.3-0.5-1.8h0c-0.2,0.6-0.3,1.2-0.5,1.8l-1,2.9H185.4z"/>
</g>
<g id="XMLID_2673_">
	<path id="XMLID_2674_" d="M547.3,73.1l-1,3.2h-1.4l3.5-10.1h1.6l3.5,10.1h-1.4l-1.1-3.2H547.3z M550.6,72.1l-1-2.9
		c-0.2-0.7-0.4-1.3-0.5-1.8h0c-0.1,0.6-0.3,1.2-0.5,1.8l-1,2.9H550.6z"/>
</g>
<g id="XMLID_2668_">
	<path id="XMLID_2669_" d="M216.5,55.2c0.6-0.1,1.5-0.2,2.4-0.2c1.3,0,2.1,0.2,2.8,0.7c0.5,0.4,0.9,1,0.9,1.8c0,1-0.7,1.8-1.7,2.2v0
		c1,0.2,2.1,1,2.1,2.5c0,0.9-0.3,1.5-0.9,2c-0.7,0.6-1.8,0.9-3.5,0.9c-0.9,0-1.6-0.1-2-0.1V55.2z M217.8,59.3h1.2
		c1.4,0,2.2-0.7,2.2-1.7c0-1.2-0.9-1.6-2.2-1.6c-0.6,0-0.9,0-1.2,0.1V59.3z M217.8,64.1c0.3,0,0.6,0.1,1.1,0.1c1.3,0,2.6-0.5,2.6-2
		c0-1.4-1.2-1.9-2.6-1.9h-1.1V64.1z"/>
</g>
<g id="XMLID_2663_">
	<path id="XMLID_2664_" d="M517.1,55.2c0.6-0.1,1.5-0.2,2.4-0.2c1.3,0,2.1,0.2,2.8,0.7c0.5,0.4,0.9,1,0.9,1.8c0,1-0.7,1.8-1.7,2.2v0
		c1,0.2,2.1,1,2.1,2.5c0,0.9-0.3,1.5-0.9,2c-0.7,0.6-1.8,0.9-3.5,0.9c-0.9,0-1.6-0.1-2-0.1V55.2z M518.4,59.3h1.2
		c1.4,0,2.2-0.7,2.2-1.7c0-1.2-0.9-1.6-2.2-1.6c-0.6,0-0.9,0-1.2,0.1V59.3z M518.4,64.1c0.3,0,0.6,0.1,1.1,0.1c1.3,0,2.6-0.5,2.6-2
		c0-1.4-1.2-1.9-2.6-1.9h-1.1V64.1z"/>
</g>
<g id="XMLID_2660_">
	<path id="XMLID_2661_" d="M252,54.8c-0.5,0.2-1.4,0.5-2.7,0.5c-2.8,0-5-1.8-5-5.1c0-3.2,2.1-5.3,5.3-5.3c1.2,0,2.1,0.3,2.4,0.4
		l-0.3,1.1c-0.5-0.2-1.2-0.4-2-0.4c-2.4,0-3.9,1.5-3.9,4.2c0,2.5,1.4,4.1,3.9,4.1c0.8,0,1.6-0.2,2.1-0.4L252,54.8z"/>
</g>
<g id="XMLID_2657_">
	<path id="XMLID_2658_" d="M489.1,55.4c-0.5,0.2-1.4,0.5-2.7,0.5c-2.8,0-5-1.8-5-5.1c0-3.2,2.1-5.3,5.3-5.3c1.2,0,2.1,0.3,2.4,0.5
		l-0.3,1.1c-0.5-0.2-1.2-0.4-2-0.4c-2.4,0-3.9,1.5-3.9,4.2c0,2.5,1.4,4.1,3.9,4.1c0.8,0,1.6-0.2,2.1-0.4L489.1,55.4z"/>
</g>
<g id="XMLID_2653_">
	<path id="XMLID_2654_" d="M276.2,36c0.8-0.1,1.7-0.2,2.8-0.2c1.9,0,3.2,0.5,4.1,1.3c0.9,0.8,1.4,2,1.4,3.6c0,1.6-0.5,3-1.5,3.9
		c-1,0.9-2.5,1.5-4.5,1.5c-0.9,0-1.7,0-2.4-0.1V36z M277.5,44.9c0.3,0,0.8,0.1,1.3,0.1c2.8,0,4.3-1.6,4.3-4.3c0-2.4-1.3-3.9-4.1-3.9
		c-0.7,0-1.2,0.1-1.5,0.1V44.9z"/>
</g>
<g id="XMLID_2649_">
	<path id="XMLID_2650_" d="M448.9,35.7c0.8-0.1,1.7-0.2,2.8-0.2c1.9,0,3.2,0.5,4.1,1.3c0.9,0.8,1.4,2,1.4,3.6c0,1.7-0.5,3-1.5,3.9
		c-1,0.9-2.5,1.5-4.5,1.5c-0.9,0-1.7,0-2.4-0.1V35.7z M450.2,44.6c0.3,0,0.8,0.1,1.3,0.1c2.8,0,4.3-1.6,4.3-4.3
		c0-2.4-1.3-3.9-4.1-3.9c-0.7,0-1.2,0.1-1.5,0.1V44.6z"/>
</g>
<g id="XMLID_2646_">
	<path id="XMLID_2647_" d="M314.8,30.4h-3.9V34h4.4v1.1h-5.7V25h5.5v1.1h-4.2v3.2h3.9V30.4z"/>
</g>
<g id="XMLID_2643_">
	<path id="XMLID_2644_" d="M424,32.5h-3.9v3.6h4.4v1.1h-5.7V27.1h5.5v1.1h-4.2v3.2h3.9V32.5z"/>
</g>
<g id="XMLID_2640_">
	<path id="XMLID_2641_" d="M341.2,15.2h5.4v1.1h-4.1v3.4h3.8v1.1h-3.8v4.6h-1.3V15.2z"/>
</g>
<g id="XMLID_2637_">
	<path id="XMLID_2638_" d="M387,15.1h5.4v1.1h-4.1v3.4h3.8v1.1h-3.8v4.6H387V15.1z"/>
</g>
<g id="XMLID_1169_">
	<path id="XMLID_1177_" d="M47.5,101.3c-2.1,0.7-4.3,1-6.5,1.1c-5.8,0.1-11.2-1.5-15.8-5c-4.9-3.7-7.5-8.7-8.7-14.6
		c-1.1-5.7,0-11.1,2.4-16.3c2.1-4.5,5-8.5,8.2-12.2c0.7-0.8,1.4-1.5,2.1-2.3c0.3-0.3,0.3-0.5,0.2-0.9c-0.8-2.8-1.8-5.5-2.4-8.3
		c-1.3-5.6-1.5-11.3,0.3-16.9c2.1-6.4,6-11.2,12.5-13.5c0.8-0.3,1.6-0.5,2.4-0.6c1.7-0.1,3.2,0.6,4.5,1.6c2.7,2.1,4,5,4.2,8.3
		c0.3,5.1-1.4,9.7-3.8,14.2c-2.3,4.3-5.4,8.2-8.6,11.9c-1.1,1.3-2.1,2.5-3.2,3.7c-0.3,0.4-0.1,0.6,0,0.9c2,3.9,3.9,7.8,5.9,11.6
		c1-0.2,2-0.5,3.1-0.7c3.1-0.6,6.1,0,8.9,1.4c5.5,2.9,8.8,7.5,9.8,13.7c0.8,5-0.6,9.6-3.4,13.7c-1.8,2.7-4.1,4.9-6.8,6.6
		c-0.4,0.3-0.5,0.5-0.4,1c0.5,3.1,1.1,6.1,1.6,9.2c0.5,3.4,0.7,6.8-0.4,10.1c-1.4,4.5-4.6,7.1-9,8.3c-5.7,1.5-10.9,0.3-15.5-3.2
		c-3.9-2.9-6.5-6.6-7.6-11.4c-0.1-0.6-0.2-1.3-0.3-1.9c0-0.3,0-0.6,0-0.9c1.3,6.7,5,11.5,11.1,14.3c4.3,2,8.7,2.1,13-0.1
		c3.3-1.7,5-4.5,5.1-8.2c0.1-3.3-0.8-6.4-1.5-9.6c-0.4-1.5-0.8-2.9-1.2-4.4C47.7,101.7,47.6,101.5,47.5,101.3z M46,96
		c-2.5-9.1-6.5-17.6-9.3-26.6c-2.5,2.7-3.5,5.7-2.7,9.1c1,4.3,3.6,7.2,7.9,8.4c-0.3,0-0.5,0-0.8-0.1c-4.8-1.1-8.4-5.9-8.5-10.9
		c0-2.9,1-5.4,2.9-7.5c0.4-0.4,0.4-0.7,0.2-1.2c-0.6-1.6-1.2-3.1-1.9-4.7c-0.8-2-1.6-3.9-2.5-6c-0.8,1.1-1.6,2.1-2.3,3.1
		c-2.4,3.4-4.5,7.1-5.8,11.1c-1,3.3-1.3,6.6-0.7,10c0.8,4,2.9,7.4,5.7,10.3C33.2,95.8,39.2,97.2,46,96z M33.3,47.8
		c1.5-1.5,2.9-3,4.2-4.4c2.7-2.9,5.3-5.9,7.4-9.3c2.2-3.6,3.9-7.3,4.1-11.6c0.1-3.2-0.8-6-3.3-8.1c-1.4-1.2-2.9-1.8-4.9-1
		c-4.2,1.8-7.2,4.7-9.2,8.8c-2,4.2-2.4,8.6-1.9,13.1C30.2,39.6,31.5,43.7,33.3,47.8z M51.3,93.7c2.7-1.8,4.7-3.9,6.2-6.6
		c1.5-2.8,2.2-5.7,1.8-8.9c-0.4-3.3-1.9-6.2-4.2-8.6c-2.8-2.9-6.1-4.4-10.2-4.1c-0.9,0.1-1.7,0.3-2.8,0.5
		C46.8,74.8,49,84.2,51.3,93.7z"/>
</g>
<g id="XMLID_1190_">
	<path id="XMLID_1197_" d="M79,40.4c-0.4,0.1-0.7,0.1-1.2,0.2c0-1.9,0-3.8,0-5.8c-1.4,0.4-2.7,0.8-4,1.1c0-1.1,0-2.2,0-3.3
		c0-0.1,0.2-0.3,0.3-0.3c1.1-0.3,2.1-0.6,3.2-0.9c0.1,0,0.3-0.1,0.5-0.1c0-1.8,0-3.6,0-5.4c-1.3,0.4-2.6,0.7-4,1.1
		c0-1.2,0-2.3,0-3.5c0.5-0.2,1.1-0.3,1.6-0.5c0.7-0.2,1.3-0.4,2-0.6c0.3-0.1,0.4-0.2,0.4-0.5c0-1.6,0-3.1,0-4.7c0-0.2,0-0.4,0-0.6
		c0.4-0.1,0.8-0.1,1.2-0.2c0,1.8,0,3.6,0,5.5c0.7-0.2,1.3-0.4,1.8-0.5c0.7-0.2,1.4-0.4,2.1-0.6c0.3-0.1,0.4-0.2,0.4-0.5
		c0-1.6,0-3.2,0-4.8c0-0.4,0.1-0.7,0.6-0.6c0.2,0,0.4-0.1,0.6-0.1c0,1.9,0,3.7,0,5.6c1.4-0.4,2.6-0.7,4-1.1c0,1.2,0,2.3,0,3.4
		c0,0.1-0.2,0.2-0.4,0.3c-1.2,0.3-2.4,0.7-3.6,1c0,1.8,0,3.6,0,5.4c1.3-0.4,2.6-0.7,3.9-1.1c0,1.2,0,2.3,0,3.5
		c-1.1,0.3-2.3,0.7-3.4,1c-0.4,0.1-0.5,0.3-0.5,0.7c0,1.8,0,3.5,0,5.4c-0.4,0.1-0.8,0.1-1.2,0.2c0-1.9,0-3.8,0-5.7
		c-1,0.3-1.9,0.5-2.8,0.8c-0.2,0-0.3,0.1-0.5,0.1C79,34.5,79,34.5,79,35.7c0,1.4,0,2.8,0,4.3C79,40.1,79,40.3,79,40.4z M79,31
		c1.4-0.4,2.8-0.8,4.1-1.2c0.1,0,0.2-0.3,0.2-0.4c0-1.1,0-2.3,0-3.4c0-0.5,0-1.1,0-1.6c-1.4,0.4-2.7,0.8-4,1.1
		C79,25.5,79,25.7,79,25.9c0,1.4,0,2.8,0,4.2C79,30.4,79,30.7,79,31z"/>
</g>
<g id="XMLID_1186_">
	<path id="XMLID_1187_" d="M91.7,62.9C91.4,63,91,63,90.6,63.1c0-1.9,0-3.8,0-5.8c-1.4,0.4-2.7,0.8-4,1.1c0-1.1,0-2.2,0-3.3
		c0-0.1,0.2-0.3,0.3-0.3c1.1-0.3,2.1-0.6,3.2-0.9c0.1,0,0.3-0.1,0.5-0.1c0-1.8,0-3.6,0-5.4c-1.3,0.4-2.6,0.7-4,1.1
		c0-1.2,0-2.3,0-3.5c0.5-0.2,1.1-0.3,1.6-0.5c0.7-0.2,1.3-0.4,2-0.6c0.3-0.1,0.4-0.2,0.4-0.5c0-1.6,0-3.1,0-4.7c0-0.2,0-0.4,0-0.6
		c0.4-0.1,0.8-0.1,1.2-0.2c0,1.8,0,3.6,0,5.5c0.7-0.2,1.3-0.4,1.8-0.5c0.7-0.2,1.4-0.4,2.1-0.6c0.3-0.1,0.4-0.2,0.4-0.5
		c0-1.6,0-3.2,0-4.8c0-0.4,0.1-0.7,0.6-0.6c0.2,0,0.4-0.1,0.6-0.1c0,1.9,0,3.7,0,5.6c1.4-0.4,2.6-0.7,4-1.1c0,1.2,0,2.3,0,3.4
		c0,0.1-0.2,0.2-0.4,0.3c-1.2,0.3-2.4,0.7-3.6,1c0,1.8,0,3.6,0,5.4c1.3-0.4,2.6-0.7,3.9-1.1c0,1.2,0,2.3,0,3.5
		c-1.1,0.3-2.3,0.7-3.4,1c-0.4,0.1-0.5,0.3-0.5,0.7c0,1.8,0,3.5,0,5.4c-0.4,0.1-0.8,0.1-1.2,0.2c0-1.9,0-3.8,0-5.7
		c-1,0.3-1.9,0.5-2.8,0.8c-0.2,0-0.3,0.1-0.5,0.1c-1.2,0.3-1.2,0.3-1.2,1.5c0,1.4,0,2.8,0,4.3C91.8,62.6,91.7,62.8,91.7,62.9z
		 M91.8,53.5c1.4-0.4,2.8-0.8,4.1-1.2c0.1,0,0.2-0.3,0.2-0.4c0-1.1,0-2.3,0-3.4c0-0.5,0-1.1,0-1.6c-1.4,0.4-2.7,0.8-4,1.1
		c-0.3,0.1-0.4,0.2-0.4,0.5c0,1.4,0,2.8,0,4.2C91.8,52.9,91.8,53.2,91.8,53.5z"/>
</g>
<g id="XMLID_1242_">
	<path id="XMLID_1243_" d="M110.7,54.9c-0.4,0.1-0.7,0.1-1.2,0.2c0-1.9,0-3.8,0-5.8c-1.4,0.4-2.7,0.8-4,1.1c0-1.1,0-2.2,0-3.3
		c0-0.1,0.2-0.3,0.3-0.3c1.1-0.3,2.1-0.6,3.2-0.9c0.1,0,0.3-0.1,0.5-0.1c0-1.8,0-3.6,0-5.4c-1.3,0.4-2.6,0.7-4,1.1
		c0-1.2,0-2.3,0-3.5c0.5-0.2,1.1-0.3,1.6-0.5c0.7-0.2,1.3-0.4,2-0.6c0.3-0.1,0.4-0.2,0.4-0.5c0-1.6,0-3.1,0-4.7c0-0.2,0-0.4,0-0.6
		c0.4-0.1,0.8-0.1,1.2-0.2c0,1.8,0,3.6,0,5.5c0.7-0.2,1.3-0.4,1.8-0.5c0.7-0.2,1.4-0.4,2.1-0.6c0.3-0.1,0.4-0.2,0.4-0.5
		c0-1.6,0-3.2,0-4.8c0-0.4,0.1-0.7,0.6-0.6c0.2,0,0.4-0.1,0.6-0.1c0,1.9,0,3.7,0,5.6c1.4-0.4,2.6-0.7,4-1.1c0,1.2,0,2.3,0,3.4
		c0,0.1-0.2,0.2-0.4,0.3c-1.2,0.3-2.4,0.7-3.6,1c0,1.8,0,3.6,0,5.4c1.3-0.4,2.6-0.7,3.9-1.1c0,1.2,0,2.3,0,3.5
		c-1.1,0.3-2.3,0.7-3.4,1c-0.4,0.1-0.5,0.3-0.5,0.7c0,1.8,0,3.5,0,5.4c-0.4,0.1-0.8,0.1-1.2,0.2c0-1.9,0-3.8,0-5.7
		c-1,0.3-1.9,0.5-2.8,0.8c-0.2,0-0.3,0.1-0.5,0.1c-1.2,0.3-1.2,0.3-1.2,1.5c0,1.4,0,2.8,0,4.3C110.8,54.6,110.7,54.8,110.7,54.9z
		 M110.8,45.5c1.4-0.4,2.8-0.8,4.1-1.2c0.1,0,0.2-0.3,0.2-0.4c0-1.1,0-2.3,0-3.4c0-0.5,0-1.1,0-1.6c-1.4,0.4-2.7,0.8-4,1.1
		c-0.3,0.1-0.4,0.2-0.4,0.5c0,1.4,0,2.8,0,4.2C110.8,44.9,110.8,45.2,110.8,45.5z"/>
</g>
<g id="XMLID_1183_">
	<path id="XMLID_1184_" d="M61,48.4c-0.4,0.1-0.7,0.1-1.2,0.2c0-1.9,0-3.8,0-5.8c-1.4,0.4-2.7,0.8-4,1.1c0-1.1,0-2.2,0-3.3
		c0-0.1,0.2-0.3,0.3-0.3c1.1-0.3,2.1-0.6,3.2-0.9c0.1,0,0.3-0.1,0.5-0.1c0-1.8,0-3.6,0-5.4c-1.3,0.4-2.6,0.7-4,1.1
		c0-1.2,0-2.3,0-3.5c0.5-0.2,1.1-0.3,1.6-0.5c0.7-0.2,1.3-0.4,2-0.6c0.3-0.1,0.4-0.2,0.4-0.5c0-1.6,0-3.1,0-4.7c0-0.2,0-0.4,0-0.6
		c0.4-0.1,0.8-0.1,1.2-0.2c0,1.8,0,3.6,0,5.5c0.7-0.2,1.3-0.4,1.8-0.5c0.7-0.2,1.4-0.4,2.1-0.6c0.3-0.1,0.4-0.2,0.4-0.5
		c0-1.6,0-3.2,0-4.8c0-0.4,0.1-0.7,0.6-0.6c0.2,0,0.4-0.1,0.6-0.1c0,1.9,0,3.7,0,5.6c1.4-0.4,2.6-0.7,4-1.1c0,1.2,0,2.3,0,3.4
		c0,0.1-0.2,0.2-0.4,0.3c-1.2,0.3-2.4,0.7-3.6,1c0,1.8,0,3.6,0,5.4c1.3-0.4,2.6-0.7,3.9-1.1c0,1.2,0,2.3,0,3.5
		c-1.1,0.3-2.3,0.7-3.4,1c-0.4,0.1-0.5,0.3-0.5,0.7c0,1.8,0,3.5,0,5.4c-0.4,0.1-0.8,0.1-1.2,0.2c0-1.9,0-3.8,0-5.7
		c-1,0.3-1.9,0.5-2.8,0.8c-0.2,0-0.3,0.1-0.5,0.1C61,42.5,61,42.5,61,43.7c0,1.4,0,2.8,0,4.3C61,48.1,61,48.3,61,48.4z M61,39
		c1.4-0.4,2.8-0.8,4.1-1.2c0.1,0,0.2-0.3,0.2-0.4c0-1.1,0-2.3,0-3.4c0-0.5,0-1.1,0-1.6c-1.4,0.4-2.7,0.8-4,1.1
		C61,33.5,61,33.7,61,33.9c0,1.4,0,2.8,0,4.2C61,38.4,61,38.7,61,39z"/>
</g>
<g id="XMLID_1072_">
	<path id="XMLID_1090_" d="M73.7,70.9C73.4,71,73,71,72.6,71.1c0-1.9,0-3.8,0-5.8c-1.4,0.4-2.7,0.8-4,1.1c0-1.1,0-2.2,0-3.3
		c0-0.1,0.2-0.3,0.3-0.3c1.1-0.3,2.1-0.6,3.2-0.9c0.1,0,0.3-0.1,0.5-0.1c0-1.8,0-3.6,0-5.4c-1.3,0.4-2.6,0.7-4,1.1
		c0-1.2,0-2.3,0-3.5c0.5-0.2,1.1-0.3,1.6-0.5c0.7-0.2,1.3-0.4,2-0.6c0.3-0.1,0.4-0.2,0.4-0.5c0-1.6,0-3.1,0-4.7c0-0.2,0-0.4,0-0.6
		c0.4-0.1,0.8-0.1,1.2-0.2c0,1.8,0,3.6,0,5.5c0.7-0.2,1.3-0.4,1.8-0.5c0.7-0.2,1.4-0.4,2.1-0.6c0.3-0.1,0.4-0.2,0.4-0.5
		c0-1.6,0-3.2,0-4.8c0-0.4,0.1-0.7,0.6-0.6c0.2,0,0.4-0.1,0.6-0.1c0,1.9,0,3.7,0,5.6c1.4-0.4,2.6-0.7,4-1.1c0,1.2,0,2.3,0,3.4
		c0,0.1-0.2,0.2-0.4,0.3c-1.2,0.3-2.4,0.7-3.6,1c0,1.8,0,3.6,0,5.4c1.3-0.4,2.6-0.7,3.9-1.1c0,1.2,0,2.3,0,3.5
		c-1.1,0.3-2.3,0.7-3.4,1c-0.4,0.1-0.5,0.3-0.5,0.7c0,1.8,0,3.5,0,5.4c-0.4,0.1-0.8,0.1-1.2,0.2c0-1.9,0-3.8,0-5.7
		c-1,0.3-1.9,0.5-2.8,0.8c-0.2,0-0.3,0.1-0.5,0.1c-1.2,0.3-1.2,0.3-1.2,1.5c0,1.4,0,2.8,0,4.3C73.8,70.6,73.7,70.8,73.7,70.9z
		 M73.8,61.5c1.4-0.4,2.8-0.8,4.1-1.2c0.1,0,0.2-0.3,0.2-0.4c0-1.1,0-2.3,0-3.4c0-0.5,0-1.1,0-1.6c-1.4,0.4-2.7,0.8-4,1.1
		c-0.3,0.1-0.4,0.2-0.4,0.5c0,1.4,0,2.8,0,4.2C73.8,60.9,73.8,61.2,73.8,61.5z"/>
</g>
<g id="XMLID_835_">
	<path id="XMLID_836_" d="M103.8,85.4c-0.4,0.1-0.7,0.1-1.2,0.2c0-1.9,0-3.8,0-5.8c-1.4,0.4-2.7,0.8-4,1.1c0-1.1,0-2.2,0-3.3
		c0-0.1,0.2-0.3,0.3-0.3c1.1-0.3,2.1-0.6,3.2-0.9c0.1,0,0.3-0.1,0.5-0.1c0-1.8,0-3.6,0-5.4c-1.3,0.4-2.6,0.7-4,1.1
		c0-1.2,0-2.3,0-3.5c0.5-0.2,1.1-0.3,1.6-0.5c0.7-0.2,1.3-0.4,2-0.6c0.3-0.1,0.4-0.2,0.4-0.5c0-1.6,0-3.1,0-4.7c0-0.2,0-0.4,0-0.6
		c0.4-0.1,0.8-0.1,1.2-0.2c0,1.8,0,3.6,0,5.5c0.7-0.2,1.3-0.4,1.8-0.5c0.7-0.2,1.4-0.4,2.1-0.6c0.3-0.1,0.4-0.2,0.4-0.5
		c0-1.6,0-3.2,0-4.8c0-0.4,0.1-0.7,0.6-0.6c0.2,0,0.4-0.1,0.6-0.1c0,1.9,0,3.7,0,5.6c1.4-0.4,2.6-0.7,4-1.1c0,1.2,0,2.3,0,3.4
		c0,0.1-0.2,0.2-0.4,0.3c-1.2,0.3-2.4,0.7-3.6,1c0,1.8,0,3.6,0,5.4c1.3-0.4,2.6-0.7,3.9-1.1c0,1.2,0,2.3,0,3.5
		c-1.1,0.3-2.3,0.7-3.4,1c-0.4,0.1-0.5,0.3-0.5,0.7c0,1.8,0,3.5,0,5.4c-0.4,0.1-0.8,0.1-1.2,0.2c0-1.9,0-3.8,0-5.7
		c-1,0.3-1.9,0.5-2.8,0.8c-0.2,0-0.3,0.1-0.5,0.1c-1.2,0.3-1.2,0.3-1.2,1.5c0,1.4,0,2.8,0,4.3C103.8,85.1,103.8,85.3,103.8,85.4z
		 M103.8,75.9c1.4-0.4,2.8-0.8,4.1-1.2c0.1,0,0.2-0.3,0.2-0.4c0-1.1,0-2.3,0-3.4c0-0.5,0-1.1,0-1.6c-1.4,0.4-2.7,0.8-4,1.1
		c-0.3,0.1-0.4,0.2-0.4,0.5c0,1.4,0,2.8,0,4.2C103.8,75.4,103.8,75.6,103.8,75.9z"/>
</g>
<g id="XMLID_1967_">
	<path id="XMLID_1968_" d="M125.6,96.1c-0.1,0-0.3,0-0.4,0.1c0-0.7,0-1.4,0-2.1c-0.5,0.1-1,0.3-1.5,0.4c0-0.4,0-0.8,0-1.2
		c0,0,0.1-0.1,0.1-0.1c0.4-0.1,0.8-0.2,1.2-0.3c0.1,0,0.1,0,0.2-0.1c0-0.7,0-1.3,0-2c-0.5,0.1-1,0.3-1.4,0.4c0-0.4,0-0.8,0-1.3
		c0.2-0.1,0.4-0.1,0.6-0.2c0.2-0.1,0.5-0.1,0.7-0.2c0.1,0,0.1-0.1,0.1-0.2c0-0.6,0-1.1,0-1.7c0-0.1,0-0.1,0-0.2c0.1,0,0.3,0,0.4-0.1
		c0,0.7,0,1.3,0,2c0.2-0.1,0.5-0.1,0.7-0.2c0.3-0.1,0.5-0.1,0.8-0.2c0.1,0,0.1-0.1,0.1-0.2c0-0.6,0-1.2,0-1.8c0-0.2,0-0.2,0.2-0.2
		c0.1,0,0.1,0,0.2,0c0,0.7,0,1.3,0,2c0.5-0.1,1-0.3,1.5-0.4c0,0.4,0,0.8,0,1.2c0,0-0.1,0.1-0.1,0.1c-0.4,0.1-0.9,0.2-1.3,0.4
		c0,0.7,0,1.3,0,2c0.5-0.1,1-0.3,1.4-0.4c0,0.4,0,0.9,0,1.3c-0.4,0.1-0.8,0.2-1.3,0.4c-0.1,0-0.2,0.1-0.2,0.3c0,0.6,0,1.3,0,2
		c-0.1,0-0.3,0-0.4,0.1c0-0.7,0-1.4,0-2.1c-0.4,0.1-0.7,0.2-1,0.3c-0.1,0-0.1,0-0.2,0c-0.4,0.1-0.4,0.1-0.4,0.6c0,0.5,0,1,0,1.6
		C125.6,96,125.6,96.1,125.6,96.1z M125.6,92.7c0.5-0.1,1-0.3,1.5-0.4c0,0,0.1-0.1,0.1-0.2c0-0.4,0-0.8,0-1.2c0-0.2,0-0.4,0-0.6
		c-0.5,0.1-1,0.3-1.4,0.4c-0.1,0-0.1,0.1-0.1,0.2c0,0.5,0,1,0,1.5C125.6,92.5,125.6,92.5,125.6,92.7z"/>
</g>
<g id="XMLID_603_">
	<path id="XMLID_606_" d="M618.7,96.6c-0.1,0-0.3,0-0.4,0.1c0-0.7,0-1.4,0-2.1c-0.5,0.1-1,0.3-1.5,0.4c0-0.4,0-0.8,0-1.2
		c0,0,0.1-0.1,0.1-0.1c0.4-0.1,0.8-0.2,1.2-0.3c0.1,0,0.1,0,0.2-0.1c0-0.7,0-1.3,0-2c-0.5,0.1-1,0.3-1.4,0.4c0-0.4,0-0.8,0-1.3
		c0.2-0.1,0.4-0.1,0.6-0.2c0.2-0.1,0.5-0.1,0.7-0.2c0.1,0,0.1-0.1,0.1-0.2c0-0.6,0-1.1,0-1.7c0-0.1,0-0.1,0-0.2c0.1,0,0.3,0,0.4-0.1
		c0,0.7,0,1.3,0,2c0.2-0.1,0.5-0.1,0.7-0.2c0.3-0.1,0.5-0.1,0.8-0.2c0.1,0,0.1-0.1,0.1-0.2c0-0.6,0-1.2,0-1.8c0-0.2,0-0.2,0.2-0.2
		c0.1,0,0.1,0,0.2,0c0,0.7,0,1.3,0,2c0.5-0.1,1-0.3,1.5-0.4c0,0.4,0,0.8,0,1.2c0,0-0.1,0.1-0.1,0.1c-0.4,0.1-0.9,0.2-1.3,0.4
		c0,0.7,0,1.3,0,2c0.5-0.1,1-0.3,1.4-0.4c0,0.4,0,0.9,0,1.3c-0.4,0.1-0.8,0.2-1.3,0.4c-0.1,0-0.2,0.1-0.2,0.3c0,0.6,0,1.3,0,2
		c-0.1,0-0.3,0-0.4,0.1c0-0.7,0-1.4,0-2.1c-0.4,0.1-0.7,0.2-1,0.3c-0.1,0-0.1,0-0.2,0c-0.4,0.1-0.4,0.1-0.4,0.6c0,0.5,0,1,0,1.6
		C618.7,96.5,618.7,96.5,618.7,96.6z M618.7,93.1c0.5-0.1,1-0.3,1.5-0.4c0,0,0.1-0.1,0.1-0.2c0-0.4,0-0.8,0-1.2c0-0.2,0-0.4,0-0.6
		c-0.5,0.1-1,0.3-1.4,0.4c-0.1,0-0.1,0.1-0.1,0.2c0,0.5,0,1,0,1.5C618.7,92.9,618.7,93,618.7,93.1z"/>
</g>
<g id="XMLID_1971_">
	<path id="XMLID_1972_" d="M158.4,85.1c-0.1,0-0.3,0-0.4,0.1c0-0.7,0-1.4,0-2.1c-0.5,0.1-1,0.3-1.5,0.4c0-0.4,0-0.8,0-1.2
		c0,0,0.1-0.1,0.1-0.1c0.4-0.1,0.8-0.2,1.2-0.3c0.1,0,0.1,0,0.2-0.1c0-0.7,0-1.3,0-2c-0.5,0.1-1,0.3-1.4,0.4c0-0.4,0-0.8,0-1.3
		c0.2-0.1,0.4-0.1,0.6-0.2c0.2-0.1,0.5-0.1,0.7-0.2c0.1,0,0.1-0.1,0.1-0.2c0-0.6,0-1.1,0-1.7c0-0.1,0-0.1,0-0.2c0.1,0,0.3,0,0.4-0.1
		c0,0.7,0,1.3,0,2c0.2-0.1,0.5-0.1,0.7-0.2c0.3-0.1,0.5-0.1,0.8-0.2c0.1,0,0.1-0.1,0.1-0.2c0-0.6,0-1.2,0-1.8c0-0.2,0-0.2,0.2-0.2
		c0.1,0,0.1,0,0.2,0c0,0.7,0,1.3,0,2c0.5-0.1,1-0.3,1.5-0.4c0,0.4,0,0.8,0,1.2c0,0-0.1,0.1-0.1,0.1c-0.4,0.1-0.9,0.2-1.3,0.4
		c0,0.7,0,1.3,0,2c0.5-0.1,1-0.3,1.4-0.4c0,0.4,0,0.9,0,1.3c-0.4,0.1-0.8,0.2-1.3,0.4c-0.1,0-0.2,0.1-0.2,0.3c0,0.6,0,1.3,0,2
		c-0.1,0-0.3,0-0.4,0.1c0-0.7,0-1.4,0-2.1c-0.4,0.1-0.7,0.2-1,0.3c-0.1,0-0.1,0-0.2,0c-0.4,0.1-0.4,0.1-0.4,0.6c0,0.5,0,1,0,1.6
		C158.4,85,158.4,85,158.4,85.1z M158.4,81.6c0.5-0.1,1-0.3,1.5-0.4c0,0,0.1-0.1,0.1-0.2c0-0.4,0-0.8,0-1.2c0-0.2,0-0.4,0-0.6
		c-0.5,0.1-1,0.3-1.4,0.4c-0.1,0-0.1,0.1-0.1,0.2c0,0.5,0,1,0,1.5C158.4,81.4,158.4,81.5,158.4,81.6z"/>
</g>
<g id="XMLID_591_">
	<path id="XMLID_594_" d="M587.4,85c-0.1,0-0.3,0-0.4,0.1c0-0.7,0-1.4,0-2.1c-0.5,0.1-1,0.3-1.5,0.4c0-0.4,0-0.8,0-1.2
		c0,0,0.1-0.1,0.1-0.1c0.4-0.1,0.8-0.2,1.2-0.3c0.1,0,0.1,0,0.2-0.1c0-0.7,0-1.3,0-2c-0.5,0.1-1,0.3-1.4,0.4c0-0.4,0-0.8,0-1.3
		c0.2-0.1,0.4-0.1,0.6-0.2c0.2-0.1,0.5-0.1,0.7-0.2c0.1,0,0.1-0.1,0.1-0.2c0-0.6,0-1.1,0-1.7c0-0.1,0-0.1,0-0.2c0.1,0,0.3,0,0.4-0.1
		c0,0.7,0,1.3,0,2c0.2-0.1,0.5-0.1,0.7-0.2c0.3-0.1,0.5-0.1,0.8-0.2c0.1,0,0.1-0.1,0.1-0.2c0-0.6,0-1.2,0-1.8c0-0.2,0-0.2,0.2-0.2
		c0.1,0,0.1,0,0.2,0c0,0.7,0,1.3,0,2c0.5-0.1,1-0.3,1.5-0.4c0,0.4,0,0.8,0,1.2c0,0-0.1,0.1-0.1,0.1c-0.4,0.1-0.9,0.2-1.3,0.4
		c0,0.7,0,1.3,0,2c0.5-0.1,1-0.3,1.4-0.4c0,0.4,0,0.9,0,1.3c-0.4,0.1-0.8,0.2-1.3,0.4c-0.1,0-0.2,0.1-0.2,0.3c0,0.6,0,1.3,0,2
		c-0.1,0-0.3,0-0.4,0.1c0-0.7,0-1.4,0-2.1c-0.4,0.1-0.7,0.2-1,0.3c-0.1,0-0.1,0-0.2,0c-0.4,0.1-0.4,0.1-0.4,0.6c0,0.5,0,1,0,1.6
		C587.4,84.9,587.4,85,587.4,85z M587.4,81.6c0.5-0.1,1-0.3,1.5-0.4c0,0,0.1-0.1,0.1-0.2c0-0.4,0-0.8,0-1.2c0-0.2,0-0.4,0-0.6
		c-0.5,0.1-1,0.3-1.4,0.4c-0.1,0-0.1,0.1-0.1,0.2c0,0.5,0,1,0,1.5C587.4,81.4,587.4,81.5,587.4,81.6z"/>
</g>
<g id="XMLID_1975_">
	<path id="XMLID_1976_" d="M189.8,74.8c-0.1,0-0.3,0-0.4,0.1c0-0.7,0-1.4,0-2.1c-0.5,0.1-1,0.3-1.5,0.4c0-0.4,0-0.8,0-1.2
		c0,0,0.1-0.1,0.1-0.1c0.4-0.1,0.8-0.2,1.2-0.3c0.1,0,0.1,0,0.2-0.1c0-0.7,0-1.3,0-2c-0.5,0.1-1,0.3-1.4,0.4c0-0.4,0-0.8,0-1.3
		c0.2-0.1,0.4-0.1,0.6-0.2c0.2-0.1,0.5-0.1,0.7-0.2c0.1,0,0.1-0.1,0.1-0.2c0-0.6,0-1.1,0-1.7c0-0.1,0-0.1,0-0.2c0.1,0,0.3,0,0.4-0.1
		c0,0.7,0,1.3,0,2c0.2-0.1,0.5-0.1,0.7-0.2c0.3-0.1,0.5-0.1,0.8-0.2c0.1,0,0.1-0.1,0.1-0.2c0-0.6,0-1.2,0-1.8c0-0.2,0-0.2,0.2-0.2
		c0.1,0,0.1,0,0.2,0c0,0.7,0,1.3,0,2c0.5-0.1,1-0.3,1.5-0.4c0,0.4,0,0.8,0,1.2c0,0-0.1,0.1-0.1,0.1c-0.4,0.1-0.9,0.2-1.3,0.4
		c0,0.7,0,1.3,0,2c0.5-0.1,1-0.3,1.4-0.4c0,0.4,0,0.9,0,1.3c-0.4,0.1-0.8,0.2-1.3,0.4c-0.1,0-0.2,0.1-0.2,0.3c0,0.6,0,1.3,0,2
		c-0.1,0-0.3,0-0.4,0.1c0-0.7,0-1.4,0-2.1c-0.4,0.1-0.7,0.2-1,0.3c-0.1,0-0.1,0-0.2,0c-0.4,0.1-0.4,0.1-0.4,0.6c0,0.5,0,1,0,1.6
		C189.8,74.7,189.8,74.8,189.8,74.8z M189.8,71.4c0.5-0.1,1-0.3,1.5-0.4c0,0,0.1-0.1,0.1-0.2c0-0.4,0-0.8,0-1.2c0-0.2,0-0.4,0-0.6
		c-0.5,0.1-1,0.3-1.4,0.4c-0.1,0-0.1,0.1-0.1,0.2c0,0.5,0,1,0,1.5C189.8,71.2,189.8,71.2,189.8,71.4z"/>
</g>
<g id="XMLID_1160_">
	<path id="XMLID_1161_" d="M554.9,75.8c-0.1,0-0.3,0-0.4,0.1c0-0.7,0-1.4,0-2.1c-0.5,0.1-1,0.3-1.5,0.4c0-0.4,0-0.8,0-1.2
		c0,0,0.1-0.1,0.1-0.1c0.4-0.1,0.8-0.2,1.2-0.3c0.1,0,0.1,0,0.2-0.1c0-0.7,0-1.3,0-2c-0.5,0.1-1,0.3-1.4,0.4c0-0.4,0-0.8,0-1.3
		c0.2-0.1,0.4-0.1,0.6-0.2c0.2-0.1,0.5-0.1,0.7-0.2c0.1,0,0.1-0.1,0.1-0.2c0-0.6,0-1.1,0-1.7c0-0.1,0-0.1,0-0.2c0.1,0,0.3,0,0.4-0.1
		c0,0.7,0,1.3,0,2c0.2-0.1,0.5-0.1,0.7-0.2c0.3-0.1,0.5-0.1,0.8-0.2c0.1,0,0.1-0.1,0.1-0.2c0-0.6,0-1.2,0-1.8c0-0.2,0-0.2,0.2-0.2
		c0.1,0,0.1,0,0.2,0c0,0.7,0,1.3,0,2c0.5-0.1,1-0.3,1.5-0.4c0,0.4,0,0.8,0,1.2c0,0-0.1,0.1-0.1,0.1c-0.4,0.1-0.9,0.2-1.3,0.4
		c0,0.7,0,1.3,0,2c0.5-0.1,1-0.3,1.4-0.4c0,0.4,0,0.9,0,1.3c-0.4,0.1-0.8,0.2-1.3,0.4c-0.1,0-0.2,0.1-0.2,0.3c0,0.6,0,1.3,0,2
		c-0.1,0-0.3,0-0.4,0.1c0-0.7,0-1.4,0-2.1c-0.4,0.1-0.7,0.2-1,0.3c-0.1,0-0.1,0-0.2,0c-0.4,0.1-0.4,0.1-0.4,0.6c0,0.5,0,1,0,1.6
		C554.9,75.7,554.9,75.7,554.9,75.8z M554.9,72.3c0.5-0.1,1-0.3,1.5-0.4c0,0,0.1-0.1,0.1-0.2c0-0.4,0-0.8,0-1.2c0-0.2,0-0.4,0-0.6
		c-0.5,0.1-1,0.3-1.4,0.4c-0.1,0-0.1,0.1-0.1,0.2c0,0.5,0,1,0,1.5C554.9,72.1,554.9,72.2,554.9,72.3z"/>
</g>
<g id="XMLID_1166_">
	<path id="XMLID_1168_" d="M253.4,54.1c-0.1,0-0.3,0-0.4,0.1c0-0.7,0-1.4,0-2.1c-0.5,0.1-1,0.3-1.5,0.4c0-0.4,0-0.8,0-1.2
		c0,0,0.1-0.1,0.1-0.1c0.4-0.1,0.8-0.2,1.2-0.3c0.1,0,0.1,0,0.2-0.1c0-0.7,0-1.3,0-2c-0.5,0.1-1,0.3-1.4,0.4c0-0.4,0-0.8,0-1.3
		c0.2-0.1,0.4-0.1,0.6-0.2c0.2-0.1,0.5-0.1,0.7-0.2c0.1,0,0.1-0.1,0.1-0.2c0-0.6,0-1.1,0-1.7c0-0.1,0-0.1,0-0.2c0.1,0,0.3,0,0.4-0.1
		c0,0.7,0,1.3,0,2c0.2-0.1,0.5-0.1,0.7-0.2c0.3-0.1,0.5-0.1,0.8-0.2c0.1,0,0.1-0.1,0.1-0.2c0-0.6,0-1.2,0-1.8c0-0.2,0-0.2,0.2-0.2
		c0.1,0,0.1,0,0.2,0c0,0.7,0,1.3,0,2c0.5-0.1,1-0.3,1.5-0.4c0,0.4,0,0.8,0,1.2c0,0-0.1,0.1-0.1,0.1c-0.4,0.1-0.9,0.2-1.3,0.4
		c0,0.7,0,1.3,0,2c0.5-0.1,1-0.3,1.4-0.4c0,0.4,0,0.9,0,1.3c-0.4,0.1-0.8,0.2-1.3,0.4c-0.1,0-0.2,0.1-0.2,0.3c0,0.6,0,1.3,0,2
		c-0.1,0-0.3,0-0.4,0.1c0-0.7,0-1.4,0-2.1c-0.4,0.1-0.7,0.2-1,0.3c-0.1,0-0.1,0-0.2,0c-0.4,0.1-0.4,0.1-0.4,0.6c0,0.5,0,1,0,1.6
		C253.4,54,253.4,54.1,253.4,54.1z M253.4,50.7c0.5-0.1,1-0.3,1.5-0.4c0,0,0.1-0.1,0.1-0.2c0-0.4,0-0.8,0-1.2c0-0.2,0-0.4,0-0.6
		c-0.5,0.1-1,0.3-1.4,0.4c-0.1,0-0.1,0.1-0.1,0.2c0,0.5,0,1,0,1.5C253.4,50.5,253.4,50.5,253.4,50.7z"/>
</g>
<g id="XMLID_2004_">
	<path id="XMLID_2005_" d="M490.8,55c-0.1,0-0.3,0-0.4,0.1c0-0.7,0-1.4,0-2.1c-0.5,0.1-1,0.3-1.5,0.4c0-0.4,0-0.8,0-1.2
		c0,0,0.1-0.1,0.1-0.1c0.4-0.1,0.8-0.2,1.2-0.3c0.1,0,0.1,0,0.2-0.1c0-0.7,0-1.3,0-2c-0.5,0.1-1,0.3-1.4,0.4c0-0.4,0-0.8,0-1.3
		c0.2-0.1,0.4-0.1,0.6-0.2c0.2-0.1,0.5-0.1,0.7-0.2c0.1,0,0.1-0.1,0.1-0.2c0-0.6,0-1.1,0-1.7c0-0.1,0-0.1,0-0.2c0.1,0,0.3,0,0.4-0.1
		c0,0.7,0,1.3,0,2c0.2-0.1,0.5-0.1,0.7-0.2c0.3-0.1,0.5-0.1,0.8-0.2c0.1,0,0.1-0.1,0.1-0.2c0-0.6,0-1.2,0-1.8c0-0.2,0-0.2,0.2-0.2
		c0.1,0,0.1,0,0.2,0c0,0.7,0,1.3,0,2c0.5-0.1,1-0.3,1.5-0.4c0,0.4,0,0.8,0,1.2c0,0-0.1,0.1-0.1,0.1c-0.4,0.1-0.9,0.2-1.3,0.4
		c0,0.7,0,1.3,0,2c0.5-0.1,1-0.3,1.4-0.4c0,0.4,0,0.9,0,1.3c-0.4,0.1-0.8,0.2-1.3,0.4c-0.1,0-0.2,0.1-0.2,0.3c0,0.6,0,1.3,0,2
		c-0.1,0-0.3,0-0.4,0.1c0-0.7,0-1.4,0-2.1c-0.4,0.1-0.7,0.2-1,0.3c-0.1,0-0.1,0-0.2,0c-0.4,0.1-0.4,0.1-0.4,0.6c0,0.5,0,1,0,1.6
		C490.8,54.8,490.8,54.9,490.8,55z M490.8,51.5c0.5-0.1,1-0.3,1.5-0.4c0,0,0.1-0.1,0.1-0.2c0-0.4,0-0.8,0-1.2c0-0.2,0-0.4,0-0.6
		c-0.5,0.1-1,0.3-1.4,0.4c-0.1,0-0.1,0.1-0.1,0.2c0,0.5,0,1,0,1.5C490.8,51.3,490.8,51.4,490.8,51.5z"/>
</g>
<g id="XMLID_1980_">
	<path id="XMLID_1981_" d="M287,45.3c-0.1,0-0.3,0-0.4,0.1c0-0.7,0-1.4,0-2.1c-0.5,0.1-1,0.3-1.5,0.4c0-0.4,0-0.8,0-1.2
		c0,0,0.1-0.1,0.1-0.1c0.4-0.1,0.8-0.2,1.2-0.3c0.1,0,0.1,0,0.2-0.1c0-0.7,0-1.3,0-2c-0.5,0.1-1,0.3-1.4,0.4c0-0.4,0-0.8,0-1.3
		c0.2-0.1,0.4-0.1,0.6-0.2c0.2-0.1,0.5-0.1,0.7-0.2c0.1,0,0.1-0.1,0.1-0.2c0-0.6,0-1.1,0-1.7c0-0.1,0-0.1,0-0.2c0.1,0,0.3,0,0.4-0.1
		c0,0.7,0,1.3,0,2c0.2-0.1,0.5-0.1,0.7-0.2c0.3-0.1,0.5-0.1,0.8-0.2c0.1,0,0.1-0.1,0.1-0.2c0-0.6,0-1.2,0-1.8c0-0.2,0-0.2,0.2-0.2
		c0.1,0,0.1,0,0.2,0c0,0.7,0,1.3,0,2c0.5-0.1,1-0.3,1.5-0.4c0,0.4,0,0.8,0,1.2c0,0-0.1,0.1-0.1,0.1c-0.4,0.1-0.9,0.2-1.3,0.4
		c0,0.7,0,1.3,0,2c0.5-0.1,1-0.3,1.4-0.4c0,0.4,0,0.9,0,1.3c-0.4,0.1-0.8,0.2-1.3,0.4c-0.1,0-0.2,0.1-0.2,0.3c0,0.6,0,1.3,0,2
		c-0.1,0-0.3,0-0.4,0.1c0-0.7,0-1.4,0-2.1c-0.4,0.1-0.7,0.2-1,0.3c-0.1,0-0.1,0-0.2,0c-0.4,0.1-0.4,0.1-0.4,0.6c0,0.5,0,1,0,1.6
		C287,45.2,287,45.2,287,45.3z M287,41.8c0.5-0.1,1-0.3,1.5-0.4c0,0,0.1-0.1,0.1-0.2c0-0.4,0-0.8,0-1.2c0-0.2,0-0.4,0-0.6
		c-0.5,0.1-1,0.3-1.4,0.4c-0.1,0-0.1,0.1-0.1,0.2c0,0.5,0,1,0,1.5C287,41.6,287,41.7,287,41.8z"/>
</g>
<g id="XMLID_2000_">
	<path id="XMLID_2001_" d="M459.9,45c-0.1,0-0.3,0-0.4,0.1c0-0.7,0-1.4,0-2.1c-0.5,0.1-1,0.3-1.5,0.4c0-0.4,0-0.8,0-1.2
		c0,0,0.1-0.1,0.1-0.1c0.4-0.1,0.8-0.2,1.2-0.3c0.1,0,0.1,0,0.2-0.1c0-0.7,0-1.3,0-2c-0.5,0.1-1,0.3-1.4,0.4c0-0.4,0-0.8,0-1.3
		c0.2-0.1,0.4-0.1,0.6-0.2c0.2-0.1,0.5-0.1,0.7-0.2c0.1,0,0.1-0.1,0.1-0.2c0-0.6,0-1.1,0-1.7c0-0.1,0-0.1,0-0.2c0.1,0,0.3,0,0.4-0.1
		c0,0.7,0,1.3,0,2c0.2-0.1,0.5-0.1,0.7-0.2c0.3-0.1,0.5-0.1,0.8-0.2c0.1,0,0.1-0.1,0.1-0.2c0-0.6,0-1.2,0-1.8c0-0.2,0-0.2,0.2-0.2
		c0.1,0,0.1,0,0.2,0c0,0.7,0,1.3,0,2c0.5-0.1,1-0.3,1.5-0.4c0,0.4,0,0.8,0,1.2c0,0-0.1,0.1-0.1,0.1c-0.4,0.1-0.9,0.2-1.3,0.4
		c0,0.7,0,1.3,0,2c0.5-0.1,1-0.3,1.4-0.4c0,0.4,0,0.9,0,1.3c-0.4,0.1-0.8,0.2-1.3,0.4c-0.1,0-0.2,0.1-0.2,0.3c0,0.6,0,1.3,0,2
		c-0.1,0-0.3,0-0.4,0.1c0-0.7,0-1.4,0-2.1c-0.4,0.1-0.7,0.2-1,0.3c-0.1,0-0.1,0-0.2,0c-0.4,0.1-0.4,0.1-0.4,0.6c0,0.5,0,1,0,1.6
		C459.9,44.8,459.9,44.9,459.9,45z M459.9,41.5c0.5-0.1,1-0.3,1.5-0.4c0,0,0.1-0.1,0.1-0.2c0-0.4,0-0.8,0-1.2c0-0.2,0-0.4,0-0.6
		c-0.5,0.1-1,0.3-1.4,0.4c-0.1,0-0.1,0.1-0.1,0.2c0,0.5,0,1,0,1.5C459.9,41.3,459.9,41.4,459.9,41.5z"/>
</g>
<g id="XMLID_1984_">
	<path id="XMLID_1985_" d="M317.3,33.3c-0.1,0-0.3,0-0.4,0.1c0-0.7,0-1.4,0-2.1c-0.5,0.1-1,0.3-1.5,0.4c0-0.4,0-0.8,0-1.2
		c0,0,0.1-0.1,0.1-0.1c0.4-0.1,0.8-0.2,1.2-0.3c0.1,0,0.1,0,0.2-0.1c0-0.7,0-1.3,0-2c-0.5,0.1-1,0.3-1.4,0.4c0-0.4,0-0.8,0-1.3
		c0.2-0.1,0.4-0.1,0.6-0.2c0.2-0.1,0.5-0.1,0.7-0.2c0.1,0,0.1-0.1,0.1-0.2c0-0.6,0-1.1,0-1.7c0-0.1,0-0.1,0-0.2c0.1,0,0.3,0,0.4-0.1
		c0,0.7,0,1.3,0,2c0.2-0.1,0.5-0.1,0.7-0.2c0.3-0.1,0.5-0.1,0.8-0.2c0.1,0,0.1-0.1,0.1-0.2c0-0.6,0-1.2,0-1.8c0-0.2,0-0.2,0.2-0.2
		c0.1,0,0.1,0,0.2,0c0,0.7,0,1.3,0,2c0.5-0.1,1-0.3,1.5-0.4c0,0.4,0,0.8,0,1.2c0,0-0.1,0.1-0.1,0.1c-0.4,0.1-0.9,0.2-1.3,0.4
		c0,0.7,0,1.3,0,2c0.5-0.1,1-0.3,1.4-0.4c0,0.4,0,0.9,0,1.3c-0.4,0.1-0.8,0.2-1.3,0.4c-0.1,0-0.2,0.1-0.2,0.3c0,0.6,0,1.3,0,2
		c-0.1,0-0.3,0-0.4,0.1c0-0.7,0-1.4,0-2.1c-0.4,0.1-0.7,0.2-1,0.3c-0.1,0-0.1,0-0.2,0c-0.4,0.1-0.4,0.1-0.4,0.6c0,0.5,0,1,0,1.6
		C317.3,33.2,317.3,33.3,317.3,33.3z M317.3,29.9c0.5-0.1,1-0.3,1.5-0.4c0,0,0.1-0.1,0.1-0.2c0-0.4,0-0.8,0-1.2c0-0.2,0-0.4,0-0.6
		c-0.5,0.1-1,0.3-1.4,0.4c-0.1,0-0.1,0.1-0.1,0.2c0,0.5,0,1,0,1.5C317.3,29.7,317.3,29.8,317.3,29.9z"/>
</g>
<g id="XMLID_1996_">
	<path id="XMLID_1997_" d="M426.4,36.3c-0.1,0-0.3,0-0.4,0.1c0-0.7,0-1.4,0-2.1c-0.5,0.1-1,0.3-1.5,0.4c0-0.4,0-0.8,0-1.2
		c0,0,0.1-0.1,0.1-0.1c0.4-0.1,0.8-0.2,1.2-0.3c0.1,0,0.1,0,0.2-0.1c0-0.7,0-1.3,0-2c-0.5,0.1-1,0.3-1.4,0.4c0-0.4,0-0.8,0-1.3
		c0.2-0.1,0.4-0.1,0.6-0.2c0.2-0.1,0.5-0.1,0.7-0.2c0.1,0,0.1-0.1,0.1-0.2c0-0.6,0-1.1,0-1.7c0-0.1,0-0.1,0-0.2c0.1,0,0.3,0,0.4-0.1
		c0,0.7,0,1.3,0,2c0.2-0.1,0.5-0.1,0.7-0.2c0.3-0.1,0.5-0.1,0.8-0.2c0.1,0,0.1-0.1,0.1-0.2c0-0.6,0-1.2,0-1.8c0-0.2,0-0.2,0.2-0.2
		c0.1,0,0.1,0,0.2,0c0,0.7,0,1.3,0,2c0.5-0.1,1-0.3,1.5-0.4c0,0.4,0,0.8,0,1.2c0,0-0.1,0.1-0.1,0.1c-0.4,0.1-0.9,0.2-1.3,0.4
		c0,0.7,0,1.3,0,2c0.5-0.1,1-0.3,1.4-0.4c0,0.4,0,0.9,0,1.3c-0.4,0.1-0.8,0.2-1.3,0.4c-0.1,0-0.2,0.1-0.2,0.3c0,0.6,0,1.3,0,2
		c-0.1,0-0.3,0-0.4,0.1c0-0.7,0-1.4,0-2.1c-0.4,0.1-0.7,0.2-1,0.3c-0.1,0-0.1,0-0.2,0c-0.4,0.1-0.4,0.1-0.4,0.6c0,0.5,0,1,0,1.6
		C426.4,36.2,426.4,36.2,426.4,36.3z M426.4,32.8c0.5-0.1,1-0.3,1.5-0.4c0,0,0.1-0.1,0.1-0.2c0-0.4,0-0.8,0-1.2c0-0.2,0-0.4,0-0.6
		c-0.5,0.1-1,0.3-1.4,0.4c-0.1,0-0.1,0.1-0.1,0.2c0,0.5,0,1,0,1.5C426.4,32.6,426.4,32.7,426.4,32.8z"/>
</g>
<g id="XMLID_1988_">
	<path id="XMLID_1989_" d="M348.7,24.5c-0.1,0-0.3,0-0.4,0.1c0-0.7,0-1.4,0-2.1c-0.5,0.1-1,0.3-1.5,0.4c0-0.4,0-0.8,0-1.2
		c0,0,0.1-0.1,0.1-0.1c0.4-0.1,0.8-0.2,1.2-0.3c0.1,0,0.1,0,0.2-0.1c0-0.7,0-1.3,0-2c-0.5,0.1-1,0.3-1.4,0.4c0-0.4,0-0.8,0-1.3
		c0.2-0.1,0.4-0.1,0.6-0.2c0.2-0.1,0.5-0.1,0.7-0.2c0.1,0,0.1-0.1,0.1-0.2c0-0.6,0-1.1,0-1.7c0-0.1,0-0.1,0-0.2c0.1,0,0.3,0,0.4-0.1
		c0,0.7,0,1.3,0,2c0.2-0.1,0.5-0.1,0.7-0.2c0.3-0.1,0.5-0.1,0.8-0.2c0.1,0,0.1-0.1,0.1-0.2c0-0.6,0-1.2,0-1.8c0-0.2,0-0.2,0.2-0.2
		c0.1,0,0.1,0,0.2,0c0,0.7,0,1.3,0,2c0.5-0.1,1-0.3,1.5-0.4c0,0.4,0,0.8,0,1.2c0,0-0.1,0.1-0.1,0.1c-0.4,0.1-0.9,0.2-1.3,0.4
		c0,0.7,0,1.3,0,2c0.5-0.1,1-0.3,1.4-0.4c0,0.4,0,0.9,0,1.3c-0.4,0.1-0.8,0.2-1.3,0.4c-0.1,0-0.2,0.1-0.2,0.3c0,0.6,0,1.3,0,2
		c-0.1,0-0.3,0-0.4,0.1c0-0.7,0-1.4,0-2.1c-0.4,0.1-0.7,0.2-1,0.3c-0.1,0-0.1,0-0.2,0c-0.4,0.1-0.4,0.1-0.4,0.6c0,0.5,0,1,0,1.6
		C348.7,24.4,348.7,24.5,348.7,24.5z M348.7,21.1c0.5-0.1,1-0.3,1.5-0.4c0,0,0.1-0.1,0.1-0.2c0-0.4,0-0.8,0-1.2c0-0.2,0-0.4,0-0.6
		c-0.5,0.1-1,0.3-1.4,0.4c-0.1,0-0.1,0.1-0.1,0.2c0,0.5,0,1,0,1.5C348.7,20.9,348.7,21,348.7,21.1z"/>
</g>
<g id="XMLID_1992_">
	<path id="XMLID_1993_" d="M394.3,24.5c-0.1,0-0.3,0-0.4,0.1c0-0.7,0-1.4,0-2.1c-0.5,0.1-1,0.3-1.5,0.4c0-0.4,0-0.8,0-1.2
		c0,0,0.1-0.1,0.1-0.1c0.4-0.1,0.8-0.2,1.2-0.3c0.1,0,0.1,0,0.2-0.1c0-0.7,0-1.3,0-2c-0.5,0.1-1,0.3-1.4,0.4c0-0.4,0-0.8,0-1.3
		c0.2-0.1,0.4-0.1,0.6-0.2c0.2-0.1,0.5-0.1,0.7-0.2c0.1,0,0.1-0.1,0.1-0.2c0-0.6,0-1.1,0-1.7c0-0.1,0-0.1,0-0.2c0.1,0,0.3,0,0.4-0.1
		c0,0.7,0,1.3,0,2c0.2-0.1,0.5-0.1,0.7-0.2c0.3-0.1,0.5-0.1,0.8-0.2c0.1,0,0.1-0.1,0.1-0.2c0-0.6,0-1.2,0-1.8c0-0.2,0-0.2,0.2-0.2
		c0.1,0,0.1,0,0.2,0c0,0.7,0,1.3,0,2c0.5-0.1,1-0.3,1.5-0.4c0,0.4,0,0.8,0,1.2c0,0-0.1,0.1-0.1,0.1c-0.4,0.1-0.9,0.2-1.3,0.4
		c0,0.7,0,1.3,0,2c0.5-0.1,1-0.3,1.4-0.4c0,0.4,0,0.9,0,1.3c-0.4,0.1-0.8,0.2-1.3,0.4c-0.1,0-0.2,0.1-0.2,0.3c0,0.6,0,1.3,0,2
		c-0.1,0-0.3,0-0.4,0.1c0-0.7,0-1.4,0-2.1c-0.4,0.1-0.7,0.2-1,0.3c-0.1,0-0.1,0-0.2,0c-0.4,0.1-0.4,0.1-0.4,0.6c0,0.5,0,1,0,1.6
		C394.3,24.4,394.3,24.5,394.3,24.5z M394.3,21.1c0.5-0.1,1-0.3,1.5-0.4c0,0,0.1-0.1,0.1-0.2c0-0.4,0-0.8,0-1.2c0-0.2,0-0.4,0-0.6
		c-0.5,0.1-1,0.3-1.4,0.4c-0.1,0-0.1,0.1-0.1,0.2c0,0.5,0,1,0,1.5C394.3,20.9,394.3,21,394.3,21.1z"/>
</g>
</svg>
