<?xml version="1.0" encoding="UTF-8"?>
<!DOCTYPE svg PUBLIC "-//W3C//DTD SVG 1.1//EN" "http://www.w3.org/Graphics/SVG/1.1/DTD/svg11.dtd">
<svg xmlns="http://www.w3.org/2000/svg" version="1.1" width="5289px" height="971px" style="shape-rendering:geometricPrecision; text-rendering:geometricPrecision; image-rendering:optimizeQuality; fill-rule:evenodd; clip-rule:evenodd" xmlns:xlink="http://www.w3.org/1999/xlink">
<g><path style="opacity:0.947" fill="#000000" d="M 249.5,-0.5 C 250.5,-0.5 251.5,-0.5 252.5,-0.5C 272.003,24.4971 286.837,52.1638 297,82.5C 305.455,113.668 305.621,144.835 297.5,176C 1354.17,176.667 2410.83,176.667 3467.5,176C 3470.07,170.132 3472.73,164.299 3475.5,158.5C 3478.78,164.183 3481.78,170.016 3484.5,176C 3494.83,176.5 3505.16,176.666 3515.5,176.5C 3515.33,169.825 3515.5,163.158 3516,156.5C 3520.89,143.324 3524.56,143.991 3527,158.5C 3527.81,164.749 3527.64,170.916 3526.5,177C 3697.17,177.667 3867.83,177.667 4038.5,177C 4041.91,176.703 4045.25,176.036 4048.5,175C 4051,173.833 4052.83,172 4054,169.5C 4055.45,151.222 4055.95,132.889 4055.5,114.5C 4059.79,114.198 4062.96,115.864 4065,119.5C 4065.5,135.83 4065.67,152.163 4065.5,168.5C 4076.71,165.929 4087.55,162.263 4098,157.5C 4099.56,155.043 4100.56,152.376 4101,149.5C 4101.17,133.823 4101.67,118.156 4102.5,102.5C 4107.01,102.841 4109.84,105.174 4111,109.5C 4111.5,123.829 4111.67,138.163 4111.5,152.5C 4117.82,151.724 4124.15,151.058 4130.5,150.5C 4131.01,159.158 4131.34,167.825 4131.5,176.5C 4299.17,176.5 4466.83,176.5 4634.5,176.5C 4634.5,171.5 4634.5,166.5 4634.5,161.5C 4628.54,162.391 4622.71,163.724 4617,165.5C 4616.33,155.5 4616.33,145.5 4617,135.5C 4617.67,134.167 4618.33,132.833 4619,131.5C 4622.52,129.099 4626.36,127.266 4630.5,126C 4632.81,124.363 4634.31,122.196 4635,119.5C 4635.33,100.5 4635.67,81.5 4636,62.5C 4641.67,65.4989 4645,70.1656 4646,76.5C 4646.45,91.1545 4646.29,105.821 4645.5,120.5C 4656.71,117.931 4667.54,114.265 4678,109.5C 4679.85,106.431 4680.85,103.098 4681,99.5C 4681.33,90.1667 4681.67,80.8333 4682,71.5C 4682.15,65.6035 4683.15,59.9368 4685,54.5C 4687.48,57.7892 4689.14,61.4558 4690,65.5C 4690.93,78.8539 4691.93,92.1872 4693,105.5C 4698.71,103.926 4704.54,102.926 4710.5,102.5C 4710.67,112.839 4710.5,123.172 4710,133.5C 4709.63,134.416 4709.13,135.25 4708.5,136C 4703.88,137.427 4699.54,139.427 4695.5,142C 4692.24,145.873 4690.57,150.373 4690.5,155.5C 4691.35,162.809 4691.68,170.142 4691.5,177.5C 4705.17,177.667 4718.84,177.5 4732.5,177C 4734.3,176.028 4735.97,174.861 4737.5,173.5C 4744.16,158.679 4755.16,148.512 4770.5,143C 4813.98,124.861 4855.65,128.195 4895.5,153C 4902.29,158.463 4907.63,165.13 4911.5,173C 4914.13,175.146 4917.13,176.479 4920.5,177C 5040.5,177.333 5160.5,177.667 5280.5,178C 5283.94,179.277 5286.6,181.443 5288.5,184.5C 5288.5,308.5 5288.5,432.5 5288.5,556.5C 5285.34,560.747 5281.01,562.913 5275.5,563C 5246.33,563.167 5217.17,563.333 5188,563.5C 3876.5,562.348 2565,562.182 1253.5,563C 1245.27,564.346 1242.11,569.179 1244,577.5C 1238.95,583.265 1235.61,582.265 1234,574.5C 1233.5,570.514 1233.33,566.514 1233.5,562.5C 1225.83,562.334 1218.16,562.5 1210.5,563C 1201.34,565.807 1197.67,571.974 1199.5,581.5C 1199.09,586.316 1197.09,590.316 1193.5,593.5C 1191.73,590.963 1190.23,588.297 1189,585.5C 1188.5,578.174 1188.33,570.841 1188.5,563.5C 1102.51,562.852 1016.51,562.519 930.5,562.5C 845.483,562.348 760.483,562.848 675.5,564C 669.659,564.181 665.825,567.015 664,572.5C 662.773,587.127 662.106,601.794 662,616.5C 660.607,620.286 658.941,623.952 657,627.5C 654.566,624.205 652.899,620.538 652,616.5C 651.5,601.837 651.333,587.17 651.5,572.5C 640.008,574.829 629.175,578.829 619,584.5C 617.898,588.416 617.231,592.416 617,596.5C 616.667,608.5 616.333,620.5 616,632.5C 614.692,634.641 613.192,636.641 611.5,638.5C 607.204,635.314 605.37,630.981 606,625.5C 605.5,613.171 605.333,600.838 605.5,588.5C 600.298,588.838 595.131,589.505 590,590.5C 588.893,590.415 587.893,590.081 587,589.5C 586.417,580.834 585.917,572.167 585.5,563.5C 484.167,563.5 382.833,563.5 281.5,563.5C 283.576,579.711 286.742,595.711 291,611.5C 295.885,655.624 277.385,685.124 235.5,700C 213.172,706 190.839,706 168.5,700C 139.893,687.64 127.059,665.807 130,634.5C 135.127,606.37 151.96,592.537 180.5,593C 201.443,598.614 214.277,612.114 219,633.5C 221.555,652.205 215.055,666.705 199.5,677C 191.218,681.2 182.885,685.2 174.5,689C 216.742,702.616 250.242,691.116 275,654.5C 281.236,641.746 282.903,628.413 280,614.5C 276.404,599.184 273.071,583.85 270,568.5C 267.658,565.246 264.491,563.412 260.5,563C 177.833,562.667 95.1667,562.333 12.5,562C 8.17755,560.725 3.84421,559.558 -0.5,558.5C -0.5,558.167 -0.5,557.833 -0.5,557.5C 5.41097,555.697 11.411,554.197 17.5,553C 70.5,552.667 123.5,552.333 176.5,552C 158.032,543.603 140.365,533.937 123.5,523C 107.488,508.993 93.6546,493.16 82,475.5C 77.3981,471.117 71.8981,468.784 65.5,468.5C 43.4446,469.814 21.4446,469.814 -0.5,468.5C -0.5,466.5 -0.5,464.5 -0.5,462.5C 6.18555,459.946 13.1855,458.78 20.5,459C 37.1633,458.5 53.83,458.333 70.5,458.5C 72.0931,430.49 73.7598,402.49 75.5,374.5C 50.1667,374.5 24.8333,374.5 -0.5,374.5C -0.5,372.5 -0.5,370.5 -0.5,368.5C 2.45353,367.572 5.45353,366.739 8.5,366C 31.5,365.667 54.5,365.333 77.5,365C 81.4685,364.036 84.6351,361.869 87,358.5C 103.251,332.996 119.751,307.663 136.5,282.5C 90.7662,281.828 45.0995,281.162 -0.5,280.5C -0.5,278.5 -0.5,276.5 -0.5,274.5C 2.73787,273.367 6.0712,272.533 9.5,272C 54.8791,271.98 100.212,271.313 145.5,270C 150.725,268.721 155.391,266.388 159.5,263C 168.869,253.963 178.535,245.296 188.5,237C 193.72,233.053 196.72,227.886 197.5,221.5C 196.275,212.6 194.108,203.934 191,195.5C 189.332,191.835 186.499,189.668 182.5,189C 155.522,187.88 128.522,187.38 101.5,187.5C 70.1599,187.775 38.8266,187.941 7.5,188C 4.35151,187.262 1.68484,185.762 -0.5,183.5C -0.5,183.167 -0.5,182.833 -0.5,182.5C 1.29585,181.207 2.96252,179.707 4.5,178C 66.1658,177.5 127.832,177.333 189.5,177.5C 189.764,149.566 192.597,121.899 198,94.5C 205.812,57.5283 222.978,25.8616 249.5,-0.5 Z M 252.5,54.5 C 262.032,53.5305 269.199,57.1972 274,65.5C 285.803,86.194 287.137,107.527 278,129.5C 274.214,139.073 269.88,148.407 265,157.5C 259.368,167.804 250.868,174.304 239.5,177C 228.152,177.628 216.819,177.461 205.5,176.5C 205.536,140.356 214.036,106.356 231,74.5C 236.454,65.8752 243.621,59.2086 252.5,54.5 Z M 4805.5,141.5 C 4833.01,138.689 4852.01,150.023 4862.5,175.5C 4835.17,176.5 4807.84,176.833 4780.5,176.5C 4778.75,168.089 4779.91,160.089 4784,152.5C 4790.08,146.545 4797.24,142.878 4805.5,141.5 Z M 4676.5,147.5 C 4677.83,147.5 4679.17,147.5 4680.5,147.5C 4680.5,157.167 4680.5,166.833 4680.5,176.5C 4669.5,176.5 4658.5,176.5 4647.5,176.5C 4645.55,169.47 4646.38,162.803 4650,156.5C 4652.67,153.836 4655.84,152.002 4659.5,151C 4665.3,149.816 4670.97,148.649 4676.5,147.5 Z M 314.5,187.5 C 1366.5,187.5 2418.5,187.5 3470.5,187.5C 3470.88,196.568 3470.38,205.568 3469,214.5C 3468.53,215.931 3467.7,217.097 3466.5,218C 3458.46,218.091 3453.29,221.924 3451,229.5C 3450.28,238.861 3450.45,248.194 3451.5,257.5C 3457.26,257.039 3462.93,256.039 3468.5,254.5C 3469.47,259.802 3470.13,265.135 3470.5,270.5C 3301.83,270.833 3133.17,270.5 2964.5,269.5C 2963.56,260.877 2962.89,252.21 2962.5,243.5C 2956.52,243.803 2950.68,244.803 2945,246.5C 2944.67,231.833 2944.33,217.167 2944,202.5C 2942.73,199.567 2941.06,196.901 2939,194.5C 2937.09,196.657 2935.42,198.991 2934,201.5C 2932.45,213.489 2932.29,225.489 2933.5,237.5C 2934.74,244.98 2932.07,250.48 2925.5,254C 2916.12,256.404 2906.79,258.904 2897.5,261.5C 2897.5,243.167 2897.5,224.833 2897.5,206.5C 2895.4,205.769 2893.4,205.769 2891.5,206.5C 2890.76,208.541 2889.93,210.541 2889,212.5C 2888.83,227.528 2888.17,242.528 2887,257.5C 2882.76,266.386 2875.59,270.886 2865.5,271C 1990.83,271.667 1116.17,271.667 241.5,271C 244.883,267.072 248.383,263.239 252,259.5C 265.751,237.663 279.751,215.997 294,194.5C 299.963,189.394 306.797,187.061 314.5,187.5 Z M 3550.5,187.5 C 3712.17,187.5 3873.83,187.5 4035.5,187.5C 4035.5,195.833 4035.5,204.167 4035.5,212.5C 4041.85,211.608 4048.19,210.608 4054.5,209.5C 4054.5,229.833 4054.5,250.167 4054.5,270.5C 3954.51,271.651 3854.51,271.817 3754.5,271C 3750.93,270.3 3748.1,268.467 3746,265.5C 3733.15,243.64 3713.99,231.14 3688.5,228C 3654.24,220.377 3622.24,225.71 3592.5,244C 3588.33,248.167 3584.17,252.333 3580,256.5C 3576.88,261.286 3573.38,265.786 3569.5,270C 3555.57,271.447 3541.57,271.947 3527.5,271.5C 3527.45,261.807 3527.29,252.141 3527,242.5C 3528.25,235.583 3532.42,231.749 3539.5,231C 3541.36,229.442 3542.86,227.609 3544,225.5C 3545.42,215.58 3545.92,205.58 3545.5,195.5C 3539.86,195.911 3534.36,196.911 3529,198.5C 3527.37,195.577 3527.2,192.577 3528.5,189.5C 3535.96,188.864 3543.3,188.198 3550.5,187.5 Z M 204.5,189.5 C 215.674,188.176 227.007,188.176 238.5,189.5C 229.518,199.65 220.351,209.65 211,219.5C 209.989,218.663 208.822,218.33 207.5,218.5C 206.789,208.66 205.789,198.993 204.5,189.5 Z M 3482.5,188.5 C 3493.17,188.5 3503.83,188.5 3514.5,188.5C 3517.14,200.355 3512.47,207.189 3500.5,209C 3494.55,210.49 3488.55,211.656 3482.5,212.5C 3482.5,204.5 3482.5,196.5 3482.5,188.5 Z M 4120.5,188.5 C 4144.17,188.333 4167.84,188.5 4191.5,189C 4181.87,194.401 4173.03,200.901 4165,208.5C 4151.88,229.652 4155.05,248.152 4174.5,264C 4177.33,266.248 4180.33,268.248 4183.5,270C 4166.17,270.5 4148.84,270.667 4131.5,270.5C 4131.28,263.16 4130.94,255.827 4130.5,248.5C 4124.2,249.992 4117.87,251.325 4111.5,252.5C 4111.33,233.164 4111.5,213.83 4112,194.5C 4114.19,191.465 4117.02,189.465 4120.5,188.5 Z M 4647.5,188.5 C 4657.84,188.334 4668.17,188.5 4678.5,189C 4681.11,194.699 4681.61,200.533 4680,206.5C 4675.41,211.043 4669.91,213.876 4663.5,215C 4657.86,216.361 4652.19,217.528 4646.5,218.5C 4646.19,208.418 4646.53,198.418 4647.5,188.5 Z M 4692.5,188.5 C 4705.84,188.333 4719.17,188.5 4732.5,189C 4734.29,189.785 4735.79,190.951 4737,192.5C 4743.14,207.974 4753.97,218.808 4769.5,225C 4807.78,238.259 4845.78,237.593 4883.5,223C 4897.42,217.411 4906.92,207.577 4912,193.5C 4913.64,191.19 4915.8,189.69 4918.5,189C 5035.83,188.333 5153.17,188.333 5270.5,189C 5272.49,215.94 5273.15,243.107 5272.5,270.5C 5078.83,270.5 4885.17,270.5 4691.5,270.5C 4691.33,262.493 4691.5,254.493 4692,246.5C 4692.88,243.898 4694.38,241.731 4696.5,240C 4704.02,239.471 4708.86,235.637 4711,228.5C 4710.71,219.143 4710.87,209.809 4711.5,200.5C 4705.14,201.672 4698.81,203.006 4692.5,204.5C 4692.5,199.167 4692.5,193.833 4692.5,188.5 Z M 4784.5,188.5 C 4810.84,188.333 4837.17,188.5 4863.5,189C 4869.67,192.845 4871.83,198.345 4870,205.5C 4867.19,213.641 4861.69,219.141 4853.5,222C 4829.72,229.742 4809.56,224.242 4793,205.5C 4789.1,200.358 4786.26,194.691 4784.5,188.5 Z M 4224.5,189.5 C 4254.61,188.129 4275.77,201.129 4288,228.5C 4291.67,237.793 4292,247.126 4289,256.5C 4283.77,266.225 4275.6,271.225 4264.5,271.5C 4248.72,272.512 4234.05,269.012 4220.5,261C 4200.52,244.724 4195.02,224.557 4204,200.5C 4209.86,194.825 4216.69,191.158 4224.5,189.5 Z M 4297.5,190.5 C 4410,189.5 4522.67,189.167 4635.5,189.5C 4635.67,198.839 4635.5,208.173 4635,217.5C 4634.12,220.102 4632.62,222.269 4630.5,224C 4626.2,224.898 4622.37,226.731 4619,229.5C 4617.09,233.265 4615.93,237.265 4615.5,241.5C 4616.1,248.829 4616.77,256.162 4617.5,263.5C 4623.11,262.177 4628.77,261.177 4634.5,260.5C 4635.26,263.141 4635.43,265.808 4635,268.5C 4634.1,269.701 4632.93,270.535 4631.5,271C 4522.83,271.667 4414.17,271.667 4305.5,271C 4316.38,264.451 4324.88,255.617 4331,244.5C 4336,225.823 4330.5,210.989 4314.5,200C 4309.1,196.302 4303.44,193.136 4297.5,190.5 Z M 4098.5,193.5 C 4099.5,193.5 4100.5,193.5 4101.5,193.5C 4101.95,213.554 4101.45,233.554 4100,253.5C 4099.17,255.667 4097.67,257.167 4095.5,258C 4086.27,261.466 4076.93,264.633 4067.5,267.5C 4065.24,247.532 4065.07,227.532 4067,207.5C 4068.94,204.894 4071.44,203.061 4074.5,202C 4082.71,199.432 4090.71,196.598 4098.5,193.5 Z M 3646.5,233.5 C 3672.35,234.183 3689.68,246.683 3698.5,271C 3671.75,271.982 3645.08,271.648 3618.5,270C 3615.38,267.6 3614.05,264.433 3614.5,260.5C 3614.94,249.904 3619.94,242.404 3629.5,238C 3635.18,236 3640.84,234.5 3646.5,233.5 Z M 3512.5,240.5 C 3513.5,240.5 3514.5,240.5 3515.5,240.5C 3515.5,250.5 3515.5,260.5 3515.5,270.5C 3504.83,270.667 3494.16,270.5 3483.5,270C 3478.29,256.92 3482.29,248.253 3495.5,244C 3501.3,242.816 3506.97,241.649 3512.5,240.5 Z M 4675.5,246.5 C 4677.17,246.5 4678.83,246.5 4680.5,246.5C 4680.5,254.5 4680.5,262.5 4680.5,270.5C 4669.17,270.5 4657.83,270.5 4646.5,270.5C 4645.53,259.306 4650.53,252.473 4661.5,250C 4666.34,249.005 4671.01,247.838 4675.5,246.5 Z M 231.5,281.5 C 1110.5,281.5 1989.5,281.5 2868.5,281.5C 2868.5,289.5 2868.5,297.5 2868.5,305.5C 2874.85,304.608 2881.19,303.608 2887.5,302.5C 2887.67,321.503 2887.5,340.503 2887,359.5C 2884.7,362.738 2881.53,364.572 2877.5,365C 2782.83,365.667 2688.17,365.667 2593.5,365C 2590.62,364.562 2587.96,363.562 2585.5,362C 2562.63,332.233 2532.3,317.4 2494.5,317.5C 2469.56,317.893 2446.9,325.06 2426.5,339C 2418.47,346.697 2410.8,354.697 2403.5,363C 2401.91,363.862 2400.25,364.529 2398.5,365C 2214.81,365.83 2031.14,365.663 1847.5,364.5C 1847.14,355.454 1846.48,346.454 1845.5,337.5C 1844.83,337.167 1844.17,336.833 1843.5,336.5C 1838.28,337.452 1833.11,338.452 1828,339.5C 1827.9,324.127 1827.23,308.794 1826,293.5C 1824.71,291.208 1823.04,289.208 1821,287.5C 1818.14,291.315 1816.81,295.648 1817,300.5C 1816.25,311.352 1816.41,322.185 1817.5,333C 1817.76,338.817 1815.43,343.151 1810.5,346C 1801.07,348.532 1791.74,351.365 1782.5,354.5C 1781.67,338.51 1781.17,322.51 1781,306.5C 1779.08,302.407 1776.24,299.074 1772.5,296.5C 1771.67,315.825 1771.17,335.158 1771,354.5C 1769.5,357.333 1767.33,359.5 1764.5,361C 1757.83,362.333 1751.17,363.667 1744.5,365C 1577.82,365.824 1411.15,365.657 1244.5,364.5C 1244.67,357.825 1244.5,351.158 1244,344.5C 1242.72,341.397 1240.89,338.731 1238.5,336.5C 1233.76,345.309 1232.42,354.643 1234.5,364.5C 1223.81,364.832 1213.15,364.499 1202.5,363.5C 1199.53,358.036 1196.37,352.703 1193,347.5C 1190.15,352.895 1187.98,358.562 1186.5,364.5C 1032.68,365.163 878.85,365.496 725,365.5C 567.489,365.655 409.989,365.155 252.5,364C 242.305,363.807 236.471,358.64 235,348.5C 231.112,329.34 227.279,310.174 223.5,291C 223.862,285.811 226.528,282.644 231.5,281.5 Z M 3061.5,281.5 C 3081.26,280.633 3097.09,287.967 3109,303.5C 3136.73,348.233 3124.56,368.4 3072.5,364C 3049.78,356.613 3036.28,341.113 3032,317.5C 3030.27,296.057 3040.11,284.057 3061.5,281.5 Z M 3527.5,281.5 C 3541.57,281.053 3555.57,281.553 3569.5,283C 3570.67,284.167 3571.83,285.333 3573,286.5C 3578.35,300.52 3587.85,310.687 3601.5,317C 3640.16,331 3678.83,331 3717.5,317C 3732.19,310.308 3742.86,299.641 3749.5,285C 3751.96,283.438 3754.62,282.438 3757.5,282C 3850.17,281.5 3942.83,281.333 4035.5,281.5C 4035.5,291.5 4035.5,301.5 4035.5,311.5C 4042.13,310.284 4048.8,309.284 4055.5,308.5C 4055.5,325.5 4055.5,342.5 4055.5,359.5C 4057.51,360.014 4059.51,360.18 4061.5,360C 4062.54,358.082 4063.71,356.249 4065,354.5C 4066.79,342.027 4066.96,329.527 4065.5,317C 4065.21,307.565 4069.54,301.565 4078.5,299C 4086.23,297.318 4093.9,295.484 4101.5,293.5C 4101.17,311.512 4101.5,329.512 4102.5,347.5C 4104.2,348.681 4105.86,348.681 4107.5,347.5C 4108.94,344.95 4110.11,342.284 4111,339.5C 4111.03,323.075 4111.7,306.742 4113,290.5C 4114.95,288.106 4117.45,286.606 4120.5,286C 4127.84,284.665 4135.17,283.332 4142.5,282C 4304.5,281.333 4466.5,281.333 4628.5,282C 4633.59,283.84 4636.26,287.507 4636.5,293C 4635.49,297.471 4635.32,301.971 4636,306.5C 4638.47,312.584 4641.47,312.918 4645,307.5C 4645.5,299.173 4645.67,290.84 4645.5,282.5C 4657.17,282.5 4668.83,282.5 4680.5,282.5C 4681.17,288.5 4681.83,294.5 4682.5,300.5C 4684.6,300.799 4686.6,300.466 4688.5,299.5C 4690.17,294.167 4691.83,288.833 4693.5,283.5C 4886.5,282.5 5079.5,282.167 5272.5,282.5C 5272.5,309.833 5272.5,337.167 5272.5,364.5C 4690.83,364.5 4109.17,364.5 3527.5,364.5C 3526.05,355.807 3526.21,347.141 3528,338.5C 3528.79,336.413 3529.96,334.579 3531.5,333C 3538.09,332.634 3542.59,329.468 3545,323.5C 3545.5,313.839 3545.67,304.172 3545.5,294.5C 3539.46,295.242 3533.46,296.242 3527.5,297.5C 3527.5,292.167 3527.5,286.833 3527.5,281.5 Z M 3618.5,282.5 C 3644.33,281.337 3670.33,281.17 3696.5,282C 3702.71,283.544 3706.04,287.544 3706.5,294C 3704.26,306.909 3696.59,314.575 3683.5,317C 3661.87,322.014 3643.71,316.18 3629,299.5C 3624.97,294.104 3621.47,288.438 3618.5,282.5 Z M 2945.5,282.5 C 2971.17,282.333 2996.84,282.5 3022.5,283C 3013.01,288.167 3004.51,294.667 2997,302.5C 2984.79,322.685 2987.62,340.518 3005.5,356C 3008.99,358.911 3012.66,361.578 3016.5,364C 2999.17,364.5 2981.84,364.667 2964.5,364.5C 2963.5,357.199 2962.84,349.866 2962.5,342.5C 2956.85,343.275 2951.18,343.942 2945.5,344.5C 2945.5,323.833 2945.5,303.167 2945.5,282.5 Z M 3133.5,283.5 C 3245.67,282.5 3358,282.167 3470.5,282.5C 3470.84,292.883 3470.34,303.216 3469,313.5C 3468.53,314.931 3467.7,316.097 3466.5,317C 3462.7,317.96 3459.03,319.294 3455.5,321C 3453.11,322.952 3451.61,325.452 3451,328.5C 3450.08,338.242 3450.41,347.908 3452,357.5C 3457.4,355.687 3462.9,354.52 3468.5,354C 3471.96,358.96 3470.96,362.626 3465.5,365C 3357.5,365.667 3249.5,365.667 3141.5,365C 3141.17,364.667 3140.83,364.333 3140.5,364C 3149.12,356.39 3156.62,347.89 3163,338.5C 3166.66,331.239 3167,323.905 3164,316.5C 3155.75,303.749 3145.58,292.749 3133.5,283.5 Z M 3481.5,282.5 C 3492.19,282.168 3502.85,282.501 3513.5,283.5C 3514.5,287.5 3515.5,291.5 3516.5,295.5C 3515.84,298.659 3514.18,301.159 3511.5,303C 3501.75,306.749 3491.75,309.582 3481.5,311.5C 3481.5,301.833 3481.5,292.167 3481.5,282.5 Z M 2931.5,286.5 C 2932.83,295.642 2933.5,305.142 2933.5,315C 2933.63,325.569 2933.13,336.069 2932,346.5C 2931.17,348.667 2929.67,350.167 2927.5,351C 2918.06,354.702 2908.56,358.202 2899,361.5C 2898.12,341.472 2898.45,321.472 2900,301.5C 2901.17,299 2903,297.167 2905.5,296C 2914.3,292.902 2922.97,289.735 2931.5,286.5 Z M 211.5,291.5 C 217.276,315.617 222.609,339.95 227.5,364.5C 198.831,364.667 170.165,364.5 141.5,364C 140.5,363 139.5,362 138.5,361C 163.032,337.967 187.365,314.8 211.5,291.5 Z M 2479.5,326.5 C 2507.07,326.421 2525.07,339.421 2533.5,365.5C 2508.16,365.667 2482.83,365.5 2457.5,365C 2452.1,362.872 2449.43,358.872 2449.5,353C 2449.79,344.41 2453.46,337.743 2460.5,333C 2466.59,329.738 2472.92,327.571 2479.5,326.5 Z M 3512.5,339.5 C 3513.5,339.5 3514.5,339.5 3515.5,339.5C 3515.5,348.167 3515.5,356.833 3515.5,365.5C 3505.16,365.666 3494.83,365.5 3484.5,365C 3480.25,358.893 3480.59,353.226 3485.5,348C 3494.47,344.682 3503.47,341.849 3512.5,339.5 Z M 138.5,374.5 C 158.919,374.784 179.253,375.617 199.5,377C 168.724,395.381 154.391,422.548 156.5,458.5C 139.923,458.825 123.423,458.492 107,457.5C 105.549,430.521 111.882,405.521 126,382.5C 129.671,378.923 133.838,376.256 138.5,374.5 Z M 1206.5,374.5 C 1215.52,374.926 1224.52,375.593 1233.5,376.5C 1234.86,388.642 1229.53,395.808 1217.5,398C 1213.18,398.898 1208.85,399.731 1204.5,400.5C 1203.23,400.43 1202.06,400.097 1201,399.5C 1199.6,392.548 1199.27,385.548 1200,378.5C 1202.01,376.752 1204.18,375.418 1206.5,374.5 Z M 1253.5,374.5 C 1419.5,374.5 1585.5,374.5 1751.5,374.5C 1751.45,382.865 1751.95,391.198 1753,399.5C 1758.79,397.76 1764.62,396.094 1770.5,394.5C 1771.94,414.202 1771.77,433.868 1770,453.5C 1767.75,455.377 1765.25,456.877 1762.5,458C 1756.87,458.869 1751.2,459.369 1745.5,459.5C 1654.83,458.384 1564.17,458.218 1473.5,459C 1470.77,458.587 1468.1,457.92 1465.5,457C 1459.54,449.372 1453.21,442.038 1446.5,435C 1434.69,425.765 1421.36,419.765 1406.5,417C 1368.99,408.471 1334.33,414.805 1302.5,436C 1297.56,440.714 1293.72,446.214 1291,452.5C 1285.75,457.56 1279.42,459.894 1272,459.5C 1262.85,458.668 1253.69,458.334 1244.5,458.5C 1244.07,448.088 1244.57,437.754 1246,427.5C 1246.52,425.777 1247.52,424.444 1249,423.5C 1260.59,421.575 1265.75,414.742 1264.5,403C 1263.86,396.847 1263.53,390.681 1263.5,384.5C 1257.91,385.178 1252.41,386.178 1247,387.5C 1242.83,379.832 1245,375.499 1253.5,374.5 Z M 1947.5,374.5 C 1967.75,375.034 1983.25,383.7 1994,400.5C 2000.56,410.779 2004.72,421.946 2006.5,434C 2005.77,445.071 2000.11,452.404 1989.5,456C 1961.39,462.855 1938.89,454.689 1922,431.5C 1915.55,420.155 1913.88,408.155 1917,395.5C 1922.99,382.336 1933.15,375.336 1947.5,374.5 Z M 2012.5,375.5 C 2140.33,374.334 2268.33,374.167 2396.5,375C 2400.29,375.23 2403.62,376.563 2406.5,379C 2415.48,398.648 2430.48,410.981 2451.5,416C 2485.89,421.059 2519.89,419.059 2553.5,410C 2567.42,404.411 2576.92,394.577 2582,380.5C 2583.73,378.383 2585.9,376.883 2588.5,376C 2679.5,374.872 2770.5,374.539 2861.5,375C 2864.49,375.406 2866.66,376.906 2868,379.5C 2868.33,388.167 2868.67,396.833 2869,405.5C 2875.03,403.619 2881.19,402.286 2887.5,401.5C 2887.11,416.211 2887.61,430.878 2889,445.5C 2890.27,448.433 2891.94,451.099 2894,453.5C 2898.15,445.219 2899.99,436.386 2899.5,427C 2898.69,418.839 2898.52,410.673 2899,402.5C 2900.83,398 2904,394.833 2908.5,393C 2916.89,390.986 2925.22,388.819 2933.5,386.5C 2933.33,402.17 2933.5,417.837 2934,433.5C 2935.59,435.67 2936.92,438.004 2938,440.5C 2940.76,437.982 2942.76,434.982 2944,431.5C 2944.81,418.454 2944.65,405.454 2943.5,392.5C 2943.91,386.169 2946.91,381.669 2952.5,379C 2957.14,377.872 2961.81,376.872 2966.5,376C 3131.16,374.587 3295.83,374.253 3460.5,375C 3463.69,375.001 3466.52,375.834 3469,377.5C 3470.36,386.961 3472.36,396.294 3475,405.5C 3478.89,396.604 3481.22,387.271 3482,377.5C 3492.09,376.348 3502.26,376.181 3512.5,377C 3515.63,382.085 3518.63,387.251 3521.5,392.5C 3524.39,387.725 3527.06,382.725 3529.5,377.5C 4110.5,376.5 4691.5,376.167 5272.5,376.5C 5272.5,403.5 5272.5,430.5 5272.5,457.5C 4188.83,457.667 3105.17,457.5 2021.5,457C 2030.95,451.212 2038.79,443.712 2045,434.5C 2052.69,414.228 2047.52,398.062 2029.5,386C 2023.93,382.248 2018.26,378.748 2012.5,375.5 Z M 2453.5,375.5 C 2480.01,374.218 2506.68,374.385 2533.5,376C 2536.62,377.445 2538.62,379.778 2539.5,383C 2538.03,391.262 2534.7,398.595 2529.5,405C 2503.97,417.827 2481.8,413.327 2463,391.5C 2459.56,386.268 2456.39,380.935 2453.5,375.5 Z M 298.5,376.5 C 595,375.5 891.666,375.167 1188.5,375.5C 1188.67,384.173 1188.5,392.84 1188,401.5C 1186.35,406.474 1182.85,408.974 1177.5,409C 1172.45,410.717 1169.62,414.217 1169,419.5C 1168.17,428.851 1168.33,438.184 1169.5,447.5C 1175.38,445.906 1181.21,444.24 1187,442.5C 1187.5,447.823 1187.67,453.156 1187.5,458.5C 1019.17,458.667 850.833,458.5 682.5,458C 681.65,448.558 680.816,439.058 680,429.5C 674.245,430.765 668.412,431.765 662.5,432.5C 662.667,417.83 662.5,403.163 662,388.5C 660.999,385.827 659.499,383.493 657.5,381.5C 655.081,383.754 653.248,386.421 652,389.5C 651.952,404.568 651.285,419.568 650,434.5C 648.127,436.709 645.96,438.542 643.5,440C 634.459,442.236 625.626,445.069 617,448.5C 616.667,432.5 616.333,416.5 616,400.5C 614.608,392.35 611.941,391.683 608,398.5C 606.908,401.044 606.241,403.711 606,406.5C 605.23,418.187 605.397,429.853 606.5,441.5C 606.67,448.68 603.337,453.18 596.5,455C 592.131,455.842 587.797,456.842 583.5,458C 504.167,458.667 424.833,458.667 345.5,458C 344.726,428.649 333.393,404.316 311.5,385C 307.266,381.918 302.933,379.084 298.5,376.5 Z M 1833.5,375.5 C 1857.17,375.333 1880.84,375.5 1904.5,376C 1891.86,384.968 1881.7,396.135 1874,409.5C 1871.05,419.188 1872.38,428.188 1878,436.5C 1884.5,444.333 1891.67,451.5 1899.5,458C 1882.17,458.5 1864.84,458.667 1847.5,458.5C 1846.86,450.85 1846.52,443.183 1846.5,435.5C 1840.42,436.068 1834.42,437.068 1828.5,438.5C 1827.33,419.509 1827.17,400.509 1828,381.5C 1829.36,378.977 1831.19,376.977 1833.5,375.5 Z M 1815.5,379.5 C 1816.66,399.329 1816.83,419.329 1816,439.5C 1814.75,442.381 1812.58,444.214 1809.5,445C 1800.38,448.373 1791.21,451.54 1782,454.5C 1781.04,434.102 1781.37,413.769 1783,393.5C 1784.54,391.622 1786.38,390.122 1788.5,389C 1797.71,386.098 1806.71,382.932 1815.5,379.5 Z M 253.5,407.5 C 279.683,408.021 297.183,420.688 306,445.5C 307.314,449.754 308.147,454.087 308.5,458.5C 292.737,458.969 277.071,458.469 261.5,457C 259.19,455.363 257.69,453.196 257,450.5C 254.229,437.142 251.395,423.809 248.5,410.5C 249.947,409.065 251.614,408.065 253.5,407.5 Z M 235.5,409.5 C 236.586,409.62 237.253,410.287 237.5,411.5C 240.708,426.872 244.041,442.206 247.5,457.5C 226.5,458.833 205.5,458.833 184.5,457.5C 183.25,453.146 183.416,448.813 185,444.5C 195.756,424.041 212.589,412.374 235.5,409.5 Z M 1356.5,423.5 C 1384.09,420.465 1402.75,431.798 1412.5,457.5C 1385.51,458.5 1358.51,458.833 1331.5,458.5C 1328.35,447.268 1331.01,437.768 1339.5,430C 1345.02,427.11 1350.69,424.943 1356.5,423.5 Z M 1232.5,428.5 C 1233.49,438.319 1233.83,448.319 1233.5,458.5C 1222.81,458.832 1212.15,458.499 1201.5,457.5C 1199.68,452.638 1199.18,447.638 1200,442.5C 1201.12,440.376 1202.62,438.543 1204.5,437C 1213.66,433.215 1223,430.382 1232.5,428.5 Z M 204.5,468.5 C 217.175,468.734 229.841,469.234 242.5,470C 245.562,471.061 248.062,472.894 250,475.5C 255.732,495.499 259.899,515.666 262.5,536C 242.899,545.991 222.232,548.991 200.5,545C 170.459,539.736 145.625,525.569 126,502.5C 118.437,492.706 113.603,481.706 111.5,469.5C 126.504,469.333 141.504,469.5 156.5,470C 163.711,478.054 171.377,485.721 179.5,493C 186.304,497.716 193.804,500.882 202,502.5C 202.833,502.167 203.667,501.833 204.5,501.5C 197.747,490.994 190.747,480.66 183.5,470.5C 190.655,469.833 197.655,469.167 204.5,468.5 Z M 1212.5,468.5 C 1219.52,469.02 1226.52,469.687 1233.5,470.5C 1233.67,476.176 1233.5,481.843 1233,487.5C 1230.35,492.418 1226.19,495.251 1220.5,496C 1214.49,497.503 1208.49,499.003 1202.5,500.5C 1198.67,492.829 1197.5,484.829 1199,476.5C 1202.27,471.622 1206.77,468.955 1212.5,468.5 Z M 1272.5,468.5 C 1277.69,468.462 1282.35,469.962 1286.5,473C 1297.32,493.926 1314.32,506.926 1337.5,512C 1372.98,521.519 1406.98,517.852 1439.5,501C 1449.17,490 1459.5,479.667 1470.5,470C 1563.5,469.333 1656.5,469.333 1749.5,470C 1751.46,478.901 1752.12,488.068 1751.5,497.5C 1758.2,496.716 1764.87,495.716 1771.5,494.5C 1771.5,511.5 1771.5,528.5 1771.5,545.5C 1773.14,545.286 1774.64,545.62 1776,546.5C 1778.17,544.17 1779.83,541.503 1781,538.5C 1781.05,523.099 1781.71,507.766 1783,492.5C 1784.87,490.291 1787.04,488.458 1789.5,487C 1798.53,484.703 1807.36,481.87 1816,478.5C 1816.5,496.83 1816.67,515.164 1816.5,533.5C 1818.58,533.698 1820.58,533.865 1822.5,534C 1823.67,532.167 1824.83,530.333 1826,528.5C 1827.78,513.855 1827.95,499.188 1826.5,484.5C 1826.59,478.798 1829.26,474.965 1834.5,473C 1839.45,471.744 1844.45,470.744 1849.5,470C 2990.5,469.5 4131.5,469.333 5272.5,469.5C 5272.5,496.833 5272.5,524.167 5272.5,551.5C 3929.83,551.5 2587.17,551.5 1244.5,551.5C 1244.1,543.415 1244.6,535.415 1246,527.5C 1246.71,525.919 1247.54,524.419 1248.5,523C 1256.42,522.063 1261.59,517.897 1264,510.5C 1263.92,501.13 1264.08,491.797 1264.5,482.5C 1258.59,484.015 1252.59,485.015 1246.5,485.5C 1245.96,482.154 1245.3,478.82 1244.5,475.5C 1244.76,473.813 1245.43,472.313 1246.5,471C 1255.24,469.891 1263.91,469.058 1272.5,468.5 Z M 261.5,469.5 C 277.167,469.5 292.833,469.5 308.5,469.5C 309.413,481.768 306.58,493.101 300,503.5C 292.957,513.544 284.29,521.877 274,528.5C 269.767,508.834 265.6,489.167 261.5,469.5 Z M 347.5,469.5 C 426.167,469.333 504.834,469.5 583.5,470C 584.684,471.18 585.351,472.68 585.5,474.5C 585.895,480.601 586.728,486.601 588,492.5C 593.723,490.778 599.556,489.445 605.5,488.5C 605.667,507.836 605.5,527.17 605,546.5C 603.127,548.709 600.96,550.542 598.5,552C 493.833,552.667 389.167,552.667 284.5,552C 277.901,550.462 276.901,547.295 281.5,542.5C 301.349,531.15 317.849,516.15 331,497.5C 335.101,490.538 338.434,483.204 341,475.5C 342.914,473.144 345.081,471.144 347.5,469.5 Z M 782.5,469.5 C 811.767,471.042 830.934,485.709 840,513.5C 845.477,536.042 836.643,548.875 813.5,552C 785.138,553.943 764.971,542.11 753,516.5C 742.747,487.607 752.581,471.941 782.5,469.5 Z M 1334.5,469.5 C 1361.17,469.333 1387.84,469.5 1414.5,470C 1417.33,471.5 1419.5,473.667 1421,476.5C 1423.2,489.585 1418.04,498.419 1405.5,503C 1380.17,511.546 1359,505.713 1342,485.5C 1338.69,480.537 1336.19,475.204 1334.5,469.5 Z M 663.5,470.5 C 688.169,470.333 712.836,470.5 737.5,471C 728.652,476.188 720.819,482.688 714,490.5C 703.547,512.195 707.714,530.695 726.5,546C 729.672,547.752 732.672,549.752 735.5,552C 717.836,552.5 700.17,552.667 682.5,552.5C 681.613,544.524 680.946,536.524 680.5,528.5C 674.807,529.34 669.14,530.34 663.5,531.5C 663.5,511.167 663.5,490.833 663.5,470.5 Z M 852.5,471.5 C 964.332,470.5 1076.33,470.167 1188.5,470.5C 1188.93,480.912 1188.43,491.246 1187,501.5C 1186.22,503.286 1185.05,504.786 1183.5,506C 1176.18,506.886 1171.35,510.719 1169,517.5C 1169.08,526.869 1168.92,536.203 1168.5,545.5C 1174.02,544.663 1179.52,543.663 1185,542.5C 1186.93,544.016 1188.09,546.016 1188.5,548.5C 1188.41,550.425 1187.41,551.592 1185.5,552C 1074.83,552.667 964.167,552.667 853.5,552C 865.461,544.708 874.627,534.875 881,522.5C 884.482,510.439 882.482,499.439 875,489.5C 868.76,481.742 861.26,475.742 852.5,471.5 Z M 648.5,473.5 C 649.5,473.5 650.5,473.5 651.5,473.5C 651.952,493.554 651.452,513.554 650,533.5C 648.062,536.106 645.562,537.939 642.5,539C 634.298,542.013 625.964,544.513 617.5,546.5C 617.333,526.831 617.5,507.164 618,487.5C 619.944,484.266 622.778,482.1 626.5,481C 633.979,478.563 641.313,476.063 648.5,473.5 Z M 1227.5,528.5 C 1229.5,528.5 1231.5,528.5 1233.5,528.5C 1233.5,536.167 1233.5,543.833 1233.5,551.5C 1222.41,552.13 1211.58,551.463 1201,549.5C 1199.68,543.457 1201.51,538.624 1206.5,535C 1213.29,531.726 1220.29,529.559 1227.5,528.5 Z"/></g>
<g><path style="opacity:0.932" fill="#000000" d="M 3138.5,970.5 C 3137.83,970.5 3137.17,970.5 3136.5,970.5C 3135.13,968.286 3133.96,965.953 3133,963.5C 3132.9,955.756 3132.23,948.089 3131,940.5C 3128.09,937.627 3124.59,936.294 3120.5,936.5C 3120.33,930.824 3120.5,925.157 3121,919.5C 3122.67,915.835 3125.5,913.668 3129.5,913C 3130.19,911.933 3130.69,910.766 3131,909.5C 3131.5,898.505 3131.67,887.505 3131.5,876.5C 3127.83,876.5 3124.17,876.5 3120.5,876.5C 3120.66,872.293 3120.33,868.126 3119.5,864C 3120.09,857.408 3123.59,853.242 3130,851.5C 3131.41,840.23 3131.91,828.896 3131.5,817.5C 3133.5,817.5 3135.5,817.5 3137.5,817.5C 3138.1,826.488 3138.6,835.488 3139,844.5C 3139.22,845.938 3139.72,847.271 3140.5,848.5C 3144.83,847.749 3149.17,846.916 3153.5,846C 3156,844.833 3157.83,843 3159,840.5C 3159.5,830.172 3159.67,819.839 3159.5,809.5C 3161.5,809.167 3163.5,808.833 3165.5,808.5C 3166.29,818.823 3166.96,829.156 3167.5,839.5C 3171.51,839.334 3175.51,839.501 3179.5,840C 3178.69,845.417 3178.19,850.917 3178,856.5C 3174.56,859.247 3171.23,862.247 3168,865.5C 3167.67,866.5 3167.33,867.5 3167,868.5C 3167.55,879.153 3167.39,889.82 3166.5,900.5C 3170.17,900.5 3173.83,900.5 3177.5,900.5C 3177.92,904.879 3178.59,909.212 3179.5,913.5C 3178.99,916.743 3177.65,919.576 3175.5,922C 3172.49,922.768 3169.99,924.268 3168,926.5C 3166.68,937.456 3166.18,948.456 3166.5,959.5C 3164.5,959.5 3162.5,959.5 3160.5,959.5C 3160.61,949.115 3159.95,938.782 3158.5,928.5C 3152.27,928.848 3146.44,930.515 3141,933.5C 3140.14,935.087 3139.47,936.754 3139,938.5C 3138.5,949.161 3138.33,959.828 3138.5,970.5 Z M 3155.5,867.5 C 3156.5,867.5 3157.5,867.5 3158.5,867.5C 3159.61,874.474 3160.61,881.474 3161.5,888.5C 3160.12,901.541 3152.79,908.541 3139.5,909.5C 3138.74,902.016 3138.08,894.516 3137.5,887C 3136.69,880.144 3139.03,874.81 3144.5,871C 3148.25,869.691 3151.92,868.525 3155.5,867.5 Z"/></g>
<g><path style="opacity:0.932" fill="#000000" d="M 1462.5,809.5 C 1464.5,809.5 1466.5,809.5 1468.5,809.5C 1468.72,818.513 1469.22,827.513 1470,836.5C 1473.33,839.011 1477.16,840.011 1481.5,839.5C 1481.87,845.925 1481.37,852.258 1480,858.5C 1476.96,860.845 1473.96,863.178 1471,865.5C 1469.62,876.779 1469.12,888.112 1469.5,899.5C 1473.23,899.177 1476.89,899.511 1480.5,900.5C 1482.19,907.365 1481.69,914.032 1479,920.5C 1476.91,921.794 1474.75,922.961 1472.5,924C 1471,925.491 1470.16,927.324 1470,929.5C 1469.5,939.494 1469.33,949.494 1469.5,959.5C 1467.5,959.5 1465.5,959.5 1463.5,959.5C 1462.94,949.155 1462.28,938.822 1461.5,928.5C 1455.3,928.372 1449.47,929.705 1444,932.5C 1442.96,934.715 1442.29,937.048 1442,939.5C 1441.5,948.827 1441.33,958.161 1441.5,967.5C 1439.5,967.5 1437.5,967.5 1435.5,967.5C 1435.05,957.481 1434.39,947.481 1433.5,937.5C 1428.5,937.5 1423.5,937.5 1418.5,937.5C 1423.11,926.952 1428.27,916.619 1434,906.5C 1434.5,896.506 1434.67,886.506 1434.5,876.5C 1430.5,876.5 1426.5,876.5 1422.5,876.5C 1422.66,872.293 1422.33,868.126 1421.5,864C 1421.91,857.589 1425.24,853.589 1431.5,852C 1432.72,850.562 1433.39,848.895 1433.5,847C 1434.44,836.862 1434.77,826.696 1434.5,816.5C 1436.5,816.5 1438.5,816.5 1440.5,816.5C 1441.17,826.5 1441.83,836.5 1442.5,846.5C 1446.18,846.665 1449.85,846.499 1453.5,846C 1458.79,845.042 1461.62,841.876 1462,836.5C 1462.5,827.506 1462.67,818.506 1462.5,809.5 Z M 1456.5,867.5 C 1458.17,867.5 1459.83,867.5 1461.5,867.5C 1463.15,877.441 1463.65,887.441 1463,897.5C 1462.12,900.102 1460.62,902.269 1458.5,904C 1453.61,907.018 1448.44,908.185 1443,907.5C 1440.56,896.858 1440.23,886.192 1442,875.5C 1445.81,870.852 1450.65,868.185 1456.5,867.5 Z"/></g>
<g><path style="opacity:0.935" fill="#000000" d="M 2046.5,809.5 C 2048.5,809.5 2050.5,809.5 2052.5,809.5C 2053.17,819.167 2053.83,828.833 2054.5,838.5C 2058.45,839.272 2062.45,839.605 2066.5,839.5C 2066.3,843.622 2065.47,847.622 2064,851.5C 2059.5,860.169 2055.83,869.169 2053,878.5C 2051.78,885.767 2052.95,892.6 2056.5,899C 2063.8,898.131 2066.8,901.298 2065.5,908.5C 2066.31,916.849 2062.81,922.515 2055,925.5C 2053.64,936.785 2053.14,948.119 2053.5,959.5C 2051.5,959.5 2049.5,959.5 2047.5,959.5C 2047.28,949.162 2046.95,938.829 2046.5,928.5C 2041.78,928.506 2037.12,929.006 2032.5,930C 2027.89,932.39 2025.72,936.223 2026,941.5C 2025.5,950.16 2025.33,958.827 2025.5,967.5C 2023.5,967.5 2021.5,967.5 2019.5,967.5C 2019.5,957.167 2019.5,946.833 2019.5,936.5C 2015.17,936.5 2010.83,936.5 2006.5,936.5C 2006.33,931.156 2006.5,925.823 2007,920.5C 2008.85,915.901 2012.18,912.901 2017,911.5C 2019.65,899.878 2019.98,888.212 2018,876.5C 2014.61,875.544 2011.11,875.211 2007.5,875.5C 2006.48,869.87 2006.31,864.204 2007,858.5C 2010.33,854.691 2013.99,851.357 2018,848.5C 2019.28,837.873 2019.78,827.207 2019.5,816.5C 2021.47,816.261 2023.3,816.594 2025,817.5C 2025.45,829.18 2026.11,840.846 2027,852.5C 2032.17,848.667 2037.33,844.833 2042.5,841C 2044.38,838.749 2045.88,836.249 2047,833.5C 2047.7,825.472 2047.53,817.472 2046.5,809.5 Z M 2040.5,867.5 C 2042.17,867.5 2043.83,867.5 2045.5,867.5C 2046.64,874.637 2047.64,881.804 2048.5,889C 2048.85,895.281 2046.52,900.281 2041.5,904C 2037.06,906.033 2032.56,907.867 2028,909.5C 2024.97,899.366 2023.97,889.032 2025,878.5C 2025.98,875.375 2027.81,872.875 2030.5,871C 2033.85,869.514 2037.18,868.347 2040.5,867.5 Z"/></g>
<g><path style="opacity:0.934" fill="#000000" d="M 4301.5,809.5 C 4303.17,809.5 4304.83,809.5 4306.5,809.5C 4306.75,819.503 4307.08,829.503 4307.5,839.5C 4311.17,839.5 4314.83,839.5 4318.5,839.5C 4318.55,843.188 4318.88,846.855 4319.5,850.5C 4319.69,857.631 4316.35,862.131 4309.5,864C 4308.81,865.067 4308.31,866.234 4308,867.5C 4307.5,878.495 4307.33,889.495 4307.5,900.5C 4311.5,900.5 4315.5,900.5 4319.5,900.5C 4319.86,906.593 4319.36,912.593 4318,918.5C 4310.7,921.764 4306.86,927.431 4306.5,935.5C 4308.44,943.512 4307.6,951.179 4304,958.5C 4303.59,958.957 4303.09,959.291 4302.5,959.5C 4300.79,949.584 4299.79,939.584 4299.5,929.5C 4293.01,928.93 4287.01,930.263 4281.5,933.5C 4280.03,936.308 4279.2,939.308 4279,942.5C 4278.5,950.827 4278.33,959.16 4278.5,967.5C 4276.83,967.5 4275.17,967.5 4273.5,967.5C 4272.72,957.512 4272.05,947.512 4271.5,937.5C 4268.12,937.54 4264.79,937.207 4261.5,936.5C 4260.49,931.204 4260.32,925.871 4261,920.5C 4263.39,916.447 4266.72,913.447 4271,911.5C 4272.53,899.543 4272.87,887.543 4272,875.5C 4268.61,876.456 4265.11,876.789 4261.5,876.5C 4260.7,870.848 4260.53,865.182 4261,859.5C 4263.06,855.777 4266.06,853.11 4270,851.5C 4271.04,849.285 4271.71,846.952 4272,844.5C 4272.5,835.506 4272.67,826.506 4272.5,817.5C 4274.17,817.5 4275.83,817.5 4277.5,817.5C 4278.38,827.806 4279.04,838.139 4279.5,848.5C 4285.96,848.298 4291.96,846.631 4297.5,843.5C 4298.79,841.333 4299.63,839 4300,836.5C 4300.22,827.453 4300.72,818.453 4301.5,809.5 Z M 4296.5,866.5 C 4297.75,866.577 4298.58,867.244 4299,868.5C 4301.56,878.808 4301.89,889.142 4300,899.5C 4297.91,903.302 4294.75,905.802 4290.5,907C 4286.93,908.31 4283.26,909.143 4279.5,909.5C 4279.5,897.167 4279.5,884.833 4279.5,872.5C 4285.53,871.269 4291.2,869.269 4296.5,866.5 Z"/></g>
<g><path style="opacity:0.938" fill="#000000" d="M 4881.5,810.5 C 4882.83,810.5 4884.17,810.5 4885.5,810.5C 4885.5,820.167 4885.5,829.833 4885.5,839.5C 4889.83,839.5 4894.17,839.5 4898.5,839.5C 4899.54,845.797 4899.71,852.13 4899,858.5C 4896.36,861.317 4893.36,863.65 4890,865.5C 4889.03,867.392 4888.36,869.392 4888,871.5C 4887.5,881.494 4887.33,891.494 4887.5,901.5C 4891.17,901.5 4894.83,901.5 4898.5,901.5C 4899.53,907.463 4899.7,913.463 4899,919.5C 4895.86,922.734 4892.52,925.734 4889,928.5C 4887.66,939.118 4887.16,949.784 4887.5,960.5C 4885.74,960.357 4884.07,960.691 4882.5,961.5C 4881.5,950.833 4880.5,940.167 4879.5,929.5C 4873.33,930.098 4867.5,931.765 4862,934.5C 4861.14,936.087 4860.47,937.754 4860,939.5C 4859.5,949.161 4859.33,958.828 4859.5,968.5C 4857.5,968.5 4855.5,968.5 4853.5,968.5C 4853.17,959.161 4852.67,949.828 4852,940.5C 4850.99,939.342 4849.66,938.675 4848,938.5C 4845.81,938.788 4843.65,939.122 4841.5,939.5C 4841.63,935.132 4841.3,930.798 4840.5,926.5C 4840.81,923.408 4841.81,920.575 4843.5,918C 4846.02,916.498 4848.52,914.998 4851,913.5C 4852.41,901.562 4852.91,889.562 4852.5,877.5C 4847.43,877.66 4842.43,877.16 4837.5,876C 4842.73,866.367 4847.57,856.533 4852,846.5C 4852.5,836.839 4852.67,827.172 4852.5,817.5C 4854.5,817.5 4856.5,817.5 4858.5,817.5C 4859.05,827.493 4859.55,837.493 4860,847.5C 4860.25,848.624 4860.75,849.624 4861.5,850.5C 4868.05,848.26 4874.55,845.927 4881,843.5C 4881.5,832.505 4881.67,821.505 4881.5,810.5 Z M 4875.5,868.5 C 4876.82,868.33 4877.99,868.663 4879,869.5C 4882.79,880.133 4883.12,890.8 4880,901.5C 4874.79,906.797 4868.45,909.797 4861,910.5C 4858.62,899.526 4858.28,888.526 4860,877.5C 4860.78,875.714 4861.95,874.214 4863.5,873C 4867.5,871.18 4871.5,869.68 4875.5,868.5 Z"/></g>
<g><path style="opacity:0.935" fill="#000000" d="M 832.5,970.5 C 830.5,970.5 828.5,970.5 826.5,970.5C 825.916,960.493 825.25,950.493 824.5,940.5C 820.833,940.5 817.167,940.5 813.5,940.5C 813.334,934.491 813.501,928.491 814,922.5C 822.586,918.832 826.419,912.332 825.5,903C 824.542,896.98 824.542,890.98 825.5,885C 825.369,882.747 824.869,880.581 824,878.5C 820.606,879.456 817.106,879.789 813.5,879.5C 813.334,873.491 813.501,867.491 814,861.5C 817.145,858.266 820.478,855.266 824,852.5C 825.375,841.889 825.875,831.222 825.5,820.5C 827.5,820.5 829.5,820.5 831.5,820.5C 832.042,830.179 832.709,839.846 833.5,849.5C 837.846,849.666 842.179,849.499 846.5,849C 850.521,847.132 852.687,843.965 853,839.5C 853.5,830.506 853.666,821.506 853.5,812.5C 855.5,812.167 857.5,811.833 859.5,811.5C 859.834,820.839 860.334,830.172 861,839.5C 861.374,840.416 861.874,841.25 862.5,842C 865.553,842.179 868.553,842.679 871.5,843.5C 873.176,850.035 872.676,856.369 870,862.5C 867.63,864.371 865.13,866.038 862.5,867.5C 861.846,869.115 861.346,870.782 861,872.5C 860.5,882.828 860.334,893.161 860.5,903.5C 864.198,903.448 867.865,903.114 871.5,902.5C 872.409,908.478 872.575,914.478 872,920.5C 871.215,922.286 870.049,923.786 868.5,925C 863.963,925.537 861.463,928.037 861,932.5C 860.5,942.494 860.334,952.494 860.5,962.5C 858.5,962.5 856.5,962.5 854.5,962.5C 854.028,952.479 853.362,942.479 852.5,932.5C 848.818,932.335 845.152,932.501 841.5,933C 836.21,933.958 833.376,937.124 833,942.5C 832.5,951.827 832.334,961.161 832.5,970.5 Z M 847.5,870.5 C 849.451,870.227 850.951,870.893 852,872.5C 854.267,881.381 854.934,890.381 854,899.5C 852.939,902.562 851.106,905.062 848.5,907C 844.213,909.427 839.713,911.261 835,912.5C 832.588,904.865 831.088,897.032 830.5,889C 830.422,883.156 832.755,878.49 837.5,875C 840.893,873.38 844.226,871.88 847.5,870.5 Z"/></g>
<g><path style="opacity:0.934" fill="#000000" d="M 3715.5,970.5 C 3713.83,970.5 3712.17,970.5 3710.5,970.5C 3710.05,960.472 3709.39,950.472 3708.5,940.5C 3704.8,940.448 3701.14,940.114 3697.5,939.5C 3697.34,933.445 3697.84,927.445 3699,921.5C 3703.26,919.58 3706.59,916.58 3709,912.5C 3709.5,901.172 3709.67,889.838 3709.5,878.5C 3705.88,879.244 3702.21,879.577 3698.5,879.5C 3697.7,873.848 3697.53,868.182 3698,862.5C 3700.09,858.58 3703.26,855.913 3707.5,854.5C 3708.15,852.885 3708.65,851.218 3709,849.5C 3709.5,839.839 3709.67,830.172 3709.5,820.5C 3711.5,820.5 3713.5,820.5 3715.5,820.5C 3716.01,830.512 3716.68,840.512 3717.5,850.5C 3721.88,850.423 3726.21,849.923 3730.5,849C 3732.94,848.226 3734.77,846.726 3736,844.5C 3737.43,833.578 3737.93,822.578 3737.5,811.5C 3739.5,811.5 3741.5,811.5 3743.5,811.5C 3744.05,821.512 3744.72,831.512 3745.5,841.5C 3749.12,842.244 3752.79,842.577 3756.5,842.5C 3756.87,848.925 3756.37,855.258 3755,861.5C 3751.92,864.186 3748.92,866.853 3746,869.5C 3744.67,880.79 3744.17,892.123 3744.5,903.5C 3748.17,903.5 3751.83,903.5 3755.5,903.5C 3756.52,909.13 3756.69,914.796 3756,920.5C 3753.66,924.346 3750.33,927.012 3746,928.5C 3744.62,939.779 3744.12,951.112 3744.5,962.5C 3742.5,962.5 3740.5,962.5 3738.5,962.5C 3738.08,952.503 3737.75,942.503 3737.5,932.5C 3733.49,932.334 3729.49,932.501 3725.5,933C 3720.21,933.958 3717.38,937.124 3717,942.5C 3716.61,951.845 3716.11,961.179 3715.5,970.5 Z M 3732.5,870.5 C 3733.83,870.5 3735.17,870.5 3736.5,870.5C 3737.55,881.811 3737.72,893.145 3737,904.5C 3736.17,906.667 3734.67,908.167 3732.5,909C 3727.97,910.171 3723.47,911.338 3719,912.5C 3715.89,903.073 3714.89,893.407 3716,883.5C 3716.61,880.452 3718.11,877.952 3720.5,876C 3724.45,873.855 3728.45,872.021 3732.5,870.5 Z"/></g>
<g><path style="opacity:0.956" fill="#000000" d="M 1332.5,828.5 C 1356.85,826.936 1377.35,834.936 1394,852.5C 1397.56,857.284 1399.73,862.617 1400.5,868.5C 1389.13,870.992 1378.79,868.826 1369.5,862C 1364.36,854.092 1357.03,849.759 1347.5,849C 1320.68,848.164 1303.85,860.664 1297,886.5C 1293.02,916.08 1305.18,934.913 1333.5,943C 1359.75,945.725 1376.08,934.392 1382.5,909C 1366.5,908.5 1350.5,908.333 1334.5,908.5C 1333.97,902.848 1333.63,897.181 1333.5,891.5C 1357.5,891.5 1381.5,891.5 1405.5,891.5C 1406.89,935.779 1385.55,960.112 1341.5,964.5C 1305.11,962.261 1282.61,943.595 1274,908.5C 1270.87,865.044 1290.37,838.378 1332.5,828.5 Z"/></g>
<g><path style="opacity:0.952" fill="#000000" d="M 3029.5,828.5 C 3052.85,825.891 3072.68,832.891 3089,849.5C 3093.4,855.13 3096.9,861.297 3099.5,868C 3088.75,870.652 3078.75,868.985 3069.5,863C 3058.72,849.405 3045.05,845.072 3028.5,850C 3006.25,857.132 2994.92,872.466 2994.5,896C 2994.82,917.33 3004.49,932.663 3023.5,942C 3036.23,945.972 3048.56,944.972 3060.5,939C 3065.17,935.667 3069.17,931.667 3072.5,927C 3081,922.735 3089.66,922.401 3098.5,926C 3091.31,945.854 3077.31,957.854 3056.5,962C 3021.54,969.035 2995.38,957.202 2978,926.5C 2970.72,906.534 2970.72,886.534 2978,866.5C 2988.95,845.437 3006.12,832.771 3029.5,828.5 Z"/></g>
<g><path style="opacity:0.96" fill="#000000" d="M 1919.5,830.5 C 1925.84,830.334 1932.18,830.5 1938.5,831C 1940.29,831.785 1941.79,832.951 1943,834.5C 1958.07,876.538 1973.23,918.538 1988.5,960.5C 1971.58,967.288 1961.42,961.621 1958,943.5C 1953.08,938.521 1947.08,935.854 1940,935.5C 1932.52,936.636 1925.02,936.636 1917.5,935.5C 1909.42,935.122 1902.92,938.122 1898,944.5C 1895.96,948.948 1894.13,953.448 1892.5,958C 1885.64,961.848 1878.47,964.014 1871,964.5C 1869.7,962.635 1869.37,960.635 1870,958.5C 1884.73,918.318 1899.06,877.985 1913,837.5C 1914.36,834.314 1916.52,831.981 1919.5,830.5 Z M 1927.5,861.5 C 1929.41,861.574 1930.58,862.574 1931,864.5C 1937.14,881.757 1942.97,899.091 1948.5,916.5C 1935.17,917.667 1921.83,917.667 1908.5,916.5C 1915.04,898.206 1921.38,879.873 1927.5,861.5 Z"/></g>
<g><path style="opacity:0.966" fill="#000000" d="M 2452.5,831.5 C 2473.5,831.333 2494.5,831.5 2515.5,832C 2529.35,833.19 2538.52,840.356 2543,853.5C 2547.69,870.098 2543.19,883.432 2529.5,893.5C 2536.41,900.905 2541.91,909.239 2546,918.5C 2550.43,943.086 2540.27,957.586 2515.5,962C 2494.52,963.484 2473.52,963.65 2452.5,962.5C 2452.5,918.833 2452.5,875.167 2452.5,831.5 Z M 2474.5,849.5 C 2486.89,849.082 2499.23,849.582 2511.5,851C 2521.8,857.467 2524.3,866.3 2519,877.5C 2516.74,880.433 2513.9,882.6 2510.5,884C 2498.55,885.391 2486.55,885.891 2474.5,885.5C 2474.5,873.5 2474.5,861.5 2474.5,849.5 Z M 2474.5,903.5 C 2487.96,903.507 2501.29,904.674 2514.5,907C 2521.81,910.669 2525.48,916.669 2525.5,925C 2525.32,934.034 2520.99,940.034 2512.5,943C 2499.89,944.398 2487.22,944.898 2474.5,944.5C 2474.5,930.833 2474.5,917.167 2474.5,903.5 Z"/></g>
<g><path style="opacity:0.951" fill="#000000" d="M 4167.5,831.5 C 4191.5,831.5 4215.5,831.5 4239.5,831.5C 4239.5,837.167 4239.5,842.833 4239.5,848.5C 4222.5,848.5 4205.5,848.5 4188.5,848.5C 4188.33,858.506 4188.5,868.506 4189,878.5C 4190.93,883.059 4194.43,885.559 4199.5,886C 4210.83,886.5 4222.16,886.667 4233.5,886.5C 4233.5,892.5 4233.5,898.5 4233.5,904.5C 4218.83,904.5 4204.17,904.5 4189.5,904.5C 4189.5,917.833 4189.5,931.167 4189.5,944.5C 4205.85,944.167 4222.18,944.501 4238.5,945.5C 4239.45,951.104 4239.79,956.771 4239.5,962.5C 4215.5,962.5 4191.5,962.5 4167.5,962.5C 4167.5,918.833 4167.5,875.167 4167.5,831.5 Z"/></g>
<g><path style="opacity:0.976" fill="#000000" d="M 4747.5,831.5 C 4772.83,831.5 4798.17,831.5 4823.5,831.5C 4823.5,837.167 4823.5,842.833 4823.5,848.5C 4805.17,848.5 4786.83,848.5 4768.5,848.5C 4768.5,861.167 4768.5,873.833 4768.5,886.5C 4782.5,886.5 4796.5,886.5 4810.5,886.5C 4811.37,892.789 4811.71,899.122 4811.5,905.5C 4797.17,905.5 4782.83,905.5 4768.5,905.5C 4768.5,924.5 4768.5,943.5 4768.5,962.5C 4761.5,962.5 4754.5,962.5 4747.5,962.5C 4747.5,918.833 4747.5,875.167 4747.5,831.5 Z"/></g>
<g><path style="opacity:0.96" fill="#000000" d="M 723.5,834.5 C 748.833,834.5 774.167,834.5 799.5,834.5C 799.5,840.167 799.5,845.833 799.5,851.5C 781.833,851.5 764.167,851.5 746.5,851.5C 746.5,864.167 746.5,876.833 746.5,889.5C 760.167,889.5 773.833,889.5 787.5,889.5C 787.5,895.833 787.5,902.167 787.5,908.5C 773.5,908.5 759.5,908.5 745.5,908.5C 745.5,927.5 745.5,946.5 745.5,965.5C 738.167,965.5 730.833,965.5 723.5,965.5C 723.5,921.833 723.5,878.167 723.5,834.5 Z"/></g>
<g><path style="opacity:0.965" fill="#000000" d="M 3578.5,834.5 C 3594.54,834.115 3610.54,834.615 3626.5,836C 3653.75,841.58 3669.91,858.08 3675,885.5C 3678.81,905.721 3675.14,924.388 3664,941.5C 3652.09,955.537 3636.93,963.37 3618.5,965C 3600.17,965.5 3581.84,965.667 3563.5,965.5C 3563.5,922.167 3563.5,878.833 3563.5,835.5C 3568.69,835.821 3573.69,835.487 3578.5,834.5 Z M 3596.5,851.5 C 3630.92,848.694 3650.25,864.36 3654.5,898.5C 3653.79,914.42 3647.79,927.92 3636.5,939C 3630.84,943.162 3624.51,945.662 3617.5,946.5C 3606.86,947.43 3596.19,947.763 3585.5,947.5C 3585.5,915.833 3585.5,884.167 3585.5,852.5C 3589.37,852.815 3593.04,852.482 3596.5,851.5 Z"/></g>
</svg>
