<?xml version="1.0" standalone="no"?>
<!DOCTYPE svg PUBLIC "-//W3C//DTD SVG 20010904//EN"
 "http://www.w3.org/TR/2001/REC-SVG-20010904/DTD/svg10.dtd">
<svg version="1.0" xmlns="http://www.w3.org/2000/svg"
 width="5276.000000pt" height="1055.000000pt" viewBox="0 0 5276.000000 1055.000000"
 preserveAspectRatio="xMidYMid meet">

<g transform="translate(0.000000,1055.000000) scale(0.100000,-0.100000)"
fill="#000000" stroke="none">
<path d="M41053 10458 c-39 -19 -43 -56 -43 -405 0 -371 -2 -384 -64 -422 -17
-10 -69 -26 -116 -35 -47 -9 -146 -36 -220 -60 l-135 -44 -5 322 c-3 176 -10
329 -14 339 -11 23 -54 25 -128 6 l-38 -10 0 -322 c0 -293 -2 -326 -19 -363
-16 -35 -24 -42 -58 -47 -23 -4 -49 -17 -64 -33 -24 -25 -24 -29 -27 -224 -4
-282 8 -314 115 -290 25 6 47 9 49 7 2 -2 7 -17 10 -34 5 -23 1 -36 -13 -50
-17 -17 -40 -21 -188 -26 -294 -12 -36955 -8 -36997 3 -21 6 -43 20 -49 31 -6
13 -10 88 -9 197 2 504 -74 822 -258 1068 -259 349 -575 415 -867 183 -41 -32
-110 -100 -155 -151 -260 -296 -405 -647 -469 -1132 -17 -134 -22 -151 -45
-175 l-26 -26 -591 -5 -590 -5 -19 -25 c-24 -31 -24 -33 1 -56 20 -18 49 -19
614 -24 621 -5 616 -5 629 -48 3 -10 21 -123 41 -252 19 -129 56 -352 81 -494
25 -143 44 -271 42 -285 -2 -20 -10 -27 -33 -32 -16 -4 -318 -7 -670 -8 l-640
-2 -44 -23 -44 -23 49 -29 49 -29 665 -6 c366 -3 666 -7 668 -8 9 -5 -8 -31
-81 -122 -254 -316 -427 -582 -538 -827 -70 -155 -52 -148 -403 -154 -269 -5
-284 -6 -345 -30 l-64 -24 64 -29 64 -29 260 -4 c312 -5 300 -1 292 -107 -4
-38 -14 -122 -23 -185 -24 -169 -22 -428 5 -610 19 -131 25 -197 19 -202 -2
-1 -136 -4 -298 -7 -285 -6 -297 -7 -339 -29 -48 -26 -48 -26 24 -64 38 -20
54 -21 335 -22 290 -1 296 -1 332 -24 43 -27 69 -65 92 -139 18 -56 129 -233
236 -378 173 -234 355 -396 561 -495 l79 -38 -32 -11 c-78 -26 -217 -30 -889
-31 l-706 0 -36 -27 c-20 -16 -36 -31 -37 -34 0 -3 17 -15 37 -26 37 -20 57
-21 513 -27 1693 -23 1989 -28 2022 -37 72 -19 82 -37 148 -259 34 -113 86
-302 117 -420 48 -188 56 -231 60 -341 8 -188 -25 -284 -141 -406 -221 -234
-663 -314 -952 -172 -86 43 -168 118 -190 175 -10 26 -13 48 -8 53 20 18 81
31 149 31 204 0 348 79 419 230 52 111 48 284 -9 407 -33 72 -106 147 -174
179 -81 39 -229 46 -329 15 -131 -40 -221 -125 -261 -250 -34 -103 -54 -253
-47 -352 6 -91 43 -233 78 -302 91 -180 264 -342 439 -411 110 -44 179 -57
319 -63 226 -9 415 28 567 112 104 58 229 189 281 295 58 119 72 181 72 330 0
245 -55 502 -223 1035 l-43 140 35 7 c20 4 11251 7 24959 7 l24922 1 0 55 0
55 -24807 3 c-16372 2 -24820 6 -24842 13 l-35 10 107 87 c267 220 412 483
462 840 8 59 19 116 25 127 6 10 27 24 48 30 25 6 459 10 1305 10 1054 0 1273
-2 1301 -14 28 -12 36 -24 60 -92 36 -103 73 -160 152 -233 137 -129 431 -232
740 -262 204 -19 433 7 674 76 291 84 443 199 494 373 20 70 42 105 80 128 30
19 498 19 22134 22 l22102 2 0 55 0 55 -19477 2 c-15347 2 -19484 6 -19505 15
-16 7 -28 16 -28 21 0 4 24 19 53 34 176 86 283 227 309 407 32 214 -68 405
-290 555 -51 35 -69 53 -62 60 8 8 583 13 1893 16 2167 6 1950 16 1986 -93 62
-183 185 -301 403 -385 225 -86 393 -117 638 -117 243 1 421 33 656 120 221
82 327 179 364 331 13 55 47 103 90 128 l35 21 16468 3 16467 2 0 55 0 55
-13812 0 c-8881 0 -13834 4 -13872 10 -33 5 -63 15 -67 21 -4 7 22 26 72 51
136 68 224 165 270 298 31 89 31 249 1 332 -40 112 -132 221 -274 326 -57 42
-65 51 -50 58 9 5 865 10 1901 12 2183 3 1926 18 1979 -120 68 -178 211 -297
462 -386 306 -107 647 -119 1016 -37 227 51 348 108 450 209 57 58 71 81 144
239 15 32 36 58 63 75 40 27 42 27 221 27 4552 0 8994 -7 9006 -15 13 -8 16
-54 20 -282 l5 -273 37 -9 c25 -6 50 -5 78 3 66 20 70 35 70 301 0 217 1 231
20 250 11 11 28 20 38 21 19 1 390 1 410 0 6 -1 21 -10 32 -21 18 -18 20 -33
20 -180 0 -155 1 -160 21 -160 44 0 108 23 131 47 21 23 23 34 26 156 3 108 6
134 19 145 14 9 1187 12 5790 12 l5773 0 0 55 0 55 -3182 1 c-1751 1 -4339 5
-5753 8 -2458 6 -2571 7 -2603 24 -55 30 -67 74 -53 185 13 107 30 148 69 163
78 31 93 41 104 66 7 18 10 105 9 243 -2 254 -6 267 -74 256 -23 -4 -52 -9
-63 -12 -20 -5 -23 0 -31 51 -21 119 1 135 189 135 165 0 181 -8 223 -117 88
-223 255 -345 583 -427 177 -44 238 -51 457 -51 233 1 343 16 545 75 262 78
404 187 469 364 32 87 52 116 93 137 36 19 132 19 4528 19 l4490 0 0 55 0 55
-982 1 c-1618 2 -2806 13 -2818 25 -7 7 21 31 100 82 184 121 270 263 270 448
0 144 -56 255 -196 383 -91 83 -179 134 -311 181 -421 148 -837 137 -1240 -33
-343 -145 -485 -469 -332 -757 47 -88 110 -152 230 -233 l110 -75 -78 -8 c-43
-5 -897 -9 -1898 -9 l-1820 0 -50 25 c-28 14 -55 36 -62 50 -6 14 -24 51 -38
82 -74 161 -223 272 -484 358 -304 101 -594 116 -911 48 -381 -82 -602 -238
-680 -482 -10 -31 -21 -42 -57 -58 -59 -26 -212 -35 -268 -16 -54 18 -64 49
-64 218 -1 162 10 191 81 211 24 6 49 13 56 15 26 7 32 62 32 291 l0 235 -47
-6 c-27 -4 -65 -10 -85 -13 l-38 -6 0 367 0 366 -26 10 c-32 13 -73 12 -101
-2z m7240 -584 c113 -57 199 -155 273 -309 76 -160 112 -356 94 -511 -16 -144
-59 -227 -136 -265 -41 -19 -64 -23 -158 -23 -176 0 -247 38 -341 179 -99 148
-164 312 -180 456 -7 57 17 194 50 289 65 187 235 265 398 184z m-45797 -29
c100 -49 188 -144 249 -268 107 -221 100 -421 -25 -694 -59 -127 -11 -117
-617 -121 -344 -2 -526 1 -553 8 -54 15 -59 39 -30 164 68 304 191 547 365
722 216 218 422 282 611 189z m40142 -566 c82 -31 175 -141 288 -341 59 -103
60 -111 14 -153 -21 -19 -37 -20 -345 -20 -388 0 -365 -7 -365 119 0 143 38
252 111 326 76 76 200 104 297 69z m-1643 -256 c-3 -43 -8 -117 -11 -165 l-6
-88 -233 0 -234 0 -20 26 c-12 15 -21 38 -21 51 0 27 31 93 52 110 20 17 423
141 461 142 16 1 17 -7 12 -76z m-5335 -411 c106 -65 230 -263 277 -440 23
-85 26 -117 26 -257 0 -198 -15 -261 -74 -317 -54 -51 -125 -71 -237 -66 -72
3 -98 9 -147 33 -204 101 -359 420 -341 702 12 198 58 307 148 351 95 47 267
44 348 -6z m-33074 26 c15 -15 -189 -297 -348 -483 -119 -138 -294 -307 -440
-424 -94 -75 -114 -88 -120 -73 -15 37 -181 870 -181 911 0 34 5 48 23 63 23
18 45 19 541 16 285 -2 521 -6 525 -10z m32297 -8 c4 -17 -8 -27 -76 -62 -96
-50 -210 -153 -250 -226 -56 -102 -73 -257 -42 -375 36 -138 137 -269 280
-362 l76 -50 -48 -7 c-26 -3 -886 -7 -1910 -7 l-1861 -1 -31 25 c-19 17 -37
47 -50 88 -45 134 -137 235 -276 302 -123 60 -304 120 -455 152 -111 24 -148
27 -325 27 -223 1 -291 -9 -473 -70 -117 -38 -299 -128 -371 -183 -66 -49
-119 -115 -148 -181 -44 -102 -58 -124 -89 -142 -30 -17 -538 -18 -13230 -18
-7259 0 -13216 3 -13236 6 -24 4 -38 12 -38 22 0 8 40 58 88 111 124 134 213
247 298 376 97 147 199 345 219 425 21 80 52 138 85 156 21 11 2493 13 15941
14 15904 0 15917 0 15922 -20z m5387 0 c18 -18 20 -35 22 -172 4 -275 1 -285
-89 -327 -28 -13 -57 -35 -65 -49 -10 -19 -13 -81 -13 -246 l0 -221 55 -8
c119 -17 120 -17 120 -37 0 -20 -22 -20 -2015 -20 -1953 0 -2015 1 -2015 18 0
14 22 30 76 56 184 91 287 259 286 465 -1 195 -92 343 -291 473 -42 27 -76 55
-76 61 0 7 16 15 35 18 19 4 916 7 1993 8 1945 1 1957 1 1977 -19z m698 -5
c27 -23 30 -32 37 -108 8 -97 -3 -129 -49 -151 -29 -14 -194 -65 -386 -119
l-85 -24 -8 66 c-4 36 -5 122 -1 190 9 178 -2 171 260 171 201 0 203 0 232
-25z m2004 15 c70 -20 82 -69 53 -234 -25 -140 -81 -225 -177 -266 -43 -19
-65 -22 -128 -18 -91 6 -152 34 -234 109 -89 81 -163 202 -230 377 l-16 42
348 0 c208 0 362 -4 384 -10z m-13015 -596 c82 -33 148 -110 263 -304 80 -135
89 -159 63 -183 -17 -14 -58 -17 -361 -19 l-341 -3 -23 23 c-20 20 -23 32 -21
97 5 233 95 370 263 406 43 9 114 1 157 -17z m11038 -451 c-3 -13 -17 -31 -32
-40 -24 -16 -52 -18 -218 -18 -163 0 -195 3 -222 18 -40 21 -51 58 -29 92 23
35 37 41 281 121 l220 72 3 -112 c1 -61 0 -121 -3 -133z m-16620 -195 c131
-67 259 -266 310 -480 35 -148 27 -416 -15 -498 -39 -77 -129 -120 -250 -120
-184 0 -307 93 -425 321 -69 134 -90 220 -89 369 2 231 68 363 212 421 69 28
189 22 257 -13z m-858 16 l82 -7 -60 -39 c-268 -173 -367 -461 -244 -713 50
-103 171 -227 288 -295 36 -20 45 -30 35 -36 -7 -5 -867 -10 -1910 -12 -1667
-2 -1901 -1 -1927 12 -22 12 -42 43 -85 129 -49 102 -64 123 -135 189 -52 49
-104 87 -153 111 -269 132 -736 191 -1048 132 -280 -53 -543 -181 -641 -312
-46 -61 -57 -83 -83 -162 -13 -40 -30 -71 -46 -82 -24 -18 -266 -19 -7738 -19
-7382 -1 -7714 0 -7743 17 -42 25 -64 65 -89 163 -12 47 -52 190 -91 318 -38
129 -69 243 -69 253 0 95 228 289 405 345 32 10 2086 13 10605 13 5811 1
10602 -2 10647 -5z m6757 -15 c60 -21 79 -55 79 -136 0 -121 -61 -259 -143
-324 -46 -37 -140 -61 -206 -53 -112 13 -173 70 -366 338 -97 134 -99 139 -87
168 l12 30 336 -4 c253 -4 346 -8 375 -19z m-28612 -522 c21 -21 164 -535 152
-547 -7 -7 -122 -9 -321 -8 l-311 3 221 282 c122 155 227 282 234 283 6 0 18
-6 25 -13z m17038 -68 c126 -55 220 -169 289 -349 24 -61 41 -114 37 -117 -3
-3 -65 -13 -138 -23 -101 -12 -186 -15 -352 -12 -272 6 -261 -1 -253 141 16
293 202 454 417 360z m-16893 -630 c90 -28 108 -91 51 -172 -18 -26 -58 -79
-90 -119 -149 -193 -219 -417 -204 -660 9 -157 27 -148 -278 -148 -134 0 -252
3 -261 6 -31 12 -42 58 -50 199 -5 102 -11 142 -21 150 -12 8 -4 56 52 300 82
364 89 388 117 420 12 15 38 30 57 34 50 10 589 1 627 -10z m11309 -7 c106
-55 248 -261 306 -442 20 -66 23 -95 23 -235 0 -246 -31 -329 -145 -387 -48
-25 -64 -28 -151 -28 -205 0 -298 77 -428 350 -58 123 -71 182 -71 335 0 199
45 335 126 386 85 52 259 63 340 21z m-1210 2 l441 -7 -87 -58 c-155 -104
-242 -222 -271 -367 -21 -110 1 -244 59 -358 46 -89 170 -196 280 -240 29 -11
42 -22 40 -33 -3 -13 -21 -17 -88 -23 -47 -3 -906 -6 -1910 -7 -1759 -1 -1826
0 -1855 18 -18 10 -38 36 -49 62 -57 135 -82 176 -150 244 -112 112 -263 179
-510 229 -192 39 -314 49 -491 43 -220 -8 -385 -47 -581 -137 -201 -92 -292
-186 -372 -382 -6 -16 -30 -37 -54 -50 l-43 -23 -1245 0 c-1192 0 -1247 1
-1274 18 -39 26 -62 84 -86 222 -27 156 -51 235 -101 335 -77 154 -215 310
-382 434 -41 30 -77 65 -80 77 l-6 22 4187 -7 c2303 -3 4386 -9 4628 -12z
m7153 -13 c39 -55 25 -253 -25 -352 -51 -103 -120 -144 -240 -144 -73 0 -88 4
-155 37 -138 68 -214 162 -298 367 l-50 121 374 0 374 0 20 -29z m-16334 -365
c127 -41 219 -98 316 -195 96 -96 138 -163 223 -353 47 -105 55 -131 46 -148
-10 -20 -19 -20 -403 -20 -388 0 -392 1 -432 23 -48 27 -54 41 -135 337 -77
282 -77 315 -2 354 84 44 255 44 387 2z m-586 -445 c44 -140 78 -257 75 -260
-3 -3 -84 -6 -180 -5 -168 0 -174 1 -199 24 -16 15 -25 34 -25 55 0 75 57 229
118 317 47 68 114 140 122 131 5 -4 44 -122 89 -262z m5309 225 c102 -51 171
-133 276 -324 60 -109 68 -145 37 -162 -13 -6 -140 -10 -345 -10 l-324 0 -31
31 c-39 39 -45 63 -38 157 11 144 102 285 213 327 57 22 148 14 212 -19z
m-5852 -641 c14 -14 37 -51 51 -83 43 -96 130 -218 201 -282 114 -103 296
-180 425 -180 l49 0 -63 42 c-141 92 -328 309 -415 481 l-24 47 208 0 c192 0
210 -2 226 -19 14 -16 310 -1011 302 -1018 -11 -11 -127 -23 -221 -23 -194 0
-348 40 -545 141 -339 175 -604 479 -746 857 l-24 62 276 0 275 0 25 -25z
m1701 1 c27 -23 28 -29 31 -123 3 -79 -2 -117 -22 -195 -27 -105 -90 -245
-157 -348 -91 -138 -275 -290 -353 -290 -14 0 -26 2 -26 4 0 3 -58 195 -129
428 -165 543 -154 497 -136 525 l15 23 375 0 374 0 28 -24z m4503 9 c19 -23 0
-253 -30 -364 -27 -102 -129 -160 -258 -148 -184 18 -342 172 -437 427 -19 52
-35 96 -35 98 0 1 168 2 374 2 319 0 375 -2 386 -15z"/>
<path d="M12935 1326 c-45 -20 -58 -46 -110 -222 -26 -87 -105 -354 -176 -592
-71 -238 -129 -441 -129 -452 0 -29 45 -53 100 -54 74 -1 92 22 126 157 47
194 51 197 219 197 190 -1 206 -12 284 -216 19 -50 43 -92 64 -112 31 -30 35
-32 80 -23 60 11 77 26 77 67 0 27 -130 476 -321 1106 -38 126 -58 150 -130
155 -32 2 -66 -2 -84 -11z m195 -788 c0 -4 -61 -8 -135 -8 -79 0 -135 4 -135
10 0 13 121 443 128 454 4 8 142 -433 142 -456z"/>
<path d="M18309 1325 c-50 -27 -50 -30 -47 -661 3 -541 4 -592 20 -616 34 -52
120 -59 416 -32 206 18 279 34 332 71 56 41 78 79 105 188 28 109 32 199 11
248 -7 18 -43 62 -80 98 -80 79 -82 96 -27 191 50 86 64 128 63 195 -1 84 -29
150 -92 215 -71 73 -108 84 -365 103 -244 18 -302 18 -336 0z m394 -165 c107
-13 139 -27 162 -76 14 -30 17 -54 13 -119 -6 -92 -25 -138 -66 -159 -65 -33
-237 -50 -281 -27 -40 22 -53 74 -59 239 l-5 152 74 0 c41 0 114 -5 162 -10z
m-6 -541 c130 -18 199 -57 234 -134 37 -80 15 -201 -47 -255 -52 -45 -69 -49
-228 -56 -190 -9 -186 -12 -186 159 1 292 19 315 227 286z"/>
<path d="M29573 1330 c-56 -23 -55 -7 -53 -655 1 -664 -1 -645 65 -664 24 -6
107 -5 258 4 385 24 411 30 487 104 81 78 84 96 85 561 0 453 -2 468 -80 545
-68 68 -145 86 -462 105 -203 12 -270 12 -300 0z m537 -192 c87 -45 85 -32 88
-431 2 -194 0 -371 -3 -395 -8 -52 -52 -106 -98 -121 -18 -5 -98 -13 -179 -16
-140 -7 -147 -6 -167 14 -21 21 -21 27 -21 496 l0 475 168 0 c154 0 171 -2
212 -22z"/>
<path d="M35239 1334 c-15 -3 -39 -19 -55 -35 l-29 -30 0 -599 0 -599 29 -30
30 -31 316 0 c316 0 317 0 336 23 11 12 28 35 38 50 17 27 17 29 -1 43 -47 37
-70 41 -249 47 -288 10 -294 15 -294 251 0 142 1 148 24 171 24 24 28 25 183
23 174 -1 198 4 263 61 l35 31 -25 20 c-61 50 -77 53 -265 58 -144 3 -184 7
-197 20 -16 13 -18 36 -18 189 l0 173 213 0 c203 0 216 1 257 23 69 36 72 50
23 99 l-42 42 -273 2 c-150 1 -285 0 -299 -2z"/>
<path d="M42053 1330 c-47 -19 -47 -18 -44 -665 1 -356 6 -616 12 -627 13 -23
79 -42 122 -34 71 13 72 17 75 311 3 250 4 264 24 281 18 17 44 20 235 24
l215 5 39 45 39 45 0 -42 0 -43 60 0 c69 0 66 8 49 -117 l-12 -82 -66 -3 -66
-3 -3 -42 -3 -43 60 0 c71 0 68 10 46 -145 -21 -143 -22 -135 29 -135 50 0 44
-15 67 177 l12 103 74 0 75 0 -6 -28 c-3 -15 -10 -70 -16 -122 -6 -52 -14
-103 -17 -113 -4 -16 1 -18 43 -15 l48 3 13 95 c7 52 15 114 18 138 l6 42 70
0 69 0 0 45 0 45 -63 0 -63 0 12 98 c7 53 13 98 14 100 0 1 29 2 65 2 l65 0 0
45 0 45 -61 0 c-53 0 -60 2 -55 18 2 9 10 60 16 112 6 52 13 107 16 123 5 26
4 27 -39 27 -51 0 -47 9 -67 -150 -17 -141 -10 -130 -90 -130 -82 0 -78 -11
-55 145 21 142 22 135 -28 135 l-44 0 -18 -140 -18 -140 -60 0 c-51 0 -68 5
-110 32 l-50 32 -196 6 c-209 7 -247 16 -272 62 -15 27 -7 265 10 296 11 22
16 22 242 22 249 0 259 2 311 57 l28 29 -33 32 c-18 18 -49 37 -68 42 -42 12
-626 12 -656 0z m1072 -737 c-3 -21 -9 -65 -13 -98 l-7 -60 -73 -3 c-50 -2
-72 1 -72 9 0 6 5 52 12 100 l12 89 73 0 73 0 -5 -37z"/>
<path d="M7272 1309 c-179 -11 -242 -49 -273 -161 -6 -26 -9 -191 -7 -476 3
-399 5 -441 22 -479 37 -87 100 -119 291 -150 186 -30 390 9 466 88 60 62 74
119 73 294 -1 83 -6 169 -13 193 -20 70 -38 76 -237 80 -164 3 -173 3 -193
-17 -26 -26 -27 -63 -3 -83 9 -9 68 -37 130 -63 l112 -48 0 -36 c-1 -20 -5
-67 -10 -106 -7 -56 -14 -74 -34 -92 -38 -33 -98 -46 -211 -45 l-100 0 -31 36
c-18 20 -37 57 -43 81 -7 28 -11 167 -11 382 0 307 2 342 19 379 34 75 104
110 202 101 98 -9 179 -69 221 -164 32 -72 88 -104 138 -78 86 44 93 179 14
282 -43 57 -89 73 -237 83 -73 5 -139 9 -147 8 -8 0 -70 -4 -138 -9z"/>
<path d="M24115 1299 c-105 -11 -160 -40 -200 -104 l-30 -48 -3 -445 c-3 -506
-1 -523 67 -591 46 -46 100 -65 236 -86 281 -42 444 11 517 170 18 41 23 68
23 143 0 90 -1 95 -28 118 -33 28 -56 30 -102 9 -37 -18 -49 -40 -65 -123 -15
-74 -39 -116 -82 -142 -43 -26 -216 -29 -277 -4 -74 30 -75 31 -83 374 -4 168
-5 339 -2 380 12 158 72 224 204 224 107 0 184 -55 235 -166 30 -65 74 -108
112 -108 39 0 90 60 98 115 15 96 -38 206 -122 253 -70 39 -292 53 -498 31z"/>
<path d="M48030 1299 c-79 -14 -138 -54 -169 -114 l-26 -49 -3 -436 c-2 -294
1 -450 8 -480 25 -103 96 -157 239 -184 152 -29 375 -15 463 29 59 30 108 86
123 140 8 29 17 128 21 240 6 182 6 191 -14 215 l-20 25 -168 -3 c-171 -3
-183 -5 -242 -50 l-33 -25 23 -24 c35 -37 78 -60 128 -68 64 -10 107 -30 120
-56 16 -28 -4 -157 -32 -212 -27 -54 -64 -67 -195 -67 -125 0 -164 14 -195 71
-17 32 -18 60 -16 419 l3 385 24 39 c63 101 250 106 343 9 15 -16 42 -55 60
-88 28 -50 41 -63 81 -79 47 -20 47 -20 75 0 113 84 55 294 -98 350 -54 19
-410 29 -500 13z"/>
</g>
</svg>
