<?xml version="1.0" encoding="utf-8"?>
<!-- Generator: Adobe Illustrator 26.0.2, SVG Export Plug-In . SVG Version: 6.00 Build 0)  -->
<svg version="1.1" id="Layer_1" xmlns="http://www.w3.org/2000/svg" xmlns:xlink="http://www.w3.org/1999/xlink" x="0px" y="0px"
	 viewBox="0 0 641 172" style="enable-background:new 0 0 641 172;" xml:space="preserve">
<style type="text/css">
	.st0{fill:none;stroke:#000000;stroke-width:0.5;stroke-miterlimit:10;}
	.st1{fill:none;stroke:#7C287D;stroke-width:1.5;stroke-miterlimit:10;}
	.st2{fill:none;stroke:#67BF75;stroke-miterlimit:10;}
</style>
<g id="XMLID_372_">
	<path id="XMLID_373_" d="M61.3,39.6c-0.4,0.1-0.9,0.1-1.4,0.2c0-2.2,0-4.5,0-6.7c-1.6,0.5-3.1,0.9-4.7,1.3c0-1.3,0-2.6,0-3.9
		c0-0.1,0.2-0.3,0.4-0.3c1.2-0.4,2.5-0.7,3.7-1.1c0.2,0,0.3-0.1,0.5-0.2c0-2.1,0-4.2,0-6.3c-1.6,0.4-3.1,0.9-4.6,1.3
		c0-1.4,0-2.7,0-4.1c0.6-0.2,1.3-0.4,1.9-0.6c0.8-0.2,1.5-0.5,2.3-0.6c0.4-0.1,0.5-0.3,0.5-0.6c0-1.8,0-3.7,0-5.5c0-0.2,0-0.4,0-0.7
		c0.5-0.1,0.9-0.1,1.4-0.2c0,2.1,0,4.2,0,6.4c0.8-0.2,1.5-0.4,2.2-0.6c0.8-0.2,1.7-0.5,2.5-0.7c0.3-0.1,0.4-0.2,0.4-0.6
		c0-1.9,0-3.7,0-5.6c0-0.5,0.1-0.8,0.7-0.7c0.2,0,0.4-0.1,0.7-0.1c0,2.2,0,4.3,0,6.5c1.6-0.4,3.1-0.9,4.7-1.3c0,1.4,0,2.6,0,3.9
		c0,0.1-0.3,0.3-0.4,0.3c-1.4,0.4-2.8,0.8-4.2,1.2c0,2.1,0,4.2,0,6.3c1.5-0.4,3-0.9,4.6-1.3c0,1.4,0,2.7,0,4.1
		c-1.3,0.4-2.7,0.8-4,1.1c-0.5,0.1-0.6,0.3-0.6,0.8c0,2.1,0,4.1,0,6.3c-0.5,0.1-0.9,0.1-1.4,0.2c0-2.2,0-4.4,0-6.7
		c-1.1,0.3-2.2,0.6-3.2,0.9c-0.2,0-0.4,0.1-0.5,0.2c-1.3,0.4-1.3,0.4-1.3,1.8c0,1.7,0,3.3,0,5C61.3,39.3,61.3,39.4,61.3,39.6z
		 M61.3,28.5c1.7-0.5,3.2-0.9,4.8-1.4c0.1,0,0.3-0.3,0.3-0.5c0-1.3,0-2.7,0-4c0-0.6,0-1.2,0-1.9c-1.6,0.4-3.1,0.9-4.6,1.3
		c-0.4,0.1-0.4,0.3-0.4,0.6c0,1.6,0,3.3,0,4.9C61.3,27.9,61.3,28.2,61.3,28.5z"/>
</g>
<g id="XMLID_448_">
	<line id="XMLID_453_" class="st0" x1="0" y1="40.5" x2="641" y2="40.5"/>
	<line id="XMLID_452_" class="st0" x1="-0.2" y1="20.3" x2="640.8" y2="20.3"/>
	<line id="XMLID_451_" class="st0" x1="0" y1="60.8" x2="641" y2="60.8"/>
	<line id="XMLID_450_" class="st0" x1="0" y1="81.2" x2="641" y2="81.2"/>
	<line id="XMLID_449_" class="st0" x1="0" y1="101.5" x2="641" y2="101.5"/>
</g>
<line id="XMLID_447_" class="st0" x1="145" y1="133.7" x2="145" y2="71.8"/>
<circle id="XMLID_446_" class="st1" cx="155" cy="71.8" r="10.2"/>
<line id="XMLID_444_" class="st0" x1="113.1" y1="143.8" x2="113.1" y2="82"/>
<circle id="XMLID_443_" class="st1" cx="123" cy="82" r="10.2"/>
<line id="XMLID_441_" class="st0" x1="177" y1="123.3" x2="177" y2="61.5"/>
<circle id="XMLID_440_" class="st1" cx="186.9" cy="61.5" r="10.2"/>
<line id="XMLID_438_" class="st0" x1="208.9" y1="113.2" x2="208.9" y2="51.3"/>
<circle id="XMLID_437_" class="st1" cx="218.8" cy="51.3" r="10.2"/>
<line id="XMLID_435_" class="st0" x1="240.8" y1="102.7" x2="240.8" y2="40.9"/>
<circle id="XMLID_434_" class="st1" cx="250.7" cy="40.9" r="10.2"/>
<line id="XMLID_432_" class="st0" x1="272.8" y1="92.8" x2="272.8" y2="31"/>
<circle id="XMLID_431_" class="st1" cx="282.7" cy="31" r="10.2"/>
<line id="XMLID_429_" class="st0" x1="304.7" y1="82.8" x2="304.7" y2="21"/>
<circle id="XMLID_428_" class="st1" cx="314.6" cy="21" r="10.2"/>
<line id="XMLID_426_" class="st0" x1="336.6" y1="72.6" x2="336.6" y2="10.7"/>
<circle id="XMLID_425_" class="st1" cx="346.5" cy="10.7" r="10.2"/>
<line id="XMLID_423_" class="st0" x1="413.8" y1="84.3" x2="413.8" y2="22.5"/>
<circle id="XMLID_422_" class="st1" cx="423.7" cy="22.5" r="10.2"/>
<line id="XMLID_420_" class="st0" x1="381.9" y1="72.5" x2="381.9" y2="10.7"/>
<circle id="XMLID_419_" class="st1" cx="391.8" cy="10.7" r="10.2"/>
<line id="XMLID_417_" class="st0" x1="445.8" y1="93.2" x2="445.8" y2="31.4"/>
<circle id="XMLID_416_" class="st1" cx="455.7" cy="31.4" r="10.2"/>
<line id="XMLID_414_" class="st0" x1="477.7" y1="103.6" x2="477.7" y2="41.7"/>
<circle id="XMLID_413_" class="st1" cx="487.6" cy="41.7" r="10.2"/>
<line id="XMLID_411_" class="st0" x1="509.6" y1="113.2" x2="509.6" y2="51.3"/>
<circle id="XMLID_410_" class="st1" cx="519.5" cy="51.3" r="10.2"/>
<line id="XMLID_408_" class="st0" x1="541.5" y1="124.2" x2="541.5" y2="62.3"/>
<circle id="XMLID_407_" class="st1" cx="551.5" cy="62.3" r="10.2"/>
<line id="XMLID_405_" class="st0" x1="573.5" y1="133.5" x2="573.5" y2="71.7"/>
<circle id="XMLID_404_" class="st1" cx="583.4" cy="71.7" r="10.2"/>
<line id="XMLID_402_" class="st0" x1="605.4" y1="144.7" x2="605.4" y2="82.8"/>
<circle id="XMLID_401_" class="st1" cx="615.3" cy="82.8" r="10.2"/>
<g id="XMLID_2634_">
	<path id="XMLID_2635_" d="M127.2,86.6c-0.6,0.2-1.8,0.6-3.1,0.6c-1.5,0-2.8-0.4-3.8-1.3c-0.9-0.8-1.4-2.2-1.4-3.8
		c0-3,2.1-5.2,5.5-5.2c1.2,0,2.1,0.3,2.5,0.5l-0.3,1.1c-0.5-0.3-1.2-0.4-2.2-0.4c-2.5,0-4.1,1.5-4.1,4.1c0,2.6,1.5,4.1,3.9,4.1
		c0.9,0,1.4-0.1,1.7-0.3v-3h-2v-1.1h3.3V86.6z"/>
</g>
<g id="XMLID_2631_">
	<path id="XMLID_2632_" d="M619.2,87.7c-0.6,0.2-1.8,0.6-3.1,0.6c-1.5,0-2.8-0.4-3.8-1.3c-0.9-0.8-1.4-2.2-1.4-3.8
		c0-3,2.1-5.2,5.5-5.2c1.2,0,2.1,0.3,2.5,0.5l-0.3,1.1c-0.5-0.3-1.2-0.4-2.2-0.4c-2.5,0-4.1,1.5-4.1,4.1c0,2.6,1.5,4.1,3.9,4.1
		c0.9,0,1.4-0.1,1.7-0.3v-3h-2v-1.1h3.3V87.7z"/>
</g>
<g id="XMLID_2627_">
	<path id="XMLID_2628_" d="M153.1,73.4l-1,3.2h-1.4l3.4-10.1h1.6l3.4,10.1h-1.4l-1.1-3.2H153.1z M156.4,72.4l-1-2.9
		c-0.2-0.7-0.4-1.3-0.5-1.8h0c-0.1,0.6-0.3,1.2-0.5,1.8l-1,2.9H156.4z"/>
</g>
<g id="XMLID_2623_">
	<path id="XMLID_2624_" d="M581.8,73l-1,3.2h-1.4l3.5-10.1h1.6l3.5,10.1h-1.4l-1.1-3.2H581.8z M585.1,71.9l-1-2.9
		c-0.2-0.7-0.4-1.3-0.5-1.8h0c-0.1,0.6-0.3,1.2-0.5,1.8l-1,2.9H585.1z"/>
</g>
<g id="XMLID_2618_">
	<path id="XMLID_2619_" d="M184.2,56.3c0.6-0.1,1.5-0.2,2.4-0.2c1.3,0,2.1,0.2,2.8,0.7c0.5,0.4,0.9,1,0.9,1.8c0,1-0.7,1.8-1.7,2.2v0
		c1,0.2,2.1,1,2.1,2.5c0,0.9-0.3,1.5-0.9,2c-0.7,0.6-1.8,0.9-3.5,0.9c-0.9,0-1.6-0.1-2-0.1V56.3z M185.6,60.5h1.2
		c1.4,0,2.2-0.7,2.2-1.7c0-1.2-0.9-1.6-2.2-1.6c-0.6,0-0.9,0-1.2,0.1V60.5z M185.6,65.3c0.3,0,0.6,0.1,1.1,0.1c1.3,0,2.6-0.5,2.6-2
		c0-1.4-1.2-2-2.6-2h-1.1V65.3z"/>
</g>
<g id="XMLID_2613_">
	<path id="XMLID_2614_" d="M548.6,57.3c0.6-0.1,1.5-0.2,2.4-0.2c1.3,0,2.1,0.2,2.8,0.7c0.5,0.4,0.9,1,0.9,1.8c0,1-0.7,1.8-1.7,2.2v0
		c1,0.2,2.1,1,2.1,2.5c0,0.9-0.3,1.5-0.9,2c-0.7,0.6-1.8,0.9-3.5,0.9c-0.9,0-1.6-0.1-2-0.1V57.3z M550,61.5h1.2
		c1.4,0,2.2-0.7,2.2-1.7c0-1.2-0.9-1.6-2.2-1.6c-0.6,0-0.9,0-1.2,0.1V61.5z M550,66.3c0.3,0,0.6,0.1,1.1,0.1c1.3,0,2.6-0.5,2.6-2
		c0-1.4-1.2-1.9-2.6-1.9H550V66.3z"/>
</g>
<g id="XMLID_2610_">
	<path id="XMLID_2611_" d="M222.6,55.7c-0.5,0.2-1.4,0.5-2.7,0.5c-2.8,0-5-1.8-5-5.1c0-3.2,2.1-5.3,5.3-5.3c1.2,0,2.1,0.3,2.4,0.4
		l-0.3,1.1c-0.5-0.2-1.2-0.4-2-0.4c-2.4,0-3.9,1.5-3.9,4.2c0,2.5,1.4,4.1,3.9,4.1c0.8,0,1.6-0.2,2.1-0.4L222.6,55.7z"/>
</g>
<g id="XMLID_2607_">
	<path id="XMLID_2608_" d="M522.8,55.7c-0.5,0.2-1.4,0.5-2.7,0.5c-2.8,0-5-1.8-5-5.1c0-3.2,2.1-5.3,5.3-5.3c1.2,0,2.1,0.3,2.4,0.4
		l-0.3,1.1c-0.5-0.2-1.2-0.4-2-0.4c-2.4,0-3.9,1.5-3.9,4.2c0,2.5,1.4,4.1,3.9,4.1c0.8,0,1.6-0.2,2.1-0.4L522.8,55.7z"/>
</g>
<g id="XMLID_2603_">
	<path id="XMLID_2604_" d="M247.4,36c0.8-0.1,1.7-0.2,2.8-0.2c1.9,0,3.2,0.5,4.1,1.3c0.9,0.8,1.4,2,1.4,3.6c0,1.6-0.5,3-1.5,3.9
		c-1,0.9-2.5,1.5-4.5,1.5c-0.9,0-1.7,0-2.4-0.1V36z M248.7,45c0.3,0,0.8,0.1,1.3,0.1c2.8,0,4.3-1.6,4.3-4.3c0-2.4-1.3-3.9-4.1-3.9
		c-0.7,0-1.2,0.1-1.5,0.1V45z"/>
</g>
<g id="XMLID_2599_">
	<path id="XMLID_2600_" d="M483.9,36.6c0.8-0.1,1.7-0.2,2.8-0.2c1.9,0,3.2,0.5,4.1,1.3c0.9,0.8,1.4,2,1.4,3.6c0,1.7-0.5,3-1.5,3.9
		c-1,0.9-2.5,1.5-4.5,1.5c-0.9,0-1.7,0-2.4-0.1V36.6z M485.2,45.5c0.3,0,0.8,0.1,1.3,0.1c2.8,0,4.3-1.6,4.3-4.3
		c0-2.4-1.3-3.9-4.1-3.9c-0.7,0-1.2,0.1-1.5,0.1V45.5z"/>
</g>
<g id="XMLID_2596_">
	<path id="XMLID_2597_" d="M285.3,31.3h-3.9V35h4.4v1.1h-5.7V26h5.5v1.1h-4.2v3.2h3.9V31.3z"/>
</g>
<g id="XMLID_2593_">
	<path id="XMLID_2594_" d="M458.4,31.3h-3.9V35h4.4v1.1h-5.7V26h5.5v1.1h-4.2v3.2h3.9V31.3z"/>
</g>
<g id="XMLID_2590_">
	<path id="XMLID_2591_" d="M309.7,15.9h5.4V17h-4.1v3.4h3.8v1.1h-3.8V26h-1.3V15.9z"/>
</g>
<g id="XMLID_2587_">
	<path id="XMLID_2588_" d="M418.6,17.4h5.4v1.1h-4.1v3.4h3.8v1.1h-3.8v4.6h-1.3V17.4z"/>
</g>
<g id="XMLID_2584_">
	<path id="XMLID_2585_" d="M350.5,15.7c-0.6,0.2-1.8,0.6-3.1,0.6c-1.5,0-2.8-0.4-3.8-1.3c-0.9-0.8-1.4-2.2-1.4-3.8
		c0-3,2.1-5.2,5.5-5.2c1.2,0,2.1,0.3,2.5,0.5l-0.3,1.1c-0.5-0.3-1.2-0.4-2.2-0.4c-2.5,0-4.1,1.5-4.1,4.1c0,2.6,1.5,4.1,3.9,4.1
		c0.9,0,1.4-0.1,1.7-0.3v-3h-2v-1h3.3V15.7z"/>
</g>
<g id="XMLID_2581_">
	<path id="XMLID_2582_" d="M395.9,15.6c-0.6,0.2-1.8,0.6-3.1,0.6c-1.5,0-2.8-0.4-3.8-1.3c-0.9-0.8-1.4-2.2-1.4-3.8
		c0-3,2.1-5.2,5.5-5.2c1.2,0,2.1,0.3,2.5,0.5l-0.3,1.1c-0.5-0.3-1.2-0.4-2.2-0.4c-2.5,0-4.1,1.5-4.1,4.1c0,2.6,1.5,4.1,3.9,4.1
		c0.9,0,1.4-0.1,1.7-0.3v-3h-2v-1h3.3V15.6z"/>
</g>
<g id="XMLID_378_">
	<path id="XMLID_379_" d="M47.5,101.3c-2.1,0.7-4.3,1-6.5,1.1c-5.8,0.1-11.2-1.5-15.8-5c-4.9-3.7-7.5-8.7-8.7-14.6
		c-1.1-5.7,0-11.1,2.4-16.3c2.1-4.5,5-8.5,8.2-12.2c0.7-0.8,1.4-1.5,2.1-2.3c0.3-0.3,0.3-0.5,0.2-0.9c-0.8-2.8-1.8-5.5-2.4-8.3
		c-1.3-5.6-1.5-11.3,0.3-16.9c2.1-6.4,6-11.2,12.5-13.5c0.8-0.3,1.6-0.5,2.4-0.6c1.7-0.1,3.2,0.6,4.5,1.6c2.7,2.1,4,5,4.2,8.3
		c0.3,5.1-1.4,9.7-3.8,14.2c-2.3,4.3-5.4,8.2-8.6,11.9c-1.1,1.3-2.1,2.5-3.2,3.7c-0.3,0.4-0.1,0.6,0,0.9c2,3.9,3.9,7.8,5.9,11.6
		c1-0.2,2-0.5,3.1-0.7c3.1-0.6,6.1,0,8.9,1.4c5.5,2.9,8.8,7.5,9.8,13.7c0.8,5-0.6,9.6-3.4,13.7c-1.8,2.7-4.1,4.9-6.8,6.6
		c-0.4,0.3-0.5,0.5-0.4,1c0.5,3.1,1.1,6.1,1.6,9.2c0.5,3.4,0.7,6.8-0.4,10.1c-1.4,4.5-4.6,7.1-9,8.3c-5.7,1.5-10.9,0.3-15.5-3.2
		c-3.9-2.9-6.5-6.6-7.6-11.4c-0.1-0.6-0.2-1.3-0.3-1.9c0-0.3,0-0.6,0-0.9c1.3,6.7,5,11.5,11.1,14.3c4.3,2,8.7,2.1,13-0.1
		c3.3-1.7,5-4.5,5.1-8.2c0.1-3.3-0.8-6.4-1.5-9.6c-0.4-1.5-0.8-2.9-1.2-4.4C47.7,101.7,47.6,101.5,47.5,101.3z M46,96
		c-2.5-9.1-6.5-17.6-9.3-26.6c-2.5,2.7-3.5,5.7-2.7,9.1c1,4.3,3.6,7.2,7.9,8.4c-0.3,0-0.5,0-0.8-0.1c-4.8-1.1-8.4-5.9-8.5-10.9
		c0-2.9,1-5.4,2.9-7.5c0.4-0.4,0.4-0.7,0.2-1.2c-0.6-1.6-1.2-3.1-1.9-4.7c-0.8-2-1.6-3.9-2.5-6c-0.8,1.1-1.6,2.1-2.3,3.1
		c-2.4,3.4-4.5,7.1-5.8,11.1c-1,3.3-1.3,6.6-0.7,10c0.8,4,2.9,7.4,5.7,10.3C33.2,95.8,39.2,97.2,46,96z M33.3,47.8
		c1.5-1.5,2.9-3,4.2-4.4c2.7-2.9,5.3-5.9,7.4-9.3c2.2-3.6,3.9-7.3,4.1-11.6c0.1-3.2-0.8-6-3.3-8.1c-1.4-1.2-2.9-1.8-4.9-1
		c-4.2,1.8-7.2,4.7-9.2,8.8c-2,4.2-2.4,8.6-1.9,13.1C30.2,39.6,31.5,43.7,33.3,47.8z M51.3,93.7c2.7-1.8,4.7-3.9,6.2-6.6
		c1.5-2.8,2.2-5.7,1.8-8.9c-0.4-3.3-1.9-6.2-4.2-8.6c-2.8-2.9-6.1-4.4-10.2-4.1c-0.9,0.1-1.7,0.3-2.8,0.5
		C46.8,74.8,49,84.2,51.3,93.7z"/>
</g>
<g id="XMLID_172_">
	<path id="XMLID_178_" d="M317.2,24.9c-0.1,0-0.2,0-0.4,0c0-0.6,0-1.2,0-1.8c-0.4,0.1-0.8,0.2-1.2,0.3c0-0.4,0-0.7,0-1
		c0,0,0.1-0.1,0.1-0.1c0.3-0.1,0.6-0.2,1-0.3c0,0,0.1,0,0.1,0c0-0.6,0-1.1,0-1.7c-0.4,0.1-0.8,0.2-1.2,0.3c0-0.4,0-0.7,0-1.1
		c0.2,0,0.3-0.1,0.5-0.1c0.2-0.1,0.4-0.1,0.6-0.2c0.1,0,0.1-0.1,0.1-0.2c0-0.5,0-1,0-1.4c0-0.1,0-0.1,0-0.2c0.1,0,0.2,0,0.4,0
		c0,0.6,0,1.1,0,1.7c0.2-0.1,0.4-0.1,0.6-0.2c0.2-0.1,0.4-0.1,0.7-0.2c0.1,0,0.1-0.1,0.1-0.1c0-0.5,0-1,0-1.5c0-0.1,0-0.2,0.2-0.2
		c0.1,0,0.1,0,0.2,0c0,0.6,0,1.1,0,1.7c0.4-0.1,0.8-0.2,1.2-0.3c0,0.4,0,0.7,0,1c0,0-0.1,0.1-0.1,0.1c-0.4,0.1-0.7,0.2-1.1,0.3
		c0,0.5,0,1.1,0,1.7c0.4-0.1,0.8-0.2,1.2-0.3c0,0.4,0,0.7,0,1.1c-0.3,0.1-0.7,0.2-1.1,0.3c-0.1,0-0.2,0.1-0.2,0.2c0,0.5,0,1.1,0,1.6
		c-0.1,0-0.2,0-0.4,0.1c0-0.6,0-1.2,0-1.8c-0.3,0.1-0.6,0.2-0.8,0.2c0,0-0.1,0-0.1,0c-0.4,0.1-0.4,0.1-0.4,0.5c0,0.4,0,0.9,0,1.3
		C317.2,24.8,317.2,24.8,317.2,24.9z M317.2,22c0.4-0.1,0.8-0.2,1.3-0.4c0,0,0.1-0.1,0.1-0.1c0-0.3,0-0.7,0-1c0-0.2,0-0.3,0-0.5
		c-0.4,0.1-0.8,0.2-1.2,0.3c-0.1,0-0.1,0.1-0.1,0.2c0,0.4,0,0.9,0,1.3C317.2,21.8,317.2,21.9,317.2,22z"/>
</g>
<g id="XMLID_533_">
	<path id="XMLID_534_" d="M426.1,25.5c-0.1,0-0.2,0-0.4,0c0-0.6,0-1.2,0-1.8c-0.4,0.1-0.8,0.2-1.2,0.3c0-0.4,0-0.7,0-1
		c0,0,0.1-0.1,0.1-0.1c0.3-0.1,0.6-0.2,1-0.3c0,0,0.1,0,0.1,0c0-0.6,0-1.1,0-1.7c-0.4,0.1-0.8,0.2-1.2,0.3c0-0.4,0-0.7,0-1.1
		c0.2,0,0.3-0.1,0.5-0.1c0.2-0.1,0.4-0.1,0.6-0.2c0.1,0,0.1-0.1,0.1-0.2c0-0.5,0-1,0-1.4c0-0.1,0-0.1,0-0.2c0.1,0,0.2,0,0.4,0
		c0,0.6,0,1.1,0,1.7c0.2-0.1,0.4-0.1,0.6-0.2c0.2-0.1,0.4-0.1,0.7-0.2c0.1,0,0.1-0.1,0.1-0.1c0-0.5,0-1,0-1.5c0-0.1,0-0.2,0.2-0.2
		c0.1,0,0.1,0,0.2,0c0,0.6,0,1.1,0,1.7c0.4-0.1,0.8-0.2,1.2-0.3c0,0.4,0,0.7,0,1c0,0-0.1,0.1-0.1,0.1c-0.4,0.1-0.7,0.2-1.1,0.3
		c0,0.5,0,1.1,0,1.7c0.4-0.1,0.8-0.2,1.2-0.3c0,0.4,0,0.7,0,1.1c-0.3,0.1-0.7,0.2-1.1,0.3c-0.1,0-0.2,0.1-0.2,0.2c0,0.5,0,1.1,0,1.6
		c-0.1,0-0.2,0-0.4,0.1c0-0.6,0-1.2,0-1.8c-0.3,0.1-0.6,0.2-0.8,0.2c0,0-0.1,0-0.1,0c-0.4,0.1-0.4,0.1-0.4,0.5c0,0.4,0,0.9,0,1.3
		C426.1,25.4,426.1,25.5,426.1,25.5z M426.1,22.6c0.4-0.1,0.8-0.2,1.3-0.4c0,0,0.1-0.1,0.1-0.1c0-0.3,0-0.7,0-1c0-0.2,0-0.3,0-0.5
		c-0.4,0.1-0.8,0.2-1.2,0.3c-0.1,0-0.1,0.1-0.1,0.2c0,0.4,0,0.9,0,1.3C426.1,22.5,426.1,22.5,426.1,22.6z"/>
</g>
</svg>
