<?xml version="1.0" encoding="UTF-8"?>
<!DOCTYPE svg PUBLIC "-//W3C//DTD SVG 1.1//EN" "http://www.w3.org/Graphics/SVG/1.1/DTD/svg11.dtd">
<svg xmlns="http://www.w3.org/2000/svg" version="1.1" width="5289px" height="990px" style="shape-rendering:geometricPrecision; text-rendering:geometricPrecision; image-rendering:optimizeQuality; fill-rule:evenodd; clip-rule:evenodd" xmlns:xlink="http://www.w3.org/1999/xlink">
<g><path style="opacity:0.936" fill="#000000" d="M 4629.5,-0.5 C 4630.17,-0.5 4630.83,-0.5 4631.5,-0.5C 4632.79,1.29585 4634.29,2.96252 4636,4.5C 4636.01,31.8358 4635.51,59.1692 4634.5,86.5C 4634.83,93.8333 4635.17,101.167 4635.5,108.5C 4644.35,105.162 4653.35,102.329 4662.5,100C 4679.07,97.2992 4692.9,102.133 4704,114.5C 4712.7,129.308 4712.37,143.974 4703,158.5C 4700.58,162.344 4697.91,166.01 4695,169.5C 4685.8,178.363 4676.97,187.53 4668.5,197C 4699.83,197.667 4731.17,197.667 4762.5,197C 4751.33,191.167 4742.83,182.667 4737,171.5C 4730.98,152.224 4736.15,136.724 4752.5,125C 4773.44,111.512 4796.44,105.012 4821.5,105.5C 4849.3,104.858 4874.3,112.691 4896.5,129C 4913.74,146.178 4914.91,164.345 4900,183.5C 4893.92,188.454 4887.76,193.287 4881.5,198C 5014.83,198.333 5148.17,198.667 5281.5,199C 5284.62,199.967 5286.95,201.8 5288.5,204.5C 5288.5,329.167 5288.5,453.833 5288.5,578.5C 5286.97,580.521 5284.97,582.021 5282.5,583C 3615.5,583.167 1948.5,583.667 281.5,584.5C 286.139,605.331 289.805,626.331 292.5,647.5C 292.034,667.928 284.368,685.094 269.5,699C 238.536,725.258 203.87,731.592 165.5,718C 139.493,704.5 127.66,683 130,653.5C 135.446,624.385 152.946,610.552 182.5,612C 197.417,616.371 208.25,625.537 215,639.5C 223.979,660.746 219.812,678.913 202.5,694C 193.555,699.306 184.221,703.806 174.5,707.5C 211.688,720.661 243.188,712.328 269,682.5C 280.165,667.523 283.831,650.856 280,632.5C 276.564,619.32 273.897,605.987 272,592.5C 271.021,589.375 269.187,586.875 266.5,585C 180.557,583.675 94.5566,583.008 8.5,583C 5.52195,582.304 2.52195,581.804 -0.5,581.5C -0.5,579.5 -0.5,577.5 -0.5,575.5C 64.1701,575.833 128.837,575.5 193.5,574.5C 193.291,573.914 192.957,573.414 192.5,573C 157.747,565.546 127.914,549.38 103,524.5C 95.0151,515.2 88.0151,505.2 82,494.5C 80.1667,493.333 78.3333,492.167 76.5,491C 51.2314,489.528 25.8981,489.028 0.5,489.5C 0.737305,488.209 0.403972,487.209 -0.5,486.5C -0.5,484.833 -0.5,483.167 -0.5,481.5C 17.4467,479.247 35.4467,478.914 53.5,480.5C 59.4435,480.377 65.2769,479.71 71,478.5C 72.2878,450.836 73.4545,423.169 74.5,395.5C 55.4878,395.26 36.4878,395.594 17.5,396.5C 11.3553,396.271 5.3553,395.271 -0.5,393.5C -0.5,391.167 -0.5,388.833 -0.5,386.5C 25.5231,386.878 51.5231,386.378 77.5,385C 79.2464,384.529 80.913,383.862 82.5,383C 101.476,357.521 119.476,331.354 136.5,304.5C 95.5387,302.208 54.5387,300.541 13.5,299.5C 8.5832,299.44 3.91653,298.773 -0.5,297.5C -0.5,296.167 -0.5,294.833 -0.5,293.5C 47.51,292.99 95.51,292.157 143.5,291C 148.945,289.112 153.945,286.445 158.5,283C 169.534,272.298 180.867,261.964 192.5,252C 196.64,249.05 198.307,245.05 197.5,240C 196.779,230.395 194.779,221.062 191.5,212C 190.008,210.115 188.008,209.115 185.5,209C 126.833,208.667 68.1667,208.333 9.5,208C 6.05261,207.471 2.71927,206.638 -0.5,205.5C -0.5,203.5 -0.5,201.5 -0.5,199.5C 62.8333,199.5 126.167,199.5 189.5,199.5C 189.712,170.579 192.545,141.912 198,113.5C 205.957,75.7792 223.791,43.7792 251.5,17.5C 277.16,48.4919 293.993,83.8253 302,123.5C 305.525,148.459 304.025,173.126 297.5,197.5C 975.5,197.667 1653.5,197.5 2331.5,197C 2334.15,192.856 2337.15,189.022 2340.5,185.5C 2344.18,189.012 2347.51,192.846 2350.5,197C 2539.83,197.5 2729.17,197.667 2918.5,197.5C 2918.33,181.83 2918.5,166.163 2919,150.5C 2920.51,146.319 2922.85,142.652 2926,139.5C 2929.98,144.465 2931.98,150.132 2932,156.5C 2932.5,170.163 2932.67,183.829 2932.5,197.5C 3122.17,197.5 3311.83,197.5 3501.5,197.5C 3501.17,162.827 3501.5,128.16 3502.5,93.5C 3512.56,90.8939 3516.56,94.8939 3514.5,105.5C 3513.51,136.492 3512.85,167.492 3512.5,198.5C 3525.6,195.209 3538.93,193.542 3552.5,193.5C 3564.91,194.345 3577.24,195.845 3589.5,198C 3773.83,198.667 3958.17,198.667 4142.5,198C 4144.95,197.275 4147.28,196.275 4149.5,195C 4157,181.165 4168,171.165 4182.5,165C 4225.8,146.099 4267.47,149.099 4307.5,174C 4309.39,176.19 4311.56,178.023 4314,179.5C 4317.38,184.422 4320.88,189.255 4324.5,194C 4327.22,195.908 4330.22,197.241 4333.5,198C 4430.17,198.5 4526.83,198.667 4623.5,198.5C 4623.82,135.817 4623.49,73.1507 4622.5,10.5C 4622.84,5.50532 4625.17,1.83866 4629.5,-0.5 Z M 256.5,74.5 C 259.32,74.2475 261.986,74.7475 264.5,76C 278.915,88.995 285.415,105.162 284,124.5C 279.712,147.067 271.046,167.733 258,186.5C 252.712,193.061 245.878,196.895 237.5,198C 226.821,198.572 216.155,198.405 205.5,197.5C 205.244,159.856 214.078,124.522 232,91.5C 239.657,84.9363 247.823,79.2696 256.5,74.5 Z M 4655.5,114.5 C 4671.36,114.857 4679.19,122.857 4679,138.5C 4672.18,161.653 4659.68,181.153 4641.5,197C 4639.26,197.977 4636.93,198.477 4634.5,198.5C 4634.1,175.471 4634.6,152.471 4636,129.5C 4640.28,121.461 4646.78,116.461 4655.5,114.5 Z M 4803.5,114.5 C 4830.91,113.092 4850.41,124.759 4862,149.5C 4867.37,159.308 4869.04,169.641 4867,180.5C 4862.06,190.569 4853.89,196.069 4842.5,197C 4812.04,200.694 4790.87,188.527 4779,160.5C 4772.39,137.015 4780.55,121.682 4803.5,114.5 Z M 4217.5,162.5 C 4245.44,160.301 4264.77,172.135 4275.5,198C 4249.08,198.982 4222.75,198.648 4196.5,197C 4193.41,194.984 4191.74,192.151 4191.5,188.5C 4192.04,179.569 4196.04,172.736 4203.5,168C 4208.16,165.842 4212.83,164.009 4217.5,162.5 Z M 4667.5,206.5 C 4675.83,206.958 4684.16,207.458 4692.5,208C 4885.83,208.5 5079.17,208.667 5272.5,208.5C 5272.5,236.167 5272.5,263.833 5272.5,291.5C 4767.83,291.667 4263.17,291.5 3758.5,291C 3770.38,283.453 3779.88,273.62 3787,261.5C 3789.64,251.726 3787.97,242.726 3782,234.5C 3774.83,224.667 3766.33,216.167 3756.5,209C 3885.5,208.333 4014.5,208.333 4143.5,209C 4146.1,209.883 4148.27,211.383 4150,213.5C 4152.54,220.244 4155.87,226.578 4160,232.5C 4173.41,243.761 4188.91,250.594 4206.5,253C 4237.73,258.738 4268.06,255.738 4297.5,244C 4311.46,237.598 4320.96,227.098 4326,212.5C 4327.93,210.898 4330.1,209.731 4332.5,209C 4428.84,208.167 4525.17,208.333 4621.5,209.5C 4622.58,214.573 4623.91,219.573 4625.5,224.5C 4637.32,213.233 4651.32,207.233 4667.5,206.5 Z M 306.5,207.5 C 982.097,208.5 1657.76,208.833 2333.5,208.5C 2333.5,236.167 2333.5,263.833 2333.5,291.5C 2143.83,291.5 1954.17,291.5 1764.5,291.5C 1764.67,273.497 1764.5,255.497 1764,237.5C 1763.53,236.069 1762.7,234.903 1761.5,234C 1758.52,233.502 1755.52,233.335 1752.5,233.5C 1752.5,253.167 1752.5,272.833 1752.5,292.5C 1563.83,292.667 1375.17,292.5 1186.5,292C 1182.99,289.831 1180.82,286.664 1180,282.5C 1178.56,281.74 1177.06,281.074 1175.5,280.5C 1171.92,283.494 1168.92,286.994 1166.5,291C 857.833,291.667 549.167,291.667 240.5,291C 243.216,287.739 246.049,284.572 249,281.5C 263.718,258.119 279.218,235.286 295.5,213C 299.259,211.121 302.925,209.287 306.5,207.5 Z M 3531.5,208.5 C 3554.08,208.682 3561.58,219.348 3554,240.5C 3546.32,261.871 3533.32,279.204 3515,292.5C 3513.56,291.852 3512.06,291.519 3510.5,291.5C 3511.04,267.767 3512.54,244.101 3515,220.5C 3518.7,213.959 3524.2,209.959 3531.5,208.5 Z M 3584.5,208.5 C 3604.17,208.333 3623.84,208.5 3643.5,209C 3634.5,214.762 3626.33,221.595 3619,229.5C 3607.07,252.928 3612.23,271.762 3634.5,286C 3637.5,287.667 3640.5,289.333 3643.5,291C 3609.5,291.667 3575.5,291.667 3541.5,291C 3553.85,281.891 3565.35,271.725 3576,260.5C 3587.91,244.754 3590.74,227.421 3584.5,208.5 Z M 3682.5,208.5 C 3710.34,207.551 3730.18,219.551 3742,244.5C 3744.21,251.176 3745.71,258.01 3746.5,265C 3744.14,281.687 3734.48,290.353 3717.5,291C 3690.03,292.505 3670.2,281.005 3658,256.5C 3654.25,246.371 3653.58,236.038 3656,225.5C 3657.88,220.573 3661.04,216.74 3665.5,214C 3671.04,211.374 3676.7,209.54 3682.5,208.5 Z M 4196.5,209.5 C 4222.33,208.337 4248.33,208.17 4274.5,209C 4278.73,210.399 4281.4,213.232 4282.5,217.5C 4281.47,224.754 4278.97,231.421 4275,237.5C 4259.8,247.241 4243.63,249.074 4226.5,243C 4210.96,236.632 4200.96,225.466 4196.5,209.5 Z M 205.5,209.5 C 216.172,209.333 226.839,209.5 237.5,210C 228.697,219.804 219.53,229.304 210,238.5C 208.245,237.33 207.245,235.663 207,233.5C 206.27,225.51 205.77,217.51 205.5,209.5 Z M 2346.5,209.5 C 2536.83,209.5 2727.17,209.5 2917.5,209.5C 2917.5,237.167 2917.5,264.833 2917.5,292.5C 2750.17,292.667 2582.83,292.5 2415.5,292C 2395.31,288.091 2374.97,287.425 2354.5,290C 2352.13,290.735 2349.8,291.568 2347.5,292.5C 2346.5,264.841 2346.17,237.175 2346.5,209.5 Z M 2931.5,209.5 C 3121.17,209.5 3310.83,209.5 3500.5,209.5C 3500.5,236.833 3500.5,264.167 3500.5,291.5C 3404.85,292.655 3309.18,292.821 3213.5,292C 3211.05,291.275 3208.72,290.275 3206.5,289C 3192.48,265.639 3171.81,252.306 3144.5,249C 3117.01,243.646 3090.34,246.312 3064.5,257C 3058.57,259.935 3052.91,263.268 3047.5,267C 3039.58,274.892 3031.92,282.892 3024.5,291C 3018.21,292.712 3011.87,292.712 3005.5,291C 3009.76,263.593 2998.42,246.593 2971.5,240C 2956.69,237.884 2943.69,241.717 2932.5,251.5C 2931.5,237.516 2931.17,223.516 2931.5,209.5 Z M 3104.5,255.5 C 3130.02,255.053 3147.02,266.719 3155.5,290.5C 3128.17,291.5 3100.84,291.833 3073.5,291.5C 3071.68,281.753 3073.51,272.753 3079,264.5C 3086.69,258.994 3095.19,255.994 3104.5,255.5 Z M 2946.5,256.5 C 2969.73,256.297 2977.9,267.297 2971,289.5C 2969.58,290.46 2968.08,291.293 2966.5,292C 2954.84,292.5 2943.17,292.667 2931.5,292.5C 2930.31,284.002 2931.14,275.669 2934,267.5C 2936.71,262.079 2940.87,258.413 2946.5,256.5 Z M 3542.5,300.5 C 3550.82,301.074 3559.16,301.574 3567.5,302C 4135.83,302.5 4704.17,302.667 5272.5,302.5C 5272.5,329.833 5272.5,357.167 5272.5,384.5C 4379.5,384.667 3486.5,384.5 2593.5,384C 2631.15,356.827 2630.82,330.161 2592.5,304C 2700.83,303.5 2809.17,303.333 2917.5,303.5C 2917.33,324.503 2917.5,345.503 2918,366.5C 2923.25,363.459 2928.42,360.292 2933.5,357C 2953.83,340 2974.17,323 2994.5,306C 3005.07,300.097 3015.74,300.097 3026.5,306C 3031.17,310.504 3035.01,315.671 3038,321.5C 3050.89,335.922 3067.06,344.089 3086.5,346C 3118.02,351.423 3148.69,348.423 3178.5,337C 3191.67,330.159 3201.01,319.825 3206.5,306C 3208.72,304.725 3211.05,303.725 3213.5,303C 3309.16,301.711 3404.83,301.211 3500.5,301.5C 3500.67,307.332 3501.67,312.999 3503.5,318.5C 3514.08,307.092 3527.08,301.092 3542.5,300.5 Z M 1190.5,301.5 C 1377.49,302.493 1564.49,302.826 1751.5,302.5C 1751.5,330.167 1751.5,357.833 1751.5,385.5C 1582.66,386.476 1413.82,386.809 1245,386.5C 1234.49,383.732 1223.82,381.732 1213,380.5C 1205.6,380.914 1198.44,382.414 1191.5,385C 1188.18,385.498 1184.85,385.665 1181.5,385.5C 1181.33,359.831 1181.5,334.165 1182,308.5C 1183.85,304.843 1186.68,302.51 1190.5,301.5 Z M 2366.5,301.5 C 2382.55,301.71 2390.05,309.71 2389,325.5C 2382.21,349.615 2369.04,369.448 2349.5,385C 2348.21,385.49 2346.87,385.657 2345.5,385.5C 2345.05,361.789 2345.55,338.123 2347,314.5C 2351.27,306.712 2357.77,302.378 2366.5,301.5 Z M 227.5,302.5 C 540.833,302.5 854.167,302.5 1167.5,302.5C 1167.5,329.833 1167.5,357.167 1167.5,384.5C 978.5,384.5 789.5,384.5 600.5,384.5C 600.811,367.805 600.311,351.138 599,334.5C 597.414,331.659 595.58,328.993 593.5,326.5C 590.785,329.057 588.618,332.057 587,335.5C 586.5,352.163 586.333,368.83 586.5,385.5C 480.832,386.861 375.165,386.695 269.5,385C 261.142,384.624 252.809,383.957 244.5,383C 238.373,379.361 235.206,373.861 235,366.5C 230.975,347.54 227.141,328.54 223.5,309.5C 223.577,306.335 224.91,304.001 227.5,302.5 Z M 1775.5,302.5 C 1961.83,302.5 2148.17,302.5 2334.5,302.5C 2334.93,328.534 2334.43,354.534 2333,380.5C 2330.9,383.467 2328.07,385.3 2324.5,386C 2317.5,386.167 2310.5,386.333 2303.5,386.5C 2219.5,385.689 2135.5,385.522 2051.5,386C 2045.64,385.937 2041.14,383.437 2038,378.5C 2030.99,365.161 2020.49,355.661 2006.5,350C 1970.83,336.001 1935.16,336.001 1899.5,350C 1883.29,356.212 1871.62,367.212 1864.5,383C 1855.02,386.915 1845.36,387.415 1835.5,384.5C 1842.38,364.955 1837.04,349.789 1819.5,339C 1799.95,328.936 1781.62,330.769 1764.5,344.5C 1763.91,344.291 1763.41,343.957 1763,343.5C 1761.13,333.489 1761.13,323.489 1763,313.5C 1764.89,307.153 1769.06,303.486 1775.5,302.5 Z M 2417.5,302.5 C 2436.17,302.333 2454.84,302.5 2473.5,303C 2462.54,311.623 2453.37,321.789 2446,333.5C 2444.06,339.515 2444.06,345.515 2446,351.5C 2452.9,364.411 2462.07,375.578 2473.5,385C 2440.17,385.667 2406.83,385.667 2373.5,385C 2385.26,375.911 2396.43,366.078 2407,355.5C 2420.17,339.82 2423.67,322.153 2417.5,302.5 Z M 2511.5,302.5 C 2540.79,300.316 2561.96,312.316 2575,338.5C 2583.9,364.197 2575.07,379.697 2548.5,385C 2517.08,385.382 2496.92,370.548 2488,340.5C 2483.01,319.413 2490.85,306.747 2511.5,302.5 Z M 2928.5,302.5 C 2941.17,302.333 2953.84,302.5 2966.5,303C 2955.85,316.484 2944.85,329.651 2933.5,342.5C 2932.83,342.167 2932.17,341.833 2931.5,341.5C 2929.66,328.571 2928.66,315.571 2928.5,302.5 Z M 3076.5,302.5 C 3103.5,302.333 3130.5,302.5 3157.5,303C 3162.92,307.246 3164.75,312.746 3163,319.5C 3160.6,328.237 3155.1,334.071 3146.5,337C 3121.81,344.539 3101.31,338.372 3085,318.5C 3081.38,313.588 3078.54,308.255 3076.5,302.5 Z M 211.5,313.5 C 212.117,313.611 212.617,313.944 213,314.5C 218.028,337.808 222.861,361.141 227.5,384.5C 197.831,384.667 168.165,384.5 138.5,384C 149.019,369.473 161.019,356.14 174.5,344C 186.732,333.591 199.065,323.425 211.5,313.5 Z M 1934.5,348.5 C 1962.7,346.702 1981.7,359.035 1991.5,385.5C 1965.49,386.721 1939.49,386.554 1913.5,385C 1906.81,378.889 1905.65,371.723 1910,363.5C 1916.11,355.034 1924.27,350.034 1934.5,348.5 Z M 1777.5,350.5 C 1801.25,348.768 1809.75,359.435 1803,382.5C 1800.31,384.899 1797.14,386.232 1793.5,386.5C 1783.53,385.575 1773.53,385.242 1763.5,385.5C 1761.93,377.706 1762.43,370.04 1765,362.5C 1767.77,356.895 1771.94,352.895 1777.5,350.5 Z M 136.5,395.5 C 158.169,395.333 179.836,395.5 201.5,396C 169.079,414.337 154.079,442.17 156.5,479.5C 142.163,479.667 127.829,479.5 113.5,479C 110.667,477.5 108.5,475.333 107,472.5C 105.408,444.281 113.242,419.114 130.5,397C 132.708,396.809 134.708,396.309 136.5,395.5 Z M 1763.5,395.5 C 1775.5,395.333 1787.5,395.5 1799.5,396C 1788.26,409.228 1777.09,422.395 1766,435.5C 1765.23,435.355 1764.56,435.022 1764,434.5C 1763.5,421.504 1763.33,408.504 1763.5,395.5 Z M 1841.5,395.5 C 1849.17,395.5 1856.83,395.5 1864.5,395.5C 1869.81,415.646 1882.48,428.812 1902.5,435C 1928.95,441.129 1955.61,442.129 1982.5,438C 1997.77,436.911 2011.77,432.244 2024.5,424C 2032.46,416.36 2038.46,407.36 2042.5,397C 2139.5,396.5 2236.5,396.333 2333.5,396.5C 2334.11,401.572 2335.11,406.572 2336.5,411.5C 2344.17,402.662 2353.84,397.496 2365.5,396C 3334.5,395.5 4303.5,395.333 5272.5,395.5C 5272.5,423.167 5272.5,450.833 5272.5,478.5C 3992.17,478.667 2711.83,478.5 1431.5,478C 1439.04,472.127 1445.54,465.294 1451,457.5C 1458.07,442.965 1456.74,429.299 1447,416.5C 1439.7,408.859 1431.53,402.359 1422.5,397C 1532.17,396.5 1641.83,396.333 1751.5,396.5C 1751.17,417.844 1751.5,439.177 1752.5,460.5C 1777.46,443.378 1801.13,424.545 1823.5,404C 1829.01,399.898 1835.01,397.065 1841.5,395.5 Z M 1912.5,395.5 C 1938.86,395.108 1965.19,395.608 1991.5,397C 1994.91,398.739 1997.24,401.406 1998.5,405C 1996.71,420.788 1988.04,430.122 1972.5,433C 1942.98,435.421 1922.98,422.921 1912.5,395.5 Z M 306.5,397.5 C 399.332,396.501 492.332,396.167 585.5,396.5C 585.5,423.833 585.5,451.167 585.5,478.5C 506.166,478.667 426.833,478.5 347.5,478C 344.545,466.9 341.712,455.733 339,444.5C 335.972,435.443 331.639,427.11 326,419.5C 319.263,412.27 312.763,404.937 306.5,397.5 Z M 599.5,396.5 C 789.167,396.5 978.833,396.5 1168.5,396.5C 1168.83,424.074 1168.5,451.574 1167.5,479C 1071.5,479.667 975.5,479.667 879.5,479C 876.461,477.969 873.961,476.135 872,473.5C 864.984,458.819 853.817,448.652 838.5,443C 803.461,429.043 768.461,429.043 733.5,443C 726.676,445.909 720.342,449.576 714.5,454C 706.793,461.438 699.793,469.438 693.5,478C 691.084,479.063 688.584,479.896 686,480.5C 681.242,479.775 676.576,478.775 672,477.5C 677.848,451.034 667.682,434.201 641.5,427C 626.097,423.767 612.431,427.267 600.5,437.5C 599.501,423.85 599.167,410.183 599.5,396.5 Z M 1200.5,396.5 C 1220.05,397.186 1227.55,406.852 1223,425.5C 1216.25,446.518 1204.42,464.018 1187.5,478C 1184.69,478.993 1181.86,479.827 1179,480.5C 1178.88,457.46 1179.88,434.46 1182,411.5C 1183.29,407.76 1185.46,404.593 1188.5,402C 1192.48,399.838 1196.48,398.005 1200.5,396.5 Z M 1250.5,397.5 C 1272,396.337 1293.66,396.171 1315.5,397C 1304.85,402.24 1295.35,409.073 1287,417.5C 1276.48,435.524 1278.15,452.524 1292,468.5C 1295.93,471.883 1299.76,475.383 1303.5,479C 1272.5,479.667 1241.5,479.667 1210.5,479C 1220.92,471.247 1230.76,462.747 1240,453.5C 1255.4,436.932 1258.9,418.265 1250.5,397.5 Z M 1348.5,396.5 C 1378.37,394.515 1398.54,407.515 1409,435.5C 1412.91,443.784 1414.24,452.451 1413,461.5C 1411.97,465.722 1409.81,469.222 1406.5,472C 1385.83,482.473 1365.5,481.806 1345.5,470C 1325.73,455.02 1318.9,435.52 1325,411.5C 1330.86,403.324 1338.7,398.324 1348.5,396.5 Z M 254.5,426.5 C 275.801,426.406 291.634,435.739 302,454.5C 306.113,462.337 308.28,470.67 308.5,479.5C 293.07,479.968 277.737,479.468 262.5,478C 259.533,475.9 257.7,473.066 257,469.5C 254.229,456.142 251.395,442.809 248.5,429.5C 250.594,428.482 252.594,427.482 254.5,426.5 Z M 236.5,428.5 C 240.766,444.91 244.432,461.577 247.5,478.5C 226.591,478.827 205.758,478.493 185,477.5C 183.626,463.413 188.459,451.913 199.5,443C 210.73,435.095 223.064,430.261 236.5,428.5 Z M 772.5,441.5 C 792.558,441.609 808.058,449.942 819,466.5C 821.202,470.606 822.702,474.94 823.5,479.5C 797.411,479.982 771.411,479.482 745.5,478C 743.622,476.457 742.122,474.624 741,472.5C 738.495,461.018 742.328,452.518 752.5,447C 759.04,444.201 765.707,442.368 772.5,441.5 Z M 616.5,443.5 C 624.307,443.158 631.141,445.491 637,450.5C 639.018,454.733 639.851,459.233 639.5,464C 639.558,468.253 639.058,472.42 638,476.5C 636.829,477.893 635.329,478.727 633.5,479C 621.838,479.5 610.171,479.667 598.5,479.5C 598.189,471.772 598.689,464.105 600,456.5C 603.059,448.906 608.559,444.573 616.5,443.5 Z M 111.5,489.5 C 126.558,489.066 141.558,489.566 156.5,491C 162.121,494.287 166.788,498.621 170.5,504C 180.067,513.701 191.567,519.868 205,522.5C 205.315,521.092 204.982,519.759 204,518.5C 196.955,508.91 189.788,499.41 182.5,490C 203.863,489.096 225.197,489.429 246.5,491C 249.467,493.1 251.3,495.934 252,499.5C 256.071,517.284 259.904,535.117 263.5,553C 258.365,557.567 252.365,560.567 245.5,562C 202.951,570.37 165.784,559.87 134,530.5C 122.858,518.887 115.358,505.221 111.5,489.5 Z M 682.5,489.5 C 687.121,488.993 691.454,489.826 695.5,492C 699.866,496.561 703.366,501.728 706,507.5C 712.346,514.588 719.846,520.088 728.5,524C 767.282,539.58 805.949,539.247 844.5,523C 857,517.167 866.167,508 872,495.5C 874.1,492.533 876.934,490.7 880.5,490C 976.499,489.5 1072.5,489.333 1168.5,489.5C 1168.25,494.957 1168.91,500.29 1170.5,505.5C 1176.68,501.5 1183.01,497.666 1189.5,494C 1195.33,491.901 1201.33,490.568 1207.5,490C 2562.83,489.5 3918.17,489.333 5273.5,489.5C 5273.5,517.5 5273.5,545.5 5273.5,573.5C 3612.15,573.167 1950.81,573.5 289.5,574.5C 284.788,573.822 281.122,571.655 278.5,568C 278.625,566.373 279.125,564.873 280,563.5C 290.19,553.313 301.023,543.813 312.5,535C 318.333,529.167 324.167,523.333 330,517.5C 335.156,509.216 339.656,500.549 343.5,491.5C 424.164,490.5 504.831,490.167 585.5,490.5C 585.5,510.5 585.5,530.5 585.5,550.5C 589.062,550.035 592.395,548.868 595.5,547C 617.591,528.239 640.257,510.239 663.5,493C 669.86,491.233 676.193,490.067 682.5,489.5 Z M 744.5,490.5 C 756.829,489.833 769.329,489.5 782,489.5C 796.867,489.396 811.7,489.896 826.5,491C 830.612,495.004 832.112,499.837 831,505.5C 828.997,513.502 824.164,519.002 816.5,522C 783.492,531.994 759.492,521.494 744.5,490.5 Z M 262.5,490.5 C 277.833,490.5 293.167,490.5 308.5,490.5C 307.549,515.455 296.215,534.122 274.5,546.5C 269.549,528.032 265.549,509.365 262.5,490.5 Z M 596.5,490.5 C 608.505,490.333 620.505,490.5 632.5,491C 622.679,504.147 612.179,516.647 601,528.5C 600.127,528.265 599.293,527.931 598.5,527.5C 597.268,515.197 596.601,502.863 596.5,490.5 Z"/></g>
<g><path style="opacity:0.925" fill="#000000" d="M 4874.5,989.5 C 4873.83,989.5 4873.17,989.5 4872.5,989.5C 4868.47,946.52 4868.63,903.52 4873,860.5C 4873.46,855.206 4874.79,850.206 4877,845.5C 4877.5,868.164 4877.67,890.831 4877.5,913.5C 4884.48,912.688 4891.48,912.021 4898.5,911.5C 4918.28,911.755 4926.44,921.421 4923,940.5C 4922,942.167 4921,943.833 4920,945.5C 4915.2,951.302 4910.03,956.802 4904.5,962C 4894,970.664 4884,979.831 4874.5,989.5 Z M 4889.5,920.5 C 4896.56,919.759 4900.73,922.759 4902,929.5C 4903.41,936.942 4901.74,943.609 4897,949.5C 4891.98,957.557 4886.48,965.224 4880.5,972.5C 4879.25,971.96 4878.09,971.293 4877,970.5C 4876.33,959.833 4876.33,949.167 4877,938.5C 4878.63,930.713 4882.79,924.713 4889.5,920.5 Z"/></g>
<g><path style="opacity:0.956" fill="#000000" d="M 749.5,847.5 C 773.05,845.071 793.216,852.071 810,868.5C 814.47,873.772 817.637,879.772 819.5,886.5C 811.776,887.896 804.109,887.73 796.5,886C 789.928,882.098 783.928,877.431 778.5,872C 756.515,863.621 738.015,868.454 723,886.5C 711.411,906.407 711.744,926.074 724,945.5C 739.44,962.79 757.94,966.957 779.5,958C 787,954.5 792.5,949 796,941.5C 797.735,937.055 799.235,932.555 800.5,928C 784.503,927.5 768.503,927.333 752.5,927.5C 751.78,921.862 751.447,916.196 751.5,910.5C 775.5,910.5 799.5,910.5 823.5,910.5C 827.099,939.134 816.433,960.634 791.5,975C 771.463,984.204 751.13,984.871 730.5,977C 698.189,959.531 686.022,932.697 694,896.5C 702.984,869.347 721.484,853.014 749.5,847.5 Z"/></g>
<g><path style="opacity:0.952" fill="#000000" d="M 2491.5,847.5 C 2523.5,844.873 2546.5,857.873 2560.5,886.5C 2551.68,888.126 2543.01,887.626 2534.5,885C 2528.96,880.623 2523.63,875.956 2518.5,871C 2508.8,865.997 2498.8,865.33 2488.5,869C 2466.78,876.239 2455.45,891.406 2454.5,914.5C 2455.03,937.764 2466.03,953.598 2487.5,962C 2506.22,965.648 2521.89,960.315 2534.5,946C 2542.62,941.528 2550.62,941.528 2558.5,946C 2550.95,965.2 2536.95,976.867 2516.5,981C 2480.22,987.775 2453.72,974.942 2437,942.5C 2426.65,912.903 2432.15,886.736 2453.5,864C 2464.7,854.895 2477.37,849.395 2491.5,847.5 Z"/></g>
<g><path style="opacity:0.968" fill="#000000" d="M 4205.5,847.5 C 4230.83,847.5 4256.17,847.5 4281.5,847.5C 4281.5,853.167 4281.5,858.833 4281.5,864.5C 4263.5,864.5 4245.5,864.5 4227.5,864.5C 4227.5,877.167 4227.5,889.833 4227.5,902.5C 4241.5,902.5 4255.5,902.5 4269.5,902.5C 4269.5,908.833 4269.5,915.167 4269.5,921.5C 4255.17,921.5 4240.83,921.5 4226.5,921.5C 4226.5,940.5 4226.5,959.5 4226.5,978.5C 4219.5,978.5 4212.5,978.5 4205.5,978.5C 4205.5,934.833 4205.5,891.167 4205.5,847.5 Z"/></g>
<g><path style="opacity:0.959" fill="#000000" d="M 4782.5,847.5 C 4805.5,845.114 4825,852.114 4841,868.5C 4845.1,874.192 4848.26,880.358 4850.5,887C 4842.77,887.856 4835.1,887.523 4827.5,886C 4821.54,881.711 4815.88,877.044 4810.5,872C 4791.08,864.394 4773.58,867.561 4758,881.5C 4740.56,905.427 4741.39,928.594 4760.5,951C 4777.45,964.025 4795.45,965.692 4814.5,956C 4823.46,948.763 4829.13,939.43 4831.5,928C 4815.84,927.5 4800.17,927.333 4784.5,927.5C 4783.78,921.862 4783.45,916.196 4783.5,910.5C 4807.17,910.5 4830.83,910.5 4854.5,910.5C 4858.02,946.174 4842.68,969.674 4808.5,981C 4779.46,987.229 4755.29,979.063 4736,956.5C 4723.28,937.446 4719.95,916.779 4726,894.5C 4735.37,867.283 4754.2,851.617 4782.5,847.5 Z"/></g>
<g><path style="opacity:0.889" fill="#000000" d="M 845.5,989.5 C 844.5,989.5 843.5,989.5 842.5,989.5C 842.333,942.832 842.5,896.165 843,849.5C 844.814,848.24 846.647,848.24 848.5,849.5C 849.213,851.776 849.713,854.109 850,856.5C 850.568,871.696 850.068,886.863 848.5,902C 848.477,906.568 848.977,911.068 850,915.5C 865.665,907.412 879.665,909.745 892,922.5C 895.518,930.655 895.185,938.655 891,946.5C 876.237,961.428 861.07,975.761 845.5,989.5 Z M 857.5,920.5 C 864.555,919.111 870.388,921.111 875,926.5C 876.899,930.136 876.899,933.803 875,937.5C 868.543,950.113 860.877,961.78 852,972.5C 851.228,972.355 850.561,972.022 850,971.5C 848.177,957.826 848.177,944.16 850,930.5C 851.213,926.131 853.713,922.797 857.5,920.5 Z"/></g>
<g><path style="opacity:0.919" fill="#000000" d="M 1413.5,848.5 C 1415.49,870.141 1416.16,892.141 1415.5,914.5C 1420.6,913.809 1425.6,912.642 1430.5,911C 1441.44,908.427 1450.94,910.927 1459,918.5C 1465.56,929.809 1464.56,940.476 1456,950.5C 1443.1,964.575 1428.6,976.575 1412.5,986.5C 1412.17,963.667 1411.83,940.833 1411.5,918C 1411.51,894.618 1412.18,871.451 1413.5,848.5 Z M 1426.5,920.5 C 1434.14,919.428 1439.98,922.095 1444,928.5C 1444.67,930.833 1444.67,933.167 1444,935.5C 1437.13,948.364 1429.46,960.697 1421,972.5C 1419.99,971.663 1418.82,971.33 1417.5,971.5C 1417.33,957.829 1417.5,944.163 1418,930.5C 1419.29,925.721 1422.12,922.388 1426.5,920.5 Z"/></g>
<g><path style="opacity:0.893" fill="#000000" d="M 1985.5,848.5 C 1987.17,848.5 1988.83,848.5 1990.5,848.5C 1990.5,870.5 1990.5,892.5 1990.5,914.5C 1997.75,912.52 2005.09,910.853 2012.5,909.5C 2033.3,912.12 2040.8,923.454 2035,943.5C 2033.06,947.11 2030.72,950.443 2028,953.5C 2015.34,966.688 2001.17,977.688 1985.5,986.5C 1985.5,940.5 1985.5,894.5 1985.5,848.5 Z M 2004.5,921.5 C 2014.49,920.327 2018.99,924.66 2018,934.5C 2011.42,948.008 2003.59,960.674 1994.5,972.5C 1993.83,972.167 1993.17,971.833 1992.5,971.5C 1991.13,957.475 1991.3,943.475 1993,929.5C 1996.48,926.161 2000.32,923.494 2004.5,921.5 Z"/></g>
<g><path style="opacity:0.92" fill="#000000" d="M 2580.5,848.5 C 2582.17,848.5 2583.83,848.5 2585.5,848.5C 2585.33,870.836 2585.5,893.169 2586,915.5C 2596.45,910.004 2607.28,908.838 2618.5,912C 2631.38,918.644 2635.21,928.81 2630,942.5C 2622.58,953.256 2613.75,962.756 2603.5,971C 2596,976.5 2588.5,982 2581,987.5C 2580.5,941.168 2580.33,894.835 2580.5,848.5 Z M 2594.5,920.5 C 2613.32,920.485 2617.82,928.485 2608,944.5C 2602.07,954.042 2595.9,963.375 2589.5,972.5C 2588.83,972.167 2588.17,971.833 2587.5,971.5C 2586.33,957.846 2586.17,944.179 2587,930.5C 2588.21,926.131 2590.71,922.797 2594.5,920.5 Z"/></g>
<g><path style="opacity:0.914" fill="#000000" d="M 3162.5,989.5 C 3162.17,989.5 3161.83,989.5 3161.5,989.5C 3161.5,942.5 3161.5,895.5 3161.5,848.5C 3163.5,848.5 3165.5,848.5 3167.5,848.5C 3167.5,870.5 3167.5,892.5 3167.5,914.5C 3182.68,907.582 3196.51,909.582 3209,920.5C 3213.54,929.947 3213.21,939.28 3208,948.5C 3193.53,963.143 3178.37,976.809 3162.5,989.5 Z M 3177.5,921.5 C 3189.73,920.561 3194.56,926.228 3192,938.5C 3186.07,950.714 3178.9,962.048 3170.5,972.5C 3168.06,970.891 3166.89,968.557 3167,965.5C 3166.21,954.464 3166.55,943.464 3168,932.5C 3170.31,928.025 3173.48,924.358 3177.5,921.5 Z"/></g>
<g><path style="opacity:0.926" fill="#000000" d="M 3726.5,989.5 C 3726.17,989.5 3725.83,989.5 3725.5,989.5C 3725.5,942.5 3725.5,895.5 3725.5,848.5C 3727.17,848.5 3728.83,848.5 3730.5,848.5C 3730.33,870.836 3730.5,893.169 3731,915.5C 3746.37,907.445 3760.37,909.445 3773,921.5C 3775.47,927.583 3776.14,933.916 3775,940.5C 3774.19,943.446 3772.86,946.112 3771,948.5C 3756.57,962.769 3741.74,976.436 3726.5,989.5 Z M 3739.5,920.5 C 3757.71,920.584 3762.21,928.584 3753,944.5C 3747.13,954.27 3740.8,963.604 3734,972.5C 3733.13,972.265 3732.29,971.931 3731.5,971.5C 3730.33,958.179 3730.17,944.846 3731,931.5C 3731.95,926.233 3734.78,922.566 3739.5,920.5 Z"/></g>
<g><path style="opacity:0.96" fill="#000000" d="M 1330.5,849.5 C 1337.49,849.19 1343.66,851.19 1349,855.5C 1364.57,896.863 1379.73,938.363 1394.5,980C 1386.64,983.636 1378.97,983.303 1371.5,979C 1369.38,977.269 1367.88,975.102 1367,972.5C 1366.08,967.246 1364.42,962.246 1362,957.5C 1359.13,955.6 1355.97,954.6 1352.5,954.5C 1340.18,955.046 1327.85,955.213 1315.5,955C 1310.76,956.119 1306.93,958.619 1304,962.5C 1301.53,967.422 1299.36,972.422 1297.5,977.5C 1291.25,980.027 1284.92,982.36 1278.5,984.5C 1277.06,983.135 1275.73,981.635 1274.5,980C 1288.99,939.85 1303.49,899.683 1318,859.5C 1318.79,857.413 1319.96,855.579 1321.5,854C 1324.59,852.454 1327.59,850.954 1330.5,849.5 Z M 1333.5,880.5 C 1334.5,880.414 1335.33,880.748 1336,881.5C 1342.07,899.204 1348.23,916.871 1354.5,934.5C 1341.18,935.499 1327.85,935.833 1314.5,935.5C 1320.55,917.067 1326.88,898.734 1333.5,880.5 Z"/></g>
<g><path style="opacity:0.959" fill="#000000" d="M 3053.5,849.5 C 3066.58,849.185 3079.58,850.019 3092.5,852C 3114.52,857.019 3129.35,870.186 3137,891.5C 3143.68,914.06 3141.01,935.394 3129,955.5C 3117.32,970.093 3102.15,978.593 3083.5,981C 3064.84,981.5 3046.17,981.667 3027.5,981.5C 3027.5,937.833 3027.5,894.167 3027.5,850.5C 3036.35,850.826 3045.02,850.493 3053.5,849.5 Z M 3060.5,867.5 C 3095.84,864.655 3115.17,880.821 3118.5,916C 3115.72,948.618 3098.05,964.451 3065.5,963.5C 3060.78,963.473 3056.12,963.14 3051.5,962.5C 3050.5,931.507 3050.17,900.507 3050.5,869.5C 3054.04,869.247 3057.37,868.581 3060.5,867.5 Z"/></g>
<g><path style="opacity:0.967" fill="#000000" d="M 1882.5,850.5 C 1901.19,850.182 1919.86,850.682 1938.5,852C 1950.66,854.824 1958.16,862.324 1961,874.5C 1964.82,890.38 1959.99,902.88 1946.5,912C 1953.2,919.892 1959.03,928.392 1964,937.5C 1967.28,962.549 1956.45,977.049 1931.5,981C 1910.84,981.5 1890.17,981.667 1869.5,981.5C 1869.5,938.167 1869.5,894.833 1869.5,851.5C 1874.03,851.818 1878.37,851.485 1882.5,850.5 Z M 1904.5,867.5 C 1911.86,867.558 1919.19,868.058 1926.5,869C 1936.69,872.532 1940.86,879.698 1939,890.5C 1937.6,896.9 1933.77,901.066 1927.5,903C 1915.88,904.332 1904.21,904.832 1892.5,904.5C 1892.5,892.5 1892.5,880.5 1892.5,868.5C 1896.7,868.817 1900.7,868.483 1904.5,867.5 Z M 1892.5,922.5 C 1905.95,922.419 1919.29,923.586 1932.5,926C 1938.72,928.386 1942.06,932.886 1942.5,939.5C 1940.89,953.946 1932.89,961.779 1918.5,963C 1909.84,963.5 1901.17,963.666 1892.5,963.5C 1892.5,949.833 1892.5,936.167 1892.5,922.5 Z"/></g>
<g><path style="opacity:0.955" fill="#000000" d="M 3638.5,850.5 C 3662.17,850.5 3685.83,850.5 3709.5,850.5C 3709.5,856.167 3709.5,861.833 3709.5,867.5C 3693.17,867.5 3676.83,867.5 3660.5,867.5C 3660.5,879.833 3660.5,892.167 3660.5,904.5C 3675.17,904.5 3689.83,904.5 3704.5,904.5C 3704.5,910.833 3704.5,917.167 3704.5,923.5C 3689.83,923.5 3675.17,923.5 3660.5,923.5C 3660.5,936.833 3660.5,950.167 3660.5,963.5C 3676.83,963.5 3693.17,963.5 3709.5,963.5C 3709.5,969.5 3709.5,975.5 3709.5,981.5C 3685.83,981.5 3662.17,981.5 3638.5,981.5C 3638.5,937.833 3638.5,894.167 3638.5,850.5 Z"/></g>
</svg>
