<?xml version="1.0" encoding="utf-8"?>
<!-- Generator: Adobe Illustrator 26.0.2, SVG Export Plug-In . SVG Version: 6.00 Build 0)  -->
<svg version="1.1" id="Layer_1" xmlns="http://www.w3.org/2000/svg" xmlns:xlink="http://www.w3.org/1999/xlink" x="0px" y="0px"
	 viewBox="0 0 641 172" style="enable-background:new 0 0 641 172;" xml:space="preserve">
<style type="text/css">
	.st0{fill:none;stroke:#000000;stroke-width:0.5;stroke-miterlimit:10;}
	.st1{fill:none;stroke:#7C287D;stroke-width:1.5;stroke-miterlimit:10;}
	.st2{fill:none;stroke:#67BF75;stroke-miterlimit:10;}
</style>
<path id="XMLID_1775_" d="M61.2,17.3c0,7.3,0,14.5,0,22.2c2.2-0.4,3.9-0.8,5.7-1.1c4.1-0.7,5.9,1.4,4.6,5.2c-1.6,5-5.6,8.1-11.5,8.8
	c0-11.7,0-23.4,0-35.2C60.3,17.3,60.8,17.3,61.2,17.3z M61.2,50c0.4,0.2,0.8,0.4,1.1,0.6c1.8-1.8,3.8-3.5,5.3-5.6
	c0.6-0.8,0-2.4,0-3.6c-1.6,0.1-3.2,0-4.7,0.4c-0.7,0.2-1.5,1.2-1.6,1.9C61,45.8,61.2,47.9,61.2,50z"/>
<path id="XMLID_1772_" d="M69.2-0.7c0,7.3,0,14.5,0,22.2c2.2-0.4,3.9-0.8,5.7-1.1c4.1-0.7,5.9,1.4,4.6,5.2c-1.6,5-5.6,8.1-11.5,8.8
	c0-11.7,0-23.4,0-35.2C68.3-0.7,68.8-0.7,69.2-0.7z M69.2,32c0.4,0.2,0.8,0.4,1.1,0.6c1.8-1.8,3.8-3.5,5.3-5.6c0.6-0.8,0-2.4,0-3.6
	c-1.6,0.1-3.2,0-4.7,0.4c-0.7,0.2-1.5,1.2-1.6,1.9C69,27.8,69.2,29.9,69.2,32z"/>
<path id="XMLID_1769_" d="M77.7,35.3c0,7.3,0,14.5,0,22.2c2.2-0.4,3.9-0.8,5.7-1.1c4.1-0.7,5.9,1.4,4.6,5.2c-1.6,5-5.6,8.1-11.5,8.8
	c0-11.7,0-23.4,0-35.2C76.9,35.3,77.3,35.3,77.7,35.3z M77.7,68c0.4,0.2,0.8,0.4,1.1,0.6c1.8-1.8,3.8-3.5,5.3-5.6
	c0.6-0.8,0-2.4,0-3.6c-1.6,0.1-3.2,0-4.7,0.4c-0.7,0.2-1.5,1.2-1.6,1.9C77.5,63.8,77.7,65.9,77.7,68z"/>
<path id="XMLID_1766_" d="M85.7,17.3c0,7.3,0,14.5,0,22.2c2.2-0.4,3.9-0.8,5.7-1.1c4.1-0.7,5.9,1.4,4.6,5.2c-1.6,5-5.6,8.1-11.5,8.8
	c0-11.7,0-23.4,0-35.2C84.9,17.3,85.3,17.3,85.7,17.3z M85.7,50c0.4,0.2,0.8,0.4,1.1,0.6c1.8-1.8,3.8-3.5,5.3-5.6
	c0.6-0.8,0-2.4,0-3.6c-1.6,0.1-3.2,0-4.7,0.4c-0.7,0.2-1.5,1.2-1.6,1.9C85.5,45.8,85.7,47.9,85.7,50z"/>
<path id="XMLID_1794_" d="M94.4,52.3c0,7.3,0,14.5,0,22.2c2.2-0.4,3.9-0.8,5.7-1.1c4.1-0.7,5.9,1.4,4.6,5.2c-1.6,5-5.6,8.1-11.5,8.8
	c0-11.7,0-23.4,0-35.2C93.6,52.3,94,52.3,94.4,52.3z M94.4,85c0.4,0.2,0.8,0.4,1.1,0.6c1.8-1.8,3.8-3.5,5.3-5.6c0.6-0.8,0-2.4,0-3.6
	c-1.6,0.1-3.2,0-4.7,0.4c-0.7,0.2-1.5,1.2-1.6,1.9C94.3,80.8,94.4,82.9,94.4,85z"/>
<path id="XMLID_1791_" d="M102.4,34.3c0,7.3,0,14.5,0,22.2c2.2-0.4,3.9-0.8,5.7-1.1c4.1-0.7,5.9,1.4,4.6,5.2
	c-1.6,5-5.6,8.1-11.5,8.8c0-11.7,0-23.4,0-35.2C101.6,34.3,102,34.3,102.4,34.3z M102.4,67c0.4,0.2,0.8,0.4,1.1,0.6
	c1.8-1.8,3.8-3.5,5.3-5.6c0.6-0.8,0-2.4,0-3.6c-1.6,0.1-3.2,0-4.7,0.4c-0.7,0.2-1.5,1.2-1.6,1.9C102.3,62.8,102.4,64.9,102.4,67z"/>
<g id="XMLID_1708_">
	<line id="XMLID_1713_" class="st0" x1="0" y1="40.5" x2="641" y2="40.5"/>
	<line id="XMLID_1712_" class="st0" x1="-0.2" y1="20.2" x2="640.8" y2="20.2"/>
	<line id="XMLID_1711_" class="st0" x1="0" y1="60.8" x2="641" y2="60.8"/>
	<line id="XMLID_1710_" class="st0" x1="0" y1="81.2" x2="641" y2="81.2"/>
	<line id="XMLID_1709_" class="st0" x1="0" y1="101.5" x2="641" y2="101.5"/>
</g>
<line id="XMLID_1707_" class="st0" x1="145" y1="133.7" x2="145" y2="71.8"/>
<circle id="XMLID_1704_" class="st1" cx="155" cy="71.8" r="10.2"/>
<line id="XMLID_1703_" class="st0" x1="113.1" y1="143.8" x2="113.1" y2="82"/>
<circle id="XMLID_1700_" class="st1" cx="123" cy="82" r="10.2"/>
<line id="XMLID_1699_" class="st0" x1="177" y1="123.3" x2="177" y2="61.5"/>
<circle id="XMLID_1696_" class="st1" cx="186.9" cy="61.5" r="10.2"/>
<line id="XMLID_1695_" class="st0" x1="208.9" y1="113.2" x2="208.9" y2="51.3"/>
<circle id="XMLID_1692_" class="st1" cx="218.8" cy="51.3" r="10.2"/>
<line id="XMLID_1691_" class="st0" x1="240.8" y1="102.7" x2="240.8" y2="40.9"/>
<circle id="XMLID_1688_" class="st1" cx="250.7" cy="40.9" r="10.2"/>
<line id="XMLID_1687_" class="st0" x1="272.8" y1="92.8" x2="272.8" y2="31"/>
<circle id="XMLID_1684_" class="st1" cx="282.7" cy="31" r="10.2"/>
<line id="XMLID_1683_" class="st0" x1="304.7" y1="82.8" x2="304.7" y2="21"/>
<circle id="XMLID_1680_" class="st1" cx="314.6" cy="21" r="10.2"/>
<line id="XMLID_1679_" class="st0" x1="336.6" y1="72.6" x2="336.6" y2="10.7"/>
<circle id="XMLID_1676_" class="st1" cx="346.5" cy="10.7" r="10.2"/>
<line id="XMLID_1675_" class="st0" x1="413.8" y1="84.3" x2="413.8" y2="22.5"/>
<circle id="XMLID_1672_" class="st1" cx="423.7" cy="22.5" r="10.2"/>
<line id="XMLID_1671_" class="st0" x1="381.9" y1="72.5" x2="381.9" y2="10.7"/>
<circle id="XMLID_1668_" class="st1" cx="391.8" cy="10.7" r="10.2"/>
<line id="XMLID_1667_" class="st0" x1="445.8" y1="93.2" x2="445.8" y2="31.4"/>
<circle id="XMLID_1664_" class="st1" cx="455.7" cy="31.4" r="10.2"/>
<line id="XMLID_1663_" class="st0" x1="477.7" y1="103.6" x2="477.7" y2="41.7"/>
<circle id="XMLID_1660_" class="st1" cx="487.6" cy="41.7" r="10.2"/>
<line id="XMLID_1659_" class="st0" x1="509.6" y1="113.2" x2="509.6" y2="51.3"/>
<circle id="XMLID_1656_" class="st1" cx="519.5" cy="51.3" r="10.2"/>
<line id="XMLID_1655_" class="st0" x1="541.5" y1="124.2" x2="541.5" y2="62.3"/>
<circle id="XMLID_1652_" class="st1" cx="551.5" cy="62.3" r="10.2"/>
<line id="XMLID_1651_" class="st0" x1="573.5" y1="133.5" x2="573.5" y2="71.7"/>
<circle id="XMLID_1042_" class="st1" cx="583.4" cy="71.7" r="10.2"/>
<line id="XMLID_1041_" class="st0" x1="605.4" y1="144.7" x2="605.4" y2="82.8"/>
<circle id="XMLID_1038_" class="st1" cx="615.3" cy="82.8" r="10.2"/>
<g id="XMLID_2578_">
	<path id="XMLID_2579_" d="M124.8,86.9c-0.6,0.2-1.8,0.6-3.1,0.6c-1.5,0-2.8-0.4-3.8-1.3c-0.9-0.8-1.4-2.2-1.4-3.8
		c0-3,2.1-5.2,5.5-5.2c1.2,0,2.1,0.3,2.5,0.5l-0.3,1.1c-0.5-0.3-1.2-0.4-2.2-0.4c-2.5,0-4.1,1.5-4.1,4.1c0,2.6,1.5,4.1,3.9,4.1
		c0.9,0,1.4-0.1,1.7-0.3v-3h-2v-1h3.3V86.9z"/>
</g>
<g id="XMLID_2575_">
	<path id="XMLID_2576_" d="M617.5,87.7c-0.6,0.2-1.8,0.6-3.1,0.6c-1.5,0-2.8-0.4-3.8-1.3c-0.9-0.8-1.4-2.2-1.4-3.8
		c0-3,2.1-5.2,5.5-5.2c1.2,0,2.1,0.3,2.5,0.5l-0.3,1.1c-0.5-0.3-1.2-0.4-2.2-0.4c-2.5,0-4.1,1.5-4.1,4.1c0,2.6,1.5,4.1,3.9,4.1
		c0.9,0,1.4-0.1,1.7-0.3v-3h-2v-1h3.3V87.7z"/>
</g>
<g id="XMLID_2571_">
	<path id="XMLID_2572_" d="M150.8,73.4l-1.1,3.2h-1.3l3.4-10.1h1.6l3.4,10.1h-1.4l-1.1-3.2H150.8z M154.1,72.4l-1-2.9
		c-0.2-0.7-0.4-1.3-0.5-1.8h0c-0.2,0.6-0.3,1.2-0.5,1.8l-1,2.9H154.1z"/>
</g>
<g id="XMLID_2567_">
	<path id="XMLID_2568_" d="M579.8,73l-1,3.2h-1.4l3.5-10.1h1.6l3.5,10.1h-1.4l-1.1-3.2H579.8z M583.2,71.9l-1-2.9
		c-0.2-0.7-0.4-1.3-0.5-1.8h0c-0.1,0.6-0.3,1.2-0.5,1.8l-1,2.9H583.2z"/>
</g>
<g id="XMLID_2562_">
	<path id="XMLID_2563_" d="M182.1,56.3c0.6-0.1,1.5-0.2,2.4-0.2c1.3,0,2.1,0.2,2.8,0.7c0.5,0.4,0.9,1,0.9,1.8c0,1-0.7,1.8-1.7,2.2v0
		c1,0.2,2.1,1,2.1,2.5c0,0.9-0.3,1.5-0.9,2c-0.7,0.6-1.8,0.9-3.5,0.9c-0.9,0-1.6-0.1-2-0.1V56.3z M183.4,60.5h1.2
		c1.4,0,2.2-0.7,2.2-1.7c0-1.2-0.9-1.6-2.2-1.6c-0.6,0-0.9,0-1.2,0.1V60.5z M183.4,65.3c0.3,0,0.6,0.1,1.1,0.1c1.3,0,2.6-0.5,2.6-2
		c0-1.4-1.2-1.9-2.6-1.9h-1.1V65.3z"/>
</g>
<g id="XMLID_2557_">
	<path id="XMLID_2558_" d="M546.7,57.3c0.6-0.1,1.5-0.2,2.4-0.2c1.3,0,2.1,0.2,2.8,0.7c0.5,0.4,0.9,1,0.9,1.8c0,1-0.7,1.8-1.7,2.2v0
		c1,0.2,2.1,1,2.1,2.5c0,0.9-0.3,1.5-0.9,2c-0.7,0.6-1.8,0.9-3.5,0.9c-0.9,0-1.6-0.1-2-0.1V57.3z M548,61.5h1.2
		c1.4,0,2.2-0.7,2.2-1.7c0-1.2-0.9-1.6-2.2-1.6c-0.6,0-0.9,0-1.2,0.1V61.5z M548,66.3c0.3,0,0.6,0.1,1.1,0.1c1.3,0,2.6-0.5,2.6-2
		c0-1.4-1.2-1.9-2.6-1.9H548V66.3z"/>
</g>
<g id="XMLID_2554_">
	<path id="XMLID_2555_" d="M220.1,55.7c-0.5,0.2-1.4,0.5-2.7,0.5c-2.8,0-5-1.8-5-5.1c0-3.2,2.1-5.3,5.3-5.3c1.2,0,2.1,0.3,2.4,0.5
		l-0.3,1.1c-0.5-0.2-1.2-0.4-2-0.4c-2.4,0-3.9,1.5-3.9,4.2c0,2.5,1.4,4.1,3.9,4.1c0.8,0,1.6-0.2,2.1-0.4L220.1,55.7z"/>
</g>
<g id="XMLID_2551_">
	<path id="XMLID_2552_" d="M521.1,55.7c-0.5,0.2-1.4,0.5-2.7,0.5c-2.8,0-5-1.8-5-5.1c0-3.2,2.1-5.3,5.3-5.3c1.2,0,2.1,0.3,2.4,0.5
		l-0.3,1.1c-0.5-0.2-1.2-0.4-2-0.4c-2.4,0-3.9,1.5-3.9,4.2c0,2.5,1.4,4.1,3.9,4.1c0.8,0,1.6-0.2,2.1-0.4L521.1,55.7z"/>
</g>
<g id="XMLID_2547_">
	<path id="XMLID_2548_" d="M245.6,36c0.8-0.1,1.7-0.2,2.8-0.2c1.9,0,3.2,0.5,4.1,1.3c0.9,0.8,1.4,2,1.4,3.6c0,1.6-0.5,3-1.5,3.9
		c-1,0.9-2.5,1.5-4.5,1.5c-0.9,0-1.7,0-2.4-0.1V36z M246.9,45c0.3,0,0.8,0.1,1.3,0.1c2.8,0,4.3-1.6,4.3-4.3c0-2.4-1.3-3.9-4.1-3.9
		c-0.7,0-1.2,0.1-1.5,0.1V45z"/>
</g>
<g id="XMLID_2543_">
	<path id="XMLID_2544_" d="M481.8,36.6c0.8-0.1,1.7-0.2,2.8-0.2c1.9,0,3.2,0.5,4.1,1.3c0.9,0.8,1.4,2,1.4,3.6c0,1.7-0.5,3-1.5,3.9
		c-1,0.9-2.5,1.5-4.5,1.5c-0.9,0-1.7,0-2.4-0.1V36.6z M483.1,45.5c0.3,0,0.8,0.1,1.3,0.1c2.8,0,4.3-1.6,4.3-4.3
		c0-2.4-1.3-3.9-4.1-3.9c-0.7,0-1.2,0.1-1.5,0.1V45.5z"/>
</g>
<g id="XMLID_2540_">
	<path id="XMLID_2541_" d="M283.9,31.3H280V35h4.4v1.1h-5.7V26h5.5v1.1H280v3.2h3.9V31.3z"/>
</g>
<g id="XMLID_2537_">
	<path id="XMLID_2538_" d="M456.4,31.3h-3.9V35h4.4v1.1h-5.7V26h5.5v1.1h-4.2v3.2h3.9V31.3z"/>
</g>
<g id="XMLID_2534_">
	<path id="XMLID_2535_" d="M311.9,15.9h5.4V17h-4.1v3.4h3.8v1.1h-3.8V26h-1.3V15.9z"/>
</g>
<g id="XMLID_2422_">
	<path id="XMLID_2423_" d="M421.5,17.4h5.4v1.1h-4.1v3.4h3.8v1.1h-3.8v4.6h-1.3V17.4z"/>
</g>
<g id="XMLID_2419_">
	<path id="XMLID_2420_" d="M348.3,15.7c-0.6,0.2-1.8,0.6-3.1,0.6c-1.5,0-2.8-0.4-3.8-1.3c-0.9-0.8-1.4-2.2-1.4-3.8
		c0-3,2.1-5.2,5.5-5.2c1.2,0,2.1,0.3,2.5,0.5l-0.3,1.1c-0.5-0.3-1.2-0.4-2.2-0.4c-2.5,0-4.1,1.5-4.1,4.1c0,2.6,1.5,4.1,3.9,4.1
		c0.9,0,1.4-0.1,1.7-0.3v-3h-2v-1h3.3V15.7z"/>
</g>
<g id="XMLID_2397_">
	<path id="XMLID_2417_" d="M393.4,15.6c-0.6,0.2-1.8,0.6-3.1,0.6c-1.5,0-2.8-0.4-3.8-1.3c-0.9-0.8-1.4-2.2-1.4-3.8
		c0-3,2.1-5.2,5.5-5.2c1.2,0,2.1,0.3,2.5,0.5l-0.3,1.1c-0.5-0.3-1.2-0.4-2.2-0.4c-2.5,0-4.1,1.5-4.1,4.1c0,2.6,1.5,4.1,3.9,4.1
		c0.9,0,1.4-0.1,1.7-0.3v-3h-2v-1h3.3V15.6z"/>
</g>
<g id="XMLID_699_">
	<path id="XMLID_975_" d="M47.5,101.3c-2.1,0.7-4.3,1-6.5,1.1c-5.8,0.1-11.2-1.5-15.8-5c-4.9-3.7-7.5-8.7-8.7-14.6
		c-1.1-5.7,0-11.1,2.4-16.3c2.1-4.5,5-8.5,8.2-12.2c0.7-0.8,1.4-1.5,2.1-2.3c0.3-0.3,0.3-0.5,0.2-0.9c-0.8-2.8-1.8-5.5-2.4-8.3
		c-1.3-5.6-1.5-11.3,0.3-16.9c2.1-6.4,6-11.2,12.5-13.5c0.8-0.3,1.6-0.5,2.4-0.6c1.7-0.1,3.2,0.6,4.5,1.6c2.7,2.1,4,5,4.2,8.3
		c0.3,5.1-1.4,9.7-3.8,14.2c-2.3,4.3-5.4,8.2-8.6,11.9c-1.1,1.3-2.1,2.5-3.2,3.7c-0.3,0.4-0.1,0.6,0,0.9c2,3.9,3.9,7.8,5.9,11.6
		c1-0.2,2-0.5,3.1-0.7c3.1-0.6,6.1,0,8.9,1.4c5.5,2.9,8.8,7.5,9.8,13.7c0.8,5-0.6,9.6-3.4,13.7c-1.8,2.7-4.1,4.9-6.8,6.6
		c-0.4,0.3-0.5,0.5-0.4,1c0.5,3.1,1.1,6.1,1.6,9.2c0.5,3.4,0.7,6.8-0.4,10.1c-1.4,4.5-4.6,7.1-9,8.3c-5.7,1.5-10.9,0.3-15.5-3.2
		c-3.9-2.9-6.5-6.6-7.6-11.4c-0.1-0.6-0.2-1.3-0.3-1.9c0-0.3,0-0.6,0-0.9c1.3,6.7,5,11.5,11.1,14.3c4.3,2,8.7,2.1,13-0.1
		c3.3-1.7,5-4.5,5.1-8.2c0.1-3.3-0.8-6.4-1.5-9.6c-0.4-1.5-0.8-2.9-1.2-4.4C47.7,101.7,47.6,101.5,47.5,101.3z M46,96
		c-2.5-9.1-6.5-17.6-9.3-26.6c-2.5,2.7-3.5,5.7-2.7,9.1c1,4.3,3.6,7.2,7.9,8.4c-0.3,0-0.5,0-0.8-0.1c-4.8-1.1-8.4-5.9-8.5-10.9
		c0-2.9,1-5.4,2.9-7.5c0.4-0.4,0.4-0.7,0.2-1.2c-0.6-1.6-1.2-3.1-1.9-4.7c-0.8-2-1.6-3.9-2.5-6c-0.8,1.1-1.6,2.1-2.3,3.1
		c-2.4,3.4-4.5,7.1-5.8,11.1c-1,3.3-1.3,6.6-0.7,10c0.8,4,2.9,7.4,5.7,10.3C33.2,95.8,39.2,97.2,46,96z M33.3,47.8
		c1.5-1.5,2.9-3,4.2-4.4c2.7-2.9,5.3-5.9,7.4-9.3c2.2-3.6,3.9-7.3,4.1-11.6c0.1-3.2-0.8-6-3.3-8.1c-1.4-1.2-2.9-1.8-4.9-1
		c-4.2,1.8-7.2,4.7-9.2,8.8c-2,4.2-2.4,8.6-1.9,13.1C30.2,39.6,31.5,43.7,33.3,47.8z M51.3,93.7c2.7-1.8,4.7-3.9,6.2-6.6
		c1.5-2.8,2.2-5.7,1.8-8.9c-0.4-3.3-1.9-6.2-4.2-8.6c-2.8-2.9-6.1-4.4-10.2-4.1c-0.9,0.1-1.7,0.3-2.8,0.5
		C46.8,74.8,49,84.2,51.3,93.7z"/>
</g>
<path id="XMLID_1797_" d="M125.9,76.8c0,2,0,4.1,0,6.3c0.6-0.1,1.1-0.2,1.6-0.3c1.2-0.2,1.7,0.4,1.3,1.5c-0.5,1.4-1.6,2.3-3.3,2.5
	c0-3.3,0-6.6,0-9.9C125.7,76.8,125.8,76.8,125.9,76.8z M125.9,86.1c0.1,0.1,0.2,0.1,0.3,0.2c0.5-0.5,1.1-1,1.5-1.6
	c0.2-0.2,0-0.7,0-1c-0.4,0-0.9,0-1.3,0.1c-0.2,0-0.4,0.3-0.5,0.5C125.8,84.9,125.9,85.5,125.9,86.1z"/>
<path id="XMLID_1800_" d="M158.1,66.7c0,2,0,4.1,0,6.3c0.6-0.1,1.1-0.2,1.6-0.3c1.2-0.2,1.7,0.4,1.3,1.5c-0.5,1.4-1.6,2.3-3.3,2.5
	c0-3.3,0-6.6,0-9.9C157.8,66.7,158,66.7,158.1,66.7z M158.1,75.9c0.1,0.1,0.2,0.1,0.3,0.2c0.5-0.5,1.1-1,1.5-1.6c0.2-0.2,0-0.7,0-1
	c-0.4,0-0.9,0-1.3,0.1c-0.2,0-0.4,0.3-0.5,0.5C158,74.7,158.1,75.3,158.1,75.9z"/>
<path id="XMLID_1803_" d="M189.3,55.9c0,2,0,4.1,0,6.3c0.6-0.1,1.1-0.2,1.6-0.3c1.2-0.2,1.7,0.4,1.3,1.5c-0.5,1.4-1.6,2.3-3.3,2.5
	c0-3.3,0-6.6,0-9.9C189,55.9,189.1,55.9,189.3,55.9z M189.3,65.1c0.1,0.1,0.2,0.1,0.3,0.2c0.5-0.5,1.1-1,1.5-1.6c0.2-0.2,0-0.7,0-1
	c-0.4,0-0.9,0-1.3,0.1c-0.2,0-0.4,0.3-0.5,0.5C189.2,63.9,189.3,64.5,189.3,65.1z"/>
<path id="XMLID_1806_" d="M221.5,45.9c0,2,0,4.1,0,6.3c0.6-0.1,1.1-0.2,1.6-0.3c1.2-0.2,1.7,0.4,1.3,1.5c-0.5,1.4-1.6,2.3-3.3,2.5
	c0-3.3,0-6.6,0-9.9C221.3,45.9,221.4,45.9,221.5,45.9z M221.5,55.2c0.1,0.1,0.2,0.1,0.3,0.2c0.5-0.5,1.1-1,1.5-1.6
	c0.2-0.2,0-0.7,0-1c-0.4,0-0.9,0-1.3,0.1c-0.2,0-0.4,0.3-0.5,0.5C221.5,54,221.5,54.6,221.5,55.2z"/>
<path id="XMLID_1809_" d="M254.9,35.9c0,2,0,4.1,0,6.3c0.6-0.1,1.1-0.2,1.6-0.3c1.2-0.2,1.7,0.4,1.3,1.5c-0.5,1.4-1.6,2.3-3.3,2.5
	c0-3.3,0-6.6,0-9.9C254.7,35.9,254.8,35.9,254.9,35.9z M254.9,45.2c0.1,0.1,0.2,0.1,0.3,0.2c0.5-0.5,1.1-1,1.5-1.6
	c0.2-0.2,0-0.7,0-1c-0.4,0-0.9,0-1.3,0.1c-0.2,0-0.4,0.3-0.5,0.5C254.9,44,254.9,44.6,254.9,45.2z"/>
<path id="XMLID_1690_" d="M285.7,26.2c0,2,0,4.1,0,6.3c0.6-0.1,1.1-0.2,1.6-0.3c1.2-0.2,1.7,0.4,1.3,1.5c-0.5,1.4-1.6,2.3-3.3,2.5
	c0-3.3,0-6.6,0-9.9C285.5,26.2,285.6,26.2,285.7,26.2z M285.7,35.4c0.1,0.1,0.2,0.1,0.3,0.2c0.5-0.5,1.1-1,1.5-1.6
	c0.2-0.2,0-0.7,0-1c-0.4,0-0.9,0-1.3,0.1c-0.2,0-0.4,0.3-0.5,0.5C285.7,34.2,285.7,34.8,285.7,35.4z"/>
<path id="XMLID_646_" d="M349.9,6.2c0,2,0,4.1,0,6.3c0.6-0.1,1.1-0.2,1.6-0.3c1.2-0.2,1.7,0.4,1.3,1.5c-0.5,1.4-1.6,2.3-3.3,2.5
	c0-3.3,0-6.6,0-9.9C349.7,6.2,349.8,6.2,349.9,6.2z M349.9,15.4c0.1,0.1,0.2,0.1,0.3,0.2c0.5-0.5,1.1-1,1.5-1.6c0.2-0.2,0-0.7,0-1
	c-0.4,0-0.9,0-1.3,0.1c-0.2,0-0.4,0.3-0.5,0.5C349.9,14.3,349.9,14.8,349.9,15.4z"/>
<path id="XMLID_1044_" d="M394.8,5.7c0,2,0,4.1,0,6.3c0.6-0.1,1.1-0.2,1.6-0.3c1.2-0.2,1.7,0.4,1.3,1.5c-0.5,1.4-1.6,2.3-3.3,2.5
	c0-3.3,0-6.6,0-9.9C394.6,5.7,394.7,5.7,394.8,5.7z M394.8,14.9c0.1,0.1,0.2,0.1,0.3,0.2c0.5-0.5,1.1-1,1.5-1.6c0.2-0.2,0-0.7,0-1
	c-0.4,0-0.9,0-1.3,0.1c-0.2,0-0.4,0.3-0.5,0.5C394.8,13.8,394.8,14.4,394.8,14.9z"/>
<path id="XMLID_644_" d="M458.2,26c0,2,0,4.1,0,6.3c0.6-0.1,1.1-0.2,1.6-0.3c1.2-0.2,1.7,0.4,1.3,1.5c-0.5,1.4-1.6,2.3-3.3,2.5
	c0-3.3,0-6.6,0-9.9C458,26,458.1,26,458.2,26z M458.2,35.2c0.1,0.1,0.2,0.1,0.3,0.2c0.5-0.5,1.1-1,1.5-1.6c0.2-0.2,0-0.7,0-1
	c-0.4,0-0.9,0-1.3,0.1c-0.2,0-0.4,0.3-0.5,0.5C458.2,34,458.2,34.6,458.2,35.2z"/>
<path id="XMLID_800_" d="M491.5,36.2c0,2,0,4.1,0,6.3c0.6-0.1,1.1-0.2,1.6-0.3c1.2-0.2,1.7,0.4,1.3,1.5c-0.5,1.4-1.6,2.3-3.3,2.5
	c0-3.3,0-6.6,0-9.9C491.3,36.2,491.4,36.2,491.5,36.2z M491.5,45.5c0.1,0.1,0.2,0.1,0.3,0.2c0.5-0.5,1.1-1,1.5-1.6
	c0.2-0.2,0-0.7,0-1c-0.4,0-0.9,0-1.3,0.1c-0.2,0-0.4,0.3-0.5,0.5C491.5,44.3,491.5,44.9,491.5,45.5z"/>
<path id="XMLID_1047_" d="M522.4,45.6c0,2,0,4.1,0,6.3c0.6-0.1,1.1-0.2,1.6-0.3c1.2-0.2,1.7,0.4,1.3,1.5c-0.5,1.4-1.6,2.3-3.3,2.5
	c0-3.3,0-6.6,0-9.9C522.1,45.6,522.2,45.6,522.4,45.6z M522.3,54.9c0.1,0.1,0.2,0.1,0.3,0.2c0.5-0.5,1.1-1,1.5-1.6
	c0.2-0.2,0-0.7,0-1c-0.4,0-0.9,0-1.3,0.1c-0.2,0-0.4,0.3-0.5,0.5C522.3,53.7,522.3,54.3,522.3,54.9z"/>
<path id="XMLID_1050_" d="M554.4,57.4c0,2,0,4.1,0,6.3c0.6-0.1,1.1-0.2,1.6-0.3c1.2-0.2,1.7,0.4,1.3,1.5c-0.5,1.4-1.6,2.3-3.3,2.5
	c0-3.3,0-6.6,0-9.9C554.1,57.4,554.3,57.4,554.4,57.4z M554.4,66.6c0.1,0.1,0.2,0.1,0.3,0.2c0.5-0.5,1.1-1,1.5-1.6
	c0.2-0.2,0-0.7,0-1c-0.4,0-0.9,0-1.3,0.1c-0.2,0-0.4,0.3-0.5,0.5C554.3,65.4,554.4,66,554.4,66.6z"/>
<path id="XMLID_231_" d="M586.7,66.3c0,2,0,4.1,0,6.3c0.6-0.1,1.1-0.2,1.6-0.3c1.2-0.2,1.7,0.4,1.3,1.5c-0.5,1.4-1.6,2.3-3.3,2.5
	c0-3.3,0-6.6,0-9.9C586.5,66.3,586.6,66.3,586.7,66.3z M586.7,75.6c0.1,0.1,0.2,0.1,0.3,0.2c0.5-0.5,1.1-1,1.5-1.6
	c0.2-0.2,0-0.7,0-1c-0.4,0-0.9,0-1.3,0.1c-0.2,0-0.4,0.3-0.5,0.5C586.7,74.4,586.7,75,586.7,75.6z"/>
<path id="XMLID_1026_" d="M618.9,77.8c0,2,0,4.1,0,6.3c0.6-0.1,1.1-0.2,1.6-0.3c1.2-0.2,1.7,0.4,1.3,1.5c-0.5,1.4-1.6,2.3-3.3,2.5
	c0-3.3,0-6.6,0-9.9C618.7,77.8,618.8,77.8,618.9,77.8z M618.9,87.1c0.1,0.1,0.2,0.1,0.3,0.2c0.5-0.5,1.1-1,1.5-1.6
	c0.2-0.2,0-0.7,0-1c-0.4,0-0.9,0-1.3,0.1c-0.2,0-0.4,0.3-0.5,0.5C618.9,85.9,618.9,86.5,618.9,87.1z"/>
</svg>
